%
M48
M72
T01C0.0236
T02C0.0400
T03C0.1400
%
T01
X17850Y8600
X16850Y8600
X17850Y9100
X16850Y9100
X17850Y9600
X16850Y9600
X17850Y10100
X16850Y10100
X17850Y10600
X16850Y10600
X17850Y11100
X16850Y11100
X17850Y11600
X16850Y11600
X17850Y12100
X16850Y12100
X17850Y12600
X16850Y12600
X17850Y13100
X16850Y13100
X17850Y13600
X16850Y13600
X17850Y14100
X16850Y14100
X17850Y14600
X16850Y14600
X17850Y15100
X16850Y15100
X17850Y15600
X16850Y15600
X17850Y16100
X16850Y16100
X17850Y16600
X16850Y16600
X17850Y17100
X16850Y17100
X17850Y17600
X16850Y17600
X17850Y18100
X16850Y18100
X17850Y18600
X16850Y18600
X17850Y19100
X16850Y19100
X17850Y19600
X16850Y19600
X17850Y20100
X16850Y20100
X17850Y20600
X16850Y20600
X17850Y21100
X16850Y21100
X17850Y21600
X16850Y21600
X17850Y22100
X16850Y22100
X17850Y22600
X16850Y22600
X17850Y23100
X16850Y23100
X17725Y7225
X17350Y6725
X16975Y6225
X16600Y5725
X16100Y5350
X2600Y12600
X15725Y7350
X16100Y7850
X16100Y24850
X15725Y25475
X2725Y18600
X13975Y30350
X13600Y29850
X2600Y22600
X13225Y29350
X12850Y28850
X12475Y28350
T02
X9600Y2100
X9600Y3100
X9600Y4100
X9600Y5100
X9600Y6100
X9600Y7100
X9600Y8100
X9600Y9100
X9600Y10100
X9600Y11100
X9600Y12100
X9600Y13100
X9600Y14100
X9600Y15100
X9600Y16100
X9600Y17100
X9600Y18100
X9600Y19100
X9600Y20100
X9600Y21100
X9600Y22100
X9600Y23100
X9600Y24100
X9600Y25100
X9600Y26100
X9600Y27100
X9600Y28100
X9600Y29100
X9600Y30100
X9600Y31100
X4100Y2100
X4100Y3100
X4100Y4100
X4100Y5100
X4100Y6100
X4100Y7100
X4100Y8100
X4100Y9100
X4100Y10100
X4100Y11100
X4100Y12100
X4100Y13100
X4100Y14100
X4100Y15100
X4100Y16100
X4100Y17100
X4100Y18100
X4100Y19100
X4100Y20100
X4100Y21100
X4100Y22100
X4100Y23100
X4100Y24100
X4100Y25100
X4100Y26100
X4100Y27100
X4100Y28100
X4100Y29100
X4100Y30100
X4100Y31100
T03
X17600Y32100
X1600Y32100
X1600Y1600
X17600Y1600
M30
