G75*
%MOIN*%
%OFA0B0*%
%FSLAX24Y24*%
%IPPOS*%
%LPD*%
%AMOC8*
5,1,8,0,0,1.08239X$1,22.5*
%
%ADD10C,0.0000*%
%ADD11R,0.0472X0.0472*%
%ADD12R,0.0591X0.0512*%
D10*
X000100Y000100D02*
X000100Y033596D01*
X018970Y033596D01*
X018970Y000100D01*
X000100Y000100D01*
X000900Y001600D02*
X000902Y001652D01*
X000908Y001704D01*
X000918Y001756D01*
X000931Y001806D01*
X000948Y001856D01*
X000969Y001904D01*
X000994Y001950D01*
X001022Y001994D01*
X001053Y002036D01*
X001087Y002076D01*
X001124Y002113D01*
X001164Y002147D01*
X001206Y002178D01*
X001250Y002206D01*
X001296Y002231D01*
X001344Y002252D01*
X001394Y002269D01*
X001444Y002282D01*
X001496Y002292D01*
X001548Y002298D01*
X001600Y002300D01*
X001652Y002298D01*
X001704Y002292D01*
X001756Y002282D01*
X001806Y002269D01*
X001856Y002252D01*
X001904Y002231D01*
X001950Y002206D01*
X001994Y002178D01*
X002036Y002147D01*
X002076Y002113D01*
X002113Y002076D01*
X002147Y002036D01*
X002178Y001994D01*
X002206Y001950D01*
X002231Y001904D01*
X002252Y001856D01*
X002269Y001806D01*
X002282Y001756D01*
X002292Y001704D01*
X002298Y001652D01*
X002300Y001600D01*
X002298Y001548D01*
X002292Y001496D01*
X002282Y001444D01*
X002269Y001394D01*
X002252Y001344D01*
X002231Y001296D01*
X002206Y001250D01*
X002178Y001206D01*
X002147Y001164D01*
X002113Y001124D01*
X002076Y001087D01*
X002036Y001053D01*
X001994Y001022D01*
X001950Y000994D01*
X001904Y000969D01*
X001856Y000948D01*
X001806Y000931D01*
X001756Y000918D01*
X001704Y000908D01*
X001652Y000902D01*
X001600Y000900D01*
X001548Y000902D01*
X001496Y000908D01*
X001444Y000918D01*
X001394Y000931D01*
X001344Y000948D01*
X001296Y000969D01*
X001250Y000994D01*
X001206Y001022D01*
X001164Y001053D01*
X001124Y001087D01*
X001087Y001124D01*
X001053Y001164D01*
X001022Y001206D01*
X000994Y001250D01*
X000969Y001296D01*
X000948Y001344D01*
X000931Y001394D01*
X000918Y001444D01*
X000908Y001496D01*
X000902Y001548D01*
X000900Y001600D01*
X016900Y001600D02*
X016902Y001652D01*
X016908Y001704D01*
X016918Y001756D01*
X016931Y001806D01*
X016948Y001856D01*
X016969Y001904D01*
X016994Y001950D01*
X017022Y001994D01*
X017053Y002036D01*
X017087Y002076D01*
X017124Y002113D01*
X017164Y002147D01*
X017206Y002178D01*
X017250Y002206D01*
X017296Y002231D01*
X017344Y002252D01*
X017394Y002269D01*
X017444Y002282D01*
X017496Y002292D01*
X017548Y002298D01*
X017600Y002300D01*
X017652Y002298D01*
X017704Y002292D01*
X017756Y002282D01*
X017806Y002269D01*
X017856Y002252D01*
X017904Y002231D01*
X017950Y002206D01*
X017994Y002178D01*
X018036Y002147D01*
X018076Y002113D01*
X018113Y002076D01*
X018147Y002036D01*
X018178Y001994D01*
X018206Y001950D01*
X018231Y001904D01*
X018252Y001856D01*
X018269Y001806D01*
X018282Y001756D01*
X018292Y001704D01*
X018298Y001652D01*
X018300Y001600D01*
X018298Y001548D01*
X018292Y001496D01*
X018282Y001444D01*
X018269Y001394D01*
X018252Y001344D01*
X018231Y001296D01*
X018206Y001250D01*
X018178Y001206D01*
X018147Y001164D01*
X018113Y001124D01*
X018076Y001087D01*
X018036Y001053D01*
X017994Y001022D01*
X017950Y000994D01*
X017904Y000969D01*
X017856Y000948D01*
X017806Y000931D01*
X017756Y000918D01*
X017704Y000908D01*
X017652Y000902D01*
X017600Y000900D01*
X017548Y000902D01*
X017496Y000908D01*
X017444Y000918D01*
X017394Y000931D01*
X017344Y000948D01*
X017296Y000969D01*
X017250Y000994D01*
X017206Y001022D01*
X017164Y001053D01*
X017124Y001087D01*
X017087Y001124D01*
X017053Y001164D01*
X017022Y001206D01*
X016994Y001250D01*
X016969Y001296D01*
X016948Y001344D01*
X016931Y001394D01*
X016918Y001444D01*
X016908Y001496D01*
X016902Y001548D01*
X016900Y001600D01*
X016900Y032100D02*
X016902Y032152D01*
X016908Y032204D01*
X016918Y032256D01*
X016931Y032306D01*
X016948Y032356D01*
X016969Y032404D01*
X016994Y032450D01*
X017022Y032494D01*
X017053Y032536D01*
X017087Y032576D01*
X017124Y032613D01*
X017164Y032647D01*
X017206Y032678D01*
X017250Y032706D01*
X017296Y032731D01*
X017344Y032752D01*
X017394Y032769D01*
X017444Y032782D01*
X017496Y032792D01*
X017548Y032798D01*
X017600Y032800D01*
X017652Y032798D01*
X017704Y032792D01*
X017756Y032782D01*
X017806Y032769D01*
X017856Y032752D01*
X017904Y032731D01*
X017950Y032706D01*
X017994Y032678D01*
X018036Y032647D01*
X018076Y032613D01*
X018113Y032576D01*
X018147Y032536D01*
X018178Y032494D01*
X018206Y032450D01*
X018231Y032404D01*
X018252Y032356D01*
X018269Y032306D01*
X018282Y032256D01*
X018292Y032204D01*
X018298Y032152D01*
X018300Y032100D01*
X018298Y032048D01*
X018292Y031996D01*
X018282Y031944D01*
X018269Y031894D01*
X018252Y031844D01*
X018231Y031796D01*
X018206Y031750D01*
X018178Y031706D01*
X018147Y031664D01*
X018113Y031624D01*
X018076Y031587D01*
X018036Y031553D01*
X017994Y031522D01*
X017950Y031494D01*
X017904Y031469D01*
X017856Y031448D01*
X017806Y031431D01*
X017756Y031418D01*
X017704Y031408D01*
X017652Y031402D01*
X017600Y031400D01*
X017548Y031402D01*
X017496Y031408D01*
X017444Y031418D01*
X017394Y031431D01*
X017344Y031448D01*
X017296Y031469D01*
X017250Y031494D01*
X017206Y031522D01*
X017164Y031553D01*
X017124Y031587D01*
X017087Y031624D01*
X017053Y031664D01*
X017022Y031706D01*
X016994Y031750D01*
X016969Y031796D01*
X016948Y031844D01*
X016931Y031894D01*
X016918Y031944D01*
X016908Y031996D01*
X016902Y032048D01*
X016900Y032100D01*
X000900Y032100D02*
X000902Y032152D01*
X000908Y032204D01*
X000918Y032256D01*
X000931Y032306D01*
X000948Y032356D01*
X000969Y032404D01*
X000994Y032450D01*
X001022Y032494D01*
X001053Y032536D01*
X001087Y032576D01*
X001124Y032613D01*
X001164Y032647D01*
X001206Y032678D01*
X001250Y032706D01*
X001296Y032731D01*
X001344Y032752D01*
X001394Y032769D01*
X001444Y032782D01*
X001496Y032792D01*
X001548Y032798D01*
X001600Y032800D01*
X001652Y032798D01*
X001704Y032792D01*
X001756Y032782D01*
X001806Y032769D01*
X001856Y032752D01*
X001904Y032731D01*
X001950Y032706D01*
X001994Y032678D01*
X002036Y032647D01*
X002076Y032613D01*
X002113Y032576D01*
X002147Y032536D01*
X002178Y032494D01*
X002206Y032450D01*
X002231Y032404D01*
X002252Y032356D01*
X002269Y032306D01*
X002282Y032256D01*
X002292Y032204D01*
X002298Y032152D01*
X002300Y032100D01*
X002298Y032048D01*
X002292Y031996D01*
X002282Y031944D01*
X002269Y031894D01*
X002252Y031844D01*
X002231Y031796D01*
X002206Y031750D01*
X002178Y031706D01*
X002147Y031664D01*
X002113Y031624D01*
X002076Y031587D01*
X002036Y031553D01*
X001994Y031522D01*
X001950Y031494D01*
X001904Y031469D01*
X001856Y031448D01*
X001806Y031431D01*
X001756Y031418D01*
X001704Y031408D01*
X001652Y031402D01*
X001600Y031400D01*
X001548Y031402D01*
X001496Y031408D01*
X001444Y031418D01*
X001394Y031431D01*
X001344Y031448D01*
X001296Y031469D01*
X001250Y031494D01*
X001206Y031522D01*
X001164Y031553D01*
X001124Y031587D01*
X001087Y031624D01*
X001053Y031664D01*
X001022Y031706D01*
X000994Y031750D01*
X000969Y031796D01*
X000948Y031844D01*
X000931Y031894D01*
X000918Y031944D01*
X000908Y031996D01*
X000902Y032048D01*
X000900Y032100D01*
D11*
X001600Y021013D03*
X001600Y020187D03*
X001600Y015513D03*
X001600Y014687D03*
D12*
X001600Y013474D03*
X001600Y012726D03*
X001600Y018226D03*
X001600Y018974D03*
M02*
