G04 #@! TF.GenerationSoftware,KiCad,Pcbnew,5.1.10-88a1d61d58~88~ubuntu20.10.1*
G04 #@! TF.CreationDate,2021-05-13T20:13:21+02:00*
G04 #@! TF.ProjectId,Cartridge-Breakout-Board,43617274-7269-4646-9765-2d427265616b,1.0*
G04 #@! TF.SameCoordinates,Original*
G04 #@! TF.FileFunction,Soldermask,Bot*
G04 #@! TF.FilePolarity,Negative*
%FSLAX46Y46*%
G04 Gerber Fmt 4.6, Leading zero omitted, Abs format (unit mm)*
G04 Created by KiCad (PCBNEW 5.1.10-88a1d61d58~88~ubuntu20.10.1) date 2021-05-13 20:13:21*
%MOMM*%
%LPD*%
G01*
G04 APERTURE LIST*
%ADD10C,3.200000*%
%ADD11C,1.676400*%
%ADD12R,1.700000X1.700000*%
%ADD13O,1.700000X1.700000*%
G04 APERTURE END LIST*
D10*
X84000000Y-44000000D03*
X126000000Y-44000000D03*
X126000000Y-86000000D03*
X84000000Y-86000000D03*
D11*
X101280000Y-76440000D03*
X103820000Y-75170000D03*
X101280000Y-73900000D03*
X103820000Y-72630000D03*
X101280000Y-71360000D03*
X103820000Y-70090000D03*
X101280000Y-68820000D03*
X103820000Y-67550000D03*
X101280000Y-66280000D03*
X103820000Y-65010000D03*
X101280000Y-63740000D03*
X103820000Y-62470000D03*
X101280000Y-61200000D03*
X103820000Y-59930000D03*
X101280000Y-58660000D03*
X103820000Y-57390000D03*
X101280000Y-56120000D03*
X103820000Y-54850000D03*
X101280000Y-53580000D03*
X103820000Y-52310000D03*
X106360000Y-76440000D03*
X108900000Y-75170000D03*
X106360000Y-73900000D03*
X108900000Y-72630000D03*
X106360000Y-71360000D03*
X108900000Y-70090000D03*
X106360000Y-68820000D03*
X108900000Y-67550000D03*
X106360000Y-66280000D03*
X108900000Y-65010000D03*
X106360000Y-63740000D03*
X108900000Y-62470000D03*
X106360000Y-61200000D03*
X108900000Y-59930000D03*
X106360000Y-58660000D03*
X108900000Y-57390000D03*
X106360000Y-56120000D03*
X108900000Y-54850000D03*
X106360000Y-53580000D03*
X108900000Y-52310000D03*
D12*
X116520000Y-76440000D03*
D13*
X116520000Y-73900000D03*
X116520000Y-71360000D03*
X116520000Y-68820000D03*
X116520000Y-66280000D03*
X116520000Y-63740000D03*
X116520000Y-61200000D03*
X116520000Y-58660000D03*
X116520000Y-56120000D03*
X116520000Y-53580000D03*
X93660000Y-53580000D03*
X93660000Y-56120000D03*
X93660000Y-58660000D03*
X93660000Y-61200000D03*
X93660000Y-63740000D03*
X93660000Y-66280000D03*
X93660000Y-68820000D03*
X93660000Y-71360000D03*
X93660000Y-73900000D03*
D12*
X93660000Y-76440000D03*
X125410000Y-76440000D03*
D13*
X125410000Y-73900000D03*
X125410000Y-71360000D03*
X125410000Y-68820000D03*
X125410000Y-66280000D03*
X125410000Y-63740000D03*
X125410000Y-61200000D03*
X125410000Y-58660000D03*
X125410000Y-56120000D03*
X125410000Y-53580000D03*
X84770000Y-53580000D03*
X84770000Y-56120000D03*
X84770000Y-58660000D03*
X84770000Y-61200000D03*
X84770000Y-63740000D03*
X84770000Y-66280000D03*
X84770000Y-68820000D03*
X84770000Y-71360000D03*
X84770000Y-73900000D03*
D12*
X84770000Y-76440000D03*
M02*
