%TF.GenerationSoftware,KiCad,Pcbnew,5.1.10-88a1d61d58~88~ubuntu20.10.1*%
%TF.CreationDate,2021-05-08T10:37:59+02:00*%
%TF.ProjectId,Cartridge-Breakout-Board,43617274-7269-4646-9765-2d427265616b,1.0*%
%TF.SameCoordinates,Original*%
%TF.FileFunction,Copper,L2,Bot*%
%TF.FilePolarity,Positive*%
%FSLAX46Y46*%
G04 Gerber Fmt 4.6, Leading zero omitted, Abs format (unit mm)*
G04 Created by KiCad (PCBNEW 5.1.10-88a1d61d58~88~ubuntu20.10.1) date 2021-05-08 10:37:59*
%MOMM*%
%LPD*%
G01*
G04 APERTURE LIST*
%TA.AperFunction,ComponentPad*%
%ADD10C,1.676400*%
%TD*%
%TA.AperFunction,ComponentPad*%
%ADD11R,1.700000X1.700000*%
%TD*%
%TA.AperFunction,ComponentPad*%
%ADD12O,1.700000X1.700000*%
%TD*%
%TA.AperFunction,Conductor*%
%ADD13C,0.350000*%
%TD*%
G04 APERTURE END LIST*
D10*
%TO.P,J3,21*%
%TO.N,Net-(J2-Pad1)*%
X101280000Y-76440000D03*
%TO.P,J3,22*%
%TO.N,Net-(J3-Pad22)*%
X103820000Y-75170000D03*
%TO.P,J3,23*%
%TO.N,Net-(J2-Pad2)*%
X101280000Y-73900000D03*
%TO.P,J3,24*%
%TO.N,Net-(J3-Pad24)*%
X103820000Y-72630000D03*
%TO.P,J3,25*%
%TO.N,Net-(J2-Pad3)*%
X101280000Y-71360000D03*
%TO.P,J3,26*%
%TO.N,Net-(J3-Pad26)*%
X103820000Y-70090000D03*
%TO.P,J3,27*%
%TO.N,Net-(J2-Pad4)*%
X101280000Y-68820000D03*
%TO.P,J3,28*%
%TO.N,Net-(J3-Pad28)*%
X103820000Y-67550000D03*
%TO.P,J3,29*%
%TO.N,Net-(J2-Pad5)*%
X101280000Y-66280000D03*
%TO.P,J3,30*%
%TO.N,Net-(J3-Pad30)*%
X103820000Y-65010000D03*
%TO.P,J3,31*%
%TO.N,Net-(J2-Pad6)*%
X101280000Y-63740000D03*
%TO.P,J3,32*%
%TO.N,Net-(J3-Pad32)*%
X103820000Y-62470000D03*
%TO.P,J3,33*%
%TO.N,Net-(J2-Pad7)*%
X101280000Y-61200000D03*
%TO.P,J3,34*%
%TO.N,Net-(J3-Pad34)*%
X103820000Y-59930000D03*
%TO.P,J3,35*%
%TO.N,Net-(J2-Pad8)*%
X101280000Y-58660000D03*
%TO.P,J3,36*%
%TO.N,Net-(J3-Pad36)*%
X103820000Y-57390000D03*
%TO.P,J3,37*%
%TO.N,Net-(J2-Pad9)*%
X101280000Y-56120000D03*
%TO.P,J3,38*%
%TO.N,Net-(J3-Pad38)*%
X103820000Y-54850000D03*
%TO.P,J3,39*%
%TO.N,Net-(J2-Pad10)*%
X101280000Y-53580000D03*
%TO.P,J3,40*%
%TO.N,Net-(J3-Pad40)*%
X103820000Y-52310000D03*
%TO.P,J3,1*%
%TO.N,Net-(J1-Pad1)*%
X106360000Y-76440000D03*
%TO.P,J3,2*%
%TO.N,Net-(J3-Pad2)*%
X108900000Y-75170000D03*
%TO.P,J3,3*%
%TO.N,Net-(J1-Pad2)*%
X106360000Y-73900000D03*
%TO.P,J3,4*%
%TO.N,Net-(J3-Pad4)*%
X108900000Y-72630000D03*
%TO.P,J3,5*%
%TO.N,Net-(J1-Pad3)*%
X106360000Y-71360000D03*
%TO.P,J3,6*%
%TO.N,Net-(J3-Pad6)*%
X108900000Y-70090000D03*
%TO.P,J3,7*%
%TO.N,Net-(J1-Pad4)*%
X106360000Y-68820000D03*
%TO.P,J3,8*%
%TO.N,Net-(J3-Pad8)*%
X108900000Y-67550000D03*
%TO.P,J3,9*%
%TO.N,Net-(J1-Pad5)*%
X106360000Y-66280000D03*
%TO.P,J3,10*%
%TO.N,Net-(J3-Pad10)*%
X108900000Y-65010000D03*
%TO.P,J3,11*%
%TO.N,Net-(J1-Pad6)*%
X106360000Y-63740000D03*
%TO.P,J3,12*%
%TO.N,Net-(J3-Pad12)*%
X108900000Y-62470000D03*
%TO.P,J3,13*%
%TO.N,Net-(J1-Pad7)*%
X106360000Y-61200000D03*
%TO.P,J3,14*%
%TO.N,Net-(J3-Pad14)*%
X108900000Y-59930000D03*
%TO.P,J3,15*%
%TO.N,Net-(J1-Pad8)*%
X106360000Y-58660000D03*
%TO.P,J3,16*%
%TO.N,Net-(J3-Pad16)*%
X108900000Y-57390000D03*
%TO.P,J3,17*%
%TO.N,Net-(J1-Pad9)*%
X106360000Y-56120000D03*
%TO.P,J3,18*%
%TO.N,Net-(J3-Pad18)*%
X108900000Y-54850000D03*
%TO.P,J3,19*%
%TO.N,Net-(J1-Pad10)*%
X106360000Y-53580000D03*
%TO.P,J3,20*%
%TO.N,Net-(J3-Pad20)*%
X108900000Y-52310000D03*
%TD*%
D11*
%TO.P,J1,1*%
%TO.N,Net-(J1-Pad1)*%
X116520000Y-76440000D03*
D12*
%TO.P,J1,2*%
%TO.N,Net-(J1-Pad2)*%
X116520000Y-73900000D03*
%TO.P,J1,3*%
%TO.N,Net-(J1-Pad3)*%
X116520000Y-71360000D03*
%TO.P,J1,4*%
%TO.N,Net-(J1-Pad4)*%
X116520000Y-68820000D03*
%TO.P,J1,5*%
%TO.N,Net-(J1-Pad5)*%
X116520000Y-66280000D03*
%TO.P,J1,6*%
%TO.N,Net-(J1-Pad6)*%
X116520000Y-63740000D03*
%TO.P,J1,7*%
%TO.N,Net-(J1-Pad7)*%
X116520000Y-61200000D03*
%TO.P,J1,8*%
%TO.N,Net-(J1-Pad8)*%
X116520000Y-58660000D03*
%TO.P,J1,9*%
%TO.N,Net-(J1-Pad9)*%
X116520000Y-56120000D03*
%TO.P,J1,10*%
%TO.N,Net-(J1-Pad10)*%
X116520000Y-53580000D03*
%TD*%
%TO.P,J2,10*%
%TO.N,Net-(J2-Pad10)*%
X93660000Y-53580000D03*
%TO.P,J2,9*%
%TO.N,Net-(J2-Pad9)*%
X93660000Y-56120000D03*
%TO.P,J2,8*%
%TO.N,Net-(J2-Pad8)*%
X93660000Y-58660000D03*
%TO.P,J2,7*%
%TO.N,Net-(J2-Pad7)*%
X93660000Y-61200000D03*
%TO.P,J2,6*%
%TO.N,Net-(J2-Pad6)*%
X93660000Y-63740000D03*
%TO.P,J2,5*%
%TO.N,Net-(J2-Pad5)*%
X93660000Y-66280000D03*
%TO.P,J2,4*%
%TO.N,Net-(J2-Pad4)*%
X93660000Y-68820000D03*
%TO.P,J2,3*%
%TO.N,Net-(J2-Pad3)*%
X93660000Y-71360000D03*
%TO.P,J2,2*%
%TO.N,Net-(J2-Pad2)*%
X93660000Y-73900000D03*
D11*
%TO.P,J2,1*%
%TO.N,Net-(J2-Pad1)*%
X93660000Y-76440000D03*
%TD*%
%TO.P,J4,1*%
%TO.N,Net-(J3-Pad2)*%
X125410000Y-76440000D03*
D12*
%TO.P,J4,2*%
%TO.N,Net-(J3-Pad4)*%
X125410000Y-73900000D03*
%TO.P,J4,3*%
%TO.N,Net-(J3-Pad6)*%
X125410000Y-71360000D03*
%TO.P,J4,4*%
%TO.N,Net-(J3-Pad8)*%
X125410000Y-68820000D03*
%TO.P,J4,5*%
%TO.N,Net-(J3-Pad10)*%
X125410000Y-66280000D03*
%TO.P,J4,6*%
%TO.N,Net-(J3-Pad12)*%
X125410000Y-63740000D03*
%TO.P,J4,7*%
%TO.N,Net-(J3-Pad14)*%
X125410000Y-61200000D03*
%TO.P,J4,8*%
%TO.N,Net-(J3-Pad16)*%
X125410000Y-58660000D03*
%TO.P,J4,9*%
%TO.N,Net-(J3-Pad18)*%
X125410000Y-56120000D03*
%TO.P,J4,10*%
%TO.N,Net-(J3-Pad20)*%
X125410000Y-53580000D03*
%TD*%
%TO.P,J5,10*%
%TO.N,Net-(J3-Pad40)*%
X84770000Y-53580000D03*
%TO.P,J5,9*%
%TO.N,Net-(J3-Pad38)*%
X84770000Y-56120000D03*
%TO.P,J5,8*%
%TO.N,Net-(J3-Pad36)*%
X84770000Y-58660000D03*
%TO.P,J5,7*%
%TO.N,Net-(J3-Pad34)*%
X84770000Y-61200000D03*
%TO.P,J5,6*%
%TO.N,Net-(J3-Pad32)*%
X84770000Y-63740000D03*
%TO.P,J5,5*%
%TO.N,Net-(J3-Pad30)*%
X84770000Y-66280000D03*
%TO.P,J5,4*%
%TO.N,Net-(J3-Pad28)*%
X84770000Y-68820000D03*
%TO.P,J5,3*%
%TO.N,Net-(J3-Pad26)*%
X84770000Y-71360000D03*
%TO.P,J5,2*%
%TO.N,Net-(J3-Pad24)*%
X84770000Y-73900000D03*
D11*
%TO.P,J5,1*%
%TO.N,Net-(J3-Pad22)*%
X84770000Y-76440000D03*
%TD*%
D13*
%TO.N,Net-(J1-Pad1)*%
X106360000Y-76440000D02*
X116520000Y-76440000D01*
%TO.N,Net-(J1-Pad2)*%
X106360000Y-73900000D02*
X116520000Y-73900000D01*
%TO.N,Net-(J1-Pad3)*%
X106360000Y-71360000D02*
X116520000Y-71360000D01*
%TO.N,Net-(J1-Pad4)*%
X106360000Y-68820000D02*
X116520000Y-68820000D01*
%TO.N,Net-(J1-Pad5)*%
X106360000Y-66280000D02*
X116520000Y-66280000D01*
%TO.N,Net-(J1-Pad6)*%
X106360000Y-63740000D02*
X116520000Y-63740000D01*
%TO.N,Net-(J1-Pad7)*%
X106360000Y-61200000D02*
X116520000Y-61200000D01*
%TO.N,Net-(J1-Pad8)*%
X106360000Y-58660000D02*
X116520000Y-58660000D01*
%TO.N,Net-(J1-Pad9)*%
X106360000Y-56120000D02*
X116520000Y-56120000D01*
%TO.N,Net-(J1-Pad10)*%
X106360000Y-53580000D02*
X116520000Y-53580000D01*
%TO.N,Net-(J2-Pad10)*%
X93660000Y-53580000D02*
X101280000Y-53580000D01*
%TO.N,Net-(J2-Pad9)*%
X93660000Y-56120000D02*
X101280000Y-56120000D01*
%TO.N,Net-(J2-Pad8)*%
X93660000Y-58660000D02*
X101280000Y-58660000D01*
%TO.N,Net-(J2-Pad7)*%
X93660000Y-61200000D02*
X101280000Y-61200000D01*
%TO.N,Net-(J2-Pad6)*%
X93660000Y-63740000D02*
X101280000Y-63740000D01*
%TO.N,Net-(J2-Pad5)*%
X93660000Y-66280000D02*
X101280000Y-66280000D01*
%TO.N,Net-(J2-Pad4)*%
X93660000Y-68820000D02*
X101280000Y-68820000D01*
%TO.N,Net-(J2-Pad3)*%
X93660000Y-71360000D02*
X101280000Y-71360000D01*
%TO.N,Net-(J2-Pad2)*%
X93660000Y-73900000D02*
X101280000Y-73900000D01*
%TO.N,Net-(J2-Pad1)*%
X93660000Y-76440000D02*
X101280000Y-76440000D01*
%TO.N,Net-(J3-Pad22)*%
X86040000Y-75170000D02*
X84770000Y-76440000D01*
X103820000Y-75170000D02*
X86040000Y-75170000D01*
%TO.N,Net-(J3-Pad24)*%
X86040000Y-72630000D02*
X84770000Y-73900000D01*
X103820000Y-72630000D02*
X86040000Y-72630000D01*
%TO.N,Net-(J3-Pad26)*%
X86040000Y-70090000D02*
X84770000Y-71360000D01*
X103820000Y-70090000D02*
X86040000Y-70090000D01*
%TO.N,Net-(J3-Pad28)*%
X86040000Y-67550000D02*
X84770000Y-68820000D01*
X103820000Y-67550000D02*
X86040000Y-67550000D01*
%TO.N,Net-(J3-Pad30)*%
X86040000Y-65010000D02*
X84770000Y-66280000D01*
X103820000Y-65010000D02*
X86040000Y-65010000D01*
%TO.N,Net-(J3-Pad32)*%
X86040000Y-62470000D02*
X84770000Y-63740000D01*
X103820000Y-62470000D02*
X86040000Y-62470000D01*
%TO.N,Net-(J3-Pad34)*%
X86040000Y-59930000D02*
X84770000Y-61200000D01*
X103820000Y-59930000D02*
X86040000Y-59930000D01*
%TO.N,Net-(J3-Pad36)*%
X86040000Y-57390000D02*
X84770000Y-58660000D01*
X103820000Y-57390000D02*
X86040000Y-57390000D01*
%TO.N,Net-(J3-Pad38)*%
X86040000Y-54850000D02*
X84770000Y-56120000D01*
X103820000Y-54850000D02*
X86040000Y-54850000D01*
%TO.N,Net-(J3-Pad40)*%
X86040000Y-52310000D02*
X84770000Y-53580000D01*
X103820000Y-52310000D02*
X86040000Y-52310000D01*
%TO.N,Net-(J3-Pad2)*%
X124140000Y-75170000D02*
X125410000Y-76440000D01*
X108900000Y-75170000D02*
X124140000Y-75170000D01*
%TO.N,Net-(J3-Pad4)*%
X124140000Y-72630000D02*
X125410000Y-73900000D01*
X108900000Y-72630000D02*
X124140000Y-72630000D01*
%TO.N,Net-(J3-Pad6)*%
X124140000Y-70090000D02*
X125410000Y-71360000D01*
X108900000Y-70090000D02*
X124140000Y-70090000D01*
%TO.N,Net-(J3-Pad8)*%
X124140000Y-67550000D02*
X125410000Y-68820000D01*
X108900000Y-67550000D02*
X124140000Y-67550000D01*
%TO.N,Net-(J3-Pad10)*%
X124140000Y-65010000D02*
X125410000Y-66280000D01*
X108900000Y-65010000D02*
X124140000Y-65010000D01*
%TO.N,Net-(J3-Pad12)*%
X124140000Y-62470000D02*
X125410000Y-63740000D01*
X108900000Y-62470000D02*
X124140000Y-62470000D01*
%TO.N,Net-(J3-Pad14)*%
X124140000Y-59930000D02*
X125410000Y-61200000D01*
X108900000Y-59930000D02*
X124140000Y-59930000D01*
%TO.N,Net-(J3-Pad16)*%
X124140000Y-57390000D02*
X125410000Y-58660000D01*
X108900000Y-57390000D02*
X124140000Y-57390000D01*
%TO.N,Net-(J3-Pad18)*%
X124140000Y-54850000D02*
X125410000Y-56120000D01*
X108900000Y-54850000D02*
X124140000Y-54850000D01*
%TO.N,Net-(J3-Pad20)*%
X124140000Y-52310000D02*
X125410000Y-53580000D01*
X108900000Y-52310000D02*
X124140000Y-52310000D01*
%TD*%
M02*
