%FSLAX45Y45*%
G04 Gerber Fmt 4.5, Leading zero omitted, Abs format (unit mm)*
G04 Created by KiCad (PCBNEW 5.1.10-88a1d61d58~88~ubuntu20.10.1) date 2021-05-13 20:13:39*
%MOMM*%
%LPD*%
G01*
G04 APERTURE LIST*
%TA.AperFunction,Profile*%
%ADD10C,0.050000*%
%TD*%
%ADD11C,0.200000*%
%ADD12C,0.300000*%
G04 APERTURE END LIST*
D10*
X12600000Y-4000000D02*
G75*
G02*
X13000000Y-4400000I0J-400000D01*
G01*
X13000000Y-8600000D02*
G75*
G02*
X12600000Y-9000000I-400000J0D01*
G01*
X8400000Y-9000000D02*
G75*
G02*
X8000000Y-8600000I0J400000D01*
G01*
X8000000Y-4400000D02*
G75*
G02*
X8400000Y-4000000I400000J0D01*
G01*
X8000000Y-8600000D02*
X8000000Y-4400000D01*
X12600000Y-9000000D02*
X8400000Y-9000000D01*
X13000000Y-4400000D02*
X13000000Y-8600000D01*
X8400000Y-4000000D02*
X12600000Y-4000000D01*
D11*
X8240000Y-4240000D02*
X8560000Y-4560000D01*
X8560000Y-4240000D02*
X8240000Y-4560000D01*
X8240000Y-8440000D02*
X8560000Y-8760000D01*
X8560000Y-8440000D02*
X8240000Y-8760000D01*
X12440000Y-4240000D02*
X12760000Y-4560000D01*
X12760000Y-4240000D02*
X12440000Y-4560000D01*
X12440000Y-8440000D02*
X12760000Y-8760000D01*
X12760000Y-8440000D02*
X12440000Y-8760000D01*
D12*
X8283928Y-9468214D02*
X8283928Y-9168214D01*
X8355357Y-9168214D01*
X8398214Y-9182500D01*
X8426786Y-9211072D01*
X8441071Y-9239643D01*
X8455357Y-9296786D01*
X8455357Y-9339643D01*
X8441071Y-9396786D01*
X8426786Y-9425357D01*
X8398214Y-9453929D01*
X8355357Y-9468214D01*
X8283928Y-9468214D01*
X8583928Y-9468214D02*
X8583928Y-9268214D01*
X8583928Y-9325357D02*
X8598214Y-9296786D01*
X8612500Y-9282500D01*
X8641071Y-9268214D01*
X8669643Y-9268214D01*
X8769643Y-9468214D02*
X8769643Y-9268214D01*
X8769643Y-9168214D02*
X8755357Y-9182500D01*
X8769643Y-9196786D01*
X8783928Y-9182500D01*
X8769643Y-9168214D01*
X8769643Y-9196786D01*
X8955357Y-9468214D02*
X8926786Y-9453929D01*
X8912500Y-9425357D01*
X8912500Y-9168214D01*
X9112500Y-9468214D02*
X9083928Y-9453929D01*
X9069643Y-9425357D01*
X9069643Y-9168214D01*
X9455357Y-9468214D02*
X9455357Y-9168214D01*
X9555357Y-9382500D01*
X9655357Y-9168214D01*
X9655357Y-9468214D01*
X9926786Y-9468214D02*
X9926786Y-9311072D01*
X9912500Y-9282500D01*
X9883928Y-9268214D01*
X9826786Y-9268214D01*
X9798214Y-9282500D01*
X9926786Y-9453929D02*
X9898214Y-9468214D01*
X9826786Y-9468214D01*
X9798214Y-9453929D01*
X9783928Y-9425357D01*
X9783928Y-9396786D01*
X9798214Y-9368214D01*
X9826786Y-9353929D01*
X9898214Y-9353929D01*
X9926786Y-9339643D01*
X10069643Y-9268214D02*
X10069643Y-9568214D01*
X10069643Y-9282500D02*
X10098214Y-9268214D01*
X10155357Y-9268214D01*
X10183928Y-9282500D01*
X10198214Y-9296786D01*
X10212500Y-9325357D01*
X10212500Y-9411072D01*
X10198214Y-9439643D01*
X10183928Y-9453929D01*
X10155357Y-9468214D01*
X10098214Y-9468214D01*
X10069643Y-9453929D01*
X10341071Y-9439643D02*
X10355357Y-9453929D01*
X10341071Y-9468214D01*
X10326786Y-9453929D01*
X10341071Y-9439643D01*
X10341071Y-9468214D01*
X10341071Y-9282500D02*
X10355357Y-9296786D01*
X10341071Y-9311072D01*
X10326786Y-9296786D01*
X10341071Y-9282500D01*
X10341071Y-9311072D01*
X7677500Y-9802500D02*
X7997500Y-10122500D01*
X7997500Y-9802500D02*
X7677500Y-10122500D01*
X8255357Y-9798214D02*
X8441071Y-9798214D01*
X8341071Y-9912500D01*
X8383928Y-9912500D01*
X8412500Y-9926786D01*
X8426786Y-9941072D01*
X8441071Y-9969643D01*
X8441071Y-10041072D01*
X8426786Y-10069643D01*
X8412500Y-10083929D01*
X8383928Y-10098214D01*
X8298214Y-10098214D01*
X8269643Y-10083929D01*
X8255357Y-10069643D01*
X8569643Y-10069643D02*
X8583928Y-10083929D01*
X8569643Y-10098214D01*
X8555357Y-10083929D01*
X8569643Y-10069643D01*
X8569643Y-10098214D01*
X8698214Y-9826786D02*
X8712500Y-9812500D01*
X8741071Y-9798214D01*
X8812500Y-9798214D01*
X8841071Y-9812500D01*
X8855357Y-9826786D01*
X8869643Y-9855357D01*
X8869643Y-9883929D01*
X8855357Y-9926786D01*
X8683928Y-10098214D01*
X8869643Y-10098214D01*
X9055357Y-9798214D02*
X9083928Y-9798214D01*
X9112500Y-9812500D01*
X9126786Y-9826786D01*
X9141071Y-9855357D01*
X9155357Y-9912500D01*
X9155357Y-9983929D01*
X9141071Y-10041072D01*
X9126786Y-10069643D01*
X9112500Y-10083929D01*
X9083928Y-10098214D01*
X9055357Y-10098214D01*
X9026786Y-10083929D01*
X9012500Y-10069643D01*
X8998214Y-10041072D01*
X8983928Y-9983929D01*
X8983928Y-9912500D01*
X8998214Y-9855357D01*
X9012500Y-9826786D01*
X9026786Y-9812500D01*
X9055357Y-9798214D01*
X9341071Y-9798214D02*
X9369643Y-9798214D01*
X9398214Y-9812500D01*
X9412500Y-9826786D01*
X9426786Y-9855357D01*
X9441071Y-9912500D01*
X9441071Y-9983929D01*
X9426786Y-10041072D01*
X9412500Y-10069643D01*
X9398214Y-10083929D01*
X9369643Y-10098214D01*
X9341071Y-10098214D01*
X9312500Y-10083929D01*
X9298214Y-10069643D01*
X9283928Y-10041072D01*
X9269643Y-9983929D01*
X9269643Y-9912500D01*
X9283928Y-9855357D01*
X9298214Y-9826786D01*
X9312500Y-9812500D01*
X9341071Y-9798214D01*
X9569643Y-10098214D02*
X9569643Y-9898214D01*
X9569643Y-9926786D02*
X9583928Y-9912500D01*
X9612500Y-9898214D01*
X9655357Y-9898214D01*
X9683928Y-9912500D01*
X9698214Y-9941072D01*
X9698214Y-10098214D01*
X9698214Y-9941072D02*
X9712500Y-9912500D01*
X9741071Y-9898214D01*
X9783928Y-9898214D01*
X9812500Y-9912500D01*
X9826786Y-9941072D01*
X9826786Y-10098214D01*
X9969643Y-10098214D02*
X9969643Y-9898214D01*
X9969643Y-9926786D02*
X9983928Y-9912500D01*
X10012500Y-9898214D01*
X10055357Y-9898214D01*
X10083928Y-9912500D01*
X10098214Y-9941072D01*
X10098214Y-10098214D01*
X10098214Y-9941072D02*
X10112500Y-9912500D01*
X10141071Y-9898214D01*
X10183928Y-9898214D01*
X10212500Y-9912500D01*
X10226786Y-9941072D01*
X10226786Y-10098214D01*
X10812500Y-9783929D02*
X10555357Y-10169643D01*
X11198214Y-9798214D02*
X11226786Y-9798214D01*
X11255357Y-9812500D01*
X11269643Y-9826786D01*
X11283928Y-9855357D01*
X11298214Y-9912500D01*
X11298214Y-9983929D01*
X11283928Y-10041072D01*
X11269643Y-10069643D01*
X11255357Y-10083929D01*
X11226786Y-10098214D01*
X11198214Y-10098214D01*
X11169643Y-10083929D01*
X11155357Y-10069643D01*
X11141071Y-10041072D01*
X11126786Y-9983929D01*
X11126786Y-9912500D01*
X11141071Y-9855357D01*
X11155357Y-9826786D01*
X11169643Y-9812500D01*
X11198214Y-9798214D01*
X11426786Y-10069643D02*
X11441071Y-10083929D01*
X11426786Y-10098214D01*
X11412500Y-10083929D01*
X11426786Y-10069643D01*
X11426786Y-10098214D01*
X11726786Y-10098214D02*
X11555357Y-10098214D01*
X11641071Y-10098214D02*
X11641071Y-9798214D01*
X11612500Y-9841072D01*
X11583928Y-9869643D01*
X11555357Y-9883929D01*
X11841071Y-9826786D02*
X11855357Y-9812500D01*
X11883928Y-9798214D01*
X11955357Y-9798214D01*
X11983928Y-9812500D01*
X11998214Y-9826786D01*
X12012500Y-9855357D01*
X12012500Y-9883929D01*
X11998214Y-9926786D01*
X11826786Y-10098214D01*
X12012500Y-10098214D01*
X12269643Y-9798214D02*
X12212500Y-9798214D01*
X12183928Y-9812500D01*
X12169643Y-9826786D01*
X12141071Y-9869643D01*
X12126786Y-9926786D01*
X12126786Y-10041072D01*
X12141071Y-10069643D01*
X12155357Y-10083929D01*
X12183928Y-10098214D01*
X12241071Y-10098214D01*
X12269643Y-10083929D01*
X12283928Y-10069643D01*
X12298214Y-10041072D01*
X12298214Y-9969643D01*
X12283928Y-9941072D01*
X12269643Y-9926786D01*
X12241071Y-9912500D01*
X12183928Y-9912500D01*
X12155357Y-9926786D01*
X12141071Y-9941072D01*
X12126786Y-9969643D01*
X12483928Y-9798214D02*
X12512500Y-9798214D01*
X12541071Y-9812500D01*
X12555357Y-9826786D01*
X12569643Y-9855357D01*
X12583928Y-9912500D01*
X12583928Y-9983929D01*
X12569643Y-10041072D01*
X12555357Y-10069643D01*
X12541071Y-10083929D01*
X12512500Y-10098214D01*
X12483928Y-10098214D01*
X12455357Y-10083929D01*
X12441071Y-10069643D01*
X12426786Y-10041072D01*
X12412500Y-9983929D01*
X12412500Y-9912500D01*
X12426786Y-9855357D01*
X12441071Y-9826786D01*
X12455357Y-9812500D01*
X12483928Y-9798214D01*
X12698214Y-9798214D02*
X12698214Y-9855357D01*
X12812500Y-9798214D02*
X12812500Y-9855357D01*
X13255357Y-10212500D02*
X13241071Y-10198214D01*
X13212500Y-10155357D01*
X13198214Y-10126786D01*
X13183928Y-10083929D01*
X13169643Y-10012500D01*
X13169643Y-9955357D01*
X13183928Y-9883929D01*
X13198214Y-9841072D01*
X13212500Y-9812500D01*
X13241071Y-9769643D01*
X13255357Y-9755357D01*
X13498214Y-9898214D02*
X13498214Y-10098214D01*
X13426786Y-9783929D02*
X13355357Y-9998214D01*
X13541071Y-9998214D01*
X13883928Y-10098214D02*
X13883928Y-9798214D01*
X14012500Y-10098214D02*
X14012500Y-9941072D01*
X13998214Y-9912500D01*
X13969643Y-9898214D01*
X13926786Y-9898214D01*
X13898214Y-9912500D01*
X13883928Y-9926786D01*
X14198214Y-10098214D02*
X14169643Y-10083929D01*
X14155357Y-10069643D01*
X14141071Y-10041072D01*
X14141071Y-9955357D01*
X14155357Y-9926786D01*
X14169643Y-9912500D01*
X14198214Y-9898214D01*
X14241071Y-9898214D01*
X14269643Y-9912500D01*
X14283928Y-9926786D01*
X14298214Y-9955357D01*
X14298214Y-10041072D01*
X14283928Y-10069643D01*
X14269643Y-10083929D01*
X14241071Y-10098214D01*
X14198214Y-10098214D01*
X14469643Y-10098214D02*
X14441071Y-10083929D01*
X14426786Y-10055357D01*
X14426786Y-9798214D01*
X14698214Y-10083929D02*
X14669643Y-10098214D01*
X14612500Y-10098214D01*
X14583928Y-10083929D01*
X14569643Y-10055357D01*
X14569643Y-9941072D01*
X14583928Y-9912500D01*
X14612500Y-9898214D01*
X14669643Y-9898214D01*
X14698214Y-9912500D01*
X14712500Y-9941072D01*
X14712500Y-9969643D01*
X14569643Y-9998214D01*
X14826786Y-10083929D02*
X14855357Y-10098214D01*
X14912500Y-10098214D01*
X14941071Y-10083929D01*
X14955357Y-10055357D01*
X14955357Y-10041072D01*
X14941071Y-10012500D01*
X14912500Y-9998214D01*
X14869643Y-9998214D01*
X14841071Y-9983929D01*
X14826786Y-9955357D01*
X14826786Y-9941072D01*
X14841071Y-9912500D01*
X14869643Y-9898214D01*
X14912500Y-9898214D01*
X14941071Y-9912500D01*
X15055357Y-10212500D02*
X15069643Y-10198214D01*
X15098214Y-10155357D01*
X15112500Y-10126786D01*
X15126786Y-10083929D01*
X15141071Y-10012500D01*
X15141071Y-9955357D01*
X15126786Y-9883929D01*
X15112500Y-9841072D01*
X15098214Y-9812500D01*
X15069643Y-9769643D01*
X15055357Y-9755357D01*
X15598214Y-10212500D02*
X15583928Y-10198214D01*
X15555357Y-10155357D01*
X15541071Y-10126786D01*
X15526786Y-10083929D01*
X15512500Y-10012500D01*
X15512500Y-9955357D01*
X15526786Y-9883929D01*
X15541071Y-9841072D01*
X15555357Y-9812500D01*
X15583928Y-9769643D01*
X15598214Y-9755357D01*
X15712500Y-9898214D02*
X15712500Y-10098214D01*
X15712500Y-9926786D02*
X15726786Y-9912500D01*
X15755357Y-9898214D01*
X15798214Y-9898214D01*
X15826786Y-9912500D01*
X15841071Y-9941072D01*
X15841071Y-10098214D01*
X16026786Y-10098214D02*
X15998214Y-10083929D01*
X15983928Y-10069643D01*
X15969643Y-10041072D01*
X15969643Y-9955357D01*
X15983928Y-9926786D01*
X15998214Y-9912500D01*
X16026786Y-9898214D01*
X16069643Y-9898214D01*
X16098214Y-9912500D01*
X16112500Y-9926786D01*
X16126786Y-9955357D01*
X16126786Y-10041072D01*
X16112500Y-10069643D01*
X16098214Y-10083929D01*
X16069643Y-10098214D01*
X16026786Y-10098214D01*
X16212500Y-9898214D02*
X16326786Y-9898214D01*
X16255357Y-9798214D02*
X16255357Y-10055357D01*
X16269643Y-10083929D01*
X16298214Y-10098214D01*
X16326786Y-10098214D01*
X16655357Y-9898214D02*
X16655357Y-10198214D01*
X16655357Y-9912500D02*
X16683928Y-9898214D01*
X16741071Y-9898214D01*
X16769643Y-9912500D01*
X16783928Y-9926786D01*
X16798214Y-9955357D01*
X16798214Y-10041072D01*
X16783928Y-10069643D01*
X16769643Y-10083929D01*
X16741071Y-10098214D01*
X16683928Y-10098214D01*
X16655357Y-10083929D01*
X16969643Y-10098214D02*
X16941071Y-10083929D01*
X16926786Y-10055357D01*
X16926786Y-9798214D01*
X17212500Y-10098214D02*
X17212500Y-9941072D01*
X17198214Y-9912500D01*
X17169643Y-9898214D01*
X17112500Y-9898214D01*
X17083928Y-9912500D01*
X17212500Y-10083929D02*
X17183928Y-10098214D01*
X17112500Y-10098214D01*
X17083928Y-10083929D01*
X17069643Y-10055357D01*
X17069643Y-10026786D01*
X17083928Y-9998214D01*
X17112500Y-9983929D01*
X17183928Y-9983929D01*
X17212500Y-9969643D01*
X17312500Y-9898214D02*
X17426786Y-9898214D01*
X17355357Y-9798214D02*
X17355357Y-10055357D01*
X17369643Y-10083929D01*
X17398214Y-10098214D01*
X17426786Y-10098214D01*
X17641071Y-10083929D02*
X17612500Y-10098214D01*
X17555357Y-10098214D01*
X17526786Y-10083929D01*
X17512500Y-10055357D01*
X17512500Y-9941072D01*
X17526786Y-9912500D01*
X17555357Y-9898214D01*
X17612500Y-9898214D01*
X17641071Y-9912500D01*
X17655357Y-9941072D01*
X17655357Y-9969643D01*
X17512500Y-9998214D01*
X17912500Y-10098214D02*
X17912500Y-9798214D01*
X17912500Y-10083929D02*
X17883928Y-10098214D01*
X17826786Y-10098214D01*
X17798214Y-10083929D01*
X17783928Y-10069643D01*
X17769643Y-10041072D01*
X17769643Y-9955357D01*
X17783928Y-9926786D01*
X17798214Y-9912500D01*
X17826786Y-9898214D01*
X17883928Y-9898214D01*
X17912500Y-9912500D01*
X18026786Y-10212500D02*
X18041071Y-10198214D01*
X18069643Y-10155357D01*
X18083928Y-10126786D01*
X18098214Y-10083929D01*
X18112500Y-10012500D01*
X18112500Y-9955357D01*
X18098214Y-9883929D01*
X18083928Y-9841072D01*
X18069643Y-9812500D01*
X18041071Y-9769643D01*
X18026786Y-9755357D01*
M02*
