%FSLAX45Y45*%
G04 Gerber Fmt 4.5, Leading zero omitted, Abs format (unit mm)*
G04 Created by KiCad (PCBNEW 5.1.10-88a1d61d58~88~ubuntu20.10.1) date 2021-05-13 20:13:39*
%MOMM*%
%LPD*%
G01*
G04 APERTURE LIST*
%TA.AperFunction,Profile*%
%ADD10C,0.050000*%
%TD*%
%ADD11C,0.200000*%
%ADD12C,0.300000*%
G04 APERTURE END LIST*
D10*
X12600000Y-4000000D02*
G75*
G02*
X13000000Y-4400000I0J-400000D01*
G01*
X13000000Y-8600000D02*
G75*
G02*
X12600000Y-9000000I-400000J0D01*
G01*
X8400000Y-9000000D02*
G75*
G02*
X8000000Y-8600000I0J400000D01*
G01*
X8000000Y-4400000D02*
G75*
G02*
X8400000Y-4000000I400000J0D01*
G01*
X8000000Y-8600000D02*
X8000000Y-4400000D01*
X12600000Y-9000000D02*
X8400000Y-9000000D01*
X13000000Y-4400000D02*
X13000000Y-8600000D01*
X8400000Y-4000000D02*
X12600000Y-4000000D01*
D11*
X8427000Y-5308000D02*
X8527000Y-5408000D01*
X8527000Y-5308000D02*
X8427000Y-5408000D01*
X8427000Y-5562000D02*
X8527000Y-5662000D01*
X8527000Y-5562000D02*
X8427000Y-5662000D01*
X8427000Y-5816000D02*
X8527000Y-5916000D01*
X8527000Y-5816000D02*
X8427000Y-5916000D01*
X8427000Y-6070000D02*
X8527000Y-6170000D01*
X8527000Y-6070000D02*
X8427000Y-6170000D01*
X8427000Y-6324000D02*
X8527000Y-6424000D01*
X8527000Y-6324000D02*
X8427000Y-6424000D01*
X8427000Y-6578000D02*
X8527000Y-6678000D01*
X8527000Y-6578000D02*
X8427000Y-6678000D01*
X8427000Y-6832000D02*
X8527000Y-6932000D01*
X8527000Y-6832000D02*
X8427000Y-6932000D01*
X8427000Y-7086000D02*
X8527000Y-7186000D01*
X8527000Y-7086000D02*
X8427000Y-7186000D01*
X8427000Y-7340000D02*
X8527000Y-7440000D01*
X8527000Y-7340000D02*
X8427000Y-7440000D01*
X8427000Y-7594000D02*
X8527000Y-7694000D01*
X8527000Y-7594000D02*
X8427000Y-7694000D01*
X9316000Y-5308000D02*
X9416000Y-5408000D01*
X9416000Y-5308000D02*
X9316000Y-5408000D01*
X9316000Y-5562000D02*
X9416000Y-5662000D01*
X9416000Y-5562000D02*
X9316000Y-5662000D01*
X9316000Y-5816000D02*
X9416000Y-5916000D01*
X9416000Y-5816000D02*
X9316000Y-5916000D01*
X9316000Y-6070000D02*
X9416000Y-6170000D01*
X9416000Y-6070000D02*
X9316000Y-6170000D01*
X9316000Y-6324000D02*
X9416000Y-6424000D01*
X9416000Y-6324000D02*
X9316000Y-6424000D01*
X9316000Y-6578000D02*
X9416000Y-6678000D01*
X9416000Y-6578000D02*
X9316000Y-6678000D01*
X9316000Y-6832000D02*
X9416000Y-6932000D01*
X9416000Y-6832000D02*
X9316000Y-6932000D01*
X9316000Y-7086000D02*
X9416000Y-7186000D01*
X9416000Y-7086000D02*
X9316000Y-7186000D01*
X9316000Y-7340000D02*
X9416000Y-7440000D01*
X9416000Y-7340000D02*
X9316000Y-7440000D01*
X9316000Y-7594000D02*
X9416000Y-7694000D01*
X9416000Y-7594000D02*
X9316000Y-7694000D01*
X11602000Y-5308000D02*
X11702000Y-5408000D01*
X11702000Y-5308000D02*
X11602000Y-5408000D01*
X11602000Y-5562000D02*
X11702000Y-5662000D01*
X11702000Y-5562000D02*
X11602000Y-5662000D01*
X11602000Y-5816000D02*
X11702000Y-5916000D01*
X11702000Y-5816000D02*
X11602000Y-5916000D01*
X11602000Y-6070000D02*
X11702000Y-6170000D01*
X11702000Y-6070000D02*
X11602000Y-6170000D01*
X11602000Y-6324000D02*
X11702000Y-6424000D01*
X11702000Y-6324000D02*
X11602000Y-6424000D01*
X11602000Y-6578000D02*
X11702000Y-6678000D01*
X11702000Y-6578000D02*
X11602000Y-6678000D01*
X11602000Y-6832000D02*
X11702000Y-6932000D01*
X11702000Y-6832000D02*
X11602000Y-6932000D01*
X11602000Y-7086000D02*
X11702000Y-7186000D01*
X11702000Y-7086000D02*
X11602000Y-7186000D01*
X11602000Y-7340000D02*
X11702000Y-7440000D01*
X11702000Y-7340000D02*
X11602000Y-7440000D01*
X11602000Y-7594000D02*
X11702000Y-7694000D01*
X11702000Y-7594000D02*
X11602000Y-7694000D01*
X12491000Y-5308000D02*
X12591000Y-5408000D01*
X12591000Y-5308000D02*
X12491000Y-5408000D01*
X12491000Y-5562000D02*
X12591000Y-5662000D01*
X12591000Y-5562000D02*
X12491000Y-5662000D01*
X12491000Y-5816000D02*
X12591000Y-5916000D01*
X12591000Y-5816000D02*
X12491000Y-5916000D01*
X12491000Y-6070000D02*
X12591000Y-6170000D01*
X12591000Y-6070000D02*
X12491000Y-6170000D01*
X12491000Y-6324000D02*
X12591000Y-6424000D01*
X12591000Y-6324000D02*
X12491000Y-6424000D01*
X12491000Y-6578000D02*
X12591000Y-6678000D01*
X12591000Y-6578000D02*
X12491000Y-6678000D01*
X12491000Y-6832000D02*
X12591000Y-6932000D01*
X12591000Y-6832000D02*
X12491000Y-6932000D01*
X12491000Y-7086000D02*
X12591000Y-7186000D01*
X12591000Y-7086000D02*
X12491000Y-7186000D01*
X12491000Y-7340000D02*
X12591000Y-7440000D01*
X12591000Y-7340000D02*
X12491000Y-7440000D01*
X12491000Y-7594000D02*
X12591000Y-7694000D01*
X12591000Y-7594000D02*
X12491000Y-7694000D01*
X10178800Y-5358000D02*
G75*
G03*
X10178800Y-5358000I-50800J0D01*
G01*
X10178800Y-5612000D02*
G75*
G03*
X10178800Y-5612000I-50800J0D01*
G01*
X10178800Y-5866000D02*
G75*
G03*
X10178800Y-5866000I-50800J0D01*
G01*
X10178800Y-6120000D02*
G75*
G03*
X10178800Y-6120000I-50800J0D01*
G01*
X10178800Y-6374000D02*
G75*
G03*
X10178800Y-6374000I-50800J0D01*
G01*
X10178800Y-6628000D02*
G75*
G03*
X10178800Y-6628000I-50800J0D01*
G01*
X10178800Y-6882000D02*
G75*
G03*
X10178800Y-6882000I-50800J0D01*
G01*
X10178800Y-7136000D02*
G75*
G03*
X10178800Y-7136000I-50800J0D01*
G01*
X10178800Y-7390000D02*
G75*
G03*
X10178800Y-7390000I-50800J0D01*
G01*
X10178800Y-7644000D02*
G75*
G03*
X10178800Y-7644000I-50800J0D01*
G01*
X10432800Y-5231000D02*
G75*
G03*
X10432800Y-5231000I-50800J0D01*
G01*
X10432800Y-5485000D02*
G75*
G03*
X10432800Y-5485000I-50800J0D01*
G01*
X10432800Y-5739000D02*
G75*
G03*
X10432800Y-5739000I-50800J0D01*
G01*
X10432800Y-5993000D02*
G75*
G03*
X10432800Y-5993000I-50800J0D01*
G01*
X10432800Y-6247000D02*
G75*
G03*
X10432800Y-6247000I-50800J0D01*
G01*
X10432800Y-6501000D02*
G75*
G03*
X10432800Y-6501000I-50800J0D01*
G01*
X10432800Y-6755000D02*
G75*
G03*
X10432800Y-6755000I-50800J0D01*
G01*
X10432800Y-7009000D02*
G75*
G03*
X10432800Y-7009000I-50800J0D01*
G01*
X10432800Y-7263000D02*
G75*
G03*
X10432800Y-7263000I-50800J0D01*
G01*
X10432800Y-7517000D02*
G75*
G03*
X10432800Y-7517000I-50800J0D01*
G01*
X10686800Y-5358000D02*
G75*
G03*
X10686800Y-5358000I-50800J0D01*
G01*
X10686800Y-5612000D02*
G75*
G03*
X10686800Y-5612000I-50800J0D01*
G01*
X10686800Y-5866000D02*
G75*
G03*
X10686800Y-5866000I-50800J0D01*
G01*
X10686800Y-6120000D02*
G75*
G03*
X10686800Y-6120000I-50800J0D01*
G01*
X10686800Y-6374000D02*
G75*
G03*
X10686800Y-6374000I-50800J0D01*
G01*
X10686800Y-6628000D02*
G75*
G03*
X10686800Y-6628000I-50800J0D01*
G01*
X10686800Y-6882000D02*
G75*
G03*
X10686800Y-6882000I-50800J0D01*
G01*
X10686800Y-7136000D02*
G75*
G03*
X10686800Y-7136000I-50800J0D01*
G01*
X10686800Y-7390000D02*
G75*
G03*
X10686800Y-7390000I-50800J0D01*
G01*
X10686800Y-7644000D02*
G75*
G03*
X10686800Y-7644000I-50800J0D01*
G01*
X10940800Y-5231000D02*
G75*
G03*
X10940800Y-5231000I-50800J0D01*
G01*
X10940800Y-5485000D02*
G75*
G03*
X10940800Y-5485000I-50800J0D01*
G01*
X10940800Y-5739000D02*
G75*
G03*
X10940800Y-5739000I-50800J0D01*
G01*
X10940800Y-5993000D02*
G75*
G03*
X10940800Y-5993000I-50800J0D01*
G01*
X10940800Y-6247000D02*
G75*
G03*
X10940800Y-6247000I-50800J0D01*
G01*
X10940800Y-6501000D02*
G75*
G03*
X10940800Y-6501000I-50800J0D01*
G01*
X10940800Y-6755000D02*
G75*
G03*
X10940800Y-6755000I-50800J0D01*
G01*
X10940800Y-7009000D02*
G75*
G03*
X10940800Y-7009000I-50800J0D01*
G01*
X10940800Y-7263000D02*
G75*
G03*
X10940800Y-7263000I-50800J0D01*
G01*
X10940800Y-7517000D02*
G75*
G03*
X10940800Y-7517000I-50800J0D01*
G01*
D12*
X8283928Y-9468214D02*
X8283928Y-9168214D01*
X8355357Y-9168214D01*
X8398214Y-9182500D01*
X8426786Y-9211072D01*
X8441071Y-9239643D01*
X8455357Y-9296786D01*
X8455357Y-9339643D01*
X8441071Y-9396786D01*
X8426786Y-9425357D01*
X8398214Y-9453929D01*
X8355357Y-9468214D01*
X8283928Y-9468214D01*
X8583928Y-9468214D02*
X8583928Y-9268214D01*
X8583928Y-9325357D02*
X8598214Y-9296786D01*
X8612500Y-9282500D01*
X8641071Y-9268214D01*
X8669643Y-9268214D01*
X8769643Y-9468214D02*
X8769643Y-9268214D01*
X8769643Y-9168214D02*
X8755357Y-9182500D01*
X8769643Y-9196786D01*
X8783928Y-9182500D01*
X8769643Y-9168214D01*
X8769643Y-9196786D01*
X8955357Y-9468214D02*
X8926786Y-9453929D01*
X8912500Y-9425357D01*
X8912500Y-9168214D01*
X9112500Y-9468214D02*
X9083928Y-9453929D01*
X9069643Y-9425357D01*
X9069643Y-9168214D01*
X9455357Y-9468214D02*
X9455357Y-9168214D01*
X9555357Y-9382500D01*
X9655357Y-9168214D01*
X9655357Y-9468214D01*
X9926786Y-9468214D02*
X9926786Y-9311072D01*
X9912500Y-9282500D01*
X9883928Y-9268214D01*
X9826786Y-9268214D01*
X9798214Y-9282500D01*
X9926786Y-9453929D02*
X9898214Y-9468214D01*
X9826786Y-9468214D01*
X9798214Y-9453929D01*
X9783928Y-9425357D01*
X9783928Y-9396786D01*
X9798214Y-9368214D01*
X9826786Y-9353929D01*
X9898214Y-9353929D01*
X9926786Y-9339643D01*
X10069643Y-9268214D02*
X10069643Y-9568214D01*
X10069643Y-9282500D02*
X10098214Y-9268214D01*
X10155357Y-9268214D01*
X10183928Y-9282500D01*
X10198214Y-9296786D01*
X10212500Y-9325357D01*
X10212500Y-9411072D01*
X10198214Y-9439643D01*
X10183928Y-9453929D01*
X10155357Y-9468214D01*
X10098214Y-9468214D01*
X10069643Y-9453929D01*
X10341071Y-9439643D02*
X10355357Y-9453929D01*
X10341071Y-9468214D01*
X10326786Y-9453929D01*
X10341071Y-9439643D01*
X10341071Y-9468214D01*
X10341071Y-9282500D02*
X10355357Y-9296786D01*
X10341071Y-9311072D01*
X10326786Y-9296786D01*
X10341071Y-9282500D01*
X10341071Y-9311072D01*
X7897500Y-9912500D02*
X7997500Y-10012500D01*
X7997500Y-9912500D02*
X7897500Y-10012500D01*
X8441071Y-10098214D02*
X8269643Y-10098214D01*
X8355357Y-10098214D02*
X8355357Y-9798214D01*
X8326786Y-9841072D01*
X8298214Y-9869643D01*
X8269643Y-9883929D01*
X8569643Y-10069643D02*
X8583928Y-10083929D01*
X8569643Y-10098214D01*
X8555357Y-10083929D01*
X8569643Y-10069643D01*
X8569643Y-10098214D01*
X8769643Y-9798214D02*
X8798214Y-9798214D01*
X8826786Y-9812500D01*
X8841071Y-9826786D01*
X8855357Y-9855357D01*
X8869643Y-9912500D01*
X8869643Y-9983929D01*
X8855357Y-10041072D01*
X8841071Y-10069643D01*
X8826786Y-10083929D01*
X8798214Y-10098214D01*
X8769643Y-10098214D01*
X8741071Y-10083929D01*
X8726786Y-10069643D01*
X8712500Y-10041072D01*
X8698214Y-9983929D01*
X8698214Y-9912500D01*
X8712500Y-9855357D01*
X8726786Y-9826786D01*
X8741071Y-9812500D01*
X8769643Y-9798214D01*
X9055357Y-9798214D02*
X9083928Y-9798214D01*
X9112500Y-9812500D01*
X9126786Y-9826786D01*
X9141071Y-9855357D01*
X9155357Y-9912500D01*
X9155357Y-9983929D01*
X9141071Y-10041072D01*
X9126786Y-10069643D01*
X9112500Y-10083929D01*
X9083928Y-10098214D01*
X9055357Y-10098214D01*
X9026786Y-10083929D01*
X9012500Y-10069643D01*
X8998214Y-10041072D01*
X8983928Y-9983929D01*
X8983928Y-9912500D01*
X8998214Y-9855357D01*
X9012500Y-9826786D01*
X9026786Y-9812500D01*
X9055357Y-9798214D01*
X9341071Y-9798214D02*
X9369643Y-9798214D01*
X9398214Y-9812500D01*
X9412500Y-9826786D01*
X9426786Y-9855357D01*
X9441071Y-9912500D01*
X9441071Y-9983929D01*
X9426786Y-10041072D01*
X9412500Y-10069643D01*
X9398214Y-10083929D01*
X9369643Y-10098214D01*
X9341071Y-10098214D01*
X9312500Y-10083929D01*
X9298214Y-10069643D01*
X9283928Y-10041072D01*
X9269643Y-9983929D01*
X9269643Y-9912500D01*
X9283928Y-9855357D01*
X9298214Y-9826786D01*
X9312500Y-9812500D01*
X9341071Y-9798214D01*
X9569643Y-10098214D02*
X9569643Y-9898214D01*
X9569643Y-9926786D02*
X9583928Y-9912500D01*
X9612500Y-9898214D01*
X9655357Y-9898214D01*
X9683928Y-9912500D01*
X9698214Y-9941072D01*
X9698214Y-10098214D01*
X9698214Y-9941072D02*
X9712500Y-9912500D01*
X9741071Y-9898214D01*
X9783928Y-9898214D01*
X9812500Y-9912500D01*
X9826786Y-9941072D01*
X9826786Y-10098214D01*
X9969643Y-10098214D02*
X9969643Y-9898214D01*
X9969643Y-9926786D02*
X9983928Y-9912500D01*
X10012500Y-9898214D01*
X10055357Y-9898214D01*
X10083928Y-9912500D01*
X10098214Y-9941072D01*
X10098214Y-10098214D01*
X10098214Y-9941072D02*
X10112500Y-9912500D01*
X10141071Y-9898214D01*
X10183928Y-9898214D01*
X10212500Y-9912500D01*
X10226786Y-9941072D01*
X10226786Y-10098214D01*
X10812500Y-9783929D02*
X10555357Y-10169643D01*
X11198214Y-9798214D02*
X11226786Y-9798214D01*
X11255357Y-9812500D01*
X11269643Y-9826786D01*
X11283928Y-9855357D01*
X11298214Y-9912500D01*
X11298214Y-9983929D01*
X11283928Y-10041072D01*
X11269643Y-10069643D01*
X11255357Y-10083929D01*
X11226786Y-10098214D01*
X11198214Y-10098214D01*
X11169643Y-10083929D01*
X11155357Y-10069643D01*
X11141071Y-10041072D01*
X11126786Y-9983929D01*
X11126786Y-9912500D01*
X11141071Y-9855357D01*
X11155357Y-9826786D01*
X11169643Y-9812500D01*
X11198214Y-9798214D01*
X11426786Y-10069643D02*
X11441071Y-10083929D01*
X11426786Y-10098214D01*
X11412500Y-10083929D01*
X11426786Y-10069643D01*
X11426786Y-10098214D01*
X11626786Y-9798214D02*
X11655357Y-9798214D01*
X11683928Y-9812500D01*
X11698214Y-9826786D01*
X11712500Y-9855357D01*
X11726786Y-9912500D01*
X11726786Y-9983929D01*
X11712500Y-10041072D01*
X11698214Y-10069643D01*
X11683928Y-10083929D01*
X11655357Y-10098214D01*
X11626786Y-10098214D01*
X11598214Y-10083929D01*
X11583928Y-10069643D01*
X11569643Y-10041072D01*
X11555357Y-9983929D01*
X11555357Y-9912500D01*
X11569643Y-9855357D01*
X11583928Y-9826786D01*
X11598214Y-9812500D01*
X11626786Y-9798214D01*
X11826786Y-9798214D02*
X12012500Y-9798214D01*
X11912500Y-9912500D01*
X11955357Y-9912500D01*
X11983928Y-9926786D01*
X11998214Y-9941072D01*
X12012500Y-9969643D01*
X12012500Y-10041072D01*
X11998214Y-10069643D01*
X11983928Y-10083929D01*
X11955357Y-10098214D01*
X11869643Y-10098214D01*
X11841071Y-10083929D01*
X11826786Y-10069643D01*
X12155357Y-10098214D02*
X12212500Y-10098214D01*
X12241071Y-10083929D01*
X12255357Y-10069643D01*
X12283928Y-10026786D01*
X12298214Y-9969643D01*
X12298214Y-9855357D01*
X12283928Y-9826786D01*
X12269643Y-9812500D01*
X12241071Y-9798214D01*
X12183928Y-9798214D01*
X12155357Y-9812500D01*
X12141071Y-9826786D01*
X12126786Y-9855357D01*
X12126786Y-9926786D01*
X12141071Y-9955357D01*
X12155357Y-9969643D01*
X12183928Y-9983929D01*
X12241071Y-9983929D01*
X12269643Y-9969643D01*
X12283928Y-9955357D01*
X12298214Y-9926786D01*
X12555357Y-9898214D02*
X12555357Y-10098214D01*
X12483928Y-9783929D02*
X12412500Y-9998214D01*
X12598214Y-9998214D01*
X12698214Y-9798214D02*
X12698214Y-9855357D01*
X12812500Y-9798214D02*
X12812500Y-9855357D01*
X13255357Y-10212500D02*
X13241071Y-10198214D01*
X13212500Y-10155357D01*
X13198214Y-10126786D01*
X13183928Y-10083929D01*
X13169643Y-10012500D01*
X13169643Y-9955357D01*
X13183928Y-9883929D01*
X13198214Y-9841072D01*
X13212500Y-9812500D01*
X13241071Y-9769643D01*
X13255357Y-9755357D01*
X13498214Y-9898214D02*
X13498214Y-10098214D01*
X13426786Y-9783929D02*
X13355357Y-9998214D01*
X13541071Y-9998214D01*
X13712500Y-9798214D02*
X13741071Y-9798214D01*
X13769643Y-9812500D01*
X13783928Y-9826786D01*
X13798214Y-9855357D01*
X13812500Y-9912500D01*
X13812500Y-9983929D01*
X13798214Y-10041072D01*
X13783928Y-10069643D01*
X13769643Y-10083929D01*
X13741071Y-10098214D01*
X13712500Y-10098214D01*
X13683928Y-10083929D01*
X13669643Y-10069643D01*
X13655357Y-10041072D01*
X13641071Y-9983929D01*
X13641071Y-9912500D01*
X13655357Y-9855357D01*
X13669643Y-9826786D01*
X13683928Y-9812500D01*
X13712500Y-9798214D01*
X14169643Y-10098214D02*
X14169643Y-9798214D01*
X14298214Y-10098214D02*
X14298214Y-9941072D01*
X14283928Y-9912500D01*
X14255357Y-9898214D01*
X14212500Y-9898214D01*
X14183928Y-9912500D01*
X14169643Y-9926786D01*
X14483928Y-10098214D02*
X14455357Y-10083929D01*
X14441071Y-10069643D01*
X14426786Y-10041072D01*
X14426786Y-9955357D01*
X14441071Y-9926786D01*
X14455357Y-9912500D01*
X14483928Y-9898214D01*
X14526786Y-9898214D01*
X14555357Y-9912500D01*
X14569643Y-9926786D01*
X14583928Y-9955357D01*
X14583928Y-10041072D01*
X14569643Y-10069643D01*
X14555357Y-10083929D01*
X14526786Y-10098214D01*
X14483928Y-10098214D01*
X14755357Y-10098214D02*
X14726786Y-10083929D01*
X14712500Y-10055357D01*
X14712500Y-9798214D01*
X14983928Y-10083929D02*
X14955357Y-10098214D01*
X14898214Y-10098214D01*
X14869643Y-10083929D01*
X14855357Y-10055357D01*
X14855357Y-9941072D01*
X14869643Y-9912500D01*
X14898214Y-9898214D01*
X14955357Y-9898214D01*
X14983928Y-9912500D01*
X14998214Y-9941072D01*
X14998214Y-9969643D01*
X14855357Y-9998214D01*
X15112500Y-10083929D02*
X15141071Y-10098214D01*
X15198214Y-10098214D01*
X15226786Y-10083929D01*
X15241071Y-10055357D01*
X15241071Y-10041072D01*
X15226786Y-10012500D01*
X15198214Y-9998214D01*
X15155357Y-9998214D01*
X15126786Y-9983929D01*
X15112500Y-9955357D01*
X15112500Y-9941072D01*
X15126786Y-9912500D01*
X15155357Y-9898214D01*
X15198214Y-9898214D01*
X15226786Y-9912500D01*
X15341071Y-10212500D02*
X15355357Y-10198214D01*
X15383928Y-10155357D01*
X15398214Y-10126786D01*
X15412500Y-10083929D01*
X15426786Y-10012500D01*
X15426786Y-9955357D01*
X15412500Y-9883929D01*
X15398214Y-9841072D01*
X15383928Y-9812500D01*
X15355357Y-9769643D01*
X15341071Y-9755357D01*
X7997500Y-10358500D02*
G75*
G03*
X7997500Y-10358500I-50800J0D01*
G01*
X8441071Y-10494214D02*
X8269643Y-10494214D01*
X8355357Y-10494214D02*
X8355357Y-10194214D01*
X8326786Y-10237072D01*
X8298214Y-10265643D01*
X8269643Y-10279929D01*
X8569643Y-10465643D02*
X8583928Y-10479929D01*
X8569643Y-10494214D01*
X8555357Y-10479929D01*
X8569643Y-10465643D01*
X8569643Y-10494214D01*
X8769643Y-10194214D02*
X8798214Y-10194214D01*
X8826786Y-10208500D01*
X8841071Y-10222786D01*
X8855357Y-10251357D01*
X8869643Y-10308500D01*
X8869643Y-10379929D01*
X8855357Y-10437072D01*
X8841071Y-10465643D01*
X8826786Y-10479929D01*
X8798214Y-10494214D01*
X8769643Y-10494214D01*
X8741071Y-10479929D01*
X8726786Y-10465643D01*
X8712500Y-10437072D01*
X8698214Y-10379929D01*
X8698214Y-10308500D01*
X8712500Y-10251357D01*
X8726786Y-10222786D01*
X8741071Y-10208500D01*
X8769643Y-10194214D01*
X9155357Y-10494214D02*
X8983928Y-10494214D01*
X9069643Y-10494214D02*
X9069643Y-10194214D01*
X9041071Y-10237072D01*
X9012500Y-10265643D01*
X8983928Y-10279929D01*
X9412500Y-10194214D02*
X9355357Y-10194214D01*
X9326786Y-10208500D01*
X9312500Y-10222786D01*
X9283928Y-10265643D01*
X9269643Y-10322786D01*
X9269643Y-10437072D01*
X9283928Y-10465643D01*
X9298214Y-10479929D01*
X9326786Y-10494214D01*
X9383928Y-10494214D01*
X9412500Y-10479929D01*
X9426786Y-10465643D01*
X9441071Y-10437072D01*
X9441071Y-10365643D01*
X9426786Y-10337072D01*
X9412500Y-10322786D01*
X9383928Y-10308500D01*
X9326786Y-10308500D01*
X9298214Y-10322786D01*
X9283928Y-10337072D01*
X9269643Y-10365643D01*
X9569643Y-10494214D02*
X9569643Y-10294214D01*
X9569643Y-10322786D02*
X9583928Y-10308500D01*
X9612500Y-10294214D01*
X9655357Y-10294214D01*
X9683928Y-10308500D01*
X9698214Y-10337072D01*
X9698214Y-10494214D01*
X9698214Y-10337072D02*
X9712500Y-10308500D01*
X9741071Y-10294214D01*
X9783928Y-10294214D01*
X9812500Y-10308500D01*
X9826786Y-10337072D01*
X9826786Y-10494214D01*
X9969643Y-10494214D02*
X9969643Y-10294214D01*
X9969643Y-10322786D02*
X9983928Y-10308500D01*
X10012500Y-10294214D01*
X10055357Y-10294214D01*
X10083928Y-10308500D01*
X10098214Y-10337072D01*
X10098214Y-10494214D01*
X10098214Y-10337072D02*
X10112500Y-10308500D01*
X10141071Y-10294214D01*
X10183928Y-10294214D01*
X10212500Y-10308500D01*
X10226786Y-10337072D01*
X10226786Y-10494214D01*
X10812500Y-10179929D02*
X10555357Y-10565643D01*
X11198214Y-10194214D02*
X11226786Y-10194214D01*
X11255357Y-10208500D01*
X11269643Y-10222786D01*
X11283928Y-10251357D01*
X11298214Y-10308500D01*
X11298214Y-10379929D01*
X11283928Y-10437072D01*
X11269643Y-10465643D01*
X11255357Y-10479929D01*
X11226786Y-10494214D01*
X11198214Y-10494214D01*
X11169643Y-10479929D01*
X11155357Y-10465643D01*
X11141071Y-10437072D01*
X11126786Y-10379929D01*
X11126786Y-10308500D01*
X11141071Y-10251357D01*
X11155357Y-10222786D01*
X11169643Y-10208500D01*
X11198214Y-10194214D01*
X11426786Y-10465643D02*
X11441071Y-10479929D01*
X11426786Y-10494214D01*
X11412500Y-10479929D01*
X11426786Y-10465643D01*
X11426786Y-10494214D01*
X11626786Y-10194214D02*
X11655357Y-10194214D01*
X11683928Y-10208500D01*
X11698214Y-10222786D01*
X11712500Y-10251357D01*
X11726786Y-10308500D01*
X11726786Y-10379929D01*
X11712500Y-10437072D01*
X11698214Y-10465643D01*
X11683928Y-10479929D01*
X11655357Y-10494214D01*
X11626786Y-10494214D01*
X11598214Y-10479929D01*
X11583928Y-10465643D01*
X11569643Y-10437072D01*
X11555357Y-10379929D01*
X11555357Y-10308500D01*
X11569643Y-10251357D01*
X11583928Y-10222786D01*
X11598214Y-10208500D01*
X11626786Y-10194214D01*
X11983928Y-10294214D02*
X11983928Y-10494214D01*
X11912500Y-10179929D02*
X11841071Y-10394214D01*
X12026786Y-10394214D01*
X12198214Y-10194214D02*
X12226786Y-10194214D01*
X12255357Y-10208500D01*
X12269643Y-10222786D01*
X12283928Y-10251357D01*
X12298214Y-10308500D01*
X12298214Y-10379929D01*
X12283928Y-10437072D01*
X12269643Y-10465643D01*
X12255357Y-10479929D01*
X12226786Y-10494214D01*
X12198214Y-10494214D01*
X12169643Y-10479929D01*
X12155357Y-10465643D01*
X12141071Y-10437072D01*
X12126786Y-10379929D01*
X12126786Y-10308500D01*
X12141071Y-10251357D01*
X12155357Y-10222786D01*
X12169643Y-10208500D01*
X12198214Y-10194214D01*
X12483928Y-10194214D02*
X12512500Y-10194214D01*
X12541071Y-10208500D01*
X12555357Y-10222786D01*
X12569643Y-10251357D01*
X12583928Y-10308500D01*
X12583928Y-10379929D01*
X12569643Y-10437072D01*
X12555357Y-10465643D01*
X12541071Y-10479929D01*
X12512500Y-10494214D01*
X12483928Y-10494214D01*
X12455357Y-10479929D01*
X12441071Y-10465643D01*
X12426786Y-10437072D01*
X12412500Y-10379929D01*
X12412500Y-10308500D01*
X12426786Y-10251357D01*
X12441071Y-10222786D01*
X12455357Y-10208500D01*
X12483928Y-10194214D01*
X12698214Y-10194214D02*
X12698214Y-10251357D01*
X12812500Y-10194214D02*
X12812500Y-10251357D01*
X13255357Y-10608500D02*
X13241071Y-10594214D01*
X13212500Y-10551357D01*
X13198214Y-10522786D01*
X13183928Y-10479929D01*
X13169643Y-10408500D01*
X13169643Y-10351357D01*
X13183928Y-10279929D01*
X13198214Y-10237072D01*
X13212500Y-10208500D01*
X13241071Y-10165643D01*
X13255357Y-10151357D01*
X13498214Y-10294214D02*
X13498214Y-10494214D01*
X13426786Y-10179929D02*
X13355357Y-10394214D01*
X13541071Y-10394214D01*
X13712500Y-10194214D02*
X13741071Y-10194214D01*
X13769643Y-10208500D01*
X13783928Y-10222786D01*
X13798214Y-10251357D01*
X13812500Y-10308500D01*
X13812500Y-10379929D01*
X13798214Y-10437072D01*
X13783928Y-10465643D01*
X13769643Y-10479929D01*
X13741071Y-10494214D01*
X13712500Y-10494214D01*
X13683928Y-10479929D01*
X13669643Y-10465643D01*
X13655357Y-10437072D01*
X13641071Y-10379929D01*
X13641071Y-10308500D01*
X13655357Y-10251357D01*
X13669643Y-10222786D01*
X13683928Y-10208500D01*
X13712500Y-10194214D01*
X14169643Y-10494214D02*
X14169643Y-10194214D01*
X14298214Y-10494214D02*
X14298214Y-10337072D01*
X14283928Y-10308500D01*
X14255357Y-10294214D01*
X14212500Y-10294214D01*
X14183928Y-10308500D01*
X14169643Y-10322786D01*
X14483928Y-10494214D02*
X14455357Y-10479929D01*
X14441071Y-10465643D01*
X14426786Y-10437072D01*
X14426786Y-10351357D01*
X14441071Y-10322786D01*
X14455357Y-10308500D01*
X14483928Y-10294214D01*
X14526786Y-10294214D01*
X14555357Y-10308500D01*
X14569643Y-10322786D01*
X14583928Y-10351357D01*
X14583928Y-10437072D01*
X14569643Y-10465643D01*
X14555357Y-10479929D01*
X14526786Y-10494214D01*
X14483928Y-10494214D01*
X14755357Y-10494214D02*
X14726786Y-10479929D01*
X14712500Y-10451357D01*
X14712500Y-10194214D01*
X14983928Y-10479929D02*
X14955357Y-10494214D01*
X14898214Y-10494214D01*
X14869643Y-10479929D01*
X14855357Y-10451357D01*
X14855357Y-10337072D01*
X14869643Y-10308500D01*
X14898214Y-10294214D01*
X14955357Y-10294214D01*
X14983928Y-10308500D01*
X14998214Y-10337072D01*
X14998214Y-10365643D01*
X14855357Y-10394214D01*
X15112500Y-10479929D02*
X15141071Y-10494214D01*
X15198214Y-10494214D01*
X15226786Y-10479929D01*
X15241071Y-10451357D01*
X15241071Y-10437072D01*
X15226786Y-10408500D01*
X15198214Y-10394214D01*
X15155357Y-10394214D01*
X15126786Y-10379929D01*
X15112500Y-10351357D01*
X15112500Y-10337072D01*
X15126786Y-10308500D01*
X15155357Y-10294214D01*
X15198214Y-10294214D01*
X15226786Y-10308500D01*
X15341071Y-10608500D02*
X15355357Y-10594214D01*
X15383928Y-10551357D01*
X15398214Y-10522786D01*
X15412500Y-10479929D01*
X15426786Y-10408500D01*
X15426786Y-10351357D01*
X15412500Y-10279929D01*
X15398214Y-10237072D01*
X15383928Y-10208500D01*
X15355357Y-10165643D01*
X15341071Y-10151357D01*
M02*
