G04 #@! TF.GenerationSoftware,KiCad,Pcbnew,5.1.10-88a1d61d58~88~ubuntu20.10.1*
G04 #@! TF.CreationDate,2021-05-13T20:13:21+02:00*
G04 #@! TF.ProjectId,Cartridge-Breakout-Board,43617274-7269-4646-9765-2d427265616b,1.0*
G04 #@! TF.SameCoordinates,Original*
G04 #@! TF.FileFunction,Legend,Top*
G04 #@! TF.FilePolarity,Positive*
%FSLAX46Y46*%
G04 Gerber Fmt 4.6, Leading zero omitted, Abs format (unit mm)*
G04 Created by KiCad (PCBNEW 5.1.10-88a1d61d58~88~ubuntu20.10.1) date 2021-05-13 20:13:21*
%MOMM*%
%LPD*%
G01*
G04 APERTURE LIST*
%ADD10C,0.150000*%
%ADD11C,0.120000*%
%ADD12C,3.200000*%
%ADD13C,1.676400*%
%ADD14R,1.700000X1.700000*%
%ADD15O,1.700000X1.700000*%
G04 APERTURE END LIST*
D10*
X91357142Y-84754761D02*
X91499999Y-84802380D01*
X91738095Y-84802380D01*
X91833333Y-84754761D01*
X91880952Y-84707142D01*
X91928571Y-84611904D01*
X91928571Y-84516666D01*
X91880952Y-84421428D01*
X91833333Y-84373809D01*
X91738095Y-84326190D01*
X91547619Y-84278571D01*
X91452380Y-84230952D01*
X91404761Y-84183333D01*
X91357142Y-84088095D01*
X91357142Y-83992857D01*
X91404761Y-83897619D01*
X91452380Y-83850000D01*
X91547619Y-83802380D01*
X91785714Y-83802380D01*
X91928571Y-83850000D01*
X92357142Y-84802380D02*
X92357142Y-83802380D01*
X92357142Y-84278571D02*
X92928571Y-84278571D01*
X92928571Y-84802380D02*
X92928571Y-83802380D01*
X93357142Y-84516666D02*
X93833333Y-84516666D01*
X93261904Y-84802380D02*
X93595238Y-83802380D01*
X93928571Y-84802380D01*
X94833333Y-84802380D02*
X94499999Y-84326190D01*
X94261904Y-84802380D02*
X94261904Y-83802380D01*
X94642857Y-83802380D01*
X94738095Y-83850000D01*
X94785714Y-83897619D01*
X94833333Y-83992857D01*
X94833333Y-84135714D01*
X94785714Y-84230952D01*
X94738095Y-84278571D01*
X94642857Y-84326190D01*
X94261904Y-84326190D01*
X95261904Y-84802380D02*
X95261904Y-83802380D01*
X95642857Y-83802380D01*
X95738095Y-83850000D01*
X95785714Y-83897619D01*
X95833333Y-83992857D01*
X95833333Y-84135714D01*
X95785714Y-84230952D01*
X95738095Y-84278571D01*
X95642857Y-84326190D01*
X95261904Y-84326190D01*
X97023809Y-84802380D02*
X97023809Y-83802380D01*
X97404761Y-83802380D01*
X97499999Y-83850000D01*
X97547619Y-83897619D01*
X97595238Y-83992857D01*
X97595238Y-84135714D01*
X97547619Y-84230952D01*
X97499999Y-84278571D01*
X97404761Y-84326190D01*
X97023809Y-84326190D01*
X98595238Y-84707142D02*
X98547619Y-84754761D01*
X98404761Y-84802380D01*
X98309523Y-84802380D01*
X98166666Y-84754761D01*
X98071428Y-84659523D01*
X98023809Y-84564285D01*
X97976190Y-84373809D01*
X97976190Y-84230952D01*
X98023809Y-84040476D01*
X98071428Y-83945238D01*
X98166666Y-83850000D01*
X98309523Y-83802380D01*
X98404761Y-83802380D01*
X98547619Y-83850000D01*
X98595238Y-83897619D01*
X100357142Y-84707142D02*
X100309523Y-84754761D01*
X100166666Y-84802380D01*
X100071428Y-84802380D01*
X99928571Y-84754761D01*
X99833333Y-84659523D01*
X99785714Y-84564285D01*
X99738095Y-84373809D01*
X99738095Y-84230952D01*
X99785714Y-84040476D01*
X99833333Y-83945238D01*
X99928571Y-83850000D01*
X100071428Y-83802380D01*
X100166666Y-83802380D01*
X100309523Y-83850000D01*
X100357142Y-83897619D01*
X101214285Y-84802380D02*
X101214285Y-84278571D01*
X101166666Y-84183333D01*
X101071428Y-84135714D01*
X100880952Y-84135714D01*
X100785714Y-84183333D01*
X101214285Y-84754761D02*
X101119047Y-84802380D01*
X100880952Y-84802380D01*
X100785714Y-84754761D01*
X100738095Y-84659523D01*
X100738095Y-84564285D01*
X100785714Y-84469047D01*
X100880952Y-84421428D01*
X101119047Y-84421428D01*
X101214285Y-84373809D01*
X101690476Y-84802380D02*
X101690476Y-84135714D01*
X101690476Y-84326190D02*
X101738095Y-84230952D01*
X101785714Y-84183333D01*
X101880952Y-84135714D01*
X101976190Y-84135714D01*
X102166666Y-84135714D02*
X102547619Y-84135714D01*
X102309523Y-83802380D02*
X102309523Y-84659523D01*
X102357142Y-84754761D01*
X102452380Y-84802380D01*
X102547619Y-84802380D01*
X102880952Y-84802380D02*
X102880952Y-84135714D01*
X102880952Y-84326190D02*
X102928571Y-84230952D01*
X102976190Y-84183333D01*
X103071428Y-84135714D01*
X103166666Y-84135714D01*
X103499999Y-84802380D02*
X103499999Y-84135714D01*
X103499999Y-83802380D02*
X103452380Y-83850000D01*
X103499999Y-83897619D01*
X103547619Y-83850000D01*
X103499999Y-83802380D01*
X103499999Y-83897619D01*
X104404761Y-84802380D02*
X104404761Y-83802380D01*
X104404761Y-84754761D02*
X104309523Y-84802380D01*
X104119047Y-84802380D01*
X104023809Y-84754761D01*
X103976190Y-84707142D01*
X103928571Y-84611904D01*
X103928571Y-84326190D01*
X103976190Y-84230952D01*
X104023809Y-84183333D01*
X104119047Y-84135714D01*
X104309523Y-84135714D01*
X104404761Y-84183333D01*
X105309523Y-84135714D02*
X105309523Y-84945238D01*
X105261904Y-85040476D01*
X105214285Y-85088095D01*
X105119047Y-85135714D01*
X104976190Y-85135714D01*
X104880952Y-85088095D01*
X105309523Y-84754761D02*
X105214285Y-84802380D01*
X105023809Y-84802380D01*
X104928571Y-84754761D01*
X104880952Y-84707142D01*
X104833333Y-84611904D01*
X104833333Y-84326190D01*
X104880952Y-84230952D01*
X104928571Y-84183333D01*
X105023809Y-84135714D01*
X105214285Y-84135714D01*
X105309523Y-84183333D01*
X106166666Y-84754761D02*
X106071428Y-84802380D01*
X105880952Y-84802380D01*
X105785714Y-84754761D01*
X105738095Y-84659523D01*
X105738095Y-84278571D01*
X105785714Y-84183333D01*
X105880952Y-84135714D01*
X106071428Y-84135714D01*
X106166666Y-84183333D01*
X106214285Y-84278571D01*
X106214285Y-84373809D01*
X105738095Y-84469047D01*
X107738095Y-84278571D02*
X107880952Y-84326190D01*
X107928571Y-84373809D01*
X107976190Y-84469047D01*
X107976190Y-84611904D01*
X107928571Y-84707142D01*
X107880952Y-84754761D01*
X107785714Y-84802380D01*
X107404761Y-84802380D01*
X107404761Y-83802380D01*
X107738095Y-83802380D01*
X107833333Y-83850000D01*
X107880952Y-83897619D01*
X107928571Y-83992857D01*
X107928571Y-84088095D01*
X107880952Y-84183333D01*
X107833333Y-84230952D01*
X107738095Y-84278571D01*
X107404761Y-84278571D01*
X108404761Y-84802380D02*
X108404761Y-84135714D01*
X108404761Y-84326190D02*
X108452380Y-84230952D01*
X108499999Y-84183333D01*
X108595238Y-84135714D01*
X108690476Y-84135714D01*
X109404761Y-84754761D02*
X109309523Y-84802380D01*
X109119047Y-84802380D01*
X109023809Y-84754761D01*
X108976190Y-84659523D01*
X108976190Y-84278571D01*
X109023809Y-84183333D01*
X109119047Y-84135714D01*
X109309523Y-84135714D01*
X109404761Y-84183333D01*
X109452380Y-84278571D01*
X109452380Y-84373809D01*
X108976190Y-84469047D01*
X110309523Y-84802380D02*
X110309523Y-84278571D01*
X110261904Y-84183333D01*
X110166666Y-84135714D01*
X109976190Y-84135714D01*
X109880952Y-84183333D01*
X110309523Y-84754761D02*
X110214285Y-84802380D01*
X109976190Y-84802380D01*
X109880952Y-84754761D01*
X109833333Y-84659523D01*
X109833333Y-84564285D01*
X109880952Y-84469047D01*
X109976190Y-84421428D01*
X110214285Y-84421428D01*
X110309523Y-84373809D01*
X110785714Y-84802380D02*
X110785714Y-83802380D01*
X110880952Y-84421428D02*
X111166666Y-84802380D01*
X111166666Y-84135714D02*
X110785714Y-84516666D01*
X111738095Y-84802380D02*
X111642857Y-84754761D01*
X111595238Y-84707142D01*
X111547619Y-84611904D01*
X111547619Y-84326190D01*
X111595238Y-84230952D01*
X111642857Y-84183333D01*
X111738095Y-84135714D01*
X111880952Y-84135714D01*
X111976190Y-84183333D01*
X112023809Y-84230952D01*
X112071428Y-84326190D01*
X112071428Y-84611904D01*
X112023809Y-84707142D01*
X111976190Y-84754761D01*
X111880952Y-84802380D01*
X111738095Y-84802380D01*
X112928571Y-84135714D02*
X112928571Y-84802380D01*
X112499999Y-84135714D02*
X112499999Y-84659523D01*
X112547619Y-84754761D01*
X112642857Y-84802380D01*
X112785714Y-84802380D01*
X112880952Y-84754761D01*
X112928571Y-84707142D01*
X113261904Y-84135714D02*
X113642857Y-84135714D01*
X113404761Y-83802380D02*
X113404761Y-84659523D01*
X113452380Y-84754761D01*
X113547619Y-84802380D01*
X113642857Y-84802380D01*
X115071428Y-84278571D02*
X115214285Y-84326190D01*
X115261904Y-84373809D01*
X115309523Y-84469047D01*
X115309523Y-84611904D01*
X115261904Y-84707142D01*
X115214285Y-84754761D01*
X115119047Y-84802380D01*
X114738095Y-84802380D01*
X114738095Y-83802380D01*
X115071428Y-83802380D01*
X115166666Y-83850000D01*
X115214285Y-83897619D01*
X115261904Y-83992857D01*
X115261904Y-84088095D01*
X115214285Y-84183333D01*
X115166666Y-84230952D01*
X115071428Y-84278571D01*
X114738095Y-84278571D01*
X115880952Y-84802380D02*
X115785714Y-84754761D01*
X115738095Y-84707142D01*
X115690476Y-84611904D01*
X115690476Y-84326190D01*
X115738095Y-84230952D01*
X115785714Y-84183333D01*
X115880952Y-84135714D01*
X116023809Y-84135714D01*
X116119047Y-84183333D01*
X116166666Y-84230952D01*
X116214285Y-84326190D01*
X116214285Y-84611904D01*
X116166666Y-84707142D01*
X116119047Y-84754761D01*
X116023809Y-84802380D01*
X115880952Y-84802380D01*
X117071428Y-84802380D02*
X117071428Y-84278571D01*
X117023809Y-84183333D01*
X116928571Y-84135714D01*
X116738095Y-84135714D01*
X116642857Y-84183333D01*
X117071428Y-84754761D02*
X116976190Y-84802380D01*
X116738095Y-84802380D01*
X116642857Y-84754761D01*
X116595238Y-84659523D01*
X116595238Y-84564285D01*
X116642857Y-84469047D01*
X116738095Y-84421428D01*
X116976190Y-84421428D01*
X117071428Y-84373809D01*
X117547619Y-84802380D02*
X117547619Y-84135714D01*
X117547619Y-84326190D02*
X117595238Y-84230952D01*
X117642857Y-84183333D01*
X117738095Y-84135714D01*
X117833333Y-84135714D01*
X118595238Y-84802380D02*
X118595238Y-83802380D01*
X118595238Y-84754761D02*
X118499999Y-84802380D01*
X118309523Y-84802380D01*
X118214285Y-84754761D01*
X118166666Y-84707142D01*
X118119047Y-84611904D01*
X118119047Y-84326190D01*
X118166666Y-84230952D01*
X118214285Y-84183333D01*
X118309523Y-84135714D01*
X118499999Y-84135714D01*
X118595238Y-84183333D01*
X92380952Y-86452380D02*
X92047619Y-85976190D01*
X91809523Y-86452380D02*
X91809523Y-85452380D01*
X92190476Y-85452380D01*
X92285714Y-85500000D01*
X92333333Y-85547619D01*
X92380952Y-85642857D01*
X92380952Y-85785714D01*
X92333333Y-85880952D01*
X92285714Y-85928571D01*
X92190476Y-85976190D01*
X91809523Y-85976190D01*
X93190476Y-86404761D02*
X93095238Y-86452380D01*
X92904761Y-86452380D01*
X92809523Y-86404761D01*
X92761904Y-86309523D01*
X92761904Y-85928571D01*
X92809523Y-85833333D01*
X92904761Y-85785714D01*
X93095238Y-85785714D01*
X93190476Y-85833333D01*
X93238095Y-85928571D01*
X93238095Y-86023809D01*
X92761904Y-86119047D01*
X93571428Y-85785714D02*
X93809523Y-86452380D01*
X94047619Y-85785714D01*
X94428571Y-86357142D02*
X94476190Y-86404761D01*
X94428571Y-86452380D01*
X94380952Y-86404761D01*
X94428571Y-86357142D01*
X94428571Y-86452380D01*
X96190476Y-86452380D02*
X95619047Y-86452380D01*
X95904761Y-86452380D02*
X95904761Y-85452380D01*
X95809523Y-85595238D01*
X95714285Y-85690476D01*
X95619047Y-85738095D01*
X96619047Y-86357142D02*
X96666666Y-86404761D01*
X96619047Y-86452380D01*
X96571428Y-86404761D01*
X96619047Y-86357142D01*
X96619047Y-86452380D01*
X97285714Y-85452380D02*
X97380952Y-85452380D01*
X97476190Y-85500000D01*
X97523809Y-85547619D01*
X97571428Y-85642857D01*
X97619047Y-85833333D01*
X97619047Y-86071428D01*
X97571428Y-86261904D01*
X97523809Y-86357142D01*
X97476190Y-86404761D01*
X97380952Y-86452380D01*
X97285714Y-86452380D01*
X97190476Y-86404761D01*
X97142857Y-86357142D01*
X97095238Y-86261904D01*
X97047619Y-86071428D01*
X97047619Y-85833333D01*
X97095238Y-85642857D01*
X97142857Y-85547619D01*
X97190476Y-85500000D01*
X97285714Y-85452380D01*
X99095238Y-86833333D02*
X99047619Y-86785714D01*
X98952380Y-86642857D01*
X98904761Y-86547619D01*
X98857142Y-86404761D01*
X98809523Y-86166666D01*
X98809523Y-85976190D01*
X98857142Y-85738095D01*
X98904761Y-85595238D01*
X98952380Y-85500000D01*
X99047619Y-85357142D01*
X99095238Y-85309523D01*
X99428571Y-85547619D02*
X99476190Y-85500000D01*
X99571428Y-85452380D01*
X99809523Y-85452380D01*
X99904761Y-85500000D01*
X99952380Y-85547619D01*
X100000000Y-85642857D01*
X100000000Y-85738095D01*
X99952380Y-85880952D01*
X99380952Y-86452380D01*
X100000000Y-86452380D01*
X100619047Y-85452380D02*
X100714285Y-85452380D01*
X100809523Y-85500000D01*
X100857142Y-85547619D01*
X100904761Y-85642857D01*
X100952380Y-85833333D01*
X100952380Y-86071428D01*
X100904761Y-86261904D01*
X100857142Y-86357142D01*
X100809523Y-86404761D01*
X100714285Y-86452380D01*
X100619047Y-86452380D01*
X100523809Y-86404761D01*
X100476190Y-86357142D01*
X100428571Y-86261904D01*
X100380952Y-86071428D01*
X100380952Y-85833333D01*
X100428571Y-85642857D01*
X100476190Y-85547619D01*
X100523809Y-85500000D01*
X100619047Y-85452380D01*
X101333333Y-85547619D02*
X101380952Y-85500000D01*
X101476190Y-85452380D01*
X101714285Y-85452380D01*
X101809523Y-85500000D01*
X101857142Y-85547619D01*
X101904761Y-85642857D01*
X101904761Y-85738095D01*
X101857142Y-85880952D01*
X101285714Y-86452380D01*
X101904761Y-86452380D01*
X102857142Y-86452380D02*
X102285714Y-86452380D01*
X102571428Y-86452380D02*
X102571428Y-85452380D01*
X102476190Y-85595238D01*
X102380952Y-85690476D01*
X102285714Y-85738095D01*
X103285714Y-86071428D02*
X104047619Y-86071428D01*
X104714285Y-85452380D02*
X104809523Y-85452380D01*
X104904761Y-85500000D01*
X104952380Y-85547619D01*
X105000000Y-85642857D01*
X105047619Y-85833333D01*
X105047619Y-86071428D01*
X105000000Y-86261904D01*
X104952380Y-86357142D01*
X104904761Y-86404761D01*
X104809523Y-86452380D01*
X104714285Y-86452380D01*
X104619047Y-86404761D01*
X104571428Y-86357142D01*
X104523809Y-86261904D01*
X104476190Y-86071428D01*
X104476190Y-85833333D01*
X104523809Y-85642857D01*
X104571428Y-85547619D01*
X104619047Y-85500000D01*
X104714285Y-85452380D01*
X105952380Y-85452380D02*
X105476190Y-85452380D01*
X105428571Y-85928571D01*
X105476190Y-85880952D01*
X105571428Y-85833333D01*
X105809523Y-85833333D01*
X105904761Y-85880952D01*
X105952380Y-85928571D01*
X105999999Y-86023809D01*
X105999999Y-86261904D01*
X105952380Y-86357142D01*
X105904761Y-86404761D01*
X105809523Y-86452380D01*
X105571428Y-86452380D01*
X105476190Y-86404761D01*
X105428571Y-86357142D01*
X106333333Y-86833333D02*
X106380952Y-86785714D01*
X106476190Y-86642857D01*
X106523809Y-86547619D01*
X106571428Y-86404761D01*
X106619047Y-86166666D01*
X106619047Y-85976190D01*
X106571428Y-85738095D01*
X106523809Y-85595238D01*
X106476190Y-85500000D01*
X106380952Y-85357142D01*
X106333333Y-85309523D01*
X108428571Y-86357142D02*
X108380952Y-86404761D01*
X108238095Y-86452380D01*
X108142857Y-86452380D01*
X107999999Y-86404761D01*
X107904761Y-86309523D01*
X107857142Y-86214285D01*
X107809523Y-86023809D01*
X107809523Y-85880952D01*
X107857142Y-85690476D01*
X107904761Y-85595238D01*
X107999999Y-85500000D01*
X108142857Y-85452380D01*
X108238095Y-85452380D01*
X108380952Y-85500000D01*
X108428571Y-85547619D01*
X109428571Y-86357142D02*
X109380952Y-86404761D01*
X109238095Y-86452380D01*
X109142857Y-86452380D01*
X108999999Y-86404761D01*
X108904761Y-86309523D01*
X108857142Y-86214285D01*
X108809523Y-86023809D01*
X108809523Y-85880952D01*
X108857142Y-85690476D01*
X108904761Y-85595238D01*
X108999999Y-85500000D01*
X109142857Y-85452380D01*
X109238095Y-85452380D01*
X109380952Y-85500000D01*
X109428571Y-85547619D01*
X110952380Y-85928571D02*
X111095238Y-85976190D01*
X111142857Y-86023809D01*
X111190476Y-86119047D01*
X111190476Y-86261904D01*
X111142857Y-86357142D01*
X111095238Y-86404761D01*
X110999999Y-86452380D01*
X110619047Y-86452380D01*
X110619047Y-85452380D01*
X110952380Y-85452380D01*
X111047619Y-85500000D01*
X111095238Y-85547619D01*
X111142857Y-85642857D01*
X111142857Y-85738095D01*
X111095238Y-85833333D01*
X111047619Y-85880952D01*
X110952380Y-85928571D01*
X110619047Y-85928571D01*
X111809523Y-85976190D02*
X111809523Y-86452380D01*
X111476190Y-85452380D02*
X111809523Y-85976190D01*
X112142857Y-85452380D01*
X112476190Y-86071428D02*
X113238095Y-86071428D01*
X113666666Y-86404761D02*
X113809523Y-86452380D01*
X114047619Y-86452380D01*
X114142857Y-86404761D01*
X114190476Y-86357142D01*
X114238095Y-86261904D01*
X114238095Y-86166666D01*
X114190476Y-86071428D01*
X114142857Y-86023809D01*
X114047619Y-85976190D01*
X113857142Y-85928571D01*
X113761904Y-85880952D01*
X113714285Y-85833333D01*
X113666666Y-85738095D01*
X113666666Y-85642857D01*
X113714285Y-85547619D01*
X113761904Y-85500000D01*
X113857142Y-85452380D01*
X114095238Y-85452380D01*
X114238095Y-85500000D01*
X114619047Y-86166666D02*
X115095238Y-86166666D01*
X114523809Y-86452380D02*
X114857142Y-85452380D01*
X115190476Y-86452380D01*
X116714285Y-85785714D02*
X116714285Y-86452380D01*
X116476190Y-85404761D02*
X116238095Y-86119047D01*
X116857142Y-86119047D01*
X117238095Y-86357142D02*
X117285714Y-86404761D01*
X117238095Y-86452380D01*
X117190476Y-86404761D01*
X117238095Y-86357142D01*
X117238095Y-86452380D01*
X117904761Y-85452380D02*
X117999999Y-85452380D01*
X118095238Y-85500000D01*
X118142857Y-85547619D01*
X118190476Y-85642857D01*
X118238095Y-85833333D01*
X118238095Y-86071428D01*
X118190476Y-86261904D01*
X118142857Y-86357142D01*
X118095238Y-86404761D01*
X117999999Y-86452380D01*
X117904761Y-86452380D01*
X117809523Y-86404761D01*
X117761904Y-86357142D01*
X117714285Y-86261904D01*
X117666666Y-86071428D01*
X117666666Y-85833333D01*
X117714285Y-85642857D01*
X117761904Y-85547619D01*
X117809523Y-85500000D01*
X117904761Y-85452380D01*
X100404761Y-88102380D02*
X100404761Y-87102380D01*
X100976190Y-88102380D02*
X100547619Y-87530952D01*
X100976190Y-87102380D02*
X100404761Y-87673809D01*
X101833333Y-88102380D02*
X101833333Y-87578571D01*
X101785714Y-87483333D01*
X101690476Y-87435714D01*
X101500000Y-87435714D01*
X101404761Y-87483333D01*
X101833333Y-88054761D02*
X101738095Y-88102380D01*
X101500000Y-88102380D01*
X101404761Y-88054761D01*
X101357142Y-87959523D01*
X101357142Y-87864285D01*
X101404761Y-87769047D01*
X101500000Y-87721428D01*
X101738095Y-87721428D01*
X101833333Y-87673809D01*
X102309523Y-88102380D02*
X102309523Y-87435714D01*
X102309523Y-87102380D02*
X102261904Y-87150000D01*
X102309523Y-87197619D01*
X102357142Y-87150000D01*
X102309523Y-87102380D01*
X102309523Y-87197619D01*
X104119047Y-88007142D02*
X104071428Y-88054761D01*
X103928571Y-88102380D01*
X103833333Y-88102380D01*
X103690476Y-88054761D01*
X103595238Y-87959523D01*
X103547619Y-87864285D01*
X103500000Y-87673809D01*
X103500000Y-87530952D01*
X103547619Y-87340476D01*
X103595238Y-87245238D01*
X103690476Y-87150000D01*
X103833333Y-87102380D01*
X103928571Y-87102380D01*
X104071428Y-87150000D01*
X104119047Y-87197619D01*
X104547619Y-88007142D02*
X104595238Y-88054761D01*
X104547619Y-88102380D01*
X104500000Y-88054761D01*
X104547619Y-88007142D01*
X104547619Y-88102380D01*
X106119047Y-87578571D02*
X106261904Y-87626190D01*
X106309523Y-87673809D01*
X106357142Y-87769047D01*
X106357142Y-87911904D01*
X106309523Y-88007142D01*
X106261904Y-88054761D01*
X106166666Y-88102380D01*
X105785714Y-88102380D01*
X105785714Y-87102380D01*
X106119047Y-87102380D01*
X106214285Y-87150000D01*
X106261904Y-87197619D01*
X106309523Y-87292857D01*
X106309523Y-87388095D01*
X106261904Y-87483333D01*
X106214285Y-87530952D01*
X106119047Y-87578571D01*
X105785714Y-87578571D01*
X107214285Y-88102380D02*
X107214285Y-87578571D01*
X107166666Y-87483333D01*
X107071428Y-87435714D01*
X106880952Y-87435714D01*
X106785714Y-87483333D01*
X107214285Y-88054761D02*
X107119047Y-88102380D01*
X106880952Y-88102380D01*
X106785714Y-88054761D01*
X106738095Y-87959523D01*
X106738095Y-87864285D01*
X106785714Y-87769047D01*
X106880952Y-87721428D01*
X107119047Y-87721428D01*
X107214285Y-87673809D01*
X108119047Y-88102380D02*
X108119047Y-87102380D01*
X108119047Y-88054761D02*
X108023809Y-88102380D01*
X107833333Y-88102380D01*
X107738095Y-88054761D01*
X107690476Y-88007142D01*
X107642857Y-87911904D01*
X107642857Y-87626190D01*
X107690476Y-87530952D01*
X107738095Y-87483333D01*
X107833333Y-87435714D01*
X108023809Y-87435714D01*
X108119047Y-87483333D01*
X108976190Y-88054761D02*
X108880952Y-88102380D01*
X108690476Y-88102380D01*
X108595238Y-88054761D01*
X108547619Y-87959523D01*
X108547619Y-87578571D01*
X108595238Y-87483333D01*
X108690476Y-87435714D01*
X108880952Y-87435714D01*
X108976190Y-87483333D01*
X109023809Y-87578571D01*
X109023809Y-87673809D01*
X108547619Y-87769047D01*
X109452380Y-88102380D02*
X109452380Y-87435714D01*
X109452380Y-87626190D02*
X109500000Y-87530952D01*
X109547619Y-87483333D01*
X109642857Y-87435714D01*
X109738095Y-87435714D01*
X87159404Y-53180000D02*
X87064166Y-53132380D01*
X86921309Y-53132380D01*
X86778452Y-53180000D01*
X86683214Y-53275238D01*
X86635595Y-53370476D01*
X86587976Y-53560952D01*
X86587976Y-53703809D01*
X86635595Y-53894285D01*
X86683214Y-53989523D01*
X86778452Y-54084761D01*
X86921309Y-54132380D01*
X87016547Y-54132380D01*
X87159404Y-54084761D01*
X87207023Y-54037142D01*
X87207023Y-53703809D01*
X87016547Y-53703809D01*
X87635595Y-54132380D02*
X87635595Y-53132380D01*
X88207023Y-54132380D01*
X88207023Y-53132380D01*
X88683214Y-54132380D02*
X88683214Y-53132380D01*
X88921309Y-53132380D01*
X89064166Y-53180000D01*
X89159404Y-53275238D01*
X89207023Y-53370476D01*
X89254642Y-53560952D01*
X89254642Y-53703809D01*
X89207023Y-53894285D01*
X89159404Y-53989523D01*
X89064166Y-54084761D01*
X88921309Y-54132380D01*
X88683214Y-54132380D01*
X96107023Y-54132380D02*
X95773690Y-53656190D01*
X95535595Y-54132380D02*
X95535595Y-53132380D01*
X95916547Y-53132380D01*
X96011785Y-53180000D01*
X96059404Y-53227619D01*
X96107023Y-53322857D01*
X96107023Y-53465714D01*
X96059404Y-53560952D01*
X96011785Y-53608571D01*
X95916547Y-53656190D01*
X95535595Y-53656190D01*
X96440357Y-53132380D02*
X96678452Y-54132380D01*
X96868928Y-53418095D01*
X97059404Y-54132380D01*
X97297500Y-53132380D01*
X86826071Y-55672380D02*
X87016547Y-55672380D01*
X87111785Y-55720000D01*
X87207023Y-55815238D01*
X87254642Y-56005714D01*
X87254642Y-56339047D01*
X87207023Y-56529523D01*
X87111785Y-56624761D01*
X87016547Y-56672380D01*
X86826071Y-56672380D01*
X86730833Y-56624761D01*
X86635595Y-56529523D01*
X86587976Y-56339047D01*
X86587976Y-56005714D01*
X86635595Y-55815238D01*
X86730833Y-55720000D01*
X86826071Y-55672380D01*
X87683214Y-56672380D02*
X87683214Y-55672380D01*
X87921309Y-55672380D01*
X88064166Y-55720000D01*
X88159404Y-55815238D01*
X88207023Y-55910476D01*
X88254642Y-56100952D01*
X88254642Y-56243809D01*
X88207023Y-56434285D01*
X88159404Y-56529523D01*
X88064166Y-56624761D01*
X87921309Y-56672380D01*
X87683214Y-56672380D01*
X95487976Y-56386666D02*
X95964166Y-56386666D01*
X95392738Y-56672380D02*
X95726071Y-55672380D01*
X96059404Y-56672380D01*
X96583214Y-55672380D02*
X96678452Y-55672380D01*
X96773690Y-55720000D01*
X96821309Y-55767619D01*
X96868928Y-55862857D01*
X96916547Y-56053333D01*
X96916547Y-56291428D01*
X96868928Y-56481904D01*
X96821309Y-56577142D01*
X96773690Y-56624761D01*
X96678452Y-56672380D01*
X96583214Y-56672380D01*
X96487976Y-56624761D01*
X96440357Y-56577142D01*
X96392738Y-56481904D01*
X96345119Y-56291428D01*
X96345119Y-56053333D01*
X96392738Y-55862857D01*
X96440357Y-55767619D01*
X96487976Y-55720000D01*
X96583214Y-55672380D01*
X86587976Y-58926666D02*
X87064166Y-58926666D01*
X86492738Y-59212380D02*
X86826071Y-58212380D01*
X87159404Y-59212380D01*
X88016547Y-59212380D02*
X87445119Y-59212380D01*
X87730833Y-59212380D02*
X87730833Y-58212380D01*
X87635595Y-58355238D01*
X87540357Y-58450476D01*
X87445119Y-58498095D01*
X95487976Y-58926666D02*
X95964166Y-58926666D01*
X95392738Y-59212380D02*
X95726071Y-58212380D01*
X96059404Y-59212380D01*
X96345119Y-58307619D02*
X96392738Y-58260000D01*
X96487976Y-58212380D01*
X96726071Y-58212380D01*
X96821309Y-58260000D01*
X96868928Y-58307619D01*
X96916547Y-58402857D01*
X96916547Y-58498095D01*
X96868928Y-58640952D01*
X96297500Y-59212380D01*
X96916547Y-59212380D01*
X86587976Y-61466666D02*
X87064166Y-61466666D01*
X86492738Y-61752380D02*
X86826071Y-60752380D01*
X87159404Y-61752380D01*
X87397500Y-60752380D02*
X88016547Y-60752380D01*
X87683214Y-61133333D01*
X87826071Y-61133333D01*
X87921309Y-61180952D01*
X87968928Y-61228571D01*
X88016547Y-61323809D01*
X88016547Y-61561904D01*
X87968928Y-61657142D01*
X87921309Y-61704761D01*
X87826071Y-61752380D01*
X87540357Y-61752380D01*
X87445119Y-61704761D01*
X87397500Y-61657142D01*
X95487976Y-61466666D02*
X95964166Y-61466666D01*
X95392738Y-61752380D02*
X95726071Y-60752380D01*
X96059404Y-61752380D01*
X96821309Y-61085714D02*
X96821309Y-61752380D01*
X96583214Y-60704761D02*
X96345119Y-61419047D01*
X96964166Y-61419047D01*
X86587976Y-64006666D02*
X87064166Y-64006666D01*
X86492738Y-64292380D02*
X86826071Y-63292380D01*
X87159404Y-64292380D01*
X87968928Y-63292380D02*
X87492738Y-63292380D01*
X87445119Y-63768571D01*
X87492738Y-63720952D01*
X87587976Y-63673333D01*
X87826071Y-63673333D01*
X87921309Y-63720952D01*
X87968928Y-63768571D01*
X88016547Y-63863809D01*
X88016547Y-64101904D01*
X87968928Y-64197142D01*
X87921309Y-64244761D01*
X87826071Y-64292380D01*
X87587976Y-64292380D01*
X87492738Y-64244761D01*
X87445119Y-64197142D01*
X95487976Y-64006666D02*
X95964166Y-64006666D01*
X95392738Y-64292380D02*
X95726071Y-63292380D01*
X96059404Y-64292380D01*
X96821309Y-63292380D02*
X96630833Y-63292380D01*
X96535595Y-63340000D01*
X96487976Y-63387619D01*
X96392738Y-63530476D01*
X96345119Y-63720952D01*
X96345119Y-64101904D01*
X96392738Y-64197142D01*
X96440357Y-64244761D01*
X96535595Y-64292380D01*
X96726071Y-64292380D01*
X96821309Y-64244761D01*
X96868928Y-64197142D01*
X96916547Y-64101904D01*
X96916547Y-63863809D01*
X96868928Y-63768571D01*
X96821309Y-63720952D01*
X96726071Y-63673333D01*
X96535595Y-63673333D01*
X96440357Y-63720952D01*
X96392738Y-63768571D01*
X96345119Y-63863809D01*
X86587976Y-66546666D02*
X87064166Y-66546666D01*
X86492738Y-66832380D02*
X86826071Y-65832380D01*
X87159404Y-66832380D01*
X87397500Y-65832380D02*
X88064166Y-65832380D01*
X87635595Y-66832380D01*
X95487976Y-66546666D02*
X95964166Y-66546666D01*
X95392738Y-66832380D02*
X95726071Y-65832380D01*
X96059404Y-66832380D01*
X96535595Y-66260952D02*
X96440357Y-66213333D01*
X96392738Y-66165714D01*
X96345119Y-66070476D01*
X96345119Y-66022857D01*
X96392738Y-65927619D01*
X96440357Y-65880000D01*
X96535595Y-65832380D01*
X96726071Y-65832380D01*
X96821309Y-65880000D01*
X96868928Y-65927619D01*
X96916547Y-66022857D01*
X96916547Y-66070476D01*
X96868928Y-66165714D01*
X96821309Y-66213333D01*
X96726071Y-66260952D01*
X96535595Y-66260952D01*
X96440357Y-66308571D01*
X96392738Y-66356190D01*
X96345119Y-66451428D01*
X96345119Y-66641904D01*
X96392738Y-66737142D01*
X96440357Y-66784761D01*
X96535595Y-66832380D01*
X96726071Y-66832380D01*
X96821309Y-66784761D01*
X96868928Y-66737142D01*
X96916547Y-66641904D01*
X96916547Y-66451428D01*
X96868928Y-66356190D01*
X96821309Y-66308571D01*
X96726071Y-66260952D01*
X86587976Y-69086666D02*
X87064166Y-69086666D01*
X86492738Y-69372380D02*
X86826071Y-68372380D01*
X87159404Y-69372380D01*
X87540357Y-69372380D02*
X87730833Y-69372380D01*
X87826071Y-69324761D01*
X87873690Y-69277142D01*
X87968928Y-69134285D01*
X88016547Y-68943809D01*
X88016547Y-68562857D01*
X87968928Y-68467619D01*
X87921309Y-68420000D01*
X87826071Y-68372380D01*
X87635595Y-68372380D01*
X87540357Y-68420000D01*
X87492738Y-68467619D01*
X87445119Y-68562857D01*
X87445119Y-68800952D01*
X87492738Y-68896190D01*
X87540357Y-68943809D01*
X87635595Y-68991428D01*
X87826071Y-68991428D01*
X87921309Y-68943809D01*
X87968928Y-68896190D01*
X88016547Y-68800952D01*
X95487976Y-69086666D02*
X95964166Y-69086666D01*
X95392738Y-69372380D02*
X95726071Y-68372380D01*
X96059404Y-69372380D01*
X96916547Y-69372380D02*
X96345119Y-69372380D01*
X96630833Y-69372380D02*
X96630833Y-68372380D01*
X96535595Y-68515238D01*
X96440357Y-68610476D01*
X96345119Y-68658095D01*
X97535595Y-68372380D02*
X97630833Y-68372380D01*
X97726071Y-68420000D01*
X97773690Y-68467619D01*
X97821309Y-68562857D01*
X97868928Y-68753333D01*
X97868928Y-68991428D01*
X97821309Y-69181904D01*
X97773690Y-69277142D01*
X97726071Y-69324761D01*
X97630833Y-69372380D01*
X97535595Y-69372380D01*
X97440357Y-69324761D01*
X97392738Y-69277142D01*
X97345119Y-69181904D01*
X97297500Y-68991428D01*
X97297500Y-68753333D01*
X97345119Y-68562857D01*
X97392738Y-68467619D01*
X97440357Y-68420000D01*
X97535595Y-68372380D01*
X86587976Y-71626666D02*
X87064166Y-71626666D01*
X86492738Y-71912380D02*
X86826071Y-70912380D01*
X87159404Y-71912380D01*
X88016547Y-71912380D02*
X87445119Y-71912380D01*
X87730833Y-71912380D02*
X87730833Y-70912380D01*
X87635595Y-71055238D01*
X87540357Y-71150476D01*
X87445119Y-71198095D01*
X88968928Y-71912380D02*
X88397500Y-71912380D01*
X88683214Y-71912380D02*
X88683214Y-70912380D01*
X88587976Y-71055238D01*
X88492738Y-71150476D01*
X88397500Y-71198095D01*
X95487976Y-71626666D02*
X95964166Y-71626666D01*
X95392738Y-71912380D02*
X95726071Y-70912380D01*
X96059404Y-71912380D01*
X96916547Y-71912380D02*
X96345119Y-71912380D01*
X96630833Y-71912380D02*
X96630833Y-70912380D01*
X96535595Y-71055238D01*
X96440357Y-71150476D01*
X96345119Y-71198095D01*
X97297500Y-71007619D02*
X97345119Y-70960000D01*
X97440357Y-70912380D01*
X97678452Y-70912380D01*
X97773690Y-70960000D01*
X97821309Y-71007619D01*
X97868928Y-71102857D01*
X97868928Y-71198095D01*
X97821309Y-71340952D01*
X97249880Y-71912380D01*
X97868928Y-71912380D01*
X86587976Y-74166666D02*
X87064166Y-74166666D01*
X86492738Y-74452380D02*
X86826071Y-73452380D01*
X87159404Y-74452380D01*
X88016547Y-74452380D02*
X87445119Y-74452380D01*
X87730833Y-74452380D02*
X87730833Y-73452380D01*
X87635595Y-73595238D01*
X87540357Y-73690476D01*
X87445119Y-73738095D01*
X88349880Y-73452380D02*
X88968928Y-73452380D01*
X88635595Y-73833333D01*
X88778452Y-73833333D01*
X88873690Y-73880952D01*
X88921309Y-73928571D01*
X88968928Y-74023809D01*
X88968928Y-74261904D01*
X88921309Y-74357142D01*
X88873690Y-74404761D01*
X88778452Y-74452380D01*
X88492738Y-74452380D01*
X88397500Y-74404761D01*
X88349880Y-74357142D01*
X95487976Y-74166666D02*
X95964166Y-74166666D01*
X95392738Y-74452380D02*
X95726071Y-73452380D01*
X96059404Y-74452380D01*
X96916547Y-74452380D02*
X96345119Y-74452380D01*
X96630833Y-74452380D02*
X96630833Y-73452380D01*
X96535595Y-73595238D01*
X96440357Y-73690476D01*
X96345119Y-73738095D01*
X97773690Y-73785714D02*
X97773690Y-74452380D01*
X97535595Y-73404761D02*
X97297500Y-74119047D01*
X97916547Y-74119047D01*
X86687976Y-76606666D02*
X87164166Y-76606666D01*
X86592738Y-76892380D02*
X86926071Y-75892380D01*
X87259404Y-76892380D01*
X88116547Y-76892380D02*
X87545119Y-76892380D01*
X87830833Y-76892380D02*
X87830833Y-75892380D01*
X87735595Y-76035238D01*
X87640357Y-76130476D01*
X87545119Y-76178095D01*
X89021309Y-75892380D02*
X88545119Y-75892380D01*
X88497500Y-76368571D01*
X88545119Y-76320952D01*
X88640357Y-76273333D01*
X88878452Y-76273333D01*
X88973690Y-76320952D01*
X89021309Y-76368571D01*
X89068928Y-76463809D01*
X89068928Y-76701904D01*
X89021309Y-76797142D01*
X88973690Y-76844761D01*
X88878452Y-76892380D01*
X88640357Y-76892380D01*
X88545119Y-76844761D01*
X88497500Y-76797142D01*
X96049404Y-75940000D02*
X95954166Y-75892380D01*
X95811309Y-75892380D01*
X95668452Y-75940000D01*
X95573214Y-76035238D01*
X95525595Y-76130476D01*
X95477976Y-76320952D01*
X95477976Y-76463809D01*
X95525595Y-76654285D01*
X95573214Y-76749523D01*
X95668452Y-76844761D01*
X95811309Y-76892380D01*
X95906547Y-76892380D01*
X96049404Y-76844761D01*
X96097023Y-76797142D01*
X96097023Y-76463809D01*
X95906547Y-76463809D01*
X96525595Y-76892380D02*
X96525595Y-75892380D01*
X97097023Y-76892380D01*
X97097023Y-75892380D01*
X97573214Y-76892380D02*
X97573214Y-75892380D01*
X97811309Y-75892380D01*
X97954166Y-75940000D01*
X98049404Y-76035238D01*
X98097023Y-76130476D01*
X98144642Y-76320952D01*
X98144642Y-76463809D01*
X98097023Y-76654285D01*
X98049404Y-76749523D01*
X97954166Y-76844761D01*
X97811309Y-76892380D01*
X97573214Y-76892380D01*
X121140595Y-53132380D02*
X121473928Y-54132380D01*
X121807261Y-53132380D01*
X122664404Y-53180000D02*
X122569166Y-53132380D01*
X122426309Y-53132380D01*
X122283452Y-53180000D01*
X122188214Y-53275238D01*
X122140595Y-53370476D01*
X122092976Y-53560952D01*
X122092976Y-53703809D01*
X122140595Y-53894285D01*
X122188214Y-53989523D01*
X122283452Y-54084761D01*
X122426309Y-54132380D01*
X122521547Y-54132380D01*
X122664404Y-54084761D01*
X122712023Y-54037142D01*
X122712023Y-53703809D01*
X122521547Y-53703809D01*
X123664404Y-53180000D02*
X123569166Y-53132380D01*
X123426309Y-53132380D01*
X123283452Y-53180000D01*
X123188214Y-53275238D01*
X123140595Y-53370476D01*
X123092976Y-53560952D01*
X123092976Y-53703809D01*
X123140595Y-53894285D01*
X123188214Y-53989523D01*
X123283452Y-54084761D01*
X123426309Y-54132380D01*
X123521547Y-54132380D01*
X123664404Y-54084761D01*
X123712023Y-54037142D01*
X123712023Y-53703809D01*
X123521547Y-53703809D01*
X113521547Y-53656190D02*
X113521547Y-54132380D01*
X113188214Y-53132380D02*
X113521547Y-53656190D01*
X113854880Y-53132380D01*
X114140595Y-53227619D02*
X114188214Y-53180000D01*
X114283452Y-53132380D01*
X114521547Y-53132380D01*
X114616785Y-53180000D01*
X114664404Y-53227619D01*
X114712023Y-53322857D01*
X114712023Y-53418095D01*
X114664404Y-53560952D01*
X114092976Y-54132380D01*
X114712023Y-54132380D01*
X122188214Y-56624761D02*
X122331071Y-56672380D01*
X122569166Y-56672380D01*
X122664404Y-56624761D01*
X122712023Y-56577142D01*
X122759642Y-56481904D01*
X122759642Y-56386666D01*
X122712023Y-56291428D01*
X122664404Y-56243809D01*
X122569166Y-56196190D01*
X122378690Y-56148571D01*
X122283452Y-56100952D01*
X122235833Y-56053333D01*
X122188214Y-55958095D01*
X122188214Y-55862857D01*
X122235833Y-55767619D01*
X122283452Y-55720000D01*
X122378690Y-55672380D01*
X122616785Y-55672380D01*
X122759642Y-55720000D01*
X123092976Y-55672380D02*
X123712023Y-55672380D01*
X123378690Y-56053333D01*
X123521547Y-56053333D01*
X123616785Y-56100952D01*
X123664404Y-56148571D01*
X123712023Y-56243809D01*
X123712023Y-56481904D01*
X123664404Y-56577142D01*
X123616785Y-56624761D01*
X123521547Y-56672380D01*
X123235833Y-56672380D01*
X123140595Y-56624761D01*
X123092976Y-56577142D01*
X113188214Y-56624761D02*
X113331071Y-56672380D01*
X113569166Y-56672380D01*
X113664404Y-56624761D01*
X113712023Y-56577142D01*
X113759642Y-56481904D01*
X113759642Y-56386666D01*
X113712023Y-56291428D01*
X113664404Y-56243809D01*
X113569166Y-56196190D01*
X113378690Y-56148571D01*
X113283452Y-56100952D01*
X113235833Y-56053333D01*
X113188214Y-55958095D01*
X113188214Y-55862857D01*
X113235833Y-55767619D01*
X113283452Y-55720000D01*
X113378690Y-55672380D01*
X113616785Y-55672380D01*
X113759642Y-55720000D01*
X114140595Y-55767619D02*
X114188214Y-55720000D01*
X114283452Y-55672380D01*
X114521547Y-55672380D01*
X114616785Y-55720000D01*
X114664404Y-55767619D01*
X114712023Y-55862857D01*
X114712023Y-55958095D01*
X114664404Y-56100952D01*
X114092976Y-56672380D01*
X114712023Y-56672380D01*
X122188214Y-59164761D02*
X122331071Y-59212380D01*
X122569166Y-59212380D01*
X122664404Y-59164761D01*
X122712023Y-59117142D01*
X122759642Y-59021904D01*
X122759642Y-58926666D01*
X122712023Y-58831428D01*
X122664404Y-58783809D01*
X122569166Y-58736190D01*
X122378690Y-58688571D01*
X122283452Y-58640952D01*
X122235833Y-58593333D01*
X122188214Y-58498095D01*
X122188214Y-58402857D01*
X122235833Y-58307619D01*
X122283452Y-58260000D01*
X122378690Y-58212380D01*
X122616785Y-58212380D01*
X122759642Y-58260000D01*
X123712023Y-59212380D02*
X123140595Y-59212380D01*
X123426309Y-59212380D02*
X123426309Y-58212380D01*
X123331071Y-58355238D01*
X123235833Y-58450476D01*
X123140595Y-58498095D01*
X112569166Y-59212380D02*
X112569166Y-58212380D01*
X113045357Y-59212380D02*
X113045357Y-58212380D01*
X113616785Y-59212380D01*
X113616785Y-58212380D01*
X114092976Y-59212380D02*
X114092976Y-58212380D01*
X114092976Y-58688571D02*
X114664404Y-58688571D01*
X114664404Y-59212380D02*
X114664404Y-58212380D01*
X122188214Y-61752380D02*
X122188214Y-60752380D01*
X122426309Y-60752380D01*
X122569166Y-60800000D01*
X122664404Y-60895238D01*
X122712023Y-60990476D01*
X122759642Y-61180952D01*
X122759642Y-61323809D01*
X122712023Y-61514285D01*
X122664404Y-61609523D01*
X122569166Y-61704761D01*
X122426309Y-61752380D01*
X122188214Y-61752380D01*
X123378690Y-60752380D02*
X123473928Y-60752380D01*
X123569166Y-60800000D01*
X123616785Y-60847619D01*
X123664404Y-60942857D01*
X123712023Y-61133333D01*
X123712023Y-61371428D01*
X123664404Y-61561904D01*
X123616785Y-61657142D01*
X123569166Y-61704761D01*
X123473928Y-61752380D01*
X123378690Y-61752380D01*
X123283452Y-61704761D01*
X123235833Y-61657142D01*
X123188214Y-61561904D01*
X123140595Y-61371428D01*
X123140595Y-61133333D01*
X123188214Y-60942857D01*
X123235833Y-60847619D01*
X123283452Y-60800000D01*
X123378690Y-60752380D01*
X113188214Y-61752380D02*
X113188214Y-60752380D01*
X113426309Y-60752380D01*
X113569166Y-60800000D01*
X113664404Y-60895238D01*
X113712023Y-60990476D01*
X113759642Y-61180952D01*
X113759642Y-61323809D01*
X113712023Y-61514285D01*
X113664404Y-61609523D01*
X113569166Y-61704761D01*
X113426309Y-61752380D01*
X113188214Y-61752380D01*
X114712023Y-61752380D02*
X114140595Y-61752380D01*
X114426309Y-61752380D02*
X114426309Y-60752380D01*
X114331071Y-60895238D01*
X114235833Y-60990476D01*
X114140595Y-61038095D01*
X122188214Y-64292380D02*
X122188214Y-63292380D01*
X122426309Y-63292380D01*
X122569166Y-63340000D01*
X122664404Y-63435238D01*
X122712023Y-63530476D01*
X122759642Y-63720952D01*
X122759642Y-63863809D01*
X122712023Y-64054285D01*
X122664404Y-64149523D01*
X122569166Y-64244761D01*
X122426309Y-64292380D01*
X122188214Y-64292380D01*
X123140595Y-63387619D02*
X123188214Y-63340000D01*
X123283452Y-63292380D01*
X123521547Y-63292380D01*
X123616785Y-63340000D01*
X123664404Y-63387619D01*
X123712023Y-63482857D01*
X123712023Y-63578095D01*
X123664404Y-63720952D01*
X123092976Y-64292380D01*
X123712023Y-64292380D01*
X113188214Y-64292380D02*
X113188214Y-63292380D01*
X113426309Y-63292380D01*
X113569166Y-63340000D01*
X113664404Y-63435238D01*
X113712023Y-63530476D01*
X113759642Y-63720952D01*
X113759642Y-63863809D01*
X113712023Y-64054285D01*
X113664404Y-64149523D01*
X113569166Y-64244761D01*
X113426309Y-64292380D01*
X113188214Y-64292380D01*
X114092976Y-63292380D02*
X114712023Y-63292380D01*
X114378690Y-63673333D01*
X114521547Y-63673333D01*
X114616785Y-63720952D01*
X114664404Y-63768571D01*
X114712023Y-63863809D01*
X114712023Y-64101904D01*
X114664404Y-64197142D01*
X114616785Y-64244761D01*
X114521547Y-64292380D01*
X114235833Y-64292380D01*
X114140595Y-64244761D01*
X114092976Y-64197142D01*
X122188214Y-66832380D02*
X122188214Y-65832380D01*
X122426309Y-65832380D01*
X122569166Y-65880000D01*
X122664404Y-65975238D01*
X122712023Y-66070476D01*
X122759642Y-66260952D01*
X122759642Y-66403809D01*
X122712023Y-66594285D01*
X122664404Y-66689523D01*
X122569166Y-66784761D01*
X122426309Y-66832380D01*
X122188214Y-66832380D01*
X123616785Y-66165714D02*
X123616785Y-66832380D01*
X123378690Y-65784761D02*
X123140595Y-66499047D01*
X123759642Y-66499047D01*
X113188214Y-66832380D02*
X113188214Y-65832380D01*
X113426309Y-65832380D01*
X113569166Y-65880000D01*
X113664404Y-65975238D01*
X113712023Y-66070476D01*
X113759642Y-66260952D01*
X113759642Y-66403809D01*
X113712023Y-66594285D01*
X113664404Y-66689523D01*
X113569166Y-66784761D01*
X113426309Y-66832380D01*
X113188214Y-66832380D01*
X114664404Y-65832380D02*
X114188214Y-65832380D01*
X114140595Y-66308571D01*
X114188214Y-66260952D01*
X114283452Y-66213333D01*
X114521547Y-66213333D01*
X114616785Y-66260952D01*
X114664404Y-66308571D01*
X114712023Y-66403809D01*
X114712023Y-66641904D01*
X114664404Y-66737142D01*
X114616785Y-66784761D01*
X114521547Y-66832380D01*
X114283452Y-66832380D01*
X114188214Y-66784761D01*
X114140595Y-66737142D01*
X122188214Y-69372380D02*
X122188214Y-68372380D01*
X122426309Y-68372380D01*
X122569166Y-68420000D01*
X122664404Y-68515238D01*
X122712023Y-68610476D01*
X122759642Y-68800952D01*
X122759642Y-68943809D01*
X122712023Y-69134285D01*
X122664404Y-69229523D01*
X122569166Y-69324761D01*
X122426309Y-69372380D01*
X122188214Y-69372380D01*
X123616785Y-68372380D02*
X123426309Y-68372380D01*
X123331071Y-68420000D01*
X123283452Y-68467619D01*
X123188214Y-68610476D01*
X123140595Y-68800952D01*
X123140595Y-69181904D01*
X123188214Y-69277142D01*
X123235833Y-69324761D01*
X123331071Y-69372380D01*
X123521547Y-69372380D01*
X123616785Y-69324761D01*
X123664404Y-69277142D01*
X123712023Y-69181904D01*
X123712023Y-68943809D01*
X123664404Y-68848571D01*
X123616785Y-68800952D01*
X123521547Y-68753333D01*
X123331071Y-68753333D01*
X123235833Y-68800952D01*
X123188214Y-68848571D01*
X123140595Y-68943809D01*
X113188214Y-69372380D02*
X113188214Y-68372380D01*
X113426309Y-68372380D01*
X113569166Y-68420000D01*
X113664404Y-68515238D01*
X113712023Y-68610476D01*
X113759642Y-68800952D01*
X113759642Y-68943809D01*
X113712023Y-69134285D01*
X113664404Y-69229523D01*
X113569166Y-69324761D01*
X113426309Y-69372380D01*
X113188214Y-69372380D01*
X114092976Y-68372380D02*
X114759642Y-68372380D01*
X114331071Y-69372380D01*
X120140595Y-71912380D02*
X120140595Y-70912380D01*
X120378690Y-70912380D01*
X120521547Y-70960000D01*
X120616785Y-71055238D01*
X120664404Y-71150476D01*
X120712023Y-71340952D01*
X120712023Y-71483809D01*
X120664404Y-71674285D01*
X120616785Y-71769523D01*
X120521547Y-71864761D01*
X120378690Y-71912380D01*
X120140595Y-71912380D01*
X121140595Y-71912380D02*
X121140595Y-70912380D01*
X121473928Y-71626666D01*
X121807261Y-70912380D01*
X121807261Y-71912380D01*
X122283452Y-71388571D02*
X122616785Y-71388571D01*
X122759642Y-71912380D02*
X122283452Y-71912380D01*
X122283452Y-70912380D01*
X122759642Y-70912380D01*
X123378690Y-70912380D02*
X123473928Y-70912380D01*
X123569166Y-70960000D01*
X123616785Y-71007619D01*
X123664404Y-71102857D01*
X123712023Y-71293333D01*
X123712023Y-71531428D01*
X123664404Y-71721904D01*
X123616785Y-71817142D01*
X123569166Y-71864761D01*
X123473928Y-71912380D01*
X123378690Y-71912380D01*
X123283452Y-71864761D01*
X123235833Y-71817142D01*
X123188214Y-71721904D01*
X123140595Y-71531428D01*
X123140595Y-71293333D01*
X123188214Y-71102857D01*
X123235833Y-71007619D01*
X123283452Y-70960000D01*
X123378690Y-70912380D01*
X113188214Y-71864761D02*
X113331071Y-71912380D01*
X113569166Y-71912380D01*
X113664404Y-71864761D01*
X113712023Y-71817142D01*
X113759642Y-71721904D01*
X113759642Y-71626666D01*
X113712023Y-71531428D01*
X113664404Y-71483809D01*
X113569166Y-71436190D01*
X113378690Y-71388571D01*
X113283452Y-71340952D01*
X113235833Y-71293333D01*
X113188214Y-71198095D01*
X113188214Y-71102857D01*
X113235833Y-71007619D01*
X113283452Y-70960000D01*
X113378690Y-70912380D01*
X113616785Y-70912380D01*
X113759642Y-70960000D01*
X114616785Y-71245714D02*
X114616785Y-71912380D01*
X114378690Y-70864761D02*
X114140595Y-71579047D01*
X114759642Y-71579047D01*
X122521547Y-73976190D02*
X122521547Y-74452380D01*
X122188214Y-73452380D02*
X122521547Y-73976190D01*
X122854880Y-73452380D01*
X123378690Y-73452380D02*
X123473928Y-73452380D01*
X123569166Y-73500000D01*
X123616785Y-73547619D01*
X123664404Y-73642857D01*
X123712023Y-73833333D01*
X123712023Y-74071428D01*
X123664404Y-74261904D01*
X123616785Y-74357142D01*
X123569166Y-74404761D01*
X123473928Y-74452380D01*
X123378690Y-74452380D01*
X123283452Y-74404761D01*
X123235833Y-74357142D01*
X123188214Y-74261904D01*
X123140595Y-74071428D01*
X123140595Y-73833333D01*
X123188214Y-73642857D01*
X123235833Y-73547619D01*
X123283452Y-73500000D01*
X123378690Y-73452380D01*
X113092976Y-74452380D02*
X113092976Y-73452380D01*
X113473928Y-73452380D01*
X113569166Y-73500000D01*
X113616785Y-73547619D01*
X113664404Y-73642857D01*
X113664404Y-73785714D01*
X113616785Y-73880952D01*
X113569166Y-73928571D01*
X113473928Y-73976190D01*
X113092976Y-73976190D01*
X114092976Y-73452380D02*
X114092976Y-74261904D01*
X114140595Y-74357142D01*
X114188214Y-74404761D01*
X114283452Y-74452380D01*
X114473928Y-74452380D01*
X114569166Y-74404761D01*
X114616785Y-74357142D01*
X114664404Y-74261904D01*
X114664404Y-73452380D01*
X122283452Y-76992380D02*
X122283452Y-75992380D01*
X122664404Y-75992380D01*
X122759642Y-76040000D01*
X122807261Y-76087619D01*
X122854880Y-76182857D01*
X122854880Y-76325714D01*
X122807261Y-76420952D01*
X122759642Y-76468571D01*
X122664404Y-76516190D01*
X122283452Y-76516190D01*
X123140595Y-75992380D02*
X123473928Y-76992380D01*
X123807261Y-75992380D01*
X112140595Y-75992380D02*
X112473928Y-76992380D01*
X112807261Y-75992380D01*
X113712023Y-76897142D02*
X113664404Y-76944761D01*
X113521547Y-76992380D01*
X113426309Y-76992380D01*
X113283452Y-76944761D01*
X113188214Y-76849523D01*
X113140595Y-76754285D01*
X113092976Y-76563809D01*
X113092976Y-76420952D01*
X113140595Y-76230476D01*
X113188214Y-76135238D01*
X113283452Y-76040000D01*
X113426309Y-75992380D01*
X113521547Y-75992380D01*
X113664404Y-76040000D01*
X113712023Y-76087619D01*
X114712023Y-76897142D02*
X114664404Y-76944761D01*
X114521547Y-76992380D01*
X114426309Y-76992380D01*
X114283452Y-76944761D01*
X114188214Y-76849523D01*
X114140595Y-76754285D01*
X114092976Y-76563809D01*
X114092976Y-76420952D01*
X114140595Y-76230476D01*
X114188214Y-76135238D01*
X114283452Y-76040000D01*
X114426309Y-75992380D01*
X114521547Y-75992380D01*
X114664404Y-76040000D01*
X114712023Y-76087619D01*
X83574761Y-50703333D02*
X83527142Y-50655714D01*
X83431904Y-50512857D01*
X83384285Y-50417619D01*
X83336666Y-50274761D01*
X83289047Y-50036666D01*
X83289047Y-49846190D01*
X83336666Y-49608095D01*
X83384285Y-49465238D01*
X83431904Y-49370000D01*
X83527142Y-49227142D01*
X83574761Y-49179523D01*
X84384285Y-49655714D02*
X84384285Y-50322380D01*
X84146190Y-49274761D02*
X83908095Y-49989047D01*
X84527142Y-49989047D01*
X85098571Y-49322380D02*
X85193809Y-49322380D01*
X85289047Y-49370000D01*
X85336666Y-49417619D01*
X85384285Y-49512857D01*
X85431904Y-49703333D01*
X85431904Y-49941428D01*
X85384285Y-50131904D01*
X85336666Y-50227142D01*
X85289047Y-50274761D01*
X85193809Y-50322380D01*
X85098571Y-50322380D01*
X85003333Y-50274761D01*
X84955714Y-50227142D01*
X84908095Y-50131904D01*
X84860476Y-49941428D01*
X84860476Y-49703333D01*
X84908095Y-49512857D01*
X84955714Y-49417619D01*
X85003333Y-49370000D01*
X85098571Y-49322380D01*
X85765238Y-50703333D02*
X85812857Y-50655714D01*
X85908095Y-50512857D01*
X85955714Y-50417619D01*
X86003333Y-50274761D01*
X86050952Y-50036666D01*
X86050952Y-49846190D01*
X86003333Y-49608095D01*
X85955714Y-49465238D01*
X85908095Y-49370000D01*
X85812857Y-49227142D01*
X85765238Y-49179523D01*
X92464761Y-50703333D02*
X92417142Y-50655714D01*
X92321904Y-50512857D01*
X92274285Y-50417619D01*
X92226666Y-50274761D01*
X92179047Y-50036666D01*
X92179047Y-49846190D01*
X92226666Y-49608095D01*
X92274285Y-49465238D01*
X92321904Y-49370000D01*
X92417142Y-49227142D01*
X92464761Y-49179523D01*
X92750476Y-49322380D02*
X93369523Y-49322380D01*
X93036190Y-49703333D01*
X93179047Y-49703333D01*
X93274285Y-49750952D01*
X93321904Y-49798571D01*
X93369523Y-49893809D01*
X93369523Y-50131904D01*
X93321904Y-50227142D01*
X93274285Y-50274761D01*
X93179047Y-50322380D01*
X92893333Y-50322380D01*
X92798095Y-50274761D01*
X92750476Y-50227142D01*
X93845714Y-50322380D02*
X94036190Y-50322380D01*
X94131428Y-50274761D01*
X94179047Y-50227142D01*
X94274285Y-50084285D01*
X94321904Y-49893809D01*
X94321904Y-49512857D01*
X94274285Y-49417619D01*
X94226666Y-49370000D01*
X94131428Y-49322380D01*
X93940952Y-49322380D01*
X93845714Y-49370000D01*
X93798095Y-49417619D01*
X93750476Y-49512857D01*
X93750476Y-49750952D01*
X93798095Y-49846190D01*
X93845714Y-49893809D01*
X93940952Y-49941428D01*
X94131428Y-49941428D01*
X94226666Y-49893809D01*
X94274285Y-49846190D01*
X94321904Y-49750952D01*
X94655238Y-50703333D02*
X94702857Y-50655714D01*
X94798095Y-50512857D01*
X94845714Y-50417619D01*
X94893333Y-50274761D01*
X94940952Y-50036666D01*
X94940952Y-49846190D01*
X94893333Y-49608095D01*
X94845714Y-49465238D01*
X94798095Y-49370000D01*
X94702857Y-49227142D01*
X94655238Y-49179523D01*
X83574761Y-79913333D02*
X83527142Y-79865714D01*
X83431904Y-79722857D01*
X83384285Y-79627619D01*
X83336666Y-79484761D01*
X83289047Y-79246666D01*
X83289047Y-79056190D01*
X83336666Y-78818095D01*
X83384285Y-78675238D01*
X83431904Y-78580000D01*
X83527142Y-78437142D01*
X83574761Y-78389523D01*
X83908095Y-78627619D02*
X83955714Y-78580000D01*
X84050952Y-78532380D01*
X84289047Y-78532380D01*
X84384285Y-78580000D01*
X84431904Y-78627619D01*
X84479523Y-78722857D01*
X84479523Y-78818095D01*
X84431904Y-78960952D01*
X83860476Y-79532380D01*
X84479523Y-79532380D01*
X84860476Y-78627619D02*
X84908095Y-78580000D01*
X85003333Y-78532380D01*
X85241428Y-78532380D01*
X85336666Y-78580000D01*
X85384285Y-78627619D01*
X85431904Y-78722857D01*
X85431904Y-78818095D01*
X85384285Y-78960952D01*
X84812857Y-79532380D01*
X85431904Y-79532380D01*
X85765238Y-79913333D02*
X85812857Y-79865714D01*
X85908095Y-79722857D01*
X85955714Y-79627619D01*
X86003333Y-79484761D01*
X86050952Y-79246666D01*
X86050952Y-79056190D01*
X86003333Y-78818095D01*
X85955714Y-78675238D01*
X85908095Y-78580000D01*
X85812857Y-78437142D01*
X85765238Y-78389523D01*
X92464761Y-79913333D02*
X92417142Y-79865714D01*
X92321904Y-79722857D01*
X92274285Y-79627619D01*
X92226666Y-79484761D01*
X92179047Y-79246666D01*
X92179047Y-79056190D01*
X92226666Y-78818095D01*
X92274285Y-78675238D01*
X92321904Y-78580000D01*
X92417142Y-78437142D01*
X92464761Y-78389523D01*
X92798095Y-78627619D02*
X92845714Y-78580000D01*
X92940952Y-78532380D01*
X93179047Y-78532380D01*
X93274285Y-78580000D01*
X93321904Y-78627619D01*
X93369523Y-78722857D01*
X93369523Y-78818095D01*
X93321904Y-78960952D01*
X92750476Y-79532380D01*
X93369523Y-79532380D01*
X94321904Y-79532380D02*
X93750476Y-79532380D01*
X94036190Y-79532380D02*
X94036190Y-78532380D01*
X93940952Y-78675238D01*
X93845714Y-78770476D01*
X93750476Y-78818095D01*
X94655238Y-79913333D02*
X94702857Y-79865714D01*
X94798095Y-79722857D01*
X94845714Y-79627619D01*
X94893333Y-79484761D01*
X94940952Y-79246666D01*
X94940952Y-79056190D01*
X94893333Y-78818095D01*
X94845714Y-78675238D01*
X94798095Y-78580000D01*
X94702857Y-78437142D01*
X94655238Y-78389523D01*
X124214761Y-50703333D02*
X124167142Y-50655714D01*
X124071904Y-50512857D01*
X124024285Y-50417619D01*
X123976666Y-50274761D01*
X123929047Y-50036666D01*
X123929047Y-49846190D01*
X123976666Y-49608095D01*
X124024285Y-49465238D01*
X124071904Y-49370000D01*
X124167142Y-49227142D01*
X124214761Y-49179523D01*
X124548095Y-49417619D02*
X124595714Y-49370000D01*
X124690952Y-49322380D01*
X124929047Y-49322380D01*
X125024285Y-49370000D01*
X125071904Y-49417619D01*
X125119523Y-49512857D01*
X125119523Y-49608095D01*
X125071904Y-49750952D01*
X124500476Y-50322380D01*
X125119523Y-50322380D01*
X125738571Y-49322380D02*
X125833809Y-49322380D01*
X125929047Y-49370000D01*
X125976666Y-49417619D01*
X126024285Y-49512857D01*
X126071904Y-49703333D01*
X126071904Y-49941428D01*
X126024285Y-50131904D01*
X125976666Y-50227142D01*
X125929047Y-50274761D01*
X125833809Y-50322380D01*
X125738571Y-50322380D01*
X125643333Y-50274761D01*
X125595714Y-50227142D01*
X125548095Y-50131904D01*
X125500476Y-49941428D01*
X125500476Y-49703333D01*
X125548095Y-49512857D01*
X125595714Y-49417619D01*
X125643333Y-49370000D01*
X125738571Y-49322380D01*
X126405238Y-50703333D02*
X126452857Y-50655714D01*
X126548095Y-50512857D01*
X126595714Y-50417619D01*
X126643333Y-50274761D01*
X126690952Y-50036666D01*
X126690952Y-49846190D01*
X126643333Y-49608095D01*
X126595714Y-49465238D01*
X126548095Y-49370000D01*
X126452857Y-49227142D01*
X126405238Y-49179523D01*
X115324761Y-50703333D02*
X115277142Y-50655714D01*
X115181904Y-50512857D01*
X115134285Y-50417619D01*
X115086666Y-50274761D01*
X115039047Y-50036666D01*
X115039047Y-49846190D01*
X115086666Y-49608095D01*
X115134285Y-49465238D01*
X115181904Y-49370000D01*
X115277142Y-49227142D01*
X115324761Y-49179523D01*
X116229523Y-50322380D02*
X115658095Y-50322380D01*
X115943809Y-50322380D02*
X115943809Y-49322380D01*
X115848571Y-49465238D01*
X115753333Y-49560476D01*
X115658095Y-49608095D01*
X116705714Y-50322380D02*
X116896190Y-50322380D01*
X116991428Y-50274761D01*
X117039047Y-50227142D01*
X117134285Y-50084285D01*
X117181904Y-49893809D01*
X117181904Y-49512857D01*
X117134285Y-49417619D01*
X117086666Y-49370000D01*
X116991428Y-49322380D01*
X116800952Y-49322380D01*
X116705714Y-49370000D01*
X116658095Y-49417619D01*
X116610476Y-49512857D01*
X116610476Y-49750952D01*
X116658095Y-49846190D01*
X116705714Y-49893809D01*
X116800952Y-49941428D01*
X116991428Y-49941428D01*
X117086666Y-49893809D01*
X117134285Y-49846190D01*
X117181904Y-49750952D01*
X117515238Y-50703333D02*
X117562857Y-50655714D01*
X117658095Y-50512857D01*
X117705714Y-50417619D01*
X117753333Y-50274761D01*
X117800952Y-50036666D01*
X117800952Y-49846190D01*
X117753333Y-49608095D01*
X117705714Y-49465238D01*
X117658095Y-49370000D01*
X117562857Y-49227142D01*
X117515238Y-49179523D01*
X124214761Y-79913333D02*
X124167142Y-79865714D01*
X124071904Y-79722857D01*
X124024285Y-79627619D01*
X123976666Y-79484761D01*
X123929047Y-79246666D01*
X123929047Y-79056190D01*
X123976666Y-78818095D01*
X124024285Y-78675238D01*
X124071904Y-78580000D01*
X124167142Y-78437142D01*
X124214761Y-78389523D01*
X124786190Y-78532380D02*
X124881428Y-78532380D01*
X124976666Y-78580000D01*
X125024285Y-78627619D01*
X125071904Y-78722857D01*
X125119523Y-78913333D01*
X125119523Y-79151428D01*
X125071904Y-79341904D01*
X125024285Y-79437142D01*
X124976666Y-79484761D01*
X124881428Y-79532380D01*
X124786190Y-79532380D01*
X124690952Y-79484761D01*
X124643333Y-79437142D01*
X124595714Y-79341904D01*
X124548095Y-79151428D01*
X124548095Y-78913333D01*
X124595714Y-78722857D01*
X124643333Y-78627619D01*
X124690952Y-78580000D01*
X124786190Y-78532380D01*
X125500476Y-78627619D02*
X125548095Y-78580000D01*
X125643333Y-78532380D01*
X125881428Y-78532380D01*
X125976666Y-78580000D01*
X126024285Y-78627619D01*
X126071904Y-78722857D01*
X126071904Y-78818095D01*
X126024285Y-78960952D01*
X125452857Y-79532380D01*
X126071904Y-79532380D01*
X126405238Y-79913333D02*
X126452857Y-79865714D01*
X126548095Y-79722857D01*
X126595714Y-79627619D01*
X126643333Y-79484761D01*
X126690952Y-79246666D01*
X126690952Y-79056190D01*
X126643333Y-78818095D01*
X126595714Y-78675238D01*
X126548095Y-78580000D01*
X126452857Y-78437142D01*
X126405238Y-78389523D01*
X115324761Y-79913333D02*
X115277142Y-79865714D01*
X115181904Y-79722857D01*
X115134285Y-79627619D01*
X115086666Y-79484761D01*
X115039047Y-79246666D01*
X115039047Y-79056190D01*
X115086666Y-78818095D01*
X115134285Y-78675238D01*
X115181904Y-78580000D01*
X115277142Y-78437142D01*
X115324761Y-78389523D01*
X115896190Y-78532380D02*
X115991428Y-78532380D01*
X116086666Y-78580000D01*
X116134285Y-78627619D01*
X116181904Y-78722857D01*
X116229523Y-78913333D01*
X116229523Y-79151428D01*
X116181904Y-79341904D01*
X116134285Y-79437142D01*
X116086666Y-79484761D01*
X115991428Y-79532380D01*
X115896190Y-79532380D01*
X115800952Y-79484761D01*
X115753333Y-79437142D01*
X115705714Y-79341904D01*
X115658095Y-79151428D01*
X115658095Y-78913333D01*
X115705714Y-78722857D01*
X115753333Y-78627619D01*
X115800952Y-78580000D01*
X115896190Y-78532380D01*
X117181904Y-79532380D02*
X116610476Y-79532380D01*
X116896190Y-79532380D02*
X116896190Y-78532380D01*
X116800952Y-78675238D01*
X116705714Y-78770476D01*
X116610476Y-78818095D01*
X117515238Y-79913333D02*
X117562857Y-79865714D01*
X117658095Y-79722857D01*
X117705714Y-79627619D01*
X117753333Y-79484761D01*
X117800952Y-79246666D01*
X117800952Y-79056190D01*
X117753333Y-78818095D01*
X117705714Y-78675238D01*
X117658095Y-78580000D01*
X117562857Y-78437142D01*
X117515238Y-78389523D01*
D11*
X101500000Y-43000000D02*
X101500000Y-46000000D01*
X106000000Y-43000000D02*
X101500000Y-43000000D01*
X106000000Y-42000000D02*
X106000000Y-43000000D01*
X109000000Y-44500000D02*
X106000000Y-42000000D01*
X106000000Y-47000000D02*
X109000000Y-44500000D01*
X106000000Y-46000000D02*
X106000000Y-47000000D01*
X101500000Y-46000000D02*
X106000000Y-46000000D01*
D10*
X99571428Y-42190476D02*
X99523809Y-42333333D01*
X99476190Y-42380952D01*
X99380952Y-42428571D01*
X99238095Y-42428571D01*
X99142857Y-42380952D01*
X99095238Y-42333333D01*
X99047619Y-42238095D01*
X99047619Y-41857142D01*
X100047619Y-41857142D01*
X100047619Y-42190476D01*
X100000000Y-42285714D01*
X99952380Y-42333333D01*
X99857142Y-42380952D01*
X99761904Y-42380952D01*
X99666666Y-42333333D01*
X99619047Y-42285714D01*
X99571428Y-42190476D01*
X99571428Y-41857142D01*
X100047619Y-43047619D02*
X100047619Y-43238095D01*
X100000000Y-43333333D01*
X99904761Y-43428571D01*
X99714285Y-43476190D01*
X99380952Y-43476190D01*
X99190476Y-43428571D01*
X99095238Y-43333333D01*
X99047619Y-43238095D01*
X99047619Y-43047619D01*
X99095238Y-42952380D01*
X99190476Y-42857142D01*
X99380952Y-42809523D01*
X99714285Y-42809523D01*
X99904761Y-42857142D01*
X100000000Y-42952380D01*
X100047619Y-43047619D01*
X100047619Y-43761904D02*
X100047619Y-44333333D01*
X99047619Y-44047619D02*
X100047619Y-44047619D01*
X100047619Y-44523809D02*
X100047619Y-45095238D01*
X99047619Y-44809523D02*
X100047619Y-44809523D01*
X100047619Y-45619047D02*
X100047619Y-45809523D01*
X100000000Y-45904761D01*
X99904761Y-46000000D01*
X99714285Y-46047619D01*
X99380952Y-46047619D01*
X99190476Y-46000000D01*
X99095238Y-45904761D01*
X99047619Y-45809523D01*
X99047619Y-45619047D01*
X99095238Y-45523809D01*
X99190476Y-45428571D01*
X99380952Y-45380952D01*
X99714285Y-45380952D01*
X99904761Y-45428571D01*
X100000000Y-45523809D01*
X100047619Y-45619047D01*
X99047619Y-46476190D02*
X100047619Y-46476190D01*
X99333333Y-46809523D01*
X100047619Y-47142857D01*
X99047619Y-47142857D01*
X111047619Y-43190476D02*
X111047619Y-43761904D01*
X110047619Y-43476190D02*
X111047619Y-43476190D01*
X111047619Y-44285714D02*
X111047619Y-44476190D01*
X111000000Y-44571428D01*
X110904761Y-44666666D01*
X110714285Y-44714285D01*
X110380952Y-44714285D01*
X110190476Y-44666666D01*
X110095238Y-44571428D01*
X110047619Y-44476190D01*
X110047619Y-44285714D01*
X110095238Y-44190476D01*
X110190476Y-44095238D01*
X110380952Y-44047619D01*
X110714285Y-44047619D01*
X110904761Y-44095238D01*
X111000000Y-44190476D01*
X111047619Y-44285714D01*
X110047619Y-45142857D02*
X111047619Y-45142857D01*
X111047619Y-45523809D01*
X111000000Y-45619047D01*
X110952380Y-45666666D01*
X110857142Y-45714285D01*
X110714285Y-45714285D01*
X110619047Y-45666666D01*
X110571428Y-45619047D01*
X110523809Y-45523809D01*
X110523809Y-45142857D01*
X107376000Y-49897000D02*
X105344000Y-51167000D01*
X102804000Y-49897000D02*
X104836000Y-51167000D01*
X102821780Y-78853000D02*
X104836000Y-77583000D01*
X107376000Y-78853000D02*
X105344000Y-77583000D01*
X107376000Y-49897000D02*
X102804000Y-49897000D01*
X102821780Y-78853000D02*
X107376000Y-78853000D01*
X107376000Y-78853000D02*
X107376000Y-49897000D01*
X102804000Y-49897000D02*
X102821780Y-78853000D01*
X104836000Y-77583000D02*
X105344000Y-77583000D01*
X104836000Y-51167000D02*
X104836000Y-77583000D01*
X105344000Y-51167000D02*
X104836000Y-51167000D01*
X105344000Y-77583000D02*
X105344000Y-51167000D01*
X100264000Y-80377000D02*
X109916000Y-80377000D01*
X100264000Y-48373000D02*
X100264000Y-80377000D01*
X109916000Y-48373000D02*
X100264000Y-48373000D01*
X109916000Y-80377000D02*
X109916000Y-48373000D01*
D11*
X117850000Y-52250000D02*
X115190000Y-52250000D01*
X117850000Y-75170000D02*
X117850000Y-52250000D01*
X115190000Y-75170000D02*
X115190000Y-52250000D01*
X117850000Y-75170000D02*
X115190000Y-75170000D01*
X117850000Y-76440000D02*
X117850000Y-77770000D01*
X117850000Y-77770000D02*
X116520000Y-77770000D01*
X94990000Y-77770000D02*
X93660000Y-77770000D01*
X94990000Y-76440000D02*
X94990000Y-77770000D01*
X94990000Y-75170000D02*
X92330000Y-75170000D01*
X92330000Y-75170000D02*
X92330000Y-52250000D01*
X94990000Y-75170000D02*
X94990000Y-52250000D01*
X94990000Y-52250000D02*
X92330000Y-52250000D01*
X126740000Y-52250000D02*
X124080000Y-52250000D01*
X126740000Y-75170000D02*
X126740000Y-52250000D01*
X124080000Y-75170000D02*
X124080000Y-52250000D01*
X126740000Y-75170000D02*
X124080000Y-75170000D01*
X126740000Y-76440000D02*
X126740000Y-77770000D01*
X126740000Y-77770000D02*
X125410000Y-77770000D01*
X86100000Y-77770000D02*
X84770000Y-77770000D01*
X86100000Y-76440000D02*
X86100000Y-77770000D01*
X86100000Y-75170000D02*
X83440000Y-75170000D01*
X83440000Y-75170000D02*
X83440000Y-52250000D01*
X86100000Y-75170000D02*
X86100000Y-52250000D01*
X86100000Y-52250000D02*
X83440000Y-52250000D01*
%LPC*%
D12*
X84000000Y-44000000D03*
X126000000Y-44000000D03*
X126000000Y-86000000D03*
X84000000Y-86000000D03*
D13*
X101280000Y-76440000D03*
X103820000Y-75170000D03*
X101280000Y-73900000D03*
X103820000Y-72630000D03*
X101280000Y-71360000D03*
X103820000Y-70090000D03*
X101280000Y-68820000D03*
X103820000Y-67550000D03*
X101280000Y-66280000D03*
X103820000Y-65010000D03*
X101280000Y-63740000D03*
X103820000Y-62470000D03*
X101280000Y-61200000D03*
X103820000Y-59930000D03*
X101280000Y-58660000D03*
X103820000Y-57390000D03*
X101280000Y-56120000D03*
X103820000Y-54850000D03*
X101280000Y-53580000D03*
X103820000Y-52310000D03*
X106360000Y-76440000D03*
X108900000Y-75170000D03*
X106360000Y-73900000D03*
X108900000Y-72630000D03*
X106360000Y-71360000D03*
X108900000Y-70090000D03*
X106360000Y-68820000D03*
X108900000Y-67550000D03*
X106360000Y-66280000D03*
X108900000Y-65010000D03*
X106360000Y-63740000D03*
X108900000Y-62470000D03*
X106360000Y-61200000D03*
X108900000Y-59930000D03*
X106360000Y-58660000D03*
X108900000Y-57390000D03*
X106360000Y-56120000D03*
X108900000Y-54850000D03*
X106360000Y-53580000D03*
X108900000Y-52310000D03*
D14*
X116520000Y-76440000D03*
D15*
X116520000Y-73900000D03*
X116520000Y-71360000D03*
X116520000Y-68820000D03*
X116520000Y-66280000D03*
X116520000Y-63740000D03*
X116520000Y-61200000D03*
X116520000Y-58660000D03*
X116520000Y-56120000D03*
X116520000Y-53580000D03*
X93660000Y-53580000D03*
X93660000Y-56120000D03*
X93660000Y-58660000D03*
X93660000Y-61200000D03*
X93660000Y-63740000D03*
X93660000Y-66280000D03*
X93660000Y-68820000D03*
X93660000Y-71360000D03*
X93660000Y-73900000D03*
D14*
X93660000Y-76440000D03*
X125410000Y-76440000D03*
D15*
X125410000Y-73900000D03*
X125410000Y-71360000D03*
X125410000Y-68820000D03*
X125410000Y-66280000D03*
X125410000Y-63740000D03*
X125410000Y-61200000D03*
X125410000Y-58660000D03*
X125410000Y-56120000D03*
X125410000Y-53580000D03*
X84770000Y-53580000D03*
X84770000Y-56120000D03*
X84770000Y-58660000D03*
X84770000Y-61200000D03*
X84770000Y-63740000D03*
X84770000Y-66280000D03*
X84770000Y-68820000D03*
X84770000Y-71360000D03*
X84770000Y-73900000D03*
D14*
X84770000Y-76440000D03*
M02*
