M48
; DRILL file {KiCad 5.1.10-88a1d61d58~88~ubuntu20.10.1} date Sat May  8 10:38:16 2021
; FORMAT={-:-/ absolute / inch / decimal}
; #@! TF.CreationDate,2021-05-08T10:38:16+02:00
; #@! TF.GenerationSoftware,Kicad,Pcbnew,5.1.10-88a1d61d58~88~ubuntu20.10.1
FMAT,2
INCH
T1C0.0394
T2C0.0400
T3C0.1260
%
G90
G05
T1
X3.3374Y-2.1094
X3.3374Y-2.2094
X3.3374Y-2.3094
X3.3374Y-2.4094
X3.3374Y-2.5094
X3.3374Y-2.6094
X3.3374Y-2.7094
X3.3374Y-2.8094
X3.3374Y-2.9094
X3.3374Y-3.0094
X3.6874Y-2.1094
X3.6874Y-2.2094
X3.6874Y-2.3094
X3.6874Y-2.4094
X3.6874Y-2.5094
X3.6874Y-2.6094
X3.6874Y-2.7094
X3.6874Y-2.8094
X3.6874Y-2.9094
X3.6874Y-3.0094
X4.5874Y-2.1094
X4.5874Y-2.2094
X4.5874Y-2.3094
X4.5874Y-2.4094
X4.5874Y-2.5094
X4.5874Y-2.6094
X4.5874Y-2.7094
X4.5874Y-2.8094
X4.5874Y-2.9094
X4.5874Y-3.0094
X4.9374Y-2.1094
X4.9374Y-2.2094
X4.9374Y-2.3094
X4.9374Y-2.4094
X4.9374Y-2.5094
X4.9374Y-2.6094
X4.9374Y-2.7094
X4.9374Y-2.8094
X4.9374Y-2.9094
X4.9374Y-3.0094
T2
X3.9874Y-2.1094
X3.9874Y-2.2094
X3.9874Y-2.3094
X3.9874Y-2.4094
X3.9874Y-2.5094
X3.9874Y-2.6094
X3.9874Y-2.7094
X3.9874Y-2.8094
X3.9874Y-2.9094
X3.9874Y-3.0094
X4.0874Y-2.0594
X4.0874Y-2.1594
X4.0874Y-2.2594
X4.0874Y-2.3594
X4.0874Y-2.4594
X4.0874Y-2.5594
X4.0874Y-2.6594
X4.0874Y-2.7594
X4.0874Y-2.8594
X4.0874Y-2.9594
X4.1874Y-2.1094
X4.1874Y-2.2094
X4.1874Y-2.3094
X4.1874Y-2.4094
X4.1874Y-2.5094
X4.1874Y-2.6094
X4.1874Y-2.7094
X4.1874Y-2.8094
X4.1874Y-2.9094
X4.1874Y-3.0094
X4.2874Y-2.0594
X4.2874Y-2.1594
X4.2874Y-2.2594
X4.2874Y-2.3594
X4.2874Y-2.4594
X4.2874Y-2.5594
X4.2874Y-2.6594
X4.2874Y-2.7594
X4.2874Y-2.8594
X4.2874Y-2.9594
T3
X3.3071Y-1.7323
X3.3071Y-3.3858
X4.9606Y-1.7323
X4.9606Y-3.3858
T0
M30
