M48
; DRILL file {KiCad 5.1.10-88a1d61d58~88~ubuntu20.10.1} date Thu May 13 20:13:38 2021
; FORMAT={-:-/ absolute / metric / decimal}
; #@! TF.CreationDate,2021-05-13T20:13:38+02:00
; #@! TF.GenerationSoftware,Kicad,Pcbnew,5.1.10-88a1d61d58~88~ubuntu20.10.1
; #@! TF.FileFunction,Plated,1,2,PTH
FMAT,2
METRIC
T1C1.000
T2C1.016
%
G90
G05
T1
X84.77Y-53.58
X84.77Y-56.12
X84.77Y-58.66
X84.77Y-61.2
X84.77Y-63.74
X84.77Y-66.28
X84.77Y-68.82
X84.77Y-71.36
X84.77Y-73.9
X84.77Y-76.44
X93.66Y-53.58
X93.66Y-56.12
X93.66Y-58.66
X93.66Y-61.2
X93.66Y-63.74
X93.66Y-66.28
X93.66Y-68.82
X93.66Y-71.36
X93.66Y-73.9
X93.66Y-76.44
X116.52Y-53.58
X116.52Y-56.12
X116.52Y-58.66
X116.52Y-61.2
X116.52Y-63.74
X116.52Y-66.28
X116.52Y-68.82
X116.52Y-71.36
X116.52Y-73.9
X116.52Y-76.44
X125.41Y-53.58
X125.41Y-56.12
X125.41Y-58.66
X125.41Y-61.2
X125.41Y-63.74
X125.41Y-66.28
X125.41Y-68.82
X125.41Y-71.36
X125.41Y-73.9
X125.41Y-76.44
T2
X101.28Y-53.58
X101.28Y-56.12
X101.28Y-58.66
X101.28Y-61.2
X101.28Y-63.74
X101.28Y-66.28
X101.28Y-68.82
X101.28Y-71.36
X101.28Y-73.9
X101.28Y-76.44
X103.82Y-52.31
X103.82Y-54.85
X103.82Y-57.39
X103.82Y-59.93
X103.82Y-62.47
X103.82Y-65.01
X103.82Y-67.55
X103.82Y-70.09
X103.82Y-72.63
X103.82Y-75.17
X106.36Y-53.58
X106.36Y-56.12
X106.36Y-58.66
X106.36Y-61.2
X106.36Y-63.74
X106.36Y-66.28
X106.36Y-68.82
X106.36Y-71.36
X106.36Y-73.9
X106.36Y-76.44
X108.9Y-52.31
X108.9Y-54.85
X108.9Y-57.39
X108.9Y-59.93
X108.9Y-62.47
X108.9Y-65.01
X108.9Y-67.55
X108.9Y-70.09
X108.9Y-72.63
X108.9Y-75.17
T0
M30
