G75*
%MOIN*%
%OFA0B0*%
%FSLAX24Y24*%
%IPPOS*%
%LPD*%
%AMOC8*
5,1,8,0,0,1.08239X$1,22.5*
%
%ADD10C,0.0000*%
%ADD11C,0.0030*%
%ADD12C,0.0060*%
D10*
X000150Y000487D02*
X013050Y000487D01*
X013050Y001537D01*
X015650Y001537D01*
X015950Y001837D01*
X015950Y002237D01*
X015550Y002237D01*
X015550Y011237D01*
X015950Y011237D01*
X015950Y011637D01*
X015650Y011937D01*
X013050Y011937D01*
X013050Y012987D01*
X000150Y012987D01*
X000150Y000487D01*
D11*
X001945Y002302D02*
X001945Y002447D01*
X001993Y002495D01*
X002187Y002495D01*
X002235Y002447D01*
X002235Y002302D01*
X001945Y002302D01*
X002090Y002596D02*
X002090Y002790D01*
X002235Y002741D02*
X001945Y002741D01*
X002090Y002596D01*
X002945Y002596D02*
X003090Y002596D01*
X003042Y002693D01*
X003042Y002741D01*
X003090Y002790D01*
X003187Y002790D01*
X003235Y002741D01*
X003235Y002645D01*
X003187Y002596D01*
X003187Y002495D02*
X002993Y002495D01*
X002945Y002447D01*
X002945Y002302D01*
X003235Y002302D01*
X003235Y002447D01*
X003187Y002495D01*
X002945Y002596D02*
X002945Y002790D01*
X003945Y002790D02*
X003993Y002693D01*
X004090Y002596D01*
X004090Y002741D01*
X004138Y002790D01*
X004187Y002790D01*
X004235Y002741D01*
X004235Y002645D01*
X004187Y002596D01*
X004090Y002596D01*
X004187Y002495D02*
X003993Y002495D01*
X003945Y002447D01*
X003945Y002302D01*
X004235Y002302D01*
X004235Y002447D01*
X004187Y002495D01*
X004945Y002447D02*
X004945Y002302D01*
X005235Y002302D01*
X005235Y002447D01*
X005187Y002495D01*
X004993Y002495D01*
X004945Y002447D01*
X004945Y002596D02*
X004945Y002790D01*
X004993Y002790D01*
X005187Y002596D01*
X005235Y002596D01*
X005945Y002596D02*
X006042Y002693D01*
X005945Y002790D01*
X006235Y002790D01*
X006235Y002891D02*
X005945Y002891D01*
X005945Y003084D01*
X005993Y003186D02*
X005945Y003234D01*
X005945Y003331D01*
X005993Y003379D01*
X006187Y003186D01*
X006235Y003234D01*
X006235Y003331D01*
X006187Y003379D01*
X005993Y003379D01*
X005993Y003186D02*
X006187Y003186D01*
X006235Y003084D02*
X006235Y002891D01*
X006090Y002891D02*
X006090Y002988D01*
X006235Y002596D02*
X005945Y002596D01*
X005993Y002495D02*
X005945Y002447D01*
X005945Y002302D01*
X006235Y002302D01*
X006235Y002447D01*
X006187Y002495D01*
X005993Y002495D01*
X006945Y002447D02*
X006945Y002350D01*
X006993Y002302D01*
X007042Y002302D01*
X007090Y002350D01*
X007090Y002447D01*
X007138Y002495D01*
X007187Y002495D01*
X007235Y002447D01*
X007235Y002350D01*
X007187Y002302D01*
X006993Y002495D02*
X006945Y002447D01*
X007090Y002596D02*
X007090Y002790D01*
X007138Y002891D02*
X007042Y002891D01*
X006945Y002988D01*
X006945Y003087D02*
X007235Y003281D01*
X006945Y003281D01*
X006993Y003382D02*
X007187Y003382D01*
X007235Y003430D01*
X007235Y003527D01*
X007187Y003576D01*
X007235Y003677D02*
X007138Y003773D01*
X007042Y003773D01*
X006945Y003677D01*
X006993Y003576D02*
X006945Y003527D01*
X006945Y003430D01*
X006993Y003382D01*
X006945Y003087D02*
X007235Y003087D01*
X007235Y002988D02*
X007138Y002891D01*
X007235Y002741D02*
X006945Y002741D01*
X007090Y002596D01*
X007945Y002645D02*
X007945Y002741D01*
X007993Y002790D01*
X008187Y002596D01*
X008235Y002645D01*
X008235Y002741D01*
X008187Y002790D01*
X007993Y002790D01*
X007945Y002645D02*
X007993Y002596D01*
X008187Y002596D01*
X007993Y002495D02*
X007945Y002495D01*
X007993Y002495D02*
X008090Y002398D01*
X008235Y002398D01*
X008090Y002398D02*
X007993Y002302D01*
X007945Y002302D01*
X008945Y002302D02*
X008945Y002447D01*
X008993Y002495D01*
X009090Y002495D01*
X009138Y002447D01*
X009138Y002302D01*
X009235Y002302D02*
X008945Y002302D01*
X008945Y002596D02*
X009187Y002596D01*
X009235Y002645D01*
X009235Y002741D01*
X009187Y002790D01*
X008945Y002790D01*
X009945Y002790D02*
X010138Y002790D01*
X010235Y002693D01*
X010138Y002596D01*
X009945Y002596D01*
X009993Y002495D02*
X010090Y002495D01*
X010138Y002447D01*
X010138Y002302D01*
X010235Y002302D02*
X009945Y002302D01*
X009945Y002447D01*
X009993Y002495D01*
X010945Y002495D02*
X011138Y002495D01*
X011235Y002398D01*
X011138Y002302D01*
X010945Y002302D01*
X010993Y002596D02*
X011187Y002596D01*
X011235Y002645D01*
X011235Y002741D01*
X011187Y002790D01*
X011187Y002891D02*
X011235Y002939D01*
X011235Y003036D01*
X011187Y003084D01*
X011187Y002891D02*
X010993Y002891D01*
X010945Y002939D01*
X010945Y003036D01*
X010993Y003084D01*
X010993Y002790D02*
X010945Y002741D01*
X010945Y002645D01*
X010993Y002596D01*
X011162Y004318D02*
X011065Y004414D01*
X011162Y004511D01*
X011355Y004511D01*
X011355Y004612D02*
X011355Y004757D01*
X011307Y004806D01*
X011113Y004806D01*
X011065Y004757D01*
X011065Y004612D01*
X011355Y004612D01*
X011210Y004511D02*
X011210Y004318D01*
X011162Y004318D02*
X011355Y004318D01*
X011355Y004907D02*
X011307Y004907D01*
X011113Y005101D01*
X011065Y005101D01*
X011065Y004907D01*
X010355Y004955D02*
X010307Y004907D01*
X010258Y004907D01*
X010210Y004955D01*
X010210Y005052D01*
X010258Y005101D01*
X010307Y005101D01*
X010355Y005052D01*
X010355Y004955D01*
X010210Y004955D02*
X010162Y004907D01*
X010113Y004907D01*
X010065Y004955D01*
X010065Y005052D01*
X010113Y005101D01*
X010162Y005101D01*
X010210Y005052D01*
X010307Y004806D02*
X010113Y004806D01*
X010065Y004757D01*
X010065Y004612D01*
X010355Y004612D01*
X010355Y004757D01*
X010307Y004806D01*
X010355Y004511D02*
X010162Y004511D01*
X010065Y004414D01*
X010162Y004318D01*
X010355Y004318D01*
X010210Y004318D02*
X010210Y004511D01*
X009355Y004511D02*
X009162Y004511D01*
X009065Y004414D01*
X009162Y004318D01*
X009355Y004318D01*
X009210Y004318D02*
X009210Y004511D01*
X009065Y004612D02*
X009355Y004612D01*
X009355Y004757D01*
X009307Y004806D01*
X009113Y004806D01*
X009065Y004757D01*
X009065Y004612D01*
X009113Y004907D02*
X009162Y004907D01*
X009210Y004955D01*
X009210Y005101D01*
X009307Y005101D02*
X009113Y005101D01*
X009065Y005052D01*
X009065Y004955D01*
X009113Y004907D01*
X009307Y004907D02*
X009355Y004955D01*
X009355Y005052D01*
X009307Y005101D01*
X008355Y005052D02*
X008355Y004955D01*
X008307Y004907D01*
X008113Y005101D01*
X008307Y005101D01*
X008355Y005052D01*
X008307Y004907D02*
X008113Y004907D01*
X008065Y004955D01*
X008065Y005052D01*
X008113Y005101D01*
X008355Y004806D02*
X008355Y004612D01*
X008355Y004709D02*
X008065Y004709D01*
X008162Y004612D01*
X008113Y004511D02*
X008065Y004463D01*
X008065Y004318D01*
X008355Y004318D01*
X008355Y004463D01*
X008307Y004511D01*
X008113Y004511D01*
X008162Y004217D02*
X008355Y004217D01*
X008210Y004217D02*
X008210Y004023D01*
X008162Y004023D02*
X008065Y004120D01*
X008162Y004217D01*
X008162Y004023D02*
X008355Y004023D01*
X007355Y004023D02*
X007162Y004023D01*
X007065Y004120D01*
X007162Y004217D01*
X007355Y004217D01*
X007355Y004318D02*
X007355Y004463D01*
X007307Y004511D01*
X007113Y004511D01*
X007065Y004463D01*
X007065Y004318D01*
X007355Y004318D01*
X007210Y004217D02*
X007210Y004023D01*
X007162Y004612D02*
X007065Y004709D01*
X007355Y004709D01*
X007355Y004612D02*
X007355Y004806D01*
X007355Y004907D02*
X007355Y005101D01*
X007355Y005004D02*
X007065Y005004D01*
X007162Y004907D01*
X006355Y004907D02*
X006162Y005101D01*
X006113Y005101D01*
X006065Y005052D01*
X006065Y004955D01*
X006113Y004907D01*
X006355Y004907D02*
X006355Y005101D01*
X006355Y004806D02*
X006355Y004612D01*
X006355Y004709D02*
X006065Y004709D01*
X006162Y004612D01*
X006113Y004511D02*
X006065Y004463D01*
X006065Y004318D01*
X006355Y004318D01*
X006355Y004463D01*
X006307Y004511D01*
X006113Y004511D01*
X006162Y004217D02*
X006355Y004217D01*
X006210Y004217D02*
X006210Y004023D01*
X006162Y004023D02*
X006065Y004120D01*
X006162Y004217D01*
X006162Y004023D02*
X006355Y004023D01*
X005355Y004023D02*
X005162Y004023D01*
X005065Y004120D01*
X005162Y004217D01*
X005355Y004217D01*
X005355Y004318D02*
X005355Y004463D01*
X005307Y004511D01*
X005113Y004511D01*
X005065Y004463D01*
X005065Y004318D01*
X005355Y004318D01*
X005210Y004217D02*
X005210Y004023D01*
X005162Y004612D02*
X005065Y004709D01*
X005355Y004709D01*
X005355Y004612D02*
X005355Y004806D01*
X005307Y004907D02*
X005355Y004955D01*
X005355Y005052D01*
X005307Y005101D01*
X005258Y005101D01*
X005210Y005052D01*
X005210Y005004D01*
X005210Y005052D02*
X005162Y005101D01*
X005113Y005101D01*
X005065Y005052D01*
X005065Y004955D01*
X005113Y004907D01*
X004355Y004806D02*
X004355Y004612D01*
X004355Y004709D02*
X004065Y004709D01*
X004162Y004612D01*
X004113Y004511D02*
X004065Y004463D01*
X004065Y004318D01*
X004355Y004318D01*
X004355Y004463D01*
X004307Y004511D01*
X004113Y004511D01*
X004162Y004217D02*
X004355Y004217D01*
X004210Y004217D02*
X004210Y004023D01*
X004162Y004023D02*
X004065Y004120D01*
X004162Y004217D01*
X004162Y004023D02*
X004355Y004023D01*
X003355Y004023D02*
X003162Y004023D01*
X003065Y004120D01*
X003162Y004217D01*
X003355Y004217D01*
X003355Y004318D02*
X003355Y004463D01*
X003307Y004511D01*
X003113Y004511D01*
X003065Y004463D01*
X003065Y004318D01*
X003355Y004318D01*
X003210Y004217D02*
X003210Y004023D01*
X003162Y004612D02*
X003065Y004709D01*
X003355Y004709D01*
X003355Y004612D02*
X003355Y004806D01*
X003307Y004907D02*
X003355Y004955D01*
X003355Y005052D01*
X003307Y005101D01*
X003210Y005101D01*
X003162Y005052D01*
X003162Y005004D01*
X003210Y004907D01*
X003065Y004907D01*
X003065Y005101D01*
X002355Y005052D02*
X002355Y004907D01*
X002065Y004907D01*
X002065Y005052D01*
X002113Y005101D01*
X002307Y005101D01*
X002355Y005052D01*
X002355Y004806D02*
X002065Y004806D01*
X002065Y004612D02*
X002355Y004806D01*
X002355Y004612D02*
X002065Y004612D01*
X002113Y004511D02*
X002065Y004463D01*
X002065Y004366D01*
X002113Y004318D01*
X002307Y004318D01*
X002355Y004366D01*
X002355Y004463D01*
X002307Y004511D01*
X002210Y004511D01*
X002210Y004414D01*
X000635Y004479D02*
X000538Y004382D01*
X000538Y004431D02*
X000538Y004286D01*
X000635Y004286D02*
X000345Y004286D01*
X000345Y004431D01*
X000393Y004479D01*
X000490Y004479D01*
X000538Y004431D01*
X000538Y004580D02*
X000538Y004725D01*
X000490Y004774D01*
X000393Y004774D01*
X000345Y004725D01*
X000345Y004580D01*
X000635Y004580D01*
X000635Y004184D02*
X000442Y004184D01*
X000345Y004088D01*
X000442Y003991D01*
X000635Y003991D01*
X000635Y003890D02*
X000345Y003890D01*
X000490Y003890D02*
X000490Y003696D01*
X000538Y003595D02*
X000490Y003547D01*
X000490Y003450D01*
X000442Y003402D01*
X000393Y003402D01*
X000345Y003450D01*
X000345Y003547D01*
X000393Y003595D01*
X000345Y003696D02*
X000635Y003696D01*
X000587Y003595D02*
X000635Y003547D01*
X000635Y003450D01*
X000587Y003402D01*
X000587Y003595D02*
X000538Y003595D01*
X000490Y003991D02*
X000490Y004184D01*
X000538Y005170D02*
X000538Y005315D01*
X000490Y005363D01*
X000393Y005363D01*
X000345Y005315D01*
X000345Y005170D01*
X000635Y005170D01*
X000587Y005464D02*
X000393Y005464D01*
X000345Y005513D01*
X000345Y005609D01*
X000393Y005658D01*
X000490Y005759D02*
X000490Y005952D01*
X000442Y006054D02*
X000345Y006150D01*
X000635Y006150D01*
X000635Y006054D02*
X000635Y006247D01*
X000587Y006348D02*
X000635Y006397D01*
X000635Y006493D01*
X000587Y006542D01*
X000490Y006542D01*
X000442Y006493D01*
X000442Y006445D01*
X000490Y006348D01*
X000345Y006348D01*
X000345Y006542D01*
X000393Y006643D02*
X000345Y006691D01*
X000345Y006788D01*
X000393Y006836D01*
X000587Y006643D01*
X000635Y006691D01*
X000635Y006788D01*
X000587Y006836D01*
X000393Y006836D01*
X000393Y006937D02*
X000345Y006986D01*
X000345Y007083D01*
X000393Y007131D01*
X000587Y006937D01*
X000635Y006986D01*
X000635Y007083D01*
X000587Y007131D01*
X000393Y007131D01*
X000442Y007232D02*
X000345Y007329D01*
X000442Y007232D02*
X000538Y007232D01*
X000635Y007329D01*
X000635Y007429D02*
X000442Y007429D01*
X000345Y007525D01*
X000442Y007622D01*
X000635Y007622D01*
X000635Y007723D02*
X000538Y007820D01*
X000442Y007820D01*
X000345Y007723D01*
X000490Y007622D02*
X000490Y007429D01*
X000587Y006937D02*
X000393Y006937D01*
X000393Y006643D02*
X000587Y006643D01*
X000587Y005658D02*
X000635Y005609D01*
X000635Y005513D01*
X000587Y005464D01*
X000587Y008214D02*
X000393Y008214D01*
X000345Y008263D01*
X000345Y008359D01*
X000393Y008408D01*
X000442Y008509D02*
X000345Y008606D01*
X000442Y008702D01*
X000635Y008702D01*
X000635Y008804D02*
X000345Y008804D01*
X000345Y008949D01*
X000393Y008997D01*
X000490Y008997D01*
X000538Y008949D01*
X000538Y008804D01*
X000538Y008900D02*
X000635Y008997D01*
X000345Y009098D02*
X000345Y009292D01*
X000345Y009195D02*
X000635Y009195D01*
X000635Y009393D02*
X000345Y009393D01*
X000345Y009538D01*
X000393Y009586D01*
X000490Y009586D01*
X000538Y009538D01*
X000538Y009393D01*
X000538Y009490D02*
X000635Y009586D01*
X000635Y009688D02*
X000635Y009784D01*
X000635Y009736D02*
X000345Y009736D01*
X000345Y009688D02*
X000345Y009784D01*
X000345Y009884D02*
X000345Y010029D01*
X000393Y010078D01*
X000587Y010078D01*
X000635Y010029D01*
X000635Y009884D01*
X000345Y009884D01*
X000393Y010179D02*
X000587Y010179D01*
X000635Y010227D01*
X000635Y010324D01*
X000587Y010372D01*
X000490Y010372D01*
X000490Y010275D01*
X000393Y010179D02*
X000345Y010227D01*
X000345Y010324D01*
X000393Y010372D01*
X000345Y010473D02*
X000635Y010473D01*
X000635Y010667D01*
X000490Y010570D02*
X000490Y010473D01*
X000345Y010473D02*
X000345Y010667D01*
X002065Y010612D02*
X002065Y010757D01*
X002113Y010806D01*
X002307Y010806D01*
X002355Y010757D01*
X002355Y010612D01*
X002065Y010612D01*
X002113Y010907D02*
X002065Y010955D01*
X002065Y011052D01*
X002113Y011101D01*
X002162Y011101D01*
X002210Y011052D01*
X002258Y011101D01*
X002307Y011101D01*
X002355Y011052D01*
X002355Y010955D01*
X002307Y010907D01*
X002210Y011004D02*
X002210Y011052D01*
X003065Y011052D02*
X003065Y010955D01*
X003113Y010907D01*
X003113Y010806D02*
X003065Y010757D01*
X003065Y010612D01*
X003355Y010612D01*
X003355Y010757D01*
X003307Y010806D01*
X003113Y010806D01*
X003065Y011052D02*
X003113Y011101D01*
X003162Y011101D01*
X003355Y010907D01*
X003355Y011101D01*
X004065Y011004D02*
X004355Y011004D01*
X004355Y010907D02*
X004355Y011101D01*
X004162Y010907D02*
X004065Y011004D01*
X004113Y010806D02*
X004065Y010757D01*
X004065Y010612D01*
X004355Y010612D01*
X004355Y010757D01*
X004307Y010806D01*
X004113Y010806D01*
X005065Y010757D02*
X005065Y010612D01*
X005355Y010612D01*
X005355Y010757D01*
X005307Y010806D01*
X005113Y010806D01*
X005065Y010757D01*
X005113Y010907D02*
X005065Y010955D01*
X005065Y011052D01*
X005113Y011101D01*
X005307Y010907D01*
X005355Y010955D01*
X005355Y011052D01*
X005307Y011101D01*
X005113Y011101D01*
X005113Y010907D02*
X005307Y010907D01*
X006065Y010907D02*
X006065Y011101D01*
X006065Y011004D02*
X006355Y011004D01*
X006355Y010807D02*
X006355Y010711D01*
X006355Y010759D02*
X006065Y010759D01*
X006065Y010711D02*
X006065Y010807D01*
X006113Y010609D02*
X006065Y010561D01*
X006065Y010416D01*
X006355Y010416D01*
X006355Y010561D01*
X006307Y010609D01*
X006258Y010609D01*
X006210Y010561D01*
X006210Y010416D01*
X006210Y010561D02*
X006162Y010609D01*
X006113Y010609D01*
X006065Y010316D02*
X006065Y010219D01*
X006065Y010268D02*
X006355Y010268D01*
X006355Y010316D02*
X006355Y010219D01*
X006355Y010118D02*
X006065Y010118D01*
X006210Y010118D02*
X006210Y009925D01*
X006355Y009925D02*
X006065Y009925D01*
X006065Y009824D02*
X006355Y009824D01*
X006065Y009630D01*
X006355Y009630D01*
X006355Y009531D02*
X006355Y009434D01*
X006355Y009482D02*
X006065Y009482D01*
X006065Y009434D02*
X006065Y009531D01*
X006235Y009084D02*
X006235Y008891D01*
X006235Y008988D02*
X005945Y008988D01*
X006042Y008891D01*
X005993Y008790D02*
X005945Y008741D01*
X005945Y008596D01*
X006235Y008596D01*
X006235Y008741D01*
X006187Y008790D01*
X005993Y008790D01*
X006042Y008495D02*
X006235Y008495D01*
X006090Y008495D02*
X006090Y008302D01*
X006042Y008302D02*
X006235Y008302D01*
X006042Y008302D02*
X005945Y008398D01*
X006042Y008495D01*
X005235Y008495D02*
X005042Y008495D01*
X004945Y008398D01*
X005042Y008302D01*
X005235Y008302D01*
X005090Y008302D02*
X005090Y008495D01*
X004945Y008596D02*
X005235Y008596D01*
X005235Y008741D01*
X005187Y008790D01*
X004993Y008790D01*
X004945Y008741D01*
X004945Y008596D01*
X004993Y008891D02*
X004945Y008939D01*
X004945Y009036D01*
X004993Y009084D01*
X005187Y008891D01*
X005235Y008939D01*
X005235Y009036D01*
X005187Y009084D01*
X004993Y009084D01*
X004993Y008891D02*
X005187Y008891D01*
X004235Y008741D02*
X004235Y008596D01*
X003945Y008596D01*
X003945Y008741D01*
X003993Y008790D01*
X004187Y008790D01*
X004235Y008741D01*
X004187Y008495D02*
X003993Y008495D01*
X003945Y008447D01*
X003945Y008350D01*
X003993Y008302D01*
X004187Y008302D01*
X004235Y008350D01*
X004235Y008447D01*
X004187Y008495D01*
X003235Y008495D02*
X003138Y008398D01*
X003138Y008447D02*
X003138Y008302D01*
X003235Y008302D02*
X002945Y008302D01*
X002945Y008447D01*
X002993Y008495D01*
X003090Y008495D01*
X003138Y008447D01*
X003235Y008596D02*
X003138Y008693D01*
X003235Y008790D01*
X002945Y008790D01*
X002945Y008596D02*
X003235Y008596D01*
X002235Y008596D02*
X001945Y008596D01*
X002235Y008790D01*
X001945Y008790D01*
X001945Y008891D02*
X001945Y009036D01*
X001993Y009084D01*
X002187Y009084D01*
X002235Y009036D01*
X002235Y008891D01*
X001945Y008891D01*
X001993Y008495D02*
X001945Y008447D01*
X001945Y008350D01*
X001993Y008302D01*
X002187Y008302D01*
X002235Y008350D01*
X002235Y008447D01*
X002187Y008495D01*
X002090Y008495D01*
X002090Y008398D01*
X000635Y008359D02*
X000635Y008263D01*
X000587Y008214D01*
X000635Y008359D02*
X000587Y008408D01*
X000635Y008509D02*
X000442Y008509D01*
X000490Y008509D02*
X000490Y008702D01*
X004065Y005052D02*
X004210Y004907D01*
X004210Y005101D01*
X004355Y005052D02*
X004065Y005052D01*
X007042Y008302D02*
X006945Y008398D01*
X007042Y008495D01*
X007235Y008495D01*
X007235Y008596D02*
X007235Y008741D01*
X007187Y008790D01*
X006993Y008790D01*
X006945Y008741D01*
X006945Y008596D01*
X007235Y008596D01*
X007090Y008495D02*
X007090Y008302D01*
X007042Y008302D02*
X007235Y008302D01*
X007235Y008891D02*
X007042Y009084D01*
X006993Y009084D01*
X006945Y009036D01*
X006945Y008939D01*
X006993Y008891D01*
X007235Y008891D02*
X007235Y009084D01*
X007307Y009630D02*
X007355Y009679D01*
X007355Y009775D01*
X007307Y009824D01*
X007258Y009824D01*
X007210Y009775D01*
X007210Y009679D01*
X007162Y009630D01*
X007113Y009630D01*
X007065Y009679D01*
X007065Y009775D01*
X007113Y009824D01*
X007162Y009925D02*
X007065Y010022D01*
X007355Y010022D01*
X007355Y010118D02*
X007355Y009925D01*
X007258Y010219D02*
X007162Y010219D01*
X007065Y010316D01*
X007113Y010416D02*
X007065Y010464D01*
X007065Y010561D01*
X007113Y010609D01*
X007113Y010711D02*
X007065Y010759D01*
X007065Y010856D01*
X007113Y010904D01*
X007162Y010904D01*
X007210Y010856D01*
X007258Y010904D01*
X007307Y010904D01*
X007355Y010856D01*
X007355Y010759D01*
X007307Y010711D01*
X007307Y010609D02*
X007355Y010561D01*
X007355Y010464D01*
X007307Y010416D01*
X007210Y010464D02*
X007210Y010561D01*
X007258Y010609D01*
X007307Y010609D01*
X007210Y010464D02*
X007162Y010416D01*
X007113Y010416D01*
X007258Y010219D02*
X007355Y010316D01*
X007210Y010807D02*
X007210Y010856D01*
X007355Y011005D02*
X007258Y011102D01*
X007162Y011102D01*
X007065Y011005D01*
X008065Y011005D02*
X008162Y011102D01*
X008258Y011102D01*
X008355Y011005D01*
X008355Y010856D02*
X008065Y010856D01*
X008210Y010711D01*
X008210Y010904D01*
X008258Y010609D02*
X008210Y010561D01*
X008210Y010464D01*
X008162Y010416D01*
X008113Y010416D01*
X008065Y010464D01*
X008065Y010561D01*
X008113Y010609D01*
X008258Y010609D02*
X008307Y010609D01*
X008355Y010561D01*
X008355Y010464D01*
X008307Y010416D01*
X008355Y010316D02*
X008258Y010219D01*
X008162Y010219D01*
X008065Y010316D01*
X008113Y010118D02*
X008065Y010070D01*
X008065Y009973D01*
X008113Y009925D01*
X008113Y009824D02*
X008065Y009775D01*
X008065Y009679D01*
X008113Y009630D01*
X008162Y009630D01*
X008210Y009679D01*
X008210Y009775D01*
X008258Y009824D01*
X008307Y009824D01*
X008355Y009775D01*
X008355Y009679D01*
X008307Y009630D01*
X008355Y009925D02*
X008162Y010118D01*
X008113Y010118D01*
X008355Y010118D02*
X008355Y009925D01*
X009065Y009973D02*
X009113Y009925D01*
X009065Y009973D02*
X009065Y010070D01*
X009113Y010118D01*
X009162Y010118D01*
X009210Y010070D01*
X009258Y010118D01*
X009307Y010118D01*
X009355Y010070D01*
X009355Y009973D01*
X009307Y009925D01*
X009307Y009824D02*
X009355Y009775D01*
X009355Y009679D01*
X009307Y009630D01*
X009210Y009679D02*
X009210Y009775D01*
X009258Y009824D01*
X009307Y009824D01*
X009210Y009679D02*
X009162Y009630D01*
X009113Y009630D01*
X009065Y009679D01*
X009065Y009775D01*
X009113Y009824D01*
X009210Y010022D02*
X009210Y010070D01*
X009258Y010219D02*
X009162Y010219D01*
X009065Y010316D01*
X009113Y010416D02*
X009162Y010416D01*
X009210Y010464D01*
X009210Y010561D01*
X009258Y010609D01*
X009307Y010609D01*
X009355Y010561D01*
X009355Y010464D01*
X009307Y010416D01*
X009355Y010316D02*
X009258Y010219D01*
X009113Y010416D02*
X009065Y010464D01*
X009065Y010561D01*
X009113Y010609D01*
X009065Y010711D02*
X009210Y010711D01*
X009162Y010807D01*
X009162Y010856D01*
X009210Y010904D01*
X009307Y010904D01*
X009355Y010856D01*
X009355Y010759D01*
X009307Y010711D01*
X009065Y010711D02*
X009065Y010904D01*
X009065Y011005D02*
X009162Y011102D01*
X009258Y011102D01*
X009355Y011005D01*
X010065Y011052D02*
X010065Y010955D01*
X010113Y010907D01*
X010113Y010806D02*
X010065Y010806D01*
X010113Y010806D02*
X010210Y010709D01*
X010355Y010709D01*
X010210Y010709D02*
X010113Y010612D01*
X010065Y010612D01*
X010355Y010907D02*
X010162Y011101D01*
X010113Y011101D01*
X010065Y011052D01*
X010355Y011101D02*
X010355Y010907D01*
X011065Y010955D02*
X011113Y010907D01*
X011307Y010907D01*
X011355Y010955D01*
X011355Y011052D01*
X011307Y011101D01*
X011210Y011101D01*
X011210Y011004D01*
X011113Y011101D02*
X011065Y011052D01*
X011065Y010955D01*
X011113Y010806D02*
X011065Y010757D01*
X011065Y010661D01*
X011113Y010612D01*
X011307Y010612D01*
X011355Y010661D01*
X011355Y010757D01*
X011307Y010806D01*
X011210Y010806D01*
X011210Y010709D01*
X011258Y010511D02*
X011065Y010511D01*
X011258Y010511D02*
X011355Y010414D01*
X011258Y010318D01*
X011065Y010318D01*
X011138Y009084D02*
X011090Y009036D01*
X011090Y008891D01*
X011187Y008891D01*
X011235Y008939D01*
X011235Y009036D01*
X011187Y009084D01*
X011138Y009084D01*
X010993Y008988D02*
X011090Y008891D01*
X010993Y008988D02*
X010945Y009084D01*
X010993Y008790D02*
X010945Y008741D01*
X010945Y008596D01*
X011235Y008596D01*
X011235Y008741D01*
X011187Y008790D01*
X010993Y008790D01*
X011042Y008495D02*
X011235Y008495D01*
X011090Y008495D02*
X011090Y008302D01*
X011042Y008302D02*
X010945Y008398D01*
X011042Y008495D01*
X011042Y008302D02*
X011235Y008302D01*
X010235Y008302D02*
X010042Y008302D01*
X009945Y008398D01*
X010042Y008495D01*
X010235Y008495D01*
X010235Y008596D02*
X010235Y008741D01*
X010187Y008790D01*
X009993Y008790D01*
X009945Y008741D01*
X009945Y008596D01*
X010235Y008596D01*
X010090Y008495D02*
X010090Y008302D01*
X010090Y008891D02*
X009945Y008891D01*
X009945Y009084D01*
X010042Y009036D02*
X010042Y008988D01*
X010090Y008891D01*
X010187Y008891D02*
X010235Y008939D01*
X010235Y009036D01*
X010187Y009084D01*
X010090Y009084D01*
X010042Y009036D01*
X009235Y009036D02*
X008945Y009036D01*
X009090Y008891D01*
X009090Y009084D01*
X009187Y008790D02*
X008993Y008790D01*
X008945Y008741D01*
X008945Y008596D01*
X009235Y008596D01*
X009235Y008741D01*
X009187Y008790D01*
X009235Y008495D02*
X009042Y008495D01*
X008945Y008398D01*
X009042Y008302D01*
X009235Y008302D01*
X009090Y008302D02*
X009090Y008495D01*
X008235Y008495D02*
X008042Y008495D01*
X007945Y008398D01*
X008042Y008302D01*
X008235Y008302D01*
X008090Y008302D02*
X008090Y008495D01*
X008235Y008596D02*
X008235Y008741D01*
X008187Y008790D01*
X007993Y008790D01*
X007945Y008741D01*
X007945Y008596D01*
X008235Y008596D01*
X008187Y008891D02*
X008235Y008939D01*
X008235Y009036D01*
X008187Y009084D01*
X008138Y009084D01*
X008090Y009036D01*
X008090Y008988D01*
X008090Y009036D02*
X008042Y009084D01*
X007993Y009084D01*
X007945Y009036D01*
X007945Y008939D01*
X007993Y008891D01*
D12*
X007900Y007987D02*
X007650Y007737D01*
X007650Y007237D01*
X007900Y006987D01*
X008400Y006987D01*
X008650Y007237D01*
X008900Y006987D01*
X009400Y006987D01*
X009650Y007237D01*
X009650Y007737D01*
X009400Y007987D01*
X008900Y007987D01*
X008650Y007737D01*
X008650Y007237D01*
X008650Y007737D02*
X008400Y007987D01*
X007900Y007987D01*
X007650Y007737D02*
X007400Y007987D01*
X006900Y007987D01*
X006650Y007737D01*
X006650Y007237D01*
X006400Y006987D01*
X005900Y006987D01*
X005650Y007237D01*
X005400Y006987D01*
X004900Y006987D01*
X004650Y007237D01*
X004400Y006987D01*
X003900Y006987D01*
X003650Y007237D01*
X003400Y006987D01*
X002900Y006987D01*
X002650Y007237D01*
X002400Y006987D01*
X001900Y006987D01*
X001650Y007237D01*
X001650Y007737D01*
X001900Y007987D01*
X002400Y007987D01*
X002650Y007737D01*
X002900Y007987D01*
X003400Y007987D01*
X003650Y007737D01*
X003650Y007237D01*
X003650Y007737D02*
X003900Y007987D01*
X004400Y007987D01*
X004650Y007737D01*
X004900Y007987D01*
X005400Y007987D01*
X005650Y007737D01*
X005900Y007987D01*
X006400Y007987D01*
X006650Y007737D01*
X006650Y007237D02*
X006900Y006987D01*
X007400Y006987D01*
X007650Y007237D01*
X007400Y006487D02*
X006900Y006487D01*
X006650Y006237D01*
X006650Y005737D01*
X006900Y005487D01*
X007400Y005487D01*
X007650Y005737D01*
X007650Y006237D01*
X007400Y006487D01*
X007650Y006237D02*
X007900Y006487D01*
X008400Y006487D01*
X008650Y006237D01*
X008900Y006487D01*
X009400Y006487D01*
X009650Y006237D01*
X009900Y006487D01*
X010400Y006487D01*
X010650Y006237D01*
X010900Y006487D01*
X011400Y006487D01*
X011650Y006237D01*
X011650Y005737D01*
X011400Y005487D01*
X010900Y005487D01*
X010650Y005737D01*
X010400Y005487D01*
X009900Y005487D01*
X009650Y005737D01*
X009650Y006237D01*
X009650Y005737D02*
X009400Y005487D01*
X008900Y005487D01*
X008650Y005737D01*
X008400Y005487D01*
X007900Y005487D01*
X007650Y005737D01*
X006650Y005737D02*
X006400Y005487D01*
X005900Y005487D01*
X005650Y005737D01*
X005400Y005487D01*
X004900Y005487D01*
X004650Y005737D01*
X004400Y005487D01*
X003900Y005487D01*
X003650Y005737D01*
X003650Y006237D01*
X003900Y006487D01*
X004400Y006487D01*
X004650Y006237D01*
X004900Y006487D01*
X005400Y006487D01*
X005650Y006237D01*
X005900Y006487D01*
X006400Y006487D01*
X006650Y006237D01*
X005650Y006237D02*
X005650Y005737D01*
X004650Y005737D02*
X004650Y006237D01*
X003650Y006237D02*
X003400Y006487D01*
X002900Y006487D01*
X002650Y006237D01*
X002400Y006487D01*
X001900Y006487D01*
X001650Y006237D01*
X001650Y005737D01*
X001900Y005487D01*
X002400Y005487D01*
X002650Y005737D01*
X002650Y006237D01*
X002650Y005737D02*
X002900Y005487D01*
X003400Y005487D01*
X003650Y005737D01*
X002650Y007237D02*
X002650Y007737D01*
X004650Y007737D02*
X004650Y007237D01*
X005650Y007237D02*
X005650Y007737D01*
X008650Y006237D02*
X008650Y005737D01*
X009900Y006987D02*
X009650Y007237D01*
X009900Y006987D02*
X010400Y006987D01*
X010650Y007237D01*
X010900Y006987D01*
X011400Y006987D01*
X011650Y007237D01*
X011650Y007737D01*
X011400Y007987D01*
X010900Y007987D01*
X010650Y007737D01*
X010650Y007237D01*
X010650Y007737D02*
X010400Y007987D01*
X009900Y007987D01*
X009650Y007737D01*
X010650Y006237D02*
X010650Y005737D01*
X010400Y001987D02*
X009900Y001987D01*
X009650Y001737D01*
X009650Y001237D01*
X009900Y000987D01*
X010400Y000987D01*
X010650Y001237D01*
X010650Y001737D01*
X010400Y001987D01*
X010650Y001737D02*
X010900Y001987D01*
X011400Y001987D01*
X011650Y001737D01*
X011650Y001237D01*
X011400Y000987D01*
X010900Y000987D01*
X010650Y001237D01*
X009650Y001237D02*
X009400Y000987D01*
X008900Y000987D01*
X008650Y001237D01*
X008400Y000987D01*
X007900Y000987D01*
X007650Y001237D01*
X007400Y000987D01*
X006900Y000987D01*
X006650Y001237D01*
X006650Y001737D01*
X006900Y001987D01*
X007400Y001987D01*
X007650Y001737D01*
X007900Y001987D01*
X008400Y001987D01*
X008650Y001737D01*
X008900Y001987D01*
X009400Y001987D01*
X009650Y001737D01*
X008650Y001737D02*
X008650Y001237D01*
X007650Y001237D02*
X007650Y001737D01*
X006650Y001737D02*
X006400Y001987D01*
X005900Y001987D01*
X005650Y001737D01*
X005400Y001987D01*
X004900Y001987D01*
X004650Y001737D01*
X004400Y001987D01*
X003900Y001987D01*
X003650Y001737D01*
X003650Y001237D01*
X003900Y000987D01*
X004400Y000987D01*
X004650Y001237D01*
X004650Y001737D01*
X004650Y001237D02*
X004900Y000987D01*
X005400Y000987D01*
X005650Y001237D01*
X005650Y001737D01*
X005650Y001237D02*
X005900Y000987D01*
X006400Y000987D01*
X006650Y001237D01*
X003650Y001237D02*
X003400Y000987D01*
X002900Y000987D01*
X002650Y001237D01*
X002400Y000987D01*
X001900Y000987D01*
X001650Y001237D01*
X001650Y001737D01*
X001900Y001987D01*
X002400Y001987D01*
X002650Y001737D01*
X002900Y001987D01*
X003400Y001987D01*
X003650Y001737D01*
X002650Y001737D02*
X002650Y001237D01*
X002400Y011487D02*
X001900Y011487D01*
X001650Y011737D01*
X001650Y012237D01*
X001900Y012487D01*
X002400Y012487D01*
X002650Y012237D01*
X002900Y012487D01*
X003400Y012487D01*
X003650Y012237D01*
X003650Y011737D01*
X003400Y011487D01*
X002900Y011487D01*
X002650Y011737D01*
X002400Y011487D01*
X002650Y011737D02*
X002650Y012237D01*
X003650Y012237D02*
X003900Y012487D01*
X004400Y012487D01*
X004650Y012237D01*
X004900Y012487D01*
X005400Y012487D01*
X005650Y012237D01*
X005900Y012487D01*
X006400Y012487D01*
X006650Y012237D01*
X006650Y011737D01*
X006400Y011487D01*
X005900Y011487D01*
X005650Y011737D01*
X005400Y011487D01*
X004900Y011487D01*
X004650Y011737D01*
X004400Y011487D01*
X003900Y011487D01*
X003650Y011737D01*
X004650Y011737D02*
X004650Y012237D01*
X005650Y012237D02*
X005650Y011737D01*
X006650Y011737D02*
X006900Y011487D01*
X007400Y011487D01*
X007650Y011737D01*
X007900Y011487D01*
X008400Y011487D01*
X008650Y011737D01*
X008900Y011487D01*
X009400Y011487D01*
X009650Y011737D01*
X009650Y012237D01*
X009400Y012487D01*
X008900Y012487D01*
X008650Y012237D01*
X008650Y011737D01*
X008650Y012237D02*
X008400Y012487D01*
X007900Y012487D01*
X007650Y012237D01*
X007650Y011737D01*
X007650Y012237D02*
X007400Y012487D01*
X006900Y012487D01*
X006650Y012237D01*
X009650Y012237D02*
X009900Y012487D01*
X010400Y012487D01*
X010650Y012237D01*
X010900Y012487D01*
X011400Y012487D01*
X011650Y012237D01*
X011650Y011737D01*
X011400Y011487D01*
X010900Y011487D01*
X010650Y011737D01*
X010400Y011487D01*
X009900Y011487D01*
X009650Y011737D01*
X010650Y011737D02*
X010650Y012237D01*
M02*
