G75*
%MOIN*%
%OFA0B0*%
%FSLAX24Y24*%
%IPPOS*%
%LPD*%
%AMOC8*
5,1,8,0,0,1.08239X$1,22.5*
%
%ADD10C,0.0000*%
%ADD11C,0.0600*%
%ADD12R,0.2600X0.0300*%
%ADD13R,0.2200X0.0300*%
%ADD14C,0.0100*%
%ADD15C,0.0317*%
D10*
X000150Y000487D02*
X013050Y000487D01*
X013050Y001537D01*
X015650Y001537D01*
X015950Y001837D01*
X015950Y002237D01*
X015550Y002237D01*
X015550Y011237D01*
X015950Y011237D01*
X015950Y011637D01*
X015650Y011937D01*
X013050Y011937D01*
X013050Y012987D01*
X000150Y012987D01*
X000150Y000487D01*
D11*
X002150Y001187D02*
X002150Y001787D01*
X003150Y001787D02*
X003150Y001187D01*
X004150Y001187D02*
X004150Y001787D01*
X005150Y001787D02*
X005150Y001187D01*
X006150Y001187D02*
X006150Y001787D01*
X007150Y001787D02*
X007150Y001187D01*
X008150Y001187D02*
X008150Y001787D01*
X009150Y001787D02*
X009150Y001187D01*
X010150Y001187D02*
X010150Y001787D01*
X011150Y001787D02*
X011150Y001187D01*
X011150Y005687D02*
X011150Y006287D01*
X010150Y006287D02*
X010150Y005687D01*
X009150Y005687D02*
X009150Y006287D01*
X008150Y006287D02*
X008150Y005687D01*
X007150Y005687D02*
X007150Y006287D01*
X006150Y006287D02*
X006150Y005687D01*
X005150Y005687D02*
X005150Y006287D01*
X004150Y006287D02*
X004150Y005687D01*
X003150Y005687D02*
X003150Y006287D01*
X002150Y006287D02*
X002150Y005687D01*
X002150Y007187D02*
X002150Y007787D01*
X003150Y007787D02*
X003150Y007187D01*
X004150Y007187D02*
X004150Y007787D01*
X005150Y007787D02*
X005150Y007187D01*
X006150Y007187D02*
X006150Y007787D01*
X007150Y007787D02*
X007150Y007187D01*
X008150Y007187D02*
X008150Y007787D01*
X009150Y007787D02*
X009150Y007187D01*
X010150Y007187D02*
X010150Y007787D01*
X011150Y007787D02*
X011150Y007187D01*
X011150Y011687D02*
X011150Y012287D01*
X010150Y012287D02*
X010150Y011687D01*
X009150Y011687D02*
X009150Y012287D01*
X008150Y012287D02*
X008150Y011687D01*
X007150Y011687D02*
X007150Y012287D01*
X006150Y012287D02*
X006150Y011687D01*
X005150Y011687D02*
X005150Y012287D01*
X004150Y012287D02*
X004150Y011687D01*
X003150Y011687D02*
X003150Y012287D01*
X002150Y012287D02*
X002150Y011687D01*
D12*
X014650Y011487D03*
X014650Y001987D03*
D13*
X014450Y002487D03*
X014450Y002987D03*
X014450Y003487D03*
X014450Y003987D03*
X014450Y004487D03*
X014450Y004987D03*
X014450Y005487D03*
X014450Y005987D03*
X014450Y006487D03*
X014450Y006987D03*
X014450Y007487D03*
X014450Y007987D03*
X014450Y008487D03*
X014450Y008987D03*
X014450Y009487D03*
X014450Y009987D03*
X014450Y010487D03*
X014450Y010987D03*
D14*
X012900Y010987D01*
X012650Y011237D01*
X010900Y011237D01*
X010150Y011987D01*
X009740Y012011D02*
X009560Y012011D01*
X009560Y011913D02*
X009740Y011913D01*
X009740Y011814D02*
X009560Y011814D01*
X009560Y011803D02*
X009560Y012368D01*
X009498Y012519D01*
X009382Y012634D01*
X009232Y012697D01*
X009068Y012697D01*
X008918Y012634D01*
X008802Y012519D01*
X008740Y012368D01*
X008740Y011623D01*
X008560Y011803D01*
X008560Y012368D01*
X008498Y012519D01*
X008382Y012634D01*
X008232Y012697D01*
X008068Y012697D01*
X007918Y012634D01*
X007802Y012519D01*
X007740Y012368D01*
X007740Y011623D01*
X007560Y011803D01*
X007560Y012368D01*
X007498Y012519D01*
X007382Y012634D01*
X007232Y012697D01*
X007068Y012697D01*
X006918Y012634D01*
X006802Y012519D01*
X006740Y012368D01*
X006740Y011623D01*
X006560Y011803D01*
X006560Y012368D01*
X006498Y012519D01*
X006382Y012634D01*
X006232Y012697D01*
X006068Y012697D01*
X005918Y012634D01*
X005802Y012519D01*
X005740Y012368D01*
X005740Y011623D01*
X005560Y011803D01*
X005560Y012368D01*
X005498Y012519D01*
X005382Y012634D01*
X005232Y012697D01*
X005068Y012697D01*
X004918Y012634D01*
X004802Y012519D01*
X004740Y012368D01*
X004740Y011623D01*
X004560Y011803D01*
X004560Y012368D01*
X004498Y012519D01*
X004382Y012634D01*
X004232Y012697D01*
X004068Y012697D01*
X003918Y012634D01*
X003802Y012519D01*
X003740Y012368D01*
X003740Y011623D01*
X003560Y011803D01*
X003560Y012368D01*
X003498Y012519D01*
X003382Y012634D01*
X003232Y012697D01*
X003068Y012697D01*
X002918Y012634D01*
X002802Y012519D01*
X002740Y012368D01*
X002740Y011623D01*
X002560Y011803D01*
X002560Y012368D01*
X002498Y012519D01*
X002382Y012634D01*
X002232Y012697D01*
X002068Y012697D01*
X001918Y012634D01*
X001802Y012519D01*
X001740Y012368D01*
X001740Y011605D01*
X001802Y011454D01*
X001918Y011339D01*
X002068Y011277D01*
X002232Y011277D01*
X002382Y011339D01*
X002477Y011434D01*
X004834Y009077D01*
X010584Y009077D01*
X012834Y006827D01*
X012900Y006827D01*
X012900Y006647D01*
X012834Y006647D01*
X010584Y004397D01*
X004834Y004397D01*
X002477Y002040D01*
X002382Y002134D01*
X002232Y002197D01*
X002068Y002197D01*
X001918Y002134D01*
X001802Y002019D01*
X001740Y001868D01*
X001740Y001105D01*
X001802Y000954D01*
X001918Y000839D01*
X002068Y000777D01*
X002232Y000777D01*
X002382Y000839D01*
X002498Y000954D01*
X002560Y001105D01*
X002560Y001670D01*
X002740Y001850D01*
X002740Y001105D01*
X002802Y000954D01*
X002918Y000839D01*
X003068Y000777D01*
X003232Y000777D01*
X003382Y000839D01*
X003498Y000954D01*
X003560Y001105D01*
X003560Y001670D01*
X003740Y001850D01*
X003740Y001105D01*
X003802Y000954D01*
X003918Y000839D01*
X004068Y000777D01*
X004232Y000777D01*
X004382Y000839D01*
X004498Y000954D01*
X004560Y001105D01*
X004560Y001670D01*
X004740Y001850D01*
X004740Y001105D01*
X004802Y000954D01*
X004918Y000839D01*
X005068Y000777D01*
X005232Y000777D01*
X005382Y000839D01*
X005498Y000954D01*
X005560Y001105D01*
X005560Y001670D01*
X005740Y001850D01*
X005740Y001105D01*
X005802Y000954D01*
X005918Y000839D01*
X006068Y000777D01*
X006232Y000777D01*
X006382Y000839D01*
X006498Y000954D01*
X006560Y001105D01*
X006560Y001670D01*
X006740Y001850D01*
X006740Y001105D01*
X006802Y000954D01*
X006918Y000839D01*
X007068Y000777D01*
X007232Y000777D01*
X007382Y000839D01*
X007498Y000954D01*
X007560Y001105D01*
X007560Y001670D01*
X007740Y001850D01*
X007740Y001105D01*
X007802Y000954D01*
X007918Y000839D01*
X008068Y000777D01*
X008232Y000777D01*
X008382Y000839D01*
X008498Y000954D01*
X008560Y001105D01*
X008560Y001670D01*
X008740Y001850D01*
X008740Y001105D01*
X008802Y000954D01*
X008918Y000839D01*
X009068Y000777D01*
X009232Y000777D01*
X009382Y000839D01*
X009498Y000954D01*
X009560Y001105D01*
X009560Y001670D01*
X009740Y001850D01*
X009740Y001105D01*
X009802Y000954D01*
X009918Y000839D01*
X010068Y000777D01*
X010232Y000777D01*
X010382Y000839D01*
X010498Y000954D01*
X010560Y001105D01*
X010560Y001670D01*
X010740Y001850D01*
X010740Y001105D01*
X010802Y000954D01*
X010918Y000839D01*
X011068Y000777D01*
X011232Y000777D01*
X011382Y000839D01*
X011498Y000954D01*
X011560Y001105D01*
X011560Y001670D01*
X011716Y001827D01*
X012900Y001827D01*
X012900Y000637D01*
X000300Y000637D01*
X000300Y012837D01*
X012900Y012837D01*
X012900Y011647D01*
X011716Y011647D01*
X011560Y011803D01*
X011560Y012368D01*
X011498Y012519D01*
X011382Y012634D01*
X011232Y012697D01*
X011068Y012697D01*
X010918Y012634D01*
X010802Y012519D01*
X010740Y012368D01*
X010740Y011623D01*
X010560Y011803D01*
X010560Y012368D01*
X010498Y012519D01*
X010382Y012634D01*
X010232Y012697D01*
X010068Y012697D01*
X009918Y012634D01*
X009802Y012519D01*
X009740Y012368D01*
X009740Y011623D01*
X009560Y011803D01*
X009647Y011716D02*
X009740Y011716D01*
X009740Y012110D02*
X009560Y012110D01*
X009560Y012208D02*
X009740Y012208D01*
X009740Y012307D02*
X009560Y012307D01*
X009545Y012405D02*
X009755Y012405D01*
X009796Y012504D02*
X009504Y012504D01*
X009414Y012602D02*
X009886Y012602D01*
X010414Y012602D02*
X010886Y012602D01*
X010796Y012504D02*
X010504Y012504D01*
X010545Y012405D02*
X010755Y012405D01*
X010740Y012307D02*
X010560Y012307D01*
X010560Y012208D02*
X010740Y012208D01*
X010740Y012110D02*
X010560Y012110D01*
X010560Y012011D02*
X010740Y012011D01*
X010740Y011913D02*
X010560Y011913D01*
X010560Y011814D02*
X010740Y011814D01*
X010740Y011716D02*
X010647Y011716D01*
X011150Y011987D02*
X011650Y011487D01*
X014650Y011487D01*
X014450Y010487D02*
X012900Y010487D01*
X012400Y010987D01*
X010150Y010987D01*
X009150Y011987D01*
X008740Y012011D02*
X008560Y012011D01*
X008560Y011913D02*
X008740Y011913D01*
X008740Y011814D02*
X008560Y011814D01*
X008647Y011716D02*
X008740Y011716D01*
X008740Y012110D02*
X008560Y012110D01*
X008560Y012208D02*
X008740Y012208D01*
X008740Y012307D02*
X008560Y012307D01*
X008545Y012405D02*
X008755Y012405D01*
X008796Y012504D02*
X008504Y012504D01*
X008414Y012602D02*
X008886Y012602D01*
X008150Y011987D02*
X009400Y010737D01*
X012150Y010737D01*
X012900Y009987D01*
X014450Y009987D01*
X014450Y009487D02*
X012900Y009487D01*
X011900Y010487D01*
X008650Y010487D01*
X007150Y011987D01*
X007560Y012011D02*
X007740Y012011D01*
X007740Y011913D02*
X007560Y011913D01*
X007560Y011814D02*
X007740Y011814D01*
X007740Y011716D02*
X007647Y011716D01*
X007560Y012110D02*
X007740Y012110D01*
X007740Y012208D02*
X007560Y012208D01*
X007560Y012307D02*
X007740Y012307D01*
X007755Y012405D02*
X007545Y012405D01*
X007504Y012504D02*
X007796Y012504D01*
X007886Y012602D02*
X007414Y012602D01*
X006886Y012602D02*
X006414Y012602D01*
X006504Y012504D02*
X006796Y012504D01*
X006755Y012405D02*
X006545Y012405D01*
X006560Y012307D02*
X006740Y012307D01*
X006740Y012208D02*
X006560Y012208D01*
X006560Y012110D02*
X006740Y012110D01*
X006740Y012011D02*
X006560Y012011D01*
X006560Y011913D02*
X006740Y011913D01*
X006740Y011814D02*
X006560Y011814D01*
X006647Y011716D02*
X006740Y011716D01*
X006150Y011987D02*
X007900Y010237D01*
X011650Y010237D01*
X012900Y008987D01*
X014450Y008987D01*
X014450Y008487D02*
X012900Y008487D01*
X011400Y009987D01*
X007150Y009987D01*
X005150Y011987D01*
X005560Y012011D02*
X005740Y012011D01*
X005740Y011913D02*
X005560Y011913D01*
X005560Y011814D02*
X005740Y011814D01*
X005740Y011716D02*
X005647Y011716D01*
X005560Y012110D02*
X005740Y012110D01*
X005740Y012208D02*
X005560Y012208D01*
X005560Y012307D02*
X005740Y012307D01*
X005755Y012405D02*
X005545Y012405D01*
X005504Y012504D02*
X005796Y012504D01*
X005886Y012602D02*
X005414Y012602D01*
X004886Y012602D02*
X004414Y012602D01*
X004504Y012504D02*
X004796Y012504D01*
X004755Y012405D02*
X004545Y012405D01*
X004560Y012307D02*
X004740Y012307D01*
X004740Y012208D02*
X004560Y012208D01*
X004560Y012110D02*
X004740Y012110D01*
X004740Y012011D02*
X004560Y012011D01*
X004560Y011913D02*
X004740Y011913D01*
X004740Y011814D02*
X004560Y011814D01*
X004647Y011716D02*
X004740Y011716D01*
X004150Y011987D02*
X006400Y009737D01*
X011150Y009737D01*
X012900Y007987D01*
X014450Y007987D01*
X014450Y007487D02*
X012900Y007487D01*
X010900Y009487D01*
X005650Y009487D01*
X003150Y011987D01*
X003560Y012011D02*
X003740Y012011D01*
X003740Y011913D02*
X003560Y011913D01*
X003560Y011814D02*
X003740Y011814D01*
X003740Y011716D02*
X003647Y011716D01*
X003560Y012110D02*
X003740Y012110D01*
X003740Y012208D02*
X003560Y012208D01*
X003560Y012307D02*
X003740Y012307D01*
X003755Y012405D02*
X003545Y012405D01*
X003504Y012504D02*
X003796Y012504D01*
X003886Y012602D02*
X003414Y012602D01*
X002886Y012602D02*
X002414Y012602D01*
X002504Y012504D02*
X002796Y012504D01*
X002755Y012405D02*
X002545Y012405D01*
X002560Y012307D02*
X002740Y012307D01*
X002740Y012208D02*
X002560Y012208D01*
X002560Y012110D02*
X002740Y012110D01*
X002740Y012011D02*
X002560Y012011D01*
X002560Y011913D02*
X002740Y011913D01*
X002740Y011814D02*
X002560Y011814D01*
X002647Y011716D02*
X002740Y011716D01*
X002490Y011420D02*
X002463Y011420D01*
X002340Y011322D02*
X002589Y011322D01*
X002687Y011223D02*
X000300Y011223D01*
X000300Y011125D02*
X002786Y011125D01*
X002884Y011026D02*
X000300Y011026D01*
X000300Y010928D02*
X002983Y010928D01*
X003081Y010829D02*
X000300Y010829D01*
X000300Y010731D02*
X003180Y010731D01*
X003278Y010632D02*
X000300Y010632D01*
X000300Y010534D02*
X003377Y010534D01*
X003475Y010435D02*
X000300Y010435D01*
X000300Y010337D02*
X003574Y010337D01*
X003672Y010238D02*
X000300Y010238D01*
X000300Y010140D02*
X003771Y010140D01*
X003869Y010041D02*
X000300Y010041D01*
X000300Y009943D02*
X003968Y009943D01*
X004066Y009844D02*
X000300Y009844D01*
X000300Y009746D02*
X004165Y009746D01*
X004263Y009647D02*
X000300Y009647D01*
X000300Y009549D02*
X004362Y009549D01*
X004460Y009450D02*
X000300Y009450D01*
X000300Y009352D02*
X004559Y009352D01*
X004657Y009253D02*
X000300Y009253D01*
X000300Y009155D02*
X004756Y009155D01*
X004900Y009237D02*
X002150Y011987D01*
X001740Y012011D02*
X000300Y012011D01*
X000300Y011913D02*
X001740Y011913D01*
X001740Y011814D02*
X000300Y011814D01*
X000300Y011716D02*
X001740Y011716D01*
X001740Y011617D02*
X000300Y011617D01*
X000300Y011519D02*
X001776Y011519D01*
X001837Y011420D02*
X000300Y011420D01*
X000300Y011322D02*
X001960Y011322D01*
X001740Y012110D02*
X000300Y012110D01*
X000300Y012208D02*
X001740Y012208D01*
X001740Y012307D02*
X000300Y012307D01*
X000300Y012405D02*
X001755Y012405D01*
X001796Y012504D02*
X000300Y012504D01*
X000300Y012602D02*
X001886Y012602D01*
X000300Y012701D02*
X012900Y012701D01*
X012900Y012799D02*
X000300Y012799D01*
X000300Y009056D02*
X010604Y009056D01*
X010703Y008958D02*
X000300Y008958D01*
X000300Y008859D02*
X010801Y008859D01*
X010900Y008761D02*
X000300Y008761D01*
X000300Y008662D02*
X010998Y008662D01*
X011097Y008564D02*
X000300Y008564D01*
X000300Y008465D02*
X011195Y008465D01*
X011294Y008367D02*
X000300Y008367D01*
X000300Y008268D02*
X011392Y008268D01*
X011382Y008134D02*
X011232Y008197D01*
X011068Y008197D01*
X010918Y008134D01*
X010802Y008019D01*
X010740Y007868D01*
X010740Y007105D01*
X010802Y006954D01*
X010918Y006839D01*
X011068Y006777D01*
X011232Y006777D01*
X011382Y006839D01*
X011498Y006954D01*
X011560Y007105D01*
X011560Y007868D01*
X011498Y008019D01*
X011382Y008134D01*
X011445Y008071D02*
X011589Y008071D01*
X011517Y007973D02*
X011688Y007973D01*
X011786Y007874D02*
X011558Y007874D01*
X011560Y007776D02*
X011885Y007776D01*
X011983Y007677D02*
X011560Y007677D01*
X011560Y007579D02*
X012082Y007579D01*
X012180Y007480D02*
X011560Y007480D01*
X011560Y007382D02*
X012279Y007382D01*
X012377Y007283D02*
X011560Y007283D01*
X011560Y007185D02*
X012476Y007185D01*
X012574Y007086D02*
X011552Y007086D01*
X011511Y006988D02*
X012673Y006988D01*
X012771Y006889D02*
X011432Y006889D01*
X011265Y006791D02*
X012900Y006791D01*
X012900Y006692D02*
X011242Y006692D01*
X011232Y006697D02*
X011068Y006697D01*
X010918Y006634D01*
X010802Y006519D01*
X010740Y006368D01*
X010740Y005605D01*
X010802Y005454D01*
X010918Y005339D01*
X011068Y005277D01*
X011232Y005277D01*
X011382Y005339D01*
X011498Y005454D01*
X011560Y005605D01*
X011560Y006368D01*
X011498Y006519D01*
X011382Y006634D01*
X011232Y006697D01*
X011058Y006692D02*
X010242Y006692D01*
X010232Y006697D02*
X010068Y006697D01*
X009918Y006634D01*
X009802Y006519D01*
X009740Y006368D01*
X009740Y005605D01*
X009802Y005454D01*
X009918Y005339D01*
X010068Y005277D01*
X010232Y005277D01*
X010382Y005339D01*
X010498Y005454D01*
X010560Y005605D01*
X010560Y006368D01*
X010498Y006519D01*
X010382Y006634D01*
X010232Y006697D01*
X010232Y006777D02*
X010068Y006777D01*
X009918Y006839D01*
X009802Y006954D01*
X009740Y007105D01*
X009740Y007868D01*
X009802Y008019D01*
X009918Y008134D01*
X010068Y008197D01*
X010232Y008197D01*
X010382Y008134D01*
X010498Y008019D01*
X010560Y007868D01*
X010560Y007105D01*
X010498Y006954D01*
X010382Y006839D01*
X010232Y006777D01*
X010265Y006791D02*
X011035Y006791D01*
X010868Y006889D02*
X010432Y006889D01*
X010511Y006988D02*
X010789Y006988D01*
X010748Y007086D02*
X010552Y007086D01*
X010560Y007185D02*
X010740Y007185D01*
X010740Y007283D02*
X010560Y007283D01*
X010560Y007382D02*
X010740Y007382D01*
X010740Y007480D02*
X010560Y007480D01*
X010560Y007579D02*
X010740Y007579D01*
X010740Y007677D02*
X010560Y007677D01*
X010560Y007776D02*
X010740Y007776D01*
X010742Y007874D02*
X010558Y007874D01*
X010517Y007973D02*
X010783Y007973D01*
X010855Y008071D02*
X010445Y008071D01*
X010297Y008170D02*
X011003Y008170D01*
X011297Y008170D02*
X011491Y008170D01*
X010650Y009237D02*
X004900Y009237D01*
X005068Y008197D02*
X004918Y008134D01*
X004802Y008019D01*
X004740Y007868D01*
X004740Y007105D01*
X004802Y006954D01*
X004918Y006839D01*
X005068Y006777D01*
X005232Y006777D01*
X005382Y006839D01*
X005498Y006954D01*
X005560Y007105D01*
X005560Y007868D01*
X005498Y008019D01*
X005382Y008134D01*
X005232Y008197D01*
X005068Y008197D01*
X005003Y008170D02*
X004297Y008170D01*
X004232Y008197D02*
X004382Y008134D01*
X004498Y008019D01*
X004560Y007868D01*
X004560Y007105D01*
X004498Y006954D01*
X004382Y006839D01*
X004232Y006777D01*
X004068Y006777D01*
X003918Y006839D01*
X003802Y006954D01*
X003740Y007105D01*
X003740Y007868D01*
X003802Y008019D01*
X003918Y008134D01*
X004068Y008197D01*
X004232Y008197D01*
X004003Y008170D02*
X003297Y008170D01*
X003232Y008197D02*
X003382Y008134D01*
X003498Y008019D01*
X003560Y007868D01*
X003560Y007105D01*
X003498Y006954D01*
X003382Y006839D01*
X003232Y006777D01*
X003068Y006777D01*
X002918Y006839D01*
X002802Y006954D01*
X002740Y007105D01*
X002740Y007868D01*
X002802Y008019D01*
X002918Y008134D01*
X003068Y008197D01*
X003232Y008197D01*
X003003Y008170D02*
X002388Y008170D01*
X002386Y008172D02*
X002323Y008204D01*
X002255Y008226D01*
X002200Y008234D01*
X002200Y007537D01*
X002100Y007537D01*
X002100Y008234D01*
X002045Y008226D01*
X001977Y008204D01*
X001914Y008172D01*
X001857Y008130D01*
X001807Y008080D01*
X001765Y008023D01*
X001733Y007959D01*
X001711Y007892D01*
X001700Y007822D01*
X001700Y007537D01*
X002100Y007537D01*
X002100Y007437D01*
X001700Y007437D01*
X001700Y007151D01*
X001711Y007081D01*
X001733Y007014D01*
X001765Y006951D01*
X001807Y006894D01*
X001857Y006843D01*
X001914Y006802D01*
X001977Y006770D01*
X002045Y006748D01*
X002100Y006739D01*
X002100Y007437D01*
X002200Y007437D01*
X002200Y007537D01*
X002600Y007537D01*
X002600Y007822D01*
X002589Y007892D01*
X002567Y007959D01*
X002535Y008023D01*
X002493Y008080D01*
X002443Y008130D01*
X002386Y008172D01*
X002500Y008071D02*
X002855Y008071D01*
X002783Y007973D02*
X002560Y007973D01*
X002592Y007874D02*
X002742Y007874D01*
X002740Y007776D02*
X002600Y007776D01*
X002600Y007677D02*
X002740Y007677D01*
X002740Y007579D02*
X002600Y007579D01*
X002600Y007437D02*
X002200Y007437D01*
X002200Y006739D01*
X002255Y006748D01*
X002323Y006770D01*
X002386Y006802D01*
X002443Y006843D01*
X002493Y006894D01*
X002535Y006951D01*
X002567Y007014D01*
X002589Y007081D01*
X002600Y007151D01*
X002600Y007437D01*
X002600Y007382D02*
X002740Y007382D01*
X002740Y007480D02*
X002200Y007480D01*
X002200Y007382D02*
X002100Y007382D01*
X002100Y007480D02*
X000300Y007480D01*
X000300Y007382D02*
X001700Y007382D01*
X001700Y007283D02*
X000300Y007283D01*
X000300Y007185D02*
X001700Y007185D01*
X001710Y007086D02*
X000300Y007086D01*
X000300Y006988D02*
X001746Y006988D01*
X001811Y006889D02*
X000300Y006889D01*
X000300Y006791D02*
X001936Y006791D01*
X001977Y006704D02*
X001914Y006672D01*
X001857Y006630D01*
X001807Y006580D01*
X001765Y006523D01*
X001733Y006459D01*
X001711Y006392D01*
X001700Y006322D01*
X001700Y006037D01*
X002100Y006037D01*
X002100Y006734D01*
X002045Y006726D01*
X001977Y006704D01*
X001955Y006692D02*
X000300Y006692D01*
X000300Y006594D02*
X001821Y006594D01*
X001751Y006495D02*
X000300Y006495D01*
X000300Y006397D02*
X001713Y006397D01*
X001700Y006298D02*
X000300Y006298D01*
X000300Y006200D02*
X001700Y006200D01*
X001700Y006101D02*
X000300Y006101D01*
X000300Y006003D02*
X002100Y006003D01*
X002100Y006037D02*
X002100Y005937D01*
X001700Y005937D01*
X001700Y005651D01*
X001711Y005581D01*
X001733Y005514D01*
X001765Y005451D01*
X001807Y005394D01*
X001857Y005343D01*
X001914Y005302D01*
X001977Y005270D01*
X002045Y005248D01*
X002100Y005239D01*
X002100Y005937D01*
X002200Y005937D01*
X002200Y006037D01*
X002100Y006037D01*
X002100Y006101D02*
X002200Y006101D01*
X002200Y006037D02*
X002200Y006734D01*
X002255Y006726D01*
X002323Y006704D01*
X002386Y006672D01*
X002443Y006630D01*
X002493Y006580D01*
X002535Y006523D01*
X002567Y006459D01*
X002589Y006392D01*
X002600Y006322D01*
X002600Y006037D01*
X002200Y006037D01*
X002200Y006003D02*
X002740Y006003D01*
X002740Y006101D02*
X002600Y006101D01*
X002600Y006200D02*
X002740Y006200D01*
X002740Y006298D02*
X002600Y006298D01*
X002587Y006397D02*
X002752Y006397D01*
X002740Y006368D02*
X002740Y005605D01*
X002802Y005454D01*
X002918Y005339D01*
X003068Y005277D01*
X003232Y005277D01*
X003382Y005339D01*
X003498Y005454D01*
X003560Y005605D01*
X003560Y006368D01*
X003498Y006519D01*
X003382Y006634D01*
X003232Y006697D01*
X003068Y006697D01*
X002918Y006634D01*
X002802Y006519D01*
X002740Y006368D01*
X002793Y006495D02*
X002549Y006495D01*
X002479Y006594D02*
X002877Y006594D01*
X003058Y006692D02*
X002345Y006692D01*
X002364Y006791D02*
X003035Y006791D01*
X002868Y006889D02*
X002489Y006889D01*
X002554Y006988D02*
X002789Y006988D01*
X002748Y007086D02*
X002590Y007086D01*
X002600Y007185D02*
X002740Y007185D01*
X002740Y007283D02*
X002600Y007283D01*
X002200Y007283D02*
X002100Y007283D01*
X002100Y007185D02*
X002200Y007185D01*
X002200Y007086D02*
X002100Y007086D01*
X002100Y006988D02*
X002200Y006988D01*
X002200Y006889D02*
X002100Y006889D01*
X002100Y006791D02*
X002200Y006791D01*
X002200Y006692D02*
X002100Y006692D01*
X002100Y006594D02*
X002200Y006594D01*
X002200Y006495D02*
X002100Y006495D01*
X002100Y006397D02*
X002200Y006397D01*
X002200Y006298D02*
X002100Y006298D01*
X002100Y006200D02*
X002200Y006200D01*
X002200Y005937D02*
X002600Y005937D01*
X002600Y005651D01*
X002589Y005581D01*
X002567Y005514D01*
X002535Y005451D01*
X002493Y005394D01*
X002443Y005343D01*
X002386Y005302D01*
X002323Y005270D01*
X002255Y005248D01*
X002200Y005239D01*
X002200Y005937D01*
X002200Y005904D02*
X002100Y005904D01*
X002100Y005806D02*
X002200Y005806D01*
X002200Y005707D02*
X002100Y005707D01*
X002100Y005609D02*
X002200Y005609D01*
X002200Y005510D02*
X002100Y005510D01*
X002100Y005412D02*
X002200Y005412D01*
X002200Y005313D02*
X002100Y005313D01*
X001898Y005313D02*
X000300Y005313D01*
X000300Y005215D02*
X011402Y005215D01*
X011320Y005313D02*
X011500Y005313D01*
X011455Y005412D02*
X011599Y005412D01*
X011521Y005510D02*
X011697Y005510D01*
X011796Y005609D02*
X011560Y005609D01*
X011560Y005707D02*
X011894Y005707D01*
X011993Y005806D02*
X011560Y005806D01*
X011560Y005904D02*
X012091Y005904D01*
X012190Y006003D02*
X011560Y006003D01*
X011560Y006101D02*
X012288Y006101D01*
X012387Y006200D02*
X011560Y006200D01*
X011560Y006298D02*
X012485Y006298D01*
X012584Y006397D02*
X011548Y006397D01*
X011507Y006495D02*
X012682Y006495D01*
X012781Y006594D02*
X011423Y006594D01*
X010877Y006594D02*
X010423Y006594D01*
X010507Y006495D02*
X010793Y006495D01*
X010752Y006397D02*
X010548Y006397D01*
X010560Y006298D02*
X010740Y006298D01*
X010740Y006200D02*
X010560Y006200D01*
X010560Y006101D02*
X010740Y006101D01*
X010740Y006003D02*
X010560Y006003D01*
X010560Y005904D02*
X010740Y005904D01*
X010740Y005806D02*
X010560Y005806D01*
X010560Y005707D02*
X010740Y005707D01*
X010740Y005609D02*
X010560Y005609D01*
X010521Y005510D02*
X010779Y005510D01*
X010845Y005412D02*
X010455Y005412D01*
X010320Y005313D02*
X010980Y005313D01*
X011205Y005018D02*
X000300Y005018D01*
X000300Y005116D02*
X011303Y005116D01*
X011106Y004919D02*
X000300Y004919D01*
X000300Y004821D02*
X011008Y004821D01*
X010909Y004722D02*
X000300Y004722D01*
X000300Y004624D02*
X010811Y004624D01*
X010712Y004525D02*
X000300Y004525D01*
X000300Y004427D02*
X010614Y004427D01*
X010650Y004237D02*
X004900Y004237D01*
X002150Y001487D01*
X002560Y001472D02*
X002740Y001472D01*
X002740Y001570D02*
X002560Y001570D01*
X002560Y001669D02*
X002740Y001669D01*
X002740Y001767D02*
X002657Y001767D01*
X002500Y002063D02*
X002454Y002063D01*
X002317Y002161D02*
X002598Y002161D01*
X002697Y002260D02*
X000300Y002260D01*
X000300Y002358D02*
X002795Y002358D01*
X002894Y002457D02*
X000300Y002457D01*
X000300Y002555D02*
X002992Y002555D01*
X003091Y002654D02*
X000300Y002654D01*
X000300Y002752D02*
X003189Y002752D01*
X003288Y002851D02*
X000300Y002851D01*
X000300Y002949D02*
X003386Y002949D01*
X003485Y003048D02*
X000300Y003048D01*
X000300Y003146D02*
X003583Y003146D01*
X003682Y003245D02*
X000300Y003245D01*
X000300Y003343D02*
X003780Y003343D01*
X003879Y003442D02*
X000300Y003442D01*
X000300Y003540D02*
X003977Y003540D01*
X004076Y003639D02*
X000300Y003639D01*
X000300Y003737D02*
X004174Y003737D01*
X004273Y003836D02*
X000300Y003836D01*
X000300Y003934D02*
X004371Y003934D01*
X004470Y004033D02*
X000300Y004033D01*
X000300Y004131D02*
X004568Y004131D01*
X004667Y004230D02*
X000300Y004230D01*
X000300Y004328D02*
X004765Y004328D01*
X005650Y003987D02*
X003150Y001487D01*
X003560Y001472D02*
X003740Y001472D01*
X003740Y001570D02*
X003560Y001570D01*
X003560Y001669D02*
X003740Y001669D01*
X003740Y001767D02*
X003657Y001767D01*
X003740Y001373D02*
X003560Y001373D01*
X003560Y001275D02*
X003740Y001275D01*
X003740Y001176D02*
X003560Y001176D01*
X003549Y001078D02*
X003751Y001078D01*
X003792Y000979D02*
X003508Y000979D01*
X003424Y000881D02*
X003876Y000881D01*
X004055Y000782D02*
X003245Y000782D01*
X003055Y000782D02*
X002245Y000782D01*
X002055Y000782D02*
X000300Y000782D01*
X000300Y000684D02*
X012900Y000684D01*
X012900Y000782D02*
X011245Y000782D01*
X011055Y000782D02*
X010245Y000782D01*
X010055Y000782D02*
X009245Y000782D01*
X009055Y000782D02*
X008245Y000782D01*
X008424Y000881D02*
X008876Y000881D01*
X008792Y000979D02*
X008508Y000979D01*
X008549Y001078D02*
X008751Y001078D01*
X008740Y001176D02*
X008560Y001176D01*
X008560Y001275D02*
X008740Y001275D01*
X008740Y001373D02*
X008560Y001373D01*
X008560Y001472D02*
X008740Y001472D01*
X008740Y001570D02*
X008560Y001570D01*
X008560Y001669D02*
X008740Y001669D01*
X008740Y001767D02*
X008657Y001767D01*
X009150Y001487D02*
X010150Y002487D01*
X012400Y002487D01*
X012900Y002987D01*
X014450Y002987D01*
X014450Y003487D02*
X012900Y003487D01*
X012150Y002737D01*
X009400Y002737D01*
X008150Y001487D01*
X007740Y001472D02*
X007560Y001472D01*
X007560Y001570D02*
X007740Y001570D01*
X007740Y001669D02*
X007560Y001669D01*
X007657Y001767D02*
X007740Y001767D01*
X007740Y001373D02*
X007560Y001373D01*
X007560Y001275D02*
X007740Y001275D01*
X007740Y001176D02*
X007560Y001176D01*
X007549Y001078D02*
X007751Y001078D01*
X007792Y000979D02*
X007508Y000979D01*
X007424Y000881D02*
X007876Y000881D01*
X008055Y000782D02*
X007245Y000782D01*
X007055Y000782D02*
X006245Y000782D01*
X006055Y000782D02*
X005245Y000782D01*
X005055Y000782D02*
X004245Y000782D01*
X004424Y000881D02*
X004876Y000881D01*
X004792Y000979D02*
X004508Y000979D01*
X004549Y001078D02*
X004751Y001078D01*
X004740Y001176D02*
X004560Y001176D01*
X004560Y001275D02*
X004740Y001275D01*
X004740Y001373D02*
X004560Y001373D01*
X004560Y001472D02*
X004740Y001472D01*
X004740Y001570D02*
X004560Y001570D01*
X004560Y001669D02*
X004740Y001669D01*
X004740Y001767D02*
X004657Y001767D01*
X005150Y001487D02*
X007150Y003487D01*
X011400Y003487D01*
X012900Y004987D01*
X014450Y004987D01*
X014450Y005487D02*
X012900Y005487D01*
X011150Y003737D01*
X006400Y003737D01*
X004150Y001487D01*
X005424Y000881D02*
X005876Y000881D01*
X005792Y000979D02*
X005508Y000979D01*
X005549Y001078D02*
X005751Y001078D01*
X005740Y001176D02*
X005560Y001176D01*
X005560Y001275D02*
X005740Y001275D01*
X005740Y001373D02*
X005560Y001373D01*
X005560Y001472D02*
X005740Y001472D01*
X005740Y001570D02*
X005560Y001570D01*
X005560Y001669D02*
X005740Y001669D01*
X005740Y001767D02*
X005657Y001767D01*
X006150Y001487D02*
X007900Y003237D01*
X011650Y003237D01*
X012900Y004487D01*
X014450Y004487D01*
X014450Y003987D02*
X012900Y003987D01*
X011900Y002987D01*
X008650Y002987D01*
X007150Y001487D01*
X006740Y001472D02*
X006560Y001472D01*
X006560Y001570D02*
X006740Y001570D01*
X006740Y001669D02*
X006560Y001669D01*
X006657Y001767D02*
X006740Y001767D01*
X006740Y001373D02*
X006560Y001373D01*
X006560Y001275D02*
X006740Y001275D01*
X006740Y001176D02*
X006560Y001176D01*
X006549Y001078D02*
X006751Y001078D01*
X006792Y000979D02*
X006508Y000979D01*
X006424Y000881D02*
X006876Y000881D01*
X009424Y000881D02*
X009876Y000881D01*
X009792Y000979D02*
X009508Y000979D01*
X009549Y001078D02*
X009751Y001078D01*
X009740Y001176D02*
X009560Y001176D01*
X009560Y001275D02*
X009740Y001275D01*
X009740Y001373D02*
X009560Y001373D01*
X009560Y001472D02*
X009740Y001472D01*
X009740Y001570D02*
X009560Y001570D01*
X009560Y001669D02*
X009740Y001669D01*
X009740Y001767D02*
X009657Y001767D01*
X010150Y001487D02*
X010900Y002237D01*
X012650Y002237D01*
X012900Y002487D01*
X014450Y002487D01*
X014650Y001987D02*
X011650Y001987D01*
X011150Y001487D01*
X010740Y001472D02*
X010560Y001472D01*
X010560Y001570D02*
X010740Y001570D01*
X010740Y001669D02*
X010560Y001669D01*
X010657Y001767D02*
X010740Y001767D01*
X010740Y001373D02*
X010560Y001373D01*
X010560Y001275D02*
X010740Y001275D01*
X010740Y001176D02*
X010560Y001176D01*
X010549Y001078D02*
X010751Y001078D01*
X010792Y000979D02*
X010508Y000979D01*
X010424Y000881D02*
X010876Y000881D01*
X011424Y000881D02*
X012900Y000881D01*
X012900Y000979D02*
X011508Y000979D01*
X011549Y001078D02*
X012900Y001078D01*
X012900Y001176D02*
X011560Y001176D01*
X011560Y001275D02*
X012900Y001275D01*
X012900Y001373D02*
X011560Y001373D01*
X011560Y001472D02*
X012900Y001472D01*
X012900Y001570D02*
X011560Y001570D01*
X011560Y001669D02*
X012900Y001669D01*
X012900Y001767D02*
X011657Y001767D01*
X010900Y003987D02*
X005650Y003987D01*
X006068Y005277D02*
X005918Y005339D01*
X005802Y005454D01*
X005740Y005605D01*
X005740Y006368D01*
X005802Y006519D01*
X005918Y006634D01*
X006068Y006697D01*
X006232Y006697D01*
X006382Y006634D01*
X006498Y006519D01*
X006560Y006368D01*
X006560Y005605D01*
X006498Y005454D01*
X006382Y005339D01*
X006232Y005277D01*
X006068Y005277D01*
X005980Y005313D02*
X005320Y005313D01*
X005382Y005339D02*
X005498Y005454D01*
X005560Y005605D01*
X005560Y006368D01*
X005498Y006519D01*
X005382Y006634D01*
X005232Y006697D01*
X005068Y006697D01*
X004918Y006634D01*
X004802Y006519D01*
X004740Y006368D01*
X004740Y005605D01*
X004802Y005454D01*
X004918Y005339D01*
X005068Y005277D01*
X005232Y005277D01*
X005382Y005339D01*
X005455Y005412D02*
X005845Y005412D01*
X005779Y005510D02*
X005521Y005510D01*
X005560Y005609D02*
X005740Y005609D01*
X005740Y005707D02*
X005560Y005707D01*
X005560Y005806D02*
X005740Y005806D01*
X005740Y005904D02*
X005560Y005904D01*
X005560Y006003D02*
X005740Y006003D01*
X005740Y006101D02*
X005560Y006101D01*
X005560Y006200D02*
X005740Y006200D01*
X005740Y006298D02*
X005560Y006298D01*
X005548Y006397D02*
X005752Y006397D01*
X005793Y006495D02*
X005507Y006495D01*
X005423Y006594D02*
X005877Y006594D01*
X006058Y006692D02*
X005242Y006692D01*
X005265Y006791D02*
X006035Y006791D01*
X006068Y006777D02*
X006232Y006777D01*
X006382Y006839D01*
X006498Y006954D01*
X006560Y007105D01*
X006560Y007868D01*
X006498Y008019D01*
X006382Y008134D01*
X006232Y008197D01*
X006068Y008197D01*
X005918Y008134D01*
X005802Y008019D01*
X005740Y007868D01*
X005740Y007105D01*
X005802Y006954D01*
X005918Y006839D01*
X006068Y006777D01*
X006242Y006692D02*
X007058Y006692D01*
X007068Y006697D02*
X006918Y006634D01*
X006802Y006519D01*
X006740Y006368D01*
X006740Y005605D01*
X006802Y005454D01*
X006918Y005339D01*
X007068Y005277D01*
X007232Y005277D01*
X007382Y005339D01*
X007498Y005454D01*
X007560Y005605D01*
X007560Y006368D01*
X007498Y006519D01*
X007382Y006634D01*
X007232Y006697D01*
X007068Y006697D01*
X007068Y006777D02*
X007232Y006777D01*
X007382Y006839D01*
X007498Y006954D01*
X007560Y007105D01*
X007560Y007868D01*
X007498Y008019D01*
X007382Y008134D01*
X007232Y008197D01*
X007068Y008197D01*
X006918Y008134D01*
X006802Y008019D01*
X006740Y007868D01*
X006740Y007105D01*
X006802Y006954D01*
X006918Y006839D01*
X007068Y006777D01*
X007035Y006791D02*
X006265Y006791D01*
X006432Y006889D02*
X006868Y006889D01*
X006789Y006988D02*
X006511Y006988D01*
X006552Y007086D02*
X006748Y007086D01*
X006740Y007185D02*
X006560Y007185D01*
X006560Y007283D02*
X006740Y007283D01*
X006740Y007382D02*
X006560Y007382D01*
X006560Y007480D02*
X006740Y007480D01*
X006740Y007579D02*
X006560Y007579D01*
X006560Y007677D02*
X006740Y007677D01*
X006740Y007776D02*
X006560Y007776D01*
X006558Y007874D02*
X006742Y007874D01*
X006783Y007973D02*
X006517Y007973D01*
X006445Y008071D02*
X006855Y008071D01*
X007003Y008170D02*
X006297Y008170D01*
X006003Y008170D02*
X005297Y008170D01*
X005445Y008071D02*
X005855Y008071D01*
X005783Y007973D02*
X005517Y007973D01*
X005558Y007874D02*
X005742Y007874D01*
X005740Y007776D02*
X005560Y007776D01*
X005560Y007677D02*
X005740Y007677D01*
X005740Y007579D02*
X005560Y007579D01*
X005560Y007480D02*
X005740Y007480D01*
X005740Y007382D02*
X005560Y007382D01*
X005560Y007283D02*
X005740Y007283D01*
X005740Y007185D02*
X005560Y007185D01*
X005552Y007086D02*
X005748Y007086D01*
X005789Y006988D02*
X005511Y006988D01*
X005432Y006889D02*
X005868Y006889D01*
X006423Y006594D02*
X006877Y006594D01*
X006793Y006495D02*
X006507Y006495D01*
X006548Y006397D02*
X006752Y006397D01*
X006740Y006298D02*
X006560Y006298D01*
X006560Y006200D02*
X006740Y006200D01*
X006740Y006101D02*
X006560Y006101D01*
X006560Y006003D02*
X006740Y006003D01*
X006740Y005904D02*
X006560Y005904D01*
X006560Y005806D02*
X006740Y005806D01*
X006740Y005707D02*
X006560Y005707D01*
X006560Y005609D02*
X006740Y005609D01*
X006779Y005510D02*
X006521Y005510D01*
X006455Y005412D02*
X006845Y005412D01*
X006980Y005313D02*
X006320Y005313D01*
X007320Y005313D02*
X007980Y005313D01*
X007918Y005339D02*
X008068Y005277D01*
X008232Y005277D01*
X008382Y005339D01*
X008498Y005454D01*
X008560Y005605D01*
X008560Y006368D01*
X008498Y006519D01*
X008382Y006634D01*
X008232Y006697D01*
X008068Y006697D01*
X007918Y006634D01*
X007802Y006519D01*
X007740Y006368D01*
X007740Y005605D01*
X007802Y005454D01*
X007918Y005339D01*
X007845Y005412D02*
X007455Y005412D01*
X007521Y005510D02*
X007779Y005510D01*
X007740Y005609D02*
X007560Y005609D01*
X007560Y005707D02*
X007740Y005707D01*
X007740Y005806D02*
X007560Y005806D01*
X007560Y005904D02*
X007740Y005904D01*
X007740Y006003D02*
X007560Y006003D01*
X007560Y006101D02*
X007740Y006101D01*
X007740Y006200D02*
X007560Y006200D01*
X007560Y006298D02*
X007740Y006298D01*
X007752Y006397D02*
X007548Y006397D01*
X007507Y006495D02*
X007793Y006495D01*
X007877Y006594D02*
X007423Y006594D01*
X007242Y006692D02*
X008058Y006692D01*
X008068Y006777D02*
X007918Y006839D01*
X007802Y006954D01*
X007740Y007105D01*
X007740Y007868D01*
X007802Y008019D01*
X007918Y008134D01*
X008068Y008197D01*
X008232Y008197D01*
X008382Y008134D01*
X008498Y008019D01*
X008560Y007868D01*
X008560Y007105D01*
X008498Y006954D01*
X008382Y006839D01*
X008232Y006777D01*
X008068Y006777D01*
X008035Y006791D02*
X007265Y006791D01*
X007432Y006889D02*
X007868Y006889D01*
X007789Y006988D02*
X007511Y006988D01*
X007552Y007086D02*
X007748Y007086D01*
X007740Y007185D02*
X007560Y007185D01*
X007560Y007283D02*
X007740Y007283D01*
X007740Y007382D02*
X007560Y007382D01*
X007560Y007480D02*
X007740Y007480D01*
X007740Y007579D02*
X007560Y007579D01*
X007560Y007677D02*
X007740Y007677D01*
X007740Y007776D02*
X007560Y007776D01*
X007558Y007874D02*
X007742Y007874D01*
X007783Y007973D02*
X007517Y007973D01*
X007445Y008071D02*
X007855Y008071D01*
X008003Y008170D02*
X007297Y008170D01*
X008297Y008170D02*
X009003Y008170D01*
X009068Y008197D02*
X008918Y008134D01*
X008802Y008019D01*
X008740Y007868D01*
X008740Y007105D01*
X008802Y006954D01*
X008918Y006839D01*
X009068Y006777D01*
X009232Y006777D01*
X009382Y006839D01*
X009498Y006954D01*
X009560Y007105D01*
X009560Y007868D01*
X009498Y008019D01*
X009382Y008134D01*
X009232Y008197D01*
X009068Y008197D01*
X009297Y008170D02*
X010003Y008170D01*
X009855Y008071D02*
X009445Y008071D01*
X009517Y007973D02*
X009783Y007973D01*
X009742Y007874D02*
X009558Y007874D01*
X009560Y007776D02*
X009740Y007776D01*
X009740Y007677D02*
X009560Y007677D01*
X009560Y007579D02*
X009740Y007579D01*
X009740Y007480D02*
X009560Y007480D01*
X009560Y007382D02*
X009740Y007382D01*
X009740Y007283D02*
X009560Y007283D01*
X009560Y007185D02*
X009740Y007185D01*
X009748Y007086D02*
X009552Y007086D01*
X009511Y006988D02*
X009789Y006988D01*
X009868Y006889D02*
X009432Y006889D01*
X009265Y006791D02*
X010035Y006791D01*
X010058Y006692D02*
X009242Y006692D01*
X009232Y006697D02*
X009068Y006697D01*
X008918Y006634D01*
X008802Y006519D01*
X008740Y006368D01*
X008740Y005605D01*
X008802Y005454D01*
X008918Y005339D01*
X009068Y005277D01*
X009232Y005277D01*
X009382Y005339D01*
X009498Y005454D01*
X009560Y005605D01*
X009560Y006368D01*
X009498Y006519D01*
X009382Y006634D01*
X009232Y006697D01*
X009058Y006692D02*
X008242Y006692D01*
X008265Y006791D02*
X009035Y006791D01*
X008868Y006889D02*
X008432Y006889D01*
X008511Y006988D02*
X008789Y006988D01*
X008748Y007086D02*
X008552Y007086D01*
X008560Y007185D02*
X008740Y007185D01*
X008740Y007283D02*
X008560Y007283D01*
X008560Y007382D02*
X008740Y007382D01*
X008740Y007480D02*
X008560Y007480D01*
X008560Y007579D02*
X008740Y007579D01*
X008740Y007677D02*
X008560Y007677D01*
X008560Y007776D02*
X008740Y007776D01*
X008742Y007874D02*
X008558Y007874D01*
X008517Y007973D02*
X008783Y007973D01*
X008855Y008071D02*
X008445Y008071D01*
X008423Y006594D02*
X008877Y006594D01*
X008793Y006495D02*
X008507Y006495D01*
X008548Y006397D02*
X008752Y006397D01*
X008740Y006298D02*
X008560Y006298D01*
X008560Y006200D02*
X008740Y006200D01*
X008740Y006101D02*
X008560Y006101D01*
X008560Y006003D02*
X008740Y006003D01*
X008740Y005904D02*
X008560Y005904D01*
X008560Y005806D02*
X008740Y005806D01*
X008740Y005707D02*
X008560Y005707D01*
X008560Y005609D02*
X008740Y005609D01*
X008779Y005510D02*
X008521Y005510D01*
X008455Y005412D02*
X008845Y005412D01*
X008980Y005313D02*
X008320Y005313D01*
X009320Y005313D02*
X009980Y005313D01*
X009845Y005412D02*
X009455Y005412D01*
X009521Y005510D02*
X009779Y005510D01*
X009740Y005609D02*
X009560Y005609D01*
X009560Y005707D02*
X009740Y005707D01*
X009740Y005806D02*
X009560Y005806D01*
X009560Y005904D02*
X009740Y005904D01*
X009740Y006003D02*
X009560Y006003D01*
X009560Y006101D02*
X009740Y006101D01*
X009740Y006200D02*
X009560Y006200D01*
X009560Y006298D02*
X009740Y006298D01*
X009752Y006397D02*
X009548Y006397D01*
X009507Y006495D02*
X009793Y006495D01*
X009877Y006594D02*
X009423Y006594D01*
X010650Y004237D02*
X012900Y006487D01*
X014450Y006487D01*
X014450Y006987D02*
X012900Y006987D01*
X010650Y009237D01*
X011647Y011716D02*
X012900Y011716D01*
X012900Y011814D02*
X011560Y011814D01*
X011560Y011913D02*
X012900Y011913D01*
X012900Y012011D02*
X011560Y012011D01*
X011560Y012110D02*
X012900Y012110D01*
X012900Y012208D02*
X011560Y012208D01*
X011560Y012307D02*
X012900Y012307D01*
X012900Y012405D02*
X011545Y012405D01*
X011504Y012504D02*
X012900Y012504D01*
X012900Y012602D02*
X011414Y012602D01*
X004855Y008071D02*
X004445Y008071D01*
X004517Y007973D02*
X004783Y007973D01*
X004742Y007874D02*
X004558Y007874D01*
X004560Y007776D02*
X004740Y007776D01*
X004740Y007677D02*
X004560Y007677D01*
X004560Y007579D02*
X004740Y007579D01*
X004740Y007480D02*
X004560Y007480D01*
X004560Y007382D02*
X004740Y007382D01*
X004740Y007283D02*
X004560Y007283D01*
X004560Y007185D02*
X004740Y007185D01*
X004748Y007086D02*
X004552Y007086D01*
X004511Y006988D02*
X004789Y006988D01*
X004868Y006889D02*
X004432Y006889D01*
X004265Y006791D02*
X005035Y006791D01*
X005058Y006692D02*
X004242Y006692D01*
X004232Y006697D02*
X004068Y006697D01*
X003918Y006634D01*
X003802Y006519D01*
X003740Y006368D01*
X003740Y005605D01*
X003802Y005454D01*
X003918Y005339D01*
X004068Y005277D01*
X004232Y005277D01*
X004382Y005339D01*
X004498Y005454D01*
X004560Y005605D01*
X004560Y006368D01*
X004498Y006519D01*
X004382Y006634D01*
X004232Y006697D01*
X004058Y006692D02*
X003242Y006692D01*
X003265Y006791D02*
X004035Y006791D01*
X003868Y006889D02*
X003432Y006889D01*
X003511Y006988D02*
X003789Y006988D01*
X003748Y007086D02*
X003552Y007086D01*
X003560Y007185D02*
X003740Y007185D01*
X003740Y007283D02*
X003560Y007283D01*
X003560Y007382D02*
X003740Y007382D01*
X003740Y007480D02*
X003560Y007480D01*
X003560Y007579D02*
X003740Y007579D01*
X003740Y007677D02*
X003560Y007677D01*
X003560Y007776D02*
X003740Y007776D01*
X003742Y007874D02*
X003558Y007874D01*
X003517Y007973D02*
X003783Y007973D01*
X003855Y008071D02*
X003445Y008071D01*
X002200Y008071D02*
X002100Y008071D01*
X002100Y007973D02*
X002200Y007973D01*
X002200Y007874D02*
X002100Y007874D01*
X002100Y007776D02*
X002200Y007776D01*
X002200Y007677D02*
X002100Y007677D01*
X002100Y007579D02*
X002200Y007579D01*
X001700Y007579D02*
X000300Y007579D01*
X000300Y007677D02*
X001700Y007677D01*
X001700Y007776D02*
X000300Y007776D01*
X000300Y007874D02*
X001708Y007874D01*
X001740Y007973D02*
X000300Y007973D01*
X000300Y008071D02*
X001800Y008071D01*
X001912Y008170D02*
X000300Y008170D01*
X002100Y008170D02*
X002200Y008170D01*
X003423Y006594D02*
X003877Y006594D01*
X003793Y006495D02*
X003507Y006495D01*
X003548Y006397D02*
X003752Y006397D01*
X003740Y006298D02*
X003560Y006298D01*
X003560Y006200D02*
X003740Y006200D01*
X003740Y006101D02*
X003560Y006101D01*
X003560Y006003D02*
X003740Y006003D01*
X003740Y005904D02*
X003560Y005904D01*
X003560Y005806D02*
X003740Y005806D01*
X003740Y005707D02*
X003560Y005707D01*
X003560Y005609D02*
X003740Y005609D01*
X003779Y005510D02*
X003521Y005510D01*
X003455Y005412D02*
X003845Y005412D01*
X003980Y005313D02*
X003320Y005313D01*
X002980Y005313D02*
X002402Y005313D01*
X002506Y005412D02*
X002845Y005412D01*
X002779Y005510D02*
X002565Y005510D01*
X002593Y005609D02*
X002740Y005609D01*
X002740Y005707D02*
X002600Y005707D01*
X002600Y005806D02*
X002740Y005806D01*
X002740Y005904D02*
X002600Y005904D01*
X001700Y005904D02*
X000300Y005904D01*
X000300Y005806D02*
X001700Y005806D01*
X001700Y005707D02*
X000300Y005707D01*
X000300Y005609D02*
X001707Y005609D01*
X001735Y005510D02*
X000300Y005510D01*
X000300Y005412D02*
X001794Y005412D01*
X004320Y005313D02*
X004980Y005313D01*
X004845Y005412D02*
X004455Y005412D01*
X004521Y005510D02*
X004779Y005510D01*
X004740Y005609D02*
X004560Y005609D01*
X004560Y005707D02*
X004740Y005707D01*
X004740Y005806D02*
X004560Y005806D01*
X004560Y005904D02*
X004740Y005904D01*
X004740Y006003D02*
X004560Y006003D01*
X004560Y006101D02*
X004740Y006101D01*
X004740Y006200D02*
X004560Y006200D01*
X004560Y006298D02*
X004740Y006298D01*
X004752Y006397D02*
X004548Y006397D01*
X004507Y006495D02*
X004793Y006495D01*
X004877Y006594D02*
X004423Y006594D01*
X001983Y002161D02*
X000300Y002161D01*
X000300Y002063D02*
X001846Y002063D01*
X001780Y001964D02*
X000300Y001964D01*
X000300Y001866D02*
X001740Y001866D01*
X001740Y001767D02*
X000300Y001767D01*
X000300Y001669D02*
X001740Y001669D01*
X001740Y001570D02*
X000300Y001570D01*
X000300Y001472D02*
X001740Y001472D01*
X001740Y001373D02*
X000300Y001373D01*
X000300Y001275D02*
X001740Y001275D01*
X001740Y001176D02*
X000300Y001176D01*
X000300Y001078D02*
X001751Y001078D01*
X001792Y000979D02*
X000300Y000979D01*
X000300Y000881D02*
X001876Y000881D01*
X002424Y000881D02*
X002876Y000881D01*
X002792Y000979D02*
X002508Y000979D01*
X002549Y001078D02*
X002751Y001078D01*
X002740Y001176D02*
X002560Y001176D01*
X002560Y001275D02*
X002740Y001275D01*
X002740Y001373D02*
X002560Y001373D01*
X010900Y003987D02*
X012900Y005987D01*
X014450Y005987D01*
D15*
X012400Y001237D03*
X000900Y001237D03*
X000900Y001987D03*
X000900Y005987D03*
X000900Y007487D03*
X000900Y011487D03*
X000900Y012237D03*
X012400Y012237D03*
M02*
