%
M48
M72
T01C0.0197
T02C0.0400
%
T01
X900Y12237
X900Y11487
X900Y7487
X900Y5987
X900Y1987
X900Y1237
X12400Y1237
X12400Y12237
T02
X2150Y11987
X3150Y11987
X4150Y11987
X5150Y11987
X6150Y11987
X7150Y11987
X8150Y11987
X9150Y11987
X10150Y11987
X11150Y11987
X11150Y1487
X10150Y1487
X9150Y1487
X8150Y1487
X7150Y1487
X6150Y1487
X5150Y1487
X4150Y1487
X3150Y1487
X2150Y1487
X11150Y5987
X10150Y5987
X9150Y5987
X8150Y5987
X7150Y5987
X6150Y5987
X5150Y5987
X4150Y5987
X3150Y5987
X2150Y5987
X2150Y7487
X3150Y7487
X4150Y7487
X5150Y7487
X6150Y7487
X7150Y7487
X8150Y7487
X9150Y7487
X10150Y7487
X11150Y7487
M30
