G75*
%MOIN*%
%OFA0B0*%
%FSLAX24Y24*%
%IPPOS*%
%LPD*%
%AMOC8*
5,1,8,0,0,1.08239X$1,22.5*
%
%ADD10C,0.0000*%
%ADD11C,0.0030*%
D10*
X000150Y000487D02*
X013050Y000487D01*
X013050Y001537D01*
X015650Y001537D01*
X015950Y001837D01*
X015950Y002237D01*
X015550Y002237D01*
X015550Y011237D01*
X015950Y011237D01*
X015950Y011637D01*
X015650Y011937D01*
X013050Y011937D01*
X013050Y012987D01*
X000150Y012987D01*
X000150Y000487D01*
D11*
X004157Y003752D02*
X004281Y003752D01*
X004342Y003813D01*
X004342Y003937D01*
X004281Y003999D01*
X004157Y003999D01*
X004096Y003937D01*
X004096Y003875D01*
X004342Y003875D01*
X004464Y003752D02*
X004649Y003752D01*
X004711Y003813D01*
X004711Y003937D01*
X004649Y003999D01*
X004464Y003999D01*
X004464Y004122D02*
X004464Y003752D01*
X004833Y003752D02*
X004895Y003752D01*
X004895Y003813D01*
X004833Y003813D01*
X004833Y003752D01*
X005017Y003999D02*
X005078Y003999D01*
X005202Y003875D01*
X005323Y003875D02*
X005323Y003937D01*
X005385Y003999D01*
X005508Y003999D01*
X005570Y003937D01*
X005570Y003813D01*
X005508Y003752D01*
X005385Y003752D01*
X005323Y003875D02*
X005570Y003875D01*
X005692Y003752D02*
X005877Y003752D01*
X005938Y003813D01*
X005938Y003937D01*
X005877Y003999D01*
X005692Y003999D01*
X005692Y004122D02*
X005692Y003752D01*
X006060Y003752D02*
X006060Y003937D01*
X006122Y003999D01*
X006245Y003999D01*
X006245Y003875D02*
X006060Y003875D01*
X006060Y003752D02*
X006245Y003752D01*
X006307Y003813D01*
X006245Y003875D01*
X006428Y003813D02*
X006490Y003752D01*
X006675Y003752D01*
X006675Y004122D01*
X006675Y003999D02*
X006490Y003999D01*
X006428Y003937D01*
X006428Y003813D01*
X006797Y003752D02*
X006921Y003752D01*
X006859Y003752D02*
X006859Y003999D01*
X006921Y003999D01*
X007042Y003937D02*
X007042Y003752D01*
X007227Y003752D01*
X007289Y003813D01*
X007227Y003875D01*
X007042Y003875D01*
X007042Y003937D02*
X007104Y003999D01*
X007227Y003999D01*
X007411Y003999D02*
X007596Y003875D01*
X007411Y003752D01*
X007596Y003752D02*
X007596Y004122D01*
X007901Y003999D02*
X007901Y003813D01*
X007963Y003752D01*
X008025Y003813D01*
X008087Y003752D01*
X008148Y003813D01*
X008148Y003999D01*
X008270Y003999D02*
X008270Y003813D01*
X008332Y003752D01*
X008393Y003813D01*
X008455Y003752D01*
X008517Y003813D01*
X008517Y003999D01*
X008638Y003999D02*
X008638Y003813D01*
X008700Y003752D01*
X008762Y003813D01*
X008823Y003752D01*
X008885Y003813D01*
X008885Y003999D01*
X007780Y003813D02*
X007780Y003752D01*
X007718Y003752D01*
X007718Y003813D01*
X007780Y003813D01*
X006859Y004122D02*
X006859Y004184D01*
X005202Y003999D02*
X005202Y003752D01*
X005282Y009502D02*
X005467Y009502D01*
X005529Y009563D01*
X005529Y009687D01*
X005467Y009749D01*
X005282Y009749D01*
X005282Y009872D02*
X005282Y009502D01*
X005651Y009749D02*
X005713Y009749D01*
X005836Y009625D01*
X005957Y009625D02*
X006143Y009625D01*
X006204Y009563D01*
X006143Y009502D01*
X005957Y009502D01*
X005957Y009687D01*
X006019Y009749D01*
X006143Y009749D01*
X006326Y009687D02*
X006387Y009749D01*
X006511Y009749D01*
X006573Y009687D01*
X006573Y009563D01*
X006511Y009502D01*
X006387Y009502D01*
X006326Y009563D01*
X006326Y009687D01*
X006694Y009749D02*
X006756Y009687D01*
X006941Y009687D01*
X006941Y009502D02*
X006941Y009872D01*
X006756Y009872D01*
X006694Y009810D01*
X006694Y009749D01*
X006756Y009687D02*
X006694Y009625D01*
X006694Y009563D01*
X006756Y009502D01*
X006941Y009502D01*
X007431Y009502D02*
X007493Y009563D01*
X007493Y009810D01*
X007555Y009749D02*
X007431Y009749D01*
X007676Y009749D02*
X007676Y009502D01*
X007861Y009502D01*
X007923Y009563D01*
X007923Y009749D01*
X008045Y009687D02*
X008106Y009749D01*
X008230Y009749D01*
X008291Y009687D01*
X008291Y009563D01*
X008230Y009502D01*
X008106Y009502D01*
X008045Y009563D01*
X008045Y009687D01*
X008413Y009749D02*
X008598Y009625D01*
X008413Y009502D01*
X008598Y009502D02*
X008598Y009872D01*
X008781Y009749D02*
X008720Y009687D01*
X008720Y009502D01*
X008905Y009502D01*
X008967Y009563D01*
X008905Y009625D01*
X008720Y009625D01*
X008781Y009749D02*
X008905Y009749D01*
X009088Y009687D02*
X009088Y009625D01*
X009335Y009625D01*
X009335Y009563D02*
X009335Y009687D01*
X009273Y009749D01*
X009150Y009749D01*
X009088Y009687D01*
X009150Y009502D02*
X009273Y009502D01*
X009335Y009563D01*
X009457Y009749D02*
X009518Y009749D01*
X009642Y009625D01*
X009763Y009625D02*
X009763Y009563D01*
X009825Y009502D01*
X010010Y009502D01*
X010010Y009872D01*
X009825Y009872D01*
X009763Y009810D01*
X009763Y009749D01*
X009825Y009687D01*
X010010Y009687D01*
X009825Y009687D02*
X009763Y009625D01*
X009642Y009502D02*
X009642Y009749D01*
X009642Y010102D02*
X009642Y010472D01*
X009763Y010410D02*
X009825Y010472D01*
X009948Y010472D01*
X010010Y010410D01*
X010010Y010349D01*
X009948Y010287D01*
X009825Y010287D01*
X009763Y010225D01*
X009763Y010163D01*
X009825Y010102D01*
X009948Y010102D01*
X010010Y010163D01*
X009642Y010287D02*
X009395Y010287D01*
X009274Y010287D02*
X009027Y010287D01*
X009027Y010349D02*
X009027Y010102D01*
X008905Y010102D02*
X008905Y010472D01*
X008720Y010472D01*
X008658Y010410D01*
X008658Y010287D01*
X008720Y010225D01*
X008905Y010225D01*
X008782Y010225D02*
X008658Y010102D01*
X008537Y010102D02*
X008537Y010472D01*
X008352Y010472D01*
X008290Y010410D01*
X008290Y010287D01*
X008352Y010225D01*
X008537Y010225D01*
X009027Y010349D02*
X009150Y010472D01*
X009274Y010349D01*
X009274Y010102D01*
X009395Y010102D02*
X009395Y010472D01*
X007800Y010472D02*
X007800Y010102D01*
X007800Y010225D02*
X007615Y010225D01*
X007553Y010287D01*
X007553Y010410D01*
X007615Y010472D01*
X007800Y010472D01*
X007432Y010410D02*
X007432Y010163D01*
X007370Y010102D01*
X007247Y010102D01*
X007185Y010163D01*
X007064Y010287D02*
X006817Y010287D01*
X006695Y010349D02*
X006572Y010472D01*
X006572Y010102D01*
X006695Y010102D02*
X006449Y010102D01*
X006327Y010163D02*
X006265Y010102D01*
X006142Y010102D01*
X006080Y010163D01*
X006080Y010287D01*
X006142Y010349D01*
X006204Y010349D01*
X006327Y010287D01*
X006327Y010472D01*
X006080Y010472D01*
X005959Y010410D02*
X005897Y010472D01*
X005774Y010472D01*
X005712Y010410D01*
X005959Y010163D01*
X005897Y010102D01*
X005774Y010102D01*
X005712Y010163D01*
X005712Y010410D01*
X005590Y010410D02*
X005529Y010472D01*
X005405Y010472D01*
X005344Y010410D01*
X005590Y010163D01*
X005529Y010102D01*
X005405Y010102D01*
X005344Y010163D01*
X005344Y010410D01*
X005222Y010349D02*
X005099Y010472D01*
X004977Y010349D02*
X004853Y010472D01*
X004730Y010349D01*
X004730Y010102D01*
X004608Y010102D02*
X004485Y010225D01*
X004485Y010349D01*
X004608Y010472D01*
X004730Y010287D02*
X004977Y010287D01*
X004977Y010349D02*
X004977Y010102D01*
X005099Y010102D02*
X005222Y010225D01*
X005222Y010349D01*
X005590Y010410D02*
X005590Y010163D01*
X005959Y010163D02*
X005959Y010410D01*
X005836Y009749D02*
X005836Y009502D01*
X004792Y009502D02*
X004792Y009872D01*
X004607Y009872D01*
X004546Y009810D01*
X004546Y009687D01*
X004607Y009625D01*
X004792Y009625D01*
X004669Y009625D02*
X004546Y009502D01*
X004424Y009563D02*
X004424Y009687D01*
X004362Y009749D01*
X004239Y009749D01*
X004177Y009687D01*
X004177Y009625D01*
X004424Y009625D01*
X004424Y009563D02*
X004362Y009502D01*
X004239Y009502D01*
X003932Y009502D02*
X003809Y009749D01*
X004056Y009749D02*
X003932Y009502D01*
X003687Y009502D02*
X003626Y009502D01*
X003626Y009563D01*
X003687Y009563D01*
X003687Y009502D01*
X003503Y009502D02*
X003256Y009502D01*
X003380Y009502D02*
X003380Y009872D01*
X003503Y009749D01*
X007185Y010410D02*
X007247Y010472D01*
X007370Y010472D01*
X007432Y010410D01*
M02*
