G75*
%MOIN*%
%OFA0B0*%
%FSLAX24Y24*%
%IPPOS*%
%LPD*%
%AMOC8*
5,1,8,0,0,1.08239X$1,22.5*
%
%ADD10C,0.0000*%
%ADD11C,0.0040*%
%ADD12C,0.0030*%
%ADD13C,0.0050*%
%ADD14R,0.0059X0.0118*%
%ADD15R,0.0118X0.0118*%
%ADD16C,0.0060*%
D10*
X000100Y000100D02*
X000100Y033596D01*
X018970Y033596D01*
X018970Y000100D01*
X000100Y000100D01*
X000900Y001600D02*
X000902Y001652D01*
X000908Y001704D01*
X000918Y001756D01*
X000931Y001806D01*
X000948Y001856D01*
X000969Y001904D01*
X000994Y001950D01*
X001022Y001994D01*
X001053Y002036D01*
X001087Y002076D01*
X001124Y002113D01*
X001164Y002147D01*
X001206Y002178D01*
X001250Y002206D01*
X001296Y002231D01*
X001344Y002252D01*
X001394Y002269D01*
X001444Y002282D01*
X001496Y002292D01*
X001548Y002298D01*
X001600Y002300D01*
X001652Y002298D01*
X001704Y002292D01*
X001756Y002282D01*
X001806Y002269D01*
X001856Y002252D01*
X001904Y002231D01*
X001950Y002206D01*
X001994Y002178D01*
X002036Y002147D01*
X002076Y002113D01*
X002113Y002076D01*
X002147Y002036D01*
X002178Y001994D01*
X002206Y001950D01*
X002231Y001904D01*
X002252Y001856D01*
X002269Y001806D01*
X002282Y001756D01*
X002292Y001704D01*
X002298Y001652D01*
X002300Y001600D01*
X002298Y001548D01*
X002292Y001496D01*
X002282Y001444D01*
X002269Y001394D01*
X002252Y001344D01*
X002231Y001296D01*
X002206Y001250D01*
X002178Y001206D01*
X002147Y001164D01*
X002113Y001124D01*
X002076Y001087D01*
X002036Y001053D01*
X001994Y001022D01*
X001950Y000994D01*
X001904Y000969D01*
X001856Y000948D01*
X001806Y000931D01*
X001756Y000918D01*
X001704Y000908D01*
X001652Y000902D01*
X001600Y000900D01*
X001548Y000902D01*
X001496Y000908D01*
X001444Y000918D01*
X001394Y000931D01*
X001344Y000948D01*
X001296Y000969D01*
X001250Y000994D01*
X001206Y001022D01*
X001164Y001053D01*
X001124Y001087D01*
X001087Y001124D01*
X001053Y001164D01*
X001022Y001206D01*
X000994Y001250D01*
X000969Y001296D01*
X000948Y001344D01*
X000931Y001394D01*
X000918Y001444D01*
X000908Y001496D01*
X000902Y001548D01*
X000900Y001600D01*
X016900Y001600D02*
X016902Y001652D01*
X016908Y001704D01*
X016918Y001756D01*
X016931Y001806D01*
X016948Y001856D01*
X016969Y001904D01*
X016994Y001950D01*
X017022Y001994D01*
X017053Y002036D01*
X017087Y002076D01*
X017124Y002113D01*
X017164Y002147D01*
X017206Y002178D01*
X017250Y002206D01*
X017296Y002231D01*
X017344Y002252D01*
X017394Y002269D01*
X017444Y002282D01*
X017496Y002292D01*
X017548Y002298D01*
X017600Y002300D01*
X017652Y002298D01*
X017704Y002292D01*
X017756Y002282D01*
X017806Y002269D01*
X017856Y002252D01*
X017904Y002231D01*
X017950Y002206D01*
X017994Y002178D01*
X018036Y002147D01*
X018076Y002113D01*
X018113Y002076D01*
X018147Y002036D01*
X018178Y001994D01*
X018206Y001950D01*
X018231Y001904D01*
X018252Y001856D01*
X018269Y001806D01*
X018282Y001756D01*
X018292Y001704D01*
X018298Y001652D01*
X018300Y001600D01*
X018298Y001548D01*
X018292Y001496D01*
X018282Y001444D01*
X018269Y001394D01*
X018252Y001344D01*
X018231Y001296D01*
X018206Y001250D01*
X018178Y001206D01*
X018147Y001164D01*
X018113Y001124D01*
X018076Y001087D01*
X018036Y001053D01*
X017994Y001022D01*
X017950Y000994D01*
X017904Y000969D01*
X017856Y000948D01*
X017806Y000931D01*
X017756Y000918D01*
X017704Y000908D01*
X017652Y000902D01*
X017600Y000900D01*
X017548Y000902D01*
X017496Y000908D01*
X017444Y000918D01*
X017394Y000931D01*
X017344Y000948D01*
X017296Y000969D01*
X017250Y000994D01*
X017206Y001022D01*
X017164Y001053D01*
X017124Y001087D01*
X017087Y001124D01*
X017053Y001164D01*
X017022Y001206D01*
X016994Y001250D01*
X016969Y001296D01*
X016948Y001344D01*
X016931Y001394D01*
X016918Y001444D01*
X016908Y001496D01*
X016902Y001548D01*
X016900Y001600D01*
X016900Y032100D02*
X016902Y032152D01*
X016908Y032204D01*
X016918Y032256D01*
X016931Y032306D01*
X016948Y032356D01*
X016969Y032404D01*
X016994Y032450D01*
X017022Y032494D01*
X017053Y032536D01*
X017087Y032576D01*
X017124Y032613D01*
X017164Y032647D01*
X017206Y032678D01*
X017250Y032706D01*
X017296Y032731D01*
X017344Y032752D01*
X017394Y032769D01*
X017444Y032782D01*
X017496Y032792D01*
X017548Y032798D01*
X017600Y032800D01*
X017652Y032798D01*
X017704Y032792D01*
X017756Y032782D01*
X017806Y032769D01*
X017856Y032752D01*
X017904Y032731D01*
X017950Y032706D01*
X017994Y032678D01*
X018036Y032647D01*
X018076Y032613D01*
X018113Y032576D01*
X018147Y032536D01*
X018178Y032494D01*
X018206Y032450D01*
X018231Y032404D01*
X018252Y032356D01*
X018269Y032306D01*
X018282Y032256D01*
X018292Y032204D01*
X018298Y032152D01*
X018300Y032100D01*
X018298Y032048D01*
X018292Y031996D01*
X018282Y031944D01*
X018269Y031894D01*
X018252Y031844D01*
X018231Y031796D01*
X018206Y031750D01*
X018178Y031706D01*
X018147Y031664D01*
X018113Y031624D01*
X018076Y031587D01*
X018036Y031553D01*
X017994Y031522D01*
X017950Y031494D01*
X017904Y031469D01*
X017856Y031448D01*
X017806Y031431D01*
X017756Y031418D01*
X017704Y031408D01*
X017652Y031402D01*
X017600Y031400D01*
X017548Y031402D01*
X017496Y031408D01*
X017444Y031418D01*
X017394Y031431D01*
X017344Y031448D01*
X017296Y031469D01*
X017250Y031494D01*
X017206Y031522D01*
X017164Y031553D01*
X017124Y031587D01*
X017087Y031624D01*
X017053Y031664D01*
X017022Y031706D01*
X016994Y031750D01*
X016969Y031796D01*
X016948Y031844D01*
X016931Y031894D01*
X016918Y031944D01*
X016908Y031996D01*
X016902Y032048D01*
X016900Y032100D01*
X000900Y032100D02*
X000902Y032152D01*
X000908Y032204D01*
X000918Y032256D01*
X000931Y032306D01*
X000948Y032356D01*
X000969Y032404D01*
X000994Y032450D01*
X001022Y032494D01*
X001053Y032536D01*
X001087Y032576D01*
X001124Y032613D01*
X001164Y032647D01*
X001206Y032678D01*
X001250Y032706D01*
X001296Y032731D01*
X001344Y032752D01*
X001394Y032769D01*
X001444Y032782D01*
X001496Y032792D01*
X001548Y032798D01*
X001600Y032800D01*
X001652Y032798D01*
X001704Y032792D01*
X001756Y032782D01*
X001806Y032769D01*
X001856Y032752D01*
X001904Y032731D01*
X001950Y032706D01*
X001994Y032678D01*
X002036Y032647D01*
X002076Y032613D01*
X002113Y032576D01*
X002147Y032536D01*
X002178Y032494D01*
X002206Y032450D01*
X002231Y032404D01*
X002252Y032356D01*
X002269Y032306D01*
X002282Y032256D01*
X002292Y032204D01*
X002298Y032152D01*
X002300Y032100D01*
X002298Y032048D01*
X002292Y031996D01*
X002282Y031944D01*
X002269Y031894D01*
X002252Y031844D01*
X002231Y031796D01*
X002206Y031750D01*
X002178Y031706D01*
X002147Y031664D01*
X002113Y031624D01*
X002076Y031587D01*
X002036Y031553D01*
X001994Y031522D01*
X001950Y031494D01*
X001904Y031469D01*
X001856Y031448D01*
X001806Y031431D01*
X001756Y031418D01*
X001704Y031408D01*
X001652Y031402D01*
X001600Y031400D01*
X001548Y031402D01*
X001496Y031408D01*
X001444Y031418D01*
X001394Y031431D01*
X001344Y031448D01*
X001296Y031469D01*
X001250Y031494D01*
X001206Y031522D01*
X001164Y031553D01*
X001124Y031587D01*
X001087Y031624D01*
X001053Y031664D01*
X001022Y031706D01*
X000994Y031750D01*
X000969Y031796D01*
X000948Y031844D01*
X000931Y031894D01*
X000918Y031944D01*
X000908Y031996D01*
X000902Y032048D01*
X000900Y032100D01*
D11*
X001100Y030355D02*
X001177Y030355D01*
X001177Y030048D01*
X001253Y030048D02*
X001100Y030048D01*
X001023Y030125D01*
X001023Y030278D01*
X001100Y030355D01*
X001330Y030278D02*
X001330Y030125D01*
X001253Y030048D01*
X001330Y029895D02*
X001330Y029665D01*
X001253Y029588D01*
X001100Y029588D01*
X001023Y029665D01*
X001023Y029895D01*
X000870Y029895D02*
X001330Y029895D01*
X001330Y029434D02*
X001330Y029358D01*
X001253Y029358D01*
X001253Y029434D01*
X001330Y029434D01*
X001023Y029204D02*
X001023Y029127D01*
X001177Y028974D01*
X001330Y028974D02*
X001023Y028974D01*
X001100Y028820D02*
X001177Y028820D01*
X001177Y028514D01*
X001253Y028514D02*
X001100Y028514D01*
X001023Y028590D01*
X001023Y028744D01*
X001100Y028820D01*
X001330Y028744D02*
X001330Y028590D01*
X001253Y028514D01*
X001330Y028360D02*
X001330Y028130D01*
X001253Y028053D01*
X001100Y028053D01*
X001023Y028130D01*
X001023Y028360D01*
X000870Y028360D02*
X001330Y028360D01*
X001330Y027900D02*
X001100Y027900D01*
X001023Y027823D01*
X001023Y027669D01*
X001177Y027669D02*
X001253Y027593D01*
X001330Y027669D01*
X001330Y027900D01*
X001177Y027900D02*
X001177Y027669D01*
X001253Y027439D02*
X001100Y027439D01*
X001023Y027363D01*
X001023Y027132D01*
X000870Y027132D02*
X001330Y027132D01*
X001330Y027363D01*
X001253Y027439D01*
X001330Y026979D02*
X001330Y026825D01*
X001330Y026902D02*
X001023Y026902D01*
X001023Y026825D01*
X001100Y026672D02*
X001330Y026672D01*
X001330Y026442D01*
X001253Y026365D01*
X001177Y026442D01*
X001177Y026672D01*
X001100Y026672D02*
X001023Y026595D01*
X001023Y026442D01*
X001023Y026212D02*
X001177Y025981D01*
X001330Y026212D01*
X001330Y025981D02*
X000870Y025981D01*
X001253Y025828D02*
X001330Y025828D01*
X001330Y025751D01*
X001253Y025751D01*
X001253Y025828D01*
X001253Y025598D02*
X001023Y025598D01*
X001253Y025598D02*
X001330Y025521D01*
X001253Y025444D01*
X001330Y025368D01*
X001253Y025291D01*
X001023Y025291D01*
X001023Y025137D02*
X001253Y025137D01*
X001330Y025061D01*
X001253Y024984D01*
X001330Y024907D01*
X001253Y024830D01*
X001023Y024830D01*
X001023Y024677D02*
X001253Y024677D01*
X001330Y024600D01*
X001253Y024523D01*
X001330Y024447D01*
X001253Y024370D01*
X001023Y024370D01*
X000870Y026902D02*
X000793Y026902D01*
X002947Y031495D02*
X002870Y031572D01*
X002947Y031495D02*
X003100Y031495D01*
X003177Y031572D01*
X003177Y031648D01*
X003100Y031725D01*
X003023Y031725D01*
X003100Y031725D02*
X003177Y031802D01*
X003177Y031879D01*
X003100Y031955D01*
X002947Y031955D01*
X002870Y031879D01*
X003023Y032620D02*
X003023Y033080D01*
X002870Y033080D02*
X003177Y033080D01*
X003330Y033080D02*
X003330Y032620D01*
X003330Y032850D02*
X003407Y032927D01*
X003561Y032927D01*
X003637Y032850D01*
X003637Y032620D01*
X003791Y032620D02*
X003944Y032620D01*
X003868Y032620D02*
X003868Y032927D01*
X003791Y032927D01*
X003868Y033080D02*
X003868Y033157D01*
X004174Y032927D02*
X004405Y032927D01*
X004328Y032773D02*
X004174Y032773D01*
X004098Y032850D01*
X004174Y032927D01*
X004328Y032773D02*
X004405Y032697D01*
X004328Y032620D01*
X004098Y032620D01*
X003561Y031955D02*
X003637Y031879D01*
X003330Y031572D01*
X003407Y031495D01*
X003561Y031495D01*
X003637Y031572D01*
X003637Y031879D01*
X003561Y031955D02*
X003407Y031955D01*
X003330Y031879D01*
X003330Y031572D01*
X005018Y032620D02*
X005249Y032620D01*
X005325Y032697D01*
X005249Y032773D01*
X005095Y032773D01*
X005018Y032850D01*
X005095Y032927D01*
X005325Y032927D01*
X005479Y032927D02*
X005556Y032927D01*
X005556Y032620D01*
X005632Y032620D02*
X005479Y032620D01*
X005786Y032697D02*
X005786Y032850D01*
X005863Y032927D01*
X006093Y032927D01*
X006093Y033080D02*
X006093Y032620D01*
X005863Y032620D01*
X005786Y032697D01*
X005556Y033080D02*
X005556Y033157D01*
X006246Y032850D02*
X006323Y032927D01*
X006476Y032927D01*
X006553Y032850D01*
X006553Y032773D01*
X006246Y032773D01*
X006246Y032697D02*
X006246Y032850D01*
X006246Y032697D02*
X006323Y032620D01*
X006476Y032620D01*
X007167Y032697D02*
X007244Y032620D01*
X007474Y032620D01*
X007474Y032927D01*
X007627Y032927D02*
X007627Y032467D01*
X007627Y032620D02*
X007858Y032620D01*
X007934Y032697D01*
X007934Y032850D01*
X007858Y032927D01*
X007627Y032927D01*
X008088Y032850D02*
X008088Y033157D01*
X008088Y032697D02*
X008088Y032620D01*
X008523Y031879D02*
X008370Y031725D01*
X008600Y031725D01*
X008677Y031648D01*
X008677Y031572D01*
X008600Y031495D01*
X008447Y031495D01*
X008370Y031572D01*
X008370Y031725D01*
X008523Y031879D02*
X008677Y031955D01*
X008830Y031879D02*
X008830Y031572D01*
X009137Y031879D01*
X009137Y031572D01*
X009061Y031495D01*
X008907Y031495D01*
X008830Y031572D01*
X008830Y031879D02*
X008907Y031955D01*
X009061Y031955D01*
X009137Y031879D01*
X009239Y032620D02*
X009162Y032697D01*
X009162Y032850D01*
X009239Y032927D01*
X009392Y032927D01*
X009469Y032850D01*
X009469Y032697D01*
X009392Y032620D01*
X009239Y032620D01*
X009009Y032620D02*
X008702Y032620D01*
X008702Y033080D01*
X009622Y032927D02*
X009622Y032697D01*
X009699Y032620D01*
X009776Y032697D01*
X009853Y032620D01*
X009929Y032697D01*
X009929Y032927D01*
X010083Y032850D02*
X010160Y032927D01*
X010313Y032927D01*
X010390Y032850D01*
X010390Y032773D01*
X010083Y032773D01*
X010083Y032697D02*
X010083Y032850D01*
X010083Y032697D02*
X010160Y032620D01*
X010313Y032620D01*
X010543Y032620D02*
X010543Y032927D01*
X010543Y032773D02*
X010697Y032927D01*
X010773Y032927D01*
X011387Y032850D02*
X011464Y032927D01*
X011617Y032927D01*
X011694Y032850D01*
X011694Y032773D01*
X011387Y032773D01*
X011387Y032697D02*
X011387Y032850D01*
X011387Y032697D02*
X011464Y032620D01*
X011617Y032620D01*
X011848Y032697D02*
X011924Y032620D01*
X012155Y032620D01*
X012155Y033080D01*
X012155Y032927D02*
X011924Y032927D01*
X011848Y032850D01*
X011848Y032697D01*
X012308Y032697D02*
X012385Y032620D01*
X012615Y032620D01*
X012615Y032543D02*
X012615Y032927D01*
X012385Y032927D01*
X012308Y032850D01*
X012308Y032697D01*
X012462Y032467D02*
X012538Y032467D01*
X012615Y032543D01*
X012768Y032697D02*
X012768Y032850D01*
X012845Y032927D01*
X012999Y032927D01*
X013075Y032850D01*
X013075Y032773D01*
X012768Y032773D01*
X012768Y032697D02*
X012845Y032620D01*
X012999Y032620D01*
X013689Y032620D02*
X013689Y033080D01*
X013766Y032927D02*
X013919Y032927D01*
X013996Y032850D01*
X013996Y032620D01*
X014150Y032697D02*
X014150Y032850D01*
X014226Y032927D01*
X014380Y032927D01*
X014457Y032850D01*
X014457Y032773D01*
X014150Y032773D01*
X014150Y032697D02*
X014226Y032620D01*
X014380Y032620D01*
X014610Y032620D02*
X014610Y032927D01*
X014763Y032927D02*
X014610Y032773D01*
X014763Y032927D02*
X014840Y032927D01*
X014994Y032850D02*
X015070Y032927D01*
X015224Y032927D01*
X015301Y032850D01*
X015301Y032773D01*
X014994Y032773D01*
X014994Y032697D02*
X014994Y032850D01*
X014994Y032697D02*
X015070Y032620D01*
X015224Y032620D01*
X015914Y032850D02*
X016221Y032850D01*
X016375Y032620D02*
X016682Y032850D01*
X016375Y033080D01*
X013766Y032927D02*
X013689Y032850D01*
X011848Y029870D02*
X011541Y029870D01*
X011694Y029870D02*
X011694Y030330D01*
X011541Y030177D01*
X011387Y030330D02*
X011080Y030330D01*
X011080Y029870D01*
X011387Y029870D01*
X011234Y030100D02*
X011080Y030100D01*
X010927Y030330D02*
X010927Y029870D01*
X010773Y030177D02*
X010927Y030330D01*
X010773Y030177D02*
X010620Y030330D01*
X010620Y029870D01*
X010620Y029330D02*
X010850Y029330D01*
X010927Y029254D01*
X010927Y028947D01*
X010850Y028870D01*
X010620Y028870D01*
X010620Y029330D01*
X011080Y029330D02*
X011080Y028870D01*
X011387Y028870D02*
X011387Y029330D01*
X011234Y029177D01*
X011080Y029330D01*
X011541Y029330D02*
X011541Y028870D01*
X011848Y028870D01*
X012001Y028870D02*
X012308Y028870D01*
X012155Y028870D02*
X012155Y029330D01*
X012001Y029177D01*
X011848Y029330D02*
X011541Y029330D01*
X011541Y029100D02*
X011694Y029100D01*
X011541Y028330D02*
X011541Y027870D01*
X011694Y028023D01*
X011848Y027870D01*
X011848Y028330D01*
X011387Y028330D02*
X011080Y027870D01*
X010927Y027870D02*
X010773Y028023D01*
X010850Y028023D02*
X010620Y028023D01*
X010620Y027870D02*
X010620Y028330D01*
X010850Y028330D01*
X010927Y028254D01*
X010927Y028100D01*
X010850Y028023D01*
X010850Y027330D02*
X010620Y027330D01*
X010620Y026870D01*
X010850Y026870D01*
X010927Y026947D01*
X010927Y027254D01*
X010850Y027330D01*
X011080Y027330D02*
X011080Y026870D01*
X011387Y026870D02*
X011387Y027330D01*
X011234Y027177D01*
X011080Y027330D01*
X011541Y027330D02*
X011541Y026870D01*
X011848Y026870D01*
X012001Y026947D02*
X012308Y027254D01*
X012308Y026947D01*
X012231Y026870D01*
X012078Y026870D01*
X012001Y026947D01*
X012001Y027254D01*
X012078Y027330D01*
X012231Y027330D01*
X012308Y027254D01*
X011848Y027330D02*
X011541Y027330D01*
X011541Y027100D02*
X011694Y027100D01*
X011771Y026330D02*
X011541Y026330D01*
X011541Y025870D01*
X011771Y025870D01*
X011848Y025947D01*
X011848Y026254D01*
X011771Y026330D01*
X011387Y026330D02*
X011387Y025870D01*
X011080Y026330D01*
X011080Y025870D01*
X010927Y025947D02*
X010927Y026100D01*
X010773Y026100D01*
X010620Y025947D02*
X010697Y025870D01*
X010850Y025870D01*
X010927Y025947D01*
X010927Y026254D02*
X010850Y026330D01*
X010697Y026330D01*
X010620Y026254D01*
X010620Y025947D01*
X010697Y025330D02*
X010620Y025254D01*
X010620Y024947D01*
X010697Y024870D01*
X010850Y024870D01*
X010927Y024947D01*
X010927Y025100D01*
X010773Y025100D01*
X010927Y025254D02*
X010850Y025330D01*
X010697Y025330D01*
X011080Y025330D02*
X011080Y024870D01*
X011387Y024870D02*
X011387Y025330D01*
X011541Y025330D02*
X011771Y025330D01*
X011848Y025254D01*
X011848Y024947D01*
X011771Y024870D01*
X011541Y024870D01*
X011541Y025330D01*
X011080Y025330D02*
X011387Y024870D01*
X011387Y024330D02*
X011387Y023870D01*
X011080Y024330D01*
X011080Y023870D01*
X010927Y023947D02*
X010927Y024100D01*
X010773Y024100D01*
X010620Y023947D02*
X010697Y023870D01*
X010850Y023870D01*
X010927Y023947D01*
X010927Y024254D02*
X010850Y024330D01*
X010697Y024330D01*
X010620Y024254D01*
X010620Y023947D01*
X010697Y023330D02*
X010620Y023254D01*
X010620Y022947D01*
X010697Y022870D01*
X010850Y022870D01*
X010927Y022947D01*
X010927Y023100D01*
X010773Y023100D01*
X010927Y023254D02*
X010850Y023330D01*
X010697Y023330D01*
X011080Y023330D02*
X011080Y022870D01*
X011387Y022870D02*
X011387Y023330D01*
X011541Y023330D02*
X011771Y023330D01*
X011848Y023254D01*
X011848Y022947D01*
X011771Y022870D01*
X011541Y022870D01*
X011541Y023330D01*
X011541Y023870D02*
X011771Y023870D01*
X011848Y023947D01*
X011848Y024254D01*
X011771Y024330D01*
X011541Y024330D01*
X011541Y023870D01*
X011080Y023330D02*
X011387Y022870D01*
X011311Y022330D02*
X011157Y022330D01*
X011080Y022254D01*
X011080Y021947D01*
X011157Y021870D01*
X011311Y021870D01*
X011387Y021947D01*
X011387Y022254D01*
X011311Y022330D01*
X011541Y022254D02*
X011541Y022177D01*
X011618Y022100D01*
X011771Y022100D01*
X011848Y022023D01*
X011848Y021947D01*
X011771Y021870D01*
X011618Y021870D01*
X011541Y021947D01*
X011541Y022254D02*
X011618Y022330D01*
X011771Y022330D01*
X011848Y022254D01*
X011771Y021330D02*
X011618Y021330D01*
X011541Y021254D01*
X011541Y020947D01*
X011848Y021254D01*
X011848Y020947D01*
X011771Y020870D01*
X011618Y020870D01*
X011541Y020947D01*
X011387Y021330D02*
X011080Y021330D01*
X011080Y020870D01*
X010927Y020947D02*
X010850Y020870D01*
X010620Y020870D01*
X010620Y021330D01*
X010850Y021330D01*
X010927Y021254D01*
X010927Y021177D01*
X010850Y021100D01*
X010620Y021100D01*
X010850Y021100D02*
X010927Y021023D01*
X010927Y020947D01*
X011080Y021100D02*
X011234Y021100D01*
X011311Y020330D02*
X011157Y020330D01*
X011080Y020254D01*
X011080Y019947D01*
X011157Y019870D01*
X011311Y019870D01*
X011387Y019947D01*
X011387Y020254D02*
X011311Y020330D01*
X010927Y020330D02*
X010927Y019870D01*
X010620Y020330D01*
X010620Y019870D01*
X010620Y019330D02*
X010620Y019023D01*
X010773Y018870D01*
X010927Y019023D01*
X010927Y019330D01*
X011080Y019100D02*
X011387Y019100D01*
X011541Y019100D02*
X011771Y019100D01*
X011848Y019023D01*
X011848Y018947D01*
X011771Y018870D01*
X011541Y018870D01*
X011541Y019330D01*
X011771Y019330D01*
X011848Y019254D01*
X011848Y019177D01*
X011771Y019100D01*
X012001Y019100D02*
X012308Y019100D01*
X012308Y019177D02*
X012308Y018870D01*
X012308Y019177D02*
X012155Y019330D01*
X012001Y019177D01*
X012001Y018870D01*
X012155Y018330D02*
X012308Y018177D01*
X012308Y017870D01*
X012308Y018100D02*
X012001Y018100D01*
X012001Y018177D02*
X012155Y018330D01*
X012001Y018177D02*
X012001Y017870D01*
X011848Y017947D02*
X011771Y017870D01*
X011541Y017870D01*
X011541Y018330D01*
X011771Y018330D01*
X011848Y018254D01*
X011848Y018177D01*
X011771Y018100D01*
X011541Y018100D01*
X011387Y018100D02*
X011080Y018100D01*
X010927Y018023D02*
X010927Y018330D01*
X010927Y018023D02*
X010773Y017870D01*
X010620Y018023D01*
X010620Y018330D01*
X010620Y017330D02*
X010620Y017023D01*
X010773Y016870D01*
X010927Y017023D01*
X010927Y017330D01*
X011080Y017100D02*
X011387Y017100D01*
X011541Y017100D02*
X011771Y017100D01*
X011848Y017023D01*
X011848Y016947D01*
X011771Y016870D01*
X011541Y016870D01*
X011541Y017330D01*
X011771Y017330D01*
X011848Y017254D01*
X011848Y017177D01*
X011771Y017100D01*
X012001Y017100D02*
X012308Y017100D01*
X012308Y017177D02*
X012308Y016870D01*
X012308Y017177D02*
X012155Y017330D01*
X012001Y017177D01*
X012001Y016870D01*
X012155Y016330D02*
X012001Y016177D01*
X012001Y015870D01*
X011848Y015947D02*
X011771Y015870D01*
X011541Y015870D01*
X011541Y016330D01*
X011771Y016330D01*
X011848Y016254D01*
X011848Y016177D01*
X011771Y016100D01*
X011541Y016100D01*
X011387Y016100D02*
X011080Y016100D01*
X010927Y016023D02*
X010927Y016330D01*
X010927Y016023D02*
X010773Y015870D01*
X010620Y016023D01*
X010620Y016330D01*
X010620Y015330D02*
X010927Y015330D01*
X011080Y015100D02*
X011387Y015100D01*
X011541Y015254D02*
X011541Y014947D01*
X011618Y014870D01*
X011771Y014870D01*
X011848Y014947D01*
X011848Y015100D01*
X011694Y015100D01*
X011541Y015254D02*
X011618Y015330D01*
X011771Y015330D01*
X011848Y015254D01*
X012001Y015330D02*
X012308Y014870D01*
X012308Y015330D01*
X012462Y015330D02*
X012462Y014870D01*
X012692Y014870D01*
X012768Y014947D01*
X012768Y015254D01*
X012692Y015330D01*
X012462Y015330D01*
X012615Y015870D02*
X012615Y016330D01*
X012462Y016330D02*
X012768Y016330D01*
X012308Y016177D02*
X012308Y015870D01*
X012308Y016100D02*
X012001Y016100D01*
X011848Y016023D02*
X011848Y015947D01*
X011848Y016023D02*
X011771Y016100D01*
X012155Y016330D02*
X012308Y016177D01*
X012615Y016870D02*
X012615Y017330D01*
X012462Y017330D02*
X012768Y017330D01*
X012615Y017870D02*
X012615Y018330D01*
X012462Y018330D02*
X012768Y018330D01*
X012615Y018870D02*
X012615Y019330D01*
X012462Y019330D02*
X012768Y019330D01*
X011771Y018100D02*
X011848Y018023D01*
X011848Y017947D01*
X012001Y015330D02*
X012001Y014870D01*
X012001Y014330D02*
X012308Y013870D01*
X012308Y014330D01*
X012462Y014330D02*
X012462Y013870D01*
X012692Y013870D01*
X012768Y013947D01*
X012768Y014254D01*
X012692Y014330D01*
X012462Y014330D01*
X012001Y014330D02*
X012001Y013870D01*
X011848Y013947D02*
X011848Y014100D01*
X011694Y014100D01*
X011541Y013947D02*
X011541Y014254D01*
X011618Y014330D01*
X011771Y014330D01*
X011848Y014254D01*
X011848Y013947D02*
X011771Y013870D01*
X011618Y013870D01*
X011541Y013947D01*
X011387Y014100D02*
X011080Y014100D01*
X010927Y014330D02*
X010620Y014330D01*
X010620Y013870D01*
X010620Y014100D02*
X010773Y014100D01*
X010620Y013330D02*
X010620Y013023D01*
X010773Y012870D01*
X010927Y013023D01*
X010927Y013330D01*
X011080Y013254D02*
X011080Y012947D01*
X011157Y012870D01*
X011311Y012870D01*
X011387Y012947D01*
X011541Y012947D02*
X011541Y013254D01*
X011618Y013330D01*
X011771Y013330D01*
X011848Y013254D01*
X011848Y012947D02*
X011771Y012870D01*
X011618Y012870D01*
X011541Y012947D01*
X011387Y013254D02*
X011311Y013330D01*
X011157Y013330D01*
X011080Y013254D01*
X011157Y012330D02*
X011080Y012254D01*
X011080Y011947D01*
X011157Y011870D01*
X011311Y011870D01*
X011387Y011947D01*
X011541Y011947D02*
X011541Y012254D01*
X011618Y012330D01*
X011771Y012330D01*
X011848Y012254D01*
X011848Y011947D02*
X011771Y011870D01*
X011618Y011870D01*
X011541Y011947D01*
X011387Y012254D02*
X011311Y012330D01*
X011157Y012330D01*
X010927Y012330D02*
X010927Y012023D01*
X010773Y011870D01*
X010620Y012023D01*
X010620Y012330D01*
X010620Y011330D02*
X010927Y010870D01*
X010927Y011330D01*
X011080Y011254D02*
X011080Y010947D01*
X011157Y010870D01*
X011311Y010870D01*
X011387Y010947D01*
X011387Y011254D02*
X011311Y011330D01*
X011157Y011330D01*
X011080Y011254D01*
X010620Y011330D02*
X010620Y010870D01*
X010620Y010330D02*
X010850Y010330D01*
X010927Y010254D01*
X010927Y010100D01*
X010850Y010023D01*
X010620Y010023D01*
X010620Y009870D02*
X010620Y010330D01*
X011080Y010330D02*
X011080Y009870D01*
X011311Y009870D01*
X011387Y009947D01*
X011387Y010023D01*
X011311Y010100D01*
X011080Y010100D01*
X011080Y010330D02*
X011311Y010330D01*
X011387Y010254D01*
X011387Y010177D01*
X011311Y010100D01*
X011541Y010177D02*
X011694Y010330D01*
X011694Y009870D01*
X011541Y009870D02*
X011848Y009870D01*
X012001Y009330D02*
X012001Y009100D01*
X012155Y009177D01*
X012231Y009177D01*
X012308Y009100D01*
X012308Y008947D01*
X012231Y008870D01*
X012078Y008870D01*
X012001Y008947D01*
X011848Y008870D02*
X011541Y008870D01*
X011694Y008870D02*
X011694Y009330D01*
X011541Y009177D01*
X011387Y009254D02*
X011387Y008947D01*
X011311Y008870D01*
X011080Y008870D01*
X011080Y009330D01*
X011311Y009330D01*
X011387Y009254D01*
X010927Y009177D02*
X010927Y008870D01*
X010927Y009100D02*
X010620Y009100D01*
X010620Y009177D02*
X010773Y009330D01*
X010927Y009177D01*
X010620Y009177D02*
X010620Y008870D01*
X010773Y008330D02*
X010620Y008177D01*
X010620Y007870D01*
X010620Y008100D02*
X010927Y008100D01*
X010927Y008177D02*
X010927Y007870D01*
X011080Y007870D02*
X011080Y008330D01*
X011311Y008330D01*
X011387Y008254D01*
X011387Y007947D01*
X011311Y007870D01*
X011080Y007870D01*
X010927Y008177D02*
X010773Y008330D01*
X010773Y007330D02*
X010620Y007177D01*
X010620Y006870D01*
X010620Y007100D02*
X010927Y007100D01*
X010927Y007177D02*
X010927Y006870D01*
X011080Y006870D02*
X011080Y007330D01*
X011311Y007330D01*
X011387Y007254D01*
X011387Y006947D01*
X011311Y006870D01*
X011080Y006870D01*
X010927Y007177D02*
X010773Y007330D01*
X010773Y006330D02*
X010620Y006177D01*
X010620Y005870D01*
X010620Y006100D02*
X010927Y006100D01*
X010927Y006177D02*
X010927Y005870D01*
X011080Y005870D02*
X011080Y006330D01*
X011311Y006330D01*
X011387Y006254D01*
X011387Y005947D01*
X011311Y005870D01*
X011080Y005870D01*
X010927Y006177D02*
X010773Y006330D01*
X010773Y005330D02*
X010620Y005177D01*
X010620Y004870D01*
X010620Y005100D02*
X010927Y005100D01*
X010927Y005177D02*
X010927Y004870D01*
X011080Y004870D02*
X011080Y005330D01*
X011311Y005330D01*
X011387Y005254D01*
X011387Y004947D01*
X011311Y004870D01*
X011080Y004870D01*
X010927Y005177D02*
X010773Y005330D01*
X010773Y004330D02*
X010620Y004177D01*
X010620Y003870D01*
X010620Y004100D02*
X010927Y004100D01*
X010927Y004177D02*
X010927Y003870D01*
X011080Y003870D02*
X011080Y004330D01*
X011311Y004330D01*
X011387Y004254D01*
X011387Y003947D01*
X011311Y003870D01*
X011080Y003870D01*
X010927Y004177D02*
X010773Y004330D01*
X010773Y003330D02*
X010620Y003177D01*
X010620Y002870D01*
X010620Y003100D02*
X010927Y003100D01*
X010927Y003177D02*
X010927Y002870D01*
X011080Y002870D02*
X011080Y003330D01*
X011311Y003330D01*
X011387Y003254D01*
X011387Y002947D01*
X011311Y002870D01*
X011080Y002870D01*
X010927Y003177D02*
X010773Y003330D01*
X010773Y002330D02*
X010620Y002177D01*
X010620Y001870D01*
X010620Y002100D02*
X010927Y002100D01*
X010927Y002177D02*
X010927Y001870D01*
X011080Y001870D02*
X011080Y002330D01*
X011311Y002330D01*
X011387Y002254D01*
X011387Y001947D01*
X011311Y001870D01*
X011080Y001870D01*
X010927Y002177D02*
X010773Y002330D01*
X011541Y002254D02*
X011541Y002177D01*
X011618Y002100D01*
X011771Y002100D01*
X011848Y002023D01*
X011848Y001947D01*
X011771Y001870D01*
X011618Y001870D01*
X011541Y001947D01*
X011541Y002023D01*
X011618Y002100D01*
X011771Y002100D02*
X011848Y002177D01*
X011848Y002254D01*
X011771Y002330D01*
X011618Y002330D01*
X011541Y002254D01*
X011618Y002870D02*
X011771Y002870D01*
X011848Y002947D01*
X011848Y003254D01*
X011771Y003330D01*
X011618Y003330D01*
X011541Y003254D01*
X011541Y003177D01*
X011618Y003100D01*
X011848Y003100D01*
X011618Y002870D02*
X011541Y002947D01*
X011541Y003870D02*
X011848Y003870D01*
X011694Y003870D02*
X011694Y004330D01*
X011541Y004177D01*
X012001Y004254D02*
X012001Y003947D01*
X012308Y004254D01*
X012308Y003947D01*
X012231Y003870D01*
X012078Y003870D01*
X012001Y003947D01*
X012001Y004254D02*
X012078Y004330D01*
X012231Y004330D01*
X012308Y004254D01*
X012308Y004870D02*
X012001Y004870D01*
X011848Y004870D02*
X011541Y004870D01*
X011694Y004870D02*
X011694Y005330D01*
X011541Y005177D01*
X012001Y005177D02*
X012155Y005330D01*
X012155Y004870D01*
X012308Y005870D02*
X012001Y005870D01*
X012308Y006177D01*
X012308Y006254D01*
X012231Y006330D01*
X012078Y006330D01*
X012001Y006254D01*
X011694Y006330D02*
X011694Y005870D01*
X011541Y005870D02*
X011848Y005870D01*
X011541Y006177D02*
X011694Y006330D01*
X011694Y006870D02*
X011694Y007330D01*
X011541Y007177D01*
X011541Y006870D02*
X011848Y006870D01*
X012001Y006947D02*
X012078Y006870D01*
X012231Y006870D01*
X012308Y006947D01*
X012308Y007023D01*
X012231Y007100D01*
X012155Y007100D01*
X012231Y007100D02*
X012308Y007177D01*
X012308Y007254D01*
X012231Y007330D01*
X012078Y007330D01*
X012001Y007254D01*
X011848Y007870D02*
X011541Y007870D01*
X011694Y007870D02*
X011694Y008330D01*
X011541Y008177D01*
X012001Y008100D02*
X012308Y008100D01*
X012231Y007870D02*
X012231Y008330D01*
X012001Y008100D01*
X012001Y009330D02*
X012308Y009330D01*
X010620Y014870D02*
X010620Y015330D01*
X010620Y015100D02*
X010773Y015100D01*
X011848Y021254D02*
X011771Y021330D01*
X010927Y021947D02*
X010927Y022100D01*
X010850Y022177D01*
X010697Y022177D01*
X010620Y022100D01*
X010620Y021947D01*
X010697Y021870D01*
X010850Y021870D01*
X010927Y021947D01*
X010927Y022177D02*
X010620Y021870D01*
X008036Y025870D02*
X008036Y026330D01*
X008189Y026330D02*
X007882Y026330D01*
X007729Y026330D02*
X007575Y026330D01*
X007652Y026330D02*
X007652Y025870D01*
X007575Y025870D02*
X007729Y025870D01*
X007422Y025947D02*
X007345Y025870D01*
X007115Y025870D01*
X007115Y026330D01*
X007345Y026330D01*
X007422Y026254D01*
X007422Y026177D01*
X007345Y026100D01*
X007115Y026100D01*
X007345Y026100D02*
X007422Y026023D01*
X007422Y025947D01*
X006962Y025870D02*
X006808Y025870D01*
X006885Y025870D02*
X006885Y026330D01*
X006808Y026330D02*
X006962Y026330D01*
X006655Y026330D02*
X006655Y025870D01*
X006655Y026100D02*
X006348Y026100D01*
X006348Y025870D02*
X006348Y026330D01*
X006194Y026330D02*
X006194Y025870D01*
X005887Y026330D01*
X005887Y025870D01*
X005734Y025870D02*
X005580Y025870D01*
X005657Y025870D02*
X005657Y026330D01*
X005580Y026330D02*
X005734Y026330D01*
X005887Y026870D02*
X005887Y027330D01*
X006041Y027330D02*
X006041Y026870D01*
X006348Y026870D01*
X006501Y026870D02*
X006808Y027330D01*
X006655Y027870D02*
X006655Y028330D01*
X006808Y028330D02*
X006501Y028330D01*
X006348Y028330D02*
X006348Y027870D01*
X006041Y027870D02*
X006041Y028330D01*
X006194Y028177D01*
X006348Y028330D01*
X005887Y028254D02*
X005811Y028330D01*
X005657Y028330D01*
X005580Y028254D01*
X005580Y027947D01*
X005657Y027870D01*
X005811Y027870D01*
X005887Y027947D01*
X006041Y027330D02*
X006348Y027330D01*
X006501Y027330D02*
X006808Y026870D01*
X007422Y027870D02*
X007575Y027870D01*
X007499Y027870D02*
X007499Y028330D01*
X007575Y028330D02*
X007422Y028330D01*
X007729Y028330D02*
X008036Y027870D01*
X008036Y028330D01*
X007729Y028330D02*
X007729Y027870D01*
X007652Y029870D02*
X007499Y029870D01*
X007422Y029947D01*
X007422Y030330D01*
X007268Y030254D02*
X007192Y030330D01*
X007038Y030330D01*
X006962Y030254D01*
X006962Y029947D01*
X007038Y029870D01*
X007192Y029870D01*
X007268Y029947D01*
X007268Y030254D01*
X007729Y030330D02*
X007729Y029947D01*
X007652Y029870D01*
X008036Y029870D02*
X008036Y030330D01*
X008189Y030330D02*
X007882Y030330D01*
X007167Y032697D02*
X007167Y032927D01*
X006194Y031330D02*
X005887Y031330D01*
X005734Y031330D02*
X005734Y030870D01*
X005427Y031330D01*
X005427Y030870D01*
X005273Y030870D02*
X005120Y030870D01*
X005197Y030870D02*
X005197Y031330D01*
X005273Y031330D02*
X005120Y031330D01*
X005197Y030330D02*
X005120Y030254D01*
X005120Y029947D01*
X005197Y029870D01*
X005350Y029870D01*
X005427Y029947D01*
X005580Y029870D02*
X005580Y030330D01*
X005734Y030177D01*
X005887Y030330D01*
X005887Y029870D01*
X006194Y029870D02*
X006194Y030330D01*
X006041Y030330D02*
X006348Y030330D01*
X006041Y030870D02*
X006041Y031330D01*
X005350Y030330D02*
X005427Y030254D01*
X005350Y030330D02*
X005197Y030330D01*
X005120Y029330D02*
X005120Y028870D01*
X005273Y029023D01*
X005427Y028870D01*
X005427Y029330D01*
X005580Y029177D02*
X005734Y029330D01*
X005734Y028870D01*
X005887Y028870D02*
X005580Y028870D01*
X005427Y028330D02*
X005120Y027870D01*
X005427Y027330D02*
X005120Y026870D01*
X005427Y026330D02*
X005120Y025870D01*
X005120Y025330D02*
X005350Y025330D01*
X005427Y025254D01*
X005427Y024947D01*
X005350Y024870D01*
X005120Y024870D01*
X005120Y025330D01*
X005580Y025254D02*
X005657Y025330D01*
X005811Y025330D01*
X005887Y025254D01*
X005580Y024947D01*
X005657Y024870D01*
X005811Y024870D01*
X005887Y024947D01*
X005887Y025254D01*
X005580Y025254D02*
X005580Y024947D01*
X005734Y024330D02*
X005734Y023870D01*
X005887Y023870D02*
X005580Y023870D01*
X005427Y023947D02*
X005427Y024254D01*
X005350Y024330D01*
X005120Y024330D01*
X005120Y023870D01*
X005350Y023870D01*
X005427Y023947D01*
X005580Y024177D02*
X005734Y024330D01*
X005811Y023330D02*
X005657Y023330D01*
X005580Y023254D01*
X005427Y023254D02*
X005427Y022947D01*
X005350Y022870D01*
X005120Y022870D01*
X005120Y023330D01*
X005350Y023330D01*
X005427Y023254D01*
X005811Y023330D02*
X005887Y023254D01*
X005887Y023177D01*
X005580Y022870D01*
X005887Y022870D01*
X005811Y022330D02*
X005887Y022254D01*
X005887Y022177D01*
X005811Y022100D01*
X005887Y022023D01*
X005887Y021947D01*
X005811Y021870D01*
X005657Y021870D01*
X005580Y021947D01*
X005427Y021947D02*
X005350Y021870D01*
X005120Y021870D01*
X005120Y022330D01*
X005350Y022330D01*
X005427Y022254D01*
X005427Y021947D01*
X005580Y022254D02*
X005657Y022330D01*
X005811Y022330D01*
X005811Y022100D02*
X005734Y022100D01*
X005811Y021330D02*
X005580Y021100D01*
X005887Y021100D01*
X005811Y020870D02*
X005811Y021330D01*
X005427Y021254D02*
X005427Y020947D01*
X005350Y020870D01*
X005120Y020870D01*
X005120Y021330D01*
X005350Y021330D01*
X005427Y021254D01*
X005350Y020330D02*
X005120Y020330D01*
X005120Y019870D01*
X005350Y019870D01*
X005427Y019947D01*
X005427Y020254D01*
X005350Y020330D01*
X005580Y020330D02*
X005580Y020100D01*
X005734Y020177D01*
X005811Y020177D01*
X005887Y020100D01*
X005887Y019947D01*
X005811Y019870D01*
X005657Y019870D01*
X005580Y019947D01*
X005580Y020330D02*
X005887Y020330D01*
X005887Y019330D02*
X005734Y019254D01*
X005580Y019100D01*
X005811Y019100D01*
X005887Y019023D01*
X005887Y018947D01*
X005811Y018870D01*
X005657Y018870D01*
X005580Y018947D01*
X005580Y019100D01*
X005427Y018947D02*
X005427Y019254D01*
X005350Y019330D01*
X005120Y019330D01*
X005120Y018870D01*
X005350Y018870D01*
X005427Y018947D01*
X005350Y018330D02*
X005120Y018330D01*
X005120Y017870D01*
X005350Y017870D01*
X005427Y017947D01*
X005427Y018254D01*
X005350Y018330D01*
X005580Y018330D02*
X005887Y018330D01*
X005887Y018254D01*
X005580Y017947D01*
X005580Y017870D01*
X005580Y017330D02*
X005580Y016947D01*
X005657Y016870D01*
X005811Y016870D01*
X005887Y016947D01*
X005887Y017330D01*
X006041Y017177D02*
X006194Y017330D01*
X006194Y016870D01*
X006041Y016870D02*
X006348Y016870D01*
X006271Y016330D02*
X006118Y016330D01*
X006041Y016254D01*
X006041Y015947D01*
X006348Y016254D01*
X006348Y015947D01*
X006271Y015870D01*
X006118Y015870D01*
X006041Y015947D01*
X005887Y015947D02*
X005887Y016330D01*
X005887Y015947D02*
X005811Y015870D01*
X005657Y015870D01*
X005580Y015947D01*
X005580Y016330D01*
X005427Y016254D02*
X005427Y016100D01*
X005350Y016023D01*
X005120Y016023D01*
X005120Y015870D02*
X005120Y016330D01*
X005350Y016330D01*
X005427Y016254D01*
X005120Y016870D02*
X005120Y017330D01*
X005350Y017330D01*
X005427Y017254D01*
X005427Y017100D01*
X005350Y017023D01*
X005120Y017023D01*
X005120Y015330D02*
X005427Y014870D01*
X005427Y015330D01*
X005580Y015254D02*
X005580Y014947D01*
X005657Y014870D01*
X005811Y014870D01*
X005887Y014947D01*
X005887Y015254D02*
X005811Y015330D01*
X005657Y015330D01*
X005580Y015254D01*
X005120Y015330D02*
X005120Y014870D01*
X005120Y014330D02*
X005427Y013870D01*
X005427Y014330D01*
X005580Y014254D02*
X005580Y013947D01*
X005657Y013870D01*
X005811Y013870D01*
X005887Y013947D01*
X005887Y014254D02*
X005811Y014330D01*
X005657Y014330D01*
X005580Y014254D01*
X005120Y014330D02*
X005120Y013870D01*
X005120Y013330D02*
X005120Y013023D01*
X005273Y012870D01*
X005427Y013023D01*
X005427Y013330D01*
X005580Y013254D02*
X005580Y012947D01*
X005657Y012870D01*
X005811Y012870D01*
X005887Y012947D01*
X006041Y012947D02*
X006041Y013254D01*
X006118Y013330D01*
X006271Y013330D01*
X006348Y013254D01*
X006348Y012947D02*
X006271Y012870D01*
X006118Y012870D01*
X006041Y012947D01*
X005887Y013254D02*
X005811Y013330D01*
X005657Y013330D01*
X005580Y013254D01*
X005657Y012330D02*
X005580Y012254D01*
X005580Y011947D01*
X005657Y011870D01*
X005811Y011870D01*
X005887Y011947D01*
X006041Y011947D02*
X006041Y012254D01*
X006118Y012330D01*
X006271Y012330D01*
X006348Y012254D01*
X006348Y011947D02*
X006271Y011870D01*
X006118Y011870D01*
X006041Y011947D01*
X005887Y012254D02*
X005811Y012330D01*
X005657Y012330D01*
X005427Y012330D02*
X005427Y012023D01*
X005273Y011870D01*
X005120Y012023D01*
X005120Y012330D01*
X005120Y011330D02*
X005350Y011330D01*
X005427Y011254D01*
X005427Y011100D01*
X005350Y011023D01*
X005120Y011023D01*
X005120Y010870D02*
X005120Y011330D01*
X005580Y011254D02*
X005580Y010947D01*
X005657Y010870D01*
X005811Y010870D01*
X005887Y010947D01*
X006041Y010947D02*
X006041Y010870D01*
X006041Y010947D02*
X006348Y011254D01*
X006348Y011330D01*
X006041Y011330D01*
X005887Y011254D02*
X005811Y011330D01*
X005657Y011330D01*
X005580Y011254D01*
X005580Y010330D02*
X005811Y010330D01*
X005887Y010254D01*
X005887Y010177D01*
X005811Y010100D01*
X005580Y010100D01*
X005427Y010100D02*
X005427Y010254D01*
X005350Y010330D01*
X005120Y010330D01*
X005120Y009870D01*
X005120Y010023D02*
X005350Y010023D01*
X005427Y010100D01*
X005580Y009870D02*
X005580Y010330D01*
X005811Y010100D02*
X005887Y010023D01*
X005887Y009947D01*
X005811Y009870D01*
X005580Y009870D01*
X005580Y009330D02*
X005811Y009330D01*
X005887Y009254D01*
X005887Y008947D01*
X005811Y008870D01*
X005580Y008870D01*
X005580Y009330D01*
X005427Y009177D02*
X005427Y008870D01*
X005427Y009100D02*
X005120Y009100D01*
X005120Y009177D02*
X005273Y009330D01*
X005427Y009177D01*
X005120Y009177D02*
X005120Y008870D01*
X005273Y008330D02*
X005120Y008177D01*
X005120Y007870D01*
X005120Y008100D02*
X005427Y008100D01*
X005427Y008177D02*
X005427Y007870D01*
X005580Y007870D02*
X005580Y008330D01*
X005811Y008330D01*
X005887Y008254D01*
X005887Y007947D01*
X005811Y007870D01*
X005580Y007870D01*
X005427Y008177D02*
X005273Y008330D01*
X005273Y007330D02*
X005120Y007177D01*
X005120Y006870D01*
X005120Y007100D02*
X005427Y007100D01*
X005427Y007177D02*
X005427Y006870D01*
X005580Y006870D02*
X005580Y007330D01*
X005811Y007330D01*
X005887Y007254D01*
X005887Y006947D01*
X005811Y006870D01*
X005580Y006870D01*
X005427Y007177D02*
X005273Y007330D01*
X005273Y006330D02*
X005120Y006177D01*
X005120Y005870D01*
X005120Y006100D02*
X005427Y006100D01*
X005427Y006177D02*
X005427Y005870D01*
X005580Y005870D02*
X005580Y006330D01*
X005811Y006330D01*
X005887Y006254D01*
X005887Y005947D01*
X005811Y005870D01*
X005580Y005870D01*
X005427Y006177D02*
X005273Y006330D01*
X005273Y005330D02*
X005120Y005177D01*
X005120Y004870D01*
X005120Y005100D02*
X005427Y005100D01*
X005427Y005177D02*
X005427Y004870D01*
X005580Y004870D02*
X005580Y005330D01*
X005811Y005330D01*
X005887Y005254D01*
X005887Y004947D01*
X005811Y004870D01*
X005580Y004870D01*
X005427Y005177D02*
X005273Y005330D01*
X005273Y004330D02*
X005120Y004177D01*
X005120Y003870D01*
X005120Y004100D02*
X005427Y004100D01*
X005427Y004177D02*
X005427Y003870D01*
X005580Y003870D02*
X005580Y004330D01*
X005811Y004330D01*
X005887Y004254D01*
X005887Y003947D01*
X005811Y003870D01*
X005580Y003870D01*
X005427Y004177D02*
X005273Y004330D01*
X005273Y003330D02*
X005120Y003177D01*
X005120Y002870D01*
X005120Y003100D02*
X005427Y003100D01*
X005427Y003177D02*
X005427Y002870D01*
X005580Y002870D02*
X005580Y003330D01*
X005811Y003330D01*
X005887Y003254D01*
X005887Y002947D01*
X005811Y002870D01*
X005580Y002870D01*
X005427Y003177D02*
X005273Y003330D01*
X005273Y002330D02*
X005120Y002177D01*
X005120Y001870D01*
X005120Y002100D02*
X005427Y002100D01*
X005427Y002177D02*
X005427Y001870D01*
X005580Y001870D02*
X005580Y002330D01*
X005811Y002330D01*
X005887Y002254D01*
X005887Y001947D01*
X005811Y001870D01*
X005580Y001870D01*
X005427Y002177D02*
X005273Y002330D01*
X006041Y002330D02*
X006348Y002330D01*
X006348Y002254D01*
X006041Y001947D01*
X006041Y001870D01*
X006118Y002870D02*
X006271Y002870D01*
X006348Y002947D01*
X006348Y003023D01*
X006271Y003100D01*
X006041Y003100D01*
X006041Y002947D01*
X006118Y002870D01*
X006041Y003100D02*
X006194Y003254D01*
X006348Y003330D01*
X006271Y003870D02*
X006118Y003870D01*
X006041Y003947D01*
X006041Y004100D02*
X006194Y004177D01*
X006271Y004177D01*
X006348Y004100D01*
X006348Y003947D01*
X006271Y003870D01*
X006041Y004100D02*
X006041Y004330D01*
X006348Y004330D01*
X006271Y004870D02*
X006271Y005330D01*
X006041Y005100D01*
X006348Y005100D01*
X006271Y005870D02*
X006118Y005870D01*
X006041Y005947D01*
X006194Y006100D02*
X006271Y006100D01*
X006348Y006023D01*
X006348Y005947D01*
X006271Y005870D01*
X006271Y006100D02*
X006348Y006177D01*
X006348Y006254D01*
X006271Y006330D01*
X006118Y006330D01*
X006041Y006254D01*
X006041Y006870D02*
X006348Y007177D01*
X006348Y007254D01*
X006271Y007330D01*
X006118Y007330D01*
X006041Y007254D01*
X006041Y006870D02*
X006348Y006870D01*
X006348Y007870D02*
X006041Y007870D01*
X006194Y007870D02*
X006194Y008330D01*
X006041Y008177D01*
X006118Y008870D02*
X006041Y008947D01*
X006348Y009254D01*
X006348Y008947D01*
X006271Y008870D01*
X006118Y008870D01*
X006041Y008947D02*
X006041Y009254D01*
X006118Y009330D01*
X006271Y009330D01*
X006348Y009254D01*
X006271Y009870D02*
X006118Y009870D01*
X006041Y009947D01*
X006348Y010254D01*
X006348Y009947D01*
X006271Y009870D01*
X006041Y009947D02*
X006041Y010254D01*
X006118Y010330D01*
X006271Y010330D01*
X006348Y010254D01*
X006348Y016254D02*
X006271Y016330D01*
X002580Y015922D02*
X002120Y015922D01*
X002120Y016229D01*
X002350Y016075D02*
X002350Y015922D01*
X002350Y015615D02*
X002350Y015462D01*
X002503Y015308D02*
X002196Y015308D01*
X002120Y015231D01*
X002120Y015078D01*
X002196Y015001D01*
X002503Y015001D01*
X002580Y015078D01*
X002580Y015231D01*
X002503Y015308D01*
X002580Y015462D02*
X002120Y015462D01*
X002120Y015768D01*
X002120Y014848D02*
X002580Y014541D01*
X002580Y014387D02*
X002120Y014387D01*
X002120Y014080D02*
X002580Y014387D01*
X002580Y014080D02*
X002120Y014080D01*
X002196Y013927D02*
X002120Y013850D01*
X002120Y013697D01*
X002196Y013620D01*
X002503Y013620D01*
X002580Y013697D01*
X002580Y013850D01*
X002503Y013927D01*
X002196Y013927D01*
X001330Y013612D02*
X001330Y013459D01*
X001253Y013382D01*
X000946Y013689D01*
X001253Y013689D01*
X001330Y013612D01*
X001253Y013382D02*
X000946Y013382D01*
X000870Y013459D01*
X000870Y013612D01*
X000946Y013689D01*
X000946Y013229D02*
X001253Y012922D01*
X001330Y012999D01*
X001330Y013152D01*
X001253Y013229D01*
X000946Y013229D01*
X000870Y013152D01*
X000870Y012999D01*
X000946Y012922D01*
X001253Y012922D01*
X001253Y012768D02*
X001177Y012768D01*
X001100Y012692D01*
X001100Y012462D01*
X001253Y012462D01*
X001330Y012538D01*
X001330Y012692D01*
X001253Y012768D01*
X001100Y012462D02*
X000946Y012615D01*
X000870Y012768D01*
X000870Y012155D02*
X001330Y012155D01*
X001330Y012308D02*
X001330Y012001D01*
X001023Y012001D02*
X000870Y012155D01*
X000870Y011848D02*
X001330Y011541D01*
X001330Y011387D02*
X001023Y011387D01*
X000870Y011234D01*
X001023Y011080D01*
X001330Y011080D01*
X001253Y010927D02*
X001330Y010850D01*
X001330Y010697D01*
X001253Y010620D01*
X000946Y010927D01*
X001253Y010927D01*
X001100Y011080D02*
X001100Y011387D01*
X000946Y010927D02*
X000870Y010850D01*
X000870Y010697D01*
X000946Y010620D01*
X001253Y010620D01*
X001253Y010466D02*
X001330Y010390D01*
X001330Y010236D01*
X001253Y010160D01*
X000946Y010466D01*
X001253Y010466D01*
X001253Y010160D02*
X000946Y010160D01*
X000870Y010236D01*
X000870Y010390D01*
X000946Y010466D01*
X000870Y010006D02*
X000870Y009699D01*
X001100Y009699D01*
X001023Y009853D01*
X001023Y009929D01*
X001100Y010006D01*
X001253Y010006D01*
X001330Y009929D01*
X001330Y009776D01*
X001253Y009699D01*
X001330Y009546D02*
X001330Y009239D01*
X001330Y009392D02*
X000870Y009392D01*
X001023Y009239D01*
X000870Y009085D02*
X001330Y008778D01*
X001253Y008625D02*
X001330Y008548D01*
X001330Y008395D01*
X001253Y008318D01*
X000946Y008625D01*
X001253Y008625D01*
X001253Y008318D02*
X000946Y008318D01*
X000870Y008395D01*
X000870Y008548D01*
X000946Y008625D01*
X000946Y008165D02*
X001253Y007858D01*
X001330Y007934D01*
X001330Y008088D01*
X001253Y008165D01*
X000946Y008165D01*
X000870Y008088D01*
X000870Y007934D01*
X000946Y007858D01*
X001253Y007858D01*
X001253Y007704D02*
X001100Y007704D01*
X001023Y007627D01*
X001023Y007551D01*
X001100Y007397D01*
X000870Y007397D01*
X000870Y007704D01*
X000870Y007090D02*
X001330Y007090D01*
X001330Y006937D02*
X001330Y007244D01*
X001253Y007397D02*
X001330Y007474D01*
X001330Y007627D01*
X001253Y007704D01*
X001620Y007551D02*
X001620Y007320D01*
X002080Y007320D01*
X001927Y007320D02*
X001927Y007551D01*
X001850Y007627D01*
X001696Y007627D01*
X001620Y007551D01*
X001850Y007781D02*
X002003Y007781D01*
X002080Y007858D01*
X002080Y008011D01*
X002003Y008088D01*
X001850Y008088D01*
X001773Y008011D01*
X001773Y007858D01*
X001850Y007781D01*
X001927Y008241D02*
X001773Y008395D01*
X001773Y008471D01*
X001773Y008625D02*
X001773Y008778D01*
X001696Y008702D02*
X002003Y008702D01*
X002080Y008778D01*
X002080Y008241D02*
X001773Y008241D01*
X000870Y007090D02*
X001023Y006937D01*
X001100Y006783D02*
X001100Y006476D01*
X001253Y006323D02*
X001330Y006246D01*
X001330Y006093D01*
X001253Y006016D01*
X000946Y006016D01*
X000870Y006093D01*
X000870Y006246D01*
X000946Y006323D01*
X000946Y005863D02*
X001100Y005863D01*
X001177Y005786D01*
X001177Y005556D01*
X001330Y005556D02*
X000870Y005556D01*
X000870Y005786D01*
X000946Y005863D01*
X001543Y005709D02*
X001620Y005709D01*
X001773Y005709D02*
X002080Y005709D01*
X002080Y005632D02*
X002080Y005786D01*
X002003Y005939D02*
X002080Y006016D01*
X002080Y006169D01*
X002003Y006246D01*
X001850Y006246D01*
X001773Y006169D01*
X001773Y006016D01*
X001850Y005939D01*
X002003Y005939D01*
X001773Y005709D02*
X001773Y005632D01*
X001773Y005479D02*
X001773Y005249D01*
X001850Y005172D01*
X001927Y005249D01*
X001927Y005402D01*
X002003Y005479D01*
X002080Y005402D01*
X002080Y005172D01*
X002080Y005018D02*
X001850Y005018D01*
X001773Y004942D01*
X001773Y004712D01*
X002080Y004712D01*
X002080Y004558D02*
X002080Y004328D01*
X002003Y004251D01*
X001927Y004328D01*
X001927Y004558D01*
X001850Y004558D02*
X002080Y004558D01*
X001850Y004558D02*
X001773Y004481D01*
X001773Y004328D01*
X001850Y004098D02*
X002003Y004098D01*
X002080Y004021D01*
X002080Y003791D01*
X002233Y003791D02*
X001773Y003791D01*
X001773Y004021D01*
X001850Y004098D01*
X001773Y003637D02*
X002080Y003330D01*
X002080Y003177D02*
X002080Y002870D01*
X001620Y002870D01*
X001620Y003177D01*
X001773Y003330D02*
X002080Y003637D01*
X001850Y003023D02*
X001850Y002870D01*
X001330Y002947D02*
X001253Y002870D01*
X001330Y002947D02*
X001330Y003100D01*
X001253Y003177D01*
X001177Y003177D01*
X001100Y003100D01*
X001100Y002947D01*
X001023Y002870D01*
X000946Y002870D01*
X000870Y002947D01*
X000870Y003100D01*
X000946Y003177D01*
X000870Y003330D02*
X001330Y003330D01*
X001100Y003330D02*
X001023Y003407D01*
X001023Y003561D01*
X001100Y003637D01*
X001330Y003637D01*
X001253Y003791D02*
X001177Y003868D01*
X001177Y004098D01*
X001100Y004098D02*
X001330Y004098D01*
X001330Y003868D01*
X001253Y003791D01*
X001023Y003868D02*
X001023Y004021D01*
X001100Y004098D01*
X001177Y004251D02*
X001023Y004405D01*
X001023Y004481D01*
X001023Y004635D02*
X001023Y004865D01*
X001100Y004942D01*
X001253Y004942D01*
X001330Y004865D01*
X001330Y004635D01*
X001483Y004635D02*
X001023Y004635D01*
X001023Y004251D02*
X001330Y004251D01*
X001773Y006400D02*
X001773Y006630D01*
X001850Y006707D01*
X002080Y006707D01*
X002080Y006400D02*
X001773Y006400D01*
X003398Y001705D02*
X003398Y001245D01*
X003245Y001245D02*
X003552Y001245D01*
X003245Y001552D02*
X003398Y001705D01*
X008370Y001629D02*
X008447Y001705D01*
X008600Y001705D01*
X008677Y001629D01*
X008677Y001552D01*
X008600Y001475D01*
X008677Y001398D01*
X008677Y001322D01*
X008600Y001245D01*
X008447Y001245D01*
X008370Y001322D01*
X008523Y001475D02*
X008600Y001475D01*
X008830Y001552D02*
X008984Y001705D01*
X008984Y001245D01*
X009137Y001245D02*
X008830Y001245D01*
X002580Y019120D02*
X002120Y019120D01*
X002120Y019350D01*
X002196Y019427D01*
X002350Y019427D01*
X002427Y019350D01*
X002427Y019120D01*
X002503Y019580D02*
X002196Y019580D01*
X002120Y019657D01*
X002120Y019811D01*
X002196Y019887D01*
X002503Y019887D01*
X002580Y019811D01*
X002580Y019657D01*
X002503Y019580D01*
X002580Y020041D02*
X002427Y020194D01*
X002580Y020348D01*
X002120Y020348D01*
X002120Y020501D02*
X002580Y020501D01*
X002580Y020808D01*
X002580Y020962D02*
X002120Y020962D01*
X002120Y021192D01*
X002196Y021268D01*
X002350Y021268D01*
X002427Y021192D01*
X002427Y020962D01*
X002427Y021115D02*
X002580Y021268D01*
X002350Y020655D02*
X002350Y020501D01*
X002120Y020041D02*
X002580Y020041D01*
X002120Y020501D02*
X002120Y020808D01*
X005580Y026870D02*
X005734Y027023D01*
X005887Y026870D01*
X006041Y027100D02*
X006194Y027100D01*
X005580Y027330D02*
X005580Y026870D01*
X010620Y030947D02*
X010697Y030870D01*
X010850Y030870D01*
X010927Y030947D01*
X010927Y031254D01*
X010850Y031330D01*
X010697Y031330D01*
X010620Y031254D01*
X010620Y030947D01*
X011080Y030870D02*
X011311Y030870D01*
X011387Y030947D01*
X011387Y031254D01*
X011311Y031330D01*
X011080Y031330D01*
X011080Y030870D01*
D12*
X016718Y024353D02*
X016670Y024305D01*
X016670Y024208D01*
X016718Y024160D01*
X016912Y024160D01*
X016718Y024353D01*
X016912Y024353D01*
X016960Y024305D01*
X016960Y024208D01*
X016912Y024160D01*
X016912Y024058D02*
X016960Y024010D01*
X016960Y023913D01*
X016912Y023865D01*
X016815Y023962D02*
X016815Y024010D01*
X016863Y024058D01*
X016912Y024058D01*
X016815Y024010D02*
X016767Y024058D01*
X016718Y024058D01*
X016670Y024010D01*
X016670Y023913D01*
X016718Y023865D01*
X017670Y024058D02*
X017718Y023962D01*
X017815Y023865D01*
X017815Y024010D01*
X017863Y024058D01*
X017912Y024058D01*
X017960Y024010D01*
X017960Y023913D01*
X017912Y023865D01*
X017815Y023865D01*
X017912Y024160D02*
X017718Y024160D01*
X017670Y024208D01*
X017670Y024305D01*
X017718Y024353D01*
X017912Y024160D01*
X017960Y024208D01*
X017960Y024305D01*
X017912Y024353D01*
X017718Y024353D01*
X017960Y007978D02*
X017960Y007785D01*
X017960Y007881D02*
X017670Y007881D01*
X017767Y007785D01*
X017767Y007683D02*
X017815Y007635D01*
X017863Y007683D01*
X017912Y007683D01*
X017960Y007635D01*
X017960Y007538D01*
X017912Y007490D01*
X017815Y007587D02*
X017815Y007635D01*
X017767Y007683D02*
X017718Y007683D01*
X017670Y007635D01*
X017670Y007538D01*
X017718Y007490D01*
X016960Y007740D02*
X016960Y007933D01*
X016960Y007837D02*
X016670Y007837D01*
X016767Y007740D01*
D13*
X016350Y008100D02*
X018350Y008100D01*
X018350Y023600D01*
X016350Y023600D01*
X016350Y008100D01*
D14*
X001836Y015159D03*
X001364Y015159D03*
X001364Y020659D03*
X001836Y020659D03*
D15*
X001600Y020659D03*
X001600Y015159D03*
D16*
X003600Y015350D02*
X003600Y014850D01*
X003850Y014600D01*
X004350Y014600D01*
X004600Y014850D01*
X004600Y015350D01*
X004350Y015600D01*
X003850Y015600D01*
X003600Y015350D01*
X003850Y015600D02*
X003600Y015850D01*
X003600Y016350D01*
X003850Y016600D01*
X003600Y016850D01*
X003600Y017350D01*
X003850Y017600D01*
X003600Y017850D01*
X003600Y018350D01*
X003850Y018600D01*
X004350Y018600D01*
X004600Y018350D01*
X004600Y017850D01*
X004350Y017600D01*
X004600Y017350D01*
X004600Y016850D01*
X004350Y016600D01*
X004600Y016350D01*
X004600Y015850D01*
X004350Y015600D01*
X004350Y016600D02*
X003850Y016600D01*
X003850Y017600D02*
X004350Y017600D01*
X004350Y018600D02*
X004600Y018850D01*
X004600Y019350D01*
X004350Y019600D01*
X004600Y019850D01*
X004600Y020350D01*
X004350Y020600D01*
X004600Y020850D01*
X004600Y021350D01*
X004350Y021600D01*
X004600Y021850D01*
X004600Y022350D01*
X004350Y022600D01*
X004600Y022850D01*
X004600Y023350D01*
X004350Y023600D01*
X004600Y023850D01*
X004600Y024350D01*
X004350Y024600D01*
X004600Y024850D01*
X004600Y025350D01*
X004350Y025600D01*
X004600Y025850D01*
X004600Y026350D01*
X004350Y026600D01*
X004600Y026850D01*
X004600Y027350D01*
X004350Y027600D01*
X004600Y027850D01*
X004600Y028350D01*
X004350Y028600D01*
X004600Y028850D01*
X004600Y029350D01*
X004350Y029600D01*
X004600Y029850D01*
X004600Y030350D01*
X004350Y030600D01*
X004600Y030850D01*
X004600Y031350D01*
X004350Y031600D01*
X003850Y031600D01*
X003600Y031350D01*
X003600Y030850D01*
X003850Y030600D01*
X004350Y030600D01*
X003850Y030600D02*
X003600Y030350D01*
X003600Y029850D01*
X003850Y029600D01*
X004350Y029600D01*
X003850Y029600D02*
X003600Y029350D01*
X003600Y028850D01*
X003850Y028600D01*
X004350Y028600D01*
X003850Y028600D02*
X003600Y028350D01*
X003600Y027850D01*
X003850Y027600D01*
X004350Y027600D01*
X003850Y027600D02*
X003600Y027350D01*
X003600Y026850D01*
X003850Y026600D01*
X004350Y026600D01*
X003850Y026600D02*
X003600Y026350D01*
X003600Y025850D01*
X003850Y025600D01*
X004350Y025600D01*
X004350Y024600D02*
X003850Y024600D01*
X003600Y024850D01*
X003600Y025350D01*
X003850Y025600D01*
X003850Y024600D02*
X003600Y024350D01*
X003600Y023850D01*
X003850Y023600D01*
X004350Y023600D01*
X003850Y023600D02*
X003600Y023350D01*
X003600Y022850D01*
X003850Y022600D01*
X004350Y022600D01*
X003850Y022600D02*
X003600Y022350D01*
X003600Y021850D01*
X003850Y021600D01*
X004350Y021600D01*
X003850Y021600D02*
X003600Y021350D01*
X003600Y020850D01*
X003850Y020600D01*
X004350Y020600D01*
X003850Y020600D02*
X003600Y020350D01*
X003600Y019850D01*
X003850Y019600D01*
X004350Y019600D01*
X003850Y019600D02*
X003600Y019350D01*
X003600Y018850D01*
X003850Y018600D01*
X003850Y014600D02*
X003600Y014350D01*
X003600Y013850D01*
X003850Y013600D01*
X004350Y013600D01*
X004600Y013850D01*
X004600Y014350D01*
X004350Y014600D01*
X004350Y013600D02*
X004600Y013350D01*
X004600Y012850D01*
X004350Y012600D01*
X004600Y012350D01*
X004600Y011850D01*
X004350Y011600D01*
X004600Y011350D01*
X004600Y010850D01*
X004350Y010600D01*
X004600Y010350D01*
X004600Y009850D01*
X004350Y009600D01*
X004600Y009350D01*
X004600Y008850D01*
X004350Y008600D01*
X004600Y008350D01*
X004600Y007850D01*
X004350Y007600D01*
X004600Y007350D01*
X004600Y006850D01*
X004350Y006600D01*
X004600Y006350D01*
X004600Y005850D01*
X004350Y005600D01*
X004600Y005350D01*
X004600Y004850D01*
X004350Y004600D01*
X004600Y004350D01*
X004600Y003850D01*
X004350Y003600D01*
X004600Y003350D01*
X004600Y002850D01*
X004350Y002600D01*
X004600Y002350D01*
X004600Y001850D01*
X004350Y001600D01*
X003850Y001600D01*
X003600Y001850D01*
X003600Y002350D01*
X003850Y002600D01*
X003600Y002850D01*
X003600Y003350D01*
X003850Y003600D01*
X004350Y003600D01*
X003850Y003600D02*
X003600Y003850D01*
X003600Y004350D01*
X003850Y004600D01*
X003600Y004850D01*
X003600Y005350D01*
X003850Y005600D01*
X003600Y005850D01*
X003600Y006350D01*
X003850Y006600D01*
X004350Y006600D01*
X003850Y006600D02*
X003600Y006850D01*
X003600Y007350D01*
X003850Y007600D01*
X003600Y007850D01*
X003600Y008350D01*
X003850Y008600D01*
X003600Y008850D01*
X003600Y009350D01*
X003850Y009600D01*
X004350Y009600D01*
X003850Y009600D02*
X003600Y009850D01*
X003600Y010350D01*
X003850Y010600D01*
X003600Y010850D01*
X003600Y011350D01*
X003850Y011600D01*
X003600Y011850D01*
X003600Y012350D01*
X003850Y012600D01*
X004350Y012600D01*
X003850Y012600D02*
X003600Y012850D01*
X003600Y013350D01*
X003850Y013600D01*
X003850Y011600D02*
X004350Y011600D01*
X004350Y010600D02*
X003850Y010600D01*
X003850Y008600D02*
X004350Y008600D01*
X004350Y007600D02*
X003850Y007600D01*
X003850Y005600D02*
X004350Y005600D01*
X004350Y004600D02*
X003850Y004600D01*
X003850Y002600D02*
X004350Y002600D01*
X009100Y002350D02*
X009100Y001850D01*
X009350Y001600D01*
X009850Y001600D01*
X010100Y001850D01*
X010100Y002350D01*
X009850Y002600D01*
X010100Y002850D01*
X010100Y003350D01*
X009850Y003600D01*
X009350Y003600D01*
X009100Y003350D01*
X009100Y002850D01*
X009350Y002600D01*
X009850Y002600D01*
X009350Y002600D02*
X009100Y002350D01*
X009350Y003600D02*
X009100Y003850D01*
X009100Y004350D01*
X009350Y004600D01*
X009100Y004850D01*
X009100Y005350D01*
X009350Y005600D01*
X009100Y005850D01*
X009100Y006350D01*
X009350Y006600D01*
X009850Y006600D01*
X010100Y006350D01*
X010100Y005850D01*
X009850Y005600D01*
X010100Y005350D01*
X010100Y004850D01*
X009850Y004600D01*
X010100Y004350D01*
X010100Y003850D01*
X009850Y003600D01*
X009850Y004600D02*
X009350Y004600D01*
X009350Y005600D02*
X009850Y005600D01*
X009850Y006600D02*
X010100Y006850D01*
X010100Y007350D01*
X009850Y007600D01*
X010100Y007850D01*
X010100Y008350D01*
X009850Y008600D01*
X010100Y008850D01*
X010100Y009350D01*
X009850Y009600D01*
X009350Y009600D01*
X009100Y009350D01*
X009100Y008850D01*
X009350Y008600D01*
X009850Y008600D01*
X009350Y008600D02*
X009100Y008350D01*
X009100Y007850D01*
X009350Y007600D01*
X009850Y007600D01*
X009350Y007600D02*
X009100Y007350D01*
X009100Y006850D01*
X009350Y006600D01*
X009350Y009600D02*
X009100Y009850D01*
X009100Y010350D01*
X009350Y010600D01*
X009100Y010850D01*
X009100Y011350D01*
X009350Y011600D01*
X009100Y011850D01*
X009100Y012350D01*
X009350Y012600D01*
X009850Y012600D01*
X010100Y012350D01*
X010100Y011850D01*
X009850Y011600D01*
X010100Y011350D01*
X010100Y010850D01*
X009850Y010600D01*
X010100Y010350D01*
X010100Y009850D01*
X009850Y009600D01*
X009850Y010600D02*
X009350Y010600D01*
X009350Y011600D02*
X009850Y011600D01*
X009850Y012600D02*
X010100Y012850D01*
X010100Y013350D01*
X009850Y013600D01*
X010100Y013850D01*
X010100Y014350D01*
X009850Y014600D01*
X010100Y014850D01*
X010100Y015350D01*
X009850Y015600D01*
X009350Y015600D01*
X009100Y015350D01*
X009100Y014850D01*
X009350Y014600D01*
X009850Y014600D01*
X009350Y014600D02*
X009100Y014350D01*
X009100Y013850D01*
X009350Y013600D01*
X009850Y013600D01*
X009350Y013600D02*
X009100Y013350D01*
X009100Y012850D01*
X009350Y012600D01*
X009350Y015600D02*
X009100Y015850D01*
X009100Y016350D01*
X009350Y016600D01*
X009100Y016850D01*
X009100Y017350D01*
X009350Y017600D01*
X009100Y017850D01*
X009100Y018350D01*
X009350Y018600D01*
X009850Y018600D01*
X010100Y018350D01*
X010100Y017850D01*
X009850Y017600D01*
X010100Y017350D01*
X010100Y016850D01*
X009850Y016600D01*
X010100Y016350D01*
X010100Y015850D01*
X009850Y015600D01*
X009850Y016600D02*
X009350Y016600D01*
X009350Y017600D02*
X009850Y017600D01*
X009850Y018600D02*
X010100Y018850D01*
X010100Y019350D01*
X009850Y019600D01*
X010100Y019850D01*
X010100Y020350D01*
X009850Y020600D01*
X010100Y020850D01*
X010100Y021350D01*
X009850Y021600D01*
X010100Y021850D01*
X010100Y022350D01*
X009850Y022600D01*
X010100Y022850D01*
X010100Y023350D01*
X009850Y023600D01*
X010100Y023850D01*
X010100Y024350D01*
X009850Y024600D01*
X010100Y024850D01*
X010100Y025350D01*
X009850Y025600D01*
X010100Y025850D01*
X010100Y026350D01*
X009850Y026600D01*
X010100Y026850D01*
X010100Y027350D01*
X009850Y027600D01*
X010100Y027850D01*
X010100Y028350D01*
X009850Y028600D01*
X010100Y028850D01*
X010100Y029350D01*
X009850Y029600D01*
X010100Y029850D01*
X010100Y030350D01*
X009850Y030600D01*
X010100Y030850D01*
X010100Y031350D01*
X009850Y031600D01*
X009350Y031600D01*
X009100Y031350D01*
X009100Y030850D01*
X009350Y030600D01*
X009850Y030600D01*
X009350Y030600D02*
X009100Y030350D01*
X009100Y029850D01*
X009350Y029600D01*
X009850Y029600D01*
X009350Y029600D02*
X009100Y029350D01*
X009100Y028850D01*
X009350Y028600D01*
X009850Y028600D01*
X009350Y028600D02*
X009100Y028350D01*
X009100Y027850D01*
X009350Y027600D01*
X009850Y027600D01*
X009350Y027600D02*
X009100Y027350D01*
X009100Y026850D01*
X009350Y026600D01*
X009850Y026600D01*
X009350Y026600D02*
X009100Y026350D01*
X009100Y025850D01*
X009350Y025600D01*
X009850Y025600D01*
X009350Y025600D02*
X009100Y025350D01*
X009100Y024850D01*
X009350Y024600D01*
X009850Y024600D01*
X009350Y024600D02*
X009100Y024350D01*
X009100Y023850D01*
X009350Y023600D01*
X009850Y023600D01*
X009350Y023600D02*
X009100Y023350D01*
X009100Y022850D01*
X009350Y022600D01*
X009850Y022600D01*
X009350Y022600D02*
X009100Y022350D01*
X009100Y021850D01*
X009350Y021600D01*
X009850Y021600D01*
X009350Y021600D02*
X009100Y021350D01*
X009100Y020850D01*
X009350Y020600D01*
X009850Y020600D01*
X009350Y020600D02*
X009100Y020350D01*
X009100Y019850D01*
X009350Y019600D01*
X009850Y019600D01*
X009350Y019600D02*
X009100Y019350D01*
X009100Y018850D01*
X009350Y018600D01*
M02*
