%FSLAX45Y45*%
G04 Gerber Fmt 4.5, Leading zero omitted, Abs format (unit mm)*
G04 Created by KiCad (PCBNEW 5.1.10-88a1d61d58~88~ubuntu20.10.1) date 2021-05-13 17:52:19*
%MOMM*%
%LPD*%
G01*
G04 APERTURE LIST*
%TA.AperFunction,Profile*%
%ADD10C,0.100000*%
%TD*%
%ADD11C,0.200000*%
%ADD12C,0.300000*%
G04 APERTURE END LIST*
D10*
X6316000Y-8164000D02*
X6466000Y-8314000D01*
X6316000Y-3864000D02*
X6466000Y-3714000D01*
X14316000Y-8314000D02*
X6466000Y-8314000D01*
X14316000Y-3714000D02*
X14316000Y-8314000D01*
X6466000Y-3714000D02*
X14316000Y-3714000D01*
X6316000Y-8164000D02*
X6316000Y-3864000D01*
D11*
X13416400Y-4262900D02*
X13492600Y-4339100D01*
X13492600Y-4262900D02*
X13416400Y-4339100D01*
X13416400Y-4516900D02*
X13492600Y-4593100D01*
X13492600Y-4516900D02*
X13416400Y-4593100D01*
X13416400Y-4770900D02*
X13492600Y-4847100D01*
X13492600Y-4770900D02*
X13416400Y-4847100D01*
X13416400Y-5024900D02*
X13492600Y-5101100D01*
X13492600Y-5024900D02*
X13416400Y-5101100D01*
X13416400Y-5278900D02*
X13492600Y-5355100D01*
X13492600Y-5278900D02*
X13416400Y-5355100D01*
X13416400Y-5532900D02*
X13492600Y-5609100D01*
X13492600Y-5532900D02*
X13416400Y-5609100D01*
X13416400Y-5786900D02*
X13492600Y-5863100D01*
X13492600Y-5786900D02*
X13416400Y-5863100D01*
X13416400Y-6040900D02*
X13492600Y-6117100D01*
X13492600Y-6040900D02*
X13416400Y-6117100D01*
X13416400Y-6294900D02*
X13492600Y-6371100D01*
X13492600Y-6294900D02*
X13416400Y-6371100D01*
X13416400Y-6548900D02*
X13492600Y-6625100D01*
X13492600Y-6548900D02*
X13416400Y-6625100D01*
X13416400Y-6802900D02*
X13492600Y-6879100D01*
X13492600Y-6802900D02*
X13416400Y-6879100D01*
X13416400Y-7056900D02*
X13492600Y-7133100D01*
X13492600Y-7056900D02*
X13416400Y-7133100D01*
X13416400Y-7310900D02*
X13492600Y-7387100D01*
X13492600Y-7310900D02*
X13416400Y-7387100D01*
X13416400Y-7564900D02*
X13492600Y-7641100D01*
X13492600Y-7564900D02*
X13416400Y-7641100D01*
X13416400Y-7818900D02*
X13492600Y-7895100D01*
X13492600Y-7818900D02*
X13416400Y-7895100D01*
X13606900Y-4135900D02*
X13683100Y-4212100D01*
X13683100Y-4135900D02*
X13606900Y-4212100D01*
X13606900Y-4389900D02*
X13683100Y-4466100D01*
X13683100Y-4389900D02*
X13606900Y-4466100D01*
X13606900Y-4643900D02*
X13683100Y-4720100D01*
X13683100Y-4643900D02*
X13606900Y-4720100D01*
X13606900Y-4897900D02*
X13683100Y-4974100D01*
X13683100Y-4897900D02*
X13606900Y-4974100D01*
X13606900Y-5151900D02*
X13683100Y-5228100D01*
X13683100Y-5151900D02*
X13606900Y-5228100D01*
X13606900Y-5405900D02*
X13683100Y-5482100D01*
X13683100Y-5405900D02*
X13606900Y-5482100D01*
X13606900Y-5659900D02*
X13683100Y-5736100D01*
X13683100Y-5659900D02*
X13606900Y-5736100D01*
X13606900Y-5913900D02*
X13683100Y-5990100D01*
X13683100Y-5913900D02*
X13606900Y-5990100D01*
X13606900Y-6167900D02*
X13683100Y-6244100D01*
X13683100Y-6167900D02*
X13606900Y-6244100D01*
X13606900Y-6421900D02*
X13683100Y-6498100D01*
X13683100Y-6421900D02*
X13606900Y-6498100D01*
X13606900Y-6675900D02*
X13683100Y-6752100D01*
X13683100Y-6675900D02*
X13606900Y-6752100D01*
X13606900Y-6929900D02*
X13683100Y-7006100D01*
X13683100Y-6929900D02*
X13606900Y-7006100D01*
X13606900Y-7183900D02*
X13683100Y-7260100D01*
X13683100Y-7183900D02*
X13606900Y-7260100D01*
X13606900Y-7437900D02*
X13683100Y-7514100D01*
X13683100Y-7437900D02*
X13606900Y-7514100D01*
X13606900Y-7691900D02*
X13683100Y-7768100D01*
X13683100Y-7691900D02*
X13606900Y-7768100D01*
X13797400Y-4262900D02*
X13873600Y-4339100D01*
X13873600Y-4262900D02*
X13797400Y-4339100D01*
X13797400Y-4516900D02*
X13873600Y-4593100D01*
X13873600Y-4516900D02*
X13797400Y-4593100D01*
X13797400Y-4770900D02*
X13873600Y-4847100D01*
X13873600Y-4770900D02*
X13797400Y-4847100D01*
X13797400Y-5024900D02*
X13873600Y-5101100D01*
X13873600Y-5024900D02*
X13797400Y-5101100D01*
X13797400Y-5278900D02*
X13873600Y-5355100D01*
X13873600Y-5278900D02*
X13797400Y-5355100D01*
X13797400Y-5532900D02*
X13873600Y-5609100D01*
X13873600Y-5532900D02*
X13797400Y-5609100D01*
X13797400Y-5786900D02*
X13873600Y-5863100D01*
X13873600Y-5786900D02*
X13797400Y-5863100D01*
X13797400Y-6040900D02*
X13873600Y-6117100D01*
X13873600Y-6040900D02*
X13797400Y-6117100D01*
X13797400Y-6294900D02*
X13873600Y-6371100D01*
X13873600Y-6294900D02*
X13797400Y-6371100D01*
X13797400Y-6548900D02*
X13873600Y-6625100D01*
X13873600Y-6548900D02*
X13797400Y-6625100D01*
X13797400Y-6802900D02*
X13873600Y-6879100D01*
X13873600Y-6802900D02*
X13797400Y-6879100D01*
X13797400Y-7056900D02*
X13873600Y-7133100D01*
X13873600Y-7056900D02*
X13797400Y-7133100D01*
X13797400Y-7310900D02*
X13873600Y-7387100D01*
X13873600Y-7310900D02*
X13797400Y-7387100D01*
X13797400Y-7564900D02*
X13873600Y-7641100D01*
X13873600Y-7564900D02*
X13797400Y-7641100D01*
X13797400Y-7818900D02*
X13873600Y-7895100D01*
X13873600Y-7818900D02*
X13797400Y-7895100D01*
X13987900Y-4135900D02*
X14064100Y-4212100D01*
X14064100Y-4135900D02*
X13987900Y-4212100D01*
X13987900Y-4389900D02*
X14064100Y-4466100D01*
X14064100Y-4389900D02*
X13987900Y-4466100D01*
X13987900Y-4643900D02*
X14064100Y-4720100D01*
X14064100Y-4643900D02*
X13987900Y-4720100D01*
X13987900Y-4897900D02*
X14064100Y-4974100D01*
X14064100Y-4897900D02*
X13987900Y-4974100D01*
X13987900Y-5151900D02*
X14064100Y-5228100D01*
X14064100Y-5151900D02*
X13987900Y-5228100D01*
X13987900Y-5405900D02*
X14064100Y-5482100D01*
X14064100Y-5405900D02*
X13987900Y-5482100D01*
X13987900Y-5659900D02*
X14064100Y-5736100D01*
X14064100Y-5659900D02*
X13987900Y-5736100D01*
X13987900Y-5913900D02*
X14064100Y-5990100D01*
X14064100Y-5913900D02*
X13987900Y-5990100D01*
X13987900Y-6167900D02*
X14064100Y-6244100D01*
X14064100Y-6167900D02*
X13987900Y-6244100D01*
X13987900Y-6421900D02*
X14064100Y-6498100D01*
X14064100Y-6421900D02*
X13987900Y-6498100D01*
X13987900Y-6675900D02*
X14064100Y-6752100D01*
X14064100Y-6675900D02*
X13987900Y-6752100D01*
X13987900Y-6929900D02*
X14064100Y-7006100D01*
X14064100Y-6929900D02*
X13987900Y-7006100D01*
X13987900Y-7183900D02*
X14064100Y-7260100D01*
X14064100Y-7183900D02*
X13987900Y-7260100D01*
X13987900Y-7437900D02*
X14064100Y-7514100D01*
X14064100Y-7437900D02*
X13987900Y-7514100D01*
X13987900Y-7691900D02*
X14064100Y-7768100D01*
X14064100Y-7691900D02*
X13987900Y-7768100D01*
X7162000Y-4572000D02*
G75*
G03*
X7162000Y-4572000I-50000J0D01*
G01*
X7162000Y-5588000D02*
G75*
G03*
X7162000Y-5588000I-50000J0D01*
G01*
X7162000Y-5842000D02*
G75*
G03*
X7162000Y-5842000I-50000J0D01*
G01*
X7162000Y-6096000D02*
G75*
G03*
X7162000Y-6096000I-50000J0D01*
G01*
X7162000Y-6350000D02*
G75*
G03*
X7162000Y-6350000I-50000J0D01*
G01*
X7162000Y-6604000D02*
G75*
G03*
X7162000Y-6604000I-50000J0D01*
G01*
X7162000Y-6858000D02*
G75*
G03*
X7162000Y-6858000I-50000J0D01*
G01*
X7162000Y-7112000D02*
G75*
G03*
X7162000Y-7112000I-50000J0D01*
G01*
X7162000Y-7366000D02*
G75*
G03*
X7162000Y-7366000I-50000J0D01*
G01*
X7416000Y-4572000D02*
G75*
G03*
X7416000Y-4572000I-50000J0D01*
G01*
X8424000Y-5588000D02*
G75*
G03*
X8424000Y-5588000I-50000J0D01*
G01*
X8424000Y-5842000D02*
G75*
G03*
X8424000Y-5842000I-50000J0D01*
G01*
X8424000Y-6096000D02*
G75*
G03*
X8424000Y-6096000I-50000J0D01*
G01*
X8424000Y-6350000D02*
G75*
G03*
X8424000Y-6350000I-50000J0D01*
G01*
X8424000Y-6604000D02*
G75*
G03*
X8424000Y-6604000I-50000J0D01*
G01*
X8424000Y-6858000D02*
G75*
G03*
X8424000Y-6858000I-50000J0D01*
G01*
X8424000Y-7112000D02*
G75*
G03*
X8424000Y-7112000I-50000J0D01*
G01*
X8424000Y-7366000D02*
G75*
G03*
X8424000Y-7366000I-50000J0D01*
G01*
X8940000Y-4572000D02*
G75*
G03*
X8940000Y-4572000I-50000J0D01*
G01*
X9194000Y-4572000D02*
G75*
G03*
X9194000Y-4572000I-50000J0D01*
G01*
X9694000Y-5588000D02*
G75*
G03*
X9694000Y-5588000I-50000J0D01*
G01*
X9694000Y-5842000D02*
G75*
G03*
X9694000Y-5842000I-50000J0D01*
G01*
X9694000Y-6096000D02*
G75*
G03*
X9694000Y-6096000I-50000J0D01*
G01*
X9694000Y-6350000D02*
G75*
G03*
X9694000Y-6350000I-50000J0D01*
G01*
X9694000Y-6604000D02*
G75*
G03*
X9694000Y-6604000I-50000J0D01*
G01*
X9694000Y-6858000D02*
G75*
G03*
X9694000Y-6858000I-50000J0D01*
G01*
X9694000Y-7112000D02*
G75*
G03*
X9694000Y-7112000I-50000J0D01*
G01*
X9694000Y-7366000D02*
G75*
G03*
X9694000Y-7366000I-50000J0D01*
G01*
X10718000Y-4572000D02*
G75*
G03*
X10718000Y-4572000I-50000J0D01*
G01*
X10972000Y-4572000D02*
G75*
G03*
X10972000Y-4572000I-50000J0D01*
G01*
X11218000Y-5588000D02*
G75*
G03*
X11218000Y-5588000I-50000J0D01*
G01*
X11218000Y-5842000D02*
G75*
G03*
X11218000Y-5842000I-50000J0D01*
G01*
X11218000Y-6096000D02*
G75*
G03*
X11218000Y-6096000I-50000J0D01*
G01*
X11218000Y-6350000D02*
G75*
G03*
X11218000Y-6350000I-50000J0D01*
G01*
X11218000Y-6604000D02*
G75*
G03*
X11218000Y-6604000I-50000J0D01*
G01*
X11218000Y-6858000D02*
G75*
G03*
X11218000Y-6858000I-50000J0D01*
G01*
X11218000Y-7112000D02*
G75*
G03*
X11218000Y-7112000I-50000J0D01*
G01*
X11218000Y-7366000D02*
G75*
G03*
X11218000Y-7366000I-50000J0D01*
G01*
X11472000Y-5588000D02*
G75*
G03*
X11472000Y-5588000I-50000J0D01*
G01*
X11472000Y-5842000D02*
G75*
G03*
X11472000Y-5842000I-50000J0D01*
G01*
X11472000Y-6096000D02*
G75*
G03*
X11472000Y-6096000I-50000J0D01*
G01*
X11472000Y-6350000D02*
G75*
G03*
X11472000Y-6350000I-50000J0D01*
G01*
X11472000Y-6604000D02*
G75*
G03*
X11472000Y-6604000I-50000J0D01*
G01*
X11472000Y-6858000D02*
G75*
G03*
X11472000Y-6858000I-50000J0D01*
G01*
X11472000Y-7112000D02*
G75*
G03*
X11472000Y-7112000I-50000J0D01*
G01*
X11472000Y-7366000D02*
G75*
G03*
X11472000Y-7366000I-50000J0D01*
G01*
X12496000Y-4572000D02*
G75*
G03*
X12496000Y-4572000I-50000J0D01*
G01*
X12750000Y-4572000D02*
G75*
G03*
X12750000Y-4572000I-50000J0D01*
G01*
X12750000Y-5588000D02*
G75*
G03*
X12750000Y-5588000I-50000J0D01*
G01*
X12750000Y-5842000D02*
G75*
G03*
X12750000Y-5842000I-50000J0D01*
G01*
X12750000Y-6604000D02*
G75*
G03*
X12750000Y-6604000I-50000J0D01*
G01*
X12750000Y-6858000D02*
G75*
G03*
X12750000Y-6858000I-50000J0D01*
G01*
X12750000Y-7112000D02*
G75*
G03*
X12750000Y-7112000I-50000J0D01*
G01*
X12750000Y-7366000D02*
G75*
G03*
X12750000Y-7366000I-50000J0D01*
G01*
D12*
X6597428Y-8784714D02*
X6597428Y-8484714D01*
X6668857Y-8484714D01*
X6711714Y-8499000D01*
X6740286Y-8527572D01*
X6754571Y-8556143D01*
X6768857Y-8613286D01*
X6768857Y-8656143D01*
X6754571Y-8713286D01*
X6740286Y-8741857D01*
X6711714Y-8770429D01*
X6668857Y-8784714D01*
X6597428Y-8784714D01*
X6897428Y-8784714D02*
X6897428Y-8584714D01*
X6897428Y-8641857D02*
X6911714Y-8613286D01*
X6926000Y-8599000D01*
X6954571Y-8584714D01*
X6983143Y-8584714D01*
X7083143Y-8784714D02*
X7083143Y-8584714D01*
X7083143Y-8484714D02*
X7068857Y-8499000D01*
X7083143Y-8513286D01*
X7097428Y-8499000D01*
X7083143Y-8484714D01*
X7083143Y-8513286D01*
X7268857Y-8784714D02*
X7240286Y-8770429D01*
X7226000Y-8741857D01*
X7226000Y-8484714D01*
X7426000Y-8784714D02*
X7397428Y-8770429D01*
X7383143Y-8741857D01*
X7383143Y-8484714D01*
X7768857Y-8784714D02*
X7768857Y-8484714D01*
X7868857Y-8699000D01*
X7968857Y-8484714D01*
X7968857Y-8784714D01*
X8240286Y-8784714D02*
X8240286Y-8627572D01*
X8226000Y-8599000D01*
X8197428Y-8584714D01*
X8140286Y-8584714D01*
X8111714Y-8599000D01*
X8240286Y-8770429D02*
X8211714Y-8784714D01*
X8140286Y-8784714D01*
X8111714Y-8770429D01*
X8097428Y-8741857D01*
X8097428Y-8713286D01*
X8111714Y-8684714D01*
X8140286Y-8670429D01*
X8211714Y-8670429D01*
X8240286Y-8656143D01*
X8383143Y-8584714D02*
X8383143Y-8884714D01*
X8383143Y-8599000D02*
X8411714Y-8584714D01*
X8468857Y-8584714D01*
X8497428Y-8599000D01*
X8511714Y-8613286D01*
X8526000Y-8641857D01*
X8526000Y-8727572D01*
X8511714Y-8756143D01*
X8497428Y-8770429D01*
X8468857Y-8784714D01*
X8411714Y-8784714D01*
X8383143Y-8770429D01*
X8654571Y-8756143D02*
X8668857Y-8770429D01*
X8654571Y-8784714D01*
X8640286Y-8770429D01*
X8654571Y-8756143D01*
X8654571Y-8784714D01*
X8654571Y-8599000D02*
X8668857Y-8613286D01*
X8654571Y-8627572D01*
X8640286Y-8613286D01*
X8654571Y-8599000D01*
X8654571Y-8627572D01*
X6234800Y-9240900D02*
X6311000Y-9317100D01*
X6311000Y-9240900D02*
X6234800Y-9317100D01*
X6654571Y-9114714D02*
X6683143Y-9114714D01*
X6711714Y-9129000D01*
X6726000Y-9143286D01*
X6740286Y-9171857D01*
X6754571Y-9229000D01*
X6754571Y-9300429D01*
X6740286Y-9357572D01*
X6726000Y-9386143D01*
X6711714Y-9400429D01*
X6683143Y-9414714D01*
X6654571Y-9414714D01*
X6626000Y-9400429D01*
X6611714Y-9386143D01*
X6597428Y-9357572D01*
X6583143Y-9300429D01*
X6583143Y-9229000D01*
X6597428Y-9171857D01*
X6611714Y-9143286D01*
X6626000Y-9129000D01*
X6654571Y-9114714D01*
X6883143Y-9386143D02*
X6897428Y-9400429D01*
X6883143Y-9414714D01*
X6868857Y-9400429D01*
X6883143Y-9386143D01*
X6883143Y-9414714D01*
X6997428Y-9114714D02*
X7197428Y-9114714D01*
X7068857Y-9414714D01*
X7440286Y-9114714D02*
X7383143Y-9114714D01*
X7354571Y-9129000D01*
X7340286Y-9143286D01*
X7311714Y-9186143D01*
X7297428Y-9243286D01*
X7297428Y-9357572D01*
X7311714Y-9386143D01*
X7326000Y-9400429D01*
X7354571Y-9414714D01*
X7411714Y-9414714D01*
X7440286Y-9400429D01*
X7454571Y-9386143D01*
X7468857Y-9357572D01*
X7468857Y-9286143D01*
X7454571Y-9257572D01*
X7440286Y-9243286D01*
X7411714Y-9229000D01*
X7354571Y-9229000D01*
X7326000Y-9243286D01*
X7311714Y-9257572D01*
X7297428Y-9286143D01*
X7583143Y-9143286D02*
X7597428Y-9129000D01*
X7626000Y-9114714D01*
X7697428Y-9114714D01*
X7726000Y-9129000D01*
X7740286Y-9143286D01*
X7754571Y-9171857D01*
X7754571Y-9200429D01*
X7740286Y-9243286D01*
X7568857Y-9414714D01*
X7754571Y-9414714D01*
X7883143Y-9414714D02*
X7883143Y-9214714D01*
X7883143Y-9243286D02*
X7897428Y-9229000D01*
X7926000Y-9214714D01*
X7968857Y-9214714D01*
X7997428Y-9229000D01*
X8011714Y-9257572D01*
X8011714Y-9414714D01*
X8011714Y-9257572D02*
X8026000Y-9229000D01*
X8054571Y-9214714D01*
X8097428Y-9214714D01*
X8126000Y-9229000D01*
X8140286Y-9257572D01*
X8140286Y-9414714D01*
X8283143Y-9414714D02*
X8283143Y-9214714D01*
X8283143Y-9243286D02*
X8297428Y-9229000D01*
X8326000Y-9214714D01*
X8368857Y-9214714D01*
X8397428Y-9229000D01*
X8411714Y-9257572D01*
X8411714Y-9414714D01*
X8411714Y-9257572D02*
X8426000Y-9229000D01*
X8454571Y-9214714D01*
X8497428Y-9214714D01*
X8526000Y-9229000D01*
X8540286Y-9257572D01*
X8540286Y-9414714D01*
X9126000Y-9100429D02*
X8868857Y-9486143D01*
X9511714Y-9114714D02*
X9540286Y-9114714D01*
X9568857Y-9129000D01*
X9583143Y-9143286D01*
X9597428Y-9171857D01*
X9611714Y-9229000D01*
X9611714Y-9300429D01*
X9597428Y-9357572D01*
X9583143Y-9386143D01*
X9568857Y-9400429D01*
X9540286Y-9414714D01*
X9511714Y-9414714D01*
X9483143Y-9400429D01*
X9468857Y-9386143D01*
X9454571Y-9357572D01*
X9440286Y-9300429D01*
X9440286Y-9229000D01*
X9454571Y-9171857D01*
X9468857Y-9143286D01*
X9483143Y-9129000D01*
X9511714Y-9114714D01*
X9740286Y-9386143D02*
X9754571Y-9400429D01*
X9740286Y-9414714D01*
X9726000Y-9400429D01*
X9740286Y-9386143D01*
X9740286Y-9414714D01*
X9940286Y-9114714D02*
X9968857Y-9114714D01*
X9997428Y-9129000D01*
X10011714Y-9143286D01*
X10026000Y-9171857D01*
X10040286Y-9229000D01*
X10040286Y-9300429D01*
X10026000Y-9357572D01*
X10011714Y-9386143D01*
X9997428Y-9400429D01*
X9968857Y-9414714D01*
X9940286Y-9414714D01*
X9911714Y-9400429D01*
X9897428Y-9386143D01*
X9883143Y-9357572D01*
X9868857Y-9300429D01*
X9868857Y-9229000D01*
X9883143Y-9171857D01*
X9897428Y-9143286D01*
X9911714Y-9129000D01*
X9940286Y-9114714D01*
X10140286Y-9114714D02*
X10326000Y-9114714D01*
X10226000Y-9229000D01*
X10268857Y-9229000D01*
X10297428Y-9243286D01*
X10311714Y-9257572D01*
X10326000Y-9286143D01*
X10326000Y-9357572D01*
X10311714Y-9386143D01*
X10297428Y-9400429D01*
X10268857Y-9414714D01*
X10183143Y-9414714D01*
X10154571Y-9400429D01*
X10140286Y-9386143D01*
X10511714Y-9114714D02*
X10540286Y-9114714D01*
X10568857Y-9129000D01*
X10583143Y-9143286D01*
X10597428Y-9171857D01*
X10611714Y-9229000D01*
X10611714Y-9300429D01*
X10597428Y-9357572D01*
X10583143Y-9386143D01*
X10568857Y-9400429D01*
X10540286Y-9414714D01*
X10511714Y-9414714D01*
X10483143Y-9400429D01*
X10468857Y-9386143D01*
X10454571Y-9357572D01*
X10440286Y-9300429D01*
X10440286Y-9229000D01*
X10454571Y-9171857D01*
X10468857Y-9143286D01*
X10483143Y-9129000D01*
X10511714Y-9114714D01*
X10797428Y-9114714D02*
X10826000Y-9114714D01*
X10854571Y-9129000D01*
X10868857Y-9143286D01*
X10883143Y-9171857D01*
X10897428Y-9229000D01*
X10897428Y-9300429D01*
X10883143Y-9357572D01*
X10868857Y-9386143D01*
X10854571Y-9400429D01*
X10826000Y-9414714D01*
X10797428Y-9414714D01*
X10768857Y-9400429D01*
X10754571Y-9386143D01*
X10740286Y-9357572D01*
X10726000Y-9300429D01*
X10726000Y-9229000D01*
X10740286Y-9171857D01*
X10754571Y-9143286D01*
X10768857Y-9129000D01*
X10797428Y-9114714D01*
X11011714Y-9114714D02*
X11011714Y-9171857D01*
X11126000Y-9114714D02*
X11126000Y-9171857D01*
X11568857Y-9529000D02*
X11554571Y-9514714D01*
X11526000Y-9471857D01*
X11511714Y-9443286D01*
X11497428Y-9400429D01*
X11483143Y-9329000D01*
X11483143Y-9271857D01*
X11497428Y-9200429D01*
X11511714Y-9157572D01*
X11526000Y-9129000D01*
X11554571Y-9086143D01*
X11568857Y-9071857D01*
X11811714Y-9114714D02*
X11754571Y-9114714D01*
X11726000Y-9129000D01*
X11711714Y-9143286D01*
X11683143Y-9186143D01*
X11668857Y-9243286D01*
X11668857Y-9357572D01*
X11683143Y-9386143D01*
X11697428Y-9400429D01*
X11726000Y-9414714D01*
X11783143Y-9414714D01*
X11811714Y-9400429D01*
X11826000Y-9386143D01*
X11840286Y-9357572D01*
X11840286Y-9286143D01*
X11826000Y-9257572D01*
X11811714Y-9243286D01*
X11783143Y-9229000D01*
X11726000Y-9229000D01*
X11697428Y-9243286D01*
X11683143Y-9257572D01*
X11668857Y-9286143D01*
X12026000Y-9114714D02*
X12054571Y-9114714D01*
X12083143Y-9129000D01*
X12097428Y-9143286D01*
X12111714Y-9171857D01*
X12126000Y-9229000D01*
X12126000Y-9300429D01*
X12111714Y-9357572D01*
X12097428Y-9386143D01*
X12083143Y-9400429D01*
X12054571Y-9414714D01*
X12026000Y-9414714D01*
X11997428Y-9400429D01*
X11983143Y-9386143D01*
X11968857Y-9357572D01*
X11954571Y-9300429D01*
X11954571Y-9229000D01*
X11968857Y-9171857D01*
X11983143Y-9143286D01*
X11997428Y-9129000D01*
X12026000Y-9114714D01*
X12483143Y-9414714D02*
X12483143Y-9114714D01*
X12611714Y-9414714D02*
X12611714Y-9257572D01*
X12597428Y-9229000D01*
X12568857Y-9214714D01*
X12526000Y-9214714D01*
X12497428Y-9229000D01*
X12483143Y-9243286D01*
X12797428Y-9414714D02*
X12768857Y-9400429D01*
X12754571Y-9386143D01*
X12740286Y-9357572D01*
X12740286Y-9271857D01*
X12754571Y-9243286D01*
X12768857Y-9229000D01*
X12797428Y-9214714D01*
X12840286Y-9214714D01*
X12868857Y-9229000D01*
X12883143Y-9243286D01*
X12897428Y-9271857D01*
X12897428Y-9357572D01*
X12883143Y-9386143D01*
X12868857Y-9400429D01*
X12840286Y-9414714D01*
X12797428Y-9414714D01*
X13068857Y-9414714D02*
X13040286Y-9400429D01*
X13026000Y-9371857D01*
X13026000Y-9114714D01*
X13297428Y-9400429D02*
X13268857Y-9414714D01*
X13211714Y-9414714D01*
X13183143Y-9400429D01*
X13168857Y-9371857D01*
X13168857Y-9257572D01*
X13183143Y-9229000D01*
X13211714Y-9214714D01*
X13268857Y-9214714D01*
X13297428Y-9229000D01*
X13311714Y-9257572D01*
X13311714Y-9286143D01*
X13168857Y-9314714D01*
X13426000Y-9400429D02*
X13454571Y-9414714D01*
X13511714Y-9414714D01*
X13540286Y-9400429D01*
X13554571Y-9371857D01*
X13554571Y-9357572D01*
X13540286Y-9329000D01*
X13511714Y-9314714D01*
X13468857Y-9314714D01*
X13440286Y-9300429D01*
X13426000Y-9271857D01*
X13426000Y-9257572D01*
X13440286Y-9229000D01*
X13468857Y-9214714D01*
X13511714Y-9214714D01*
X13540286Y-9229000D01*
X13654571Y-9529000D02*
X13668857Y-9514714D01*
X13697428Y-9471857D01*
X13711714Y-9443286D01*
X13726000Y-9400429D01*
X13740286Y-9329000D01*
X13740286Y-9271857D01*
X13726000Y-9200429D01*
X13711714Y-9157572D01*
X13697428Y-9129000D01*
X13668857Y-9086143D01*
X13654571Y-9071857D01*
X6311000Y-9675000D02*
G75*
G03*
X6311000Y-9675000I-50000J0D01*
G01*
X6754571Y-9810714D02*
X6583143Y-9810714D01*
X6668857Y-9810714D02*
X6668857Y-9510714D01*
X6640286Y-9553572D01*
X6611714Y-9582143D01*
X6583143Y-9596429D01*
X6883143Y-9782143D02*
X6897428Y-9796429D01*
X6883143Y-9810714D01*
X6868857Y-9796429D01*
X6883143Y-9782143D01*
X6883143Y-9810714D01*
X7083143Y-9510714D02*
X7111714Y-9510714D01*
X7140286Y-9525000D01*
X7154571Y-9539286D01*
X7168857Y-9567857D01*
X7183143Y-9625000D01*
X7183143Y-9696429D01*
X7168857Y-9753572D01*
X7154571Y-9782143D01*
X7140286Y-9796429D01*
X7111714Y-9810714D01*
X7083143Y-9810714D01*
X7054571Y-9796429D01*
X7040286Y-9782143D01*
X7026000Y-9753572D01*
X7011714Y-9696429D01*
X7011714Y-9625000D01*
X7026000Y-9567857D01*
X7040286Y-9539286D01*
X7054571Y-9525000D01*
X7083143Y-9510714D01*
X7368857Y-9510714D02*
X7397428Y-9510714D01*
X7426000Y-9525000D01*
X7440286Y-9539286D01*
X7454571Y-9567857D01*
X7468857Y-9625000D01*
X7468857Y-9696429D01*
X7454571Y-9753572D01*
X7440286Y-9782143D01*
X7426000Y-9796429D01*
X7397428Y-9810714D01*
X7368857Y-9810714D01*
X7340286Y-9796429D01*
X7326000Y-9782143D01*
X7311714Y-9753572D01*
X7297428Y-9696429D01*
X7297428Y-9625000D01*
X7311714Y-9567857D01*
X7326000Y-9539286D01*
X7340286Y-9525000D01*
X7368857Y-9510714D01*
X7654571Y-9510714D02*
X7683143Y-9510714D01*
X7711714Y-9525000D01*
X7726000Y-9539286D01*
X7740286Y-9567857D01*
X7754571Y-9625000D01*
X7754571Y-9696429D01*
X7740286Y-9753572D01*
X7726000Y-9782143D01*
X7711714Y-9796429D01*
X7683143Y-9810714D01*
X7654571Y-9810714D01*
X7626000Y-9796429D01*
X7611714Y-9782143D01*
X7597428Y-9753572D01*
X7583143Y-9696429D01*
X7583143Y-9625000D01*
X7597428Y-9567857D01*
X7611714Y-9539286D01*
X7626000Y-9525000D01*
X7654571Y-9510714D01*
X7883143Y-9810714D02*
X7883143Y-9610714D01*
X7883143Y-9639286D02*
X7897428Y-9625000D01*
X7926000Y-9610714D01*
X7968857Y-9610714D01*
X7997428Y-9625000D01*
X8011714Y-9653572D01*
X8011714Y-9810714D01*
X8011714Y-9653572D02*
X8026000Y-9625000D01*
X8054571Y-9610714D01*
X8097428Y-9610714D01*
X8126000Y-9625000D01*
X8140286Y-9653572D01*
X8140286Y-9810714D01*
X8283143Y-9810714D02*
X8283143Y-9610714D01*
X8283143Y-9639286D02*
X8297428Y-9625000D01*
X8326000Y-9610714D01*
X8368857Y-9610714D01*
X8397428Y-9625000D01*
X8411714Y-9653572D01*
X8411714Y-9810714D01*
X8411714Y-9653572D02*
X8426000Y-9625000D01*
X8454571Y-9610714D01*
X8497428Y-9610714D01*
X8526000Y-9625000D01*
X8540286Y-9653572D01*
X8540286Y-9810714D01*
X9126000Y-9496429D02*
X8868857Y-9882143D01*
X9511714Y-9510714D02*
X9540286Y-9510714D01*
X9568857Y-9525000D01*
X9583143Y-9539286D01*
X9597428Y-9567857D01*
X9611714Y-9625000D01*
X9611714Y-9696429D01*
X9597428Y-9753572D01*
X9583143Y-9782143D01*
X9568857Y-9796429D01*
X9540286Y-9810714D01*
X9511714Y-9810714D01*
X9483143Y-9796429D01*
X9468857Y-9782143D01*
X9454571Y-9753572D01*
X9440286Y-9696429D01*
X9440286Y-9625000D01*
X9454571Y-9567857D01*
X9468857Y-9539286D01*
X9483143Y-9525000D01*
X9511714Y-9510714D01*
X9740286Y-9782143D02*
X9754571Y-9796429D01*
X9740286Y-9810714D01*
X9726000Y-9796429D01*
X9740286Y-9782143D01*
X9740286Y-9810714D01*
X9940286Y-9510714D02*
X9968857Y-9510714D01*
X9997428Y-9525000D01*
X10011714Y-9539286D01*
X10026000Y-9567857D01*
X10040286Y-9625000D01*
X10040286Y-9696429D01*
X10026000Y-9753572D01*
X10011714Y-9782143D01*
X9997428Y-9796429D01*
X9968857Y-9810714D01*
X9940286Y-9810714D01*
X9911714Y-9796429D01*
X9897428Y-9782143D01*
X9883143Y-9753572D01*
X9868857Y-9696429D01*
X9868857Y-9625000D01*
X9883143Y-9567857D01*
X9897428Y-9539286D01*
X9911714Y-9525000D01*
X9940286Y-9510714D01*
X10140286Y-9510714D02*
X10326000Y-9510714D01*
X10226000Y-9625000D01*
X10268857Y-9625000D01*
X10297428Y-9639286D01*
X10311714Y-9653572D01*
X10326000Y-9682143D01*
X10326000Y-9753572D01*
X10311714Y-9782143D01*
X10297428Y-9796429D01*
X10268857Y-9810714D01*
X10183143Y-9810714D01*
X10154571Y-9796429D01*
X10140286Y-9782143D01*
X10468857Y-9810714D02*
X10526000Y-9810714D01*
X10554571Y-9796429D01*
X10568857Y-9782143D01*
X10597428Y-9739286D01*
X10611714Y-9682143D01*
X10611714Y-9567857D01*
X10597428Y-9539286D01*
X10583143Y-9525000D01*
X10554571Y-9510714D01*
X10497428Y-9510714D01*
X10468857Y-9525000D01*
X10454571Y-9539286D01*
X10440286Y-9567857D01*
X10440286Y-9639286D01*
X10454571Y-9667857D01*
X10468857Y-9682143D01*
X10497428Y-9696429D01*
X10554571Y-9696429D01*
X10583143Y-9682143D01*
X10597428Y-9667857D01*
X10611714Y-9639286D01*
X10868857Y-9610714D02*
X10868857Y-9810714D01*
X10797428Y-9496429D02*
X10726000Y-9710714D01*
X10911714Y-9710714D01*
X11011714Y-9510714D02*
X11011714Y-9567857D01*
X11126000Y-9510714D02*
X11126000Y-9567857D01*
X11568857Y-9925000D02*
X11554571Y-9910714D01*
X11526000Y-9867857D01*
X11511714Y-9839286D01*
X11497428Y-9796429D01*
X11483143Y-9725000D01*
X11483143Y-9667857D01*
X11497428Y-9596429D01*
X11511714Y-9553572D01*
X11526000Y-9525000D01*
X11554571Y-9482143D01*
X11568857Y-9467857D01*
X11826000Y-9510714D02*
X11683143Y-9510714D01*
X11668857Y-9653572D01*
X11683143Y-9639286D01*
X11711714Y-9625000D01*
X11783143Y-9625000D01*
X11811714Y-9639286D01*
X11826000Y-9653572D01*
X11840286Y-9682143D01*
X11840286Y-9753572D01*
X11826000Y-9782143D01*
X11811714Y-9796429D01*
X11783143Y-9810714D01*
X11711714Y-9810714D01*
X11683143Y-9796429D01*
X11668857Y-9782143D01*
X12097428Y-9610714D02*
X12097428Y-9810714D01*
X12026000Y-9496429D02*
X11954571Y-9710714D01*
X12140286Y-9710714D01*
X12483143Y-9810714D02*
X12483143Y-9510714D01*
X12611714Y-9810714D02*
X12611714Y-9653572D01*
X12597428Y-9625000D01*
X12568857Y-9610714D01*
X12526000Y-9610714D01*
X12497428Y-9625000D01*
X12483143Y-9639286D01*
X12797428Y-9810714D02*
X12768857Y-9796429D01*
X12754571Y-9782143D01*
X12740286Y-9753572D01*
X12740286Y-9667857D01*
X12754571Y-9639286D01*
X12768857Y-9625000D01*
X12797428Y-9610714D01*
X12840286Y-9610714D01*
X12868857Y-9625000D01*
X12883143Y-9639286D01*
X12897428Y-9667857D01*
X12897428Y-9753572D01*
X12883143Y-9782143D01*
X12868857Y-9796429D01*
X12840286Y-9810714D01*
X12797428Y-9810714D01*
X13068857Y-9810714D02*
X13040286Y-9796429D01*
X13026000Y-9767857D01*
X13026000Y-9510714D01*
X13297428Y-9796429D02*
X13268857Y-9810714D01*
X13211714Y-9810714D01*
X13183143Y-9796429D01*
X13168857Y-9767857D01*
X13168857Y-9653572D01*
X13183143Y-9625000D01*
X13211714Y-9610714D01*
X13268857Y-9610714D01*
X13297428Y-9625000D01*
X13311714Y-9653572D01*
X13311714Y-9682143D01*
X13168857Y-9710714D01*
X13426000Y-9796429D02*
X13454571Y-9810714D01*
X13511714Y-9810714D01*
X13540286Y-9796429D01*
X13554571Y-9767857D01*
X13554571Y-9753572D01*
X13540286Y-9725000D01*
X13511714Y-9710714D01*
X13468857Y-9710714D01*
X13440286Y-9696429D01*
X13426000Y-9667857D01*
X13426000Y-9653572D01*
X13440286Y-9625000D01*
X13468857Y-9610714D01*
X13511714Y-9610714D01*
X13540286Y-9625000D01*
X13654571Y-9925000D02*
X13668857Y-9910714D01*
X13697428Y-9867857D01*
X13711714Y-9839286D01*
X13726000Y-9796429D01*
X13740286Y-9725000D01*
X13740286Y-9667857D01*
X13726000Y-9596429D01*
X13711714Y-9553572D01*
X13697428Y-9525000D01*
X13668857Y-9482143D01*
X13654571Y-9467857D01*
M02*
