M48
; DRILL file {KiCad 5.1.10-88a1d61d58~88~ubuntu20.10.1} date Thu May 13 17:51:36 2021
; FORMAT={-:-/ absolute / metric / decimal}
; #@! TF.CreationDate,2021-05-13T17:51:36+02:00
; #@! TF.GenerationSoftware,Kicad,Pcbnew,5.1.10-88a1d61d58~88~ubuntu20.10.1
; #@! TF.FileFunction,Plated,1,2,PTH
FMAT,2
METRIC
T1C0.762
T2C1.000
%
G90
G05
T1
X134.545Y-43.01
X134.545Y-45.55
X134.545Y-48.09
X134.545Y-50.63
X134.545Y-53.17
X134.545Y-55.71
X134.545Y-58.25
X134.545Y-60.79
X134.545Y-63.33
X134.545Y-65.87
X134.545Y-68.41
X134.545Y-70.95
X134.545Y-73.49
X134.545Y-76.03
X134.545Y-78.57
X136.45Y-41.74
X136.45Y-44.28
X136.45Y-46.82
X136.45Y-49.36
X136.45Y-51.9
X136.45Y-54.44
X136.45Y-56.98
X136.45Y-59.52
X136.45Y-62.06
X136.45Y-64.6
X136.45Y-67.14
X136.45Y-69.68
X136.45Y-72.22
X136.45Y-74.76
X136.45Y-77.3
X138.355Y-43.01
X138.355Y-45.55
X138.355Y-48.09
X138.355Y-50.63
X138.355Y-53.17
X138.355Y-55.71
X138.355Y-58.25
X138.355Y-60.79
X138.355Y-63.33
X138.355Y-65.87
X138.355Y-68.41
X138.355Y-70.95
X138.355Y-73.49
X138.355Y-76.03
X138.355Y-78.57
X140.26Y-41.74
X140.26Y-44.28
X140.26Y-46.82
X140.26Y-49.36
X140.26Y-51.9
X140.26Y-54.44
X140.26Y-56.98
X140.26Y-59.52
X140.26Y-62.06
X140.26Y-64.6
X140.26Y-67.14
X140.26Y-69.68
X140.26Y-72.22
X140.26Y-74.76
X140.26Y-77.3
T2
X71.12Y-45.72
X71.12Y-55.88
X71.12Y-58.42
X71.12Y-60.96
X71.12Y-63.5
X71.12Y-66.04
X71.12Y-68.58
X71.12Y-71.12
X71.12Y-73.66
X73.66Y-45.72
X83.74Y-55.88
X83.74Y-58.42
X83.74Y-60.96
X83.74Y-63.5
X83.74Y-66.04
X83.74Y-68.58
X83.74Y-71.12
X83.74Y-73.66
X88.9Y-45.72
X91.44Y-45.72
X96.44Y-55.88
X96.44Y-58.42
X96.44Y-60.96
X96.44Y-63.5
X96.44Y-66.04
X96.44Y-68.58
X96.44Y-71.12
X96.44Y-73.66
X106.68Y-45.72
X109.22Y-45.72
X111.68Y-55.88
X111.68Y-58.42
X111.68Y-60.96
X111.68Y-63.5
X111.68Y-66.04
X111.68Y-68.58
X111.68Y-71.12
X111.68Y-73.66
X114.22Y-55.88
X114.22Y-58.42
X114.22Y-60.96
X114.22Y-63.5
X114.22Y-66.04
X114.22Y-68.58
X114.22Y-71.12
X114.22Y-73.66
X124.46Y-45.72
X127.0Y-45.72
X127.0Y-55.88
X127.0Y-58.42
X127.0Y-66.04
X127.0Y-68.58
X127.0Y-71.12
X127.0Y-73.66
T0
M30
