G04 #@! TF.GenerationSoftware,KiCad,Pcbnew,5.1.10-88a1d61d58~88~ubuntu20.10.1*
G04 #@! TF.CreationDate,2021-05-06T21:06:24+02:00*
G04 #@! TF.ProjectId,breakout-board,62726561-6b6f-4757-942d-626f6172642e,1.0*
G04 #@! TF.SameCoordinates,Original*
G04 #@! TF.FileFunction,Legend,Top*
G04 #@! TF.FilePolarity,Positive*
%FSLAX46Y46*%
G04 Gerber Fmt 4.6, Leading zero omitted, Abs format (unit mm)*
G04 Created by KiCad (PCBNEW 5.1.10-88a1d61d58~88~ubuntu20.10.1) date 2021-05-06 21:06:24*
%MOMM*%
%LPD*%
G01*
G04 APERTURE LIST*
%ADD10C,0.150000*%
%ADD11C,0.300000*%
%ADD12C,0.120000*%
G04 APERTURE END LIST*
D10*
X83766666Y-82092380D02*
X83433333Y-81616190D01*
X83195238Y-82092380D02*
X83195238Y-81092380D01*
X83576190Y-81092380D01*
X83671428Y-81140000D01*
X83719047Y-81187619D01*
X83766666Y-81282857D01*
X83766666Y-81425714D01*
X83719047Y-81520952D01*
X83671428Y-81568571D01*
X83576190Y-81616190D01*
X83195238Y-81616190D01*
X84576190Y-82044761D02*
X84480952Y-82092380D01*
X84290476Y-82092380D01*
X84195238Y-82044761D01*
X84147619Y-81949523D01*
X84147619Y-81568571D01*
X84195238Y-81473333D01*
X84290476Y-81425714D01*
X84480952Y-81425714D01*
X84576190Y-81473333D01*
X84623809Y-81568571D01*
X84623809Y-81663809D01*
X84147619Y-81759047D01*
X84957142Y-81425714D02*
X85195238Y-82092380D01*
X85433333Y-81425714D01*
X85814285Y-81997142D02*
X85861904Y-82044761D01*
X85814285Y-82092380D01*
X85766666Y-82044761D01*
X85814285Y-81997142D01*
X85814285Y-82092380D01*
X87576190Y-82092380D02*
X87004761Y-82092380D01*
X87290476Y-82092380D02*
X87290476Y-81092380D01*
X87195238Y-81235238D01*
X87100000Y-81330476D01*
X87004761Y-81378095D01*
X88004761Y-81997142D02*
X88052380Y-82044761D01*
X88004761Y-82092380D01*
X87957142Y-82044761D01*
X88004761Y-81997142D01*
X88004761Y-82092380D01*
X88671428Y-81092380D02*
X88766666Y-81092380D01*
X88861904Y-81140000D01*
X88909523Y-81187619D01*
X88957142Y-81282857D01*
X89004761Y-81473333D01*
X89004761Y-81711428D01*
X88957142Y-81901904D01*
X88909523Y-81997142D01*
X88861904Y-82044761D01*
X88766666Y-82092380D01*
X88671428Y-82092380D01*
X88576190Y-82044761D01*
X88528571Y-81997142D01*
X88480952Y-81901904D01*
X88433333Y-81711428D01*
X88433333Y-81473333D01*
X88480952Y-81282857D01*
X88528571Y-81187619D01*
X88576190Y-81140000D01*
X88671428Y-81092380D01*
X90480952Y-82473333D02*
X90433333Y-82425714D01*
X90338095Y-82282857D01*
X90290476Y-82187619D01*
X90242857Y-82044761D01*
X90195238Y-81806666D01*
X90195238Y-81616190D01*
X90242857Y-81378095D01*
X90290476Y-81235238D01*
X90338095Y-81140000D01*
X90433333Y-80997142D01*
X90480952Y-80949523D01*
X90814285Y-81187619D02*
X90861904Y-81140000D01*
X90957142Y-81092380D01*
X91195238Y-81092380D01*
X91290476Y-81140000D01*
X91338095Y-81187619D01*
X91385714Y-81282857D01*
X91385714Y-81378095D01*
X91338095Y-81520952D01*
X90766666Y-82092380D01*
X91385714Y-82092380D01*
X92004761Y-81092380D02*
X92100000Y-81092380D01*
X92195238Y-81140000D01*
X92242857Y-81187619D01*
X92290476Y-81282857D01*
X92338095Y-81473333D01*
X92338095Y-81711428D01*
X92290476Y-81901904D01*
X92242857Y-81997142D01*
X92195238Y-82044761D01*
X92100000Y-82092380D01*
X92004761Y-82092380D01*
X91909523Y-82044761D01*
X91861904Y-81997142D01*
X91814285Y-81901904D01*
X91766666Y-81711428D01*
X91766666Y-81473333D01*
X91814285Y-81282857D01*
X91861904Y-81187619D01*
X91909523Y-81140000D01*
X92004761Y-81092380D01*
X92719047Y-81187619D02*
X92766666Y-81140000D01*
X92861904Y-81092380D01*
X93100000Y-81092380D01*
X93195238Y-81140000D01*
X93242857Y-81187619D01*
X93290476Y-81282857D01*
X93290476Y-81378095D01*
X93242857Y-81520952D01*
X92671428Y-82092380D01*
X93290476Y-82092380D01*
X94242857Y-82092380D02*
X93671428Y-82092380D01*
X93957142Y-82092380D02*
X93957142Y-81092380D01*
X93861904Y-81235238D01*
X93766666Y-81330476D01*
X93671428Y-81378095D01*
X94671428Y-81711428D02*
X95433333Y-81711428D01*
X96100000Y-81092380D02*
X96195238Y-81092380D01*
X96290476Y-81140000D01*
X96338095Y-81187619D01*
X96385714Y-81282857D01*
X96433333Y-81473333D01*
X96433333Y-81711428D01*
X96385714Y-81901904D01*
X96338095Y-81997142D01*
X96290476Y-82044761D01*
X96195238Y-82092380D01*
X96100000Y-82092380D01*
X96004761Y-82044761D01*
X95957142Y-81997142D01*
X95909523Y-81901904D01*
X95861904Y-81711428D01*
X95861904Y-81473333D01*
X95909523Y-81282857D01*
X95957142Y-81187619D01*
X96004761Y-81140000D01*
X96100000Y-81092380D01*
X97338095Y-81092380D02*
X96861904Y-81092380D01*
X96814285Y-81568571D01*
X96861904Y-81520952D01*
X96957142Y-81473333D01*
X97195238Y-81473333D01*
X97290476Y-81520952D01*
X97338095Y-81568571D01*
X97385714Y-81663809D01*
X97385714Y-81901904D01*
X97338095Y-81997142D01*
X97290476Y-82044761D01*
X97195238Y-82092380D01*
X96957142Y-82092380D01*
X96861904Y-82044761D01*
X96814285Y-81997142D01*
X97719047Y-82473333D02*
X97766666Y-82425714D01*
X97861904Y-82282857D01*
X97909523Y-82187619D01*
X97957142Y-82044761D01*
X98004761Y-81806666D01*
X98004761Y-81616190D01*
X97957142Y-81378095D01*
X97909523Y-81235238D01*
X97861904Y-81140000D01*
X97766666Y-80997142D01*
X97719047Y-80949523D01*
X99814285Y-81997142D02*
X99766666Y-82044761D01*
X99623809Y-82092380D01*
X99528571Y-82092380D01*
X99385714Y-82044761D01*
X99290476Y-81949523D01*
X99242857Y-81854285D01*
X99195238Y-81663809D01*
X99195238Y-81520952D01*
X99242857Y-81330476D01*
X99290476Y-81235238D01*
X99385714Y-81140000D01*
X99528571Y-81092380D01*
X99623809Y-81092380D01*
X99766666Y-81140000D01*
X99814285Y-81187619D01*
X100814285Y-81997142D02*
X100766666Y-82044761D01*
X100623809Y-82092380D01*
X100528571Y-82092380D01*
X100385714Y-82044761D01*
X100290476Y-81949523D01*
X100242857Y-81854285D01*
X100195238Y-81663809D01*
X100195238Y-81520952D01*
X100242857Y-81330476D01*
X100290476Y-81235238D01*
X100385714Y-81140000D01*
X100528571Y-81092380D01*
X100623809Y-81092380D01*
X100766666Y-81140000D01*
X100814285Y-81187619D01*
X102338095Y-81568571D02*
X102480952Y-81616190D01*
X102528571Y-81663809D01*
X102576190Y-81759047D01*
X102576190Y-81901904D01*
X102528571Y-81997142D01*
X102480952Y-82044761D01*
X102385714Y-82092380D01*
X102004761Y-82092380D01*
X102004761Y-81092380D01*
X102338095Y-81092380D01*
X102433333Y-81140000D01*
X102480952Y-81187619D01*
X102528571Y-81282857D01*
X102528571Y-81378095D01*
X102480952Y-81473333D01*
X102433333Y-81520952D01*
X102338095Y-81568571D01*
X102004761Y-81568571D01*
X103195238Y-81616190D02*
X103195238Y-82092380D01*
X102861904Y-81092380D02*
X103195238Y-81616190D01*
X103528571Y-81092380D01*
X103861904Y-81711428D02*
X104623809Y-81711428D01*
X105052380Y-82044761D02*
X105195238Y-82092380D01*
X105433333Y-82092380D01*
X105528571Y-82044761D01*
X105576190Y-81997142D01*
X105623809Y-81901904D01*
X105623809Y-81806666D01*
X105576190Y-81711428D01*
X105528571Y-81663809D01*
X105433333Y-81616190D01*
X105242857Y-81568571D01*
X105147619Y-81520952D01*
X105100000Y-81473333D01*
X105052380Y-81378095D01*
X105052380Y-81282857D01*
X105100000Y-81187619D01*
X105147619Y-81140000D01*
X105242857Y-81092380D01*
X105480952Y-81092380D01*
X105623809Y-81140000D01*
X106004761Y-81806666D02*
X106480952Y-81806666D01*
X105909523Y-82092380D02*
X106242857Y-81092380D01*
X106576190Y-82092380D01*
X108100000Y-81425714D02*
X108100000Y-82092380D01*
X107861904Y-81044761D02*
X107623809Y-81759047D01*
X108242857Y-81759047D01*
X108623809Y-81997142D02*
X108671428Y-82044761D01*
X108623809Y-82092380D01*
X108576190Y-82044761D01*
X108623809Y-81997142D01*
X108623809Y-82092380D01*
X109290476Y-81092380D02*
X109385714Y-81092380D01*
X109480952Y-81140000D01*
X109528571Y-81187619D01*
X109576190Y-81282857D01*
X109623809Y-81473333D01*
X109623809Y-81711428D01*
X109576190Y-81901904D01*
X109528571Y-81997142D01*
X109480952Y-82044761D01*
X109385714Y-82092380D01*
X109290476Y-82092380D01*
X109195238Y-82044761D01*
X109147619Y-81997142D01*
X109100000Y-81901904D01*
X109052380Y-81711428D01*
X109052380Y-81473333D01*
X109100000Y-81282857D01*
X109147619Y-81187619D01*
X109195238Y-81140000D01*
X109290476Y-81092380D01*
X110814285Y-82092380D02*
X110814285Y-81092380D01*
X111385714Y-82092380D02*
X110957142Y-81520952D01*
X111385714Y-81092380D02*
X110814285Y-81663809D01*
X112242857Y-82092380D02*
X112242857Y-81568571D01*
X112195238Y-81473333D01*
X112100000Y-81425714D01*
X111909523Y-81425714D01*
X111814285Y-81473333D01*
X112242857Y-82044761D02*
X112147619Y-82092380D01*
X111909523Y-82092380D01*
X111814285Y-82044761D01*
X111766666Y-81949523D01*
X111766666Y-81854285D01*
X111814285Y-81759047D01*
X111909523Y-81711428D01*
X112147619Y-81711428D01*
X112242857Y-81663809D01*
X112719047Y-82092380D02*
X112719047Y-81425714D01*
X112719047Y-81092380D02*
X112671428Y-81140000D01*
X112719047Y-81187619D01*
X112766666Y-81140000D01*
X112719047Y-81092380D01*
X112719047Y-81187619D01*
X114528571Y-81997142D02*
X114480952Y-82044761D01*
X114338095Y-82092380D01*
X114242857Y-82092380D01*
X114100000Y-82044761D01*
X114004761Y-81949523D01*
X113957142Y-81854285D01*
X113909523Y-81663809D01*
X113909523Y-81520952D01*
X113957142Y-81330476D01*
X114004761Y-81235238D01*
X114100000Y-81140000D01*
X114242857Y-81092380D01*
X114338095Y-81092380D01*
X114480952Y-81140000D01*
X114528571Y-81187619D01*
X114957142Y-81997142D02*
X115004761Y-82044761D01*
X114957142Y-82092380D01*
X114909523Y-82044761D01*
X114957142Y-81997142D01*
X114957142Y-82092380D01*
X116528571Y-81568571D02*
X116671428Y-81616190D01*
X116719047Y-81663809D01*
X116766666Y-81759047D01*
X116766666Y-81901904D01*
X116719047Y-81997142D01*
X116671428Y-82044761D01*
X116576190Y-82092380D01*
X116195238Y-82092380D01*
X116195238Y-81092380D01*
X116528571Y-81092380D01*
X116623809Y-81140000D01*
X116671428Y-81187619D01*
X116719047Y-81282857D01*
X116719047Y-81378095D01*
X116671428Y-81473333D01*
X116623809Y-81520952D01*
X116528571Y-81568571D01*
X116195238Y-81568571D01*
X117623809Y-82092380D02*
X117623809Y-81568571D01*
X117576190Y-81473333D01*
X117480952Y-81425714D01*
X117290476Y-81425714D01*
X117195238Y-81473333D01*
X117623809Y-82044761D02*
X117528571Y-82092380D01*
X117290476Y-82092380D01*
X117195238Y-82044761D01*
X117147619Y-81949523D01*
X117147619Y-81854285D01*
X117195238Y-81759047D01*
X117290476Y-81711428D01*
X117528571Y-81711428D01*
X117623809Y-81663809D01*
X118528571Y-82092380D02*
X118528571Y-81092380D01*
X118528571Y-82044761D02*
X118433333Y-82092380D01*
X118242857Y-82092380D01*
X118147619Y-82044761D01*
X118100000Y-81997142D01*
X118052380Y-81901904D01*
X118052380Y-81616190D01*
X118100000Y-81520952D01*
X118147619Y-81473333D01*
X118242857Y-81425714D01*
X118433333Y-81425714D01*
X118528571Y-81473333D01*
X119385714Y-82044761D02*
X119290476Y-82092380D01*
X119100000Y-82092380D01*
X119004761Y-82044761D01*
X118957142Y-81949523D01*
X118957142Y-81568571D01*
X119004761Y-81473333D01*
X119100000Y-81425714D01*
X119290476Y-81425714D01*
X119385714Y-81473333D01*
X119433333Y-81568571D01*
X119433333Y-81663809D01*
X118957142Y-81759047D01*
X119861904Y-82092380D02*
X119861904Y-81425714D01*
X119861904Y-81616190D02*
X119909523Y-81520952D01*
X119957142Y-81473333D01*
X120052380Y-81425714D01*
X120147619Y-81425714D01*
X86821904Y-39092380D02*
X86821904Y-38092380D01*
X87202857Y-38092380D01*
X87298095Y-38140000D01*
X87345714Y-38187619D01*
X87393333Y-38282857D01*
X87393333Y-38425714D01*
X87345714Y-38520952D01*
X87298095Y-38568571D01*
X87202857Y-38616190D01*
X86821904Y-38616190D01*
X88012380Y-38092380D02*
X88202857Y-38092380D01*
X88298095Y-38140000D01*
X88393333Y-38235238D01*
X88440952Y-38425714D01*
X88440952Y-38759047D01*
X88393333Y-38949523D01*
X88298095Y-39044761D01*
X88202857Y-39092380D01*
X88012380Y-39092380D01*
X87917142Y-39044761D01*
X87821904Y-38949523D01*
X87774285Y-38759047D01*
X87774285Y-38425714D01*
X87821904Y-38235238D01*
X87917142Y-38140000D01*
X88012380Y-38092380D01*
X88774285Y-38092380D02*
X89012380Y-39092380D01*
X89202857Y-38378095D01*
X89393333Y-39092380D01*
X89631428Y-38092380D01*
X90012380Y-38568571D02*
X90345714Y-38568571D01*
X90488571Y-39092380D02*
X90012380Y-39092380D01*
X90012380Y-38092380D01*
X90488571Y-38092380D01*
X91488571Y-39092380D02*
X91155238Y-38616190D01*
X90917142Y-39092380D02*
X90917142Y-38092380D01*
X91298095Y-38092380D01*
X91393333Y-38140000D01*
X91440952Y-38187619D01*
X91488571Y-38282857D01*
X91488571Y-38425714D01*
X91440952Y-38520952D01*
X91393333Y-38568571D01*
X91298095Y-38616190D01*
X90917142Y-38616190D01*
X92869523Y-38092380D02*
X93060000Y-38092380D01*
X93155238Y-38140000D01*
X93250476Y-38235238D01*
X93298095Y-38425714D01*
X93298095Y-38759047D01*
X93250476Y-38949523D01*
X93155238Y-39044761D01*
X93060000Y-39092380D01*
X92869523Y-39092380D01*
X92774285Y-39044761D01*
X92679047Y-38949523D01*
X92631428Y-38759047D01*
X92631428Y-38425714D01*
X92679047Y-38235238D01*
X92774285Y-38140000D01*
X92869523Y-38092380D01*
X93726666Y-39092380D02*
X93726666Y-38092380D01*
X94298095Y-39092380D01*
X94298095Y-38092380D01*
X104712380Y-38997142D02*
X104664761Y-39044761D01*
X104521904Y-39092380D01*
X104426666Y-39092380D01*
X104283809Y-39044761D01*
X104188571Y-38949523D01*
X104140952Y-38854285D01*
X104093333Y-38663809D01*
X104093333Y-38520952D01*
X104140952Y-38330476D01*
X104188571Y-38235238D01*
X104283809Y-38140000D01*
X104426666Y-38092380D01*
X104521904Y-38092380D01*
X104664761Y-38140000D01*
X104712380Y-38187619D01*
X105331428Y-38092380D02*
X105521904Y-38092380D01*
X105617142Y-38140000D01*
X105712380Y-38235238D01*
X105760000Y-38425714D01*
X105760000Y-38759047D01*
X105712380Y-38949523D01*
X105617142Y-39044761D01*
X105521904Y-39092380D01*
X105331428Y-39092380D01*
X105236190Y-39044761D01*
X105140952Y-38949523D01*
X105093333Y-38759047D01*
X105093333Y-38425714D01*
X105140952Y-38235238D01*
X105236190Y-38140000D01*
X105331428Y-38092380D01*
X106188571Y-39092380D02*
X106188571Y-38092380D01*
X106760000Y-39092380D01*
X106760000Y-38092380D01*
X107236190Y-39092380D02*
X107236190Y-38092380D01*
X107807619Y-39092380D01*
X107807619Y-38092380D01*
X108283809Y-38568571D02*
X108617142Y-38568571D01*
X108760000Y-39092380D02*
X108283809Y-39092380D01*
X108283809Y-38092380D01*
X108760000Y-38092380D01*
X109760000Y-38997142D02*
X109712380Y-39044761D01*
X109569523Y-39092380D01*
X109474285Y-39092380D01*
X109331428Y-39044761D01*
X109236190Y-38949523D01*
X109188571Y-38854285D01*
X109140952Y-38663809D01*
X109140952Y-38520952D01*
X109188571Y-38330476D01*
X109236190Y-38235238D01*
X109331428Y-38140000D01*
X109474285Y-38092380D01*
X109569523Y-38092380D01*
X109712380Y-38140000D01*
X109760000Y-38187619D01*
X110045714Y-38092380D02*
X110617142Y-38092380D01*
X110331428Y-39092380D02*
X110331428Y-38092380D01*
X110950476Y-38568571D02*
X111283809Y-38568571D01*
X111426666Y-39092380D02*
X110950476Y-39092380D01*
X110950476Y-38092380D01*
X111426666Y-38092380D01*
X111855238Y-39092380D02*
X111855238Y-38092380D01*
X112093333Y-38092380D01*
X112236190Y-38140000D01*
X112331428Y-38235238D01*
X112379047Y-38330476D01*
X112426666Y-38520952D01*
X112426666Y-38663809D01*
X112379047Y-38854285D01*
X112331428Y-38949523D01*
X112236190Y-39044761D01*
X112093333Y-39092380D01*
X111855238Y-39092380D01*
X130024285Y-76652380D02*
X130024285Y-75652380D01*
X130595714Y-76652380D01*
X130595714Y-75652380D01*
X131643333Y-76557142D02*
X131595714Y-76604761D01*
X131452857Y-76652380D01*
X131357619Y-76652380D01*
X131214761Y-76604761D01*
X131119523Y-76509523D01*
X131071904Y-76414285D01*
X131024285Y-76223809D01*
X131024285Y-76080952D01*
X131071904Y-75890476D01*
X131119523Y-75795238D01*
X131214761Y-75700000D01*
X131357619Y-75652380D01*
X131452857Y-75652380D01*
X131595714Y-75700000D01*
X131643333Y-75747619D01*
D11*
X75921428Y-80247142D02*
X76135714Y-80318571D01*
X76492857Y-80318571D01*
X76635714Y-80247142D01*
X76707142Y-80175714D01*
X76778571Y-80032857D01*
X76778571Y-79890000D01*
X76707142Y-79747142D01*
X76635714Y-79675714D01*
X76492857Y-79604285D01*
X76207142Y-79532857D01*
X76064285Y-79461428D01*
X75992857Y-79390000D01*
X75921428Y-79247142D01*
X75921428Y-79104285D01*
X75992857Y-78961428D01*
X76064285Y-78890000D01*
X76207142Y-78818571D01*
X76564285Y-78818571D01*
X76778571Y-78890000D01*
X77421428Y-80318571D02*
X77421428Y-78818571D01*
X77421428Y-79532857D02*
X78278571Y-79532857D01*
X78278571Y-80318571D02*
X78278571Y-78818571D01*
X78921428Y-79890000D02*
X79635714Y-79890000D01*
X78778571Y-80318571D02*
X79278571Y-78818571D01*
X79778571Y-80318571D01*
X81135714Y-80318571D02*
X80635714Y-79604285D01*
X80278571Y-80318571D02*
X80278571Y-78818571D01*
X80850000Y-78818571D01*
X80992857Y-78890000D01*
X81064285Y-78961428D01*
X81135714Y-79104285D01*
X81135714Y-79318571D01*
X81064285Y-79461428D01*
X80992857Y-79532857D01*
X80850000Y-79604285D01*
X80278571Y-79604285D01*
X81778571Y-80318571D02*
X81778571Y-78818571D01*
X82350000Y-78818571D01*
X82492857Y-78890000D01*
X82564285Y-78961428D01*
X82635714Y-79104285D01*
X82635714Y-79318571D01*
X82564285Y-79461428D01*
X82492857Y-79532857D01*
X82350000Y-79604285D01*
X81778571Y-79604285D01*
X84421428Y-80318571D02*
X84421428Y-78818571D01*
X84992857Y-78818571D01*
X85135714Y-78890000D01*
X85207142Y-78961428D01*
X85278571Y-79104285D01*
X85278571Y-79318571D01*
X85207142Y-79461428D01*
X85135714Y-79532857D01*
X84992857Y-79604285D01*
X84421428Y-79604285D01*
X86778571Y-80175714D02*
X86707142Y-80247142D01*
X86492857Y-80318571D01*
X86350000Y-80318571D01*
X86135714Y-80247142D01*
X85992857Y-80104285D01*
X85921428Y-79961428D01*
X85850000Y-79675714D01*
X85850000Y-79461428D01*
X85921428Y-79175714D01*
X85992857Y-79032857D01*
X86135714Y-78890000D01*
X86350000Y-78818571D01*
X86492857Y-78818571D01*
X86707142Y-78890000D01*
X86778571Y-78961428D01*
X89207142Y-78818571D02*
X88921428Y-78818571D01*
X88778571Y-78890000D01*
X88707142Y-78961428D01*
X88564285Y-79175714D01*
X88492857Y-79461428D01*
X88492857Y-80032857D01*
X88564285Y-80175714D01*
X88635714Y-80247142D01*
X88778571Y-80318571D01*
X89064285Y-80318571D01*
X89207142Y-80247142D01*
X89278571Y-80175714D01*
X89350000Y-80032857D01*
X89350000Y-79675714D01*
X89278571Y-79532857D01*
X89207142Y-79461428D01*
X89064285Y-79390000D01*
X88778571Y-79390000D01*
X88635714Y-79461428D01*
X88564285Y-79532857D01*
X88492857Y-79675714D01*
X90278571Y-78818571D02*
X90421428Y-78818571D01*
X90564285Y-78890000D01*
X90635714Y-78961428D01*
X90707142Y-79104285D01*
X90778571Y-79390000D01*
X90778571Y-79747142D01*
X90707142Y-80032857D01*
X90635714Y-80175714D01*
X90564285Y-80247142D01*
X90421428Y-80318571D01*
X90278571Y-80318571D01*
X90135714Y-80247142D01*
X90064285Y-80175714D01*
X89992857Y-80032857D01*
X89921428Y-79747142D01*
X89921428Y-79390000D01*
X89992857Y-79104285D01*
X90064285Y-78961428D01*
X90135714Y-78890000D01*
X90278571Y-78818571D01*
X91421428Y-79747142D02*
X92564285Y-79747142D01*
X93278571Y-80318571D02*
X93278571Y-78818571D01*
X93850000Y-78818571D01*
X93992857Y-78890000D01*
X94064285Y-78961428D01*
X94135714Y-79104285D01*
X94135714Y-79318571D01*
X94064285Y-79461428D01*
X93992857Y-79532857D01*
X93850000Y-79604285D01*
X93278571Y-79604285D01*
X94778571Y-80318571D02*
X94778571Y-79318571D01*
X94778571Y-78818571D02*
X94707142Y-78890000D01*
X94778571Y-78961428D01*
X94850000Y-78890000D01*
X94778571Y-78818571D01*
X94778571Y-78961428D01*
X95492857Y-79318571D02*
X95492857Y-80318571D01*
X95492857Y-79461428D02*
X95564285Y-79390000D01*
X95707142Y-79318571D01*
X95921428Y-79318571D01*
X96064285Y-79390000D01*
X96135714Y-79532857D01*
X96135714Y-80318571D01*
X98850000Y-80175714D02*
X98778571Y-80247142D01*
X98564285Y-80318571D01*
X98421428Y-80318571D01*
X98207142Y-80247142D01*
X98064285Y-80104285D01*
X97992857Y-79961428D01*
X97921428Y-79675714D01*
X97921428Y-79461428D01*
X97992857Y-79175714D01*
X98064285Y-79032857D01*
X98207142Y-78890000D01*
X98421428Y-78818571D01*
X98564285Y-78818571D01*
X98778571Y-78890000D01*
X98850000Y-78961428D01*
X99707142Y-80318571D02*
X99564285Y-80247142D01*
X99492857Y-80175714D01*
X99421428Y-80032857D01*
X99421428Y-79604285D01*
X99492857Y-79461428D01*
X99564285Y-79390000D01*
X99707142Y-79318571D01*
X99921428Y-79318571D01*
X100064285Y-79390000D01*
X100135714Y-79461428D01*
X100207142Y-79604285D01*
X100207142Y-80032857D01*
X100135714Y-80175714D01*
X100064285Y-80247142D01*
X99921428Y-80318571D01*
X99707142Y-80318571D01*
X100850000Y-79318571D02*
X100850000Y-80318571D01*
X100850000Y-79461428D02*
X100921428Y-79390000D01*
X101064285Y-79318571D01*
X101278571Y-79318571D01*
X101421428Y-79390000D01*
X101492857Y-79532857D01*
X101492857Y-80318571D01*
X102207142Y-79318571D02*
X102207142Y-80318571D01*
X102207142Y-79461428D02*
X102278571Y-79390000D01*
X102421428Y-79318571D01*
X102635714Y-79318571D01*
X102778571Y-79390000D01*
X102850000Y-79532857D01*
X102850000Y-80318571D01*
X104135714Y-80247142D02*
X103992857Y-80318571D01*
X103707142Y-80318571D01*
X103564285Y-80247142D01*
X103492857Y-80104285D01*
X103492857Y-79532857D01*
X103564285Y-79390000D01*
X103707142Y-79318571D01*
X103992857Y-79318571D01*
X104135714Y-79390000D01*
X104207142Y-79532857D01*
X104207142Y-79675714D01*
X103492857Y-79818571D01*
X105492857Y-80247142D02*
X105350000Y-80318571D01*
X105064285Y-80318571D01*
X104921428Y-80247142D01*
X104850000Y-80175714D01*
X104778571Y-80032857D01*
X104778571Y-79604285D01*
X104850000Y-79461428D01*
X104921428Y-79390000D01*
X105064285Y-79318571D01*
X105350000Y-79318571D01*
X105492857Y-79390000D01*
X105921428Y-79318571D02*
X106492857Y-79318571D01*
X106135714Y-78818571D02*
X106135714Y-80104285D01*
X106207142Y-80247142D01*
X106350000Y-80318571D01*
X106492857Y-80318571D01*
X107207142Y-80318571D02*
X107064285Y-80247142D01*
X106992857Y-80175714D01*
X106921428Y-80032857D01*
X106921428Y-79604285D01*
X106992857Y-79461428D01*
X107064285Y-79390000D01*
X107207142Y-79318571D01*
X107421428Y-79318571D01*
X107564285Y-79390000D01*
X107635714Y-79461428D01*
X107707142Y-79604285D01*
X107707142Y-80032857D01*
X107635714Y-80175714D01*
X107564285Y-80247142D01*
X107421428Y-80318571D01*
X107207142Y-80318571D01*
X108350000Y-80318571D02*
X108350000Y-79318571D01*
X108350000Y-79604285D02*
X108421428Y-79461428D01*
X108492857Y-79390000D01*
X108635714Y-79318571D01*
X108778571Y-79318571D01*
X110921428Y-79532857D02*
X111135714Y-79604285D01*
X111207142Y-79675714D01*
X111278571Y-79818571D01*
X111278571Y-80032857D01*
X111207142Y-80175714D01*
X111135714Y-80247142D01*
X110992857Y-80318571D01*
X110421428Y-80318571D01*
X110421428Y-78818571D01*
X110921428Y-78818571D01*
X111064285Y-78890000D01*
X111135714Y-78961428D01*
X111207142Y-79104285D01*
X111207142Y-79247142D01*
X111135714Y-79390000D01*
X111064285Y-79461428D01*
X110921428Y-79532857D01*
X110421428Y-79532857D01*
X111921428Y-80318571D02*
X111921428Y-79318571D01*
X111921428Y-79604285D02*
X111992857Y-79461428D01*
X112064285Y-79390000D01*
X112207142Y-79318571D01*
X112350000Y-79318571D01*
X113421428Y-80247142D02*
X113278571Y-80318571D01*
X112992857Y-80318571D01*
X112850000Y-80247142D01*
X112778571Y-80104285D01*
X112778571Y-79532857D01*
X112850000Y-79390000D01*
X112992857Y-79318571D01*
X113278571Y-79318571D01*
X113421428Y-79390000D01*
X113492857Y-79532857D01*
X113492857Y-79675714D01*
X112778571Y-79818571D01*
X114778571Y-80318571D02*
X114778571Y-79532857D01*
X114707142Y-79390000D01*
X114564285Y-79318571D01*
X114278571Y-79318571D01*
X114135714Y-79390000D01*
X114778571Y-80247142D02*
X114635714Y-80318571D01*
X114278571Y-80318571D01*
X114135714Y-80247142D01*
X114064285Y-80104285D01*
X114064285Y-79961428D01*
X114135714Y-79818571D01*
X114278571Y-79747142D01*
X114635714Y-79747142D01*
X114778571Y-79675714D01*
X115492857Y-80318571D02*
X115492857Y-78818571D01*
X115635714Y-79747142D02*
X116064285Y-80318571D01*
X116064285Y-79318571D02*
X115492857Y-79890000D01*
X116921428Y-80318571D02*
X116778571Y-80247142D01*
X116707142Y-80175714D01*
X116635714Y-80032857D01*
X116635714Y-79604285D01*
X116707142Y-79461428D01*
X116778571Y-79390000D01*
X116921428Y-79318571D01*
X117135714Y-79318571D01*
X117278571Y-79390000D01*
X117350000Y-79461428D01*
X117421428Y-79604285D01*
X117421428Y-80032857D01*
X117350000Y-80175714D01*
X117278571Y-80247142D01*
X117135714Y-80318571D01*
X116921428Y-80318571D01*
X118707142Y-79318571D02*
X118707142Y-80318571D01*
X118064285Y-79318571D02*
X118064285Y-80104285D01*
X118135714Y-80247142D01*
X118278571Y-80318571D01*
X118492857Y-80318571D01*
X118635714Y-80247142D01*
X118707142Y-80175714D01*
X119207142Y-79318571D02*
X119778571Y-79318571D01*
X119421428Y-78818571D02*
X119421428Y-80104285D01*
X119492857Y-80247142D01*
X119635714Y-80318571D01*
X119778571Y-80318571D01*
X121921428Y-79532857D02*
X122135714Y-79604285D01*
X122207142Y-79675714D01*
X122278571Y-79818571D01*
X122278571Y-80032857D01*
X122207142Y-80175714D01*
X122135714Y-80247142D01*
X121992857Y-80318571D01*
X121421428Y-80318571D01*
X121421428Y-78818571D01*
X121921428Y-78818571D01*
X122064285Y-78890000D01*
X122135714Y-78961428D01*
X122207142Y-79104285D01*
X122207142Y-79247142D01*
X122135714Y-79390000D01*
X122064285Y-79461428D01*
X121921428Y-79532857D01*
X121421428Y-79532857D01*
X123135714Y-80318571D02*
X122992857Y-80247142D01*
X122921428Y-80175714D01*
X122850000Y-80032857D01*
X122850000Y-79604285D01*
X122921428Y-79461428D01*
X122992857Y-79390000D01*
X123135714Y-79318571D01*
X123350000Y-79318571D01*
X123492857Y-79390000D01*
X123564285Y-79461428D01*
X123635714Y-79604285D01*
X123635714Y-80032857D01*
X123564285Y-80175714D01*
X123492857Y-80247142D01*
X123350000Y-80318571D01*
X123135714Y-80318571D01*
X124921428Y-80318571D02*
X124921428Y-79532857D01*
X124850000Y-79390000D01*
X124707142Y-79318571D01*
X124421428Y-79318571D01*
X124278571Y-79390000D01*
X124921428Y-80247142D02*
X124778571Y-80318571D01*
X124421428Y-80318571D01*
X124278571Y-80247142D01*
X124207142Y-80104285D01*
X124207142Y-79961428D01*
X124278571Y-79818571D01*
X124421428Y-79747142D01*
X124778571Y-79747142D01*
X124921428Y-79675714D01*
X125635714Y-80318571D02*
X125635714Y-79318571D01*
X125635714Y-79604285D02*
X125707142Y-79461428D01*
X125778571Y-79390000D01*
X125921428Y-79318571D01*
X126064285Y-79318571D01*
X127207142Y-80318571D02*
X127207142Y-78818571D01*
X127207142Y-80247142D02*
X127064285Y-80318571D01*
X126778571Y-80318571D01*
X126635714Y-80247142D01*
X126564285Y-80175714D01*
X126492857Y-80032857D01*
X126492857Y-79604285D01*
X126564285Y-79461428D01*
X126635714Y-79390000D01*
X126778571Y-79318571D01*
X127064285Y-79318571D01*
X127207142Y-79390000D01*
D10*
X129714761Y-74493333D02*
X129667142Y-74445714D01*
X129571904Y-74302857D01*
X129524285Y-74207619D01*
X129476666Y-74064761D01*
X129429047Y-73826666D01*
X129429047Y-73636190D01*
X129476666Y-73398095D01*
X129524285Y-73255238D01*
X129571904Y-73160000D01*
X129667142Y-73017142D01*
X129714761Y-72969523D01*
X130619523Y-74112380D02*
X130048095Y-74112380D01*
X130333809Y-74112380D02*
X130333809Y-73112380D01*
X130238571Y-73255238D01*
X130143333Y-73350476D01*
X130048095Y-73398095D01*
X130952857Y-73112380D02*
X131571904Y-73112380D01*
X131238571Y-73493333D01*
X131381428Y-73493333D01*
X131476666Y-73540952D01*
X131524285Y-73588571D01*
X131571904Y-73683809D01*
X131571904Y-73921904D01*
X131524285Y-74017142D01*
X131476666Y-74064761D01*
X131381428Y-74112380D01*
X131095714Y-74112380D01*
X131000476Y-74064761D01*
X130952857Y-74017142D01*
X131905238Y-74493333D02*
X131952857Y-74445714D01*
X132048095Y-74302857D01*
X132095714Y-74207619D01*
X132143333Y-74064761D01*
X132190952Y-73826666D01*
X132190952Y-73636190D01*
X132143333Y-73398095D01*
X132095714Y-73255238D01*
X132048095Y-73160000D01*
X131952857Y-73017142D01*
X131905238Y-72969523D01*
X129714761Y-71953333D02*
X129667142Y-71905714D01*
X129571904Y-71762857D01*
X129524285Y-71667619D01*
X129476666Y-71524761D01*
X129429047Y-71286666D01*
X129429047Y-71096190D01*
X129476666Y-70858095D01*
X129524285Y-70715238D01*
X129571904Y-70620000D01*
X129667142Y-70477142D01*
X129714761Y-70429523D01*
X130619523Y-71572380D02*
X130048095Y-71572380D01*
X130333809Y-71572380D02*
X130333809Y-70572380D01*
X130238571Y-70715238D01*
X130143333Y-70810476D01*
X130048095Y-70858095D01*
X131476666Y-70905714D02*
X131476666Y-71572380D01*
X131238571Y-70524761D02*
X131000476Y-71239047D01*
X131619523Y-71239047D01*
X131905238Y-71953333D02*
X131952857Y-71905714D01*
X132048095Y-71762857D01*
X132095714Y-71667619D01*
X132143333Y-71524761D01*
X132190952Y-71286666D01*
X132190952Y-71096190D01*
X132143333Y-70858095D01*
X132095714Y-70715238D01*
X132048095Y-70620000D01*
X131952857Y-70477142D01*
X131905238Y-70429523D01*
X129714761Y-69413333D02*
X129667142Y-69365714D01*
X129571904Y-69222857D01*
X129524285Y-69127619D01*
X129476666Y-68984761D01*
X129429047Y-68746666D01*
X129429047Y-68556190D01*
X129476666Y-68318095D01*
X129524285Y-68175238D01*
X129571904Y-68080000D01*
X129667142Y-67937142D01*
X129714761Y-67889523D01*
X130524285Y-68365714D02*
X130524285Y-69032380D01*
X130286190Y-67984761D02*
X130048095Y-68699047D01*
X130667142Y-68699047D01*
X131238571Y-68032380D02*
X131333809Y-68032380D01*
X131429047Y-68080000D01*
X131476666Y-68127619D01*
X131524285Y-68222857D01*
X131571904Y-68413333D01*
X131571904Y-68651428D01*
X131524285Y-68841904D01*
X131476666Y-68937142D01*
X131429047Y-68984761D01*
X131333809Y-69032380D01*
X131238571Y-69032380D01*
X131143333Y-68984761D01*
X131095714Y-68937142D01*
X131048095Y-68841904D01*
X131000476Y-68651428D01*
X131000476Y-68413333D01*
X131048095Y-68222857D01*
X131095714Y-68127619D01*
X131143333Y-68080000D01*
X131238571Y-68032380D01*
X131905238Y-69413333D02*
X131952857Y-69365714D01*
X132048095Y-69222857D01*
X132095714Y-69127619D01*
X132143333Y-68984761D01*
X132190952Y-68746666D01*
X132190952Y-68556190D01*
X132143333Y-68318095D01*
X132095714Y-68175238D01*
X132048095Y-68080000D01*
X131952857Y-67937142D01*
X131905238Y-67889523D01*
X124785714Y-60045000D02*
X125785714Y-60045000D01*
X125595238Y-61317142D02*
X125547619Y-61364761D01*
X125404761Y-61412380D01*
X125309523Y-61412380D01*
X125166666Y-61364761D01*
X125071428Y-61269523D01*
X125023809Y-61174285D01*
X124976190Y-60983809D01*
X124976190Y-60840952D01*
X125023809Y-60650476D01*
X125071428Y-60555238D01*
X125166666Y-60460000D01*
X125309523Y-60412380D01*
X125404761Y-60412380D01*
X125547619Y-60460000D01*
X125595238Y-60507619D01*
X125785714Y-60045000D02*
X126928571Y-60045000D01*
X126023809Y-61412380D02*
X126023809Y-60412380D01*
X126357142Y-61126666D01*
X126690476Y-60412380D01*
X126690476Y-61412380D01*
X126928571Y-60045000D02*
X127690476Y-60045000D01*
X127023809Y-60412380D02*
X127595238Y-60412380D01*
X127309523Y-61412380D02*
X127309523Y-60412380D01*
X127690476Y-60045000D02*
X128166666Y-60045000D01*
X127928571Y-61412380D02*
X127928571Y-60412380D01*
X128166666Y-60045000D02*
X129214285Y-60045000D01*
X128404761Y-61412380D02*
X128404761Y-60412380D01*
X128976190Y-61412380D01*
X128976190Y-60412380D01*
X124928571Y-53697142D02*
X124880952Y-53744761D01*
X124738095Y-53792380D01*
X124642857Y-53792380D01*
X124500000Y-53744761D01*
X124404761Y-53649523D01*
X124357142Y-53554285D01*
X124309523Y-53363809D01*
X124309523Y-53220952D01*
X124357142Y-53030476D01*
X124404761Y-52935238D01*
X124500000Y-52840000D01*
X124642857Y-52792380D01*
X124738095Y-52792380D01*
X124880952Y-52840000D01*
X124928571Y-52887619D01*
X125357142Y-53792380D02*
X125357142Y-52792380D01*
X125690476Y-53506666D01*
X126023809Y-52792380D01*
X126023809Y-53792380D01*
X126357142Y-52792380D02*
X126928571Y-52792380D01*
X126642857Y-53792380D02*
X126642857Y-52792380D01*
X127452380Y-52792380D02*
X127642857Y-52792380D01*
X127738095Y-52840000D01*
X127833333Y-52935238D01*
X127880952Y-53125714D01*
X127880952Y-53459047D01*
X127833333Y-53649523D01*
X127738095Y-53744761D01*
X127642857Y-53792380D01*
X127452380Y-53792380D01*
X127357142Y-53744761D01*
X127261904Y-53649523D01*
X127214285Y-53459047D01*
X127214285Y-53125714D01*
X127261904Y-52935238D01*
X127357142Y-52840000D01*
X127452380Y-52792380D01*
X128309523Y-52792380D02*
X128309523Y-53601904D01*
X128357142Y-53697142D01*
X128404761Y-53744761D01*
X128500000Y-53792380D01*
X128690476Y-53792380D01*
X128785714Y-53744761D01*
X128833333Y-53697142D01*
X128880952Y-53601904D01*
X128880952Y-52792380D01*
X129214285Y-52792380D02*
X129785714Y-52792380D01*
X129500000Y-53792380D02*
X129500000Y-52792380D01*
X129714761Y-66873333D02*
X129667142Y-66825714D01*
X129571904Y-66682857D01*
X129524285Y-66587619D01*
X129476666Y-66444761D01*
X129429047Y-66206666D01*
X129429047Y-66016190D01*
X129476666Y-65778095D01*
X129524285Y-65635238D01*
X129571904Y-65540000D01*
X129667142Y-65397142D01*
X129714761Y-65349523D01*
X130524285Y-65825714D02*
X130524285Y-66492380D01*
X130286190Y-65444761D02*
X130048095Y-66159047D01*
X130667142Y-66159047D01*
X131095714Y-66492380D02*
X131286190Y-66492380D01*
X131381428Y-66444761D01*
X131429047Y-66397142D01*
X131524285Y-66254285D01*
X131571904Y-66063809D01*
X131571904Y-65682857D01*
X131524285Y-65587619D01*
X131476666Y-65540000D01*
X131381428Y-65492380D01*
X131190952Y-65492380D01*
X131095714Y-65540000D01*
X131048095Y-65587619D01*
X131000476Y-65682857D01*
X131000476Y-65920952D01*
X131048095Y-66016190D01*
X131095714Y-66063809D01*
X131190952Y-66111428D01*
X131381428Y-66111428D01*
X131476666Y-66063809D01*
X131524285Y-66016190D01*
X131571904Y-65920952D01*
X131905238Y-66873333D02*
X131952857Y-66825714D01*
X132048095Y-66682857D01*
X132095714Y-66587619D01*
X132143333Y-66444761D01*
X132190952Y-66206666D01*
X132190952Y-66016190D01*
X132143333Y-65778095D01*
X132095714Y-65635238D01*
X132048095Y-65540000D01*
X131952857Y-65397142D01*
X131905238Y-65349523D01*
X116895714Y-73826666D02*
X117371904Y-73826666D01*
X116800476Y-74112380D02*
X117133809Y-73112380D01*
X117467142Y-74112380D01*
X117800476Y-74112380D02*
X117800476Y-73112380D01*
X118038571Y-73112380D01*
X118181428Y-73160000D01*
X118276666Y-73255238D01*
X118324285Y-73350476D01*
X118371904Y-73540952D01*
X118371904Y-73683809D01*
X118324285Y-73874285D01*
X118276666Y-73969523D01*
X118181428Y-74064761D01*
X118038571Y-74112380D01*
X117800476Y-74112380D01*
X118990952Y-73112380D02*
X119086190Y-73112380D01*
X119181428Y-73160000D01*
X119229047Y-73207619D01*
X119276666Y-73302857D01*
X119324285Y-73493333D01*
X119324285Y-73731428D01*
X119276666Y-73921904D01*
X119229047Y-74017142D01*
X119181428Y-74064761D01*
X119086190Y-74112380D01*
X118990952Y-74112380D01*
X118895714Y-74064761D01*
X118848095Y-74017142D01*
X118800476Y-73921904D01*
X118752857Y-73731428D01*
X118752857Y-73493333D01*
X118800476Y-73302857D01*
X118848095Y-73207619D01*
X118895714Y-73160000D01*
X118990952Y-73112380D01*
X116895714Y-71286666D02*
X117371904Y-71286666D01*
X116800476Y-71572380D02*
X117133809Y-70572380D01*
X117467142Y-71572380D01*
X117800476Y-71572380D02*
X117800476Y-70572380D01*
X118038571Y-70572380D01*
X118181428Y-70620000D01*
X118276666Y-70715238D01*
X118324285Y-70810476D01*
X118371904Y-71000952D01*
X118371904Y-71143809D01*
X118324285Y-71334285D01*
X118276666Y-71429523D01*
X118181428Y-71524761D01*
X118038571Y-71572380D01*
X117800476Y-71572380D01*
X118752857Y-70667619D02*
X118800476Y-70620000D01*
X118895714Y-70572380D01*
X119133809Y-70572380D01*
X119229047Y-70620000D01*
X119276666Y-70667619D01*
X119324285Y-70762857D01*
X119324285Y-70858095D01*
X119276666Y-71000952D01*
X118705238Y-71572380D01*
X119324285Y-71572380D01*
X116895714Y-68746666D02*
X117371904Y-68746666D01*
X116800476Y-69032380D02*
X117133809Y-68032380D01*
X117467142Y-69032380D01*
X117800476Y-69032380D02*
X117800476Y-68032380D01*
X118038571Y-68032380D01*
X118181428Y-68080000D01*
X118276666Y-68175238D01*
X118324285Y-68270476D01*
X118371904Y-68460952D01*
X118371904Y-68603809D01*
X118324285Y-68794285D01*
X118276666Y-68889523D01*
X118181428Y-68984761D01*
X118038571Y-69032380D01*
X117800476Y-69032380D01*
X119229047Y-68365714D02*
X119229047Y-69032380D01*
X118990952Y-67984761D02*
X118752857Y-68699047D01*
X119371904Y-68699047D01*
X116895714Y-66206666D02*
X117371904Y-66206666D01*
X116800476Y-66492380D02*
X117133809Y-65492380D01*
X117467142Y-66492380D01*
X117800476Y-66492380D02*
X117800476Y-65492380D01*
X118038571Y-65492380D01*
X118181428Y-65540000D01*
X118276666Y-65635238D01*
X118324285Y-65730476D01*
X118371904Y-65920952D01*
X118371904Y-66063809D01*
X118324285Y-66254285D01*
X118276666Y-66349523D01*
X118181428Y-66444761D01*
X118038571Y-66492380D01*
X117800476Y-66492380D01*
X119229047Y-65492380D02*
X119038571Y-65492380D01*
X118943333Y-65540000D01*
X118895714Y-65587619D01*
X118800476Y-65730476D01*
X118752857Y-65920952D01*
X118752857Y-66301904D01*
X118800476Y-66397142D01*
X118848095Y-66444761D01*
X118943333Y-66492380D01*
X119133809Y-66492380D01*
X119229047Y-66444761D01*
X119276666Y-66397142D01*
X119324285Y-66301904D01*
X119324285Y-66063809D01*
X119276666Y-65968571D01*
X119229047Y-65920952D01*
X119133809Y-65873333D01*
X118943333Y-65873333D01*
X118848095Y-65920952D01*
X118800476Y-65968571D01*
X118752857Y-66063809D01*
X116895714Y-63666666D02*
X117371904Y-63666666D01*
X116800476Y-63952380D02*
X117133809Y-62952380D01*
X117467142Y-63952380D01*
X117800476Y-63952380D02*
X117800476Y-62952380D01*
X118038571Y-62952380D01*
X118181428Y-63000000D01*
X118276666Y-63095238D01*
X118324285Y-63190476D01*
X118371904Y-63380952D01*
X118371904Y-63523809D01*
X118324285Y-63714285D01*
X118276666Y-63809523D01*
X118181428Y-63904761D01*
X118038571Y-63952380D01*
X117800476Y-63952380D01*
X118943333Y-63380952D02*
X118848095Y-63333333D01*
X118800476Y-63285714D01*
X118752857Y-63190476D01*
X118752857Y-63142857D01*
X118800476Y-63047619D01*
X118848095Y-63000000D01*
X118943333Y-62952380D01*
X119133809Y-62952380D01*
X119229047Y-63000000D01*
X119276666Y-63047619D01*
X119324285Y-63142857D01*
X119324285Y-63190476D01*
X119276666Y-63285714D01*
X119229047Y-63333333D01*
X119133809Y-63380952D01*
X118943333Y-63380952D01*
X118848095Y-63428571D01*
X118800476Y-63476190D01*
X118752857Y-63571428D01*
X118752857Y-63761904D01*
X118800476Y-63857142D01*
X118848095Y-63904761D01*
X118943333Y-63952380D01*
X119133809Y-63952380D01*
X119229047Y-63904761D01*
X119276666Y-63857142D01*
X119324285Y-63761904D01*
X119324285Y-63571428D01*
X119276666Y-63476190D01*
X119229047Y-63428571D01*
X119133809Y-63380952D01*
X116419523Y-61126666D02*
X116895714Y-61126666D01*
X116324285Y-61412380D02*
X116657619Y-60412380D01*
X116990952Y-61412380D01*
X117324285Y-61412380D02*
X117324285Y-60412380D01*
X117562380Y-60412380D01*
X117705238Y-60460000D01*
X117800476Y-60555238D01*
X117848095Y-60650476D01*
X117895714Y-60840952D01*
X117895714Y-60983809D01*
X117848095Y-61174285D01*
X117800476Y-61269523D01*
X117705238Y-61364761D01*
X117562380Y-61412380D01*
X117324285Y-61412380D01*
X118848095Y-61412380D02*
X118276666Y-61412380D01*
X118562380Y-61412380D02*
X118562380Y-60412380D01*
X118467142Y-60555238D01*
X118371904Y-60650476D01*
X118276666Y-60698095D01*
X119467142Y-60412380D02*
X119562380Y-60412380D01*
X119657619Y-60460000D01*
X119705238Y-60507619D01*
X119752857Y-60602857D01*
X119800476Y-60793333D01*
X119800476Y-61031428D01*
X119752857Y-61221904D01*
X119705238Y-61317142D01*
X119657619Y-61364761D01*
X119562380Y-61412380D01*
X119467142Y-61412380D01*
X119371904Y-61364761D01*
X119324285Y-61317142D01*
X119276666Y-61221904D01*
X119229047Y-61031428D01*
X119229047Y-60793333D01*
X119276666Y-60602857D01*
X119324285Y-60507619D01*
X119371904Y-60460000D01*
X119467142Y-60412380D01*
X116419523Y-58586666D02*
X116895714Y-58586666D01*
X116324285Y-58872380D02*
X116657619Y-57872380D01*
X116990952Y-58872380D01*
X117324285Y-58872380D02*
X117324285Y-57872380D01*
X117562380Y-57872380D01*
X117705238Y-57920000D01*
X117800476Y-58015238D01*
X117848095Y-58110476D01*
X117895714Y-58300952D01*
X117895714Y-58443809D01*
X117848095Y-58634285D01*
X117800476Y-58729523D01*
X117705238Y-58824761D01*
X117562380Y-58872380D01*
X117324285Y-58872380D01*
X118848095Y-58872380D02*
X118276666Y-58872380D01*
X118562380Y-58872380D02*
X118562380Y-57872380D01*
X118467142Y-58015238D01*
X118371904Y-58110476D01*
X118276666Y-58158095D01*
X119229047Y-57967619D02*
X119276666Y-57920000D01*
X119371904Y-57872380D01*
X119610000Y-57872380D01*
X119705238Y-57920000D01*
X119752857Y-57967619D01*
X119800476Y-58062857D01*
X119800476Y-58158095D01*
X119752857Y-58300952D01*
X119181428Y-58872380D01*
X119800476Y-58872380D01*
X116419523Y-56046666D02*
X116895714Y-56046666D01*
X116324285Y-56332380D02*
X116657619Y-55332380D01*
X116990952Y-56332380D01*
X117324285Y-56332380D02*
X117324285Y-55332380D01*
X117562380Y-55332380D01*
X117705238Y-55380000D01*
X117800476Y-55475238D01*
X117848095Y-55570476D01*
X117895714Y-55760952D01*
X117895714Y-55903809D01*
X117848095Y-56094285D01*
X117800476Y-56189523D01*
X117705238Y-56284761D01*
X117562380Y-56332380D01*
X117324285Y-56332380D01*
X118848095Y-56332380D02*
X118276666Y-56332380D01*
X118562380Y-56332380D02*
X118562380Y-55332380D01*
X118467142Y-55475238D01*
X118371904Y-55570476D01*
X118276666Y-55618095D01*
X119705238Y-55665714D02*
X119705238Y-56332380D01*
X119467142Y-55284761D02*
X119229047Y-55999047D01*
X119848095Y-55999047D01*
X106735714Y-73826666D02*
X107211904Y-73826666D01*
X106640476Y-74112380D02*
X106973809Y-73112380D01*
X107307142Y-74112380D01*
X107640476Y-74112380D02*
X107640476Y-73112380D01*
X107878571Y-73112380D01*
X108021428Y-73160000D01*
X108116666Y-73255238D01*
X108164285Y-73350476D01*
X108211904Y-73540952D01*
X108211904Y-73683809D01*
X108164285Y-73874285D01*
X108116666Y-73969523D01*
X108021428Y-74064761D01*
X107878571Y-74112380D01*
X107640476Y-74112380D01*
X109164285Y-74112380D02*
X108592857Y-74112380D01*
X108878571Y-74112380D02*
X108878571Y-73112380D01*
X108783333Y-73255238D01*
X108688095Y-73350476D01*
X108592857Y-73398095D01*
X106735714Y-71286666D02*
X107211904Y-71286666D01*
X106640476Y-71572380D02*
X106973809Y-70572380D01*
X107307142Y-71572380D01*
X107640476Y-71572380D02*
X107640476Y-70572380D01*
X107878571Y-70572380D01*
X108021428Y-70620000D01*
X108116666Y-70715238D01*
X108164285Y-70810476D01*
X108211904Y-71000952D01*
X108211904Y-71143809D01*
X108164285Y-71334285D01*
X108116666Y-71429523D01*
X108021428Y-71524761D01*
X107878571Y-71572380D01*
X107640476Y-71572380D01*
X108545238Y-70572380D02*
X109164285Y-70572380D01*
X108830952Y-70953333D01*
X108973809Y-70953333D01*
X109069047Y-71000952D01*
X109116666Y-71048571D01*
X109164285Y-71143809D01*
X109164285Y-71381904D01*
X109116666Y-71477142D01*
X109069047Y-71524761D01*
X108973809Y-71572380D01*
X108688095Y-71572380D01*
X108592857Y-71524761D01*
X108545238Y-71477142D01*
X106735714Y-68746666D02*
X107211904Y-68746666D01*
X106640476Y-69032380D02*
X106973809Y-68032380D01*
X107307142Y-69032380D01*
X107640476Y-69032380D02*
X107640476Y-68032380D01*
X107878571Y-68032380D01*
X108021428Y-68080000D01*
X108116666Y-68175238D01*
X108164285Y-68270476D01*
X108211904Y-68460952D01*
X108211904Y-68603809D01*
X108164285Y-68794285D01*
X108116666Y-68889523D01*
X108021428Y-68984761D01*
X107878571Y-69032380D01*
X107640476Y-69032380D01*
X109116666Y-68032380D02*
X108640476Y-68032380D01*
X108592857Y-68508571D01*
X108640476Y-68460952D01*
X108735714Y-68413333D01*
X108973809Y-68413333D01*
X109069047Y-68460952D01*
X109116666Y-68508571D01*
X109164285Y-68603809D01*
X109164285Y-68841904D01*
X109116666Y-68937142D01*
X109069047Y-68984761D01*
X108973809Y-69032380D01*
X108735714Y-69032380D01*
X108640476Y-68984761D01*
X108592857Y-68937142D01*
X106735714Y-66206666D02*
X107211904Y-66206666D01*
X106640476Y-66492380D02*
X106973809Y-65492380D01*
X107307142Y-66492380D01*
X107640476Y-66492380D02*
X107640476Y-65492380D01*
X107878571Y-65492380D01*
X108021428Y-65540000D01*
X108116666Y-65635238D01*
X108164285Y-65730476D01*
X108211904Y-65920952D01*
X108211904Y-66063809D01*
X108164285Y-66254285D01*
X108116666Y-66349523D01*
X108021428Y-66444761D01*
X107878571Y-66492380D01*
X107640476Y-66492380D01*
X108545238Y-65492380D02*
X109211904Y-65492380D01*
X108783333Y-66492380D01*
X106735714Y-63666666D02*
X107211904Y-63666666D01*
X106640476Y-63952380D02*
X106973809Y-62952380D01*
X107307142Y-63952380D01*
X107640476Y-63952380D02*
X107640476Y-62952380D01*
X107878571Y-62952380D01*
X108021428Y-63000000D01*
X108116666Y-63095238D01*
X108164285Y-63190476D01*
X108211904Y-63380952D01*
X108211904Y-63523809D01*
X108164285Y-63714285D01*
X108116666Y-63809523D01*
X108021428Y-63904761D01*
X107878571Y-63952380D01*
X107640476Y-63952380D01*
X108688095Y-63952380D02*
X108878571Y-63952380D01*
X108973809Y-63904761D01*
X109021428Y-63857142D01*
X109116666Y-63714285D01*
X109164285Y-63523809D01*
X109164285Y-63142857D01*
X109116666Y-63047619D01*
X109069047Y-63000000D01*
X108973809Y-62952380D01*
X108783333Y-62952380D01*
X108688095Y-63000000D01*
X108640476Y-63047619D01*
X108592857Y-63142857D01*
X108592857Y-63380952D01*
X108640476Y-63476190D01*
X108688095Y-63523809D01*
X108783333Y-63571428D01*
X108973809Y-63571428D01*
X109069047Y-63523809D01*
X109116666Y-63476190D01*
X109164285Y-63380952D01*
X106259523Y-61126666D02*
X106735714Y-61126666D01*
X106164285Y-61412380D02*
X106497619Y-60412380D01*
X106830952Y-61412380D01*
X107164285Y-61412380D02*
X107164285Y-60412380D01*
X107402380Y-60412380D01*
X107545238Y-60460000D01*
X107640476Y-60555238D01*
X107688095Y-60650476D01*
X107735714Y-60840952D01*
X107735714Y-60983809D01*
X107688095Y-61174285D01*
X107640476Y-61269523D01*
X107545238Y-61364761D01*
X107402380Y-61412380D01*
X107164285Y-61412380D01*
X108688095Y-61412380D02*
X108116666Y-61412380D01*
X108402380Y-61412380D02*
X108402380Y-60412380D01*
X108307142Y-60555238D01*
X108211904Y-60650476D01*
X108116666Y-60698095D01*
X109640476Y-61412380D02*
X109069047Y-61412380D01*
X109354761Y-61412380D02*
X109354761Y-60412380D01*
X109259523Y-60555238D01*
X109164285Y-60650476D01*
X109069047Y-60698095D01*
X106259523Y-58586666D02*
X106735714Y-58586666D01*
X106164285Y-58872380D02*
X106497619Y-57872380D01*
X106830952Y-58872380D01*
X107164285Y-58872380D02*
X107164285Y-57872380D01*
X107402380Y-57872380D01*
X107545238Y-57920000D01*
X107640476Y-58015238D01*
X107688095Y-58110476D01*
X107735714Y-58300952D01*
X107735714Y-58443809D01*
X107688095Y-58634285D01*
X107640476Y-58729523D01*
X107545238Y-58824761D01*
X107402380Y-58872380D01*
X107164285Y-58872380D01*
X108688095Y-58872380D02*
X108116666Y-58872380D01*
X108402380Y-58872380D02*
X108402380Y-57872380D01*
X108307142Y-58015238D01*
X108211904Y-58110476D01*
X108116666Y-58158095D01*
X109021428Y-57872380D02*
X109640476Y-57872380D01*
X109307142Y-58253333D01*
X109450000Y-58253333D01*
X109545238Y-58300952D01*
X109592857Y-58348571D01*
X109640476Y-58443809D01*
X109640476Y-58681904D01*
X109592857Y-58777142D01*
X109545238Y-58824761D01*
X109450000Y-58872380D01*
X109164285Y-58872380D01*
X109069047Y-58824761D01*
X109021428Y-58777142D01*
X106259523Y-56046666D02*
X106735714Y-56046666D01*
X106164285Y-56332380D02*
X106497619Y-55332380D01*
X106830952Y-56332380D01*
X107164285Y-56332380D02*
X107164285Y-55332380D01*
X107402380Y-55332380D01*
X107545238Y-55380000D01*
X107640476Y-55475238D01*
X107688095Y-55570476D01*
X107735714Y-55760952D01*
X107735714Y-55903809D01*
X107688095Y-56094285D01*
X107640476Y-56189523D01*
X107545238Y-56284761D01*
X107402380Y-56332380D01*
X107164285Y-56332380D01*
X108688095Y-56332380D02*
X108116666Y-56332380D01*
X108402380Y-56332380D02*
X108402380Y-55332380D01*
X108307142Y-55475238D01*
X108211904Y-55570476D01*
X108116666Y-55618095D01*
X109592857Y-55332380D02*
X109116666Y-55332380D01*
X109069047Y-55808571D01*
X109116666Y-55760952D01*
X109211904Y-55713333D01*
X109450000Y-55713333D01*
X109545238Y-55760952D01*
X109592857Y-55808571D01*
X109640476Y-55903809D01*
X109640476Y-56141904D01*
X109592857Y-56237142D01*
X109545238Y-56284761D01*
X109450000Y-56332380D01*
X109211904Y-56332380D01*
X109116666Y-56284761D01*
X109069047Y-56237142D01*
X99591904Y-74112380D02*
X99591904Y-73112380D01*
X99830000Y-73112380D01*
X99972857Y-73160000D01*
X100068095Y-73255238D01*
X100115714Y-73350476D01*
X100163333Y-73540952D01*
X100163333Y-73683809D01*
X100115714Y-73874285D01*
X100068095Y-73969523D01*
X99972857Y-74064761D01*
X99830000Y-74112380D01*
X99591904Y-74112380D01*
X100782380Y-73112380D02*
X100877619Y-73112380D01*
X100972857Y-73160000D01*
X101020476Y-73207619D01*
X101068095Y-73302857D01*
X101115714Y-73493333D01*
X101115714Y-73731428D01*
X101068095Y-73921904D01*
X101020476Y-74017142D01*
X100972857Y-74064761D01*
X100877619Y-74112380D01*
X100782380Y-74112380D01*
X100687142Y-74064761D01*
X100639523Y-74017142D01*
X100591904Y-73921904D01*
X100544285Y-73731428D01*
X100544285Y-73493333D01*
X100591904Y-73302857D01*
X100639523Y-73207619D01*
X100687142Y-73160000D01*
X100782380Y-73112380D01*
X99591904Y-71572380D02*
X99591904Y-70572380D01*
X99830000Y-70572380D01*
X99972857Y-70620000D01*
X100068095Y-70715238D01*
X100115714Y-70810476D01*
X100163333Y-71000952D01*
X100163333Y-71143809D01*
X100115714Y-71334285D01*
X100068095Y-71429523D01*
X99972857Y-71524761D01*
X99830000Y-71572380D01*
X99591904Y-71572380D01*
X101115714Y-71572380D02*
X100544285Y-71572380D01*
X100830000Y-71572380D02*
X100830000Y-70572380D01*
X100734761Y-70715238D01*
X100639523Y-70810476D01*
X100544285Y-70858095D01*
X99591904Y-69032380D02*
X99591904Y-68032380D01*
X99830000Y-68032380D01*
X99972857Y-68080000D01*
X100068095Y-68175238D01*
X100115714Y-68270476D01*
X100163333Y-68460952D01*
X100163333Y-68603809D01*
X100115714Y-68794285D01*
X100068095Y-68889523D01*
X99972857Y-68984761D01*
X99830000Y-69032380D01*
X99591904Y-69032380D01*
X100544285Y-68127619D02*
X100591904Y-68080000D01*
X100687142Y-68032380D01*
X100925238Y-68032380D01*
X101020476Y-68080000D01*
X101068095Y-68127619D01*
X101115714Y-68222857D01*
X101115714Y-68318095D01*
X101068095Y-68460952D01*
X100496666Y-69032380D01*
X101115714Y-69032380D01*
X99591904Y-66492380D02*
X99591904Y-65492380D01*
X99830000Y-65492380D01*
X99972857Y-65540000D01*
X100068095Y-65635238D01*
X100115714Y-65730476D01*
X100163333Y-65920952D01*
X100163333Y-66063809D01*
X100115714Y-66254285D01*
X100068095Y-66349523D01*
X99972857Y-66444761D01*
X99830000Y-66492380D01*
X99591904Y-66492380D01*
X100496666Y-65492380D02*
X101115714Y-65492380D01*
X100782380Y-65873333D01*
X100925238Y-65873333D01*
X101020476Y-65920952D01*
X101068095Y-65968571D01*
X101115714Y-66063809D01*
X101115714Y-66301904D01*
X101068095Y-66397142D01*
X101020476Y-66444761D01*
X100925238Y-66492380D01*
X100639523Y-66492380D01*
X100544285Y-66444761D01*
X100496666Y-66397142D01*
X99591904Y-63952380D02*
X99591904Y-62952380D01*
X99830000Y-62952380D01*
X99972857Y-63000000D01*
X100068095Y-63095238D01*
X100115714Y-63190476D01*
X100163333Y-63380952D01*
X100163333Y-63523809D01*
X100115714Y-63714285D01*
X100068095Y-63809523D01*
X99972857Y-63904761D01*
X99830000Y-63952380D01*
X99591904Y-63952380D01*
X101020476Y-63285714D02*
X101020476Y-63952380D01*
X100782380Y-62904761D02*
X100544285Y-63619047D01*
X101163333Y-63619047D01*
X99591904Y-61412380D02*
X99591904Y-60412380D01*
X99830000Y-60412380D01*
X99972857Y-60460000D01*
X100068095Y-60555238D01*
X100115714Y-60650476D01*
X100163333Y-60840952D01*
X100163333Y-60983809D01*
X100115714Y-61174285D01*
X100068095Y-61269523D01*
X99972857Y-61364761D01*
X99830000Y-61412380D01*
X99591904Y-61412380D01*
X101068095Y-60412380D02*
X100591904Y-60412380D01*
X100544285Y-60888571D01*
X100591904Y-60840952D01*
X100687142Y-60793333D01*
X100925238Y-60793333D01*
X101020476Y-60840952D01*
X101068095Y-60888571D01*
X101115714Y-60983809D01*
X101115714Y-61221904D01*
X101068095Y-61317142D01*
X101020476Y-61364761D01*
X100925238Y-61412380D01*
X100687142Y-61412380D01*
X100591904Y-61364761D01*
X100544285Y-61317142D01*
X99591904Y-58872380D02*
X99591904Y-57872380D01*
X99830000Y-57872380D01*
X99972857Y-57920000D01*
X100068095Y-58015238D01*
X100115714Y-58110476D01*
X100163333Y-58300952D01*
X100163333Y-58443809D01*
X100115714Y-58634285D01*
X100068095Y-58729523D01*
X99972857Y-58824761D01*
X99830000Y-58872380D01*
X99591904Y-58872380D01*
X101020476Y-57872380D02*
X100830000Y-57872380D01*
X100734761Y-57920000D01*
X100687142Y-57967619D01*
X100591904Y-58110476D01*
X100544285Y-58300952D01*
X100544285Y-58681904D01*
X100591904Y-58777142D01*
X100639523Y-58824761D01*
X100734761Y-58872380D01*
X100925238Y-58872380D01*
X101020476Y-58824761D01*
X101068095Y-58777142D01*
X101115714Y-58681904D01*
X101115714Y-58443809D01*
X101068095Y-58348571D01*
X101020476Y-58300952D01*
X100925238Y-58253333D01*
X100734761Y-58253333D01*
X100639523Y-58300952D01*
X100591904Y-58348571D01*
X100544285Y-58443809D01*
X99591904Y-56332380D02*
X99591904Y-55332380D01*
X99830000Y-55332380D01*
X99972857Y-55380000D01*
X100068095Y-55475238D01*
X100115714Y-55570476D01*
X100163333Y-55760952D01*
X100163333Y-55903809D01*
X100115714Y-56094285D01*
X100068095Y-56189523D01*
X99972857Y-56284761D01*
X99830000Y-56332380D01*
X99591904Y-56332380D01*
X100496666Y-55332380D02*
X101163333Y-55332380D01*
X100734761Y-56332380D01*
X86391904Y-74112380D02*
X86391904Y-73112380D01*
X86772857Y-73112380D01*
X86868095Y-73160000D01*
X86915714Y-73207619D01*
X86963333Y-73302857D01*
X86963333Y-73445714D01*
X86915714Y-73540952D01*
X86868095Y-73588571D01*
X86772857Y-73636190D01*
X86391904Y-73636190D01*
X87725238Y-73588571D02*
X87868095Y-73636190D01*
X87915714Y-73683809D01*
X87963333Y-73779047D01*
X87963333Y-73921904D01*
X87915714Y-74017142D01*
X87868095Y-74064761D01*
X87772857Y-74112380D01*
X87391904Y-74112380D01*
X87391904Y-73112380D01*
X87725238Y-73112380D01*
X87820476Y-73160000D01*
X87868095Y-73207619D01*
X87915714Y-73302857D01*
X87915714Y-73398095D01*
X87868095Y-73493333D01*
X87820476Y-73540952D01*
X87725238Y-73588571D01*
X87391904Y-73588571D01*
X88915714Y-74112380D02*
X88344285Y-74112380D01*
X88630000Y-74112380D02*
X88630000Y-73112380D01*
X88534761Y-73255238D01*
X88439523Y-73350476D01*
X88344285Y-73398095D01*
X86796666Y-71048571D02*
X86939523Y-71096190D01*
X86987142Y-71143809D01*
X87034761Y-71239047D01*
X87034761Y-71381904D01*
X86987142Y-71477142D01*
X86939523Y-71524761D01*
X86844285Y-71572380D01*
X86463333Y-71572380D01*
X86463333Y-70572380D01*
X86796666Y-70572380D01*
X86891904Y-70620000D01*
X86939523Y-70667619D01*
X86987142Y-70762857D01*
X86987142Y-70858095D01*
X86939523Y-70953333D01*
X86891904Y-71000952D01*
X86796666Y-71048571D01*
X86463333Y-71048571D01*
X87796666Y-71048571D02*
X87463333Y-71048571D01*
X87463333Y-71572380D02*
X87463333Y-70572380D01*
X87939523Y-70572380D01*
X88510952Y-70572380D02*
X88606190Y-70572380D01*
X88701428Y-70620000D01*
X88749047Y-70667619D01*
X88796666Y-70762857D01*
X88844285Y-70953333D01*
X88844285Y-71191428D01*
X88796666Y-71381904D01*
X88749047Y-71477142D01*
X88701428Y-71524761D01*
X88606190Y-71572380D01*
X88510952Y-71572380D01*
X88415714Y-71524761D01*
X88368095Y-71477142D01*
X88320476Y-71381904D01*
X88272857Y-71191428D01*
X88272857Y-70953333D01*
X88320476Y-70762857D01*
X88368095Y-70667619D01*
X88415714Y-70620000D01*
X88510952Y-70572380D01*
X86630000Y-69032380D02*
X86630000Y-68032380D01*
X86534761Y-68175238D02*
X86725238Y-68175238D01*
X86868095Y-68222857D01*
X86963333Y-68318095D01*
X87010952Y-68413333D01*
X87010952Y-68603809D01*
X86963333Y-68699047D01*
X86868095Y-68794285D01*
X86725238Y-68841904D01*
X86534761Y-68841904D01*
X86391904Y-68794285D01*
X86296666Y-68699047D01*
X86249047Y-68603809D01*
X86249047Y-68413333D01*
X86296666Y-68318095D01*
X86391904Y-68222857D01*
X86534761Y-68175238D01*
X87582380Y-68032380D02*
X87772857Y-68032380D01*
X87868095Y-68080000D01*
X87963333Y-68175238D01*
X88010952Y-68365714D01*
X88010952Y-68699047D01*
X87963333Y-68889523D01*
X87868095Y-68984761D01*
X87772857Y-69032380D01*
X87582380Y-69032380D01*
X87487142Y-68984761D01*
X87391904Y-68889523D01*
X87344285Y-68699047D01*
X87344285Y-68365714D01*
X87391904Y-68175238D01*
X87487142Y-68080000D01*
X87582380Y-68032380D01*
X88391904Y-68984761D02*
X88534761Y-69032380D01*
X88772857Y-69032380D01*
X88868095Y-68984761D01*
X88915714Y-68937142D01*
X88963333Y-68841904D01*
X88963333Y-68746666D01*
X88915714Y-68651428D01*
X88868095Y-68603809D01*
X88772857Y-68556190D01*
X88582380Y-68508571D01*
X88487142Y-68460952D01*
X88439523Y-68413333D01*
X88391904Y-68318095D01*
X88391904Y-68222857D01*
X88439523Y-68127619D01*
X88487142Y-68080000D01*
X88582380Y-68032380D01*
X88820476Y-68032380D01*
X88963333Y-68080000D01*
X85868095Y-66492380D02*
X85868095Y-65492380D01*
X86106190Y-65492380D01*
X86249047Y-65540000D01*
X86344285Y-65635238D01*
X86391904Y-65730476D01*
X86439523Y-65920952D01*
X86439523Y-66063809D01*
X86391904Y-66254285D01*
X86344285Y-66349523D01*
X86249047Y-66444761D01*
X86106190Y-66492380D01*
X85868095Y-66492380D01*
X86868095Y-66492380D02*
X86868095Y-65492380D01*
X87201428Y-66206666D01*
X87534761Y-65492380D01*
X87534761Y-66492380D01*
X88010952Y-65968571D02*
X88344285Y-65968571D01*
X88487142Y-66492380D02*
X88010952Y-66492380D01*
X88010952Y-65492380D01*
X88487142Y-65492380D01*
X89106190Y-65492380D02*
X89201428Y-65492380D01*
X89296666Y-65540000D01*
X89344285Y-65587619D01*
X89391904Y-65682857D01*
X89439523Y-65873333D01*
X89439523Y-66111428D01*
X89391904Y-66301904D01*
X89344285Y-66397142D01*
X89296666Y-66444761D01*
X89201428Y-66492380D01*
X89106190Y-66492380D01*
X89010952Y-66444761D01*
X88963333Y-66397142D01*
X88915714Y-66301904D01*
X88868095Y-66111428D01*
X88868095Y-65873333D01*
X88915714Y-65682857D01*
X88963333Y-65587619D01*
X89010952Y-65540000D01*
X89106190Y-65492380D01*
X87368095Y-63952380D02*
X87034761Y-63476190D01*
X86796666Y-63952380D02*
X86796666Y-62952380D01*
X87177619Y-62952380D01*
X87272857Y-63000000D01*
X87320476Y-63047619D01*
X87368095Y-63142857D01*
X87368095Y-63285714D01*
X87320476Y-63380952D01*
X87272857Y-63428571D01*
X87177619Y-63476190D01*
X86796666Y-63476190D01*
X87701428Y-62952380D02*
X87939523Y-63952380D01*
X88130000Y-63238095D01*
X88320476Y-63952380D01*
X88558571Y-62952380D01*
X85868095Y-61412380D02*
X85868095Y-60412380D01*
X86106190Y-60412380D01*
X86249047Y-60460000D01*
X86344285Y-60555238D01*
X86391904Y-60650476D01*
X86439523Y-60840952D01*
X86439523Y-60983809D01*
X86391904Y-61174285D01*
X86344285Y-61269523D01*
X86249047Y-61364761D01*
X86106190Y-61412380D01*
X85868095Y-61412380D01*
X86868095Y-61412380D02*
X86868095Y-60412380D01*
X87201428Y-61126666D01*
X87534761Y-60412380D01*
X87534761Y-61412380D01*
X88010952Y-60888571D02*
X88344285Y-60888571D01*
X88487142Y-61412380D02*
X88010952Y-61412380D01*
X88010952Y-60412380D01*
X88487142Y-60412380D01*
X89439523Y-61412380D02*
X88868095Y-61412380D01*
X89153809Y-61412380D02*
X89153809Y-60412380D01*
X89058571Y-60555238D01*
X88963333Y-60650476D01*
X88868095Y-60698095D01*
X86368095Y-58872380D02*
X86368095Y-57872380D01*
X86701428Y-58586666D01*
X87034761Y-57872380D01*
X87034761Y-58872380D01*
X87510952Y-58348571D02*
X87844285Y-58348571D01*
X87987142Y-58872380D02*
X87510952Y-58872380D01*
X87510952Y-57872380D01*
X87987142Y-57872380D01*
X88939523Y-58872380D02*
X88368095Y-58872380D01*
X88653809Y-58872380D02*
X88653809Y-57872380D01*
X88558571Y-58015238D01*
X88463333Y-58110476D01*
X88368095Y-58158095D01*
X87034761Y-55332380D02*
X87225238Y-55332380D01*
X87320476Y-55380000D01*
X87415714Y-55475238D01*
X87463333Y-55665714D01*
X87463333Y-55999047D01*
X87415714Y-56189523D01*
X87320476Y-56284761D01*
X87225238Y-56332380D01*
X87034761Y-56332380D01*
X86939523Y-56284761D01*
X86844285Y-56189523D01*
X86796666Y-55999047D01*
X86796666Y-55665714D01*
X86844285Y-55475238D01*
X86939523Y-55380000D01*
X87034761Y-55332380D01*
X87891904Y-56332380D02*
X87891904Y-55332380D01*
X88130000Y-55332380D01*
X88272857Y-55380000D01*
X88368095Y-55475238D01*
X88415714Y-55570476D01*
X88463333Y-55760952D01*
X88463333Y-55903809D01*
X88415714Y-56094285D01*
X88368095Y-56189523D01*
X88272857Y-56284761D01*
X88130000Y-56332380D01*
X87891904Y-56332380D01*
X73691904Y-74112380D02*
X73691904Y-73112380D01*
X74072857Y-73112380D01*
X74168095Y-73160000D01*
X74215714Y-73207619D01*
X74263333Y-73302857D01*
X74263333Y-73445714D01*
X74215714Y-73540952D01*
X74168095Y-73588571D01*
X74072857Y-73636190D01*
X73691904Y-73636190D01*
X75025238Y-73588571D02*
X75168095Y-73636190D01*
X75215714Y-73683809D01*
X75263333Y-73779047D01*
X75263333Y-73921904D01*
X75215714Y-74017142D01*
X75168095Y-74064761D01*
X75072857Y-74112380D01*
X74691904Y-74112380D01*
X74691904Y-73112380D01*
X75025238Y-73112380D01*
X75120476Y-73160000D01*
X75168095Y-73207619D01*
X75215714Y-73302857D01*
X75215714Y-73398095D01*
X75168095Y-73493333D01*
X75120476Y-73540952D01*
X75025238Y-73588571D01*
X74691904Y-73588571D01*
X75882380Y-73112380D02*
X75977619Y-73112380D01*
X76072857Y-73160000D01*
X76120476Y-73207619D01*
X76168095Y-73302857D01*
X76215714Y-73493333D01*
X76215714Y-73731428D01*
X76168095Y-73921904D01*
X76120476Y-74017142D01*
X76072857Y-74064761D01*
X75977619Y-74112380D01*
X75882380Y-74112380D01*
X75787142Y-74064761D01*
X75739523Y-74017142D01*
X75691904Y-73921904D01*
X75644285Y-73731428D01*
X75644285Y-73493333D01*
X75691904Y-73302857D01*
X75739523Y-73207619D01*
X75787142Y-73160000D01*
X75882380Y-73112380D01*
X73691904Y-71572380D02*
X73691904Y-70572380D01*
X74072857Y-70572380D01*
X74168095Y-70620000D01*
X74215714Y-70667619D01*
X74263333Y-70762857D01*
X74263333Y-70905714D01*
X74215714Y-71000952D01*
X74168095Y-71048571D01*
X74072857Y-71096190D01*
X73691904Y-71096190D01*
X75263333Y-71477142D02*
X75215714Y-71524761D01*
X75072857Y-71572380D01*
X74977619Y-71572380D01*
X74834761Y-71524761D01*
X74739523Y-71429523D01*
X74691904Y-71334285D01*
X74644285Y-71143809D01*
X74644285Y-71000952D01*
X74691904Y-70810476D01*
X74739523Y-70715238D01*
X74834761Y-70620000D01*
X74977619Y-70572380D01*
X75072857Y-70572380D01*
X75215714Y-70620000D01*
X75263333Y-70667619D01*
X75596666Y-70572380D02*
X76263333Y-70572380D01*
X75834761Y-71572380D01*
X74239523Y-69032380D02*
X74239523Y-68032380D01*
X74620476Y-68032380D01*
X74715714Y-68080000D01*
X74763333Y-68127619D01*
X74810952Y-68222857D01*
X74810952Y-68365714D01*
X74763333Y-68460952D01*
X74715714Y-68508571D01*
X74620476Y-68556190D01*
X74239523Y-68556190D01*
X75096666Y-68032380D02*
X75430000Y-69032380D01*
X75763333Y-68032380D01*
X74144285Y-66492380D02*
X74144285Y-65492380D01*
X74525238Y-65492380D01*
X74620476Y-65540000D01*
X74668095Y-65587619D01*
X74715714Y-65682857D01*
X74715714Y-65825714D01*
X74668095Y-65920952D01*
X74620476Y-65968571D01*
X74525238Y-66016190D01*
X74144285Y-66016190D01*
X75144285Y-65492380D02*
X75144285Y-66301904D01*
X75191904Y-66397142D01*
X75239523Y-66444761D01*
X75334761Y-66492380D01*
X75525238Y-66492380D01*
X75620476Y-66444761D01*
X75668095Y-66397142D01*
X75715714Y-66301904D01*
X75715714Y-65492380D01*
X73406190Y-62585000D02*
X73882380Y-62585000D01*
X73644285Y-63952380D02*
X73644285Y-62952380D01*
X73882380Y-62585000D02*
X74930000Y-62585000D01*
X74120476Y-63952380D02*
X74120476Y-62952380D01*
X74691904Y-63952380D01*
X74691904Y-62952380D01*
X74930000Y-62585000D02*
X75977619Y-62585000D01*
X75168095Y-63952380D02*
X75168095Y-62952380D01*
X75168095Y-63428571D02*
X75739523Y-63428571D01*
X75739523Y-63952380D02*
X75739523Y-62952380D01*
X75977619Y-62585000D02*
X76453809Y-62585000D01*
X76215714Y-63857142D02*
X76263333Y-63904761D01*
X76215714Y-63952380D01*
X76168095Y-63904761D01*
X76215714Y-63857142D01*
X76215714Y-63952380D01*
X73430000Y-60045000D02*
X74572857Y-60045000D01*
X73572857Y-60412380D02*
X73810952Y-61412380D01*
X74001428Y-60698095D01*
X74191904Y-61412380D01*
X74430000Y-60412380D01*
X74572857Y-60045000D02*
X75477619Y-60045000D01*
X74810952Y-60888571D02*
X75144285Y-60888571D01*
X75287142Y-61412380D02*
X74810952Y-61412380D01*
X74810952Y-60412380D01*
X75287142Y-60412380D01*
X75477619Y-60045000D02*
X76430000Y-60045000D01*
X75620476Y-60412380D02*
X76287142Y-61412380D01*
X76287142Y-60412380D02*
X75620476Y-61412380D01*
X74025238Y-57872380D02*
X74263333Y-58872380D01*
X74453809Y-58158095D01*
X74644285Y-58872380D01*
X74882380Y-57872380D01*
X75787142Y-58872380D02*
X75215714Y-58872380D01*
X75501428Y-58872380D02*
X75501428Y-57872380D01*
X75406190Y-58015238D01*
X75310952Y-58110476D01*
X75215714Y-58158095D01*
X74025238Y-56332380D02*
X74025238Y-55332380D01*
X74501428Y-56332380D02*
X74501428Y-55332380D01*
X75072857Y-56332380D01*
X75072857Y-55332380D01*
X75406190Y-55332380D02*
X75977619Y-55332380D01*
X75691904Y-56332380D02*
X75691904Y-55332380D01*
X71628095Y-48395000D02*
X71532857Y-48347380D01*
X71390000Y-48347380D01*
X71247142Y-48395000D01*
X71151904Y-48490238D01*
X71104285Y-48585476D01*
X71056666Y-48775952D01*
X71056666Y-48918809D01*
X71104285Y-49109285D01*
X71151904Y-49204523D01*
X71247142Y-49299761D01*
X71390000Y-49347380D01*
X71485238Y-49347380D01*
X71628095Y-49299761D01*
X71675714Y-49252142D01*
X71675714Y-48918809D01*
X71485238Y-48918809D01*
X72104285Y-49347380D02*
X72104285Y-48347380D01*
X72675714Y-49347380D01*
X72675714Y-48347380D01*
X73151904Y-49347380D02*
X73151904Y-48347380D01*
X73390000Y-48347380D01*
X73532857Y-48395000D01*
X73628095Y-48490238D01*
X73675714Y-48585476D01*
X73723333Y-48775952D01*
X73723333Y-48918809D01*
X73675714Y-49109285D01*
X73628095Y-49204523D01*
X73532857Y-49299761D01*
X73390000Y-49347380D01*
X73151904Y-49347380D01*
X124349047Y-48823571D02*
X124015714Y-48823571D01*
X124015714Y-49347380D02*
X124015714Y-48347380D01*
X124491904Y-48347380D01*
X125396666Y-48395000D02*
X125301428Y-48347380D01*
X125158571Y-48347380D01*
X125015714Y-48395000D01*
X124920476Y-48490238D01*
X124872857Y-48585476D01*
X124825238Y-48775952D01*
X124825238Y-48918809D01*
X124872857Y-49109285D01*
X124920476Y-49204523D01*
X125015714Y-49299761D01*
X125158571Y-49347380D01*
X125253809Y-49347380D01*
X125396666Y-49299761D01*
X125444285Y-49252142D01*
X125444285Y-48918809D01*
X125253809Y-48918809D01*
X125872857Y-49347380D02*
X125872857Y-48347380D01*
X126444285Y-49347380D01*
X126444285Y-48347380D01*
X126920476Y-49347380D02*
X126920476Y-48347380D01*
X127158571Y-48347380D01*
X127301428Y-48395000D01*
X127396666Y-48490238D01*
X127444285Y-48585476D01*
X127491904Y-48775952D01*
X127491904Y-48918809D01*
X127444285Y-49109285D01*
X127396666Y-49204523D01*
X127301428Y-49299761D01*
X127158571Y-49347380D01*
X126920476Y-49347380D01*
X106307142Y-48347380D02*
X106640476Y-49347380D01*
X106973809Y-48347380D01*
X107640476Y-48823571D02*
X107783333Y-48871190D01*
X107830952Y-48918809D01*
X107878571Y-49014047D01*
X107878571Y-49156904D01*
X107830952Y-49252142D01*
X107783333Y-49299761D01*
X107688095Y-49347380D01*
X107307142Y-49347380D01*
X107307142Y-48347380D01*
X107640476Y-48347380D01*
X107735714Y-48395000D01*
X107783333Y-48442619D01*
X107830952Y-48537857D01*
X107830952Y-48633095D01*
X107783333Y-48728333D01*
X107735714Y-48775952D01*
X107640476Y-48823571D01*
X107307142Y-48823571D01*
X108259523Y-49061666D02*
X108735714Y-49061666D01*
X108164285Y-49347380D02*
X108497619Y-48347380D01*
X108830952Y-49347380D01*
X109021428Y-48347380D02*
X109592857Y-48347380D01*
X109307142Y-49347380D02*
X109307142Y-48347380D01*
X88836666Y-48347380D02*
X89170000Y-49347380D01*
X89503333Y-48347380D01*
X90408095Y-49252142D02*
X90360476Y-49299761D01*
X90217619Y-49347380D01*
X90122380Y-49347380D01*
X89979523Y-49299761D01*
X89884285Y-49204523D01*
X89836666Y-49109285D01*
X89789047Y-48918809D01*
X89789047Y-48775952D01*
X89836666Y-48585476D01*
X89884285Y-48490238D01*
X89979523Y-48395000D01*
X90122380Y-48347380D01*
X90217619Y-48347380D01*
X90360476Y-48395000D01*
X90408095Y-48442619D01*
X91408095Y-49252142D02*
X91360476Y-49299761D01*
X91217619Y-49347380D01*
X91122380Y-49347380D01*
X90979523Y-49299761D01*
X90884285Y-49204523D01*
X90836666Y-49109285D01*
X90789047Y-48918809D01*
X90789047Y-48775952D01*
X90836666Y-48585476D01*
X90884285Y-48490238D01*
X90979523Y-48395000D01*
X91122380Y-48347380D01*
X91217619Y-48347380D01*
X91360476Y-48395000D01*
X91408095Y-48442619D01*
D12*
X91510000Y-39990000D02*
X88825000Y-39990000D01*
X88825000Y-39990000D02*
X88825000Y-41910000D01*
X88825000Y-41910000D02*
X91510000Y-41910000D01*
X109290000Y-39990000D02*
X106605000Y-39990000D01*
X106605000Y-39990000D02*
X106605000Y-41910000D01*
X106605000Y-41910000D02*
X109290000Y-41910000D01*
X128330000Y-64710000D02*
X125670000Y-64710000D01*
X128330000Y-72390000D02*
X128330000Y-64710000D01*
X125670000Y-72390000D02*
X125670000Y-64710000D01*
X128330000Y-72390000D02*
X125670000Y-72390000D01*
X128330000Y-73660000D02*
X128330000Y-74990000D01*
X128330000Y-74990000D02*
X127000000Y-74990000D01*
X72450000Y-74990000D02*
X71120000Y-74990000D01*
X72450000Y-73660000D02*
X72450000Y-74990000D01*
X72450000Y-72390000D02*
X69790000Y-72390000D01*
X69790000Y-72390000D02*
X69790000Y-54550000D01*
X72450000Y-72390000D02*
X72450000Y-54550000D01*
X72450000Y-54550000D02*
X69790000Y-54550000D01*
X85070000Y-54550000D02*
X82410000Y-54550000D01*
X85070000Y-72390000D02*
X85070000Y-54550000D01*
X82410000Y-72390000D02*
X82410000Y-54550000D01*
X85070000Y-72390000D02*
X82410000Y-72390000D01*
X85070000Y-73660000D02*
X85070000Y-74990000D01*
X85070000Y-74990000D02*
X83740000Y-74990000D01*
X128330000Y-59750000D02*
X127000000Y-59750000D01*
X128330000Y-58420000D02*
X128330000Y-59750000D01*
X128330000Y-57150000D02*
X125670000Y-57150000D01*
X125670000Y-57150000D02*
X125670000Y-54550000D01*
X128330000Y-57150000D02*
X128330000Y-54550000D01*
X128330000Y-54550000D02*
X125670000Y-54550000D01*
X115550000Y-74990000D02*
X114220000Y-74990000D01*
X115550000Y-73660000D02*
X115550000Y-74990000D01*
X112950000Y-74990000D02*
X110350000Y-74990000D01*
X112950000Y-72390000D02*
X112950000Y-74990000D01*
X115550000Y-72390000D02*
X112950000Y-72390000D01*
X110350000Y-74990000D02*
X110350000Y-54550000D01*
X115550000Y-72390000D02*
X115550000Y-54550000D01*
X115550000Y-54550000D02*
X110350000Y-54550000D01*
X97770000Y-74990000D02*
X96440000Y-74990000D01*
X97770000Y-73660000D02*
X97770000Y-74990000D01*
X97770000Y-72390000D02*
X95110000Y-72390000D01*
X95110000Y-72390000D02*
X95110000Y-54550000D01*
X97770000Y-72390000D02*
X97770000Y-54550000D01*
X97770000Y-54550000D02*
X95110000Y-54550000D01*
X128330000Y-44390000D02*
X128330000Y-45720000D01*
X127000000Y-44390000D02*
X128330000Y-44390000D01*
X125730000Y-44390000D02*
X125730000Y-47050000D01*
X125730000Y-47050000D02*
X123130000Y-47050000D01*
X125730000Y-44390000D02*
X123130000Y-44390000D01*
X123130000Y-44390000D02*
X123130000Y-47050000D01*
X87570000Y-44390000D02*
X87570000Y-47050000D01*
X90170000Y-44390000D02*
X87570000Y-44390000D01*
X90170000Y-47050000D02*
X87570000Y-47050000D01*
X90170000Y-44390000D02*
X90170000Y-47050000D01*
X91440000Y-44390000D02*
X92770000Y-44390000D01*
X92770000Y-44390000D02*
X92770000Y-45720000D01*
X105350000Y-44390000D02*
X105350000Y-47050000D01*
X107950000Y-44390000D02*
X105350000Y-44390000D01*
X107950000Y-47050000D02*
X105350000Y-47050000D01*
X107950000Y-44390000D02*
X107950000Y-47050000D01*
X109220000Y-44390000D02*
X110550000Y-44390000D01*
X110550000Y-44390000D02*
X110550000Y-45720000D01*
X74990000Y-44390000D02*
X74990000Y-45720000D01*
X73660000Y-44390000D02*
X74990000Y-44390000D01*
X72390000Y-44390000D02*
X72390000Y-47050000D01*
X72390000Y-47050000D02*
X69790000Y-47050000D01*
X72390000Y-44390000D02*
X69790000Y-44390000D01*
X69790000Y-44390000D02*
X69790000Y-47050000D01*
M02*
