M48
; DRILL file {KiCad 5.1.10-88a1d61d58~88~ubuntu20.10.1} date Thu May  6 21:07:10 2021
; FORMAT={-:-/ absolute / inch / decimal}
; #@! TF.CreationDate,2021-05-06T21:07:10+02:00
; #@! TF.GenerationSoftware,Kicad,Pcbnew,5.1.10-88a1d61d58~88~ubuntu20.10.1
FMAT,2
INCH
T1C0.0300
T2C0.0394
T3C0.1260
%
G90
G05
T1
X5.297Y-1.6933
X5.297Y-1.7933
X5.297Y-1.8933
X5.297Y-1.9933
X5.297Y-2.0933
X5.297Y-2.1933
X5.297Y-2.2933
X5.297Y-2.3933
X5.297Y-2.4933
X5.297Y-2.5933
X5.297Y-2.6933
X5.297Y-2.7933
X5.297Y-2.8933
X5.297Y-2.9933
X5.297Y-3.0933
X5.372Y-1.6433
X5.372Y-1.7433
X5.372Y-1.8433
X5.372Y-1.9433
X5.372Y-2.0433
X5.372Y-2.1433
X5.372Y-2.2433
X5.372Y-2.3433
X5.372Y-2.4433
X5.372Y-2.5433
X5.372Y-2.6433
X5.372Y-2.7433
X5.372Y-2.8433
X5.372Y-2.9433
X5.372Y-3.0433
X5.447Y-1.6933
X5.447Y-1.7933
X5.447Y-1.8933
X5.447Y-1.9933
X5.447Y-2.0933
X5.447Y-2.1933
X5.447Y-2.2933
X5.447Y-2.3933
X5.447Y-2.4933
X5.447Y-2.5933
X5.447Y-2.6933
X5.447Y-2.7933
X5.447Y-2.8933
X5.447Y-2.9933
X5.447Y-3.0933
X5.522Y-1.6433
X5.522Y-1.7433
X5.522Y-1.8433
X5.522Y-1.9433
X5.522Y-2.0433
X5.522Y-2.1433
X5.522Y-2.2433
X5.522Y-2.3433
X5.522Y-2.4433
X5.522Y-2.5433
X5.522Y-2.6433
X5.522Y-2.7433
X5.522Y-2.8433
X5.522Y-2.9433
X5.522Y-3.0433
T2
X2.8Y-1.8
X2.8Y-2.2
X2.8Y-2.3
X2.8Y-2.4
X2.8Y-2.5
X2.8Y-2.6
X2.8Y-2.7
X2.8Y-2.8
X2.8Y-2.9
X2.9Y-1.8
X3.2969Y-2.2
X3.2969Y-2.3
X3.2969Y-2.4
X3.2969Y-2.5
X3.2969Y-2.6
X3.2969Y-2.7
X3.2969Y-2.8
X3.2969Y-2.9
X3.5Y-1.8
X3.6Y-1.8
X3.7969Y-2.2
X3.7969Y-2.3
X3.7969Y-2.4
X3.7969Y-2.5
X3.7969Y-2.6
X3.7969Y-2.7
X3.7969Y-2.8
X3.7969Y-2.9
X4.2Y-1.8
X4.3Y-1.8
X4.3969Y-2.2
X4.3969Y-2.3
X4.3969Y-2.4
X4.3969Y-2.5
X4.3969Y-2.6
X4.3969Y-2.7
X4.3969Y-2.8
X4.3969Y-2.9
X4.4969Y-2.2
X4.4969Y-2.3
X4.4969Y-2.4
X4.4969Y-2.5
X4.4969Y-2.6
X4.4969Y-2.7
X4.4969Y-2.8
X4.4969Y-2.9
X4.9Y-1.8
X5.0Y-1.8
X5.0Y-2.2
X5.0Y-2.3
X5.0Y-2.6
X5.0Y-2.7
X5.0Y-2.8
X5.0Y-2.9
T3
X2.6244Y-1.6
X2.6244Y-3.1354
T0
M30
