G04 #@! TF.GenerationSoftware,KiCad,Pcbnew,5.0.0-rc2-unknown-5c65881~65~ubuntu17.10.1*
G04 #@! TF.CreationDate,2018-06-23T17:31:34+02:00*
G04 #@! TF.ProjectId,breakout-board,627265616B6F75742D626F6172642E6B,rev?*
G04 #@! TF.SameCoordinates,Original*
G04 #@! TF.FileFunction,Soldermask,Top*
G04 #@! TF.FilePolarity,Negative*
%FSLAX46Y46*%
G04 Gerber Fmt 4.6, Leading zero omitted, Abs format (unit mm)*
G04 Created by KiCad (PCBNEW 5.0.0-rc2-unknown-5c65881~65~ubuntu17.10.1) date Sat Jun 23 17:31:34 2018*
%MOMM*%
%LPD*%
G01*
G04 APERTURE LIST*
%ADD10C,3.200000*%
%ADD11R,1.150000X1.400000*%
%ADD12O,1.700000X1.700000*%
%ADD13R,1.700000X1.700000*%
%ADD14R,0.500000X1.500000*%
%ADD15C,0.100000*%
%ADD16C,1.000000*%
%ADD17R,0.500000X0.600000*%
%ADD18C,1.524000*%
G04 APERTURE END LIST*
D10*
G04 #@! TO.C,REF1*
X57000000Y-127000000D03*
G04 #@! TD*
G04 #@! TO.C,REF2*
X57000000Y-166000000D03*
G04 #@! TD*
D11*
G04 #@! TO.C,D1*
X81200000Y-127310000D03*
X79500000Y-127310000D03*
G04 #@! TD*
G04 #@! TO.C,D2*
X98980000Y-127310000D03*
X97280000Y-127310000D03*
G04 #@! TD*
D12*
G04 #@! TO.C,J1*
X116840000Y-152400000D03*
X116840000Y-154940000D03*
X116840000Y-157480000D03*
D13*
X116840000Y-160020000D03*
G04 #@! TD*
G04 #@! TO.C,J2*
X60960000Y-160020000D03*
D12*
X60960000Y-157480000D03*
X60960000Y-154940000D03*
X60960000Y-152400000D03*
X60960000Y-149860000D03*
X60960000Y-147320000D03*
X60960000Y-144780000D03*
X60960000Y-142240000D03*
G04 #@! TD*
G04 #@! TO.C,J3*
X73580000Y-142240000D03*
X73580000Y-144780000D03*
X73580000Y-147320000D03*
X73580000Y-149860000D03*
X73580000Y-152400000D03*
X73580000Y-154940000D03*
X73580000Y-157480000D03*
D13*
X73580000Y-160020000D03*
G04 #@! TD*
G04 #@! TO.C,J4*
X116840000Y-144780000D03*
D12*
X116840000Y-142240000D03*
G04 #@! TD*
D13*
G04 #@! TO.C,J5*
X104060000Y-160020000D03*
D12*
X101520000Y-160020000D03*
X104060000Y-157480000D03*
X101520000Y-157480000D03*
X104060000Y-154940000D03*
X101520000Y-154940000D03*
X104060000Y-152400000D03*
X101520000Y-152400000D03*
X104060000Y-149860000D03*
X101520000Y-149860000D03*
X104060000Y-147320000D03*
X101520000Y-147320000D03*
X104060000Y-144780000D03*
X101520000Y-144780000D03*
X104060000Y-142240000D03*
X101520000Y-142240000D03*
G04 #@! TD*
D13*
G04 #@! TO.C,J6*
X86280000Y-160020000D03*
D12*
X86280000Y-157480000D03*
X86280000Y-154940000D03*
X86280000Y-152400000D03*
X86280000Y-149860000D03*
X86280000Y-147320000D03*
X86280000Y-144780000D03*
X86280000Y-142240000D03*
G04 #@! TD*
D13*
G04 #@! TO.C,J7*
X116840000Y-132080000D03*
D12*
X114300000Y-132080000D03*
G04 #@! TD*
G04 #@! TO.C,J8*
X78740000Y-132080000D03*
D13*
X81280000Y-132080000D03*
G04 #@! TD*
D12*
G04 #@! TO.C,J9*
X96520000Y-132080000D03*
D13*
X99060000Y-132080000D03*
G04 #@! TD*
G04 #@! TO.C,J10*
X63500000Y-132080000D03*
D12*
X60960000Y-132080000D03*
G04 #@! TD*
D14*
G04 #@! TO.C,JP1*
X84490000Y-127310000D03*
X85290000Y-127310000D03*
D15*
G36*
X85589010Y-126562408D02*
X85637546Y-126569607D01*
X85685143Y-126581530D01*
X85731343Y-126598060D01*
X85775699Y-126619039D01*
X85817786Y-126644265D01*
X85857198Y-126673495D01*
X85893554Y-126706447D01*
X85926506Y-126742803D01*
X85955736Y-126782215D01*
X85980962Y-126824302D01*
X86001941Y-126868658D01*
X86018471Y-126914858D01*
X86030394Y-126962455D01*
X86037593Y-127010991D01*
X86040001Y-127060000D01*
X86040001Y-127560000D01*
X86037593Y-127609009D01*
X86030394Y-127657545D01*
X86018471Y-127705142D01*
X86001941Y-127751342D01*
X85980962Y-127795698D01*
X85955736Y-127837785D01*
X85926506Y-127877197D01*
X85893554Y-127913553D01*
X85857198Y-127946505D01*
X85817786Y-127975735D01*
X85775699Y-128000961D01*
X85731343Y-128021940D01*
X85685143Y-128038470D01*
X85637546Y-128050393D01*
X85589010Y-128057592D01*
X85540001Y-128060000D01*
X85539999Y-128060000D01*
X85490990Y-128057592D01*
X85442454Y-128050393D01*
X85394857Y-128038470D01*
X85348657Y-128021940D01*
X85304301Y-128000961D01*
X85262214Y-127975735D01*
X85222802Y-127946505D01*
X85186446Y-127913553D01*
X85153494Y-127877197D01*
X85124264Y-127837785D01*
X85099038Y-127795698D01*
X85078059Y-127751342D01*
X85061529Y-127705142D01*
X85049606Y-127657545D01*
X85042407Y-127609009D01*
X85039999Y-127560000D01*
X85039999Y-127060000D01*
X85042407Y-127010991D01*
X85049606Y-126962455D01*
X85061529Y-126914858D01*
X85078059Y-126868658D01*
X85099038Y-126824302D01*
X85124264Y-126782215D01*
X85153494Y-126742803D01*
X85186446Y-126706447D01*
X85222802Y-126673495D01*
X85262214Y-126644265D01*
X85304301Y-126619039D01*
X85348657Y-126598060D01*
X85394857Y-126581530D01*
X85442454Y-126569607D01*
X85490990Y-126562408D01*
X85539999Y-126560000D01*
X85540001Y-126560000D01*
X85589010Y-126562408D01*
X85589010Y-126562408D01*
G37*
D16*
X85540000Y-127310000D03*
D15*
G36*
X84289010Y-126562408D02*
X84337546Y-126569607D01*
X84385143Y-126581530D01*
X84431343Y-126598060D01*
X84475699Y-126619039D01*
X84517786Y-126644265D01*
X84557198Y-126673495D01*
X84593554Y-126706447D01*
X84626506Y-126742803D01*
X84655736Y-126782215D01*
X84680962Y-126824302D01*
X84701941Y-126868658D01*
X84718471Y-126914858D01*
X84730394Y-126962455D01*
X84737593Y-127010991D01*
X84740001Y-127060000D01*
X84740001Y-127560000D01*
X84737593Y-127609009D01*
X84730394Y-127657545D01*
X84718471Y-127705142D01*
X84701941Y-127751342D01*
X84680962Y-127795698D01*
X84655736Y-127837785D01*
X84626506Y-127877197D01*
X84593554Y-127913553D01*
X84557198Y-127946505D01*
X84517786Y-127975735D01*
X84475699Y-128000961D01*
X84431343Y-128021940D01*
X84385143Y-128038470D01*
X84337546Y-128050393D01*
X84289010Y-128057592D01*
X84240001Y-128060000D01*
X84239999Y-128060000D01*
X84190990Y-128057592D01*
X84142454Y-128050393D01*
X84094857Y-128038470D01*
X84048657Y-128021940D01*
X84004301Y-128000961D01*
X83962214Y-127975735D01*
X83922802Y-127946505D01*
X83886446Y-127913553D01*
X83853494Y-127877197D01*
X83824264Y-127837785D01*
X83799038Y-127795698D01*
X83778059Y-127751342D01*
X83761529Y-127705142D01*
X83749606Y-127657545D01*
X83742407Y-127609009D01*
X83739999Y-127560000D01*
X83739999Y-127060000D01*
X83742407Y-127010991D01*
X83749606Y-126962455D01*
X83761529Y-126914858D01*
X83778059Y-126868658D01*
X83799038Y-126824302D01*
X83824264Y-126782215D01*
X83853494Y-126742803D01*
X83886446Y-126706447D01*
X83922802Y-126673495D01*
X83962214Y-126644265D01*
X84004301Y-126619039D01*
X84048657Y-126598060D01*
X84094857Y-126581530D01*
X84142454Y-126569607D01*
X84190990Y-126562408D01*
X84239999Y-126560000D01*
X84240001Y-126560000D01*
X84289010Y-126562408D01*
X84289010Y-126562408D01*
G37*
D16*
X84240000Y-127310000D03*
D17*
X84890000Y-127310000D03*
G04 #@! TD*
G04 #@! TO.C,JP2*
X102790000Y-127310000D03*
D15*
G36*
X102189010Y-126562408D02*
X102237546Y-126569607D01*
X102285143Y-126581530D01*
X102331343Y-126598060D01*
X102375699Y-126619039D01*
X102417786Y-126644265D01*
X102457198Y-126673495D01*
X102493554Y-126706447D01*
X102526506Y-126742803D01*
X102555736Y-126782215D01*
X102580962Y-126824302D01*
X102601941Y-126868658D01*
X102618471Y-126914858D01*
X102630394Y-126962455D01*
X102637593Y-127010991D01*
X102640001Y-127060000D01*
X102640001Y-127560000D01*
X102637593Y-127609009D01*
X102630394Y-127657545D01*
X102618471Y-127705142D01*
X102601941Y-127751342D01*
X102580962Y-127795698D01*
X102555736Y-127837785D01*
X102526506Y-127877197D01*
X102493554Y-127913553D01*
X102457198Y-127946505D01*
X102417786Y-127975735D01*
X102375699Y-128000961D01*
X102331343Y-128021940D01*
X102285143Y-128038470D01*
X102237546Y-128050393D01*
X102189010Y-128057592D01*
X102140001Y-128060000D01*
X102139999Y-128060000D01*
X102090990Y-128057592D01*
X102042454Y-128050393D01*
X101994857Y-128038470D01*
X101948657Y-128021940D01*
X101904301Y-128000961D01*
X101862214Y-127975735D01*
X101822802Y-127946505D01*
X101786446Y-127913553D01*
X101753494Y-127877197D01*
X101724264Y-127837785D01*
X101699038Y-127795698D01*
X101678059Y-127751342D01*
X101661529Y-127705142D01*
X101649606Y-127657545D01*
X101642407Y-127609009D01*
X101639999Y-127560000D01*
X101639999Y-127060000D01*
X101642407Y-127010991D01*
X101649606Y-126962455D01*
X101661529Y-126914858D01*
X101678059Y-126868658D01*
X101699038Y-126824302D01*
X101724264Y-126782215D01*
X101753494Y-126742803D01*
X101786446Y-126706447D01*
X101822802Y-126673495D01*
X101862214Y-126644265D01*
X101904301Y-126619039D01*
X101948657Y-126598060D01*
X101994857Y-126581530D01*
X102042454Y-126569607D01*
X102090990Y-126562408D01*
X102139999Y-126560000D01*
X102140001Y-126560000D01*
X102189010Y-126562408D01*
X102189010Y-126562408D01*
G37*
D16*
X102140000Y-127310000D03*
D15*
G36*
X103489010Y-126562408D02*
X103537546Y-126569607D01*
X103585143Y-126581530D01*
X103631343Y-126598060D01*
X103675699Y-126619039D01*
X103717786Y-126644265D01*
X103757198Y-126673495D01*
X103793554Y-126706447D01*
X103826506Y-126742803D01*
X103855736Y-126782215D01*
X103880962Y-126824302D01*
X103901941Y-126868658D01*
X103918471Y-126914858D01*
X103930394Y-126962455D01*
X103937593Y-127010991D01*
X103940001Y-127060000D01*
X103940001Y-127560000D01*
X103937593Y-127609009D01*
X103930394Y-127657545D01*
X103918471Y-127705142D01*
X103901941Y-127751342D01*
X103880962Y-127795698D01*
X103855736Y-127837785D01*
X103826506Y-127877197D01*
X103793554Y-127913553D01*
X103757198Y-127946505D01*
X103717786Y-127975735D01*
X103675699Y-128000961D01*
X103631343Y-128021940D01*
X103585143Y-128038470D01*
X103537546Y-128050393D01*
X103489010Y-128057592D01*
X103440001Y-128060000D01*
X103439999Y-128060000D01*
X103390990Y-128057592D01*
X103342454Y-128050393D01*
X103294857Y-128038470D01*
X103248657Y-128021940D01*
X103204301Y-128000961D01*
X103162214Y-127975735D01*
X103122802Y-127946505D01*
X103086446Y-127913553D01*
X103053494Y-127877197D01*
X103024264Y-127837785D01*
X102999038Y-127795698D01*
X102978059Y-127751342D01*
X102961529Y-127705142D01*
X102949606Y-127657545D01*
X102942407Y-127609009D01*
X102939999Y-127560000D01*
X102939999Y-127060000D01*
X102942407Y-127010991D01*
X102949606Y-126962455D01*
X102961529Y-126914858D01*
X102978059Y-126868658D01*
X102999038Y-126824302D01*
X103024264Y-126782215D01*
X103053494Y-126742803D01*
X103086446Y-126706447D01*
X103122802Y-126673495D01*
X103162214Y-126644265D01*
X103204301Y-126619039D01*
X103248657Y-126598060D01*
X103294857Y-126581530D01*
X103342454Y-126569607D01*
X103390990Y-126562408D01*
X103439999Y-126560000D01*
X103440001Y-126560000D01*
X103489010Y-126562408D01*
X103489010Y-126562408D01*
G37*
D16*
X103440000Y-127310000D03*
D14*
X103190000Y-127310000D03*
X102390000Y-127310000D03*
G04 #@! TD*
D18*
G04 #@! TO.C,P1*
X124385000Y-164930000D03*
X126290000Y-163660000D03*
X124385000Y-162390000D03*
X126290000Y-161120000D03*
X124385000Y-159850000D03*
X126290000Y-158580000D03*
X124385000Y-157310000D03*
X126290000Y-156040000D03*
X124385000Y-154770000D03*
X126290000Y-153500000D03*
X124385000Y-152230000D03*
X126290000Y-150960000D03*
X124385000Y-149690000D03*
X126290000Y-148420000D03*
X124385000Y-147150000D03*
X126290000Y-145880000D03*
X124385000Y-144610000D03*
X126290000Y-143340000D03*
X124385000Y-142070000D03*
X126290000Y-140800000D03*
X124385000Y-139530000D03*
X126290000Y-138260000D03*
X124385000Y-136990000D03*
X126290000Y-135720000D03*
X124385000Y-134450000D03*
X126290000Y-133180000D03*
X124385000Y-131910000D03*
X126290000Y-130640000D03*
X124385000Y-129370000D03*
X126290000Y-128100000D03*
X128195000Y-164930000D03*
X130100000Y-163660000D03*
X128195000Y-162390000D03*
X130100000Y-161120000D03*
X128195000Y-159850000D03*
X130100000Y-158580000D03*
X128195000Y-157310000D03*
X130100000Y-156040000D03*
X128195000Y-154770000D03*
X130100000Y-153500000D03*
X128195000Y-152230000D03*
X130100000Y-150960000D03*
X128195000Y-149690000D03*
X130100000Y-148420000D03*
X128195000Y-147150000D03*
X130100000Y-145880000D03*
X128195000Y-144610000D03*
X130100000Y-143340000D03*
X128195000Y-142070000D03*
X130100000Y-140800000D03*
X128195000Y-139530000D03*
X130100000Y-138260000D03*
X128195000Y-136990000D03*
X130100000Y-135720000D03*
X128195000Y-134450000D03*
X130100000Y-133180000D03*
X128195000Y-131910000D03*
X130100000Y-130640000D03*
X128195000Y-129370000D03*
X130100000Y-128100000D03*
G04 #@! TD*
D11*
G04 #@! TO.C,R1*
X74500000Y-127310000D03*
X76200000Y-127310000D03*
G04 #@! TD*
G04 #@! TO.C,R2*
X93980000Y-127310000D03*
X92280000Y-127310000D03*
G04 #@! TD*
M02*
