G04 #@! TF.GenerationSoftware,KiCad,Pcbnew,5.1.10-88a1d61d58~88~ubuntu20.10.1*
G04 #@! TF.CreationDate,2021-05-13T17:51:00+02:00*
G04 #@! TF.ProjectId,breakout-board,62726561-6b6f-4757-942d-626f6172642e,1.0*
G04 #@! TF.SameCoordinates,Original*
G04 #@! TF.FileFunction,Soldermask,Top*
G04 #@! TF.FilePolarity,Negative*
%FSLAX46Y46*%
G04 Gerber Fmt 4.6, Leading zero omitted, Abs format (unit mm)*
G04 Created by KiCad (PCBNEW 5.1.10-88a1d61d58~88~ubuntu20.10.1) date 2021-05-13 17:51:00*
%MOMM*%
%LPD*%
G01*
G04 APERTURE LIST*
%ADD10R,1.150000X1.400000*%
%ADD11O,1.700000X1.700000*%
%ADD12R,1.700000X1.700000*%
%ADD13C,1.524000*%
%ADD14C,3.200000*%
G04 APERTURE END LIST*
D10*
X91360000Y-40950000D03*
X89660000Y-40950000D03*
X109140000Y-40950000D03*
X107440000Y-40950000D03*
D11*
X127000000Y-66040000D03*
X127000000Y-68580000D03*
X127000000Y-71120000D03*
D12*
X127000000Y-73660000D03*
X71120000Y-73660000D03*
D11*
X71120000Y-71120000D03*
X71120000Y-68580000D03*
X71120000Y-66040000D03*
X71120000Y-63500000D03*
X71120000Y-60960000D03*
X71120000Y-58420000D03*
X71120000Y-55880000D03*
X83740000Y-55880000D03*
X83740000Y-58420000D03*
X83740000Y-60960000D03*
X83740000Y-63500000D03*
X83740000Y-66040000D03*
X83740000Y-68580000D03*
X83740000Y-71120000D03*
D12*
X83740000Y-73660000D03*
X127000000Y-58420000D03*
D11*
X127000000Y-55880000D03*
D12*
X114220000Y-73660000D03*
D11*
X111680000Y-73660000D03*
X114220000Y-71120000D03*
X111680000Y-71120000D03*
X114220000Y-68580000D03*
X111680000Y-68580000D03*
X114220000Y-66040000D03*
X111680000Y-66040000D03*
X114220000Y-63500000D03*
X111680000Y-63500000D03*
X114220000Y-60960000D03*
X111680000Y-60960000D03*
X114220000Y-58420000D03*
X111680000Y-58420000D03*
X114220000Y-55880000D03*
X111680000Y-55880000D03*
D12*
X96440000Y-73660000D03*
D11*
X96440000Y-71120000D03*
X96440000Y-68580000D03*
X96440000Y-66040000D03*
X96440000Y-63500000D03*
X96440000Y-60960000D03*
X96440000Y-58420000D03*
X96440000Y-55880000D03*
D12*
X127000000Y-45720000D03*
D11*
X124460000Y-45720000D03*
X88900000Y-45720000D03*
D12*
X91440000Y-45720000D03*
D11*
X106680000Y-45720000D03*
D12*
X109220000Y-45720000D03*
X73660000Y-45720000D03*
D11*
X71120000Y-45720000D03*
D13*
X134545000Y-78570000D03*
X136450000Y-77300000D03*
X134545000Y-76030000D03*
X136450000Y-74760000D03*
X134545000Y-73490000D03*
X136450000Y-72220000D03*
X134545000Y-70950000D03*
X136450000Y-69680000D03*
X134545000Y-68410000D03*
X136450000Y-67140000D03*
X134545000Y-65870000D03*
X136450000Y-64600000D03*
X134545000Y-63330000D03*
X136450000Y-62060000D03*
X134545000Y-60790000D03*
X136450000Y-59520000D03*
X134545000Y-58250000D03*
X136450000Y-56980000D03*
X134545000Y-55710000D03*
X136450000Y-54440000D03*
X134545000Y-53170000D03*
X136450000Y-51900000D03*
X134545000Y-50630000D03*
X136450000Y-49360000D03*
X134545000Y-48090000D03*
X136450000Y-46820000D03*
X134545000Y-45550000D03*
X136450000Y-44280000D03*
X134545000Y-43010000D03*
X136450000Y-41740000D03*
X138355000Y-78570000D03*
X140260000Y-77300000D03*
X138355000Y-76030000D03*
X140260000Y-74760000D03*
X138355000Y-73490000D03*
X140260000Y-72220000D03*
X138355000Y-70950000D03*
X140260000Y-69680000D03*
X138355000Y-68410000D03*
X140260000Y-67140000D03*
X138355000Y-65870000D03*
X140260000Y-64600000D03*
X138355000Y-63330000D03*
X140260000Y-62060000D03*
X138355000Y-60790000D03*
X140260000Y-59520000D03*
X138355000Y-58250000D03*
X140260000Y-56980000D03*
X138355000Y-55710000D03*
X140260000Y-54440000D03*
X138355000Y-53170000D03*
X140260000Y-51900000D03*
X138355000Y-50630000D03*
X140260000Y-49360000D03*
X138355000Y-48090000D03*
X140260000Y-46820000D03*
X138355000Y-45550000D03*
X140260000Y-44280000D03*
X138355000Y-43010000D03*
X140260000Y-41740000D03*
D10*
X84660000Y-40950000D03*
X86360000Y-40950000D03*
X104140000Y-40950000D03*
X102440000Y-40950000D03*
D14*
X66660000Y-40640000D03*
X66660000Y-79640000D03*
M02*
