G04 #@! TF.GenerationSoftware,KiCad,Pcbnew,5.0.0-rc2-unknown-5c65881~65~ubuntu17.10.1*
G04 #@! TF.CreationDate,2018-06-23T17:31:34+02:00*
G04 #@! TF.ProjectId,breakout-board,627265616B6F75742D626F6172642E6B,rev?*
G04 #@! TF.SameCoordinates,Original*
G04 #@! TF.FileFunction,Copper,L2,Bot,Signal*
G04 #@! TF.FilePolarity,Positive*
%FSLAX46Y46*%
G04 Gerber Fmt 4.6, Leading zero omitted, Abs format (unit mm)*
G04 Created by KiCad (PCBNEW 5.0.0-rc2-unknown-5c65881~65~ubuntu17.10.1) date Sat Jun 23 17:31:34 2018*
%MOMM*%
%LPD*%
G01*
G04 APERTURE LIST*
G04 #@! TA.AperFunction,ComponentPad*
%ADD10O,1.700000X1.700000*%
G04 #@! TD*
G04 #@! TA.AperFunction,ComponentPad*
%ADD11R,1.700000X1.700000*%
G04 #@! TD*
G04 #@! TA.AperFunction,ComponentPad*
%ADD12C,1.524000*%
G04 #@! TD*
G04 #@! TA.AperFunction,ViaPad*
%ADD13C,0.800000*%
G04 #@! TD*
G04 #@! TA.AperFunction,Conductor*
%ADD14C,0.250000*%
G04 #@! TD*
G04 #@! TA.AperFunction,Conductor*
%ADD15C,0.254000*%
G04 #@! TD*
G04 APERTURE END LIST*
D10*
G04 #@! TO.P,J1,4*
G04 #@! TO.N,/NC4*
X116840000Y-152400000D03*
G04 #@! TO.P,J1,3*
G04 #@! TO.N,/NC3*
X116840000Y-154940000D03*
G04 #@! TO.P,J1,2*
G04 #@! TO.N,/NC2*
X116840000Y-157480000D03*
D11*
G04 #@! TO.P,J1,1*
G04 #@! TO.N,/NC1*
X116840000Y-160020000D03*
G04 #@! TD*
G04 #@! TO.P,J2,1*
G04 #@! TO.N,/PB0*
X60960000Y-160020000D03*
D10*
G04 #@! TO.P,J2,2*
G04 #@! TO.N,/PC7*
X60960000Y-157480000D03*
G04 #@! TO.P,J2,3*
G04 #@! TO.N,/PV*
X60960000Y-154940000D03*
G04 #@! TO.P,J2,4*
G04 #@! TO.N,/PU*
X60960000Y-152400000D03*
G04 #@! TO.P,J2,5*
G04 #@! TO.N,/~INHIBIT*
X60960000Y-149860000D03*
G04 #@! TO.P,J2,6*
G04 #@! TO.N,/~WEX*
X60960000Y-147320000D03*
G04 #@! TO.P,J2,7*
G04 #@! TO.N,/W1*
X60960000Y-144780000D03*
G04 #@! TO.P,J2,8*
G04 #@! TO.N,/INT*
X60960000Y-142240000D03*
G04 #@! TD*
G04 #@! TO.P,J3,8*
G04 #@! TO.N,/OD*
X73580000Y-142240000D03*
G04 #@! TO.P,J3,7*
G04 #@! TO.N,/ME1*
X73580000Y-144780000D03*
G04 #@! TO.P,J3,6*
G04 #@! TO.N,/DME1*
X73580000Y-147320000D03*
G04 #@! TO.P,J3,5*
G04 #@! TO.N,/RW*
X73580000Y-149860000D03*
G04 #@! TO.P,J3,4*
G04 #@! TO.N,/DME0*
X73580000Y-152400000D03*
G04 #@! TO.P,J3,3*
G04 #@! TO.N,/\03A6OS*
X73580000Y-154940000D03*
G04 #@! TO.P,J3,2*
G04 #@! TO.N,/BFO*
X73580000Y-157480000D03*
D11*
G04 #@! TO.P,J3,1*
G04 #@! TO.N,/PB1*
X73580000Y-160020000D03*
G04 #@! TD*
G04 #@! TO.P,J4,1*
G04 #@! TO.N,/~CMTIN*
X116840000Y-144780000D03*
D10*
G04 #@! TO.P,J4,2*
G04 #@! TO.N,/CMTOUT*
X116840000Y-142240000D03*
G04 #@! TD*
D11*
G04 #@! TO.P,J5,1*
G04 #@! TO.N,/AD0*
X104060000Y-160020000D03*
D10*
G04 #@! TO.P,J5,2*
G04 #@! TO.N,/AD1*
X101520000Y-160020000D03*
G04 #@! TO.P,J5,3*
G04 #@! TO.N,/AD2*
X104060000Y-157480000D03*
G04 #@! TO.P,J5,4*
G04 #@! TO.N,/AD3*
X101520000Y-157480000D03*
G04 #@! TO.P,J5,5*
G04 #@! TO.N,/AD4*
X104060000Y-154940000D03*
G04 #@! TO.P,J5,6*
G04 #@! TO.N,/AD5*
X101520000Y-154940000D03*
G04 #@! TO.P,J5,7*
G04 #@! TO.N,/AD6*
X104060000Y-152400000D03*
G04 #@! TO.P,J5,8*
G04 #@! TO.N,/AD7*
X101520000Y-152400000D03*
G04 #@! TO.P,J5,9*
G04 #@! TO.N,/AD8*
X104060000Y-149860000D03*
G04 #@! TO.P,J5,10*
G04 #@! TO.N,/AD9*
X101520000Y-149860000D03*
G04 #@! TO.P,J5,11*
G04 #@! TO.N,/AD10*
X104060000Y-147320000D03*
G04 #@! TO.P,J5,12*
G04 #@! TO.N,/AD11*
X101520000Y-147320000D03*
G04 #@! TO.P,J5,13*
G04 #@! TO.N,/AD12*
X104060000Y-144780000D03*
G04 #@! TO.P,J5,14*
G04 #@! TO.N,/AD13*
X101520000Y-144780000D03*
G04 #@! TO.P,J5,15*
G04 #@! TO.N,/AD14*
X104060000Y-142240000D03*
G04 #@! TO.P,J5,16*
G04 #@! TO.N,/AD15*
X101520000Y-142240000D03*
G04 #@! TD*
D11*
G04 #@! TO.P,J6,1*
G04 #@! TO.N,/D0*
X86280000Y-160020000D03*
D10*
G04 #@! TO.P,J6,2*
G04 #@! TO.N,/D1*
X86280000Y-157480000D03*
G04 #@! TO.P,J6,3*
G04 #@! TO.N,/D2*
X86280000Y-154940000D03*
G04 #@! TO.P,J6,4*
G04 #@! TO.N,/D3*
X86280000Y-152400000D03*
G04 #@! TO.P,J6,5*
G04 #@! TO.N,/D4*
X86280000Y-149860000D03*
G04 #@! TO.P,J6,6*
G04 #@! TO.N,/D5*
X86280000Y-147320000D03*
G04 #@! TO.P,J6,7*
G04 #@! TO.N,/D6*
X86280000Y-144780000D03*
G04 #@! TO.P,J6,8*
G04 #@! TO.N,/D7*
X86280000Y-142240000D03*
G04 #@! TD*
D11*
G04 #@! TO.P,J7,1*
G04 #@! TO.N,/FGND*
X116840000Y-132080000D03*
D10*
G04 #@! TO.P,J7,2*
X114300000Y-132080000D03*
G04 #@! TD*
G04 #@! TO.P,J8,2*
G04 #@! TO.N,+4V7*
X78740000Y-132080000D03*
D11*
G04 #@! TO.P,J8,1*
X81280000Y-132080000D03*
G04 #@! TD*
D10*
G04 #@! TO.P,J9,2*
G04 #@! TO.N,+BATT*
X96520000Y-132080000D03*
D11*
G04 #@! TO.P,J9,1*
X99060000Y-132080000D03*
G04 #@! TD*
G04 #@! TO.P,J10,1*
G04 #@! TO.N,GND*
X63500000Y-132080000D03*
D10*
G04 #@! TO.P,J10,2*
X60960000Y-132080000D03*
G04 #@! TD*
D12*
G04 #@! TO.P,P1,1*
G04 #@! TO.N,/AD7*
X124385000Y-164930000D03*
G04 #@! TO.P,P1,2*
G04 #@! TO.N,/AD6*
X126290000Y-163660000D03*
G04 #@! TO.P,P1,3*
G04 #@! TO.N,/AD5*
X124385000Y-162390000D03*
G04 #@! TO.P,P1,4*
G04 #@! TO.N,/AD4*
X126290000Y-161120000D03*
G04 #@! TO.P,P1,5*
G04 #@! TO.N,/AD3*
X124385000Y-159850000D03*
G04 #@! TO.P,P1,6*
G04 #@! TO.N,/AD2*
X126290000Y-158580000D03*
G04 #@! TO.P,P1,7*
G04 #@! TO.N,/AD1*
X124385000Y-157310000D03*
G04 #@! TO.P,P1,8*
G04 #@! TO.N,/AD0*
X126290000Y-156040000D03*
G04 #@! TO.P,P1,9*
G04 #@! TO.N,/PB0*
X124385000Y-154770000D03*
G04 #@! TO.P,P1,10*
G04 #@! TO.N,/PC7*
X126290000Y-153500000D03*
G04 #@! TO.P,P1,11*
G04 #@! TO.N,+4V7*
X124385000Y-152230000D03*
G04 #@! TO.P,P1,12*
X126290000Y-150960000D03*
G04 #@! TO.P,P1,13*
G04 #@! TO.N,/NC1*
X124385000Y-149690000D03*
G04 #@! TO.P,P1,14*
G04 #@! TO.N,/NC2*
X126290000Y-148420000D03*
G04 #@! TO.P,P1,15*
G04 #@! TO.N,/PV*
X124385000Y-147150000D03*
G04 #@! TO.P,P1,16*
G04 #@! TO.N,/PU*
X126290000Y-145880000D03*
G04 #@! TO.P,P1,17*
G04 #@! TO.N,/D7*
X124385000Y-144610000D03*
G04 #@! TO.P,P1,18*
G04 #@! TO.N,/D6*
X126290000Y-143340000D03*
G04 #@! TO.P,P1,19*
G04 #@! TO.N,/D5*
X124385000Y-142070000D03*
G04 #@! TO.P,P1,20*
G04 #@! TO.N,/D4*
X126290000Y-140800000D03*
G04 #@! TO.P,P1,21*
G04 #@! TO.N,/D3*
X124385000Y-139530000D03*
G04 #@! TO.P,P1,22*
G04 #@! TO.N,/D2*
X126290000Y-138260000D03*
G04 #@! TO.P,P1,23*
G04 #@! TO.N,/D1*
X124385000Y-136990000D03*
G04 #@! TO.P,P1,24*
G04 #@! TO.N,/D0*
X126290000Y-135720000D03*
G04 #@! TO.P,P1,25*
G04 #@! TO.N,/~INHIBIT*
X124385000Y-134450000D03*
G04 #@! TO.P,P1,26*
G04 #@! TO.N,/~WEX*
X126290000Y-133180000D03*
G04 #@! TO.P,P1,27*
G04 #@! TO.N,/~CMTIN*
X124385000Y-131910000D03*
G04 #@! TO.P,P1,28*
G04 #@! TO.N,/W1*
X126290000Y-130640000D03*
G04 #@! TO.P,P1,29*
G04 #@! TO.N,/CMTOUT*
X124385000Y-129370000D03*
G04 #@! TO.P,P1,30*
G04 #@! TO.N,/INT*
X126290000Y-128100000D03*
G04 #@! TO.P,P1,31*
G04 #@! TO.N,/AD8*
X128195000Y-164930000D03*
G04 #@! TO.P,P1,32*
G04 #@! TO.N,/AD9*
X130100000Y-163660000D03*
G04 #@! TO.P,P1,33*
G04 #@! TO.N,/AD10*
X128195000Y-162390000D03*
G04 #@! TO.P,P1,34*
G04 #@! TO.N,/AD11*
X130100000Y-161120000D03*
G04 #@! TO.P,P1,35*
G04 #@! TO.N,/AD12*
X128195000Y-159850000D03*
G04 #@! TO.P,P1,36*
G04 #@! TO.N,/AD13*
X130100000Y-158580000D03*
G04 #@! TO.P,P1,37*
G04 #@! TO.N,/AD14*
X128195000Y-157310000D03*
G04 #@! TO.P,P1,38*
G04 #@! TO.N,/AD15*
X130100000Y-156040000D03*
G04 #@! TO.P,P1,39*
G04 #@! TO.N,/PB1*
X128195000Y-154770000D03*
G04 #@! TO.P,P1,40*
G04 #@! TO.N,/NC3*
X130100000Y-153500000D03*
G04 #@! TO.P,P1,41*
G04 #@! TO.N,+4V7*
X128195000Y-152230000D03*
G04 #@! TO.P,P1,42*
X130100000Y-150960000D03*
G04 #@! TO.P,P1,43*
G04 #@! TO.N,/FGND*
X128195000Y-149690000D03*
G04 #@! TO.P,P1,44*
G04 #@! TO.N,+BATT*
X130100000Y-148420000D03*
G04 #@! TO.P,P1,45*
X128195000Y-147150000D03*
G04 #@! TO.P,P1,46*
X130100000Y-145880000D03*
G04 #@! TO.P,P1,47*
X128195000Y-144610000D03*
G04 #@! TO.P,P1,48*
X130100000Y-143340000D03*
G04 #@! TO.P,P1,49*
G04 #@! TO.N,/NC4*
X128195000Y-142070000D03*
G04 #@! TO.P,P1,50*
G04 #@! TO.N,/BFO*
X130100000Y-140800000D03*
G04 #@! TO.P,P1,51*
G04 #@! TO.N,/\03A6OS*
X128195000Y-139530000D03*
G04 #@! TO.P,P1,52*
G04 #@! TO.N,GND*
X130100000Y-138260000D03*
G04 #@! TO.P,P1,53*
X128195000Y-136990000D03*
G04 #@! TO.P,P1,54*
X130100000Y-135720000D03*
G04 #@! TO.P,P1,55*
X128195000Y-134450000D03*
G04 #@! TO.P,P1,56*
G04 #@! TO.N,/DME0*
X130100000Y-133180000D03*
G04 #@! TO.P,P1,57*
G04 #@! TO.N,/RW*
X128195000Y-131910000D03*
G04 #@! TO.P,P1,58*
G04 #@! TO.N,/DME1*
X130100000Y-130640000D03*
G04 #@! TO.P,P1,59*
G04 #@! TO.N,/ME1*
X128195000Y-129370000D03*
G04 #@! TO.P,P1,60*
G04 #@! TO.N,/OD*
X130100000Y-128100000D03*
G04 #@! TD*
D13*
G04 #@! TO.N,/W1*
X119647600Y-136131800D03*
G04 #@! TO.N,/\03A6OS*
X98234800Y-139041000D03*
G04 #@! TO.N,/AD10*
X109391700Y-151865500D03*
X107030100Y-153406100D03*
X119501100Y-164373100D03*
G04 #@! TO.N,/AD13*
X105979000Y-166207900D03*
G04 #@! TO.N,/AD14*
X108172500Y-144787600D03*
X121406600Y-145195700D03*
G04 #@! TO.N,/AD15*
X111340500Y-146641700D03*
X122131610Y-147391500D03*
G04 #@! TO.N,/D0*
X122181500Y-137976300D03*
G04 #@! TO.N,/D3*
X97899788Y-142879989D03*
G04 #@! TO.N,/D4*
X100132500Y-140232600D03*
G04 #@! TO.N,/D7*
X107347100Y-138315700D03*
X113348800Y-146124200D03*
G04 #@! TD*
D14*
G04 #@! TO.N,/NC4*
X123884901Y-140982999D02*
X120231000Y-144636900D01*
X124864237Y-140982999D02*
X123884901Y-140982999D01*
X120231000Y-149009000D02*
X116840000Y-152400000D01*
X128195000Y-142070000D02*
X125951238Y-142070000D01*
X125951238Y-142070000D02*
X124864237Y-140982999D01*
X120231000Y-144636900D02*
X120231000Y-149009000D01*
G04 #@! TO.N,/NC3*
X121707100Y-144470400D02*
X121106200Y-144470400D01*
X120681300Y-151098700D02*
X116840000Y-154940000D01*
X123192700Y-145956000D02*
X121707100Y-144470400D01*
X120681300Y-144895300D02*
X120681300Y-151098700D01*
X121106200Y-144470400D02*
X120681300Y-144895300D01*
X123192700Y-147566462D02*
X123192700Y-145956000D01*
X123863239Y-148237001D02*
X123192700Y-147566462D01*
X125810763Y-149507001D02*
X124540763Y-148237001D01*
X126403239Y-149507001D02*
X125810763Y-149507001D01*
X124540763Y-148237001D02*
X123863239Y-148237001D01*
X127673239Y-150777001D02*
X126403239Y-149507001D01*
X128350763Y-150777001D02*
X127673239Y-150777001D01*
X129338001Y-151764239D02*
X128350763Y-150777001D01*
X129338001Y-152738001D02*
X129338001Y-151764239D01*
X130100000Y-153500000D02*
X129338001Y-152738001D01*
G04 #@! TO.N,/W1*
X126290000Y-130640000D02*
X124095900Y-130640000D01*
X124095900Y-130640000D02*
X119647600Y-135088300D01*
X119647600Y-135088300D02*
X119647600Y-136131800D01*
G04 #@! TO.N,/OD*
X76032822Y-142240000D02*
X91752922Y-126519900D01*
X128519900Y-126519900D02*
X129338001Y-127338001D01*
X129338001Y-127338001D02*
X130100000Y-128100000D01*
X91752922Y-126519900D02*
X128519900Y-126519900D01*
X73580000Y-142240000D02*
X76032822Y-142240000D01*
G04 #@! TO.N,/ME1*
X74782081Y-144780000D02*
X91290881Y-128271200D01*
X91290881Y-128271200D02*
X124873800Y-128271200D01*
X73580000Y-144780000D02*
X74782081Y-144780000D01*
X124873800Y-128271200D02*
X125972600Y-129370000D01*
X127117370Y-129370000D02*
X128195000Y-129370000D01*
X125972600Y-129370000D02*
X127117370Y-129370000D01*
G04 #@! TO.N,/DME1*
X72404999Y-144215999D02*
X73120998Y-143500000D01*
X73120998Y-143500000D02*
X75409233Y-143500000D01*
X129338001Y-129878001D02*
X130100000Y-130640000D01*
X127382700Y-126970200D02*
X129338001Y-128925501D01*
X129338001Y-128925501D02*
X129338001Y-129878001D01*
X91939033Y-126970200D02*
X127382700Y-126970200D01*
X73580000Y-147320000D02*
X72404999Y-146144999D01*
X72404999Y-146144999D02*
X72404999Y-144215999D01*
X75409233Y-143500000D02*
X91939033Y-126970200D01*
G04 #@! TO.N,/RW*
X131220300Y-127664900D02*
X129613600Y-126058200D01*
X74130987Y-139950011D02*
X71954988Y-142126010D01*
X91578211Y-126058200D02*
X77686400Y-139950011D01*
X128195000Y-131910000D02*
X130455100Y-131910000D01*
X130455100Y-131910000D02*
X131220300Y-131144800D01*
X71954988Y-142126010D02*
X71954988Y-148234988D01*
X129613600Y-126058200D02*
X91578211Y-126058200D01*
X72730001Y-149010001D02*
X73580000Y-149860000D01*
X131220300Y-131144800D02*
X131220300Y-127664900D01*
X71954988Y-148234988D02*
X72730001Y-149010001D01*
X77686400Y-139950011D02*
X74130987Y-139950011D01*
G04 #@! TO.N,/DME0*
X131719200Y-131560800D02*
X130100000Y-133180000D01*
X131719200Y-127526800D02*
X131719200Y-131560800D01*
X129800200Y-125607800D02*
X131719200Y-127526800D01*
X91250000Y-125607800D02*
X129800200Y-125607800D01*
X77357800Y-139500000D02*
X91250000Y-125607800D01*
X77357800Y-139500000D02*
X73500000Y-139500000D01*
X73500000Y-139500000D02*
X71504977Y-141495023D01*
X71504977Y-150324977D02*
X71504977Y-141495023D01*
X73580000Y-152400000D02*
X71504977Y-150324977D01*
G04 #@! TO.N,/\03A6OS*
X74755300Y-154940000D02*
X81105300Y-148590000D01*
X81105300Y-148590000D02*
X88685800Y-148590000D01*
X88685800Y-148590000D02*
X98234800Y-139041000D01*
X73580000Y-154940000D02*
X74755300Y-154940000D01*
G04 #@! TO.N,/BFO*
X73136300Y-153670000D02*
X72404999Y-154401301D01*
X120255911Y-137186189D02*
X120255911Y-142000500D01*
X115823800Y-145972500D02*
X108072400Y-138221100D01*
X120255911Y-142000500D02*
X118058300Y-144198110D01*
X74304800Y-153670000D02*
X73136300Y-153670000D01*
X125862900Y-134290600D02*
X124911900Y-133339600D01*
X129338001Y-140038001D02*
X129338001Y-139035701D01*
X81924800Y-146050000D02*
X74304800Y-153670000D01*
X121270000Y-136172100D02*
X120255911Y-137186189D01*
X117819700Y-145972500D02*
X115823800Y-145972500D01*
X127767900Y-135560600D02*
X126497900Y-134290600D01*
X126497900Y-134290600D02*
X125862900Y-134290600D01*
X72730001Y-156630001D02*
X73580000Y-157480000D01*
X129003000Y-137769500D02*
X129329600Y-137442900D01*
X130100000Y-140800000D02*
X129338001Y-140038001D01*
X129338001Y-139035701D02*
X129003000Y-138700700D01*
X129003000Y-138700700D02*
X129003000Y-137769500D01*
X129329600Y-137442900D02*
X129329600Y-136537100D01*
X95915000Y-137590400D02*
X87455400Y-146050000D01*
X129329600Y-136537100D02*
X128353100Y-135560600D01*
X123956300Y-133339600D02*
X121270000Y-136025900D01*
X128353100Y-135560600D02*
X127767900Y-135560600D01*
X124911900Y-133339600D02*
X123956300Y-133339600D01*
X121270000Y-136025900D02*
X121270000Y-136172100D01*
X118058300Y-144198110D02*
X118058300Y-145733900D01*
X118058300Y-145733900D02*
X117819700Y-145972500D01*
X108072400Y-138221100D02*
X108072400Y-138015200D01*
X108072400Y-138015200D02*
X107647600Y-137590400D01*
X107647600Y-137590400D02*
X95915000Y-137590400D01*
X87455400Y-146050000D02*
X81924800Y-146050000D01*
X72404999Y-154401301D02*
X72404999Y-156304999D01*
X72404999Y-156304999D02*
X72730001Y-156630001D01*
G04 #@! TO.N,/~CMTIN*
X119805900Y-136999300D02*
X119805900Y-141814100D01*
X124385000Y-131910000D02*
X120819700Y-135475300D01*
X120819700Y-135475300D02*
X120819700Y-135985500D01*
X120819700Y-135985500D02*
X119805900Y-136999300D01*
X119805900Y-141814100D02*
X116840000Y-144780000D01*
G04 #@! TO.N,/CMTOUT*
X124385000Y-129370000D02*
X116840000Y-136915000D01*
X116840000Y-136915000D02*
X116840000Y-142240000D01*
G04 #@! TO.N,/AD0*
X104060000Y-160020000D02*
X105235300Y-160020000D01*
X126290000Y-156040000D02*
X126290000Y-156942800D01*
X126290000Y-156942800D02*
X127746300Y-158399100D01*
X127746300Y-158399100D02*
X128693300Y-158399100D01*
X128693300Y-158399100D02*
X129636000Y-157456400D01*
X129636000Y-157456400D02*
X130535400Y-157456400D01*
X130535400Y-157456400D02*
X131664000Y-158585000D01*
X131664000Y-158585000D02*
X131664000Y-164341000D01*
X131664000Y-164341000D02*
X129037600Y-166967400D01*
X129037600Y-166967400D02*
X112182700Y-166967400D01*
X112182700Y-166967400D02*
X105235300Y-160020000D01*
G04 #@! TO.N,/AD6*
X126290000Y-163660000D02*
X126277800Y-163647800D01*
X126277800Y-163647800D02*
X118297600Y-163647800D01*
X118297600Y-163647800D02*
X107049800Y-152400000D01*
X107049800Y-152400000D02*
X104060000Y-152400000D01*
G04 #@! TO.N,/AD7*
X105631400Y-153575300D02*
X117154500Y-165098400D01*
X117154500Y-165098400D02*
X124216600Y-165098400D01*
X124216600Y-165098400D02*
X124385000Y-164930000D01*
X102695300Y-153575300D02*
X101520000Y-152400000D01*
X105631400Y-153575300D02*
X102695300Y-153575300D01*
G04 #@! TO.N,/AD8*
X104060000Y-149860000D02*
X105723600Y-149860000D01*
X105723600Y-149860000D02*
X114708200Y-158844600D01*
X114708200Y-158844600D02*
X119472900Y-158844600D01*
X119472900Y-158844600D02*
X121598400Y-160970100D01*
X121598400Y-160970100D02*
X124502900Y-160970100D01*
X124502900Y-160970100D02*
X125922800Y-162390000D01*
X125922800Y-162390000D02*
X126607700Y-162390000D01*
X126607700Y-162390000D02*
X128195000Y-163977300D01*
X128195000Y-163977300D02*
X128195000Y-164930000D01*
G04 #@! TO.N,/AD9*
X130100000Y-163660000D02*
X130100000Y-164566100D01*
X130100000Y-164566100D02*
X128611000Y-166055100D01*
X128611000Y-166055100D02*
X116034400Y-166055100D01*
X116034400Y-166055100D02*
X106189300Y-156210000D01*
X106189300Y-156210000D02*
X101084000Y-156210000D01*
X100344999Y-155470999D02*
X100344999Y-151035001D01*
X100670001Y-150709999D02*
X101520000Y-149860000D01*
X100344999Y-151035001D02*
X100670001Y-150709999D01*
X101084000Y-156210000D02*
X100344999Y-155470999D01*
G04 #@! TO.N,/AD10*
X119501100Y-164373100D02*
X117997100Y-164373100D01*
X117997100Y-164373100D02*
X107030100Y-153406100D01*
X104846200Y-147320000D02*
X104060000Y-147320000D01*
X109391700Y-151865500D02*
X104846200Y-147320000D01*
G04 #@! TO.N,/AD11*
X130100000Y-161120000D02*
X131194200Y-162214200D01*
X131194200Y-162214200D02*
X131194200Y-164145900D01*
X131194200Y-164145900D02*
X128823100Y-166517000D01*
X128823100Y-166517000D02*
X115179800Y-166517000D01*
X115179800Y-166517000D02*
X107412800Y-158750000D01*
X107412800Y-158750000D02*
X101077200Y-158750000D01*
X101077200Y-158750000D02*
X99889900Y-157562700D01*
X99889900Y-148950100D02*
X101520000Y-147320000D01*
X99889900Y-157562700D02*
X99889900Y-148950100D01*
G04 #@! TO.N,/AD12*
X104996000Y-148495500D02*
X112710500Y-156210000D01*
X112710500Y-156210000D02*
X118409000Y-156210000D01*
X118409000Y-156210000D02*
X120629200Y-158430200D01*
X120629200Y-158430200D02*
X124552800Y-158430200D01*
X124552800Y-158430200D02*
X125972600Y-159850000D01*
X125972600Y-159850000D02*
X128195000Y-159850000D01*
X103210001Y-145629999D02*
X104060000Y-144780000D01*
X102884999Y-145955001D02*
X103210001Y-145629999D01*
X102884999Y-147884001D02*
X102884999Y-145955001D01*
X103496498Y-148495500D02*
X102884999Y-147884001D01*
X104996000Y-148495500D02*
X103496498Y-148495500D01*
G04 #@! TO.N,/AD13*
X99407200Y-159636100D02*
X105979000Y-166207900D01*
X99407200Y-146892800D02*
X101520000Y-144780000D01*
X99407200Y-159636100D02*
X99407200Y-146892800D01*
G04 #@! TO.N,/AD14*
X108172500Y-144787600D02*
X105624900Y-142240000D01*
X105624900Y-142240000D02*
X104060000Y-142240000D01*
X123863239Y-153317001D02*
X121406600Y-150860362D01*
X124540763Y-153317001D02*
X123863239Y-153317001D01*
X125810763Y-154587001D02*
X124540763Y-153317001D01*
X126445763Y-154587001D02*
X125810763Y-154587001D01*
X121406600Y-145761385D02*
X121406600Y-145195700D01*
X127433001Y-155574239D02*
X126445763Y-154587001D01*
X121406600Y-150860362D02*
X121406600Y-145761385D01*
X127433001Y-156548001D02*
X127433001Y-155574239D01*
X128195000Y-157310000D02*
X127433001Y-156548001D01*
G04 #@! TO.N,/AD15*
X105726600Y-141027800D02*
X111340500Y-146641700D01*
X102732200Y-141027800D02*
X105726600Y-141027800D01*
X101520000Y-142240000D02*
X102732200Y-141027800D01*
X130100000Y-156040000D02*
X129338001Y-155278001D01*
X128716761Y-153682999D02*
X128081761Y-153682999D01*
X126445763Y-152047001D02*
X125810763Y-152047001D01*
X129338001Y-155278001D02*
X129338001Y-154304239D01*
X122131610Y-149045372D02*
X122131610Y-147957185D01*
X122131610Y-147957185D02*
X122131610Y-147391500D01*
X124540763Y-150777001D02*
X123863239Y-150777001D01*
X125810763Y-152047001D02*
X124540763Y-150777001D01*
X128081761Y-153682999D02*
X126445763Y-152047001D01*
X123863239Y-150777001D02*
X122131610Y-149045372D01*
X129338001Y-154304239D02*
X128716761Y-153682999D01*
G04 #@! TO.N,/D0*
X99426100Y-142601900D02*
X99426100Y-143735200D01*
X101450500Y-140577500D02*
X99426100Y-142601900D01*
X85180000Y-160020000D02*
X86280000Y-160020000D01*
X85104700Y-156991600D02*
X85104700Y-159944700D01*
X85886300Y-156210000D02*
X85104700Y-156991600D01*
X86951300Y-156210000D02*
X85886300Y-156210000D01*
X106367900Y-140577500D02*
X101450500Y-140577500D01*
X112071300Y-146509300D02*
X112071300Y-146280900D01*
X112861800Y-147299800D02*
X112071300Y-146509300D01*
X85104700Y-159944700D02*
X85180000Y-160020000D01*
X121340400Y-142188830D02*
X119330400Y-144198830D01*
X119330400Y-145815100D02*
X117845700Y-147299800D01*
X121340400Y-138817400D02*
X121340400Y-142188830D01*
X117845700Y-147299800D02*
X112861800Y-147299800D01*
X119330400Y-144198830D02*
X119330400Y-145815100D01*
X112071300Y-146280900D02*
X106367900Y-140577500D01*
X99426100Y-143735200D02*
X86951300Y-156210000D01*
X122181500Y-137976300D02*
X121340400Y-138817400D01*
G04 #@! TO.N,/D1*
X101005000Y-143563000D02*
X105430300Y-143563000D01*
X86280000Y-157480000D02*
X87129999Y-156630001D01*
X123623001Y-137751999D02*
X124385000Y-136990000D01*
X121790800Y-139584200D02*
X123623001Y-137751999D01*
X121790800Y-142374841D02*
X121790800Y-139584200D01*
X119780700Y-144384941D02*
X121790800Y-142374841D01*
X119780700Y-146001700D02*
X119780700Y-144384941D01*
X109617400Y-147750100D02*
X118032300Y-147750100D01*
X87937999Y-156630001D02*
X101005000Y-143563000D01*
X87129999Y-156630001D02*
X87937999Y-156630001D01*
X118032300Y-147750100D02*
X119780700Y-146001700D01*
X105430300Y-143563000D02*
X109617400Y-147750100D01*
G04 #@! TO.N,/D2*
X117579600Y-146849500D02*
X113048400Y-146849500D01*
X118508600Y-145920500D02*
X117579600Y-146849500D01*
X118508600Y-144384220D02*
X118508600Y-145920500D01*
X120705922Y-138426178D02*
X120705922Y-142186900D01*
X124828300Y-135895300D02*
X123236800Y-135895300D01*
X125528001Y-136595001D02*
X124828300Y-135895300D01*
X120705922Y-142186900D02*
X118508600Y-144384220D01*
X126290000Y-138260000D02*
X125528001Y-137498001D01*
X125528001Y-137498001D02*
X125528001Y-136595001D01*
X112521600Y-146094300D02*
X106554500Y-140127200D01*
X123236800Y-135895300D02*
X120705922Y-138426178D01*
X98750700Y-142640400D02*
X98750700Y-143671381D01*
X87482081Y-154940000D02*
X86280000Y-154940000D01*
X98750700Y-143671381D02*
X87482081Y-154940000D01*
X113048400Y-146849500D02*
X112521600Y-146322700D01*
X106554500Y-140127200D02*
X101263900Y-140127200D01*
X101263900Y-140127200D02*
X98750700Y-142640400D01*
X112521600Y-146322700D02*
X112521600Y-146094300D01*
G04 #@! TO.N,/D3*
X86280000Y-152400000D02*
X88379777Y-152400000D01*
X97499789Y-143279988D02*
X97899788Y-142879989D01*
X88379777Y-152400000D02*
X97499789Y-143279988D01*
G04 #@! TO.N,/D4*
X87482081Y-149860000D02*
X86280000Y-149860000D01*
X89889501Y-149860000D02*
X87482081Y-149860000D01*
X100132500Y-140232600D02*
X99516901Y-140232600D01*
X99516901Y-140232600D02*
X89889501Y-149860000D01*
G04 #@! TO.N,/D7*
X113348800Y-146124200D02*
X113348800Y-144317400D01*
X113348800Y-144317400D02*
X107347100Y-138315700D01*
G04 #@! TD*
D15*
G04 #@! TO.N,GND*
G36*
X133315001Y-169315000D02*
X53685000Y-169315000D01*
X53685000Y-165555431D01*
X54765000Y-165555431D01*
X54765000Y-166444569D01*
X55105259Y-167266026D01*
X55733974Y-167894741D01*
X56555431Y-168235000D01*
X57444569Y-168235000D01*
X58266026Y-167894741D01*
X58894741Y-167266026D01*
X59235000Y-166444569D01*
X59235000Y-165555431D01*
X58894741Y-164733974D01*
X58266026Y-164105259D01*
X57444569Y-163765000D01*
X56555431Y-163765000D01*
X55733974Y-164105259D01*
X55105259Y-164733974D01*
X54765000Y-165555431D01*
X53685000Y-165555431D01*
X53685000Y-142240000D01*
X59445908Y-142240000D01*
X59561161Y-142819418D01*
X59889375Y-143310625D01*
X60187761Y-143510000D01*
X59889375Y-143709375D01*
X59561161Y-144200582D01*
X59445908Y-144780000D01*
X59561161Y-145359418D01*
X59889375Y-145850625D01*
X60187761Y-146050000D01*
X59889375Y-146249375D01*
X59561161Y-146740582D01*
X59445908Y-147320000D01*
X59561161Y-147899418D01*
X59889375Y-148390625D01*
X60187761Y-148590000D01*
X59889375Y-148789375D01*
X59561161Y-149280582D01*
X59445908Y-149860000D01*
X59561161Y-150439418D01*
X59889375Y-150930625D01*
X60187761Y-151130000D01*
X59889375Y-151329375D01*
X59561161Y-151820582D01*
X59445908Y-152400000D01*
X59561161Y-152979418D01*
X59889375Y-153470625D01*
X60187761Y-153670000D01*
X59889375Y-153869375D01*
X59561161Y-154360582D01*
X59445908Y-154940000D01*
X59561161Y-155519418D01*
X59889375Y-156010625D01*
X60187761Y-156210000D01*
X59889375Y-156409375D01*
X59561161Y-156900582D01*
X59445908Y-157480000D01*
X59561161Y-158059418D01*
X59889375Y-158550625D01*
X59907619Y-158562816D01*
X59862235Y-158571843D01*
X59652191Y-158712191D01*
X59511843Y-158922235D01*
X59462560Y-159170000D01*
X59462560Y-160870000D01*
X59511843Y-161117765D01*
X59652191Y-161327809D01*
X59862235Y-161468157D01*
X60110000Y-161517440D01*
X61810000Y-161517440D01*
X62057765Y-161468157D01*
X62267809Y-161327809D01*
X62408157Y-161117765D01*
X62457440Y-160870000D01*
X62457440Y-159170000D01*
X62408157Y-158922235D01*
X62267809Y-158712191D01*
X62057765Y-158571843D01*
X62012381Y-158562816D01*
X62030625Y-158550625D01*
X62358839Y-158059418D01*
X62474092Y-157480000D01*
X62358839Y-156900582D01*
X62030625Y-156409375D01*
X61732239Y-156210000D01*
X62030625Y-156010625D01*
X62358839Y-155519418D01*
X62474092Y-154940000D01*
X62358839Y-154360582D01*
X62030625Y-153869375D01*
X61732239Y-153670000D01*
X62030625Y-153470625D01*
X62358839Y-152979418D01*
X62474092Y-152400000D01*
X62358839Y-151820582D01*
X62030625Y-151329375D01*
X61732239Y-151130000D01*
X62030625Y-150930625D01*
X62358839Y-150439418D01*
X62474092Y-149860000D01*
X62358839Y-149280582D01*
X62030625Y-148789375D01*
X61732239Y-148590000D01*
X62030625Y-148390625D01*
X62358839Y-147899418D01*
X62474092Y-147320000D01*
X62358839Y-146740582D01*
X62030625Y-146249375D01*
X61732239Y-146050000D01*
X62030625Y-145850625D01*
X62358839Y-145359418D01*
X62474092Y-144780000D01*
X62358839Y-144200582D01*
X62030625Y-143709375D01*
X61732239Y-143510000D01*
X62030625Y-143310625D01*
X62358839Y-142819418D01*
X62474092Y-142240000D01*
X62358839Y-141660582D01*
X62248217Y-141495023D01*
X70730089Y-141495023D01*
X70744978Y-141569875D01*
X70744977Y-150250130D01*
X70730089Y-150324977D01*
X70744977Y-150399824D01*
X70744977Y-150399828D01*
X70789073Y-150621513D01*
X70957048Y-150872906D01*
X71020507Y-150915308D01*
X72138791Y-152033592D01*
X72065908Y-152400000D01*
X72181161Y-152979418D01*
X72409839Y-153321659D01*
X71920529Y-153810970D01*
X71857070Y-153853372D01*
X71689095Y-154104765D01*
X71644999Y-154326450D01*
X71644999Y-154326454D01*
X71630111Y-154401301D01*
X71644999Y-154476148D01*
X71645000Y-156230147D01*
X71630111Y-156304999D01*
X71645000Y-156379851D01*
X71678447Y-156548001D01*
X71689096Y-156601536D01*
X71813562Y-156787812D01*
X71857071Y-156852928D01*
X71920527Y-156895328D01*
X72138791Y-157113592D01*
X72065908Y-157480000D01*
X72181161Y-158059418D01*
X72509375Y-158550625D01*
X72527619Y-158562816D01*
X72482235Y-158571843D01*
X72272191Y-158712191D01*
X72131843Y-158922235D01*
X72082560Y-159170000D01*
X72082560Y-160870000D01*
X72131843Y-161117765D01*
X72272191Y-161327809D01*
X72482235Y-161468157D01*
X72730000Y-161517440D01*
X74430000Y-161517440D01*
X74677765Y-161468157D01*
X74887809Y-161327809D01*
X75028157Y-161117765D01*
X75077440Y-160870000D01*
X75077440Y-159170000D01*
X75028157Y-158922235D01*
X74887809Y-158712191D01*
X74677765Y-158571843D01*
X74632381Y-158562816D01*
X74650625Y-158550625D01*
X74978839Y-158059418D01*
X75094092Y-157480000D01*
X74978839Y-156900582D01*
X74650625Y-156409375D01*
X74352239Y-156210000D01*
X74650625Y-156010625D01*
X74862474Y-155693571D01*
X75051837Y-155655904D01*
X75303229Y-155487929D01*
X75345631Y-155424470D01*
X81420102Y-149350000D01*
X84867353Y-149350000D01*
X84765908Y-149860000D01*
X84881161Y-150439418D01*
X85209375Y-150930625D01*
X85507761Y-151130000D01*
X85209375Y-151329375D01*
X84881161Y-151820582D01*
X84765908Y-152400000D01*
X84881161Y-152979418D01*
X85209375Y-153470625D01*
X85507761Y-153670000D01*
X85209375Y-153869375D01*
X84881161Y-154360582D01*
X84765908Y-154940000D01*
X84881161Y-155519418D01*
X85129866Y-155891632D01*
X84620229Y-156401269D01*
X84556771Y-156443671D01*
X84388796Y-156695064D01*
X84344700Y-156916749D01*
X84344700Y-156916753D01*
X84329812Y-156991600D01*
X84344700Y-157066447D01*
X84344701Y-159869848D01*
X84329812Y-159944700D01*
X84388797Y-160241237D01*
X84497617Y-160404097D01*
X84556772Y-160492629D01*
X84601909Y-160522789D01*
X84632071Y-160567929D01*
X84782560Y-160668483D01*
X84782560Y-160870000D01*
X84831843Y-161117765D01*
X84972191Y-161327809D01*
X85182235Y-161468157D01*
X85430000Y-161517440D01*
X87130000Y-161517440D01*
X87377765Y-161468157D01*
X87587809Y-161327809D01*
X87728157Y-161117765D01*
X87777440Y-160870000D01*
X87777440Y-159170000D01*
X87728157Y-158922235D01*
X87587809Y-158712191D01*
X87377765Y-158571843D01*
X87332381Y-158562816D01*
X87350625Y-158550625D01*
X87678839Y-158059418D01*
X87794092Y-157480000D01*
X87776190Y-157390001D01*
X87863152Y-157390001D01*
X87937999Y-157404889D01*
X88012846Y-157390001D01*
X88012851Y-157390001D01*
X88234536Y-157345905D01*
X88485928Y-157177930D01*
X88528330Y-157114471D01*
X98647201Y-146995601D01*
X98647200Y-159561253D01*
X98632312Y-159636100D01*
X98647200Y-159710947D01*
X98647200Y-159710951D01*
X98691296Y-159932636D01*
X98859271Y-160184029D01*
X98922730Y-160226431D01*
X104944000Y-166247702D01*
X104944000Y-166413774D01*
X105101569Y-166794180D01*
X105392720Y-167085331D01*
X105773126Y-167242900D01*
X106184874Y-167242900D01*
X106565280Y-167085331D01*
X106856431Y-166794180D01*
X107014000Y-166413774D01*
X107014000Y-166002026D01*
X106856431Y-165621620D01*
X106565280Y-165330469D01*
X106184874Y-165172900D01*
X106018802Y-165172900D01*
X102198522Y-161352620D01*
X102590625Y-161090625D01*
X102602816Y-161072381D01*
X102611843Y-161117765D01*
X102752191Y-161327809D01*
X102962235Y-161468157D01*
X103210000Y-161517440D01*
X104910000Y-161517440D01*
X105157765Y-161468157D01*
X105367809Y-161327809D01*
X105408063Y-161267565D01*
X111592373Y-167451876D01*
X111634771Y-167515329D01*
X111698224Y-167557727D01*
X111698226Y-167557729D01*
X111823602Y-167641502D01*
X111886163Y-167683304D01*
X112107848Y-167727400D01*
X112107852Y-167727400D01*
X112182699Y-167742288D01*
X112257546Y-167727400D01*
X128962753Y-167727400D01*
X129037600Y-167742288D01*
X129112447Y-167727400D01*
X129112452Y-167727400D01*
X129334137Y-167683304D01*
X129585529Y-167515329D01*
X129627931Y-167451870D01*
X132148473Y-164931329D01*
X132211929Y-164888929D01*
X132379904Y-164637537D01*
X132424000Y-164415852D01*
X132424000Y-164415848D01*
X132438888Y-164341000D01*
X132424000Y-164266152D01*
X132424000Y-158659846D01*
X132438888Y-158584999D01*
X132424000Y-158510152D01*
X132424000Y-158510148D01*
X132379904Y-158288463D01*
X132276470Y-158133663D01*
X132254329Y-158100526D01*
X132254327Y-158100524D01*
X132211929Y-158037071D01*
X132148476Y-157994673D01*
X131134729Y-156980928D01*
X131284320Y-156831337D01*
X131497000Y-156317881D01*
X131497000Y-155762119D01*
X131284320Y-155248663D01*
X130891337Y-154855680D01*
X130684487Y-154770000D01*
X130891337Y-154684320D01*
X131284320Y-154291337D01*
X131497000Y-153777881D01*
X131497000Y-153222119D01*
X131284320Y-152708663D01*
X130891337Y-152315680D01*
X130684487Y-152230000D01*
X130891337Y-152144320D01*
X131284320Y-151751337D01*
X131497000Y-151237881D01*
X131497000Y-150682119D01*
X131284320Y-150168663D01*
X130891337Y-149775680D01*
X130684487Y-149690000D01*
X130891337Y-149604320D01*
X131284320Y-149211337D01*
X131497000Y-148697881D01*
X131497000Y-148142119D01*
X131284320Y-147628663D01*
X130891337Y-147235680D01*
X130684487Y-147150000D01*
X130891337Y-147064320D01*
X131284320Y-146671337D01*
X131497000Y-146157881D01*
X131497000Y-145602119D01*
X131284320Y-145088663D01*
X130891337Y-144695680D01*
X130684487Y-144610000D01*
X130891337Y-144524320D01*
X131284320Y-144131337D01*
X131497000Y-143617881D01*
X131497000Y-143062119D01*
X131284320Y-142548663D01*
X130891337Y-142155680D01*
X130684487Y-142070000D01*
X130891337Y-141984320D01*
X131284320Y-141591337D01*
X131497000Y-141077881D01*
X131497000Y-140522119D01*
X131284320Y-140008663D01*
X130891337Y-139615680D01*
X130700353Y-139536572D01*
X130831143Y-139482397D01*
X130900608Y-139240213D01*
X130100000Y-138439605D01*
X130085858Y-138453748D01*
X129906253Y-138274143D01*
X129920395Y-138260000D01*
X130279605Y-138260000D01*
X131080213Y-139060608D01*
X131322397Y-138991143D01*
X131509144Y-138467698D01*
X131481362Y-137912632D01*
X131322397Y-137528857D01*
X131080213Y-137459392D01*
X130279605Y-138260000D01*
X129920395Y-138260000D01*
X129906253Y-138245858D01*
X130085858Y-138066253D01*
X130100000Y-138080395D01*
X130900608Y-137279787D01*
X130831143Y-137037603D01*
X130707656Y-136993547D01*
X130831143Y-136942397D01*
X130900608Y-136700213D01*
X130100000Y-135899605D01*
X130085858Y-135913748D01*
X129906253Y-135734143D01*
X129920395Y-135720000D01*
X130279605Y-135720000D01*
X131080213Y-136520608D01*
X131322397Y-136451143D01*
X131509144Y-135927698D01*
X131481362Y-135372632D01*
X131322397Y-134988857D01*
X131080213Y-134919392D01*
X130279605Y-135720000D01*
X129920395Y-135720000D01*
X129906253Y-135705858D01*
X130085858Y-135526253D01*
X130100000Y-135540395D01*
X130900608Y-134739787D01*
X130831143Y-134497603D01*
X130690607Y-134447465D01*
X130891337Y-134364320D01*
X131284320Y-133971337D01*
X131497000Y-133457881D01*
X131497000Y-132902119D01*
X131484020Y-132870782D01*
X132203673Y-132151129D01*
X132267129Y-132108729D01*
X132435104Y-131857337D01*
X132479200Y-131635652D01*
X132479200Y-131635648D01*
X132494088Y-131560800D01*
X132479200Y-131485952D01*
X132479200Y-127601648D01*
X132494088Y-127526800D01*
X132479200Y-127451952D01*
X132479200Y-127451948D01*
X132435104Y-127230263D01*
X132435104Y-127230262D01*
X132309529Y-127042327D01*
X132267129Y-126978871D01*
X132203673Y-126936471D01*
X130390531Y-125123330D01*
X130348129Y-125059871D01*
X130096737Y-124891896D01*
X129875052Y-124847800D01*
X129875047Y-124847800D01*
X129800200Y-124832912D01*
X129725353Y-124847800D01*
X91324848Y-124847800D01*
X91250000Y-124832912D01*
X91175152Y-124847800D01*
X91175148Y-124847800D01*
X91001605Y-124882320D01*
X90953462Y-124891896D01*
X90766418Y-125016876D01*
X90702071Y-125059871D01*
X90659671Y-125123327D01*
X82758679Y-133024320D01*
X82777440Y-132930000D01*
X82777440Y-131230000D01*
X82728157Y-130982235D01*
X82587809Y-130772191D01*
X82377765Y-130631843D01*
X82130000Y-130582560D01*
X80430000Y-130582560D01*
X80182235Y-130631843D01*
X79972191Y-130772191D01*
X79831843Y-130982235D01*
X79822816Y-131027619D01*
X79810625Y-131009375D01*
X79319418Y-130681161D01*
X78886256Y-130595000D01*
X78593744Y-130595000D01*
X78160582Y-130681161D01*
X77669375Y-131009375D01*
X77341161Y-131500582D01*
X77225908Y-132080000D01*
X77341161Y-132659418D01*
X77669375Y-133150625D01*
X78160582Y-133478839D01*
X78593744Y-133565000D01*
X78886256Y-133565000D01*
X79319418Y-133478839D01*
X79810625Y-133150625D01*
X79822816Y-133132381D01*
X79831843Y-133177765D01*
X79972191Y-133387809D01*
X80182235Y-133528157D01*
X80430000Y-133577440D01*
X82130000Y-133577440D01*
X82224320Y-133558679D01*
X77042999Y-138740000D01*
X73574848Y-138740000D01*
X73500000Y-138725112D01*
X73425152Y-138740000D01*
X73425148Y-138740000D01*
X73203463Y-138784096D01*
X72952071Y-138952071D01*
X72909671Y-139015527D01*
X71020505Y-140904694D01*
X70957049Y-140947094D01*
X70914649Y-141010550D01*
X70914648Y-141010551D01*
X70789074Y-141198486D01*
X70730089Y-141495023D01*
X62248217Y-141495023D01*
X62030625Y-141169375D01*
X61539418Y-140841161D01*
X61106256Y-140755000D01*
X60813744Y-140755000D01*
X60380582Y-140841161D01*
X59889375Y-141169375D01*
X59561161Y-141660582D01*
X59445908Y-142240000D01*
X53685000Y-142240000D01*
X53685000Y-132436892D01*
X59518514Y-132436892D01*
X59764817Y-132961358D01*
X60193076Y-133351645D01*
X60603110Y-133521476D01*
X60833000Y-133400155D01*
X60833000Y-132207000D01*
X61087000Y-132207000D01*
X61087000Y-133400155D01*
X61316890Y-133521476D01*
X61726924Y-133351645D01*
X62024864Y-133080122D01*
X62111673Y-133289698D01*
X62290301Y-133468327D01*
X62523690Y-133565000D01*
X63214250Y-133565000D01*
X63373000Y-133406250D01*
X63373000Y-132207000D01*
X63627000Y-132207000D01*
X63627000Y-133406250D01*
X63785750Y-133565000D01*
X64476310Y-133565000D01*
X64709699Y-133468327D01*
X64888327Y-133289698D01*
X64985000Y-133056309D01*
X64985000Y-132365750D01*
X64826250Y-132207000D01*
X63627000Y-132207000D01*
X63373000Y-132207000D01*
X61087000Y-132207000D01*
X60833000Y-132207000D01*
X59639181Y-132207000D01*
X59518514Y-132436892D01*
X53685000Y-132436892D01*
X53685000Y-131723108D01*
X59518514Y-131723108D01*
X59639181Y-131953000D01*
X60833000Y-131953000D01*
X60833000Y-130759845D01*
X61087000Y-130759845D01*
X61087000Y-131953000D01*
X63373000Y-131953000D01*
X63373000Y-130753750D01*
X63627000Y-130753750D01*
X63627000Y-131953000D01*
X64826250Y-131953000D01*
X64985000Y-131794250D01*
X64985000Y-131103691D01*
X64888327Y-130870302D01*
X64709699Y-130691673D01*
X64476310Y-130595000D01*
X63785750Y-130595000D01*
X63627000Y-130753750D01*
X63373000Y-130753750D01*
X63214250Y-130595000D01*
X62523690Y-130595000D01*
X62290301Y-130691673D01*
X62111673Y-130870302D01*
X62024864Y-131079878D01*
X61726924Y-130808355D01*
X61316890Y-130638524D01*
X61087000Y-130759845D01*
X60833000Y-130759845D01*
X60603110Y-130638524D01*
X60193076Y-130808355D01*
X59764817Y-131198642D01*
X59518514Y-131723108D01*
X53685000Y-131723108D01*
X53685000Y-126555431D01*
X54765000Y-126555431D01*
X54765000Y-127444569D01*
X55105259Y-128266026D01*
X55733974Y-128894741D01*
X56555431Y-129235000D01*
X57444569Y-129235000D01*
X58266026Y-128894741D01*
X58894741Y-128266026D01*
X59235000Y-127444569D01*
X59235000Y-126555431D01*
X58894741Y-125733974D01*
X58266026Y-125105259D01*
X57444569Y-124765000D01*
X56555431Y-124765000D01*
X55733974Y-125105259D01*
X55105259Y-125733974D01*
X54765000Y-126555431D01*
X53685000Y-126555431D01*
X53685000Y-123685000D01*
X133315000Y-123685000D01*
X133315001Y-169315000D01*
X133315001Y-169315000D01*
G37*
X133315001Y-169315000D02*
X53685000Y-169315000D01*
X53685000Y-165555431D01*
X54765000Y-165555431D01*
X54765000Y-166444569D01*
X55105259Y-167266026D01*
X55733974Y-167894741D01*
X56555431Y-168235000D01*
X57444569Y-168235000D01*
X58266026Y-167894741D01*
X58894741Y-167266026D01*
X59235000Y-166444569D01*
X59235000Y-165555431D01*
X58894741Y-164733974D01*
X58266026Y-164105259D01*
X57444569Y-163765000D01*
X56555431Y-163765000D01*
X55733974Y-164105259D01*
X55105259Y-164733974D01*
X54765000Y-165555431D01*
X53685000Y-165555431D01*
X53685000Y-142240000D01*
X59445908Y-142240000D01*
X59561161Y-142819418D01*
X59889375Y-143310625D01*
X60187761Y-143510000D01*
X59889375Y-143709375D01*
X59561161Y-144200582D01*
X59445908Y-144780000D01*
X59561161Y-145359418D01*
X59889375Y-145850625D01*
X60187761Y-146050000D01*
X59889375Y-146249375D01*
X59561161Y-146740582D01*
X59445908Y-147320000D01*
X59561161Y-147899418D01*
X59889375Y-148390625D01*
X60187761Y-148590000D01*
X59889375Y-148789375D01*
X59561161Y-149280582D01*
X59445908Y-149860000D01*
X59561161Y-150439418D01*
X59889375Y-150930625D01*
X60187761Y-151130000D01*
X59889375Y-151329375D01*
X59561161Y-151820582D01*
X59445908Y-152400000D01*
X59561161Y-152979418D01*
X59889375Y-153470625D01*
X60187761Y-153670000D01*
X59889375Y-153869375D01*
X59561161Y-154360582D01*
X59445908Y-154940000D01*
X59561161Y-155519418D01*
X59889375Y-156010625D01*
X60187761Y-156210000D01*
X59889375Y-156409375D01*
X59561161Y-156900582D01*
X59445908Y-157480000D01*
X59561161Y-158059418D01*
X59889375Y-158550625D01*
X59907619Y-158562816D01*
X59862235Y-158571843D01*
X59652191Y-158712191D01*
X59511843Y-158922235D01*
X59462560Y-159170000D01*
X59462560Y-160870000D01*
X59511843Y-161117765D01*
X59652191Y-161327809D01*
X59862235Y-161468157D01*
X60110000Y-161517440D01*
X61810000Y-161517440D01*
X62057765Y-161468157D01*
X62267809Y-161327809D01*
X62408157Y-161117765D01*
X62457440Y-160870000D01*
X62457440Y-159170000D01*
X62408157Y-158922235D01*
X62267809Y-158712191D01*
X62057765Y-158571843D01*
X62012381Y-158562816D01*
X62030625Y-158550625D01*
X62358839Y-158059418D01*
X62474092Y-157480000D01*
X62358839Y-156900582D01*
X62030625Y-156409375D01*
X61732239Y-156210000D01*
X62030625Y-156010625D01*
X62358839Y-155519418D01*
X62474092Y-154940000D01*
X62358839Y-154360582D01*
X62030625Y-153869375D01*
X61732239Y-153670000D01*
X62030625Y-153470625D01*
X62358839Y-152979418D01*
X62474092Y-152400000D01*
X62358839Y-151820582D01*
X62030625Y-151329375D01*
X61732239Y-151130000D01*
X62030625Y-150930625D01*
X62358839Y-150439418D01*
X62474092Y-149860000D01*
X62358839Y-149280582D01*
X62030625Y-148789375D01*
X61732239Y-148590000D01*
X62030625Y-148390625D01*
X62358839Y-147899418D01*
X62474092Y-147320000D01*
X62358839Y-146740582D01*
X62030625Y-146249375D01*
X61732239Y-146050000D01*
X62030625Y-145850625D01*
X62358839Y-145359418D01*
X62474092Y-144780000D01*
X62358839Y-144200582D01*
X62030625Y-143709375D01*
X61732239Y-143510000D01*
X62030625Y-143310625D01*
X62358839Y-142819418D01*
X62474092Y-142240000D01*
X62358839Y-141660582D01*
X62248217Y-141495023D01*
X70730089Y-141495023D01*
X70744978Y-141569875D01*
X70744977Y-150250130D01*
X70730089Y-150324977D01*
X70744977Y-150399824D01*
X70744977Y-150399828D01*
X70789073Y-150621513D01*
X70957048Y-150872906D01*
X71020507Y-150915308D01*
X72138791Y-152033592D01*
X72065908Y-152400000D01*
X72181161Y-152979418D01*
X72409839Y-153321659D01*
X71920529Y-153810970D01*
X71857070Y-153853372D01*
X71689095Y-154104765D01*
X71644999Y-154326450D01*
X71644999Y-154326454D01*
X71630111Y-154401301D01*
X71644999Y-154476148D01*
X71645000Y-156230147D01*
X71630111Y-156304999D01*
X71645000Y-156379851D01*
X71678447Y-156548001D01*
X71689096Y-156601536D01*
X71813562Y-156787812D01*
X71857071Y-156852928D01*
X71920527Y-156895328D01*
X72138791Y-157113592D01*
X72065908Y-157480000D01*
X72181161Y-158059418D01*
X72509375Y-158550625D01*
X72527619Y-158562816D01*
X72482235Y-158571843D01*
X72272191Y-158712191D01*
X72131843Y-158922235D01*
X72082560Y-159170000D01*
X72082560Y-160870000D01*
X72131843Y-161117765D01*
X72272191Y-161327809D01*
X72482235Y-161468157D01*
X72730000Y-161517440D01*
X74430000Y-161517440D01*
X74677765Y-161468157D01*
X74887809Y-161327809D01*
X75028157Y-161117765D01*
X75077440Y-160870000D01*
X75077440Y-159170000D01*
X75028157Y-158922235D01*
X74887809Y-158712191D01*
X74677765Y-158571843D01*
X74632381Y-158562816D01*
X74650625Y-158550625D01*
X74978839Y-158059418D01*
X75094092Y-157480000D01*
X74978839Y-156900582D01*
X74650625Y-156409375D01*
X74352239Y-156210000D01*
X74650625Y-156010625D01*
X74862474Y-155693571D01*
X75051837Y-155655904D01*
X75303229Y-155487929D01*
X75345631Y-155424470D01*
X81420102Y-149350000D01*
X84867353Y-149350000D01*
X84765908Y-149860000D01*
X84881161Y-150439418D01*
X85209375Y-150930625D01*
X85507761Y-151130000D01*
X85209375Y-151329375D01*
X84881161Y-151820582D01*
X84765908Y-152400000D01*
X84881161Y-152979418D01*
X85209375Y-153470625D01*
X85507761Y-153670000D01*
X85209375Y-153869375D01*
X84881161Y-154360582D01*
X84765908Y-154940000D01*
X84881161Y-155519418D01*
X85129866Y-155891632D01*
X84620229Y-156401269D01*
X84556771Y-156443671D01*
X84388796Y-156695064D01*
X84344700Y-156916749D01*
X84344700Y-156916753D01*
X84329812Y-156991600D01*
X84344700Y-157066447D01*
X84344701Y-159869848D01*
X84329812Y-159944700D01*
X84388797Y-160241237D01*
X84497617Y-160404097D01*
X84556772Y-160492629D01*
X84601909Y-160522789D01*
X84632071Y-160567929D01*
X84782560Y-160668483D01*
X84782560Y-160870000D01*
X84831843Y-161117765D01*
X84972191Y-161327809D01*
X85182235Y-161468157D01*
X85430000Y-161517440D01*
X87130000Y-161517440D01*
X87377765Y-161468157D01*
X87587809Y-161327809D01*
X87728157Y-161117765D01*
X87777440Y-160870000D01*
X87777440Y-159170000D01*
X87728157Y-158922235D01*
X87587809Y-158712191D01*
X87377765Y-158571843D01*
X87332381Y-158562816D01*
X87350625Y-158550625D01*
X87678839Y-158059418D01*
X87794092Y-157480000D01*
X87776190Y-157390001D01*
X87863152Y-157390001D01*
X87937999Y-157404889D01*
X88012846Y-157390001D01*
X88012851Y-157390001D01*
X88234536Y-157345905D01*
X88485928Y-157177930D01*
X88528330Y-157114471D01*
X98647201Y-146995601D01*
X98647200Y-159561253D01*
X98632312Y-159636100D01*
X98647200Y-159710947D01*
X98647200Y-159710951D01*
X98691296Y-159932636D01*
X98859271Y-160184029D01*
X98922730Y-160226431D01*
X104944000Y-166247702D01*
X104944000Y-166413774D01*
X105101569Y-166794180D01*
X105392720Y-167085331D01*
X105773126Y-167242900D01*
X106184874Y-167242900D01*
X106565280Y-167085331D01*
X106856431Y-166794180D01*
X107014000Y-166413774D01*
X107014000Y-166002026D01*
X106856431Y-165621620D01*
X106565280Y-165330469D01*
X106184874Y-165172900D01*
X106018802Y-165172900D01*
X102198522Y-161352620D01*
X102590625Y-161090625D01*
X102602816Y-161072381D01*
X102611843Y-161117765D01*
X102752191Y-161327809D01*
X102962235Y-161468157D01*
X103210000Y-161517440D01*
X104910000Y-161517440D01*
X105157765Y-161468157D01*
X105367809Y-161327809D01*
X105408063Y-161267565D01*
X111592373Y-167451876D01*
X111634771Y-167515329D01*
X111698224Y-167557727D01*
X111698226Y-167557729D01*
X111823602Y-167641502D01*
X111886163Y-167683304D01*
X112107848Y-167727400D01*
X112107852Y-167727400D01*
X112182699Y-167742288D01*
X112257546Y-167727400D01*
X128962753Y-167727400D01*
X129037600Y-167742288D01*
X129112447Y-167727400D01*
X129112452Y-167727400D01*
X129334137Y-167683304D01*
X129585529Y-167515329D01*
X129627931Y-167451870D01*
X132148473Y-164931329D01*
X132211929Y-164888929D01*
X132379904Y-164637537D01*
X132424000Y-164415852D01*
X132424000Y-164415848D01*
X132438888Y-164341000D01*
X132424000Y-164266152D01*
X132424000Y-158659846D01*
X132438888Y-158584999D01*
X132424000Y-158510152D01*
X132424000Y-158510148D01*
X132379904Y-158288463D01*
X132276470Y-158133663D01*
X132254329Y-158100526D01*
X132254327Y-158100524D01*
X132211929Y-158037071D01*
X132148476Y-157994673D01*
X131134729Y-156980928D01*
X131284320Y-156831337D01*
X131497000Y-156317881D01*
X131497000Y-155762119D01*
X131284320Y-155248663D01*
X130891337Y-154855680D01*
X130684487Y-154770000D01*
X130891337Y-154684320D01*
X131284320Y-154291337D01*
X131497000Y-153777881D01*
X131497000Y-153222119D01*
X131284320Y-152708663D01*
X130891337Y-152315680D01*
X130684487Y-152230000D01*
X130891337Y-152144320D01*
X131284320Y-151751337D01*
X131497000Y-151237881D01*
X131497000Y-150682119D01*
X131284320Y-150168663D01*
X130891337Y-149775680D01*
X130684487Y-149690000D01*
X130891337Y-149604320D01*
X131284320Y-149211337D01*
X131497000Y-148697881D01*
X131497000Y-148142119D01*
X131284320Y-147628663D01*
X130891337Y-147235680D01*
X130684487Y-147150000D01*
X130891337Y-147064320D01*
X131284320Y-146671337D01*
X131497000Y-146157881D01*
X131497000Y-145602119D01*
X131284320Y-145088663D01*
X130891337Y-144695680D01*
X130684487Y-144610000D01*
X130891337Y-144524320D01*
X131284320Y-144131337D01*
X131497000Y-143617881D01*
X131497000Y-143062119D01*
X131284320Y-142548663D01*
X130891337Y-142155680D01*
X130684487Y-142070000D01*
X130891337Y-141984320D01*
X131284320Y-141591337D01*
X131497000Y-141077881D01*
X131497000Y-140522119D01*
X131284320Y-140008663D01*
X130891337Y-139615680D01*
X130700353Y-139536572D01*
X130831143Y-139482397D01*
X130900608Y-139240213D01*
X130100000Y-138439605D01*
X130085858Y-138453748D01*
X129906253Y-138274143D01*
X129920395Y-138260000D01*
X130279605Y-138260000D01*
X131080213Y-139060608D01*
X131322397Y-138991143D01*
X131509144Y-138467698D01*
X131481362Y-137912632D01*
X131322397Y-137528857D01*
X131080213Y-137459392D01*
X130279605Y-138260000D01*
X129920395Y-138260000D01*
X129906253Y-138245858D01*
X130085858Y-138066253D01*
X130100000Y-138080395D01*
X130900608Y-137279787D01*
X130831143Y-137037603D01*
X130707656Y-136993547D01*
X130831143Y-136942397D01*
X130900608Y-136700213D01*
X130100000Y-135899605D01*
X130085858Y-135913748D01*
X129906253Y-135734143D01*
X129920395Y-135720000D01*
X130279605Y-135720000D01*
X131080213Y-136520608D01*
X131322397Y-136451143D01*
X131509144Y-135927698D01*
X131481362Y-135372632D01*
X131322397Y-134988857D01*
X131080213Y-134919392D01*
X130279605Y-135720000D01*
X129920395Y-135720000D01*
X129906253Y-135705858D01*
X130085858Y-135526253D01*
X130100000Y-135540395D01*
X130900608Y-134739787D01*
X130831143Y-134497603D01*
X130690607Y-134447465D01*
X130891337Y-134364320D01*
X131284320Y-133971337D01*
X131497000Y-133457881D01*
X131497000Y-132902119D01*
X131484020Y-132870782D01*
X132203673Y-132151129D01*
X132267129Y-132108729D01*
X132435104Y-131857337D01*
X132479200Y-131635652D01*
X132479200Y-131635648D01*
X132494088Y-131560800D01*
X132479200Y-131485952D01*
X132479200Y-127601648D01*
X132494088Y-127526800D01*
X132479200Y-127451952D01*
X132479200Y-127451948D01*
X132435104Y-127230263D01*
X132435104Y-127230262D01*
X132309529Y-127042327D01*
X132267129Y-126978871D01*
X132203673Y-126936471D01*
X130390531Y-125123330D01*
X130348129Y-125059871D01*
X130096737Y-124891896D01*
X129875052Y-124847800D01*
X129875047Y-124847800D01*
X129800200Y-124832912D01*
X129725353Y-124847800D01*
X91324848Y-124847800D01*
X91250000Y-124832912D01*
X91175152Y-124847800D01*
X91175148Y-124847800D01*
X91001605Y-124882320D01*
X90953462Y-124891896D01*
X90766418Y-125016876D01*
X90702071Y-125059871D01*
X90659671Y-125123327D01*
X82758679Y-133024320D01*
X82777440Y-132930000D01*
X82777440Y-131230000D01*
X82728157Y-130982235D01*
X82587809Y-130772191D01*
X82377765Y-130631843D01*
X82130000Y-130582560D01*
X80430000Y-130582560D01*
X80182235Y-130631843D01*
X79972191Y-130772191D01*
X79831843Y-130982235D01*
X79822816Y-131027619D01*
X79810625Y-131009375D01*
X79319418Y-130681161D01*
X78886256Y-130595000D01*
X78593744Y-130595000D01*
X78160582Y-130681161D01*
X77669375Y-131009375D01*
X77341161Y-131500582D01*
X77225908Y-132080000D01*
X77341161Y-132659418D01*
X77669375Y-133150625D01*
X78160582Y-133478839D01*
X78593744Y-133565000D01*
X78886256Y-133565000D01*
X79319418Y-133478839D01*
X79810625Y-133150625D01*
X79822816Y-133132381D01*
X79831843Y-133177765D01*
X79972191Y-133387809D01*
X80182235Y-133528157D01*
X80430000Y-133577440D01*
X82130000Y-133577440D01*
X82224320Y-133558679D01*
X77042999Y-138740000D01*
X73574848Y-138740000D01*
X73500000Y-138725112D01*
X73425152Y-138740000D01*
X73425148Y-138740000D01*
X73203463Y-138784096D01*
X72952071Y-138952071D01*
X72909671Y-139015527D01*
X71020505Y-140904694D01*
X70957049Y-140947094D01*
X70914649Y-141010550D01*
X70914648Y-141010551D01*
X70789074Y-141198486D01*
X70730089Y-141495023D01*
X62248217Y-141495023D01*
X62030625Y-141169375D01*
X61539418Y-140841161D01*
X61106256Y-140755000D01*
X60813744Y-140755000D01*
X60380582Y-140841161D01*
X59889375Y-141169375D01*
X59561161Y-141660582D01*
X59445908Y-142240000D01*
X53685000Y-142240000D01*
X53685000Y-132436892D01*
X59518514Y-132436892D01*
X59764817Y-132961358D01*
X60193076Y-133351645D01*
X60603110Y-133521476D01*
X60833000Y-133400155D01*
X60833000Y-132207000D01*
X61087000Y-132207000D01*
X61087000Y-133400155D01*
X61316890Y-133521476D01*
X61726924Y-133351645D01*
X62024864Y-133080122D01*
X62111673Y-133289698D01*
X62290301Y-133468327D01*
X62523690Y-133565000D01*
X63214250Y-133565000D01*
X63373000Y-133406250D01*
X63373000Y-132207000D01*
X63627000Y-132207000D01*
X63627000Y-133406250D01*
X63785750Y-133565000D01*
X64476310Y-133565000D01*
X64709699Y-133468327D01*
X64888327Y-133289698D01*
X64985000Y-133056309D01*
X64985000Y-132365750D01*
X64826250Y-132207000D01*
X63627000Y-132207000D01*
X63373000Y-132207000D01*
X61087000Y-132207000D01*
X60833000Y-132207000D01*
X59639181Y-132207000D01*
X59518514Y-132436892D01*
X53685000Y-132436892D01*
X53685000Y-131723108D01*
X59518514Y-131723108D01*
X59639181Y-131953000D01*
X60833000Y-131953000D01*
X60833000Y-130759845D01*
X61087000Y-130759845D01*
X61087000Y-131953000D01*
X63373000Y-131953000D01*
X63373000Y-130753750D01*
X63627000Y-130753750D01*
X63627000Y-131953000D01*
X64826250Y-131953000D01*
X64985000Y-131794250D01*
X64985000Y-131103691D01*
X64888327Y-130870302D01*
X64709699Y-130691673D01*
X64476310Y-130595000D01*
X63785750Y-130595000D01*
X63627000Y-130753750D01*
X63373000Y-130753750D01*
X63214250Y-130595000D01*
X62523690Y-130595000D01*
X62290301Y-130691673D01*
X62111673Y-130870302D01*
X62024864Y-131079878D01*
X61726924Y-130808355D01*
X61316890Y-130638524D01*
X61087000Y-130759845D01*
X60833000Y-130759845D01*
X60603110Y-130638524D01*
X60193076Y-130808355D01*
X59764817Y-131198642D01*
X59518514Y-131723108D01*
X53685000Y-131723108D01*
X53685000Y-126555431D01*
X54765000Y-126555431D01*
X54765000Y-127444569D01*
X55105259Y-128266026D01*
X55733974Y-128894741D01*
X56555431Y-129235000D01*
X57444569Y-129235000D01*
X58266026Y-128894741D01*
X58894741Y-128266026D01*
X59235000Y-127444569D01*
X59235000Y-126555431D01*
X58894741Y-125733974D01*
X58266026Y-125105259D01*
X57444569Y-124765000D01*
X56555431Y-124765000D01*
X55733974Y-125105259D01*
X55105259Y-125733974D01*
X54765000Y-126555431D01*
X53685000Y-126555431D01*
X53685000Y-123685000D01*
X133315000Y-123685000D01*
X133315001Y-169315000D01*
G36*
X128388748Y-136975858D02*
X128374605Y-136990000D01*
X128388748Y-137004143D01*
X128209143Y-137183748D01*
X128195000Y-137169605D01*
X128180858Y-137183748D01*
X128001253Y-137004143D01*
X128015395Y-136990000D01*
X128001253Y-136975858D01*
X128180858Y-136796253D01*
X128195000Y-136810395D01*
X128209143Y-136796253D01*
X128388748Y-136975858D01*
X128388748Y-136975858D01*
G37*
X128388748Y-136975858D02*
X128374605Y-136990000D01*
X128388748Y-137004143D01*
X128209143Y-137183748D01*
X128195000Y-137169605D01*
X128180858Y-137183748D01*
X128001253Y-137004143D01*
X128015395Y-136990000D01*
X128001253Y-136975858D01*
X128180858Y-136796253D01*
X128195000Y-136810395D01*
X128209143Y-136796253D01*
X128388748Y-136975858D01*
G36*
X128388748Y-134435858D02*
X128374605Y-134450000D01*
X128388748Y-134464143D01*
X128209143Y-134643748D01*
X128195000Y-134629605D01*
X128180858Y-134643748D01*
X128001253Y-134464143D01*
X128015395Y-134450000D01*
X128001253Y-134435858D01*
X128180858Y-134256253D01*
X128195000Y-134270395D01*
X128209143Y-134256253D01*
X128388748Y-134435858D01*
X128388748Y-134435858D01*
G37*
X128388748Y-134435858D02*
X128374605Y-134450000D01*
X128388748Y-134464143D01*
X128209143Y-134643748D01*
X128195000Y-134629605D01*
X128180858Y-134643748D01*
X128001253Y-134464143D01*
X128015395Y-134450000D01*
X128001253Y-134435858D01*
X128180858Y-134256253D01*
X128195000Y-134270395D01*
X128209143Y-134256253D01*
X128388748Y-134435858D01*
G04 #@! TD*
M02*
