G04 This is an RS-274x file exported by *
G04 gerbv version 2.6.1 *
G04 More information is available about gerbv at *
G04 http://gerbv.geda-project.org/ *
G04 --End of header info--*
%MOIN*%
%FSLAX34Y34*%
%IPPOS*%
G04 --Define apertures--*
%ADD10C,0.0059*%
%ADD11C,0.0118*%
%ADD12C,0.0047*%
G04 --Start main section--*
G54D10*
G01X0033591Y-066266D02*
G01X0033666Y-066528D01*
G01X0033666Y-066528D02*
G01X0033741Y-066341D01*
G01X0033741Y-066341D02*
G01X0033816Y-066528D01*
G01X0033816Y-066528D02*
G01X0033891Y-066266D01*
G01X0034003Y-066266D02*
G01X0034078Y-066528D01*
G01X0034078Y-066528D02*
G01X0034153Y-066341D01*
G01X0034153Y-066341D02*
G01X0034228Y-066528D01*
G01X0034228Y-066528D02*
G01X0034303Y-066266D01*
G01X0034416Y-066266D02*
G01X0034491Y-066528D01*
G01X0034491Y-066528D02*
G01X0034566Y-066341D01*
G01X0034566Y-066341D02*
G01X0034641Y-066528D01*
G01X0034641Y-066528D02*
G01X0034716Y-066266D01*
G01X0034866Y-066491D02*
G01X0034885Y-066509D01*
G01X0034885Y-066509D02*
G01X0034866Y-066528D01*
G01X0034866Y-066528D02*
G01X0034847Y-066509D01*
G01X0034847Y-066509D02*
G01X0034866Y-066491D01*
G01X0034866Y-066491D02*
G01X0034866Y-066528D01*
G01X0035053Y-066528D02*
G01X0035053Y-066134D01*
G01X0035278Y-066528D02*
G01X0035109Y-066303D01*
G01X0035278Y-066134D02*
G01X0035053Y-066359D01*
G01X0035616Y-066528D02*
G01X0035616Y-066322D01*
G01X0035616Y-066322D02*
G01X0035597Y-066284D01*
G01X0035597Y-066284D02*
G01X0035559Y-066266D01*
G01X0035559Y-066266D02*
G01X0035484Y-066266D01*
G01X0035484Y-066266D02*
G01X0035447Y-066284D01*
G01X0035616Y-066509D02*
G01X0035578Y-066528D01*
G01X0035578Y-066528D02*
G01X0035484Y-066528D01*
G01X0035484Y-066528D02*
G01X0035447Y-066509D01*
G01X0035447Y-066509D02*
G01X0035428Y-066472D01*
G01X0035428Y-066472D02*
G01X0035428Y-066434D01*
G01X0035428Y-066434D02*
G01X0035447Y-066397D01*
G01X0035447Y-066397D02*
G01X0035484Y-066378D01*
G01X0035484Y-066378D02*
G01X0035578Y-066378D01*
G01X0035578Y-066378D02*
G01X0035616Y-066359D01*
G01X0035803Y-066528D02*
G01X0035803Y-066266D01*
G01X0035803Y-066134D02*
G01X0035784Y-066153D01*
G01X0035784Y-066153D02*
G01X0035803Y-066172D01*
G01X0035803Y-066172D02*
G01X0035822Y-066153D01*
G01X0035822Y-066153D02*
G01X0035803Y-066134D01*
G01X0035803Y-066134D02*
G01X0035803Y-066172D01*
G01X0036122Y-066322D02*
G01X0036178Y-066341D01*
G01X0036178Y-066341D02*
G01X0036197Y-066359D01*
G01X0036197Y-066359D02*
G01X0036216Y-066397D01*
G01X0036216Y-066397D02*
G01X0036216Y-066453D01*
G01X0036216Y-066453D02*
G01X0036197Y-066491D01*
G01X0036197Y-066491D02*
G01X0036178Y-066509D01*
G01X0036178Y-066509D02*
G01X0036141Y-066528D01*
G01X0036141Y-066528D02*
G01X0035991Y-066528D01*
G01X0035991Y-066528D02*
G01X0035991Y-066134D01*
G01X0035991Y-066134D02*
G01X0036122Y-066134D01*
G01X0036122Y-066134D02*
G01X0036159Y-066153D01*
G01X0036159Y-066153D02*
G01X0036178Y-066172D01*
G01X0036178Y-066172D02*
G01X0036197Y-066209D01*
G01X0036197Y-066209D02*
G01X0036197Y-066247D01*
G01X0036197Y-066247D02*
G01X0036178Y-066284D01*
G01X0036178Y-066284D02*
G01X0036159Y-066303D01*
G01X0036159Y-066303D02*
G01X0036122Y-066322D01*
G01X0036122Y-066322D02*
G01X0035991Y-066322D01*
G01X0036553Y-066528D02*
G01X0036553Y-066322D01*
G01X0036553Y-066322D02*
G01X0036534Y-066284D01*
G01X0036534Y-066284D02*
G01X0036497Y-066266D01*
G01X0036497Y-066266D02*
G01X0036422Y-066266D01*
G01X0036422Y-066266D02*
G01X0036384Y-066284D01*
G01X0036553Y-066509D02*
G01X0036516Y-066528D01*
G01X0036516Y-066528D02*
G01X0036422Y-066528D01*
G01X0036422Y-066528D02*
G01X0036384Y-066509D01*
G01X0036384Y-066509D02*
G01X0036366Y-066472D01*
G01X0036366Y-066472D02*
G01X0036366Y-066434D01*
G01X0036366Y-066434D02*
G01X0036384Y-066397D01*
G01X0036384Y-066397D02*
G01X0036422Y-066378D01*
G01X0036422Y-066378D02*
G01X0036516Y-066378D01*
G01X0036516Y-066378D02*
G01X0036553Y-066359D01*
G01X0036909Y-066528D02*
G01X0036909Y-066134D01*
G01X0036909Y-066509D02*
G01X0036872Y-066528D01*
G01X0036872Y-066528D02*
G01X0036797Y-066528D01*
G01X0036797Y-066528D02*
G01X0036759Y-066509D01*
G01X0036759Y-066509D02*
G01X0036741Y-066491D01*
G01X0036741Y-066491D02*
G01X0036722Y-066453D01*
G01X0036722Y-066453D02*
G01X0036722Y-066341D01*
G01X0036722Y-066341D02*
G01X0036741Y-066303D01*
G01X0036741Y-066303D02*
G01X0036759Y-066284D01*
G01X0036759Y-066284D02*
G01X0036797Y-066266D01*
G01X0036797Y-066266D02*
G01X0036872Y-066266D01*
G01X0036872Y-066266D02*
G01X0036909Y-066284D01*
G01X0037247Y-066509D02*
G01X0037209Y-066528D01*
G01X0037209Y-066528D02*
G01X0037134Y-066528D01*
G01X0037134Y-066528D02*
G01X0037097Y-066509D01*
G01X0037097Y-066509D02*
G01X0037078Y-066472D01*
G01X0037078Y-066472D02*
G01X0037078Y-066322D01*
G01X0037078Y-066322D02*
G01X0037097Y-066284D01*
G01X0037097Y-066284D02*
G01X0037134Y-066266D01*
G01X0037134Y-066266D02*
G01X0037209Y-066266D01*
G01X0037209Y-066266D02*
G01X0037247Y-066284D01*
G01X0037247Y-066284D02*
G01X0037265Y-066322D01*
G01X0037265Y-066322D02*
G01X0037265Y-066359D01*
G01X0037265Y-066359D02*
G01X0037078Y-066397D01*
G01X0037434Y-066528D02*
G01X0037434Y-066266D01*
G01X0037434Y-066341D02*
G01X0037453Y-066303D01*
G01X0037453Y-066303D02*
G01X0037472Y-066284D01*
G01X0037472Y-066284D02*
G01X0037509Y-066266D01*
G01X0037509Y-066266D02*
G01X0037547Y-066266D01*
G01X0037678Y-066491D02*
G01X0037697Y-066509D01*
G01X0037697Y-066509D02*
G01X0037678Y-066528D01*
G01X0037678Y-066528D02*
G01X0037659Y-066509D01*
G01X0037659Y-066509D02*
G01X0037678Y-066491D01*
G01X0037678Y-066491D02*
G01X0037678Y-066528D01*
G01X0038034Y-066528D02*
G01X0038034Y-066134D01*
G01X0038034Y-066509D02*
G01X0037997Y-066528D01*
G01X0037997Y-066528D02*
G01X0037922Y-066528D01*
G01X0037922Y-066528D02*
G01X0037884Y-066509D01*
G01X0037884Y-066509D02*
G01X0037865Y-066491D01*
G01X0037865Y-066491D02*
G01X0037847Y-066453D01*
G01X0037847Y-066453D02*
G01X0037847Y-066341D01*
G01X0037847Y-066341D02*
G01X0037865Y-066303D01*
G01X0037865Y-066303D02*
G01X0037884Y-066284D01*
G01X0037884Y-066284D02*
G01X0037922Y-066266D01*
G01X0037922Y-066266D02*
G01X0037997Y-066266D01*
G01X0037997Y-066266D02*
G01X0038034Y-066284D01*
G01X0038372Y-066509D02*
G01X0038334Y-066528D01*
G01X0038334Y-066528D02*
G01X0038259Y-066528D01*
G01X0038259Y-066528D02*
G01X0038222Y-066509D01*
G01X0038222Y-066509D02*
G01X0038203Y-066472D01*
G01X0038203Y-066472D02*
G01X0038203Y-066322D01*
G01X0038203Y-066322D02*
G01X0038222Y-066284D01*
G01X0038222Y-066284D02*
G01X0038259Y-066266D01*
G01X0038259Y-066266D02*
G01X0038334Y-066266D01*
G01X0038334Y-066266D02*
G01X0038372Y-066284D01*
G01X0038372Y-066284D02*
G01X0038390Y-066322D01*
G01X0038390Y-066322D02*
G01X0038390Y-066359D01*
G01X0038390Y-066359D02*
G01X0038203Y-066397D01*
G01X0030122Y-049278D02*
G01X0030422Y-049278D01*
G01X0030272Y-049428D02*
G01X0030272Y-049128D01*
G01X0030778Y-049166D02*
G01X0030778Y-049428D01*
G01X0030684Y-049016D02*
G01X0030591Y-049297D01*
G01X0030591Y-049297D02*
G01X0030834Y-049297D01*
G01X0030928Y-049034D02*
G01X0031059Y-049428D01*
G01X0031059Y-049428D02*
G01X0031191Y-049034D01*
G01X0031284Y-049034D02*
G01X0031547Y-049034D01*
G01X0031547Y-049034D02*
G01X0031378Y-049428D01*
G01X0032184Y-049428D02*
G01X0031997Y-049428D01*
G01X0031997Y-049428D02*
G01X0031997Y-049034D01*
G01X0032316Y-049222D02*
G01X0032447Y-049222D01*
G01X0032503Y-049428D02*
G01X0032316Y-049428D01*
G01X0032316Y-049428D02*
G01X0032316Y-049034D01*
G01X0032316Y-049034D02*
G01X0032503Y-049034D01*
G01X0032672Y-049428D02*
G01X0032672Y-049034D01*
G01X0032672Y-049034D02*
G01X0032765Y-049034D01*
G01X0032765Y-049034D02*
G01X0032822Y-049053D01*
G01X0032822Y-049053D02*
G01X0032859Y-049091D01*
G01X0032859Y-049091D02*
G01X0032878Y-049128D01*
G01X0032878Y-049128D02*
G01X0032897Y-049203D01*
G01X0032897Y-049203D02*
G01X0032897Y-049259D01*
G01X0032897Y-049259D02*
G01X0032878Y-049334D01*
G01X0032878Y-049334D02*
G01X0032859Y-049372D01*
G01X0032859Y-049372D02*
G01X0032822Y-049409D01*
G01X0032822Y-049409D02*
G01X0032765Y-049428D01*
G01X0032765Y-049428D02*
G01X0032672Y-049428D01*
G01X0037000Y-049278D02*
G01X0037300Y-049278D01*
G01X0037150Y-049428D02*
G01X0037150Y-049128D01*
G01X0037619Y-049222D02*
G01X0037675Y-049241D01*
G01X0037675Y-049241D02*
G01X0037694Y-049259D01*
G01X0037694Y-049259D02*
G01X0037713Y-049297D01*
G01X0037713Y-049297D02*
G01X0037713Y-049353D01*
G01X0037713Y-049353D02*
G01X0037694Y-049391D01*
G01X0037694Y-049391D02*
G01X0037675Y-049409D01*
G01X0037675Y-049409D02*
G01X0037638Y-049428D01*
G01X0037638Y-049428D02*
G01X0037488Y-049428D01*
G01X0037488Y-049428D02*
G01X0037488Y-049034D01*
G01X0037488Y-049034D02*
G01X0037619Y-049034D01*
G01X0037619Y-049034D02*
G01X0037656Y-049053D01*
G01X0037656Y-049053D02*
G01X0037675Y-049072D01*
G01X0037675Y-049072D02*
G01X0037694Y-049109D01*
G01X0037694Y-049109D02*
G01X0037694Y-049147D01*
G01X0037694Y-049147D02*
G01X0037675Y-049184D01*
G01X0037675Y-049184D02*
G01X0037656Y-049203D01*
G01X0037656Y-049203D02*
G01X0037619Y-049222D01*
G01X0037619Y-049222D02*
G01X0037488Y-049222D01*
G01X0037863Y-049316D02*
G01X0038050Y-049316D01*
G01X0037825Y-049428D02*
G01X0037956Y-049034D01*
G01X0037956Y-049034D02*
G01X0038088Y-049428D01*
G01X0038163Y-049034D02*
G01X0038388Y-049034D01*
G01X0038275Y-049428D02*
G01X0038275Y-049034D01*
G01X0038463Y-049034D02*
G01X0038687Y-049034D01*
G01X0038575Y-049428D02*
G01X0038575Y-049034D01*
G01X0039306Y-049428D02*
G01X0039119Y-049428D01*
G01X0039119Y-049428D02*
G01X0039119Y-049034D01*
G01X0039437Y-049222D02*
G01X0039569Y-049222D01*
G01X0039625Y-049428D02*
G01X0039437Y-049428D01*
G01X0039437Y-049428D02*
G01X0039437Y-049034D01*
G01X0039437Y-049034D02*
G01X0039625Y-049034D01*
G01X0039794Y-049428D02*
G01X0039794Y-049034D01*
G01X0039794Y-049034D02*
G01X0039887Y-049034D01*
G01X0039887Y-049034D02*
G01X0039944Y-049053D01*
G01X0039944Y-049053D02*
G01X0039981Y-049091D01*
G01X0039981Y-049091D02*
G01X0040000Y-049128D01*
G01X0040000Y-049128D02*
G01X0040019Y-049203D01*
G01X0040019Y-049203D02*
G01X0040019Y-049259D01*
G01X0040019Y-049259D02*
G01X0040000Y-049334D01*
G01X0040000Y-049334D02*
G01X0039981Y-049372D01*
G01X0039981Y-049372D02*
G01X0039944Y-049409D01*
G01X0039944Y-049409D02*
G01X0039887Y-049428D01*
G01X0039887Y-049428D02*
G01X0039794Y-049428D01*
G01X0047191Y-064178D02*
G01X0047191Y-063784D01*
G01X0047191Y-063784D02*
G01X0047416Y-064178D01*
G01X0047416Y-064178D02*
G01X0047416Y-063784D01*
G01X0047828Y-064141D02*
G01X0047809Y-064159D01*
G01X0047809Y-064159D02*
G01X0047753Y-064178D01*
G01X0047753Y-064178D02*
G01X0047716Y-064178D01*
G01X0047716Y-064178D02*
G01X0047659Y-064159D01*
G01X0047659Y-064159D02*
G01X0047622Y-064122D01*
G01X0047622Y-064122D02*
G01X0047603Y-064084D01*
G01X0047603Y-064084D02*
G01X0047584Y-064009D01*
G01X0047584Y-064009D02*
G01X0047584Y-063953D01*
G01X0047584Y-063953D02*
G01X0047603Y-063878D01*
G01X0047603Y-063878D02*
G01X0047622Y-063841D01*
G01X0047622Y-063841D02*
G01X0047659Y-063803D01*
G01X0047659Y-063803D02*
G01X0047716Y-063784D01*
G01X0047716Y-063784D02*
G01X0047753Y-063784D01*
G01X0047753Y-063784D02*
G01X0047809Y-063803D01*
G01X0047809Y-063803D02*
G01X0047828Y-063822D01*
G54D11*
G01X0025890Y-065739D02*
G01X0025975Y-065767D01*
G01X0025975Y-065767D02*
G01X0026115Y-065767D01*
G01X0026115Y-065767D02*
G01X0026172Y-065739D01*
G01X0026172Y-065739D02*
G01X0026200Y-065711D01*
G01X0026200Y-065711D02*
G01X0026228Y-065655D01*
G01X0026228Y-065655D02*
G01X0026228Y-065598D01*
G01X0026228Y-065598D02*
G01X0026200Y-065542D01*
G01X0026200Y-065542D02*
G01X0026172Y-065514D01*
G01X0026172Y-065514D02*
G01X0026115Y-065486D01*
G01X0026115Y-065486D02*
G01X0026003Y-065458D01*
G01X0026003Y-065458D02*
G01X0025947Y-065430D01*
G01X0025947Y-065430D02*
G01X0025918Y-065402D01*
G01X0025918Y-065402D02*
G01X0025890Y-065345D01*
G01X0025890Y-065345D02*
G01X0025890Y-065289D01*
G01X0025890Y-065289D02*
G01X0025918Y-065233D01*
G01X0025918Y-065233D02*
G01X0025947Y-065205D01*
G01X0025947Y-065205D02*
G01X0026003Y-065177D01*
G01X0026003Y-065177D02*
G01X0026143Y-065177D01*
G01X0026143Y-065177D02*
G01X0026228Y-065205D01*
G01X0026481Y-065767D02*
G01X0026481Y-065177D01*
G01X0026481Y-065458D02*
G01X0026818Y-065458D01*
G01X0026818Y-065767D02*
G01X0026818Y-065177D01*
G01X0027071Y-065598D02*
G01X0027353Y-065598D01*
G01X0027015Y-065767D02*
G01X0027212Y-065177D01*
G01X0027212Y-065177D02*
G01X0027409Y-065767D01*
G01X0027943Y-065767D02*
G01X0027746Y-065486D01*
G01X0027606Y-065767D02*
G01X0027606Y-065177D01*
G01X0027606Y-065177D02*
G01X0027831Y-065177D01*
G01X0027831Y-065177D02*
G01X0027887Y-065205D01*
G01X0027887Y-065205D02*
G01X0027915Y-065233D01*
G01X0027915Y-065233D02*
G01X0027943Y-065289D01*
G01X0027943Y-065289D02*
G01X0027943Y-065373D01*
G01X0027943Y-065373D02*
G01X0027915Y-065430D01*
G01X0027915Y-065430D02*
G01X0027887Y-065458D01*
G01X0027887Y-065458D02*
G01X0027831Y-065486D01*
G01X0027831Y-065486D02*
G01X0027606Y-065486D01*
G01X0028196Y-065767D02*
G01X0028196Y-065177D01*
G01X0028196Y-065177D02*
G01X0028421Y-065177D01*
G01X0028421Y-065177D02*
G01X0028478Y-065205D01*
G01X0028478Y-065205D02*
G01X0028506Y-065233D01*
G01X0028506Y-065233D02*
G01X0028534Y-065289D01*
G01X0028534Y-065289D02*
G01X0028534Y-065373D01*
G01X0028534Y-065373D02*
G01X0028506Y-065430D01*
G01X0028506Y-065430D02*
G01X0028478Y-065458D01*
G01X0028478Y-065458D02*
G01X0028421Y-065486D01*
G01X0028421Y-065486D02*
G01X0028196Y-065486D01*
G01X0029237Y-065767D02*
G01X0029237Y-065177D01*
G01X0029237Y-065177D02*
G01X0029462Y-065177D01*
G01X0029462Y-065177D02*
G01X0029518Y-065205D01*
G01X0029518Y-065205D02*
G01X0029546Y-065233D01*
G01X0029546Y-065233D02*
G01X0029574Y-065289D01*
G01X0029574Y-065289D02*
G01X0029574Y-065373D01*
G01X0029574Y-065373D02*
G01X0029546Y-065430D01*
G01X0029546Y-065430D02*
G01X0029518Y-065458D01*
G01X0029518Y-065458D02*
G01X0029462Y-065486D01*
G01X0029462Y-065486D02*
G01X0029237Y-065486D01*
G01X0030165Y-065711D02*
G01X0030137Y-065739D01*
G01X0030137Y-065739D02*
G01X0030052Y-065767D01*
G01X0030052Y-065767D02*
G01X0029996Y-065767D01*
G01X0029996Y-065767D02*
G01X0029912Y-065739D01*
G01X0029912Y-065739D02*
G01X0029855Y-065683D01*
G01X0029855Y-065683D02*
G01X0029827Y-065627D01*
G01X0029827Y-065627D02*
G01X0029799Y-065514D01*
G01X0029799Y-065514D02*
G01X0029799Y-065430D01*
G01X0029799Y-065430D02*
G01X0029827Y-065317D01*
G01X0029827Y-065317D02*
G01X0029855Y-065261D01*
G01X0029855Y-065261D02*
G01X0029912Y-065205D01*
G01X0029912Y-065205D02*
G01X0029996Y-065177D01*
G01X0029996Y-065177D02*
G01X0030052Y-065177D01*
G01X0030052Y-065177D02*
G01X0030137Y-065205D01*
G01X0030137Y-065205D02*
G01X0030165Y-065233D01*
G01X0031121Y-065177D02*
G01X0031008Y-065177D01*
G01X0031008Y-065177D02*
G01X0030952Y-065205D01*
G01X0030952Y-065205D02*
G01X0030924Y-065233D01*
G01X0030924Y-065233D02*
G01X0030868Y-065317D01*
G01X0030868Y-065317D02*
G01X0030840Y-065430D01*
G01X0030840Y-065430D02*
G01X0030840Y-065655D01*
G01X0030840Y-065655D02*
G01X0030868Y-065711D01*
G01X0030868Y-065711D02*
G01X0030896Y-065739D01*
G01X0030896Y-065739D02*
G01X0030952Y-065767D01*
G01X0030952Y-065767D02*
G01X0031065Y-065767D01*
G01X0031065Y-065767D02*
G01X0031121Y-065739D01*
G01X0031121Y-065739D02*
G01X0031149Y-065711D01*
G01X0031149Y-065711D02*
G01X0031177Y-065655D01*
G01X0031177Y-065655D02*
G01X0031177Y-065514D01*
G01X0031177Y-065514D02*
G01X0031149Y-065458D01*
G01X0031149Y-065458D02*
G01X0031121Y-065430D01*
G01X0031121Y-065430D02*
G01X0031065Y-065402D01*
G01X0031065Y-065402D02*
G01X0030952Y-065402D01*
G01X0030952Y-065402D02*
G01X0030896Y-065430D01*
G01X0030896Y-065430D02*
G01X0030868Y-065458D01*
G01X0030868Y-065458D02*
G01X0030840Y-065514D01*
G01X0031543Y-065177D02*
G01X0031599Y-065177D01*
G01X0031599Y-065177D02*
G01X0031655Y-065205D01*
G01X0031655Y-065205D02*
G01X0031683Y-065233D01*
G01X0031683Y-065233D02*
G01X0031711Y-065289D01*
G01X0031711Y-065289D02*
G01X0031740Y-065402D01*
G01X0031740Y-065402D02*
G01X0031740Y-065542D01*
G01X0031740Y-065542D02*
G01X0031711Y-065655D01*
G01X0031711Y-065655D02*
G01X0031683Y-065711D01*
G01X0031683Y-065711D02*
G01X0031655Y-065739D01*
G01X0031655Y-065739D02*
G01X0031599Y-065767D01*
G01X0031599Y-065767D02*
G01X0031543Y-065767D01*
G01X0031543Y-065767D02*
G01X0031487Y-065739D01*
G01X0031487Y-065739D02*
G01X0031458Y-065711D01*
G01X0031458Y-065711D02*
G01X0031430Y-065655D01*
G01X0031430Y-065655D02*
G01X0031402Y-065542D01*
G01X0031402Y-065542D02*
G01X0031402Y-065402D01*
G01X0031402Y-065402D02*
G01X0031430Y-065289D01*
G01X0031430Y-065289D02*
G01X0031458Y-065233D01*
G01X0031458Y-065233D02*
G01X0031487Y-065205D01*
G01X0031487Y-065205D02*
G01X0031543Y-065177D01*
G01X0031993Y-065542D02*
G01X0032443Y-065542D01*
G01X0032724Y-065767D02*
G01X0032724Y-065177D01*
G01X0032724Y-065177D02*
G01X0032949Y-065177D01*
G01X0032949Y-065177D02*
G01X0033005Y-065205D01*
G01X0033005Y-065205D02*
G01X0033033Y-065233D01*
G01X0033033Y-065233D02*
G01X0033061Y-065289D01*
G01X0033061Y-065289D02*
G01X0033061Y-065373D01*
G01X0033061Y-065373D02*
G01X0033033Y-065430D01*
G01X0033033Y-065430D02*
G01X0033005Y-065458D01*
G01X0033005Y-065458D02*
G01X0032949Y-065486D01*
G01X0032949Y-065486D02*
G01X0032724Y-065486D01*
G01X0033314Y-065767D02*
G01X0033314Y-065373D01*
G01X0033314Y-065177D02*
G01X0033286Y-065205D01*
G01X0033286Y-065205D02*
G01X0033314Y-065233D01*
G01X0033314Y-065233D02*
G01X0033343Y-065205D01*
G01X0033343Y-065205D02*
G01X0033314Y-065177D01*
G01X0033314Y-065177D02*
G01X0033314Y-065233D01*
G01X0033596Y-065373D02*
G01X0033596Y-065767D01*
G01X0033596Y-065430D02*
G01X0033624Y-065402D01*
G01X0033624Y-065402D02*
G01X0033680Y-065373D01*
G01X0033680Y-065373D02*
G01X0033764Y-065373D01*
G01X0033764Y-065373D02*
G01X0033821Y-065402D01*
G01X0033821Y-065402D02*
G01X0033849Y-065458D01*
G01X0033849Y-065458D02*
G01X0033849Y-065767D01*
G01X0034917Y-065711D02*
G01X0034889Y-065739D01*
G01X0034889Y-065739D02*
G01X0034805Y-065767D01*
G01X0034805Y-065767D02*
G01X0034749Y-065767D01*
G01X0034749Y-065767D02*
G01X0034664Y-065739D01*
G01X0034664Y-065739D02*
G01X0034608Y-065683D01*
G01X0034608Y-065683D02*
G01X0034580Y-065627D01*
G01X0034580Y-065627D02*
G01X0034552Y-065514D01*
G01X0034552Y-065514D02*
G01X0034552Y-065430D01*
G01X0034552Y-065430D02*
G01X0034580Y-065317D01*
G01X0034580Y-065317D02*
G01X0034608Y-065261D01*
G01X0034608Y-065261D02*
G01X0034664Y-065205D01*
G01X0034664Y-065205D02*
G01X0034749Y-065177D01*
G01X0034749Y-065177D02*
G01X0034805Y-065177D01*
G01X0034805Y-065177D02*
G01X0034889Y-065205D01*
G01X0034889Y-065205D02*
G01X0034917Y-065233D01*
G01X0035255Y-065767D02*
G01X0035199Y-065739D01*
G01X0035199Y-065739D02*
G01X0035170Y-065711D01*
G01X0035170Y-065711D02*
G01X0035142Y-065655D01*
G01X0035142Y-065655D02*
G01X0035142Y-065486D01*
G01X0035142Y-065486D02*
G01X0035170Y-065430D01*
G01X0035170Y-065430D02*
G01X0035199Y-065402D01*
G01X0035199Y-065402D02*
G01X0035255Y-065373D01*
G01X0035255Y-065373D02*
G01X0035339Y-065373D01*
G01X0035339Y-065373D02*
G01X0035395Y-065402D01*
G01X0035395Y-065402D02*
G01X0035424Y-065430D01*
G01X0035424Y-065430D02*
G01X0035452Y-065486D01*
G01X0035452Y-065486D02*
G01X0035452Y-065655D01*
G01X0035452Y-065655D02*
G01X0035424Y-065711D01*
G01X0035424Y-065711D02*
G01X0035395Y-065739D01*
G01X0035395Y-065739D02*
G01X0035339Y-065767D01*
G01X0035339Y-065767D02*
G01X0035255Y-065767D01*
G01X0035705Y-065373D02*
G01X0035705Y-065767D01*
G01X0035705Y-065430D02*
G01X0035733Y-065402D01*
G01X0035733Y-065402D02*
G01X0035789Y-065373D01*
G01X0035789Y-065373D02*
G01X0035873Y-065373D01*
G01X0035873Y-065373D02*
G01X0035930Y-065402D01*
G01X0035930Y-065402D02*
G01X0035958Y-065458D01*
G01X0035958Y-065458D02*
G01X0035958Y-065767D01*
G01X0036239Y-065373D02*
G01X0036239Y-065767D01*
G01X0036239Y-065430D02*
G01X0036267Y-065402D01*
G01X0036267Y-065402D02*
G01X0036323Y-065373D01*
G01X0036323Y-065373D02*
G01X0036408Y-065373D01*
G01X0036408Y-065373D02*
G01X0036464Y-065402D01*
G01X0036464Y-065402D02*
G01X0036492Y-065458D01*
G01X0036492Y-065458D02*
G01X0036492Y-065767D01*
G01X0036998Y-065739D02*
G01X0036942Y-065767D01*
G01X0036942Y-065767D02*
G01X0036830Y-065767D01*
G01X0036830Y-065767D02*
G01X0036773Y-065739D01*
G01X0036773Y-065739D02*
G01X0036745Y-065683D01*
G01X0036745Y-065683D02*
G01X0036745Y-065458D01*
G01X0036745Y-065458D02*
G01X0036773Y-065402D01*
G01X0036773Y-065402D02*
G01X0036830Y-065373D01*
G01X0036830Y-065373D02*
G01X0036942Y-065373D01*
G01X0036942Y-065373D02*
G01X0036998Y-065402D01*
G01X0036998Y-065402D02*
G01X0037026Y-065458D01*
G01X0037026Y-065458D02*
G01X0037026Y-065514D01*
G01X0037026Y-065514D02*
G01X0036745Y-065570D01*
G01X0037533Y-065739D02*
G01X0037476Y-065767D01*
G01X0037476Y-065767D02*
G01X0037364Y-065767D01*
G01X0037364Y-065767D02*
G01X0037308Y-065739D01*
G01X0037308Y-065739D02*
G01X0037280Y-065711D01*
G01X0037280Y-065711D02*
G01X0037251Y-065655D01*
G01X0037251Y-065655D02*
G01X0037251Y-065486D01*
G01X0037251Y-065486D02*
G01X0037280Y-065430D01*
G01X0037280Y-065430D02*
G01X0037308Y-065402D01*
G01X0037308Y-065402D02*
G01X0037364Y-065373D01*
G01X0037364Y-065373D02*
G01X0037476Y-065373D01*
G01X0037476Y-065373D02*
G01X0037533Y-065402D01*
G01X0037701Y-065373D02*
G01X0037926Y-065373D01*
G01X0037786Y-065177D02*
G01X0037786Y-065683D01*
G01X0037786Y-065683D02*
G01X0037814Y-065739D01*
G01X0037814Y-065739D02*
G01X0037870Y-065767D01*
G01X0037870Y-065767D02*
G01X0037926Y-065767D01*
G01X0038208Y-065767D02*
G01X0038151Y-065739D01*
G01X0038151Y-065739D02*
G01X0038123Y-065711D01*
G01X0038123Y-065711D02*
G01X0038095Y-065655D01*
G01X0038095Y-065655D02*
G01X0038095Y-065486D01*
G01X0038095Y-065486D02*
G01X0038123Y-065430D01*
G01X0038123Y-065430D02*
G01X0038151Y-065402D01*
G01X0038151Y-065402D02*
G01X0038208Y-065373D01*
G01X0038208Y-065373D02*
G01X0038292Y-065373D01*
G01X0038292Y-065373D02*
G01X0038348Y-065402D01*
G01X0038348Y-065402D02*
G01X0038376Y-065430D01*
G01X0038376Y-065430D02*
G01X0038404Y-065486D01*
G01X0038404Y-065486D02*
G01X0038404Y-065655D01*
G01X0038404Y-065655D02*
G01X0038376Y-065711D01*
G01X0038376Y-065711D02*
G01X0038348Y-065739D01*
G01X0038348Y-065739D02*
G01X0038292Y-065767D01*
G01X0038292Y-065767D02*
G01X0038208Y-065767D01*
G01X0038657Y-065767D02*
G01X0038657Y-065373D01*
G01X0038657Y-065486D02*
G01X0038686Y-065430D01*
G01X0038686Y-065430D02*
G01X0038714Y-065402D01*
G01X0038714Y-065402D02*
G01X0038770Y-065373D01*
G01X0038770Y-065373D02*
G01X0038826Y-065373D01*
G01X0039670Y-065458D02*
G01X0039754Y-065486D01*
G01X0039754Y-065486D02*
G01X0039782Y-065514D01*
G01X0039782Y-065514D02*
G01X0039810Y-065570D01*
G01X0039810Y-065570D02*
G01X0039810Y-065655D01*
G01X0039810Y-065655D02*
G01X0039782Y-065711D01*
G01X0039782Y-065711D02*
G01X0039754Y-065739D01*
G01X0039754Y-065739D02*
G01X0039698Y-065767D01*
G01X0039698Y-065767D02*
G01X0039473Y-065767D01*
G01X0039473Y-065767D02*
G01X0039473Y-065177D01*
G01X0039473Y-065177D02*
G01X0039670Y-065177D01*
G01X0039670Y-065177D02*
G01X0039726Y-065205D01*
G01X0039726Y-065205D02*
G01X0039754Y-065233D01*
G01X0039754Y-065233D02*
G01X0039782Y-065289D01*
G01X0039782Y-065289D02*
G01X0039782Y-065345D01*
G01X0039782Y-065345D02*
G01X0039754Y-065402D01*
G01X0039754Y-065402D02*
G01X0039726Y-065430D01*
G01X0039726Y-065430D02*
G01X0039670Y-065458D01*
G01X0039670Y-065458D02*
G01X0039473Y-065458D01*
G01X0040064Y-065767D02*
G01X0040064Y-065373D01*
G01X0040064Y-065486D02*
G01X0040092Y-065430D01*
G01X0040092Y-065430D02*
G01X0040120Y-065402D01*
G01X0040120Y-065402D02*
G01X0040176Y-065373D01*
G01X0040176Y-065373D02*
G01X0040232Y-065373D01*
G01X0040654Y-065739D02*
G01X0040598Y-065767D01*
G01X0040598Y-065767D02*
G01X0040485Y-065767D01*
G01X0040485Y-065767D02*
G01X0040429Y-065739D01*
G01X0040429Y-065739D02*
G01X0040401Y-065683D01*
G01X0040401Y-065683D02*
G01X0040401Y-065458D01*
G01X0040401Y-065458D02*
G01X0040429Y-065402D01*
G01X0040429Y-065402D02*
G01X0040485Y-065373D01*
G01X0040485Y-065373D02*
G01X0040598Y-065373D01*
G01X0040598Y-065373D02*
G01X0040654Y-065402D01*
G01X0040654Y-065402D02*
G01X0040682Y-065458D01*
G01X0040682Y-065458D02*
G01X0040682Y-065514D01*
G01X0040682Y-065514D02*
G01X0040401Y-065570D01*
G01X0041188Y-065767D02*
G01X0041188Y-065458D01*
G01X0041188Y-065458D02*
G01X0041160Y-065402D01*
G01X0041160Y-065402D02*
G01X0041104Y-065373D01*
G01X0041104Y-065373D02*
G01X0040992Y-065373D01*
G01X0040992Y-065373D02*
G01X0040935Y-065402D01*
G01X0041188Y-065739D02*
G01X0041132Y-065767D01*
G01X0041132Y-065767D02*
G01X0040992Y-065767D01*
G01X0040992Y-065767D02*
G01X0040935Y-065739D01*
G01X0040935Y-065739D02*
G01X0040907Y-065683D01*
G01X0040907Y-065683D02*
G01X0040907Y-065627D01*
G01X0040907Y-065627D02*
G01X0040935Y-065570D01*
G01X0040935Y-065570D02*
G01X0040992Y-065542D01*
G01X0040992Y-065542D02*
G01X0041132Y-065542D01*
G01X0041132Y-065542D02*
G01X0041188Y-065514D01*
G01X0041470Y-065767D02*
G01X0041470Y-065177D01*
G01X0041526Y-065542D02*
G01X0041695Y-065767D01*
G01X0041695Y-065373D02*
G01X0041470Y-065598D01*
G01X0042032Y-065767D02*
G01X0041976Y-065739D01*
G01X0041976Y-065739D02*
G01X0041948Y-065711D01*
G01X0041948Y-065711D02*
G01X0041920Y-065655D01*
G01X0041920Y-065655D02*
G01X0041920Y-065486D01*
G01X0041920Y-065486D02*
G01X0041948Y-065430D01*
G01X0041948Y-065430D02*
G01X0041976Y-065402D01*
G01X0041976Y-065402D02*
G01X0042032Y-065373D01*
G01X0042032Y-065373D02*
G01X0042116Y-065373D01*
G01X0042116Y-065373D02*
G01X0042173Y-065402D01*
G01X0042173Y-065402D02*
G01X0042201Y-065430D01*
G01X0042201Y-065430D02*
G01X0042229Y-065486D01*
G01X0042229Y-065486D02*
G01X0042229Y-065655D01*
G01X0042229Y-065655D02*
G01X0042201Y-065711D01*
G01X0042201Y-065711D02*
G01X0042173Y-065739D01*
G01X0042173Y-065739D02*
G01X0042116Y-065767D01*
G01X0042116Y-065767D02*
G01X0042032Y-065767D01*
G01X0042735Y-065373D02*
G01X0042735Y-065767D01*
G01X0042482Y-065373D02*
G01X0042482Y-065683D01*
G01X0042482Y-065683D02*
G01X0042510Y-065739D01*
G01X0042510Y-065739D02*
G01X0042566Y-065767D01*
G01X0042566Y-065767D02*
G01X0042651Y-065767D01*
G01X0042651Y-065767D02*
G01X0042707Y-065739D01*
G01X0042707Y-065739D02*
G01X0042735Y-065711D01*
G01X0042932Y-065373D02*
G01X0043157Y-065373D01*
G01X0043016Y-065177D02*
G01X0043016Y-065683D01*
G01X0043016Y-065683D02*
G01X0043044Y-065739D01*
G01X0043044Y-065739D02*
G01X0043101Y-065767D01*
G01X0043101Y-065767D02*
G01X0043157Y-065767D01*
G01X0044001Y-065458D02*
G01X0044085Y-065486D01*
G01X0044085Y-065486D02*
G01X0044113Y-065514D01*
G01X0044113Y-065514D02*
G01X0044141Y-065570D01*
G01X0044141Y-065570D02*
G01X0044141Y-065655D01*
G01X0044141Y-065655D02*
G01X0044113Y-065711D01*
G01X0044113Y-065711D02*
G01X0044085Y-065739D01*
G01X0044085Y-065739D02*
G01X0044029Y-065767D01*
G01X0044029Y-065767D02*
G01X0043804Y-065767D01*
G01X0043804Y-065767D02*
G01X0043804Y-065177D01*
G01X0043804Y-065177D02*
G01X0044001Y-065177D01*
G01X0044001Y-065177D02*
G01X0044057Y-065205D01*
G01X0044057Y-065205D02*
G01X0044085Y-065233D01*
G01X0044085Y-065233D02*
G01X0044113Y-065289D01*
G01X0044113Y-065289D02*
G01X0044113Y-065345D01*
G01X0044113Y-065345D02*
G01X0044085Y-065402D01*
G01X0044085Y-065402D02*
G01X0044057Y-065430D01*
G01X0044057Y-065430D02*
G01X0044001Y-065458D01*
G01X0044001Y-065458D02*
G01X0043804Y-065458D01*
G01X0044479Y-065767D02*
G01X0044422Y-065739D01*
G01X0044422Y-065739D02*
G01X0044394Y-065711D01*
G01X0044394Y-065711D02*
G01X0044366Y-065655D01*
G01X0044366Y-065655D02*
G01X0044366Y-065486D01*
G01X0044366Y-065486D02*
G01X0044394Y-065430D01*
G01X0044394Y-065430D02*
G01X0044422Y-065402D01*
G01X0044422Y-065402D02*
G01X0044479Y-065373D01*
G01X0044479Y-065373D02*
G01X0044563Y-065373D01*
G01X0044563Y-065373D02*
G01X0044619Y-065402D01*
G01X0044619Y-065402D02*
G01X0044647Y-065430D01*
G01X0044647Y-065430D02*
G01X0044675Y-065486D01*
G01X0044675Y-065486D02*
G01X0044675Y-065655D01*
G01X0044675Y-065655D02*
G01X0044647Y-065711D01*
G01X0044647Y-065711D02*
G01X0044619Y-065739D01*
G01X0044619Y-065739D02*
G01X0044563Y-065767D01*
G01X0044563Y-065767D02*
G01X0044479Y-065767D01*
G01X0045182Y-065767D02*
G01X0045182Y-065458D01*
G01X0045182Y-065458D02*
G01X0045154Y-065402D01*
G01X0045154Y-065402D02*
G01X0045097Y-065373D01*
G01X0045097Y-065373D02*
G01X0044985Y-065373D01*
G01X0044985Y-065373D02*
G01X0044929Y-065402D01*
G01X0045182Y-065739D02*
G01X0045125Y-065767D01*
G01X0045125Y-065767D02*
G01X0044985Y-065767D01*
G01X0044985Y-065767D02*
G01X0044929Y-065739D01*
G01X0044929Y-065739D02*
G01X0044900Y-065683D01*
G01X0044900Y-065683D02*
G01X0044900Y-065627D01*
G01X0044900Y-065627D02*
G01X0044929Y-065570D01*
G01X0044929Y-065570D02*
G01X0044985Y-065542D01*
G01X0044985Y-065542D02*
G01X0045125Y-065542D01*
G01X0045125Y-065542D02*
G01X0045182Y-065514D01*
G01X0045463Y-065767D02*
G01X0045463Y-065373D01*
G01X0045463Y-065486D02*
G01X0045491Y-065430D01*
G01X0045491Y-065430D02*
G01X0045519Y-065402D01*
G01X0045519Y-065402D02*
G01X0045575Y-065373D01*
G01X0045575Y-065373D02*
G01X0045632Y-065373D01*
G01X0046082Y-065767D02*
G01X0046082Y-065177D01*
G01X0046082Y-065739D02*
G01X0046025Y-065767D01*
G01X0046025Y-065767D02*
G01X0045913Y-065767D01*
G01X0045913Y-065767D02*
G01X0045857Y-065739D01*
G01X0045857Y-065739D02*
G01X0045828Y-065711D01*
G01X0045828Y-065711D02*
G01X0045800Y-065655D01*
G01X0045800Y-065655D02*
G01X0045800Y-065486D01*
G01X0045800Y-065486D02*
G01X0045828Y-065430D01*
G01X0045828Y-065430D02*
G01X0045857Y-065402D01*
G01X0045857Y-065402D02*
G01X0045913Y-065373D01*
G01X0045913Y-065373D02*
G01X0046025Y-065373D01*
G01X0046025Y-065373D02*
G01X0046082Y-065402D01*
G54D10*
G01X0047069Y-063328D02*
G01X0047050Y-063309D01*
G01X0047050Y-063309D02*
G01X0047013Y-063253D01*
G01X0047013Y-063253D02*
G01X0046994Y-063216D01*
G01X0046994Y-063216D02*
G01X0046975Y-063159D01*
G01X0046975Y-063159D02*
G01X0046956Y-063066D01*
G01X0046956Y-063066D02*
G01X0046956Y-062991D01*
G01X0046956Y-062991D02*
G01X0046975Y-062897D01*
G01X0046975Y-062897D02*
G01X0046994Y-062841D01*
G01X0046994Y-062841D02*
G01X0047013Y-062803D01*
G01X0047013Y-062803D02*
G01X0047050Y-062747D01*
G01X0047050Y-062747D02*
G01X0047069Y-062728D01*
G01X0047425Y-063178D02*
G01X0047200Y-063178D01*
G01X0047313Y-063178D02*
G01X0047313Y-062784D01*
G01X0047313Y-062784D02*
G01X0047275Y-062841D01*
G01X0047275Y-062841D02*
G01X0047238Y-062878D01*
G01X0047238Y-062878D02*
G01X0047200Y-062897D01*
G01X0047556Y-062784D02*
G01X0047800Y-062784D01*
G01X0047800Y-062784D02*
G01X0047669Y-062934D01*
G01X0047669Y-062934D02*
G01X0047725Y-062934D01*
G01X0047725Y-062934D02*
G01X0047762Y-062953D01*
G01X0047762Y-062953D02*
G01X0047781Y-062972D01*
G01X0047781Y-062972D02*
G01X0047800Y-063009D01*
G01X0047800Y-063009D02*
G01X0047800Y-063103D01*
G01X0047800Y-063103D02*
G01X0047781Y-063141D01*
G01X0047781Y-063141D02*
G01X0047762Y-063159D01*
G01X0047762Y-063159D02*
G01X0047725Y-063178D01*
G01X0047725Y-063178D02*
G01X0047612Y-063178D01*
G01X0047612Y-063178D02*
G01X0047575Y-063159D01*
G01X0047575Y-063159D02*
G01X0047556Y-063141D01*
G01X0047931Y-063328D02*
G01X0047950Y-063309D01*
G01X0047950Y-063309D02*
G01X0047987Y-063253D01*
G01X0047987Y-063253D02*
G01X0048006Y-063216D01*
G01X0048006Y-063216D02*
G01X0048025Y-063159D01*
G01X0048025Y-063159D02*
G01X0048044Y-063066D01*
G01X0048044Y-063066D02*
G01X0048044Y-062991D01*
G01X0048044Y-062991D02*
G01X0048025Y-062897D01*
G01X0048025Y-062897D02*
G01X0048006Y-062841D01*
G01X0048006Y-062841D02*
G01X0047987Y-062803D01*
G01X0047987Y-062803D02*
G01X0047950Y-062747D01*
G01X0047950Y-062747D02*
G01X0047931Y-062728D01*
G01X0047069Y-062328D02*
G01X0047050Y-062309D01*
G01X0047050Y-062309D02*
G01X0047013Y-062253D01*
G01X0047013Y-062253D02*
G01X0046994Y-062216D01*
G01X0046994Y-062216D02*
G01X0046975Y-062159D01*
G01X0046975Y-062159D02*
G01X0046956Y-062066D01*
G01X0046956Y-062066D02*
G01X0046956Y-061991D01*
G01X0046956Y-061991D02*
G01X0046975Y-061897D01*
G01X0046975Y-061897D02*
G01X0046994Y-061841D01*
G01X0046994Y-061841D02*
G01X0047013Y-061803D01*
G01X0047013Y-061803D02*
G01X0047050Y-061747D01*
G01X0047050Y-061747D02*
G01X0047069Y-061728D01*
G01X0047425Y-062178D02*
G01X0047200Y-062178D01*
G01X0047313Y-062178D02*
G01X0047313Y-061784D01*
G01X0047313Y-061784D02*
G01X0047275Y-061841D01*
G01X0047275Y-061841D02*
G01X0047238Y-061878D01*
G01X0047238Y-061878D02*
G01X0047200Y-061897D01*
G01X0047762Y-061916D02*
G01X0047762Y-062178D01*
G01X0047669Y-061766D02*
G01X0047575Y-062047D01*
G01X0047575Y-062047D02*
G01X0047819Y-062047D01*
G01X0047931Y-062328D02*
G01X0047950Y-062309D01*
G01X0047950Y-062309D02*
G01X0047987Y-062253D01*
G01X0047987Y-062253D02*
G01X0048006Y-062216D01*
G01X0048006Y-062216D02*
G01X0048025Y-062159D01*
G01X0048025Y-062159D02*
G01X0048044Y-062066D01*
G01X0048044Y-062066D02*
G01X0048044Y-061991D01*
G01X0048044Y-061991D02*
G01X0048025Y-061897D01*
G01X0048025Y-061897D02*
G01X0048006Y-061841D01*
G01X0048006Y-061841D02*
G01X0047987Y-061803D01*
G01X0047987Y-061803D02*
G01X0047950Y-061747D01*
G01X0047950Y-061747D02*
G01X0047931Y-061728D01*
G01X0047069Y-061328D02*
G01X0047050Y-061309D01*
G01X0047050Y-061309D02*
G01X0047013Y-061253D01*
G01X0047013Y-061253D02*
G01X0046994Y-061216D01*
G01X0046994Y-061216D02*
G01X0046975Y-061159D01*
G01X0046975Y-061159D02*
G01X0046956Y-061066D01*
G01X0046956Y-061066D02*
G01X0046956Y-060991D01*
G01X0046956Y-060991D02*
G01X0046975Y-060897D01*
G01X0046975Y-060897D02*
G01X0046994Y-060841D01*
G01X0046994Y-060841D02*
G01X0047013Y-060803D01*
G01X0047013Y-060803D02*
G01X0047050Y-060747D01*
G01X0047050Y-060747D02*
G01X0047069Y-060728D01*
G01X0047388Y-060916D02*
G01X0047388Y-061178D01*
G01X0047294Y-060766D02*
G01X0047200Y-061047D01*
G01X0047200Y-061047D02*
G01X0047444Y-061047D01*
G01X0047669Y-060784D02*
G01X0047706Y-060784D01*
G01X0047706Y-060784D02*
G01X0047744Y-060803D01*
G01X0047744Y-060803D02*
G01X0047762Y-060822D01*
G01X0047762Y-060822D02*
G01X0047781Y-060859D01*
G01X0047781Y-060859D02*
G01X0047800Y-060934D01*
G01X0047800Y-060934D02*
G01X0047800Y-061028D01*
G01X0047800Y-061028D02*
G01X0047781Y-061103D01*
G01X0047781Y-061103D02*
G01X0047762Y-061141D01*
G01X0047762Y-061141D02*
G01X0047744Y-061159D01*
G01X0047744Y-061159D02*
G01X0047706Y-061178D01*
G01X0047706Y-061178D02*
G01X0047669Y-061178D01*
G01X0047669Y-061178D02*
G01X0047631Y-061159D01*
G01X0047631Y-061159D02*
G01X0047612Y-061141D01*
G01X0047612Y-061141D02*
G01X0047594Y-061103D01*
G01X0047594Y-061103D02*
G01X0047575Y-061028D01*
G01X0047575Y-061028D02*
G01X0047575Y-060934D01*
G01X0047575Y-060934D02*
G01X0047594Y-060859D01*
G01X0047594Y-060859D02*
G01X0047612Y-060822D01*
G01X0047612Y-060822D02*
G01X0047631Y-060803D01*
G01X0047631Y-060803D02*
G01X0047669Y-060784D01*
G01X0047931Y-061328D02*
G01X0047950Y-061309D01*
G01X0047950Y-061309D02*
G01X0047987Y-061253D01*
G01X0047987Y-061253D02*
G01X0048006Y-061216D01*
G01X0048006Y-061216D02*
G01X0048025Y-061159D01*
G01X0048025Y-061159D02*
G01X0048044Y-061066D01*
G01X0048044Y-061066D02*
G01X0048044Y-060991D01*
G01X0048044Y-060991D02*
G01X0048025Y-060897D01*
G01X0048025Y-060897D02*
G01X0048006Y-060841D01*
G01X0048006Y-060841D02*
G01X0047987Y-060803D01*
G01X0047987Y-060803D02*
G01X0047950Y-060747D01*
G01X0047950Y-060747D02*
G01X0047931Y-060728D01*
G01X0045198Y-057640D02*
G01X0045522Y-057640D01*
G01X0045447Y-058141D02*
G01X0045428Y-058159D01*
G01X0045428Y-058159D02*
G01X0045372Y-058178D01*
G01X0045372Y-058178D02*
G01X0045334Y-058178D01*
G01X0045334Y-058178D02*
G01X0045278Y-058159D01*
G01X0045278Y-058159D02*
G01X0045241Y-058122D01*
G01X0045241Y-058122D02*
G01X0045222Y-058084D01*
G01X0045222Y-058084D02*
G01X0045203Y-058009D01*
G01X0045203Y-058009D02*
G01X0045203Y-057953D01*
G01X0045203Y-057953D02*
G01X0045222Y-057878D01*
G01X0045222Y-057878D02*
G01X0045241Y-057841D01*
G01X0045241Y-057841D02*
G01X0045278Y-057803D01*
G01X0045278Y-057803D02*
G01X0045334Y-057784D01*
G01X0045334Y-057784D02*
G01X0045372Y-057784D01*
G01X0045372Y-057784D02*
G01X0045428Y-057803D01*
G01X0045428Y-057803D02*
G01X0045447Y-057822D01*
G01X0045522Y-057640D02*
G01X0045972Y-057640D01*
G01X0045616Y-058178D02*
G01X0045616Y-057784D01*
G01X0045616Y-057784D02*
G01X0045747Y-058066D01*
G01X0045747Y-058066D02*
G01X0045878Y-057784D01*
G01X0045878Y-057784D02*
G01X0045878Y-058178D01*
G01X0045972Y-057640D02*
G01X0046272Y-057640D01*
G01X0046009Y-057784D02*
G01X0046234Y-057784D01*
G01X0046122Y-058178D02*
G01X0046122Y-057784D01*
G01X0046272Y-057640D02*
G01X0046459Y-057640D01*
G01X0046366Y-058178D02*
G01X0046366Y-057784D01*
G01X0046459Y-057640D02*
G01X0046872Y-057640D01*
G01X0046553Y-058178D02*
G01X0046553Y-057784D01*
G01X0046553Y-057784D02*
G01X0046778Y-058178D01*
G01X0046778Y-058178D02*
G01X0046778Y-057784D01*
G01X0045184Y-055141D02*
G01X0045166Y-055159D01*
G01X0045166Y-055159D02*
G01X0045109Y-055178D01*
G01X0045109Y-055178D02*
G01X0045072Y-055178D01*
G01X0045072Y-055178D02*
G01X0045016Y-055159D01*
G01X0045016Y-055159D02*
G01X0044978Y-055122D01*
G01X0044978Y-055122D02*
G01X0044960Y-055084D01*
G01X0044960Y-055084D02*
G01X0044941Y-055009D01*
G01X0044941Y-055009D02*
G01X0044941Y-054953D01*
G01X0044941Y-054953D02*
G01X0044960Y-054878D01*
G01X0044960Y-054878D02*
G01X0044978Y-054841D01*
G01X0044978Y-054841D02*
G01X0045016Y-054803D01*
G01X0045016Y-054803D02*
G01X0045072Y-054784D01*
G01X0045072Y-054784D02*
G01X0045109Y-054784D01*
G01X0045109Y-054784D02*
G01X0045166Y-054803D01*
G01X0045166Y-054803D02*
G01X0045184Y-054822D01*
G01X0045353Y-055178D02*
G01X0045353Y-054784D01*
G01X0045353Y-054784D02*
G01X0045484Y-055066D01*
G01X0045484Y-055066D02*
G01X0045616Y-054784D01*
G01X0045616Y-054784D02*
G01X0045616Y-055178D01*
G01X0045747Y-054784D02*
G01X0045972Y-054784D01*
G01X0045859Y-055178D02*
G01X0045859Y-054784D01*
G01X0046178Y-054784D02*
G01X0046253Y-054784D01*
G01X0046253Y-054784D02*
G01X0046291Y-054803D01*
G01X0046291Y-054803D02*
G01X0046328Y-054841D01*
G01X0046328Y-054841D02*
G01X0046347Y-054916D01*
G01X0046347Y-054916D02*
G01X0046347Y-055047D01*
G01X0046347Y-055047D02*
G01X0046328Y-055122D01*
G01X0046328Y-055122D02*
G01X0046291Y-055159D01*
G01X0046291Y-055159D02*
G01X0046253Y-055178D01*
G01X0046253Y-055178D02*
G01X0046178Y-055178D01*
G01X0046178Y-055178D02*
G01X0046141Y-055159D01*
G01X0046141Y-055159D02*
G01X0046103Y-055122D01*
G01X0046103Y-055122D02*
G01X0046084Y-055047D01*
G01X0046084Y-055047D02*
G01X0046084Y-054916D01*
G01X0046084Y-054916D02*
G01X0046103Y-054841D01*
G01X0046103Y-054841D02*
G01X0046141Y-054803D01*
G01X0046141Y-054803D02*
G01X0046178Y-054784D01*
G01X0046516Y-054784D02*
G01X0046516Y-055103D01*
G01X0046516Y-055103D02*
G01X0046534Y-055141D01*
G01X0046534Y-055141D02*
G01X0046553Y-055159D01*
G01X0046553Y-055159D02*
G01X0046591Y-055178D01*
G01X0046591Y-055178D02*
G01X0046666Y-055178D01*
G01X0046666Y-055178D02*
G01X0046703Y-055159D01*
G01X0046703Y-055159D02*
G01X0046722Y-055141D01*
G01X0046722Y-055141D02*
G01X0046741Y-055103D01*
G01X0046741Y-055103D02*
G01X0046741Y-054784D01*
G01X0046872Y-054784D02*
G01X0047097Y-054784D01*
G01X0046984Y-055178D02*
G01X0046984Y-054784D01*
G01X0047069Y-060328D02*
G01X0047050Y-060309D01*
G01X0047050Y-060309D02*
G01X0047013Y-060253D01*
G01X0047013Y-060253D02*
G01X0046994Y-060216D01*
G01X0046994Y-060216D02*
G01X0046975Y-060159D01*
G01X0046975Y-060159D02*
G01X0046956Y-060066D01*
G01X0046956Y-060066D02*
G01X0046956Y-059991D01*
G01X0046956Y-059991D02*
G01X0046975Y-059897D01*
G01X0046975Y-059897D02*
G01X0046994Y-059841D01*
G01X0046994Y-059841D02*
G01X0047013Y-059803D01*
G01X0047013Y-059803D02*
G01X0047050Y-059747D01*
G01X0047050Y-059747D02*
G01X0047069Y-059728D01*
G01X0047388Y-059916D02*
G01X0047388Y-060178D01*
G01X0047294Y-059766D02*
G01X0047200Y-060047D01*
G01X0047200Y-060047D02*
G01X0047444Y-060047D01*
G01X0047612Y-060178D02*
G01X0047687Y-060178D01*
G01X0047687Y-060178D02*
G01X0047725Y-060159D01*
G01X0047725Y-060159D02*
G01X0047744Y-060141D01*
G01X0047744Y-060141D02*
G01X0047781Y-060084D01*
G01X0047781Y-060084D02*
G01X0047800Y-060009D01*
G01X0047800Y-060009D02*
G01X0047800Y-059859D01*
G01X0047800Y-059859D02*
G01X0047781Y-059822D01*
G01X0047781Y-059822D02*
G01X0047762Y-059803D01*
G01X0047762Y-059803D02*
G01X0047725Y-059784D01*
G01X0047725Y-059784D02*
G01X0047650Y-059784D01*
G01X0047650Y-059784D02*
G01X0047612Y-059803D01*
G01X0047612Y-059803D02*
G01X0047594Y-059822D01*
G01X0047594Y-059822D02*
G01X0047575Y-059859D01*
G01X0047575Y-059859D02*
G01X0047575Y-059953D01*
G01X0047575Y-059953D02*
G01X0047594Y-059991D01*
G01X0047594Y-059991D02*
G01X0047612Y-060009D01*
G01X0047612Y-060009D02*
G01X0047650Y-060028D01*
G01X0047650Y-060028D02*
G01X0047725Y-060028D01*
G01X0047725Y-060028D02*
G01X0047762Y-060009D01*
G01X0047762Y-060009D02*
G01X0047781Y-059991D01*
G01X0047781Y-059991D02*
G01X0047800Y-059953D01*
G01X0047931Y-060328D02*
G01X0047950Y-060309D01*
G01X0047950Y-060309D02*
G01X0047987Y-060253D01*
G01X0047987Y-060253D02*
G01X0048006Y-060216D01*
G01X0048006Y-060216D02*
G01X0048025Y-060159D01*
G01X0048025Y-060159D02*
G01X0048044Y-060066D01*
G01X0048044Y-060066D02*
G01X0048044Y-059991D01*
G01X0048044Y-059991D02*
G01X0048025Y-059897D01*
G01X0048025Y-059897D02*
G01X0048006Y-059841D01*
G01X0048006Y-059841D02*
G01X0047987Y-059803D01*
G01X0047987Y-059803D02*
G01X0047950Y-059747D01*
G01X0047950Y-059747D02*
G01X0047931Y-059728D01*
G01X0042022Y-063066D02*
G01X0042209Y-063066D01*
G01X0041984Y-063178D02*
G01X0042116Y-062784D01*
G01X0042116Y-062784D02*
G01X0042247Y-063178D01*
G01X0042378Y-063178D02*
G01X0042378Y-062784D01*
G01X0042378Y-062784D02*
G01X0042472Y-062784D01*
G01X0042472Y-062784D02*
G01X0042528Y-062803D01*
G01X0042528Y-062803D02*
G01X0042566Y-062841D01*
G01X0042566Y-062841D02*
G01X0042584Y-062878D01*
G01X0042584Y-062878D02*
G01X0042603Y-062953D01*
G01X0042603Y-062953D02*
G01X0042603Y-063009D01*
G01X0042603Y-063009D02*
G01X0042584Y-063084D01*
G01X0042584Y-063084D02*
G01X0042566Y-063122D01*
G01X0042566Y-063122D02*
G01X0042528Y-063159D01*
G01X0042528Y-063159D02*
G01X0042472Y-063178D01*
G01X0042472Y-063178D02*
G01X0042378Y-063178D01*
G01X0042847Y-062784D02*
G01X0042884Y-062784D01*
G01X0042884Y-062784D02*
G01X0042922Y-062803D01*
G01X0042922Y-062803D02*
G01X0042941Y-062822D01*
G01X0042941Y-062822D02*
G01X0042959Y-062859D01*
G01X0042959Y-062859D02*
G01X0042978Y-062934D01*
G01X0042978Y-062934D02*
G01X0042978Y-063028D01*
G01X0042978Y-063028D02*
G01X0042959Y-063103D01*
G01X0042959Y-063103D02*
G01X0042941Y-063141D01*
G01X0042941Y-063141D02*
G01X0042922Y-063159D01*
G01X0042922Y-063159D02*
G01X0042884Y-063178D01*
G01X0042884Y-063178D02*
G01X0042847Y-063178D01*
G01X0042847Y-063178D02*
G01X0042809Y-063159D01*
G01X0042809Y-063159D02*
G01X0042791Y-063141D01*
G01X0042791Y-063141D02*
G01X0042772Y-063103D01*
G01X0042772Y-063103D02*
G01X0042753Y-063028D01*
G01X0042753Y-063028D02*
G01X0042753Y-062934D01*
G01X0042753Y-062934D02*
G01X0042772Y-062859D01*
G01X0042772Y-062859D02*
G01X0042791Y-062822D01*
G01X0042791Y-062822D02*
G01X0042809Y-062803D01*
G01X0042809Y-062803D02*
G01X0042847Y-062784D01*
G01X0042022Y-062066D02*
G01X0042209Y-062066D01*
G01X0041984Y-062178D02*
G01X0042116Y-061784D01*
G01X0042116Y-061784D02*
G01X0042247Y-062178D01*
G01X0042378Y-062178D02*
G01X0042378Y-061784D01*
G01X0042378Y-061784D02*
G01X0042472Y-061784D01*
G01X0042472Y-061784D02*
G01X0042528Y-061803D01*
G01X0042528Y-061803D02*
G01X0042566Y-061841D01*
G01X0042566Y-061841D02*
G01X0042584Y-061878D01*
G01X0042584Y-061878D02*
G01X0042603Y-061953D01*
G01X0042603Y-061953D02*
G01X0042603Y-062009D01*
G01X0042603Y-062009D02*
G01X0042584Y-062084D01*
G01X0042584Y-062084D02*
G01X0042566Y-062122D01*
G01X0042566Y-062122D02*
G01X0042528Y-062159D01*
G01X0042528Y-062159D02*
G01X0042472Y-062178D01*
G01X0042472Y-062178D02*
G01X0042378Y-062178D01*
G01X0042753Y-061822D02*
G01X0042772Y-061803D01*
G01X0042772Y-061803D02*
G01X0042809Y-061784D01*
G01X0042809Y-061784D02*
G01X0042903Y-061784D01*
G01X0042903Y-061784D02*
G01X0042941Y-061803D01*
G01X0042941Y-061803D02*
G01X0042959Y-061822D01*
G01X0042959Y-061822D02*
G01X0042978Y-061859D01*
G01X0042978Y-061859D02*
G01X0042978Y-061897D01*
G01X0042978Y-061897D02*
G01X0042959Y-061953D01*
G01X0042959Y-061953D02*
G01X0042734Y-062178D01*
G01X0042734Y-062178D02*
G01X0042978Y-062178D01*
G01X0042022Y-061066D02*
G01X0042209Y-061066D01*
G01X0041984Y-061178D02*
G01X0042116Y-060784D01*
G01X0042116Y-060784D02*
G01X0042247Y-061178D01*
G01X0042378Y-061178D02*
G01X0042378Y-060784D01*
G01X0042378Y-060784D02*
G01X0042472Y-060784D01*
G01X0042472Y-060784D02*
G01X0042528Y-060803D01*
G01X0042528Y-060803D02*
G01X0042566Y-060841D01*
G01X0042566Y-060841D02*
G01X0042584Y-060878D01*
G01X0042584Y-060878D02*
G01X0042603Y-060953D01*
G01X0042603Y-060953D02*
G01X0042603Y-061009D01*
G01X0042603Y-061009D02*
G01X0042584Y-061084D01*
G01X0042584Y-061084D02*
G01X0042566Y-061122D01*
G01X0042566Y-061122D02*
G01X0042528Y-061159D01*
G01X0042528Y-061159D02*
G01X0042472Y-061178D01*
G01X0042472Y-061178D02*
G01X0042378Y-061178D01*
G01X0042941Y-060916D02*
G01X0042941Y-061178D01*
G01X0042847Y-060766D02*
G01X0042753Y-061047D01*
G01X0042753Y-061047D02*
G01X0042997Y-061047D01*
G01X0042022Y-060066D02*
G01X0042209Y-060066D01*
G01X0041984Y-060178D02*
G01X0042116Y-059784D01*
G01X0042116Y-059784D02*
G01X0042247Y-060178D01*
G01X0042378Y-060178D02*
G01X0042378Y-059784D01*
G01X0042378Y-059784D02*
G01X0042472Y-059784D01*
G01X0042472Y-059784D02*
G01X0042528Y-059803D01*
G01X0042528Y-059803D02*
G01X0042566Y-059841D01*
G01X0042566Y-059841D02*
G01X0042584Y-059878D01*
G01X0042584Y-059878D02*
G01X0042603Y-059953D01*
G01X0042603Y-059953D02*
G01X0042603Y-060009D01*
G01X0042603Y-060009D02*
G01X0042584Y-060084D01*
G01X0042584Y-060084D02*
G01X0042566Y-060122D01*
G01X0042566Y-060122D02*
G01X0042528Y-060159D01*
G01X0042528Y-060159D02*
G01X0042472Y-060178D01*
G01X0042472Y-060178D02*
G01X0042378Y-060178D01*
G01X0042941Y-059784D02*
G01X0042866Y-059784D01*
G01X0042866Y-059784D02*
G01X0042828Y-059803D01*
G01X0042828Y-059803D02*
G01X0042809Y-059822D01*
G01X0042809Y-059822D02*
G01X0042772Y-059878D01*
G01X0042772Y-059878D02*
G01X0042753Y-059953D01*
G01X0042753Y-059953D02*
G01X0042753Y-060103D01*
G01X0042753Y-060103D02*
G01X0042772Y-060141D01*
G01X0042772Y-060141D02*
G01X0042791Y-060159D01*
G01X0042791Y-060159D02*
G01X0042828Y-060178D01*
G01X0042828Y-060178D02*
G01X0042903Y-060178D01*
G01X0042903Y-060178D02*
G01X0042941Y-060159D01*
G01X0042941Y-060159D02*
G01X0042959Y-060141D01*
G01X0042959Y-060141D02*
G01X0042978Y-060103D01*
G01X0042978Y-060103D02*
G01X0042978Y-060009D01*
G01X0042978Y-060009D02*
G01X0042959Y-059972D01*
G01X0042959Y-059972D02*
G01X0042941Y-059953D01*
G01X0042941Y-059953D02*
G01X0042903Y-059934D01*
G01X0042903Y-059934D02*
G01X0042828Y-059934D01*
G01X0042828Y-059934D02*
G01X0042791Y-059953D01*
G01X0042791Y-059953D02*
G01X0042772Y-059972D01*
G01X0042772Y-059972D02*
G01X0042753Y-060009D01*
G01X0042022Y-059066D02*
G01X0042209Y-059066D01*
G01X0041984Y-059178D02*
G01X0042116Y-058784D01*
G01X0042116Y-058784D02*
G01X0042247Y-059178D01*
G01X0042378Y-059178D02*
G01X0042378Y-058784D01*
G01X0042378Y-058784D02*
G01X0042472Y-058784D01*
G01X0042472Y-058784D02*
G01X0042528Y-058803D01*
G01X0042528Y-058803D02*
G01X0042566Y-058841D01*
G01X0042566Y-058841D02*
G01X0042584Y-058878D01*
G01X0042584Y-058878D02*
G01X0042603Y-058953D01*
G01X0042603Y-058953D02*
G01X0042603Y-059009D01*
G01X0042603Y-059009D02*
G01X0042584Y-059084D01*
G01X0042584Y-059084D02*
G01X0042566Y-059122D01*
G01X0042566Y-059122D02*
G01X0042528Y-059159D01*
G01X0042528Y-059159D02*
G01X0042472Y-059178D01*
G01X0042472Y-059178D02*
G01X0042378Y-059178D01*
G01X0042828Y-058953D02*
G01X0042791Y-058934D01*
G01X0042791Y-058934D02*
G01X0042772Y-058916D01*
G01X0042772Y-058916D02*
G01X0042753Y-058878D01*
G01X0042753Y-058878D02*
G01X0042753Y-058859D01*
G01X0042753Y-058859D02*
G01X0042772Y-058822D01*
G01X0042772Y-058822D02*
G01X0042791Y-058803D01*
G01X0042791Y-058803D02*
G01X0042828Y-058784D01*
G01X0042828Y-058784D02*
G01X0042903Y-058784D01*
G01X0042903Y-058784D02*
G01X0042941Y-058803D01*
G01X0042941Y-058803D02*
G01X0042959Y-058822D01*
G01X0042959Y-058822D02*
G01X0042978Y-058859D01*
G01X0042978Y-058859D02*
G01X0042978Y-058878D01*
G01X0042978Y-058878D02*
G01X0042959Y-058916D01*
G01X0042959Y-058916D02*
G01X0042941Y-058934D01*
G01X0042941Y-058934D02*
G01X0042903Y-058953D01*
G01X0042903Y-058953D02*
G01X0042828Y-058953D01*
G01X0042828Y-058953D02*
G01X0042791Y-058972D01*
G01X0042791Y-058972D02*
G01X0042772Y-058991D01*
G01X0042772Y-058991D02*
G01X0042753Y-059028D01*
G01X0042753Y-059028D02*
G01X0042753Y-059103D01*
G01X0042753Y-059103D02*
G01X0042772Y-059141D01*
G01X0042772Y-059141D02*
G01X0042791Y-059159D01*
G01X0042791Y-059159D02*
G01X0042828Y-059178D01*
G01X0042828Y-059178D02*
G01X0042903Y-059178D01*
G01X0042903Y-059178D02*
G01X0042941Y-059159D01*
G01X0042941Y-059159D02*
G01X0042959Y-059141D01*
G01X0042959Y-059141D02*
G01X0042978Y-059103D01*
G01X0042978Y-059103D02*
G01X0042978Y-059028D01*
G01X0042978Y-059028D02*
G01X0042959Y-058991D01*
G01X0042959Y-058991D02*
G01X0042941Y-058972D01*
G01X0042941Y-058972D02*
G01X0042903Y-058953D01*
G01X0041834Y-058066D02*
G01X0042022Y-058066D01*
G01X0041797Y-058178D02*
G01X0041928Y-057784D01*
G01X0041928Y-057784D02*
G01X0042059Y-058178D01*
G01X0042191Y-058178D02*
G01X0042191Y-057784D01*
G01X0042191Y-057784D02*
G01X0042284Y-057784D01*
G01X0042284Y-057784D02*
G01X0042341Y-057803D01*
G01X0042341Y-057803D02*
G01X0042378Y-057841D01*
G01X0042378Y-057841D02*
G01X0042397Y-057878D01*
G01X0042397Y-057878D02*
G01X0042416Y-057953D01*
G01X0042416Y-057953D02*
G01X0042416Y-058009D01*
G01X0042416Y-058009D02*
G01X0042397Y-058084D01*
G01X0042397Y-058084D02*
G01X0042378Y-058122D01*
G01X0042378Y-058122D02*
G01X0042341Y-058159D01*
G01X0042341Y-058159D02*
G01X0042284Y-058178D01*
G01X0042284Y-058178D02*
G01X0042191Y-058178D01*
G01X0042791Y-058178D02*
G01X0042566Y-058178D01*
G01X0042678Y-058178D02*
G01X0042678Y-057784D01*
G01X0042678Y-057784D02*
G01X0042641Y-057841D01*
G01X0042641Y-057841D02*
G01X0042603Y-057878D01*
G01X0042603Y-057878D02*
G01X0042566Y-057897D01*
G01X0043034Y-057784D02*
G01X0043072Y-057784D01*
G01X0043072Y-057784D02*
G01X0043109Y-057803D01*
G01X0043109Y-057803D02*
G01X0043128Y-057822D01*
G01X0043128Y-057822D02*
G01X0043147Y-057859D01*
G01X0043147Y-057859D02*
G01X0043166Y-057934D01*
G01X0043166Y-057934D02*
G01X0043166Y-058028D01*
G01X0043166Y-058028D02*
G01X0043147Y-058103D01*
G01X0043147Y-058103D02*
G01X0043128Y-058141D01*
G01X0043128Y-058141D02*
G01X0043109Y-058159D01*
G01X0043109Y-058159D02*
G01X0043072Y-058178D01*
G01X0043072Y-058178D02*
G01X0043034Y-058178D01*
G01X0043034Y-058178D02*
G01X0042997Y-058159D01*
G01X0042997Y-058159D02*
G01X0042978Y-058141D01*
G01X0042978Y-058141D02*
G01X0042959Y-058103D01*
G01X0042959Y-058103D02*
G01X0042941Y-058028D01*
G01X0042941Y-058028D02*
G01X0042941Y-057934D01*
G01X0042941Y-057934D02*
G01X0042959Y-057859D01*
G01X0042959Y-057859D02*
G01X0042978Y-057822D01*
G01X0042978Y-057822D02*
G01X0042997Y-057803D01*
G01X0042997Y-057803D02*
G01X0043034Y-057784D01*
G01X0041834Y-057066D02*
G01X0042022Y-057066D01*
G01X0041797Y-057178D02*
G01X0041928Y-056784D01*
G01X0041928Y-056784D02*
G01X0042059Y-057178D01*
G01X0042191Y-057178D02*
G01X0042191Y-056784D01*
G01X0042191Y-056784D02*
G01X0042284Y-056784D01*
G01X0042284Y-056784D02*
G01X0042341Y-056803D01*
G01X0042341Y-056803D02*
G01X0042378Y-056841D01*
G01X0042378Y-056841D02*
G01X0042397Y-056878D01*
G01X0042397Y-056878D02*
G01X0042416Y-056953D01*
G01X0042416Y-056953D02*
G01X0042416Y-057009D01*
G01X0042416Y-057009D02*
G01X0042397Y-057084D01*
G01X0042397Y-057084D02*
G01X0042378Y-057122D01*
G01X0042378Y-057122D02*
G01X0042341Y-057159D01*
G01X0042341Y-057159D02*
G01X0042284Y-057178D01*
G01X0042284Y-057178D02*
G01X0042191Y-057178D01*
G01X0042791Y-057178D02*
G01X0042566Y-057178D01*
G01X0042678Y-057178D02*
G01X0042678Y-056784D01*
G01X0042678Y-056784D02*
G01X0042641Y-056841D01*
G01X0042641Y-056841D02*
G01X0042603Y-056878D01*
G01X0042603Y-056878D02*
G01X0042566Y-056897D01*
G01X0042941Y-056822D02*
G01X0042959Y-056803D01*
G01X0042959Y-056803D02*
G01X0042997Y-056784D01*
G01X0042997Y-056784D02*
G01X0043091Y-056784D01*
G01X0043091Y-056784D02*
G01X0043128Y-056803D01*
G01X0043128Y-056803D02*
G01X0043147Y-056822D01*
G01X0043147Y-056822D02*
G01X0043166Y-056859D01*
G01X0043166Y-056859D02*
G01X0043166Y-056897D01*
G01X0043166Y-056897D02*
G01X0043147Y-056953D01*
G01X0043147Y-056953D02*
G01X0042922Y-057178D01*
G01X0042922Y-057178D02*
G01X0043166Y-057178D01*
G01X0041834Y-056066D02*
G01X0042022Y-056066D01*
G01X0041797Y-056178D02*
G01X0041928Y-055784D01*
G01X0041928Y-055784D02*
G01X0042059Y-056178D01*
G01X0042191Y-056178D02*
G01X0042191Y-055784D01*
G01X0042191Y-055784D02*
G01X0042284Y-055784D01*
G01X0042284Y-055784D02*
G01X0042341Y-055803D01*
G01X0042341Y-055803D02*
G01X0042378Y-055841D01*
G01X0042378Y-055841D02*
G01X0042397Y-055878D01*
G01X0042397Y-055878D02*
G01X0042416Y-055953D01*
G01X0042416Y-055953D02*
G01X0042416Y-056009D01*
G01X0042416Y-056009D02*
G01X0042397Y-056084D01*
G01X0042397Y-056084D02*
G01X0042378Y-056122D01*
G01X0042378Y-056122D02*
G01X0042341Y-056159D01*
G01X0042341Y-056159D02*
G01X0042284Y-056178D01*
G01X0042284Y-056178D02*
G01X0042191Y-056178D01*
G01X0042791Y-056178D02*
G01X0042566Y-056178D01*
G01X0042678Y-056178D02*
G01X0042678Y-055784D01*
G01X0042678Y-055784D02*
G01X0042641Y-055841D01*
G01X0042641Y-055841D02*
G01X0042603Y-055878D01*
G01X0042603Y-055878D02*
G01X0042566Y-055897D01*
G01X0043128Y-055916D02*
G01X0043128Y-056178D01*
G01X0043034Y-055766D02*
G01X0042941Y-056047D01*
G01X0042941Y-056047D02*
G01X0043184Y-056047D01*
G01X0038022Y-063066D02*
G01X0038209Y-063066D01*
G01X0037984Y-063178D02*
G01X0038116Y-062784D01*
G01X0038116Y-062784D02*
G01X0038247Y-063178D01*
G01X0038378Y-063178D02*
G01X0038378Y-062784D01*
G01X0038378Y-062784D02*
G01X0038472Y-062784D01*
G01X0038472Y-062784D02*
G01X0038528Y-062803D01*
G01X0038528Y-062803D02*
G01X0038566Y-062841D01*
G01X0038566Y-062841D02*
G01X0038584Y-062878D01*
G01X0038584Y-062878D02*
G01X0038603Y-062953D01*
G01X0038603Y-062953D02*
G01X0038603Y-063009D01*
G01X0038603Y-063009D02*
G01X0038584Y-063084D01*
G01X0038584Y-063084D02*
G01X0038566Y-063122D01*
G01X0038566Y-063122D02*
G01X0038528Y-063159D01*
G01X0038528Y-063159D02*
G01X0038472Y-063178D01*
G01X0038472Y-063178D02*
G01X0038378Y-063178D01*
G01X0038978Y-063178D02*
G01X0038753Y-063178D01*
G01X0038866Y-063178D02*
G01X0038866Y-062784D01*
G01X0038866Y-062784D02*
G01X0038828Y-062841D01*
G01X0038828Y-062841D02*
G01X0038791Y-062878D01*
G01X0038791Y-062878D02*
G01X0038753Y-062897D01*
G01X0038022Y-062066D02*
G01X0038209Y-062066D01*
G01X0037984Y-062178D02*
G01X0038116Y-061784D01*
G01X0038116Y-061784D02*
G01X0038247Y-062178D01*
G01X0038378Y-062178D02*
G01X0038378Y-061784D01*
G01X0038378Y-061784D02*
G01X0038472Y-061784D01*
G01X0038472Y-061784D02*
G01X0038528Y-061803D01*
G01X0038528Y-061803D02*
G01X0038566Y-061841D01*
G01X0038566Y-061841D02*
G01X0038584Y-061878D01*
G01X0038584Y-061878D02*
G01X0038603Y-061953D01*
G01X0038603Y-061953D02*
G01X0038603Y-062009D01*
G01X0038603Y-062009D02*
G01X0038584Y-062084D01*
G01X0038584Y-062084D02*
G01X0038566Y-062122D01*
G01X0038566Y-062122D02*
G01X0038528Y-062159D01*
G01X0038528Y-062159D02*
G01X0038472Y-062178D01*
G01X0038472Y-062178D02*
G01X0038378Y-062178D01*
G01X0038734Y-061784D02*
G01X0038978Y-061784D01*
G01X0038978Y-061784D02*
G01X0038847Y-061934D01*
G01X0038847Y-061934D02*
G01X0038903Y-061934D01*
G01X0038903Y-061934D02*
G01X0038941Y-061953D01*
G01X0038941Y-061953D02*
G01X0038959Y-061972D01*
G01X0038959Y-061972D02*
G01X0038978Y-062009D01*
G01X0038978Y-062009D02*
G01X0038978Y-062103D01*
G01X0038978Y-062103D02*
G01X0038959Y-062141D01*
G01X0038959Y-062141D02*
G01X0038941Y-062159D01*
G01X0038941Y-062159D02*
G01X0038903Y-062178D01*
G01X0038903Y-062178D02*
G01X0038791Y-062178D01*
G01X0038791Y-062178D02*
G01X0038753Y-062159D01*
G01X0038753Y-062159D02*
G01X0038734Y-062141D01*
G01X0038022Y-061066D02*
G01X0038209Y-061066D01*
G01X0037984Y-061178D02*
G01X0038116Y-060784D01*
G01X0038116Y-060784D02*
G01X0038247Y-061178D01*
G01X0038378Y-061178D02*
G01X0038378Y-060784D01*
G01X0038378Y-060784D02*
G01X0038472Y-060784D01*
G01X0038472Y-060784D02*
G01X0038528Y-060803D01*
G01X0038528Y-060803D02*
G01X0038566Y-060841D01*
G01X0038566Y-060841D02*
G01X0038584Y-060878D01*
G01X0038584Y-060878D02*
G01X0038603Y-060953D01*
G01X0038603Y-060953D02*
G01X0038603Y-061009D01*
G01X0038603Y-061009D02*
G01X0038584Y-061084D01*
G01X0038584Y-061084D02*
G01X0038566Y-061122D01*
G01X0038566Y-061122D02*
G01X0038528Y-061159D01*
G01X0038528Y-061159D02*
G01X0038472Y-061178D01*
G01X0038472Y-061178D02*
G01X0038378Y-061178D01*
G01X0038959Y-060784D02*
G01X0038772Y-060784D01*
G01X0038772Y-060784D02*
G01X0038753Y-060972D01*
G01X0038753Y-060972D02*
G01X0038772Y-060953D01*
G01X0038772Y-060953D02*
G01X0038809Y-060934D01*
G01X0038809Y-060934D02*
G01X0038903Y-060934D01*
G01X0038903Y-060934D02*
G01X0038941Y-060953D01*
G01X0038941Y-060953D02*
G01X0038959Y-060972D01*
G01X0038959Y-060972D02*
G01X0038978Y-061009D01*
G01X0038978Y-061009D02*
G01X0038978Y-061103D01*
G01X0038978Y-061103D02*
G01X0038959Y-061141D01*
G01X0038959Y-061141D02*
G01X0038941Y-061159D01*
G01X0038941Y-061159D02*
G01X0038903Y-061178D01*
G01X0038903Y-061178D02*
G01X0038809Y-061178D01*
G01X0038809Y-061178D02*
G01X0038772Y-061159D01*
G01X0038772Y-061159D02*
G01X0038753Y-061141D01*
G01X0038022Y-060066D02*
G01X0038209Y-060066D01*
G01X0037984Y-060178D02*
G01X0038116Y-059784D01*
G01X0038116Y-059784D02*
G01X0038247Y-060178D01*
G01X0038378Y-060178D02*
G01X0038378Y-059784D01*
G01X0038378Y-059784D02*
G01X0038472Y-059784D01*
G01X0038472Y-059784D02*
G01X0038528Y-059803D01*
G01X0038528Y-059803D02*
G01X0038566Y-059841D01*
G01X0038566Y-059841D02*
G01X0038584Y-059878D01*
G01X0038584Y-059878D02*
G01X0038603Y-059953D01*
G01X0038603Y-059953D02*
G01X0038603Y-060009D01*
G01X0038603Y-060009D02*
G01X0038584Y-060084D01*
G01X0038584Y-060084D02*
G01X0038566Y-060122D01*
G01X0038566Y-060122D02*
G01X0038528Y-060159D01*
G01X0038528Y-060159D02*
G01X0038472Y-060178D01*
G01X0038472Y-060178D02*
G01X0038378Y-060178D01*
G01X0038734Y-059784D02*
G01X0038997Y-059784D01*
G01X0038997Y-059784D02*
G01X0038828Y-060178D01*
G01X0038022Y-059066D02*
G01X0038209Y-059066D01*
G01X0037984Y-059178D02*
G01X0038116Y-058784D01*
G01X0038116Y-058784D02*
G01X0038247Y-059178D01*
G01X0038378Y-059178D02*
G01X0038378Y-058784D01*
G01X0038378Y-058784D02*
G01X0038472Y-058784D01*
G01X0038472Y-058784D02*
G01X0038528Y-058803D01*
G01X0038528Y-058803D02*
G01X0038566Y-058841D01*
G01X0038566Y-058841D02*
G01X0038584Y-058878D01*
G01X0038584Y-058878D02*
G01X0038603Y-058953D01*
G01X0038603Y-058953D02*
G01X0038603Y-059009D01*
G01X0038603Y-059009D02*
G01X0038584Y-059084D01*
G01X0038584Y-059084D02*
G01X0038566Y-059122D01*
G01X0038566Y-059122D02*
G01X0038528Y-059159D01*
G01X0038528Y-059159D02*
G01X0038472Y-059178D01*
G01X0038472Y-059178D02*
G01X0038378Y-059178D01*
G01X0038791Y-059178D02*
G01X0038866Y-059178D01*
G01X0038866Y-059178D02*
G01X0038903Y-059159D01*
G01X0038903Y-059159D02*
G01X0038922Y-059141D01*
G01X0038922Y-059141D02*
G01X0038959Y-059084D01*
G01X0038959Y-059084D02*
G01X0038978Y-059009D01*
G01X0038978Y-059009D02*
G01X0038978Y-058859D01*
G01X0038978Y-058859D02*
G01X0038959Y-058822D01*
G01X0038959Y-058822D02*
G01X0038941Y-058803D01*
G01X0038941Y-058803D02*
G01X0038903Y-058784D01*
G01X0038903Y-058784D02*
G01X0038828Y-058784D01*
G01X0038828Y-058784D02*
G01X0038791Y-058803D01*
G01X0038791Y-058803D02*
G01X0038772Y-058822D01*
G01X0038772Y-058822D02*
G01X0038753Y-058859D01*
G01X0038753Y-058859D02*
G01X0038753Y-058953D01*
G01X0038753Y-058953D02*
G01X0038772Y-058991D01*
G01X0038772Y-058991D02*
G01X0038791Y-059009D01*
G01X0038791Y-059009D02*
G01X0038828Y-059028D01*
G01X0038828Y-059028D02*
G01X0038903Y-059028D01*
G01X0038903Y-059028D02*
G01X0038941Y-059009D01*
G01X0038941Y-059009D02*
G01X0038959Y-058991D01*
G01X0038959Y-058991D02*
G01X0038978Y-058953D01*
G01X0037834Y-058066D02*
G01X0038022Y-058066D01*
G01X0037797Y-058178D02*
G01X0037928Y-057784D01*
G01X0037928Y-057784D02*
G01X0038059Y-058178D01*
G01X0038191Y-058178D02*
G01X0038191Y-057784D01*
G01X0038191Y-057784D02*
G01X0038284Y-057784D01*
G01X0038284Y-057784D02*
G01X0038341Y-057803D01*
G01X0038341Y-057803D02*
G01X0038378Y-057841D01*
G01X0038378Y-057841D02*
G01X0038397Y-057878D01*
G01X0038397Y-057878D02*
G01X0038416Y-057953D01*
G01X0038416Y-057953D02*
G01X0038416Y-058009D01*
G01X0038416Y-058009D02*
G01X0038397Y-058084D01*
G01X0038397Y-058084D02*
G01X0038378Y-058122D01*
G01X0038378Y-058122D02*
G01X0038341Y-058159D01*
G01X0038341Y-058159D02*
G01X0038284Y-058178D01*
G01X0038284Y-058178D02*
G01X0038191Y-058178D01*
G01X0038791Y-058178D02*
G01X0038566Y-058178D01*
G01X0038678Y-058178D02*
G01X0038678Y-057784D01*
G01X0038678Y-057784D02*
G01X0038641Y-057841D01*
G01X0038641Y-057841D02*
G01X0038603Y-057878D01*
G01X0038603Y-057878D02*
G01X0038566Y-057897D01*
G01X0039166Y-058178D02*
G01X0038941Y-058178D01*
G01X0039053Y-058178D02*
G01X0039053Y-057784D01*
G01X0039053Y-057784D02*
G01X0039016Y-057841D01*
G01X0039016Y-057841D02*
G01X0038978Y-057878D01*
G01X0038978Y-057878D02*
G01X0038941Y-057897D01*
G01X0037834Y-057066D02*
G01X0038022Y-057066D01*
G01X0037797Y-057178D02*
G01X0037928Y-056784D01*
G01X0037928Y-056784D02*
G01X0038059Y-057178D01*
G01X0038191Y-057178D02*
G01X0038191Y-056784D01*
G01X0038191Y-056784D02*
G01X0038284Y-056784D01*
G01X0038284Y-056784D02*
G01X0038341Y-056803D01*
G01X0038341Y-056803D02*
G01X0038378Y-056841D01*
G01X0038378Y-056841D02*
G01X0038397Y-056878D01*
G01X0038397Y-056878D02*
G01X0038416Y-056953D01*
G01X0038416Y-056953D02*
G01X0038416Y-057009D01*
G01X0038416Y-057009D02*
G01X0038397Y-057084D01*
G01X0038397Y-057084D02*
G01X0038378Y-057122D01*
G01X0038378Y-057122D02*
G01X0038341Y-057159D01*
G01X0038341Y-057159D02*
G01X0038284Y-057178D01*
G01X0038284Y-057178D02*
G01X0038191Y-057178D01*
G01X0038791Y-057178D02*
G01X0038566Y-057178D01*
G01X0038678Y-057178D02*
G01X0038678Y-056784D01*
G01X0038678Y-056784D02*
G01X0038641Y-056841D01*
G01X0038641Y-056841D02*
G01X0038603Y-056878D01*
G01X0038603Y-056878D02*
G01X0038566Y-056897D01*
G01X0038922Y-056784D02*
G01X0039166Y-056784D01*
G01X0039166Y-056784D02*
G01X0039034Y-056934D01*
G01X0039034Y-056934D02*
G01X0039091Y-056934D01*
G01X0039091Y-056934D02*
G01X0039128Y-056953D01*
G01X0039128Y-056953D02*
G01X0039147Y-056972D01*
G01X0039147Y-056972D02*
G01X0039166Y-057009D01*
G01X0039166Y-057009D02*
G01X0039166Y-057103D01*
G01X0039166Y-057103D02*
G01X0039147Y-057141D01*
G01X0039147Y-057141D02*
G01X0039128Y-057159D01*
G01X0039128Y-057159D02*
G01X0039091Y-057178D01*
G01X0039091Y-057178D02*
G01X0038978Y-057178D01*
G01X0038978Y-057178D02*
G01X0038941Y-057159D01*
G01X0038941Y-057159D02*
G01X0038922Y-057141D01*
G01X0037834Y-056066D02*
G01X0038022Y-056066D01*
G01X0037797Y-056178D02*
G01X0037928Y-055784D01*
G01X0037928Y-055784D02*
G01X0038059Y-056178D01*
G01X0038191Y-056178D02*
G01X0038191Y-055784D01*
G01X0038191Y-055784D02*
G01X0038284Y-055784D01*
G01X0038284Y-055784D02*
G01X0038341Y-055803D01*
G01X0038341Y-055803D02*
G01X0038378Y-055841D01*
G01X0038378Y-055841D02*
G01X0038397Y-055878D01*
G01X0038397Y-055878D02*
G01X0038416Y-055953D01*
G01X0038416Y-055953D02*
G01X0038416Y-056009D01*
G01X0038416Y-056009D02*
G01X0038397Y-056084D01*
G01X0038397Y-056084D02*
G01X0038378Y-056122D01*
G01X0038378Y-056122D02*
G01X0038341Y-056159D01*
G01X0038341Y-056159D02*
G01X0038284Y-056178D01*
G01X0038284Y-056178D02*
G01X0038191Y-056178D01*
G01X0038791Y-056178D02*
G01X0038566Y-056178D01*
G01X0038678Y-056178D02*
G01X0038678Y-055784D01*
G01X0038678Y-055784D02*
G01X0038641Y-055841D01*
G01X0038641Y-055841D02*
G01X0038603Y-055878D01*
G01X0038603Y-055878D02*
G01X0038566Y-055897D01*
G01X0039147Y-055784D02*
G01X0038959Y-055784D01*
G01X0038959Y-055784D02*
G01X0038941Y-055972D01*
G01X0038941Y-055972D02*
G01X0038959Y-055953D01*
G01X0038959Y-055953D02*
G01X0038997Y-055934D01*
G01X0038997Y-055934D02*
G01X0039091Y-055934D01*
G01X0039091Y-055934D02*
G01X0039128Y-055953D01*
G01X0039128Y-055953D02*
G01X0039147Y-055972D01*
G01X0039147Y-055972D02*
G01X0039166Y-056009D01*
G01X0039166Y-056009D02*
G01X0039166Y-056103D01*
G01X0039166Y-056103D02*
G01X0039147Y-056141D01*
G01X0039147Y-056141D02*
G01X0039128Y-056159D01*
G01X0039128Y-056159D02*
G01X0039091Y-056178D01*
G01X0039091Y-056178D02*
G01X0038997Y-056178D01*
G01X0038997Y-056178D02*
G01X0038959Y-056159D01*
G01X0038959Y-056159D02*
G01X0038941Y-056141D01*
G01X0035209Y-063178D02*
G01X0035209Y-062784D01*
G01X0035209Y-062784D02*
G01X0035303Y-062784D01*
G01X0035303Y-062784D02*
G01X0035359Y-062803D01*
G01X0035359Y-062803D02*
G01X0035397Y-062841D01*
G01X0035397Y-062841D02*
G01X0035416Y-062878D01*
G01X0035416Y-062878D02*
G01X0035434Y-062953D01*
G01X0035434Y-062953D02*
G01X0035434Y-063009D01*
G01X0035434Y-063009D02*
G01X0035416Y-063084D01*
G01X0035416Y-063084D02*
G01X0035397Y-063122D01*
G01X0035397Y-063122D02*
G01X0035359Y-063159D01*
G01X0035359Y-063159D02*
G01X0035303Y-063178D01*
G01X0035303Y-063178D02*
G01X0035209Y-063178D01*
G01X0035678Y-062784D02*
G01X0035716Y-062784D01*
G01X0035716Y-062784D02*
G01X0035753Y-062803D01*
G01X0035753Y-062803D02*
G01X0035772Y-062822D01*
G01X0035772Y-062822D02*
G01X0035791Y-062859D01*
G01X0035791Y-062859D02*
G01X0035809Y-062934D01*
G01X0035809Y-062934D02*
G01X0035809Y-063028D01*
G01X0035809Y-063028D02*
G01X0035791Y-063103D01*
G01X0035791Y-063103D02*
G01X0035772Y-063141D01*
G01X0035772Y-063141D02*
G01X0035753Y-063159D01*
G01X0035753Y-063159D02*
G01X0035716Y-063178D01*
G01X0035716Y-063178D02*
G01X0035678Y-063178D01*
G01X0035678Y-063178D02*
G01X0035641Y-063159D01*
G01X0035641Y-063159D02*
G01X0035622Y-063141D01*
G01X0035622Y-063141D02*
G01X0035603Y-063103D01*
G01X0035603Y-063103D02*
G01X0035584Y-063028D01*
G01X0035584Y-063028D02*
G01X0035584Y-062934D01*
G01X0035584Y-062934D02*
G01X0035603Y-062859D01*
G01X0035603Y-062859D02*
G01X0035622Y-062822D01*
G01X0035622Y-062822D02*
G01X0035641Y-062803D01*
G01X0035641Y-062803D02*
G01X0035678Y-062784D01*
G01X0035209Y-062178D02*
G01X0035209Y-061784D01*
G01X0035209Y-061784D02*
G01X0035303Y-061784D01*
G01X0035303Y-061784D02*
G01X0035359Y-061803D01*
G01X0035359Y-061803D02*
G01X0035397Y-061841D01*
G01X0035397Y-061841D02*
G01X0035416Y-061878D01*
G01X0035416Y-061878D02*
G01X0035434Y-061953D01*
G01X0035434Y-061953D02*
G01X0035434Y-062009D01*
G01X0035434Y-062009D02*
G01X0035416Y-062084D01*
G01X0035416Y-062084D02*
G01X0035397Y-062122D01*
G01X0035397Y-062122D02*
G01X0035359Y-062159D01*
G01X0035359Y-062159D02*
G01X0035303Y-062178D01*
G01X0035303Y-062178D02*
G01X0035209Y-062178D01*
G01X0035809Y-062178D02*
G01X0035584Y-062178D01*
G01X0035697Y-062178D02*
G01X0035697Y-061784D01*
G01X0035697Y-061784D02*
G01X0035659Y-061841D01*
G01X0035659Y-061841D02*
G01X0035622Y-061878D01*
G01X0035622Y-061878D02*
G01X0035584Y-061897D01*
G01X0035209Y-061178D02*
G01X0035209Y-060784D01*
G01X0035209Y-060784D02*
G01X0035303Y-060784D01*
G01X0035303Y-060784D02*
G01X0035359Y-060803D01*
G01X0035359Y-060803D02*
G01X0035397Y-060841D01*
G01X0035397Y-060841D02*
G01X0035416Y-060878D01*
G01X0035416Y-060878D02*
G01X0035434Y-060953D01*
G01X0035434Y-060953D02*
G01X0035434Y-061009D01*
G01X0035434Y-061009D02*
G01X0035416Y-061084D01*
G01X0035416Y-061084D02*
G01X0035397Y-061122D01*
G01X0035397Y-061122D02*
G01X0035359Y-061159D01*
G01X0035359Y-061159D02*
G01X0035303Y-061178D01*
G01X0035303Y-061178D02*
G01X0035209Y-061178D01*
G01X0035584Y-060822D02*
G01X0035603Y-060803D01*
G01X0035603Y-060803D02*
G01X0035641Y-060784D01*
G01X0035641Y-060784D02*
G01X0035734Y-060784D01*
G01X0035734Y-060784D02*
G01X0035772Y-060803D01*
G01X0035772Y-060803D02*
G01X0035791Y-060822D01*
G01X0035791Y-060822D02*
G01X0035809Y-060859D01*
G01X0035809Y-060859D02*
G01X0035809Y-060897D01*
G01X0035809Y-060897D02*
G01X0035791Y-060953D01*
G01X0035791Y-060953D02*
G01X0035566Y-061178D01*
G01X0035566Y-061178D02*
G01X0035809Y-061178D01*
G01X0035209Y-060178D02*
G01X0035209Y-059784D01*
G01X0035209Y-059784D02*
G01X0035303Y-059784D01*
G01X0035303Y-059784D02*
G01X0035359Y-059803D01*
G01X0035359Y-059803D02*
G01X0035397Y-059841D01*
G01X0035397Y-059841D02*
G01X0035416Y-059878D01*
G01X0035416Y-059878D02*
G01X0035434Y-059953D01*
G01X0035434Y-059953D02*
G01X0035434Y-060009D01*
G01X0035434Y-060009D02*
G01X0035416Y-060084D01*
G01X0035416Y-060084D02*
G01X0035397Y-060122D01*
G01X0035397Y-060122D02*
G01X0035359Y-060159D01*
G01X0035359Y-060159D02*
G01X0035303Y-060178D01*
G01X0035303Y-060178D02*
G01X0035209Y-060178D01*
G01X0035566Y-059784D02*
G01X0035809Y-059784D01*
G01X0035809Y-059784D02*
G01X0035678Y-059934D01*
G01X0035678Y-059934D02*
G01X0035734Y-059934D01*
G01X0035734Y-059934D02*
G01X0035772Y-059953D01*
G01X0035772Y-059953D02*
G01X0035791Y-059972D01*
G01X0035791Y-059972D02*
G01X0035809Y-060009D01*
G01X0035809Y-060009D02*
G01X0035809Y-060103D01*
G01X0035809Y-060103D02*
G01X0035791Y-060141D01*
G01X0035791Y-060141D02*
G01X0035772Y-060159D01*
G01X0035772Y-060159D02*
G01X0035734Y-060178D01*
G01X0035734Y-060178D02*
G01X0035622Y-060178D01*
G01X0035622Y-060178D02*
G01X0035584Y-060159D01*
G01X0035584Y-060159D02*
G01X0035566Y-060141D01*
G01X0035209Y-059178D02*
G01X0035209Y-058784D01*
G01X0035209Y-058784D02*
G01X0035303Y-058784D01*
G01X0035303Y-058784D02*
G01X0035359Y-058803D01*
G01X0035359Y-058803D02*
G01X0035397Y-058841D01*
G01X0035397Y-058841D02*
G01X0035416Y-058878D01*
G01X0035416Y-058878D02*
G01X0035434Y-058953D01*
G01X0035434Y-058953D02*
G01X0035434Y-059009D01*
G01X0035434Y-059009D02*
G01X0035416Y-059084D01*
G01X0035416Y-059084D02*
G01X0035397Y-059122D01*
G01X0035397Y-059122D02*
G01X0035359Y-059159D01*
G01X0035359Y-059159D02*
G01X0035303Y-059178D01*
G01X0035303Y-059178D02*
G01X0035209Y-059178D01*
G01X0035772Y-058916D02*
G01X0035772Y-059178D01*
G01X0035678Y-058766D02*
G01X0035584Y-059047D01*
G01X0035584Y-059047D02*
G01X0035828Y-059047D01*
G01X0035209Y-058178D02*
G01X0035209Y-057784D01*
G01X0035209Y-057784D02*
G01X0035303Y-057784D01*
G01X0035303Y-057784D02*
G01X0035359Y-057803D01*
G01X0035359Y-057803D02*
G01X0035397Y-057841D01*
G01X0035397Y-057841D02*
G01X0035416Y-057878D01*
G01X0035416Y-057878D02*
G01X0035434Y-057953D01*
G01X0035434Y-057953D02*
G01X0035434Y-058009D01*
G01X0035434Y-058009D02*
G01X0035416Y-058084D01*
G01X0035416Y-058084D02*
G01X0035397Y-058122D01*
G01X0035397Y-058122D02*
G01X0035359Y-058159D01*
G01X0035359Y-058159D02*
G01X0035303Y-058178D01*
G01X0035303Y-058178D02*
G01X0035209Y-058178D01*
G01X0035791Y-057784D02*
G01X0035603Y-057784D01*
G01X0035603Y-057784D02*
G01X0035584Y-057972D01*
G01X0035584Y-057972D02*
G01X0035603Y-057953D01*
G01X0035603Y-057953D02*
G01X0035641Y-057934D01*
G01X0035641Y-057934D02*
G01X0035734Y-057934D01*
G01X0035734Y-057934D02*
G01X0035772Y-057953D01*
G01X0035772Y-057953D02*
G01X0035791Y-057972D01*
G01X0035791Y-057972D02*
G01X0035809Y-058009D01*
G01X0035809Y-058009D02*
G01X0035809Y-058103D01*
G01X0035809Y-058103D02*
G01X0035791Y-058141D01*
G01X0035791Y-058141D02*
G01X0035772Y-058159D01*
G01X0035772Y-058159D02*
G01X0035734Y-058178D01*
G01X0035734Y-058178D02*
G01X0035641Y-058178D01*
G01X0035641Y-058178D02*
G01X0035603Y-058159D01*
G01X0035603Y-058159D02*
G01X0035584Y-058141D01*
G01X0035209Y-057178D02*
G01X0035209Y-056784D01*
G01X0035209Y-056784D02*
G01X0035303Y-056784D01*
G01X0035303Y-056784D02*
G01X0035359Y-056803D01*
G01X0035359Y-056803D02*
G01X0035397Y-056841D01*
G01X0035397Y-056841D02*
G01X0035416Y-056878D01*
G01X0035416Y-056878D02*
G01X0035434Y-056953D01*
G01X0035434Y-056953D02*
G01X0035434Y-057009D01*
G01X0035434Y-057009D02*
G01X0035416Y-057084D01*
G01X0035416Y-057084D02*
G01X0035397Y-057122D01*
G01X0035397Y-057122D02*
G01X0035359Y-057159D01*
G01X0035359Y-057159D02*
G01X0035303Y-057178D01*
G01X0035303Y-057178D02*
G01X0035209Y-057178D01*
G01X0035772Y-056784D02*
G01X0035697Y-056784D01*
G01X0035697Y-056784D02*
G01X0035659Y-056803D01*
G01X0035659Y-056803D02*
G01X0035641Y-056822D01*
G01X0035641Y-056822D02*
G01X0035603Y-056878D01*
G01X0035603Y-056878D02*
G01X0035584Y-056953D01*
G01X0035584Y-056953D02*
G01X0035584Y-057103D01*
G01X0035584Y-057103D02*
G01X0035603Y-057141D01*
G01X0035603Y-057141D02*
G01X0035622Y-057159D01*
G01X0035622Y-057159D02*
G01X0035659Y-057178D01*
G01X0035659Y-057178D02*
G01X0035734Y-057178D01*
G01X0035734Y-057178D02*
G01X0035772Y-057159D01*
G01X0035772Y-057159D02*
G01X0035791Y-057141D01*
G01X0035791Y-057141D02*
G01X0035809Y-057103D01*
G01X0035809Y-057103D02*
G01X0035809Y-057009D01*
G01X0035809Y-057009D02*
G01X0035791Y-056972D01*
G01X0035791Y-056972D02*
G01X0035772Y-056953D01*
G01X0035772Y-056953D02*
G01X0035734Y-056934D01*
G01X0035734Y-056934D02*
G01X0035659Y-056934D01*
G01X0035659Y-056934D02*
G01X0035622Y-056953D01*
G01X0035622Y-056953D02*
G01X0035603Y-056972D01*
G01X0035603Y-056972D02*
G01X0035584Y-057009D01*
G01X0035209Y-056178D02*
G01X0035209Y-055784D01*
G01X0035209Y-055784D02*
G01X0035303Y-055784D01*
G01X0035303Y-055784D02*
G01X0035359Y-055803D01*
G01X0035359Y-055803D02*
G01X0035397Y-055841D01*
G01X0035397Y-055841D02*
G01X0035416Y-055878D01*
G01X0035416Y-055878D02*
G01X0035434Y-055953D01*
G01X0035434Y-055953D02*
G01X0035434Y-056009D01*
G01X0035434Y-056009D02*
G01X0035416Y-056084D01*
G01X0035416Y-056084D02*
G01X0035397Y-056122D01*
G01X0035397Y-056122D02*
G01X0035359Y-056159D01*
G01X0035359Y-056159D02*
G01X0035303Y-056178D01*
G01X0035303Y-056178D02*
G01X0035209Y-056178D01*
G01X0035566Y-055784D02*
G01X0035828Y-055784D01*
G01X0035828Y-055784D02*
G01X0035659Y-056178D01*
G01X0030013Y-063178D02*
G01X0030013Y-062784D01*
G01X0030013Y-062784D02*
G01X0030163Y-062784D01*
G01X0030163Y-062784D02*
G01X0030200Y-062803D01*
G01X0030200Y-062803D02*
G01X0030219Y-062822D01*
G01X0030219Y-062822D02*
G01X0030238Y-062859D01*
G01X0030238Y-062859D02*
G01X0030238Y-062916D01*
G01X0030238Y-062916D02*
G01X0030219Y-062953D01*
G01X0030219Y-062953D02*
G01X0030200Y-062972D01*
G01X0030200Y-062972D02*
G01X0030163Y-062991D01*
G01X0030163Y-062991D02*
G01X0030013Y-062991D01*
G01X0030537Y-062972D02*
G01X0030594Y-062991D01*
G01X0030594Y-062991D02*
G01X0030612Y-063009D01*
G01X0030612Y-063009D02*
G01X0030631Y-063047D01*
G01X0030631Y-063047D02*
G01X0030631Y-063103D01*
G01X0030631Y-063103D02*
G01X0030612Y-063141D01*
G01X0030612Y-063141D02*
G01X0030594Y-063159D01*
G01X0030594Y-063159D02*
G01X0030556Y-063178D01*
G01X0030556Y-063178D02*
G01X0030406Y-063178D01*
G01X0030406Y-063178D02*
G01X0030406Y-062784D01*
G01X0030406Y-062784D02*
G01X0030537Y-062784D01*
G01X0030537Y-062784D02*
G01X0030575Y-062803D01*
G01X0030575Y-062803D02*
G01X0030594Y-062822D01*
G01X0030594Y-062822D02*
G01X0030612Y-062859D01*
G01X0030612Y-062859D02*
G01X0030612Y-062897D01*
G01X0030612Y-062897D02*
G01X0030594Y-062934D01*
G01X0030594Y-062934D02*
G01X0030575Y-062953D01*
G01X0030575Y-062953D02*
G01X0030537Y-062972D01*
G01X0030537Y-062972D02*
G01X0030406Y-062972D01*
G01X0031006Y-063178D02*
G01X0030781Y-063178D01*
G01X0030894Y-063178D02*
G01X0030894Y-062784D01*
G01X0030894Y-062784D02*
G01X0030856Y-062841D01*
G01X0030856Y-062841D02*
G01X0030819Y-062878D01*
G01X0030819Y-062878D02*
G01X0030781Y-062897D01*
G01X0030172Y-061972D02*
G01X0030228Y-061991D01*
G01X0030228Y-061991D02*
G01X0030247Y-062009D01*
G01X0030247Y-062009D02*
G01X0030266Y-062047D01*
G01X0030266Y-062047D02*
G01X0030266Y-062103D01*
G01X0030266Y-062103D02*
G01X0030247Y-062141D01*
G01X0030247Y-062141D02*
G01X0030228Y-062159D01*
G01X0030228Y-062159D02*
G01X0030191Y-062178D01*
G01X0030191Y-062178D02*
G01X0030041Y-062178D01*
G01X0030041Y-062178D02*
G01X0030041Y-061784D01*
G01X0030041Y-061784D02*
G01X0030172Y-061784D01*
G01X0030172Y-061784D02*
G01X0030209Y-061803D01*
G01X0030209Y-061803D02*
G01X0030228Y-061822D01*
G01X0030228Y-061822D02*
G01X0030247Y-061859D01*
G01X0030247Y-061859D02*
G01X0030247Y-061897D01*
G01X0030247Y-061897D02*
G01X0030228Y-061934D01*
G01X0030228Y-061934D02*
G01X0030209Y-061953D01*
G01X0030209Y-061953D02*
G01X0030172Y-061972D01*
G01X0030172Y-061972D02*
G01X0030041Y-061972D01*
G01X0030566Y-061972D02*
G01X0030434Y-061972D01*
G01X0030434Y-062178D02*
G01X0030434Y-061784D01*
G01X0030434Y-061784D02*
G01X0030622Y-061784D01*
G01X0030847Y-061784D02*
G01X0030884Y-061784D01*
G01X0030884Y-061784D02*
G01X0030922Y-061803D01*
G01X0030922Y-061803D02*
G01X0030941Y-061822D01*
G01X0030941Y-061822D02*
G01X0030959Y-061859D01*
G01X0030959Y-061859D02*
G01X0030978Y-061934D01*
G01X0030978Y-061934D02*
G01X0030978Y-062028D01*
G01X0030978Y-062028D02*
G01X0030959Y-062103D01*
G01X0030959Y-062103D02*
G01X0030941Y-062141D01*
G01X0030941Y-062141D02*
G01X0030922Y-062159D01*
G01X0030922Y-062159D02*
G01X0030884Y-062178D01*
G01X0030884Y-062178D02*
G01X0030847Y-062178D01*
G01X0030847Y-062178D02*
G01X0030809Y-062159D01*
G01X0030809Y-062159D02*
G01X0030791Y-062141D01*
G01X0030791Y-062141D02*
G01X0030772Y-062103D01*
G01X0030772Y-062103D02*
G01X0030753Y-062028D01*
G01X0030753Y-062028D02*
G01X0030753Y-061934D01*
G01X0030753Y-061934D02*
G01X0030772Y-061859D01*
G01X0030772Y-061859D02*
G01X0030791Y-061822D01*
G01X0030791Y-061822D02*
G01X0030809Y-061803D01*
G01X0030809Y-061803D02*
G01X0030847Y-061784D01*
G01X0030106Y-061178D02*
G01X0030106Y-060784D01*
G01X0030069Y-060841D02*
G01X0030144Y-060841D01*
G01X0030144Y-060841D02*
G01X0030200Y-060859D01*
G01X0030200Y-060859D02*
G01X0030238Y-060897D01*
G01X0030238Y-060897D02*
G01X0030256Y-060934D01*
G01X0030256Y-060934D02*
G01X0030256Y-061009D01*
G01X0030256Y-061009D02*
G01X0030238Y-061047D01*
G01X0030238Y-061047D02*
G01X0030200Y-061084D01*
G01X0030200Y-061084D02*
G01X0030144Y-061103D01*
G01X0030144Y-061103D02*
G01X0030069Y-061103D01*
G01X0030069Y-061103D02*
G01X0030013Y-061084D01*
G01X0030013Y-061084D02*
G01X0029975Y-061047D01*
G01X0029975Y-061047D02*
G01X0029956Y-061009D01*
G01X0029956Y-061009D02*
G01X0029956Y-060934D01*
G01X0029956Y-060934D02*
G01X0029975Y-060897D01*
G01X0029975Y-060897D02*
G01X0030013Y-060859D01*
G01X0030013Y-060859D02*
G01X0030069Y-060841D01*
G01X0030481Y-060784D02*
G01X0030556Y-060784D01*
G01X0030556Y-060784D02*
G01X0030594Y-060803D01*
G01X0030594Y-060803D02*
G01X0030631Y-060841D01*
G01X0030631Y-060841D02*
G01X0030650Y-060916D01*
G01X0030650Y-060916D02*
G01X0030650Y-061047D01*
G01X0030650Y-061047D02*
G01X0030631Y-061122D01*
G01X0030631Y-061122D02*
G01X0030594Y-061159D01*
G01X0030594Y-061159D02*
G01X0030556Y-061178D01*
G01X0030556Y-061178D02*
G01X0030481Y-061178D01*
G01X0030481Y-061178D02*
G01X0030444Y-061159D01*
G01X0030444Y-061159D02*
G01X0030406Y-061122D01*
G01X0030406Y-061122D02*
G01X0030388Y-061047D01*
G01X0030388Y-061047D02*
G01X0030388Y-060916D01*
G01X0030388Y-060916D02*
G01X0030406Y-060841D01*
G01X0030406Y-060841D02*
G01X0030444Y-060803D01*
G01X0030444Y-060803D02*
G01X0030481Y-060784D01*
G01X0030800Y-061159D02*
G01X0030856Y-061178D01*
G01X0030856Y-061178D02*
G01X0030950Y-061178D01*
G01X0030950Y-061178D02*
G01X0030987Y-061159D01*
G01X0030987Y-061159D02*
G01X0031006Y-061141D01*
G01X0031006Y-061141D02*
G01X0031025Y-061103D01*
G01X0031025Y-061103D02*
G01X0031025Y-061066D01*
G01X0031025Y-061066D02*
G01X0031006Y-061028D01*
G01X0031006Y-061028D02*
G01X0030987Y-061009D01*
G01X0030987Y-061009D02*
G01X0030950Y-060991D01*
G01X0030950Y-060991D02*
G01X0030875Y-060972D01*
G01X0030875Y-060972D02*
G01X0030837Y-060953D01*
G01X0030837Y-060953D02*
G01X0030819Y-060934D01*
G01X0030819Y-060934D02*
G01X0030800Y-060897D01*
G01X0030800Y-060897D02*
G01X0030800Y-060859D01*
G01X0030800Y-060859D02*
G01X0030819Y-060822D01*
G01X0030819Y-060822D02*
G01X0030837Y-060803D01*
G01X0030837Y-060803D02*
G01X0030875Y-060784D01*
G01X0030875Y-060784D02*
G01X0030969Y-060784D01*
G01X0030969Y-060784D02*
G01X0031025Y-060803D01*
G01X0029806Y-060178D02*
G01X0029806Y-059784D01*
G01X0029806Y-059784D02*
G01X0029900Y-059784D01*
G01X0029900Y-059784D02*
G01X0029956Y-059803D01*
G01X0029956Y-059803D02*
G01X0029994Y-059841D01*
G01X0029994Y-059841D02*
G01X0030013Y-059878D01*
G01X0030013Y-059878D02*
G01X0030031Y-059953D01*
G01X0030031Y-059953D02*
G01X0030031Y-060009D01*
G01X0030031Y-060009D02*
G01X0030013Y-060084D01*
G01X0030013Y-060084D02*
G01X0029994Y-060122D01*
G01X0029994Y-060122D02*
G01X0029956Y-060159D01*
G01X0029956Y-060159D02*
G01X0029900Y-060178D01*
G01X0029900Y-060178D02*
G01X0029806Y-060178D01*
G01X0030200Y-060178D02*
G01X0030200Y-059784D01*
G01X0030200Y-059784D02*
G01X0030331Y-060066D01*
G01X0030331Y-060066D02*
G01X0030463Y-059784D01*
G01X0030463Y-059784D02*
G01X0030463Y-060178D01*
G01X0030650Y-059972D02*
G01X0030781Y-059972D01*
G01X0030837Y-060178D02*
G01X0030650Y-060178D01*
G01X0030650Y-060178D02*
G01X0030650Y-059784D01*
G01X0030650Y-059784D02*
G01X0030837Y-059784D01*
G01X0031081Y-059784D02*
G01X0031119Y-059784D01*
G01X0031119Y-059784D02*
G01X0031156Y-059803D01*
G01X0031156Y-059803D02*
G01X0031175Y-059822D01*
G01X0031175Y-059822D02*
G01X0031194Y-059859D01*
G01X0031194Y-059859D02*
G01X0031212Y-059934D01*
G01X0031212Y-059934D02*
G01X0031212Y-060028D01*
G01X0031212Y-060028D02*
G01X0031194Y-060103D01*
G01X0031194Y-060103D02*
G01X0031175Y-060141D01*
G01X0031175Y-060141D02*
G01X0031156Y-060159D01*
G01X0031156Y-060159D02*
G01X0031119Y-060178D01*
G01X0031119Y-060178D02*
G01X0031081Y-060178D01*
G01X0031081Y-060178D02*
G01X0031044Y-060159D01*
G01X0031044Y-060159D02*
G01X0031025Y-060141D01*
G01X0031025Y-060141D02*
G01X0031006Y-060103D01*
G01X0031006Y-060103D02*
G01X0030987Y-060028D01*
G01X0030987Y-060028D02*
G01X0030987Y-059934D01*
G01X0030987Y-059934D02*
G01X0031006Y-059859D01*
G01X0031006Y-059859D02*
G01X0031025Y-059822D01*
G01X0031025Y-059822D02*
G01X0031044Y-059803D01*
G01X0031044Y-059803D02*
G01X0031081Y-059784D01*
G01X0030397Y-059178D02*
G01X0030266Y-058991D01*
G01X0030172Y-059178D02*
G01X0030172Y-058784D01*
G01X0030172Y-058784D02*
G01X0030322Y-058784D01*
G01X0030322Y-058784D02*
G01X0030359Y-058803D01*
G01X0030359Y-058803D02*
G01X0030378Y-058822D01*
G01X0030378Y-058822D02*
G01X0030397Y-058859D01*
G01X0030397Y-058859D02*
G01X0030397Y-058916D01*
G01X0030397Y-058916D02*
G01X0030378Y-058953D01*
G01X0030378Y-058953D02*
G01X0030359Y-058972D01*
G01X0030359Y-058972D02*
G01X0030322Y-058991D01*
G01X0030322Y-058991D02*
G01X0030172Y-058991D01*
G01X0030528Y-058784D02*
G01X0030622Y-059178D01*
G01X0030622Y-059178D02*
G01X0030697Y-058897D01*
G01X0030697Y-058897D02*
G01X0030772Y-059178D01*
G01X0030772Y-059178D02*
G01X0030866Y-058784D01*
G01X0029806Y-058178D02*
G01X0029806Y-057784D01*
G01X0029806Y-057784D02*
G01X0029900Y-057784D01*
G01X0029900Y-057784D02*
G01X0029956Y-057803D01*
G01X0029956Y-057803D02*
G01X0029994Y-057841D01*
G01X0029994Y-057841D02*
G01X0030013Y-057878D01*
G01X0030013Y-057878D02*
G01X0030031Y-057953D01*
G01X0030031Y-057953D02*
G01X0030031Y-058009D01*
G01X0030031Y-058009D02*
G01X0030013Y-058084D01*
G01X0030013Y-058084D02*
G01X0029994Y-058122D01*
G01X0029994Y-058122D02*
G01X0029956Y-058159D01*
G01X0029956Y-058159D02*
G01X0029900Y-058178D01*
G01X0029900Y-058178D02*
G01X0029806Y-058178D01*
G01X0030200Y-058178D02*
G01X0030200Y-057784D01*
G01X0030200Y-057784D02*
G01X0030331Y-058066D01*
G01X0030331Y-058066D02*
G01X0030463Y-057784D01*
G01X0030463Y-057784D02*
G01X0030463Y-058178D01*
G01X0030650Y-057972D02*
G01X0030781Y-057972D01*
G01X0030837Y-058178D02*
G01X0030650Y-058178D01*
G01X0030650Y-058178D02*
G01X0030650Y-057784D01*
G01X0030650Y-057784D02*
G01X0030837Y-057784D01*
G01X0031212Y-058178D02*
G01X0030987Y-058178D01*
G01X0031100Y-058178D02*
G01X0031100Y-057784D01*
G01X0031100Y-057784D02*
G01X0031062Y-057841D01*
G01X0031062Y-057841D02*
G01X0031025Y-057878D01*
G01X0031025Y-057878D02*
G01X0030987Y-057897D01*
G01X0030003Y-057178D02*
G01X0030003Y-056784D01*
G01X0030003Y-056784D02*
G01X0030134Y-057066D01*
G01X0030134Y-057066D02*
G01X0030266Y-056784D01*
G01X0030266Y-056784D02*
G01X0030266Y-057178D01*
G01X0030453Y-056972D02*
G01X0030584Y-056972D01*
G01X0030641Y-057178D02*
G01X0030453Y-057178D01*
G01X0030453Y-057178D02*
G01X0030453Y-056784D01*
G01X0030453Y-056784D02*
G01X0030641Y-056784D01*
G01X0031016Y-057178D02*
G01X0030791Y-057178D01*
G01X0030903Y-057178D02*
G01X0030903Y-056784D01*
G01X0030903Y-056784D02*
G01X0030866Y-056841D01*
G01X0030866Y-056841D02*
G01X0030828Y-056878D01*
G01X0030828Y-056878D02*
G01X0030791Y-056897D01*
G01X0030266Y-055784D02*
G01X0030341Y-055784D01*
G01X0030341Y-055784D02*
G01X0030378Y-055803D01*
G01X0030378Y-055803D02*
G01X0030416Y-055841D01*
G01X0030416Y-055841D02*
G01X0030434Y-055916D01*
G01X0030434Y-055916D02*
G01X0030434Y-056047D01*
G01X0030434Y-056047D02*
G01X0030416Y-056122D01*
G01X0030416Y-056122D02*
G01X0030378Y-056159D01*
G01X0030378Y-056159D02*
G01X0030341Y-056178D01*
G01X0030341Y-056178D02*
G01X0030266Y-056178D01*
G01X0030266Y-056178D02*
G01X0030228Y-056159D01*
G01X0030228Y-056159D02*
G01X0030191Y-056122D01*
G01X0030191Y-056122D02*
G01X0030172Y-056047D01*
G01X0030172Y-056047D02*
G01X0030172Y-055916D01*
G01X0030172Y-055916D02*
G01X0030191Y-055841D01*
G01X0030191Y-055841D02*
G01X0030228Y-055803D01*
G01X0030228Y-055803D02*
G01X0030266Y-055784D01*
G01X0030603Y-056178D02*
G01X0030603Y-055784D01*
G01X0030603Y-055784D02*
G01X0030697Y-055784D01*
G01X0030697Y-055784D02*
G01X0030753Y-055803D01*
G01X0030753Y-055803D02*
G01X0030791Y-055841D01*
G01X0030791Y-055841D02*
G01X0030809Y-055878D01*
G01X0030809Y-055878D02*
G01X0030828Y-055953D01*
G01X0030828Y-055953D02*
G01X0030828Y-056009D01*
G01X0030828Y-056009D02*
G01X0030809Y-056084D01*
G01X0030809Y-056084D02*
G01X0030791Y-056122D01*
G01X0030791Y-056122D02*
G01X0030753Y-056159D01*
G01X0030753Y-056159D02*
G01X0030697Y-056178D01*
G01X0030697Y-056178D02*
G01X0030603Y-056178D01*
G01X0025013Y-063178D02*
G01X0025013Y-062784D01*
G01X0025013Y-062784D02*
G01X0025163Y-062784D01*
G01X0025163Y-062784D02*
G01X0025200Y-062803D01*
G01X0025200Y-062803D02*
G01X0025219Y-062822D01*
G01X0025219Y-062822D02*
G01X0025238Y-062859D01*
G01X0025238Y-062859D02*
G01X0025238Y-062916D01*
G01X0025238Y-062916D02*
G01X0025219Y-062953D01*
G01X0025219Y-062953D02*
G01X0025200Y-062972D01*
G01X0025200Y-062972D02*
G01X0025163Y-062991D01*
G01X0025163Y-062991D02*
G01X0025013Y-062991D01*
G01X0025537Y-062972D02*
G01X0025594Y-062991D01*
G01X0025594Y-062991D02*
G01X0025612Y-063009D01*
G01X0025612Y-063009D02*
G01X0025631Y-063047D01*
G01X0025631Y-063047D02*
G01X0025631Y-063103D01*
G01X0025631Y-063103D02*
G01X0025612Y-063141D01*
G01X0025612Y-063141D02*
G01X0025594Y-063159D01*
G01X0025594Y-063159D02*
G01X0025556Y-063178D01*
G01X0025556Y-063178D02*
G01X0025406Y-063178D01*
G01X0025406Y-063178D02*
G01X0025406Y-062784D01*
G01X0025406Y-062784D02*
G01X0025537Y-062784D01*
G01X0025537Y-062784D02*
G01X0025575Y-062803D01*
G01X0025575Y-062803D02*
G01X0025594Y-062822D01*
G01X0025594Y-062822D02*
G01X0025612Y-062859D01*
G01X0025612Y-062859D02*
G01X0025612Y-062897D01*
G01X0025612Y-062897D02*
G01X0025594Y-062934D01*
G01X0025594Y-062934D02*
G01X0025575Y-062953D01*
G01X0025575Y-062953D02*
G01X0025537Y-062972D01*
G01X0025537Y-062972D02*
G01X0025406Y-062972D01*
G01X0025875Y-062784D02*
G01X0025912Y-062784D01*
G01X0025912Y-062784D02*
G01X0025950Y-062803D01*
G01X0025950Y-062803D02*
G01X0025969Y-062822D01*
G01X0025969Y-062822D02*
G01X0025987Y-062859D01*
G01X0025987Y-062859D02*
G01X0026006Y-062934D01*
G01X0026006Y-062934D02*
G01X0026006Y-063028D01*
G01X0026006Y-063028D02*
G01X0025987Y-063103D01*
G01X0025987Y-063103D02*
G01X0025969Y-063141D01*
G01X0025969Y-063141D02*
G01X0025950Y-063159D01*
G01X0025950Y-063159D02*
G01X0025912Y-063178D01*
G01X0025912Y-063178D02*
G01X0025875Y-063178D01*
G01X0025875Y-063178D02*
G01X0025837Y-063159D01*
G01X0025837Y-063159D02*
G01X0025819Y-063141D01*
G01X0025819Y-063141D02*
G01X0025800Y-063103D01*
G01X0025800Y-063103D02*
G01X0025781Y-063028D01*
G01X0025781Y-063028D02*
G01X0025781Y-062934D01*
G01X0025781Y-062934D02*
G01X0025800Y-062859D01*
G01X0025800Y-062859D02*
G01X0025819Y-062822D01*
G01X0025819Y-062822D02*
G01X0025837Y-062803D01*
G01X0025837Y-062803D02*
G01X0025875Y-062784D01*
G01X0025013Y-062178D02*
G01X0025013Y-061784D01*
G01X0025013Y-061784D02*
G01X0025163Y-061784D01*
G01X0025163Y-061784D02*
G01X0025200Y-061803D01*
G01X0025200Y-061803D02*
G01X0025219Y-061822D01*
G01X0025219Y-061822D02*
G01X0025238Y-061859D01*
G01X0025238Y-061859D02*
G01X0025238Y-061916D01*
G01X0025238Y-061916D02*
G01X0025219Y-061953D01*
G01X0025219Y-061953D02*
G01X0025200Y-061972D01*
G01X0025200Y-061972D02*
G01X0025163Y-061991D01*
G01X0025163Y-061991D02*
G01X0025013Y-061991D01*
G01X0025631Y-062141D02*
G01X0025612Y-062159D01*
G01X0025612Y-062159D02*
G01X0025556Y-062178D01*
G01X0025556Y-062178D02*
G01X0025519Y-062178D01*
G01X0025519Y-062178D02*
G01X0025463Y-062159D01*
G01X0025463Y-062159D02*
G01X0025425Y-062122D01*
G01X0025425Y-062122D02*
G01X0025406Y-062084D01*
G01X0025406Y-062084D02*
G01X0025388Y-062009D01*
G01X0025388Y-062009D02*
G01X0025388Y-061953D01*
G01X0025388Y-061953D02*
G01X0025406Y-061878D01*
G01X0025406Y-061878D02*
G01X0025425Y-061841D01*
G01X0025425Y-061841D02*
G01X0025463Y-061803D01*
G01X0025463Y-061803D02*
G01X0025519Y-061784D01*
G01X0025519Y-061784D02*
G01X0025556Y-061784D01*
G01X0025556Y-061784D02*
G01X0025612Y-061803D01*
G01X0025612Y-061803D02*
G01X0025631Y-061822D01*
G01X0025762Y-061784D02*
G01X0026025Y-061784D01*
G01X0026025Y-061784D02*
G01X0025856Y-062178D01*
G01X0025228Y-061178D02*
G01X0025228Y-060784D01*
G01X0025228Y-060784D02*
G01X0025378Y-060784D01*
G01X0025378Y-060784D02*
G01X0025416Y-060803D01*
G01X0025416Y-060803D02*
G01X0025434Y-060822D01*
G01X0025434Y-060822D02*
G01X0025453Y-060859D01*
G01X0025453Y-060859D02*
G01X0025453Y-060916D01*
G01X0025453Y-060916D02*
G01X0025434Y-060953D01*
G01X0025434Y-060953D02*
G01X0025416Y-060972D01*
G01X0025416Y-060972D02*
G01X0025378Y-060991D01*
G01X0025378Y-060991D02*
G01X0025228Y-060991D01*
G01X0025566Y-060784D02*
G01X0025697Y-061178D01*
G01X0025697Y-061178D02*
G01X0025828Y-060784D01*
G01X0025191Y-060178D02*
G01X0025191Y-059784D01*
G01X0025191Y-059784D02*
G01X0025341Y-059784D01*
G01X0025341Y-059784D02*
G01X0025378Y-059803D01*
G01X0025378Y-059803D02*
G01X0025397Y-059822D01*
G01X0025397Y-059822D02*
G01X0025416Y-059859D01*
G01X0025416Y-059859D02*
G01X0025416Y-059916D01*
G01X0025416Y-059916D02*
G01X0025397Y-059953D01*
G01X0025397Y-059953D02*
G01X0025378Y-059972D01*
G01X0025378Y-059972D02*
G01X0025341Y-059991D01*
G01X0025341Y-059991D02*
G01X0025191Y-059991D01*
G01X0025584Y-059784D02*
G01X0025584Y-060103D01*
G01X0025584Y-060103D02*
G01X0025603Y-060141D01*
G01X0025603Y-060141D02*
G01X0025622Y-060159D01*
G01X0025622Y-060159D02*
G01X0025659Y-060178D01*
G01X0025659Y-060178D02*
G01X0025734Y-060178D01*
G01X0025734Y-060178D02*
G01X0025772Y-060159D01*
G01X0025772Y-060159D02*
G01X0025791Y-060141D01*
G01X0025791Y-060141D02*
G01X0025809Y-060103D01*
G01X0025809Y-060103D02*
G01X0025809Y-059784D01*
G01X0024970Y-058640D02*
G01X0025088Y-058640D01*
G01X0024994Y-059178D02*
G01X0024994Y-058784D01*
G01X0025088Y-058640D02*
G01X0025500Y-058640D01*
G01X0025181Y-059178D02*
G01X0025181Y-058784D01*
G01X0025181Y-058784D02*
G01X0025406Y-059178D01*
G01X0025406Y-059178D02*
G01X0025406Y-058784D01*
G01X0025500Y-058640D02*
G01X0025912Y-058640D01*
G01X0025594Y-059178D02*
G01X0025594Y-058784D01*
G01X0025594Y-058972D02*
G01X0025819Y-058972D01*
G01X0025819Y-059178D02*
G01X0025819Y-058784D01*
G01X0025912Y-058640D02*
G01X0026100Y-058640D01*
G01X0026006Y-059141D02*
G01X0026025Y-059159D01*
G01X0026025Y-059159D02*
G01X0026006Y-059178D01*
G01X0026006Y-059178D02*
G01X0025987Y-059159D01*
G01X0025987Y-059159D02*
G01X0026006Y-059141D01*
G01X0026006Y-059141D02*
G01X0026006Y-059178D01*
G01X0024979Y-057640D02*
G01X0025359Y-057640D01*
G01X0024966Y-057784D02*
G01X0025059Y-058178D01*
G01X0025059Y-058178D02*
G01X0025134Y-057897D01*
G01X0025134Y-057897D02*
G01X0025209Y-058178D01*
G01X0025209Y-058178D02*
G01X0025303Y-057784D01*
G01X0025359Y-057640D02*
G01X0025716Y-057640D01*
G01X0025453Y-057972D02*
G01X0025584Y-057972D01*
G01X0025641Y-058178D02*
G01X0025453Y-058178D01*
G01X0025453Y-058178D02*
G01X0025453Y-057784D01*
G01X0025453Y-057784D02*
G01X0025641Y-057784D01*
G01X0025716Y-057640D02*
G01X0026091Y-057640D01*
G01X0025772Y-057784D02*
G01X0026034Y-058178D01*
G01X0026034Y-057784D02*
G01X0025772Y-058178D01*
G01X0025144Y-056784D02*
G01X0025238Y-057178D01*
G01X0025238Y-057178D02*
G01X0025313Y-056897D01*
G01X0025313Y-056897D02*
G01X0025388Y-057178D01*
G01X0025388Y-057178D02*
G01X0025481Y-056784D01*
G01X0025837Y-057178D02*
G01X0025612Y-057178D01*
G01X0025725Y-057178D02*
G01X0025725Y-056784D01*
G01X0025725Y-056784D02*
G01X0025687Y-056841D01*
G01X0025687Y-056841D02*
G01X0025650Y-056878D01*
G01X0025650Y-056878D02*
G01X0025612Y-056897D01*
G01X0025144Y-056178D02*
G01X0025144Y-055784D01*
G01X0025331Y-056178D02*
G01X0025331Y-055784D01*
G01X0025331Y-055784D02*
G01X0025556Y-056178D01*
G01X0025556Y-056178D02*
G01X0025556Y-055784D01*
G01X0025687Y-055784D02*
G01X0025912Y-055784D01*
G01X0025800Y-056178D02*
G01X0025800Y-055784D01*
G01X0024200Y-053053D02*
G01X0024163Y-053034D01*
G01X0024163Y-053034D02*
G01X0024106Y-053034D01*
G01X0024106Y-053034D02*
G01X0024050Y-053053D01*
G01X0024050Y-053053D02*
G01X0024013Y-053091D01*
G01X0024013Y-053091D02*
G01X0023994Y-053128D01*
G01X0023994Y-053128D02*
G01X0023975Y-053203D01*
G01X0023975Y-053203D02*
G01X0023975Y-053259D01*
G01X0023975Y-053259D02*
G01X0023994Y-053334D01*
G01X0023994Y-053334D02*
G01X0024013Y-053372D01*
G01X0024013Y-053372D02*
G01X0024050Y-053409D01*
G01X0024050Y-053409D02*
G01X0024106Y-053428D01*
G01X0024106Y-053428D02*
G01X0024144Y-053428D01*
G01X0024144Y-053428D02*
G01X0024200Y-053409D01*
G01X0024200Y-053409D02*
G01X0024219Y-053391D01*
G01X0024219Y-053391D02*
G01X0024219Y-053259D01*
G01X0024219Y-053259D02*
G01X0024144Y-053259D01*
G01X0024388Y-053428D02*
G01X0024388Y-053034D01*
G01X0024388Y-053034D02*
G01X0024612Y-053428D01*
G01X0024612Y-053428D02*
G01X0024612Y-053034D01*
G01X0024800Y-053428D02*
G01X0024800Y-053034D01*
G01X0024800Y-053034D02*
G01X0024894Y-053034D01*
G01X0024894Y-053034D02*
G01X0024950Y-053053D01*
G01X0024950Y-053053D02*
G01X0024987Y-053091D01*
G01X0024987Y-053091D02*
G01X0025006Y-053128D01*
G01X0025006Y-053128D02*
G01X0025025Y-053203D01*
G01X0025025Y-053203D02*
G01X0025025Y-053259D01*
G01X0025025Y-053259D02*
G01X0025006Y-053334D01*
G01X0025006Y-053334D02*
G01X0024987Y-053372D01*
G01X0024987Y-053372D02*
G01X0024950Y-053409D01*
G01X0024950Y-053409D02*
G01X0024894Y-053428D01*
G01X0024894Y-053428D02*
G01X0024800Y-053428D01*
G01X0044956Y-053222D02*
G01X0044825Y-053222D01*
G01X0044825Y-053428D02*
G01X0044825Y-053034D01*
G01X0044825Y-053034D02*
G01X0045013Y-053034D01*
G01X0045369Y-053053D02*
G01X0045331Y-053034D01*
G01X0045331Y-053034D02*
G01X0045275Y-053034D01*
G01X0045275Y-053034D02*
G01X0045219Y-053053D01*
G01X0045219Y-053053D02*
G01X0045181Y-053091D01*
G01X0045181Y-053091D02*
G01X0045163Y-053128D01*
G01X0045163Y-053128D02*
G01X0045144Y-053203D01*
G01X0045144Y-053203D02*
G01X0045144Y-053259D01*
G01X0045144Y-053259D02*
G01X0045163Y-053334D01*
G01X0045163Y-053334D02*
G01X0045181Y-053372D01*
G01X0045181Y-053372D02*
G01X0045219Y-053409D01*
G01X0045219Y-053409D02*
G01X0045275Y-053428D01*
G01X0045275Y-053428D02*
G01X0045313Y-053428D01*
G01X0045313Y-053428D02*
G01X0045369Y-053409D01*
G01X0045369Y-053409D02*
G01X0045388Y-053391D01*
G01X0045388Y-053391D02*
G01X0045388Y-053259D01*
G01X0045388Y-053259D02*
G01X0045313Y-053259D01*
G01X0045556Y-053428D02*
G01X0045556Y-053034D01*
G01X0045556Y-053034D02*
G01X0045781Y-053428D01*
G01X0045781Y-053428D02*
G01X0045781Y-053034D01*
G01X0045969Y-053428D02*
G01X0045969Y-053034D01*
G01X0045969Y-053034D02*
G01X0046062Y-053034D01*
G01X0046062Y-053034D02*
G01X0046119Y-053053D01*
G01X0046119Y-053053D02*
G01X0046156Y-053091D01*
G01X0046156Y-053091D02*
G01X0046175Y-053128D01*
G01X0046175Y-053128D02*
G01X0046194Y-053203D01*
G01X0046194Y-053203D02*
G01X0046194Y-053259D01*
G01X0046194Y-053259D02*
G01X0046175Y-053334D01*
G01X0046175Y-053334D02*
G01X0046156Y-053372D01*
G01X0046156Y-053372D02*
G01X0046119Y-053409D01*
G01X0046119Y-053409D02*
G01X0046062Y-053428D01*
G01X0046062Y-053428D02*
G01X0045969Y-053428D01*
G01X0037684Y-053278D02*
G01X0037984Y-053278D01*
G01X0037834Y-053428D02*
G01X0037834Y-053128D01*
G01X0038303Y-053222D02*
G01X0038359Y-053241D01*
G01X0038359Y-053241D02*
G01X0038378Y-053259D01*
G01X0038378Y-053259D02*
G01X0038397Y-053297D01*
G01X0038397Y-053297D02*
G01X0038397Y-053353D01*
G01X0038397Y-053353D02*
G01X0038378Y-053391D01*
G01X0038378Y-053391D02*
G01X0038359Y-053409D01*
G01X0038359Y-053409D02*
G01X0038322Y-053428D01*
G01X0038322Y-053428D02*
G01X0038172Y-053428D01*
G01X0038172Y-053428D02*
G01X0038172Y-053034D01*
G01X0038172Y-053034D02*
G01X0038303Y-053034D01*
G01X0038303Y-053034D02*
G01X0038341Y-053053D01*
G01X0038341Y-053053D02*
G01X0038359Y-053072D01*
G01X0038359Y-053072D02*
G01X0038378Y-053109D01*
G01X0038378Y-053109D02*
G01X0038378Y-053147D01*
G01X0038378Y-053147D02*
G01X0038359Y-053184D01*
G01X0038359Y-053184D02*
G01X0038341Y-053203D01*
G01X0038341Y-053203D02*
G01X0038303Y-053222D01*
G01X0038303Y-053222D02*
G01X0038172Y-053222D01*
G01X0038547Y-053316D02*
G01X0038734Y-053316D01*
G01X0038509Y-053428D02*
G01X0038641Y-053034D01*
G01X0038641Y-053034D02*
G01X0038772Y-053428D01*
G01X0038847Y-053034D02*
G01X0039072Y-053034D01*
G01X0038959Y-053428D02*
G01X0038959Y-053034D01*
G01X0039147Y-053034D02*
G01X0039372Y-053034D01*
G01X0039259Y-053428D02*
G01X0039259Y-053034D01*
G01X0030806Y-053278D02*
G01X0031106Y-053278D01*
G01X0030956Y-053428D02*
G01X0030956Y-053128D01*
G01X0031463Y-053166D02*
G01X0031463Y-053428D01*
G01X0031369Y-053016D02*
G01X0031275Y-053297D01*
G01X0031275Y-053297D02*
G01X0031519Y-053297D01*
G01X0031612Y-053034D02*
G01X0031744Y-053428D01*
G01X0031744Y-053428D02*
G01X0031875Y-053034D01*
G01X0031969Y-053034D02*
G01X0032231Y-053034D01*
G01X0032231Y-053034D02*
G01X0032062Y-053428D01*
G54D12*
G01X0033697Y-050516D02*
G01X0033146Y-050516D01*
G01X0032870Y-050240D02*
G01X0032870Y-050004D01*
G01X0033146Y-049728D02*
G01X0033697Y-049728D01*
G01X0033972Y-050004D02*
G01X0033972Y-050240D01*
G01X0033972Y-050240D02*
G75*
G02X0033697Y-050516I-000276J0000000D01*
G01X0033697Y-049728D02*
G75*
G02X0033972Y-050004I0000000J-000276D01*
G01X0032870Y-050004D02*
G75*
G02X0033146Y-049728I0000276J0000000D01*
G01X0033146Y-050516D02*
G75*
G02X0032870Y-050240I0000000J0000276D01*
G01X0040193Y-050516D02*
G75*
G02X0039917Y-050240I0000000J0000276D01*
G01X0039917Y-050004D02*
G75*
G02X0040193Y-049728I0000276J0000000D01*
G01X0040744Y-049728D02*
G75*
G02X0041020Y-050004I0000000J-000276D01*
G01X0041020Y-050240D02*
G75*
G02X0040744Y-050516I-000276J0000000D01*
G01X0041020Y-050004D02*
G01X0041020Y-050240D01*
G01X0040193Y-049728D02*
G01X0040744Y-049728D01*
G01X0039917Y-050240D02*
G01X0039917Y-050004D01*
G01X0040744Y-050516D02*
G01X0040193Y-050516D01*
M02*
