G04 #@! TF.GenerationSoftware,KiCad,Pcbnew,5.1.10-88a1d61d58~88~ubuntu20.10.1*
G04 #@! TF.CreationDate,2021-05-06T21:06:24+02:00*
G04 #@! TF.ProjectId,breakout-board,62726561-6b6f-4757-942d-626f6172642e,1.0*
G04 #@! TF.SameCoordinates,Original*
G04 #@! TF.FileFunction,Copper,L1,Top*
G04 #@! TF.FilePolarity,Positive*
%FSLAX46Y46*%
G04 Gerber Fmt 4.6, Leading zero omitted, Abs format (unit mm)*
G04 Created by KiCad (PCBNEW 5.1.10-88a1d61d58~88~ubuntu20.10.1) date 2021-05-06 21:06:24*
%MOMM*%
%LPD*%
G01*
G04 APERTURE LIST*
G04 #@! TA.AperFunction,SMDPad,CuDef*
%ADD10R,1.150000X1.400000*%
G04 #@! TD*
G04 #@! TA.AperFunction,ComponentPad*
%ADD11O,1.700000X1.700000*%
G04 #@! TD*
G04 #@! TA.AperFunction,ComponentPad*
%ADD12R,1.700000X1.700000*%
G04 #@! TD*
G04 #@! TA.AperFunction,ComponentPad*
%ADD13C,1.524000*%
G04 #@! TD*
G04 #@! TA.AperFunction,Conductor*
%ADD14C,0.250000*%
G04 #@! TD*
G04 #@! TA.AperFunction,Conductor*
%ADD15C,0.350000*%
G04 #@! TD*
G04 #@! TA.AperFunction,Conductor*
%ADD16C,0.254000*%
G04 #@! TD*
G04 #@! TA.AperFunction,Conductor*
%ADD17C,0.150000*%
G04 #@! TD*
G04 APERTURE END LIST*
D10*
X91360000Y-40950000D03*
X89660000Y-40950000D03*
X109140000Y-40950000D03*
X107440000Y-40950000D03*
D11*
X127000000Y-66040000D03*
X127000000Y-68580000D03*
X127000000Y-71120000D03*
D12*
X127000000Y-73660000D03*
X71120000Y-73660000D03*
D11*
X71120000Y-71120000D03*
X71120000Y-68580000D03*
X71120000Y-66040000D03*
X71120000Y-63500000D03*
X71120000Y-60960000D03*
X71120000Y-58420000D03*
X71120000Y-55880000D03*
X83740000Y-55880000D03*
X83740000Y-58420000D03*
X83740000Y-60960000D03*
X83740000Y-63500000D03*
X83740000Y-66040000D03*
X83740000Y-68580000D03*
X83740000Y-71120000D03*
D12*
X83740000Y-73660000D03*
X127000000Y-58420000D03*
D11*
X127000000Y-55880000D03*
D12*
X114220000Y-73660000D03*
D11*
X111680000Y-73660000D03*
X114220000Y-71120000D03*
X111680000Y-71120000D03*
X114220000Y-68580000D03*
X111680000Y-68580000D03*
X114220000Y-66040000D03*
X111680000Y-66040000D03*
X114220000Y-63500000D03*
X111680000Y-63500000D03*
X114220000Y-60960000D03*
X111680000Y-60960000D03*
X114220000Y-58420000D03*
X111680000Y-58420000D03*
X114220000Y-55880000D03*
X111680000Y-55880000D03*
D12*
X96440000Y-73660000D03*
D11*
X96440000Y-71120000D03*
X96440000Y-68580000D03*
X96440000Y-66040000D03*
X96440000Y-63500000D03*
X96440000Y-60960000D03*
X96440000Y-58420000D03*
X96440000Y-55880000D03*
D12*
X127000000Y-45720000D03*
D11*
X124460000Y-45720000D03*
X88900000Y-45720000D03*
D12*
X91440000Y-45720000D03*
D11*
X106680000Y-45720000D03*
D12*
X109220000Y-45720000D03*
X73660000Y-45720000D03*
D11*
X71120000Y-45720000D03*
D13*
X134545000Y-78570000D03*
X136450000Y-77300000D03*
X134545000Y-76030000D03*
X136450000Y-74760000D03*
X134545000Y-73490000D03*
X136450000Y-72220000D03*
X134545000Y-70950000D03*
X136450000Y-69680000D03*
X134545000Y-68410000D03*
X136450000Y-67140000D03*
X134545000Y-65870000D03*
X136450000Y-64600000D03*
X134545000Y-63330000D03*
X136450000Y-62060000D03*
X134545000Y-60790000D03*
X136450000Y-59520000D03*
X134545000Y-58250000D03*
X136450000Y-56980000D03*
X134545000Y-55710000D03*
X136450000Y-54440000D03*
X134545000Y-53170000D03*
X136450000Y-51900000D03*
X134545000Y-50630000D03*
X136450000Y-49360000D03*
X134545000Y-48090000D03*
X136450000Y-46820000D03*
X134545000Y-45550000D03*
X136450000Y-44280000D03*
X134545000Y-43010000D03*
X136450000Y-41740000D03*
X138355000Y-78570000D03*
X140260000Y-77300000D03*
X138355000Y-76030000D03*
X140260000Y-74760000D03*
X138355000Y-73490000D03*
X140260000Y-72220000D03*
X138355000Y-70950000D03*
X140260000Y-69680000D03*
X138355000Y-68410000D03*
X140260000Y-67140000D03*
X138355000Y-65870000D03*
X140260000Y-64600000D03*
X138355000Y-63330000D03*
X140260000Y-62060000D03*
X138355000Y-60790000D03*
X140260000Y-59520000D03*
X138355000Y-58250000D03*
X140260000Y-56980000D03*
X138355000Y-55710000D03*
X140260000Y-54440000D03*
X138355000Y-53170000D03*
X140260000Y-51900000D03*
X138355000Y-50630000D03*
X140260000Y-49360000D03*
X138355000Y-48090000D03*
X140260000Y-46820000D03*
X138355000Y-45550000D03*
X140260000Y-44280000D03*
X138355000Y-43010000D03*
X140260000Y-41740000D03*
D10*
X84660000Y-40950000D03*
X86360000Y-40950000D03*
X104140000Y-40950000D03*
X102440000Y-40950000D03*
D14*
X89660000Y-40950000D02*
X86360000Y-40950000D01*
X107440000Y-40950000D02*
X104140000Y-40950000D01*
D15*
X91360000Y-45107300D02*
X90738000Y-45107300D01*
X91440000Y-45107300D02*
X91360000Y-45107300D01*
X91360000Y-45107300D02*
X91360000Y-42025300D01*
X91360000Y-40950000D02*
X91360000Y-42025300D01*
X91360000Y-40950000D02*
X92310300Y-40950000D01*
X140260000Y-64600000D02*
X142504900Y-62355100D01*
X142504900Y-62355100D02*
X142504900Y-40716600D01*
X142504900Y-40716600D02*
X141249700Y-39461400D01*
X141249700Y-39461400D02*
X93798900Y-39461400D01*
X93798900Y-39461400D02*
X92310300Y-40950000D01*
X91440000Y-45720000D02*
X91440000Y-45107300D01*
X138355000Y-65870000D02*
X137085000Y-64600000D01*
X137085000Y-64600000D02*
X136450000Y-64600000D01*
X88900000Y-45720000D02*
X91440000Y-45720000D01*
X109140000Y-45107300D02*
X108518000Y-45107300D01*
X109220000Y-45107300D02*
X109140000Y-45107300D01*
X109140000Y-45107300D02*
X109140000Y-42025300D01*
X109140000Y-40950000D02*
X109140000Y-42025300D01*
X109220000Y-45720000D02*
X109220000Y-45107300D01*
X106680000Y-45720000D02*
X109220000Y-45720000D01*
X110037012Y-40052988D02*
X141033583Y-40052988D01*
X109140000Y-40950000D02*
X110037012Y-40052988D01*
X141033583Y-40052988D02*
X141953000Y-40972405D01*
X141953000Y-40972405D02*
X141953000Y-55287000D01*
X141953000Y-55287000D02*
X140260000Y-56980000D01*
X140260000Y-56980000D02*
X140260000Y-59520000D01*
X139625000Y-51900000D02*
X138355000Y-50630000D01*
X140260000Y-51900000D02*
X139625000Y-51900000D01*
X138990000Y-50630000D02*
X140260000Y-49360000D01*
X138355000Y-50630000D02*
X138990000Y-50630000D01*
X139625000Y-49360000D02*
X138355000Y-48090000D01*
X140260000Y-49360000D02*
X139625000Y-49360000D01*
X104160000Y-48940000D02*
X102440000Y-47220000D01*
X113160000Y-48940000D02*
X104160000Y-48940000D01*
X131060000Y-43140000D02*
X118960000Y-43140000D01*
X118960000Y-43140000D02*
X113160000Y-48940000D01*
X140805761Y-40602999D02*
X133597001Y-40602999D01*
X102440000Y-47220000D02*
X102440000Y-40950000D01*
X141397001Y-41194239D02*
X140805761Y-40602999D01*
X141397001Y-48222999D02*
X141397001Y-41194239D01*
X133597001Y-40602999D02*
X131060000Y-43140000D01*
X140260000Y-49360000D02*
X141397001Y-48222999D01*
X124460000Y-45720000D02*
X127000000Y-45720000D01*
D14*
X138355000Y-56662500D02*
X138355000Y-55710000D01*
X139489600Y-57797100D02*
X138355000Y-56662500D01*
X139489600Y-58702900D02*
X139489600Y-57797100D01*
X139093400Y-59099100D02*
X139489600Y-58702900D01*
X139093400Y-59940900D02*
X139093400Y-59099100D01*
X139488500Y-60336000D02*
X139093400Y-59940900D01*
X127000000Y-66040000D02*
X132766238Y-66040000D01*
X134679401Y-64782999D02*
X135972800Y-63489600D01*
X139172700Y-61510200D02*
X139488500Y-61194400D01*
X132766238Y-66040000D02*
X134023239Y-64782999D01*
X134023239Y-64782999D02*
X134679401Y-64782999D01*
X139452100Y-62839600D02*
X139172700Y-62560200D01*
X138855400Y-64440600D02*
X139452100Y-63843900D01*
X135972800Y-63489600D02*
X136976900Y-63489600D01*
X136976900Y-63489600D02*
X137927900Y-64440600D01*
X137927900Y-64440600D02*
X138855400Y-64440600D01*
X139452100Y-63843900D02*
X139452100Y-62839600D01*
X139172700Y-62560200D02*
X139172700Y-61510200D01*
X139488500Y-61194400D02*
X139488500Y-60336000D01*
X136933200Y-66035800D02*
X138037400Y-67140000D01*
X135966600Y-66035800D02*
X136933200Y-66035800D01*
X134679401Y-67322999D02*
X135966600Y-66035800D01*
X138037400Y-67140000D02*
X140260000Y-67140000D01*
X128257001Y-67322999D02*
X134679401Y-67322999D01*
X127000000Y-68580000D02*
X128257001Y-67322999D01*
X139942400Y-73490000D02*
X140529700Y-73490000D01*
X141868600Y-74828900D02*
X141868600Y-77904300D01*
X140105900Y-79667000D02*
X133903410Y-79667000D01*
X134545000Y-68410000D02*
X136767500Y-68410000D01*
X131321467Y-77085056D02*
X110821466Y-77085056D01*
X110821466Y-77085056D02*
X106221110Y-72484700D01*
X106221110Y-72484700D02*
X72295300Y-72484700D01*
X138513000Y-72060600D02*
X139942400Y-73490000D01*
X133903410Y-79667000D02*
X131321467Y-77085056D01*
X72295300Y-72484700D02*
X71120000Y-73660000D01*
X140529700Y-73490000D02*
X141868600Y-74828900D01*
X137581100Y-69223600D02*
X137581100Y-70136400D01*
X137927800Y-72060600D02*
X138513000Y-72060600D01*
X137256800Y-70460700D02*
X137256800Y-71389600D01*
X137581100Y-70136400D02*
X137256800Y-70460700D01*
X136767500Y-68410000D02*
X137581100Y-69223600D01*
X141868600Y-77904300D02*
X140105900Y-79667000D01*
X137256800Y-71389600D02*
X137927800Y-72060600D01*
X99627000Y-69755300D02*
X104612300Y-64770000D01*
X71120000Y-68580000D02*
X72295300Y-69755300D01*
X104612300Y-64770000D02*
X130565000Y-64770000D01*
X130565000Y-64770000D02*
X134545000Y-60790000D01*
X72295300Y-69755300D02*
X99627000Y-69755300D01*
X72295300Y-67215300D02*
X71120000Y-66040000D01*
X103428600Y-62230000D02*
X98443300Y-67215300D01*
X131496238Y-62230000D02*
X103428600Y-62230000D01*
X98443300Y-67215300D02*
X72295300Y-67215300D01*
X134206238Y-59520000D02*
X131496238Y-62230000D01*
X136450000Y-59520000D02*
X134206238Y-59520000D01*
X128554289Y-52454944D02*
X85454288Y-52454944D01*
X74409232Y-63500000D02*
X71120000Y-63500000D01*
X85454288Y-52454944D02*
X74409232Y-63500000D01*
X132919233Y-48090000D02*
X128554289Y-52454944D01*
X134545000Y-48090000D02*
X132919233Y-48090000D01*
X76312821Y-60960000D02*
X71120000Y-60960000D01*
X85267888Y-52004933D02*
X76312821Y-60960000D01*
X133552822Y-46820000D02*
X128367889Y-52004933D01*
X128367889Y-52004933D02*
X85267888Y-52004933D01*
X136450000Y-46820000D02*
X133552822Y-46820000D01*
X133457999Y-45078412D02*
X134256411Y-44280000D01*
X128181489Y-51554922D02*
X133457999Y-46278412D01*
X134256411Y-44280000D02*
X136450000Y-44280000D01*
X133457999Y-46278412D02*
X133457999Y-45078412D01*
X78216410Y-58420000D02*
X85081488Y-51554922D01*
X85081488Y-51554922D02*
X128181489Y-51554922D01*
X71120000Y-58420000D02*
X78216410Y-58420000D01*
X84895088Y-51104911D02*
X127995089Y-51104911D01*
X71120000Y-55880000D02*
X80120000Y-55880000D01*
X80120000Y-55880000D02*
X84895088Y-51104911D01*
X127995089Y-51104911D02*
X133007988Y-46092012D01*
X133007988Y-42938250D02*
X133007988Y-46092012D01*
X134206238Y-41740000D02*
X133007988Y-42938250D01*
X136450000Y-41740000D02*
X134206238Y-41740000D01*
X83740000Y-63500000D02*
X85260000Y-61980000D01*
X85260000Y-61980000D02*
X85260000Y-53340000D01*
X136605763Y-50812999D02*
X137537001Y-49881761D01*
X135928239Y-50812999D02*
X136605763Y-50812999D01*
X85260000Y-53340000D02*
X85695045Y-52904955D01*
X137267999Y-48569237D02*
X137267999Y-47568239D01*
X85695045Y-52904955D02*
X133195045Y-52904955D01*
X133195045Y-52904955D02*
X134017001Y-52082999D01*
X137267999Y-47568239D02*
X138355000Y-46481238D01*
X134017001Y-52082999D02*
X134658239Y-52082999D01*
X134658239Y-52082999D02*
X135928239Y-50812999D01*
X137537001Y-49881761D02*
X137537001Y-48838239D01*
X138355000Y-46481238D02*
X138355000Y-45550000D01*
X137537001Y-48838239D02*
X137267999Y-48569237D01*
X107900000Y-74800000D02*
X107864999Y-74835001D01*
X131135067Y-77535067D02*
X110635065Y-77535065D01*
X133732100Y-80132100D02*
X131135067Y-77535067D01*
X140277700Y-80132100D02*
X133732100Y-80132100D01*
X107864999Y-74835001D02*
X84915001Y-74835001D01*
X142319100Y-78090700D02*
X140277700Y-80132100D01*
X142319100Y-72711900D02*
X142319100Y-78090700D01*
X140557200Y-70950000D02*
X142319100Y-72711900D01*
X84915001Y-74835001D02*
X83740000Y-73660000D01*
X139942500Y-70950000D02*
X140557200Y-70950000D01*
X110635065Y-77535065D02*
X107900000Y-74800000D01*
X138355000Y-69362500D02*
X139942500Y-70950000D01*
X138355000Y-68410000D02*
X138355000Y-69362500D01*
X131365021Y-74835001D02*
X115395001Y-74835001D01*
X136450000Y-70653762D02*
X134700763Y-72402999D01*
X115395001Y-74835001D02*
X114220000Y-73660000D01*
X133797023Y-72402999D02*
X131365021Y-74835001D01*
X134700763Y-72402999D02*
X133797023Y-72402999D01*
X136450000Y-69680000D02*
X136450000Y-70653762D01*
X134545000Y-70950000D02*
X133010001Y-72484999D01*
X112855001Y-72484999D02*
X111680000Y-73660000D01*
X133010001Y-72484999D02*
X112855001Y-72484999D01*
X115395300Y-69944700D02*
X114220000Y-71120000D01*
X138489700Y-77482700D02*
X137904600Y-77482700D01*
X136450000Y-72220000D02*
X136450000Y-73172500D01*
X111187100Y-67399900D02*
X114703700Y-67399900D01*
X138698300Y-74785900D02*
X139942400Y-76030000D01*
X111007865Y-76635045D02*
X109096200Y-74723380D01*
X109096200Y-69490800D02*
X111187100Y-67399900D01*
X138063400Y-74785900D02*
X138698300Y-74785900D01*
X109096200Y-74723380D02*
X109096200Y-69490800D01*
X137904600Y-77482700D02*
X136955800Y-78431500D01*
X136955800Y-78431500D02*
X135944400Y-78431500D01*
X131507867Y-76635045D02*
X111007865Y-76635045D01*
X132072800Y-77199978D02*
X131507867Y-76635045D01*
X136450000Y-73172500D02*
X138063400Y-74785900D01*
X134712878Y-77199978D02*
X132072800Y-77199978D01*
X135944400Y-78431500D02*
X134712878Y-77199978D01*
X114703700Y-67399900D02*
X115395300Y-68091500D01*
X139942400Y-76030000D02*
X138489700Y-77482700D01*
X115395300Y-68091500D02*
X115395300Y-69944700D01*
X110504700Y-72295300D02*
X111680000Y-71120000D01*
X134545000Y-73490000D02*
X133467370Y-73490000D01*
X110504700Y-74165600D02*
X110504700Y-72295300D01*
X133467370Y-73490000D02*
X131672358Y-75285012D01*
X111624112Y-75285012D02*
X110504700Y-74165600D01*
X131672358Y-75285012D02*
X111624112Y-75285012D01*
X131880667Y-75735023D02*
X111417023Y-75735023D01*
X132855690Y-74760000D02*
X131880667Y-75735023D01*
X110049900Y-71083700D02*
X111378300Y-69755300D01*
X111417023Y-75735023D02*
X110049900Y-74367900D01*
X111378300Y-69755300D02*
X113044700Y-69755300D01*
X113044700Y-69755300D02*
X114220000Y-68580000D01*
X110049900Y-74367900D02*
X110049900Y-71083700D01*
X136450000Y-74760000D02*
X132855690Y-74760000D01*
X111194264Y-76185034D02*
X109599500Y-74590270D01*
X109599500Y-74590270D02*
X109599500Y-70660500D01*
X134545000Y-76030000D02*
X134389966Y-76185034D01*
X109599500Y-70660500D02*
X111680000Y-68580000D01*
X134389966Y-76185034D02*
X111194264Y-76185034D01*
X95354034Y-53354966D02*
X93900000Y-54809000D01*
X93900000Y-63500000D02*
X96440000Y-66040000D01*
X134360034Y-53354966D02*
X95354034Y-53354966D01*
X93900000Y-54809000D02*
X93900000Y-63500000D01*
X134545000Y-53170000D02*
X134360034Y-53354966D01*
X94350300Y-54995600D02*
X94350300Y-61410300D01*
X95540923Y-53804977D02*
X94350300Y-54995600D01*
X136450000Y-54440000D02*
X132939059Y-54440000D01*
X132939059Y-54440000D02*
X132304037Y-53804977D01*
X132304037Y-53804977D02*
X95540923Y-53804977D01*
X94350300Y-61410300D02*
X96440000Y-63500000D01*
X94800600Y-55182200D02*
X94800600Y-59320600D01*
X94800600Y-59320600D02*
X96440000Y-60960000D01*
X134545000Y-55710000D02*
X133572649Y-55710000D01*
X95727812Y-54254988D02*
X94800600Y-55182200D01*
X132117637Y-54254988D02*
X95727812Y-54254988D01*
X133572649Y-55710000D02*
X132117637Y-54254988D01*
X95250900Y-55368800D02*
X95250900Y-57230900D01*
X95914701Y-54704999D02*
X95250900Y-55368800D01*
X131931237Y-54704999D02*
X95914701Y-54704999D01*
X134206238Y-56980000D02*
X131931237Y-54704999D01*
X136450000Y-56980000D02*
X134206238Y-56980000D01*
X95250900Y-57230900D02*
X96440000Y-58420000D01*
X97615300Y-57055300D02*
X96440000Y-55880000D01*
X133350300Y-57055300D02*
X97615300Y-57055300D01*
X134545000Y-58250000D02*
X133350300Y-57055300D01*
D16*
X142475000Y-39541188D02*
X141850599Y-38916787D01*
X141825228Y-38885872D01*
X141701889Y-38784651D01*
X141561173Y-38709437D01*
X141408488Y-38663120D01*
X141289491Y-38651400D01*
X141289488Y-38651400D01*
X141249700Y-38647481D01*
X141209912Y-38651400D01*
X93838687Y-38651400D01*
X93798899Y-38647481D01*
X93759111Y-38651400D01*
X93759109Y-38651400D01*
X93640112Y-38663120D01*
X93487427Y-38709437D01*
X93421924Y-38744449D01*
X93346710Y-38784651D01*
X93291110Y-38830281D01*
X93223372Y-38885872D01*
X93198005Y-38916782D01*
X92347621Y-39767167D01*
X92289494Y-39719463D01*
X92179180Y-39660498D01*
X92059482Y-39624188D01*
X91935000Y-39611928D01*
X90785000Y-39611928D01*
X90660518Y-39624188D01*
X90540820Y-39660498D01*
X90510000Y-39676972D01*
X90479180Y-39660498D01*
X90359482Y-39624188D01*
X90235000Y-39611928D01*
X89085000Y-39611928D01*
X88960518Y-39624188D01*
X88840820Y-39660498D01*
X88730506Y-39719463D01*
X88633815Y-39798815D01*
X88554463Y-39895506D01*
X88495498Y-40005820D01*
X88459188Y-40125518D01*
X88452837Y-40190000D01*
X87567163Y-40190000D01*
X87560812Y-40125518D01*
X87524502Y-40005820D01*
X87465537Y-39895506D01*
X87386185Y-39798815D01*
X87289494Y-39719463D01*
X87179180Y-39660498D01*
X87059482Y-39624188D01*
X86935000Y-39611928D01*
X85785000Y-39611928D01*
X85660518Y-39624188D01*
X85540820Y-39660498D01*
X85510000Y-39676972D01*
X85479180Y-39660498D01*
X85359482Y-39624188D01*
X85235000Y-39611928D01*
X84945750Y-39615000D01*
X84787000Y-39773750D01*
X84787000Y-40823000D01*
X84807000Y-40823000D01*
X84807000Y-41077000D01*
X84787000Y-41077000D01*
X84787000Y-42126250D01*
X84945750Y-42285000D01*
X85235000Y-42288072D01*
X85359482Y-42275812D01*
X85479180Y-42239502D01*
X85510000Y-42223028D01*
X85540820Y-42239502D01*
X85660518Y-42275812D01*
X85785000Y-42288072D01*
X86935000Y-42288072D01*
X87059482Y-42275812D01*
X87179180Y-42239502D01*
X87289494Y-42180537D01*
X87386185Y-42101185D01*
X87465537Y-42004494D01*
X87524502Y-41894180D01*
X87560812Y-41774482D01*
X87567163Y-41710000D01*
X88452837Y-41710000D01*
X88459188Y-41774482D01*
X88495498Y-41894180D01*
X88554463Y-42004494D01*
X88633815Y-42101185D01*
X88730506Y-42180537D01*
X88840820Y-42239502D01*
X88960518Y-42275812D01*
X89085000Y-42288072D01*
X90235000Y-42288072D01*
X90359482Y-42275812D01*
X90479180Y-42239502D01*
X90510000Y-42223028D01*
X90540820Y-42239502D01*
X90550001Y-42242287D01*
X90550000Y-44235867D01*
X90465518Y-44244188D01*
X90345820Y-44280498D01*
X90235506Y-44339463D01*
X90138815Y-44418815D01*
X90059463Y-44515506D01*
X90000498Y-44625820D01*
X89978487Y-44698380D01*
X89846632Y-44566525D01*
X89603411Y-44404010D01*
X89333158Y-44292068D01*
X89046260Y-44235000D01*
X88753740Y-44235000D01*
X88466842Y-44292068D01*
X88196589Y-44404010D01*
X87953368Y-44566525D01*
X87746525Y-44773368D01*
X87584010Y-45016589D01*
X87472068Y-45286842D01*
X87415000Y-45573740D01*
X87415000Y-45866260D01*
X87472068Y-46153158D01*
X87584010Y-46423411D01*
X87746525Y-46666632D01*
X87953368Y-46873475D01*
X88196589Y-47035990D01*
X88466842Y-47147932D01*
X88753740Y-47205000D01*
X89046260Y-47205000D01*
X89333158Y-47147932D01*
X89603411Y-47035990D01*
X89846632Y-46873475D01*
X89978487Y-46741620D01*
X90000498Y-46814180D01*
X90059463Y-46924494D01*
X90138815Y-47021185D01*
X90235506Y-47100537D01*
X90345820Y-47159502D01*
X90465518Y-47195812D01*
X90590000Y-47208072D01*
X92290000Y-47208072D01*
X92414482Y-47195812D01*
X92534180Y-47159502D01*
X92644494Y-47100537D01*
X92741185Y-47021185D01*
X92820537Y-46924494D01*
X92879502Y-46814180D01*
X92915812Y-46694482D01*
X92928072Y-46570000D01*
X92928072Y-44870000D01*
X92915812Y-44745518D01*
X92879502Y-44625820D01*
X92820537Y-44515506D01*
X92741185Y-44418815D01*
X92644494Y-44339463D01*
X92534180Y-44280498D01*
X92414482Y-44244188D01*
X92290000Y-44231928D01*
X92170000Y-44231928D01*
X92170000Y-42242287D01*
X92179180Y-42239502D01*
X92289494Y-42180537D01*
X92386185Y-42101185D01*
X92465537Y-42004494D01*
X92524502Y-41894180D01*
X92560812Y-41774482D01*
X92566297Y-41718792D01*
X92621773Y-41701963D01*
X92718989Y-41650000D01*
X101226928Y-41650000D01*
X101239188Y-41774482D01*
X101275498Y-41894180D01*
X101334463Y-42004494D01*
X101413815Y-42101185D01*
X101510506Y-42180537D01*
X101620820Y-42239502D01*
X101740518Y-42275812D01*
X101865000Y-42288072D01*
X102154250Y-42285000D01*
X102313000Y-42126250D01*
X102313000Y-41077000D01*
X101388750Y-41077000D01*
X101230000Y-41235750D01*
X101226928Y-41650000D01*
X92718989Y-41650000D01*
X92762489Y-41626749D01*
X92885828Y-41525528D01*
X92911199Y-41494613D01*
X94134413Y-40271400D01*
X101227087Y-40271400D01*
X101230000Y-40664250D01*
X101388750Y-40823000D01*
X102313000Y-40823000D01*
X102313000Y-40803000D01*
X102567000Y-40803000D01*
X102567000Y-40823000D01*
X102587000Y-40823000D01*
X102587000Y-41077000D01*
X102567000Y-41077000D01*
X102567000Y-42126250D01*
X102725750Y-42285000D01*
X103015000Y-42288072D01*
X103139482Y-42275812D01*
X103259180Y-42239502D01*
X103290000Y-42223028D01*
X103320820Y-42239502D01*
X103440518Y-42275812D01*
X103565000Y-42288072D01*
X104715000Y-42288072D01*
X104839482Y-42275812D01*
X104959180Y-42239502D01*
X105069494Y-42180537D01*
X105166185Y-42101185D01*
X105245537Y-42004494D01*
X105304502Y-41894180D01*
X105340812Y-41774482D01*
X105347163Y-41710000D01*
X106232837Y-41710000D01*
X106239188Y-41774482D01*
X106275498Y-41894180D01*
X106334463Y-42004494D01*
X106413815Y-42101185D01*
X106510506Y-42180537D01*
X106620820Y-42239502D01*
X106740518Y-42275812D01*
X106865000Y-42288072D01*
X108015000Y-42288072D01*
X108139482Y-42275812D01*
X108259180Y-42239502D01*
X108290000Y-42223028D01*
X108320820Y-42239502D01*
X108330001Y-42242287D01*
X108330000Y-44235867D01*
X108245518Y-44244188D01*
X108125820Y-44280498D01*
X108015506Y-44339463D01*
X107918815Y-44418815D01*
X107839463Y-44515506D01*
X107780498Y-44625820D01*
X107758487Y-44698380D01*
X107626632Y-44566525D01*
X107383411Y-44404010D01*
X107113158Y-44292068D01*
X106826260Y-44235000D01*
X106533740Y-44235000D01*
X106246842Y-44292068D01*
X105976589Y-44404010D01*
X105733368Y-44566525D01*
X105526525Y-44773368D01*
X105364010Y-45016589D01*
X105252068Y-45286842D01*
X105195000Y-45573740D01*
X105195000Y-45866260D01*
X105252068Y-46153158D01*
X105364010Y-46423411D01*
X105526525Y-46666632D01*
X105733368Y-46873475D01*
X105976589Y-47035990D01*
X106246842Y-47147932D01*
X106533740Y-47205000D01*
X106826260Y-47205000D01*
X107113158Y-47147932D01*
X107383411Y-47035990D01*
X107626632Y-46873475D01*
X107758487Y-46741620D01*
X107780498Y-46814180D01*
X107839463Y-46924494D01*
X107918815Y-47021185D01*
X108015506Y-47100537D01*
X108125820Y-47159502D01*
X108245518Y-47195812D01*
X108370000Y-47208072D01*
X110070000Y-47208072D01*
X110194482Y-47195812D01*
X110314180Y-47159502D01*
X110424494Y-47100537D01*
X110521185Y-47021185D01*
X110600537Y-46924494D01*
X110659502Y-46814180D01*
X110695812Y-46694482D01*
X110708072Y-46570000D01*
X110708072Y-45573740D01*
X122975000Y-45573740D01*
X122975000Y-45866260D01*
X123032068Y-46153158D01*
X123144010Y-46423411D01*
X123306525Y-46666632D01*
X123513368Y-46873475D01*
X123756589Y-47035990D01*
X124026842Y-47147932D01*
X124313740Y-47205000D01*
X124606260Y-47205000D01*
X124893158Y-47147932D01*
X125163411Y-47035990D01*
X125406632Y-46873475D01*
X125538487Y-46741620D01*
X125560498Y-46814180D01*
X125619463Y-46924494D01*
X125698815Y-47021185D01*
X125795506Y-47100537D01*
X125905820Y-47159502D01*
X126025518Y-47195812D01*
X126150000Y-47208072D01*
X127850000Y-47208072D01*
X127974482Y-47195812D01*
X128094180Y-47159502D01*
X128204494Y-47100537D01*
X128301185Y-47021185D01*
X128380537Y-46924494D01*
X128439502Y-46814180D01*
X128475812Y-46694482D01*
X128488072Y-46570000D01*
X128488072Y-44870000D01*
X128475812Y-44745518D01*
X128439502Y-44625820D01*
X128380537Y-44515506D01*
X128301185Y-44418815D01*
X128204494Y-44339463D01*
X128094180Y-44280498D01*
X127974482Y-44244188D01*
X127850000Y-44231928D01*
X126150000Y-44231928D01*
X126025518Y-44244188D01*
X125905820Y-44280498D01*
X125795506Y-44339463D01*
X125698815Y-44418815D01*
X125619463Y-44515506D01*
X125560498Y-44625820D01*
X125538487Y-44698380D01*
X125406632Y-44566525D01*
X125163411Y-44404010D01*
X124893158Y-44292068D01*
X124606260Y-44235000D01*
X124313740Y-44235000D01*
X124026842Y-44292068D01*
X123756589Y-44404010D01*
X123513368Y-44566525D01*
X123306525Y-44773368D01*
X123144010Y-45016589D01*
X123032068Y-45286842D01*
X122975000Y-45573740D01*
X110708072Y-45573740D01*
X110708072Y-44870000D01*
X110695812Y-44745518D01*
X110659502Y-44625820D01*
X110600537Y-44515506D01*
X110521185Y-44418815D01*
X110424494Y-44339463D01*
X110314180Y-44280498D01*
X110194482Y-44244188D01*
X110070000Y-44231928D01*
X109950000Y-44231928D01*
X109950000Y-42242287D01*
X109959180Y-42239502D01*
X110069494Y-42180537D01*
X110166185Y-42101185D01*
X110245537Y-42004494D01*
X110304502Y-41894180D01*
X110340812Y-41774482D01*
X110353072Y-41650000D01*
X110353072Y-40882441D01*
X110372525Y-40862988D01*
X135355844Y-40862988D01*
X135277659Y-40980000D01*
X134243560Y-40980000D01*
X134206237Y-40976324D01*
X134168914Y-40980000D01*
X134168905Y-40980000D01*
X134057252Y-40990997D01*
X133913991Y-41034454D01*
X133781962Y-41105026D01*
X133781960Y-41105027D01*
X133781961Y-41105027D01*
X133695234Y-41176201D01*
X133695230Y-41176205D01*
X133666237Y-41199999D01*
X133642443Y-41228992D01*
X132496990Y-42374447D01*
X132467987Y-42398249D01*
X132429172Y-42445546D01*
X132373014Y-42513974D01*
X132326589Y-42600828D01*
X132302442Y-42646004D01*
X132258985Y-42789265D01*
X132247988Y-42900918D01*
X132247988Y-42900928D01*
X132244312Y-42938250D01*
X132247988Y-42975573D01*
X132247989Y-45777209D01*
X127680288Y-50344911D01*
X84932410Y-50344911D01*
X84895087Y-50341235D01*
X84857764Y-50344911D01*
X84857755Y-50344911D01*
X84746102Y-50355908D01*
X84624599Y-50392765D01*
X84602841Y-50399365D01*
X84470811Y-50469937D01*
X84408892Y-50520753D01*
X84355087Y-50564910D01*
X84331289Y-50593908D01*
X79805199Y-55120000D01*
X72398178Y-55120000D01*
X72273475Y-54933368D01*
X72066632Y-54726525D01*
X71823411Y-54564010D01*
X71553158Y-54452068D01*
X71266260Y-54395000D01*
X70973740Y-54395000D01*
X70686842Y-54452068D01*
X70416589Y-54564010D01*
X70173368Y-54726525D01*
X69966525Y-54933368D01*
X69804010Y-55176589D01*
X69692068Y-55446842D01*
X69635000Y-55733740D01*
X69635000Y-56026260D01*
X69692068Y-56313158D01*
X69804010Y-56583411D01*
X69966525Y-56826632D01*
X70173368Y-57033475D01*
X70347760Y-57150000D01*
X70173368Y-57266525D01*
X69966525Y-57473368D01*
X69804010Y-57716589D01*
X69692068Y-57986842D01*
X69635000Y-58273740D01*
X69635000Y-58566260D01*
X69692068Y-58853158D01*
X69804010Y-59123411D01*
X69966525Y-59366632D01*
X70173368Y-59573475D01*
X70347760Y-59690000D01*
X70173368Y-59806525D01*
X69966525Y-60013368D01*
X69804010Y-60256589D01*
X69692068Y-60526842D01*
X69635000Y-60813740D01*
X69635000Y-61106260D01*
X69692068Y-61393158D01*
X69804010Y-61663411D01*
X69966525Y-61906632D01*
X70173368Y-62113475D01*
X70347760Y-62230000D01*
X70173368Y-62346525D01*
X69966525Y-62553368D01*
X69804010Y-62796589D01*
X69692068Y-63066842D01*
X69635000Y-63353740D01*
X69635000Y-63646260D01*
X69692068Y-63933158D01*
X69804010Y-64203411D01*
X69966525Y-64446632D01*
X70173368Y-64653475D01*
X70347760Y-64770000D01*
X70173368Y-64886525D01*
X69966525Y-65093368D01*
X69804010Y-65336589D01*
X69692068Y-65606842D01*
X69635000Y-65893740D01*
X69635000Y-66186260D01*
X69692068Y-66473158D01*
X69804010Y-66743411D01*
X69966525Y-66986632D01*
X70173368Y-67193475D01*
X70347760Y-67310000D01*
X70173368Y-67426525D01*
X69966525Y-67633368D01*
X69804010Y-67876589D01*
X69692068Y-68146842D01*
X69635000Y-68433740D01*
X69635000Y-68726260D01*
X69692068Y-69013158D01*
X69804010Y-69283411D01*
X69966525Y-69526632D01*
X70173368Y-69733475D01*
X70347760Y-69850000D01*
X70173368Y-69966525D01*
X69966525Y-70173368D01*
X69804010Y-70416589D01*
X69692068Y-70686842D01*
X69635000Y-70973740D01*
X69635000Y-71266260D01*
X69692068Y-71553158D01*
X69804010Y-71823411D01*
X69966525Y-72066632D01*
X70098380Y-72198487D01*
X70025820Y-72220498D01*
X69915506Y-72279463D01*
X69818815Y-72358815D01*
X69739463Y-72455506D01*
X69680498Y-72565820D01*
X69644188Y-72685518D01*
X69631928Y-72810000D01*
X69631928Y-74510000D01*
X69644188Y-74634482D01*
X69680498Y-74754180D01*
X69739463Y-74864494D01*
X69818815Y-74961185D01*
X69915506Y-75040537D01*
X70025820Y-75099502D01*
X70145518Y-75135812D01*
X70270000Y-75148072D01*
X71970000Y-75148072D01*
X72094482Y-75135812D01*
X72214180Y-75099502D01*
X72324494Y-75040537D01*
X72421185Y-74961185D01*
X72500537Y-74864494D01*
X72559502Y-74754180D01*
X72595812Y-74634482D01*
X72608072Y-74510000D01*
X72608072Y-73246730D01*
X72610102Y-73244700D01*
X82251928Y-73244700D01*
X82251928Y-74510000D01*
X82264188Y-74634482D01*
X82300498Y-74754180D01*
X82359463Y-74864494D01*
X82438815Y-74961185D01*
X82535506Y-75040537D01*
X82645820Y-75099502D01*
X82765518Y-75135812D01*
X82890000Y-75148072D01*
X84153270Y-75148072D01*
X84351202Y-75346004D01*
X84375000Y-75375002D01*
X84490725Y-75469975D01*
X84622754Y-75540547D01*
X84766015Y-75584004D01*
X84877668Y-75595001D01*
X84877677Y-75595001D01*
X84915000Y-75598677D01*
X84952323Y-75595001D01*
X107620200Y-75595001D01*
X110071270Y-78046072D01*
X110095064Y-78075065D01*
X110124057Y-78098859D01*
X110124062Y-78098864D01*
X110210788Y-78170039D01*
X110342818Y-78240611D01*
X110486079Y-78284067D01*
X110635064Y-78298741D01*
X110672397Y-78295064D01*
X130820266Y-78295067D01*
X133168301Y-80643103D01*
X133192099Y-80672101D01*
X133307824Y-80767074D01*
X133439853Y-80837646D01*
X133583114Y-80881103D01*
X133694767Y-80892100D01*
X133694776Y-80892100D01*
X133732099Y-80895776D01*
X133769422Y-80892100D01*
X140240378Y-80892100D01*
X140277700Y-80895776D01*
X140315022Y-80892100D01*
X140315033Y-80892100D01*
X140426686Y-80881103D01*
X140569947Y-80837646D01*
X140701976Y-80767074D01*
X140817701Y-80672101D01*
X140841504Y-80643097D01*
X142475001Y-79009601D01*
X142475001Y-82455000D01*
X64943736Y-82455000D01*
X63845000Y-81356264D01*
X63845000Y-79419872D01*
X64425000Y-79419872D01*
X64425000Y-79860128D01*
X64510890Y-80291925D01*
X64679369Y-80698669D01*
X64923962Y-81064729D01*
X65235271Y-81376038D01*
X65601331Y-81620631D01*
X66008075Y-81789110D01*
X66439872Y-81875000D01*
X66880128Y-81875000D01*
X67311925Y-81789110D01*
X67718669Y-81620631D01*
X68084729Y-81376038D01*
X68396038Y-81064729D01*
X68640631Y-80698669D01*
X68809110Y-80291925D01*
X68895000Y-79860128D01*
X68895000Y-79419872D01*
X68809110Y-78988075D01*
X68640631Y-78581331D01*
X68396038Y-78215271D01*
X68084729Y-77903962D01*
X67718669Y-77659369D01*
X67311925Y-77490890D01*
X66880128Y-77405000D01*
X66439872Y-77405000D01*
X66008075Y-77490890D01*
X65601331Y-77659369D01*
X65235271Y-77903962D01*
X64923962Y-78215271D01*
X64679369Y-78581331D01*
X64510890Y-78988075D01*
X64425000Y-79419872D01*
X63845000Y-79419872D01*
X63845000Y-46076891D01*
X69678519Y-46076891D01*
X69775843Y-46351252D01*
X69924822Y-46601355D01*
X70119731Y-46817588D01*
X70353080Y-46991641D01*
X70615901Y-47116825D01*
X70763110Y-47161476D01*
X70993000Y-47040155D01*
X70993000Y-45847000D01*
X71247000Y-45847000D01*
X71247000Y-47040155D01*
X71476890Y-47161476D01*
X71624099Y-47116825D01*
X71886920Y-46991641D01*
X72120269Y-46817588D01*
X72196034Y-46733534D01*
X72220498Y-46814180D01*
X72279463Y-46924494D01*
X72358815Y-47021185D01*
X72455506Y-47100537D01*
X72565820Y-47159502D01*
X72685518Y-47195812D01*
X72810000Y-47208072D01*
X73374250Y-47205000D01*
X73533000Y-47046250D01*
X73533000Y-45847000D01*
X73787000Y-45847000D01*
X73787000Y-47046250D01*
X73945750Y-47205000D01*
X74510000Y-47208072D01*
X74634482Y-47195812D01*
X74754180Y-47159502D01*
X74864494Y-47100537D01*
X74961185Y-47021185D01*
X75040537Y-46924494D01*
X75099502Y-46814180D01*
X75135812Y-46694482D01*
X75148072Y-46570000D01*
X75145000Y-46005750D01*
X74986250Y-45847000D01*
X73787000Y-45847000D01*
X73533000Y-45847000D01*
X71247000Y-45847000D01*
X70993000Y-45847000D01*
X69799186Y-45847000D01*
X69678519Y-46076891D01*
X63845000Y-46076891D01*
X63845000Y-45363109D01*
X69678519Y-45363109D01*
X69799186Y-45593000D01*
X70993000Y-45593000D01*
X70993000Y-44399845D01*
X71247000Y-44399845D01*
X71247000Y-45593000D01*
X73533000Y-45593000D01*
X73533000Y-44393750D01*
X73787000Y-44393750D01*
X73787000Y-45593000D01*
X74986250Y-45593000D01*
X75145000Y-45434250D01*
X75148072Y-44870000D01*
X75135812Y-44745518D01*
X75099502Y-44625820D01*
X75040537Y-44515506D01*
X74961185Y-44418815D01*
X74864494Y-44339463D01*
X74754180Y-44280498D01*
X74634482Y-44244188D01*
X74510000Y-44231928D01*
X73945750Y-44235000D01*
X73787000Y-44393750D01*
X73533000Y-44393750D01*
X73374250Y-44235000D01*
X72810000Y-44231928D01*
X72685518Y-44244188D01*
X72565820Y-44280498D01*
X72455506Y-44339463D01*
X72358815Y-44418815D01*
X72279463Y-44515506D01*
X72220498Y-44625820D01*
X72196034Y-44706466D01*
X72120269Y-44622412D01*
X71886920Y-44448359D01*
X71624099Y-44323175D01*
X71476890Y-44278524D01*
X71247000Y-44399845D01*
X70993000Y-44399845D01*
X70763110Y-44278524D01*
X70615901Y-44323175D01*
X70353080Y-44448359D01*
X70119731Y-44622412D01*
X69924822Y-44838645D01*
X69775843Y-45088748D01*
X69678519Y-45363109D01*
X63845000Y-45363109D01*
X63845000Y-40419872D01*
X64425000Y-40419872D01*
X64425000Y-40860128D01*
X64510890Y-41291925D01*
X64679369Y-41698669D01*
X64923962Y-42064729D01*
X65235271Y-42376038D01*
X65601331Y-42620631D01*
X66008075Y-42789110D01*
X66439872Y-42875000D01*
X66880128Y-42875000D01*
X67311925Y-42789110D01*
X67718669Y-42620631D01*
X68084729Y-42376038D01*
X68396038Y-42064729D01*
X68640631Y-41698669D01*
X68660790Y-41650000D01*
X83446928Y-41650000D01*
X83459188Y-41774482D01*
X83495498Y-41894180D01*
X83554463Y-42004494D01*
X83633815Y-42101185D01*
X83730506Y-42180537D01*
X83840820Y-42239502D01*
X83960518Y-42275812D01*
X84085000Y-42288072D01*
X84374250Y-42285000D01*
X84533000Y-42126250D01*
X84533000Y-41077000D01*
X83608750Y-41077000D01*
X83450000Y-41235750D01*
X83446928Y-41650000D01*
X68660790Y-41650000D01*
X68809110Y-41291925D01*
X68895000Y-40860128D01*
X68895000Y-40419872D01*
X68861211Y-40250000D01*
X83446928Y-40250000D01*
X83450000Y-40664250D01*
X83608750Y-40823000D01*
X84533000Y-40823000D01*
X84533000Y-39773750D01*
X84374250Y-39615000D01*
X84085000Y-39611928D01*
X83960518Y-39624188D01*
X83840820Y-39660498D01*
X83730506Y-39719463D01*
X83633815Y-39798815D01*
X83554463Y-39895506D01*
X83495498Y-40005820D01*
X83459188Y-40125518D01*
X83446928Y-40250000D01*
X68861211Y-40250000D01*
X68809110Y-39988075D01*
X68640631Y-39581331D01*
X68396038Y-39215271D01*
X68084729Y-38903962D01*
X67718669Y-38659369D01*
X67311925Y-38490890D01*
X66880128Y-38405000D01*
X66439872Y-38405000D01*
X66008075Y-38490890D01*
X65601331Y-38659369D01*
X65235271Y-38903962D01*
X64923962Y-39215271D01*
X64679369Y-39581331D01*
X64510890Y-39988075D01*
X64425000Y-40419872D01*
X63845000Y-40419872D01*
X63845000Y-38923736D01*
X64943736Y-37825000D01*
X142475000Y-37825000D01*
X142475000Y-39541188D01*
G04 #@! TA.AperFunction,Conductor*
D17*
G36*
X142475000Y-39541188D02*
G01*
X141850599Y-38916787D01*
X141825228Y-38885872D01*
X141701889Y-38784651D01*
X141561173Y-38709437D01*
X141408488Y-38663120D01*
X141289491Y-38651400D01*
X141289488Y-38651400D01*
X141249700Y-38647481D01*
X141209912Y-38651400D01*
X93838687Y-38651400D01*
X93798899Y-38647481D01*
X93759111Y-38651400D01*
X93759109Y-38651400D01*
X93640112Y-38663120D01*
X93487427Y-38709437D01*
X93421924Y-38744449D01*
X93346710Y-38784651D01*
X93291110Y-38830281D01*
X93223372Y-38885872D01*
X93198005Y-38916782D01*
X92347621Y-39767167D01*
X92289494Y-39719463D01*
X92179180Y-39660498D01*
X92059482Y-39624188D01*
X91935000Y-39611928D01*
X90785000Y-39611928D01*
X90660518Y-39624188D01*
X90540820Y-39660498D01*
X90510000Y-39676972D01*
X90479180Y-39660498D01*
X90359482Y-39624188D01*
X90235000Y-39611928D01*
X89085000Y-39611928D01*
X88960518Y-39624188D01*
X88840820Y-39660498D01*
X88730506Y-39719463D01*
X88633815Y-39798815D01*
X88554463Y-39895506D01*
X88495498Y-40005820D01*
X88459188Y-40125518D01*
X88452837Y-40190000D01*
X87567163Y-40190000D01*
X87560812Y-40125518D01*
X87524502Y-40005820D01*
X87465537Y-39895506D01*
X87386185Y-39798815D01*
X87289494Y-39719463D01*
X87179180Y-39660498D01*
X87059482Y-39624188D01*
X86935000Y-39611928D01*
X85785000Y-39611928D01*
X85660518Y-39624188D01*
X85540820Y-39660498D01*
X85510000Y-39676972D01*
X85479180Y-39660498D01*
X85359482Y-39624188D01*
X85235000Y-39611928D01*
X84945750Y-39615000D01*
X84787000Y-39773750D01*
X84787000Y-40823000D01*
X84807000Y-40823000D01*
X84807000Y-41077000D01*
X84787000Y-41077000D01*
X84787000Y-42126250D01*
X84945750Y-42285000D01*
X85235000Y-42288072D01*
X85359482Y-42275812D01*
X85479180Y-42239502D01*
X85510000Y-42223028D01*
X85540820Y-42239502D01*
X85660518Y-42275812D01*
X85785000Y-42288072D01*
X86935000Y-42288072D01*
X87059482Y-42275812D01*
X87179180Y-42239502D01*
X87289494Y-42180537D01*
X87386185Y-42101185D01*
X87465537Y-42004494D01*
X87524502Y-41894180D01*
X87560812Y-41774482D01*
X87567163Y-41710000D01*
X88452837Y-41710000D01*
X88459188Y-41774482D01*
X88495498Y-41894180D01*
X88554463Y-42004494D01*
X88633815Y-42101185D01*
X88730506Y-42180537D01*
X88840820Y-42239502D01*
X88960518Y-42275812D01*
X89085000Y-42288072D01*
X90235000Y-42288072D01*
X90359482Y-42275812D01*
X90479180Y-42239502D01*
X90510000Y-42223028D01*
X90540820Y-42239502D01*
X90550001Y-42242287D01*
X90550000Y-44235867D01*
X90465518Y-44244188D01*
X90345820Y-44280498D01*
X90235506Y-44339463D01*
X90138815Y-44418815D01*
X90059463Y-44515506D01*
X90000498Y-44625820D01*
X89978487Y-44698380D01*
X89846632Y-44566525D01*
X89603411Y-44404010D01*
X89333158Y-44292068D01*
X89046260Y-44235000D01*
X88753740Y-44235000D01*
X88466842Y-44292068D01*
X88196589Y-44404010D01*
X87953368Y-44566525D01*
X87746525Y-44773368D01*
X87584010Y-45016589D01*
X87472068Y-45286842D01*
X87415000Y-45573740D01*
X87415000Y-45866260D01*
X87472068Y-46153158D01*
X87584010Y-46423411D01*
X87746525Y-46666632D01*
X87953368Y-46873475D01*
X88196589Y-47035990D01*
X88466842Y-47147932D01*
X88753740Y-47205000D01*
X89046260Y-47205000D01*
X89333158Y-47147932D01*
X89603411Y-47035990D01*
X89846632Y-46873475D01*
X89978487Y-46741620D01*
X90000498Y-46814180D01*
X90059463Y-46924494D01*
X90138815Y-47021185D01*
X90235506Y-47100537D01*
X90345820Y-47159502D01*
X90465518Y-47195812D01*
X90590000Y-47208072D01*
X92290000Y-47208072D01*
X92414482Y-47195812D01*
X92534180Y-47159502D01*
X92644494Y-47100537D01*
X92741185Y-47021185D01*
X92820537Y-46924494D01*
X92879502Y-46814180D01*
X92915812Y-46694482D01*
X92928072Y-46570000D01*
X92928072Y-44870000D01*
X92915812Y-44745518D01*
X92879502Y-44625820D01*
X92820537Y-44515506D01*
X92741185Y-44418815D01*
X92644494Y-44339463D01*
X92534180Y-44280498D01*
X92414482Y-44244188D01*
X92290000Y-44231928D01*
X92170000Y-44231928D01*
X92170000Y-42242287D01*
X92179180Y-42239502D01*
X92289494Y-42180537D01*
X92386185Y-42101185D01*
X92465537Y-42004494D01*
X92524502Y-41894180D01*
X92560812Y-41774482D01*
X92566297Y-41718792D01*
X92621773Y-41701963D01*
X92718989Y-41650000D01*
X101226928Y-41650000D01*
X101239188Y-41774482D01*
X101275498Y-41894180D01*
X101334463Y-42004494D01*
X101413815Y-42101185D01*
X101510506Y-42180537D01*
X101620820Y-42239502D01*
X101740518Y-42275812D01*
X101865000Y-42288072D01*
X102154250Y-42285000D01*
X102313000Y-42126250D01*
X102313000Y-41077000D01*
X101388750Y-41077000D01*
X101230000Y-41235750D01*
X101226928Y-41650000D01*
X92718989Y-41650000D01*
X92762489Y-41626749D01*
X92885828Y-41525528D01*
X92911199Y-41494613D01*
X94134413Y-40271400D01*
X101227087Y-40271400D01*
X101230000Y-40664250D01*
X101388750Y-40823000D01*
X102313000Y-40823000D01*
X102313000Y-40803000D01*
X102567000Y-40803000D01*
X102567000Y-40823000D01*
X102587000Y-40823000D01*
X102587000Y-41077000D01*
X102567000Y-41077000D01*
X102567000Y-42126250D01*
X102725750Y-42285000D01*
X103015000Y-42288072D01*
X103139482Y-42275812D01*
X103259180Y-42239502D01*
X103290000Y-42223028D01*
X103320820Y-42239502D01*
X103440518Y-42275812D01*
X103565000Y-42288072D01*
X104715000Y-42288072D01*
X104839482Y-42275812D01*
X104959180Y-42239502D01*
X105069494Y-42180537D01*
X105166185Y-42101185D01*
X105245537Y-42004494D01*
X105304502Y-41894180D01*
X105340812Y-41774482D01*
X105347163Y-41710000D01*
X106232837Y-41710000D01*
X106239188Y-41774482D01*
X106275498Y-41894180D01*
X106334463Y-42004494D01*
X106413815Y-42101185D01*
X106510506Y-42180537D01*
X106620820Y-42239502D01*
X106740518Y-42275812D01*
X106865000Y-42288072D01*
X108015000Y-42288072D01*
X108139482Y-42275812D01*
X108259180Y-42239502D01*
X108290000Y-42223028D01*
X108320820Y-42239502D01*
X108330001Y-42242287D01*
X108330000Y-44235867D01*
X108245518Y-44244188D01*
X108125820Y-44280498D01*
X108015506Y-44339463D01*
X107918815Y-44418815D01*
X107839463Y-44515506D01*
X107780498Y-44625820D01*
X107758487Y-44698380D01*
X107626632Y-44566525D01*
X107383411Y-44404010D01*
X107113158Y-44292068D01*
X106826260Y-44235000D01*
X106533740Y-44235000D01*
X106246842Y-44292068D01*
X105976589Y-44404010D01*
X105733368Y-44566525D01*
X105526525Y-44773368D01*
X105364010Y-45016589D01*
X105252068Y-45286842D01*
X105195000Y-45573740D01*
X105195000Y-45866260D01*
X105252068Y-46153158D01*
X105364010Y-46423411D01*
X105526525Y-46666632D01*
X105733368Y-46873475D01*
X105976589Y-47035990D01*
X106246842Y-47147932D01*
X106533740Y-47205000D01*
X106826260Y-47205000D01*
X107113158Y-47147932D01*
X107383411Y-47035990D01*
X107626632Y-46873475D01*
X107758487Y-46741620D01*
X107780498Y-46814180D01*
X107839463Y-46924494D01*
X107918815Y-47021185D01*
X108015506Y-47100537D01*
X108125820Y-47159502D01*
X108245518Y-47195812D01*
X108370000Y-47208072D01*
X110070000Y-47208072D01*
X110194482Y-47195812D01*
X110314180Y-47159502D01*
X110424494Y-47100537D01*
X110521185Y-47021185D01*
X110600537Y-46924494D01*
X110659502Y-46814180D01*
X110695812Y-46694482D01*
X110708072Y-46570000D01*
X110708072Y-45573740D01*
X122975000Y-45573740D01*
X122975000Y-45866260D01*
X123032068Y-46153158D01*
X123144010Y-46423411D01*
X123306525Y-46666632D01*
X123513368Y-46873475D01*
X123756589Y-47035990D01*
X124026842Y-47147932D01*
X124313740Y-47205000D01*
X124606260Y-47205000D01*
X124893158Y-47147932D01*
X125163411Y-47035990D01*
X125406632Y-46873475D01*
X125538487Y-46741620D01*
X125560498Y-46814180D01*
X125619463Y-46924494D01*
X125698815Y-47021185D01*
X125795506Y-47100537D01*
X125905820Y-47159502D01*
X126025518Y-47195812D01*
X126150000Y-47208072D01*
X127850000Y-47208072D01*
X127974482Y-47195812D01*
X128094180Y-47159502D01*
X128204494Y-47100537D01*
X128301185Y-47021185D01*
X128380537Y-46924494D01*
X128439502Y-46814180D01*
X128475812Y-46694482D01*
X128488072Y-46570000D01*
X128488072Y-44870000D01*
X128475812Y-44745518D01*
X128439502Y-44625820D01*
X128380537Y-44515506D01*
X128301185Y-44418815D01*
X128204494Y-44339463D01*
X128094180Y-44280498D01*
X127974482Y-44244188D01*
X127850000Y-44231928D01*
X126150000Y-44231928D01*
X126025518Y-44244188D01*
X125905820Y-44280498D01*
X125795506Y-44339463D01*
X125698815Y-44418815D01*
X125619463Y-44515506D01*
X125560498Y-44625820D01*
X125538487Y-44698380D01*
X125406632Y-44566525D01*
X125163411Y-44404010D01*
X124893158Y-44292068D01*
X124606260Y-44235000D01*
X124313740Y-44235000D01*
X124026842Y-44292068D01*
X123756589Y-44404010D01*
X123513368Y-44566525D01*
X123306525Y-44773368D01*
X123144010Y-45016589D01*
X123032068Y-45286842D01*
X122975000Y-45573740D01*
X110708072Y-45573740D01*
X110708072Y-44870000D01*
X110695812Y-44745518D01*
X110659502Y-44625820D01*
X110600537Y-44515506D01*
X110521185Y-44418815D01*
X110424494Y-44339463D01*
X110314180Y-44280498D01*
X110194482Y-44244188D01*
X110070000Y-44231928D01*
X109950000Y-44231928D01*
X109950000Y-42242287D01*
X109959180Y-42239502D01*
X110069494Y-42180537D01*
X110166185Y-42101185D01*
X110245537Y-42004494D01*
X110304502Y-41894180D01*
X110340812Y-41774482D01*
X110353072Y-41650000D01*
X110353072Y-40882441D01*
X110372525Y-40862988D01*
X135355844Y-40862988D01*
X135277659Y-40980000D01*
X134243560Y-40980000D01*
X134206237Y-40976324D01*
X134168914Y-40980000D01*
X134168905Y-40980000D01*
X134057252Y-40990997D01*
X133913991Y-41034454D01*
X133781962Y-41105026D01*
X133781960Y-41105027D01*
X133781961Y-41105027D01*
X133695234Y-41176201D01*
X133695230Y-41176205D01*
X133666237Y-41199999D01*
X133642443Y-41228992D01*
X132496990Y-42374447D01*
X132467987Y-42398249D01*
X132429172Y-42445546D01*
X132373014Y-42513974D01*
X132326589Y-42600828D01*
X132302442Y-42646004D01*
X132258985Y-42789265D01*
X132247988Y-42900918D01*
X132247988Y-42900928D01*
X132244312Y-42938250D01*
X132247988Y-42975573D01*
X132247989Y-45777209D01*
X127680288Y-50344911D01*
X84932410Y-50344911D01*
X84895087Y-50341235D01*
X84857764Y-50344911D01*
X84857755Y-50344911D01*
X84746102Y-50355908D01*
X84624599Y-50392765D01*
X84602841Y-50399365D01*
X84470811Y-50469937D01*
X84408892Y-50520753D01*
X84355087Y-50564910D01*
X84331289Y-50593908D01*
X79805199Y-55120000D01*
X72398178Y-55120000D01*
X72273475Y-54933368D01*
X72066632Y-54726525D01*
X71823411Y-54564010D01*
X71553158Y-54452068D01*
X71266260Y-54395000D01*
X70973740Y-54395000D01*
X70686842Y-54452068D01*
X70416589Y-54564010D01*
X70173368Y-54726525D01*
X69966525Y-54933368D01*
X69804010Y-55176589D01*
X69692068Y-55446842D01*
X69635000Y-55733740D01*
X69635000Y-56026260D01*
X69692068Y-56313158D01*
X69804010Y-56583411D01*
X69966525Y-56826632D01*
X70173368Y-57033475D01*
X70347760Y-57150000D01*
X70173368Y-57266525D01*
X69966525Y-57473368D01*
X69804010Y-57716589D01*
X69692068Y-57986842D01*
X69635000Y-58273740D01*
X69635000Y-58566260D01*
X69692068Y-58853158D01*
X69804010Y-59123411D01*
X69966525Y-59366632D01*
X70173368Y-59573475D01*
X70347760Y-59690000D01*
X70173368Y-59806525D01*
X69966525Y-60013368D01*
X69804010Y-60256589D01*
X69692068Y-60526842D01*
X69635000Y-60813740D01*
X69635000Y-61106260D01*
X69692068Y-61393158D01*
X69804010Y-61663411D01*
X69966525Y-61906632D01*
X70173368Y-62113475D01*
X70347760Y-62230000D01*
X70173368Y-62346525D01*
X69966525Y-62553368D01*
X69804010Y-62796589D01*
X69692068Y-63066842D01*
X69635000Y-63353740D01*
X69635000Y-63646260D01*
X69692068Y-63933158D01*
X69804010Y-64203411D01*
X69966525Y-64446632D01*
X70173368Y-64653475D01*
X70347760Y-64770000D01*
X70173368Y-64886525D01*
X69966525Y-65093368D01*
X69804010Y-65336589D01*
X69692068Y-65606842D01*
X69635000Y-65893740D01*
X69635000Y-66186260D01*
X69692068Y-66473158D01*
X69804010Y-66743411D01*
X69966525Y-66986632D01*
X70173368Y-67193475D01*
X70347760Y-67310000D01*
X70173368Y-67426525D01*
X69966525Y-67633368D01*
X69804010Y-67876589D01*
X69692068Y-68146842D01*
X69635000Y-68433740D01*
X69635000Y-68726260D01*
X69692068Y-69013158D01*
X69804010Y-69283411D01*
X69966525Y-69526632D01*
X70173368Y-69733475D01*
X70347760Y-69850000D01*
X70173368Y-69966525D01*
X69966525Y-70173368D01*
X69804010Y-70416589D01*
X69692068Y-70686842D01*
X69635000Y-70973740D01*
X69635000Y-71266260D01*
X69692068Y-71553158D01*
X69804010Y-71823411D01*
X69966525Y-72066632D01*
X70098380Y-72198487D01*
X70025820Y-72220498D01*
X69915506Y-72279463D01*
X69818815Y-72358815D01*
X69739463Y-72455506D01*
X69680498Y-72565820D01*
X69644188Y-72685518D01*
X69631928Y-72810000D01*
X69631928Y-74510000D01*
X69644188Y-74634482D01*
X69680498Y-74754180D01*
X69739463Y-74864494D01*
X69818815Y-74961185D01*
X69915506Y-75040537D01*
X70025820Y-75099502D01*
X70145518Y-75135812D01*
X70270000Y-75148072D01*
X71970000Y-75148072D01*
X72094482Y-75135812D01*
X72214180Y-75099502D01*
X72324494Y-75040537D01*
X72421185Y-74961185D01*
X72500537Y-74864494D01*
X72559502Y-74754180D01*
X72595812Y-74634482D01*
X72608072Y-74510000D01*
X72608072Y-73246730D01*
X72610102Y-73244700D01*
X82251928Y-73244700D01*
X82251928Y-74510000D01*
X82264188Y-74634482D01*
X82300498Y-74754180D01*
X82359463Y-74864494D01*
X82438815Y-74961185D01*
X82535506Y-75040537D01*
X82645820Y-75099502D01*
X82765518Y-75135812D01*
X82890000Y-75148072D01*
X84153270Y-75148072D01*
X84351202Y-75346004D01*
X84375000Y-75375002D01*
X84490725Y-75469975D01*
X84622754Y-75540547D01*
X84766015Y-75584004D01*
X84877668Y-75595001D01*
X84877677Y-75595001D01*
X84915000Y-75598677D01*
X84952323Y-75595001D01*
X107620200Y-75595001D01*
X110071270Y-78046072D01*
X110095064Y-78075065D01*
X110124057Y-78098859D01*
X110124062Y-78098864D01*
X110210788Y-78170039D01*
X110342818Y-78240611D01*
X110486079Y-78284067D01*
X110635064Y-78298741D01*
X110672397Y-78295064D01*
X130820266Y-78295067D01*
X133168301Y-80643103D01*
X133192099Y-80672101D01*
X133307824Y-80767074D01*
X133439853Y-80837646D01*
X133583114Y-80881103D01*
X133694767Y-80892100D01*
X133694776Y-80892100D01*
X133732099Y-80895776D01*
X133769422Y-80892100D01*
X140240378Y-80892100D01*
X140277700Y-80895776D01*
X140315022Y-80892100D01*
X140315033Y-80892100D01*
X140426686Y-80881103D01*
X140569947Y-80837646D01*
X140701976Y-80767074D01*
X140817701Y-80672101D01*
X140841504Y-80643097D01*
X142475001Y-79009601D01*
X142475001Y-82455000D01*
X64943736Y-82455000D01*
X63845000Y-81356264D01*
X63845000Y-79419872D01*
X64425000Y-79419872D01*
X64425000Y-79860128D01*
X64510890Y-80291925D01*
X64679369Y-80698669D01*
X64923962Y-81064729D01*
X65235271Y-81376038D01*
X65601331Y-81620631D01*
X66008075Y-81789110D01*
X66439872Y-81875000D01*
X66880128Y-81875000D01*
X67311925Y-81789110D01*
X67718669Y-81620631D01*
X68084729Y-81376038D01*
X68396038Y-81064729D01*
X68640631Y-80698669D01*
X68809110Y-80291925D01*
X68895000Y-79860128D01*
X68895000Y-79419872D01*
X68809110Y-78988075D01*
X68640631Y-78581331D01*
X68396038Y-78215271D01*
X68084729Y-77903962D01*
X67718669Y-77659369D01*
X67311925Y-77490890D01*
X66880128Y-77405000D01*
X66439872Y-77405000D01*
X66008075Y-77490890D01*
X65601331Y-77659369D01*
X65235271Y-77903962D01*
X64923962Y-78215271D01*
X64679369Y-78581331D01*
X64510890Y-78988075D01*
X64425000Y-79419872D01*
X63845000Y-79419872D01*
X63845000Y-46076891D01*
X69678519Y-46076891D01*
X69775843Y-46351252D01*
X69924822Y-46601355D01*
X70119731Y-46817588D01*
X70353080Y-46991641D01*
X70615901Y-47116825D01*
X70763110Y-47161476D01*
X70993000Y-47040155D01*
X70993000Y-45847000D01*
X71247000Y-45847000D01*
X71247000Y-47040155D01*
X71476890Y-47161476D01*
X71624099Y-47116825D01*
X71886920Y-46991641D01*
X72120269Y-46817588D01*
X72196034Y-46733534D01*
X72220498Y-46814180D01*
X72279463Y-46924494D01*
X72358815Y-47021185D01*
X72455506Y-47100537D01*
X72565820Y-47159502D01*
X72685518Y-47195812D01*
X72810000Y-47208072D01*
X73374250Y-47205000D01*
X73533000Y-47046250D01*
X73533000Y-45847000D01*
X73787000Y-45847000D01*
X73787000Y-47046250D01*
X73945750Y-47205000D01*
X74510000Y-47208072D01*
X74634482Y-47195812D01*
X74754180Y-47159502D01*
X74864494Y-47100537D01*
X74961185Y-47021185D01*
X75040537Y-46924494D01*
X75099502Y-46814180D01*
X75135812Y-46694482D01*
X75148072Y-46570000D01*
X75145000Y-46005750D01*
X74986250Y-45847000D01*
X73787000Y-45847000D01*
X73533000Y-45847000D01*
X71247000Y-45847000D01*
X70993000Y-45847000D01*
X69799186Y-45847000D01*
X69678519Y-46076891D01*
X63845000Y-46076891D01*
X63845000Y-45363109D01*
X69678519Y-45363109D01*
X69799186Y-45593000D01*
X70993000Y-45593000D01*
X70993000Y-44399845D01*
X71247000Y-44399845D01*
X71247000Y-45593000D01*
X73533000Y-45593000D01*
X73533000Y-44393750D01*
X73787000Y-44393750D01*
X73787000Y-45593000D01*
X74986250Y-45593000D01*
X75145000Y-45434250D01*
X75148072Y-44870000D01*
X75135812Y-44745518D01*
X75099502Y-44625820D01*
X75040537Y-44515506D01*
X74961185Y-44418815D01*
X74864494Y-44339463D01*
X74754180Y-44280498D01*
X74634482Y-44244188D01*
X74510000Y-44231928D01*
X73945750Y-44235000D01*
X73787000Y-44393750D01*
X73533000Y-44393750D01*
X73374250Y-44235000D01*
X72810000Y-44231928D01*
X72685518Y-44244188D01*
X72565820Y-44280498D01*
X72455506Y-44339463D01*
X72358815Y-44418815D01*
X72279463Y-44515506D01*
X72220498Y-44625820D01*
X72196034Y-44706466D01*
X72120269Y-44622412D01*
X71886920Y-44448359D01*
X71624099Y-44323175D01*
X71476890Y-44278524D01*
X71247000Y-44399845D01*
X70993000Y-44399845D01*
X70763110Y-44278524D01*
X70615901Y-44323175D01*
X70353080Y-44448359D01*
X70119731Y-44622412D01*
X69924822Y-44838645D01*
X69775843Y-45088748D01*
X69678519Y-45363109D01*
X63845000Y-45363109D01*
X63845000Y-40419872D01*
X64425000Y-40419872D01*
X64425000Y-40860128D01*
X64510890Y-41291925D01*
X64679369Y-41698669D01*
X64923962Y-42064729D01*
X65235271Y-42376038D01*
X65601331Y-42620631D01*
X66008075Y-42789110D01*
X66439872Y-42875000D01*
X66880128Y-42875000D01*
X67311925Y-42789110D01*
X67718669Y-42620631D01*
X68084729Y-42376038D01*
X68396038Y-42064729D01*
X68640631Y-41698669D01*
X68660790Y-41650000D01*
X83446928Y-41650000D01*
X83459188Y-41774482D01*
X83495498Y-41894180D01*
X83554463Y-42004494D01*
X83633815Y-42101185D01*
X83730506Y-42180537D01*
X83840820Y-42239502D01*
X83960518Y-42275812D01*
X84085000Y-42288072D01*
X84374250Y-42285000D01*
X84533000Y-42126250D01*
X84533000Y-41077000D01*
X83608750Y-41077000D01*
X83450000Y-41235750D01*
X83446928Y-41650000D01*
X68660790Y-41650000D01*
X68809110Y-41291925D01*
X68895000Y-40860128D01*
X68895000Y-40419872D01*
X68861211Y-40250000D01*
X83446928Y-40250000D01*
X83450000Y-40664250D01*
X83608750Y-40823000D01*
X84533000Y-40823000D01*
X84533000Y-39773750D01*
X84374250Y-39615000D01*
X84085000Y-39611928D01*
X83960518Y-39624188D01*
X83840820Y-39660498D01*
X83730506Y-39719463D01*
X83633815Y-39798815D01*
X83554463Y-39895506D01*
X83495498Y-40005820D01*
X83459188Y-40125518D01*
X83446928Y-40250000D01*
X68861211Y-40250000D01*
X68809110Y-39988075D01*
X68640631Y-39581331D01*
X68396038Y-39215271D01*
X68084729Y-38903962D01*
X67718669Y-38659369D01*
X67311925Y-38490890D01*
X66880128Y-38405000D01*
X66439872Y-38405000D01*
X66008075Y-38490890D01*
X65601331Y-38659369D01*
X65235271Y-38903962D01*
X64923962Y-39215271D01*
X64679369Y-39581331D01*
X64510890Y-39988075D01*
X64425000Y-40419872D01*
X63845000Y-40419872D01*
X63845000Y-38923736D01*
X64943736Y-37825000D01*
X142475000Y-37825000D01*
X142475000Y-39541188D01*
G37*
G04 #@! TD.AperFunction*
D16*
X140453748Y-51885858D02*
X140439605Y-51900000D01*
X140453748Y-51914143D01*
X140274143Y-52093748D01*
X140260000Y-52079605D01*
X140245858Y-52093748D01*
X140066253Y-51914143D01*
X140080395Y-51900000D01*
X140066253Y-51885858D01*
X140245858Y-51706253D01*
X140260000Y-51720395D01*
X140274143Y-51706253D01*
X140453748Y-51885858D01*
G04 #@! TA.AperFunction,Conductor*
D17*
G36*
X140453748Y-51885858D02*
G01*
X140439605Y-51900000D01*
X140453748Y-51914143D01*
X140274143Y-52093748D01*
X140260000Y-52079605D01*
X140245858Y-52093748D01*
X140066253Y-51914143D01*
X140080395Y-51900000D01*
X140066253Y-51885858D01*
X140245858Y-51706253D01*
X140260000Y-51720395D01*
X140274143Y-51706253D01*
X140453748Y-51885858D01*
G37*
G04 #@! TD.AperFunction*
D16*
X138548748Y-50615858D02*
X138534605Y-50630000D01*
X138548748Y-50644143D01*
X138369143Y-50823748D01*
X138355000Y-50809605D01*
X138340858Y-50823748D01*
X138161253Y-50644143D01*
X138175395Y-50630000D01*
X138161253Y-50615858D01*
X138340858Y-50436253D01*
X138355000Y-50450395D01*
X138369143Y-50436253D01*
X138548748Y-50615858D01*
G04 #@! TA.AperFunction,Conductor*
D17*
G36*
X138548748Y-50615858D02*
G01*
X138534605Y-50630000D01*
X138548748Y-50644143D01*
X138369143Y-50823748D01*
X138355000Y-50809605D01*
X138340858Y-50823748D01*
X138161253Y-50644143D01*
X138175395Y-50630000D01*
X138161253Y-50615858D01*
X138340858Y-50436253D01*
X138355000Y-50450395D01*
X138369143Y-50436253D01*
X138548748Y-50615858D01*
G37*
G04 #@! TD.AperFunction*
D16*
X140453748Y-49345858D02*
X140439605Y-49360000D01*
X140453748Y-49374143D01*
X140274143Y-49553748D01*
X140260000Y-49539605D01*
X140245858Y-49553748D01*
X140066253Y-49374143D01*
X140080395Y-49360000D01*
X140066253Y-49345858D01*
X140245858Y-49166253D01*
X140260000Y-49180395D01*
X140274143Y-49166253D01*
X140453748Y-49345858D01*
G04 #@! TA.AperFunction,Conductor*
D17*
G36*
X140453748Y-49345858D02*
G01*
X140439605Y-49360000D01*
X140453748Y-49374143D01*
X140274143Y-49553748D01*
X140260000Y-49539605D01*
X140245858Y-49553748D01*
X140066253Y-49374143D01*
X140080395Y-49360000D01*
X140066253Y-49345858D01*
X140245858Y-49166253D01*
X140260000Y-49180395D01*
X140274143Y-49166253D01*
X140453748Y-49345858D01*
G37*
G04 #@! TD.AperFunction*
D16*
X138548748Y-48075858D02*
X138534605Y-48090000D01*
X138548748Y-48104143D01*
X138369143Y-48283748D01*
X138355000Y-48269605D01*
X138340858Y-48283748D01*
X138161253Y-48104143D01*
X138175395Y-48090000D01*
X138161253Y-48075858D01*
X138340858Y-47896253D01*
X138355000Y-47910395D01*
X138369143Y-47896253D01*
X138548748Y-48075858D01*
G04 #@! TA.AperFunction,Conductor*
D17*
G36*
X138548748Y-48075858D02*
G01*
X138534605Y-48090000D01*
X138548748Y-48104143D01*
X138369143Y-48283748D01*
X138355000Y-48269605D01*
X138340858Y-48283748D01*
X138161253Y-48104143D01*
X138175395Y-48090000D01*
X138161253Y-48075858D01*
X138340858Y-47896253D01*
X138355000Y-47910395D01*
X138369143Y-47896253D01*
X138548748Y-48075858D01*
G37*
G04 #@! TD.AperFunction*
M02*
