M48
;DRILL file {KiCad 5.0.0-rc2-unknown-5c65881~65~ubuntu17.10.1} date Sat Jun 23 17:31:21 2018
;FORMAT={-:-/ absolute / metric / decimal}
FMAT,2
METRIC,TZ
T1C0.400
T2C0.762
T3C1.000
T4C3.200
%
G90
G05
M71
T1
X97.9Y-142.88
X98.235Y-139.041
X100.132Y-140.233
X105.979Y-166.208
X107.03Y-153.406
X107.347Y-138.316
X108.172Y-144.788
X109.392Y-151.865
X111.34Y-146.642
X113.349Y-146.124
X119.501Y-164.373
X119.648Y-136.132
X121.407Y-145.196
X122.132Y-147.391
X122.181Y-137.976
T2
X124.385Y-129.37
X124.385Y-131.91
X124.385Y-134.45
X124.385Y-136.99
X124.385Y-139.53
X124.385Y-142.07
X124.385Y-144.61
X124.385Y-147.15
X124.385Y-149.69
X124.385Y-152.23
X124.385Y-154.77
X124.385Y-157.31
X124.385Y-159.85
X124.385Y-162.39
X124.385Y-164.93
X126.29Y-128.1
X126.29Y-130.64
X126.29Y-133.18
X126.29Y-135.72
X126.29Y-138.26
X126.29Y-140.8
X126.29Y-143.34
X126.29Y-145.88
X126.29Y-148.42
X126.29Y-150.96
X126.29Y-153.5
X126.29Y-156.04
X126.29Y-158.58
X126.29Y-161.12
X126.29Y-163.66
X128.195Y-129.37
X128.195Y-131.91
X128.195Y-134.45
X128.195Y-136.99
X128.195Y-139.53
X128.195Y-142.07
X128.195Y-144.61
X128.195Y-147.15
X128.195Y-149.69
X128.195Y-152.23
X128.195Y-154.77
X128.195Y-157.31
X128.195Y-159.85
X128.195Y-162.39
X128.195Y-164.93
X130.1Y-128.1
X130.1Y-130.64
X130.1Y-133.18
X130.1Y-135.72
X130.1Y-138.26
X130.1Y-140.8
X130.1Y-143.34
X130.1Y-145.88
X130.1Y-148.42
X130.1Y-150.96
X130.1Y-153.5
X130.1Y-156.04
X130.1Y-158.58
X130.1Y-161.12
X130.1Y-163.66
T3
X78.74Y-132.08
X81.28Y-132.08
X116.84Y-142.24
X116.84Y-144.78
X96.52Y-132.08
X99.06Y-132.08
X116.84Y-152.4
X116.84Y-154.94
X116.84Y-157.48
X116.84Y-160.02
X73.58Y-142.24
X73.58Y-144.78
X73.58Y-147.32
X73.58Y-149.86
X73.58Y-152.4
X73.58Y-154.94
X73.58Y-157.48
X73.58Y-160.02
X60.96Y-132.08
X63.5Y-132.08
X114.3Y-132.08
X116.84Y-132.08
X101.52Y-142.24
X101.52Y-144.78
X101.52Y-147.32
X101.52Y-149.86
X101.52Y-152.4
X101.52Y-154.94
X101.52Y-157.48
X101.52Y-160.02
X104.06Y-142.24
X104.06Y-144.78
X104.06Y-147.32
X104.06Y-149.86
X104.06Y-152.4
X104.06Y-154.94
X104.06Y-157.48
X104.06Y-160.02
X86.28Y-142.24
X86.28Y-144.78
X86.28Y-147.32
X86.28Y-149.86
X86.28Y-152.4
X86.28Y-154.94
X86.28Y-157.48
X86.28Y-160.02
X60.96Y-142.24
X60.96Y-144.78
X60.96Y-147.32
X60.96Y-149.86
X60.96Y-152.4
X60.96Y-154.94
X60.96Y-157.48
X60.96Y-160.02
T4
X57.Y-127.
X57.Y-166.
T0
M30
