M48
; DRILL file {KiCad 5.1.10-88a1d61d58~88~ubuntu20.10.1} date Thu May 13 20:15:12 2021
; FORMAT={-:-/ absolute / metric / decimal}
; #@! TF.CreationDate,2021-05-13T20:15:12+02:00
; #@! TF.GenerationSoftware,Kicad,Pcbnew,5.1.10-88a1d61d58~88~ubuntu20.10.1
; #@! TF.FileFunction,Plated,1,2,PTH
FMAT,2
METRIC
T1C1.000
%
G90
G05
T1
X90.18Y-54.38
X90.18Y-64.54
X90.18Y-69.62
X90.18Y-79.78
X92.72Y-54.38
X92.72Y-64.54
X92.72Y-69.62
X92.72Y-79.78
X95.26Y-54.38
X95.26Y-64.54
X95.26Y-69.62
X95.26Y-79.78
X97.8Y-54.38
X97.8Y-64.54
X97.8Y-69.62
X97.8Y-79.78
X100.34Y-54.38
X100.34Y-64.54
X100.34Y-69.62
X100.34Y-79.78
X102.88Y-54.38
X102.88Y-64.54
X102.88Y-69.62
X102.88Y-79.78
X105.42Y-54.38
X105.42Y-64.54
X105.42Y-69.62
X105.42Y-79.78
X107.96Y-54.38
X107.96Y-64.54
X107.96Y-69.62
X107.96Y-79.78
X110.5Y-54.38
X110.5Y-64.54
X110.5Y-69.62
X110.5Y-79.78
X113.04Y-54.38
X113.04Y-64.54
X113.04Y-69.62
X113.04Y-79.78
T0
M30
