%TF.GenerationSoftware,KiCad,Pcbnew,5.1.10-88a1d61d58~88~ubuntu20.10.1*%
%TF.CreationDate,2021-05-08T10:35:22+02:00*%
%TF.ProjectId,Breakout-Cartridge,42726561-6b6f-4757-942d-436172747269,1.0*%
%TF.SameCoordinates,Original*%
%TF.FileFunction,Copper,L1,Top*%
%TF.FilePolarity,Positive*%
%FSLAX46Y46*%
G04 Gerber Fmt 4.6, Leading zero omitted, Abs format (unit mm)*
G04 Created by KiCad (PCBNEW 5.1.10-88a1d61d58~88~ubuntu20.10.1) date 2021-05-08 10:35:22*
%MOMM*%
%LPD*%
G01*
G04 APERTURE LIST*
%TA.AperFunction,ComponentPad*%
%ADD10O,1.700000X1.700000*%
%TD*%
%TA.AperFunction,ComponentPad*%
%ADD11C,1.700000*%
%TD*%
%TA.AperFunction,SMDPad,CuDef*%
%ADD12R,5.600000X0.800000*%
%TD*%
%TA.AperFunction,SMDPad,CuDef*%
%ADD13R,6.600000X0.800000*%
%TD*%
%TA.AperFunction,Conductor*%
%ADD14C,0.350000*%
%TD*%
%TA.AperFunction,Conductor*%
%ADD15C,0.150000*%
%TD*%
G04 APERTURE END LIST*
D10*
%TO.P,J2,10*%
%TO.N,Net-(J2-Pad10)*%
X113040000Y-54380000D03*
%TO.P,J2,9*%
%TO.N,Net-(J2-Pad9)*%
X110500000Y-54380000D03*
%TO.P,J2,8*%
%TO.N,Net-(J2-Pad8)*%
X107960000Y-54380000D03*
%TO.P,J2,7*%
%TO.N,Net-(J2-Pad7)*%
X105420000Y-54380000D03*
%TO.P,J2,6*%
%TO.N,Net-(J2-Pad6)*%
X102880000Y-54380000D03*
%TO.P,J2,5*%
%TO.N,Net-(J2-Pad5)*%
X100340000Y-54380000D03*
%TO.P,J2,4*%
%TO.N,Net-(J2-Pad4)*%
X97800000Y-54380000D03*
%TO.P,J2,3*%
%TO.N,Net-(J2-Pad3)*%
X95260000Y-54380000D03*
%TO.P,J2,2*%
%TO.N,Net-(J2-Pad2)*%
X92720000Y-54380000D03*
D11*
%TO.P,J2,1*%
%TO.N,Net-(J2-Pad1)*%
X90180000Y-54380000D03*
%TD*%
D10*
%TO.P,J1,10*%
%TO.N,Net-(J1-Pad10)*%
X90180000Y-79780000D03*
%TO.P,J1,9*%
%TO.N,Net-(J1-Pad9)*%
X92720000Y-79780000D03*
%TO.P,J1,8*%
%TO.N,Net-(J1-Pad8)*%
X95260000Y-79780000D03*
%TO.P,J1,7*%
%TO.N,Net-(J1-Pad7)*%
X97800000Y-79780000D03*
%TO.P,J1,6*%
%TO.N,Net-(J1-Pad6)*%
X100340000Y-79780000D03*
%TO.P,J1,5*%
%TO.N,Net-(J1-Pad5)*%
X102880000Y-79780000D03*
%TO.P,J1,4*%
%TO.N,Net-(J1-Pad4)*%
X105420000Y-79780000D03*
%TO.P,J1,3*%
%TO.N,Net-(J1-Pad3)*%
X107960000Y-79780000D03*
%TO.P,J1,2*%
%TO.N,Net-(J1-Pad2)*%
X110500000Y-79780000D03*
D11*
%TO.P,J1,1*%
%TO.N,Net-(J1-Pad1)*%
X113040000Y-79780000D03*
%TD*%
D12*
%TO.P,J3,14*%
%TO.N,Net-(J2-Pad4)*%
X120244000Y-62728000D03*
%TO.P,J3,13*%
%TO.N,Net-(J2-Pad3)*%
X120244000Y-64008000D03*
%TO.P,J3,12*%
%TO.N,Net-(J2-Pad2)*%
X120244000Y-65278000D03*
%TO.P,J3,11*%
%TO.N,Net-(J2-Pad1)*%
X120244000Y-66548000D03*
%TO.P,J3,10*%
%TO.N,Net-(J1-Pad10)*%
X120244000Y-67828000D03*
%TO.P,J3,9*%
%TO.N,Net-(J1-Pad9)*%
X120244000Y-69098000D03*
%TO.P,J3,8*%
%TO.N,Net-(J1-Pad8)*%
X120244000Y-70368000D03*
%TO.P,J3,7*%
%TO.N,Net-(J1-Pad7)*%
X120244000Y-71648000D03*
%TO.P,J3,6*%
%TO.N,Net-(J1-Pad6)*%
X120244000Y-72918000D03*
%TO.P,J3,15*%
%TO.N,Net-(J2-Pad5)*%
X120244000Y-61458000D03*
%TO.P,J3,3*%
%TO.N,Net-(J1-Pad3)*%
X120244000Y-76738000D03*
%TO.P,J3,2*%
%TO.N,Net-(J1-Pad2)*%
X120244000Y-78008000D03*
%TO.P,J3,16*%
%TO.N,Net-(J2-Pad6)*%
X120244000Y-60178000D03*
%TO.P,J3,17*%
%TO.N,Net-(J2-Pad7)*%
X120244000Y-58908000D03*
%TO.P,J3,18*%
%TO.N,Net-(J2-Pad8)*%
X120244000Y-57638000D03*
%TO.P,J3,5*%
%TO.N,Net-(J1-Pad5)*%
X120244000Y-74198000D03*
D13*
%TO.P,J3,1*%
%TO.N,Net-(J1-Pad1)*%
X120744000Y-79288000D03*
%TO.P,J3,20*%
%TO.N,Net-(J2-Pad10)*%
X120744000Y-55088000D03*
D12*
%TO.P,J3,4*%
%TO.N,Net-(J1-Pad4)*%
X120244000Y-75468000D03*
%TO.P,J3,19*%
%TO.N,Net-(J2-Pad9)*%
X120244000Y-56358000D03*
%TD*%
D11*
%TO.P,J4,1*%
%TO.N,Net-(J3-Pad21)*%
X90180000Y-69620000D03*
D10*
%TO.P,J4,2*%
%TO.N,Net-(J3-Pad22)*%
X92720000Y-69620000D03*
%TO.P,J4,3*%
%TO.N,Net-(J3-Pad23)*%
X95260000Y-69620000D03*
%TO.P,J4,4*%
%TO.N,Net-(J3-Pad24)*%
X97800000Y-69620000D03*
%TO.P,J4,5*%
%TO.N,Net-(J3-Pad25)*%
X100340000Y-69620000D03*
%TO.P,J4,6*%
%TO.N,Net-(J3-Pad26)*%
X102880000Y-69620000D03*
%TO.P,J4,7*%
%TO.N,Net-(J3-Pad27)*%
X105420000Y-69620000D03*
%TO.P,J4,8*%
%TO.N,Net-(J3-Pad28)*%
X107960000Y-69620000D03*
%TO.P,J4,9*%
%TO.N,Net-(J3-Pad29)*%
X110500000Y-69620000D03*
%TO.P,J4,10*%
%TO.N,Net-(J3-Pad30)*%
X113040000Y-69620000D03*
%TD*%
%TO.P,J5,10*%
%TO.N,Net-(J3-Pad40)*%
X90180000Y-64540000D03*
%TO.P,J5,9*%
%TO.N,Net-(J3-Pad39)*%
X92720000Y-64540000D03*
%TO.P,J5,8*%
%TO.N,Net-(J3-Pad38)*%
X95260000Y-64540000D03*
%TO.P,J5,7*%
%TO.N,Net-(J3-Pad37)*%
X97800000Y-64540000D03*
%TO.P,J5,6*%
%TO.N,Net-(J3-Pad36)*%
X100340000Y-64540000D03*
%TO.P,J5,5*%
%TO.N,Net-(J3-Pad35)*%
X102880000Y-64540000D03*
%TO.P,J5,4*%
%TO.N,Net-(J3-Pad34)*%
X105420000Y-64540000D03*
%TO.P,J5,3*%
%TO.N,Net-(J3-Pad33)*%
X107960000Y-64540000D03*
%TO.P,J5,2*%
%TO.N,Net-(J3-Pad32)*%
X110500000Y-64540000D03*
D11*
%TO.P,J5,1*%
%TO.N,Net-(J3-Pad31)*%
X113040000Y-64540000D03*
%TD*%
D14*
%TO.N,Net-(J1-Pad1)*%
X113532000Y-79288000D02*
X113040000Y-79780000D01*
X120744000Y-79288000D02*
X113532000Y-79288000D01*
%TO.N,Net-(J1-Pad2)*%
X112272000Y-78008000D02*
X120244000Y-78008000D01*
D15*
X110500000Y-79780000D02*
X112272000Y-78008000D01*
D14*
%TO.N,Net-(J1-Pad3)*%
X111002000Y-76738000D02*
X120244000Y-76738000D01*
X107960000Y-79780000D02*
X111002000Y-76738000D01*
%TO.N,Net-(J1-Pad4)*%
X109732000Y-75468000D02*
X120244000Y-75468000D01*
X105420000Y-79780000D02*
X109732000Y-75468000D01*
%TO.N,Net-(J1-Pad5)*%
X108462000Y-74198000D02*
X120244000Y-74198000D01*
X102880000Y-79780000D02*
X108462000Y-74198000D01*
%TO.N,Net-(J1-Pad6)*%
X107202000Y-72918000D02*
X120244000Y-72918000D01*
X100340000Y-79780000D02*
X107202000Y-72918000D01*
%TO.N,Net-(J1-Pad7)*%
X115580000Y-72160000D02*
X116092000Y-71648000D01*
X105420000Y-72160000D02*
X115580000Y-72160000D01*
X116092000Y-71648000D02*
X120244000Y-71648000D01*
X97800000Y-79780000D02*
X105420000Y-72160000D01*
%TO.N,Net-(J1-Pad8)*%
X116102000Y-70368000D02*
X120244000Y-70368000D01*
X114945000Y-71525000D02*
X116102000Y-70368000D01*
X103515000Y-71525000D02*
X114945000Y-71525000D01*
X95260000Y-79780000D02*
X103515000Y-71525000D01*
%TO.N,Net-(J1-Pad9)*%
X116102000Y-69098000D02*
X120244000Y-69098000D01*
X114310000Y-70890000D02*
X116102000Y-69098000D01*
X101610000Y-70890000D02*
X114310000Y-70890000D01*
X92720000Y-79780000D02*
X101610000Y-70890000D01*
%TO.N,Net-(J1-Pad10)*%
X100318998Y-67828000D02*
X102132000Y-67828000D01*
X99114999Y-69031999D02*
X100318998Y-67828000D01*
X99114999Y-70845001D02*
X99114999Y-69031999D01*
X90180000Y-79780000D02*
X99114999Y-70845001D01*
X120244000Y-67828000D02*
X102132000Y-67828000D01*
%TO.N,Net-(J2-Pad10)*%
X113748000Y-55088000D02*
X113040000Y-54380000D01*
X120744000Y-55088000D02*
X113748000Y-55088000D01*
%TO.N,Net-(J2-Pad9)*%
X112478000Y-56358000D02*
X120244000Y-56358000D01*
X110500000Y-54380000D02*
X112478000Y-56358000D01*
%TO.N,Net-(J2-Pad8)*%
X111218000Y-57638000D02*
X120244000Y-57638000D01*
X107960000Y-54380000D02*
X111218000Y-57638000D01*
%TO.N,Net-(J2-Pad7)*%
X109948000Y-58908000D02*
X120244000Y-58908000D01*
X105420000Y-54380000D02*
X109948000Y-58908000D01*
%TO.N,Net-(J2-Pad6)*%
X108678000Y-60178000D02*
X120244000Y-60178000D01*
X102880000Y-54380000D02*
X108678000Y-60178000D01*
%TO.N,Net-(J2-Pad5)*%
X107418000Y-61458000D02*
X120244000Y-61458000D01*
X100340000Y-54380000D02*
X107418000Y-61458000D01*
%TO.N,Net-(J2-Pad4)*%
X116308000Y-62728000D02*
X120244000Y-62728000D01*
X115588011Y-62008011D02*
X116308000Y-62728000D01*
X105428011Y-62008011D02*
X115588011Y-62008011D01*
X97800000Y-54380000D02*
X105428011Y-62008011D01*
%TO.N,Net-(J2-Pad3)*%
X116318000Y-64008000D02*
X120244000Y-64008000D01*
X114945000Y-62635000D02*
X116318000Y-64008000D01*
X103515000Y-62635000D02*
X114945000Y-62635000D01*
X95260000Y-54380000D02*
X103515000Y-62635000D01*
%TO.N,Net-(J2-Pad2)*%
X116318000Y-65278000D02*
X120244000Y-65278000D01*
X114310000Y-63270000D02*
X116318000Y-65278000D01*
X101610000Y-63270000D02*
X114310000Y-63270000D01*
X92720000Y-54380000D02*
X101610000Y-63270000D01*
%TO.N,Net-(J2-Pad1)*%
X100534998Y-66548000D02*
X103412000Y-66548000D01*
X99025001Y-65038003D02*
X100534998Y-66548000D01*
X99025001Y-63225001D02*
X99025001Y-65038003D01*
X90180000Y-54380000D02*
X99025001Y-63225001D01*
X120244000Y-66548000D02*
X103412000Y-66548000D01*
%TD*%
M02*
