G04 #@! TF.GenerationSoftware,KiCad,Pcbnew,5.1.10-88a1d61d58~88~ubuntu20.10.1*
G04 #@! TF.CreationDate,2021-05-13T20:14:57+02:00*
G04 #@! TF.ProjectId,Breakout-Cartridge,42726561-6b6f-4757-942d-436172747269,1.0*
G04 #@! TF.SameCoordinates,Original*
G04 #@! TF.FileFunction,Soldermask,Top*
G04 #@! TF.FilePolarity,Negative*
%FSLAX46Y46*%
G04 Gerber Fmt 4.6, Leading zero omitted, Abs format (unit mm)*
G04 Created by KiCad (PCBNEW 5.1.10-88a1d61d58~88~ubuntu20.10.1) date 2021-05-13 20:14:57*
%MOMM*%
%LPD*%
G01*
G04 APERTURE LIST*
%ADD10C,0.050000*%
%ADD11O,1.700000X1.700000*%
%ADD12C,1.700000*%
%ADD13R,5.600000X0.800000*%
%ADD14R,6.600000X0.800000*%
G04 APERTURE END LIST*
D10*
G36*
X117444000Y-80388000D02*
G01*
X123244000Y-80388000D01*
X124044000Y-79688000D01*
X124044000Y-78588000D01*
X123044000Y-78588000D01*
X123044000Y-55788000D01*
X124044000Y-55788000D01*
X124044000Y-54688000D01*
X123244000Y-53888000D01*
X117444000Y-53888000D01*
X117444000Y-80388000D01*
G37*
X117444000Y-80388000D02*
X123244000Y-80388000D01*
X124044000Y-79688000D01*
X124044000Y-78588000D01*
X123044000Y-78588000D01*
X123044000Y-55788000D01*
X124044000Y-55788000D01*
X124044000Y-54688000D01*
X123244000Y-53888000D01*
X117444000Y-53888000D01*
X117444000Y-80388000D01*
D11*
X113040000Y-54380000D03*
X110500000Y-54380000D03*
X107960000Y-54380000D03*
X105420000Y-54380000D03*
X102880000Y-54380000D03*
X100340000Y-54380000D03*
X97800000Y-54380000D03*
X95260000Y-54380000D03*
X92720000Y-54380000D03*
D12*
X90180000Y-54380000D03*
D11*
X90180000Y-79780000D03*
X92720000Y-79780000D03*
X95260000Y-79780000D03*
X97800000Y-79780000D03*
X100340000Y-79780000D03*
X102880000Y-79780000D03*
X105420000Y-79780000D03*
X107960000Y-79780000D03*
X110500000Y-79780000D03*
D12*
X113040000Y-79780000D03*
D13*
X120244000Y-62728000D03*
X120244000Y-64008000D03*
X120244000Y-65278000D03*
X120244000Y-66548000D03*
X120244000Y-67828000D03*
X120244000Y-69098000D03*
X120244000Y-70368000D03*
X120244000Y-71648000D03*
X120244000Y-72918000D03*
X120244000Y-61458000D03*
X120244000Y-76738000D03*
X120244000Y-78008000D03*
X120244000Y-60178000D03*
X120244000Y-58908000D03*
X120244000Y-57638000D03*
X120244000Y-74198000D03*
D14*
X120744000Y-79288000D03*
X120744000Y-55088000D03*
D13*
X120244000Y-75468000D03*
X120244000Y-56358000D03*
D12*
X90180000Y-69620000D03*
D11*
X92720000Y-69620000D03*
X95260000Y-69620000D03*
X97800000Y-69620000D03*
X100340000Y-69620000D03*
X102880000Y-69620000D03*
X105420000Y-69620000D03*
X107960000Y-69620000D03*
X110500000Y-69620000D03*
X113040000Y-69620000D03*
X90180000Y-64540000D03*
X92720000Y-64540000D03*
X95260000Y-64540000D03*
X97800000Y-64540000D03*
X100340000Y-64540000D03*
X102880000Y-64540000D03*
X105420000Y-64540000D03*
X107960000Y-64540000D03*
X110500000Y-64540000D03*
D12*
X113040000Y-64540000D03*
M02*
