M48
; DRILL file {KiCad 5.1.10-88a1d61d58~88~ubuntu20.10.1} date Sat May  8 10:35:32 2021
; FORMAT={-:-/ absolute / inch / decimal}
; #@! TF.CreationDate,2021-05-08T10:35:32+02:00
; #@! TF.GenerationSoftware,Kicad,Pcbnew,5.1.10-88a1d61d58~88~ubuntu20.10.1
FMAT,2
INCH
T1C0.0394
%
G90
G05
T1
X3.5504Y-2.1409
X3.5504Y-2.5409
X3.5504Y-2.7409
X3.5504Y-3.1409
X3.6504Y-2.1409
X3.6504Y-2.5409
X3.6504Y-2.7409
X3.6504Y-3.1409
X3.7504Y-2.1409
X3.7504Y-2.5409
X3.7504Y-2.7409
X3.7504Y-3.1409
X3.8504Y-2.1409
X3.8504Y-2.5409
X3.8504Y-2.7409
X3.8504Y-3.1409
X3.9504Y-2.1409
X3.9504Y-2.5409
X3.9504Y-2.7409
X3.9504Y-3.1409
X4.0504Y-2.1409
X4.0504Y-2.5409
X4.0504Y-2.7409
X4.0504Y-3.1409
X4.1504Y-2.1409
X4.1504Y-2.5409
X4.1504Y-2.7409
X4.1504Y-3.1409
X4.2504Y-2.1409
X4.2504Y-2.5409
X4.2504Y-2.7409
X4.2504Y-3.1409
X4.3504Y-2.1409
X4.3504Y-2.5409
X4.3504Y-2.7409
X4.3504Y-3.1409
X4.4504Y-2.1409
X4.4504Y-2.5409
X4.4504Y-2.7409
X4.4504Y-3.1409
T0
M30
