%TF.GenerationSoftware,KiCad,Pcbnew,5.1.10-88a1d61d58~88~ubuntu20.10.1*%
%TF.CreationDate,2021-05-08T10:35:22+02:00*%
%TF.ProjectId,Breakout-Cartridge,42726561-6b6f-4757-942d-436172747269,1.0*%
%TF.SameCoordinates,Original*%
%TF.FileFunction,Copper,L2,Bot*%
%TF.FilePolarity,Positive*%
%FSLAX46Y46*%
G04 Gerber Fmt 4.6, Leading zero omitted, Abs format (unit mm)*
G04 Created by KiCad (PCBNEW 5.1.10-88a1d61d58~88~ubuntu20.10.1) date 2021-05-08 10:35:22*
%MOMM*%
%LPD*%
G01*
G04 APERTURE LIST*
%TA.AperFunction,ComponentPad*%
%ADD10O,1.700000X1.700000*%
%TD*%
%TA.AperFunction,ComponentPad*%
%ADD11C,1.700000*%
%TD*%
%TA.AperFunction,SMDPad,CuDef*%
%ADD12R,5.600000X0.800000*%
%TD*%
%TA.AperFunction,SMDPad,CuDef*%
%ADD13R,6.600000X0.800000*%
%TD*%
%TA.AperFunction,Conductor*%
%ADD14C,0.350000*%
%TD*%
G04 APERTURE END LIST*
D10*
%TO.P,J2,10*%
%TO.N,Net-(J2-Pad10)*%
X113040000Y-54380000D03*
%TO.P,J2,9*%
%TO.N,Net-(J2-Pad9)*%
X110500000Y-54380000D03*
%TO.P,J2,8*%
%TO.N,Net-(J2-Pad8)*%
X107960000Y-54380000D03*
%TO.P,J2,7*%
%TO.N,Net-(J2-Pad7)*%
X105420000Y-54380000D03*
%TO.P,J2,6*%
%TO.N,Net-(J2-Pad6)*%
X102880000Y-54380000D03*
%TO.P,J2,5*%
%TO.N,Net-(J2-Pad5)*%
X100340000Y-54380000D03*
%TO.P,J2,4*%
%TO.N,Net-(J2-Pad4)*%
X97800000Y-54380000D03*
%TO.P,J2,3*%
%TO.N,Net-(J2-Pad3)*%
X95260000Y-54380000D03*
%TO.P,J2,2*%
%TO.N,Net-(J2-Pad2)*%
X92720000Y-54380000D03*
D11*
%TO.P,J2,1*%
%TO.N,Net-(J2-Pad1)*%
X90180000Y-54380000D03*
%TD*%
D10*
%TO.P,J1,10*%
%TO.N,Net-(J1-Pad10)*%
X90180000Y-79780000D03*
%TO.P,J1,9*%
%TO.N,Net-(J1-Pad9)*%
X92720000Y-79780000D03*
%TO.P,J1,8*%
%TO.N,Net-(J1-Pad8)*%
X95260000Y-79780000D03*
%TO.P,J1,7*%
%TO.N,Net-(J1-Pad7)*%
X97800000Y-79780000D03*
%TO.P,J1,6*%
%TO.N,Net-(J1-Pad6)*%
X100340000Y-79780000D03*
%TO.P,J1,5*%
%TO.N,Net-(J1-Pad5)*%
X102880000Y-79780000D03*
%TO.P,J1,4*%
%TO.N,Net-(J1-Pad4)*%
X105420000Y-79780000D03*
%TO.P,J1,3*%
%TO.N,Net-(J1-Pad3)*%
X107960000Y-79780000D03*
%TO.P,J1,2*%
%TO.N,Net-(J1-Pad2)*%
X110500000Y-79780000D03*
D11*
%TO.P,J1,1*%
%TO.N,Net-(J1-Pad1)*%
X113040000Y-79780000D03*
%TD*%
D12*
%TO.P,J3,37*%
%TO.N,Net-(J3-Pad37)*%
X120244000Y-58908000D03*
%TO.P,J3,36*%
%TO.N,Net-(J3-Pad36)*%
X120244000Y-60178000D03*
%TO.P,J3,35*%
%TO.N,Net-(J3-Pad35)*%
X120244000Y-61458000D03*
%TO.P,J3,34*%
%TO.N,Net-(J3-Pad34)*%
X120244000Y-62728000D03*
%TO.P,J3,33*%
%TO.N,Net-(J3-Pad33)*%
X120244000Y-64008000D03*
%TO.P,J3,32*%
%TO.N,Net-(J3-Pad32)*%
X120244000Y-65278000D03*
%TO.P,J3,31*%
%TO.N,Net-(J3-Pad31)*%
X120244000Y-66548000D03*
%TO.P,J3,30*%
%TO.N,Net-(J3-Pad30)*%
X120244000Y-67828000D03*
%TO.P,J3,29*%
%TO.N,Net-(J3-Pad29)*%
X120244000Y-69098000D03*
%TO.P,J3,28*%
%TO.N,Net-(J3-Pad28)*%
X120244000Y-70368000D03*
%TO.P,J3,27*%
%TO.N,Net-(J3-Pad27)*%
X120244000Y-71648000D03*
%TO.P,J3,26*%
%TO.N,Net-(J3-Pad26)*%
X120244000Y-72918000D03*
%TO.P,J3,25*%
%TO.N,Net-(J3-Pad25)*%
X120244000Y-74198000D03*
%TO.P,J3,24*%
%TO.N,Net-(J3-Pad24)*%
X120244000Y-75468000D03*
%TO.P,J3,23*%
%TO.N,Net-(J3-Pad23)*%
X120244000Y-76738000D03*
%TO.P,J3,22*%
%TO.N,Net-(J3-Pad22)*%
X120244000Y-78008000D03*
D13*
%TO.P,J3,21*%
%TO.N,Net-(J3-Pad21)*%
X120744000Y-79288000D03*
%TO.P,J3,40*%
%TO.N,Net-(J3-Pad40)*%
X120744000Y-55088000D03*
D12*
%TO.P,J3,38*%
%TO.N,Net-(J3-Pad38)*%
X120244000Y-57638000D03*
%TO.P,J3,39*%
%TO.N,Net-(J3-Pad39)*%
X120244000Y-56358000D03*
%TD*%
D11*
%TO.P,J4,1*%
%TO.N,Net-(J3-Pad21)*%
X90180000Y-69620000D03*
D10*
%TO.P,J4,2*%
%TO.N,Net-(J3-Pad22)*%
X92720000Y-69620000D03*
%TO.P,J4,3*%
%TO.N,Net-(J3-Pad23)*%
X95260000Y-69620000D03*
%TO.P,J4,4*%
%TO.N,Net-(J3-Pad24)*%
X97800000Y-69620000D03*
%TO.P,J4,5*%
%TO.N,Net-(J3-Pad25)*%
X100340000Y-69620000D03*
%TO.P,J4,6*%
%TO.N,Net-(J3-Pad26)*%
X102880000Y-69620000D03*
%TO.P,J4,7*%
%TO.N,Net-(J3-Pad27)*%
X105420000Y-69620000D03*
%TO.P,J4,8*%
%TO.N,Net-(J3-Pad28)*%
X107960000Y-69620000D03*
%TO.P,J4,9*%
%TO.N,Net-(J3-Pad29)*%
X110500000Y-69620000D03*
%TO.P,J4,10*%
%TO.N,Net-(J3-Pad30)*%
X113040000Y-69620000D03*
%TD*%
%TO.P,J5,10*%
%TO.N,Net-(J3-Pad40)*%
X90180000Y-64540000D03*
%TO.P,J5,9*%
%TO.N,Net-(J3-Pad39)*%
X92720000Y-64540000D03*
%TO.P,J5,8*%
%TO.N,Net-(J3-Pad38)*%
X95260000Y-64540000D03*
%TO.P,J5,7*%
%TO.N,Net-(J3-Pad37)*%
X97800000Y-64540000D03*
%TO.P,J5,6*%
%TO.N,Net-(J3-Pad36)*%
X100340000Y-64540000D03*
%TO.P,J5,5*%
%TO.N,Net-(J3-Pad35)*%
X102880000Y-64540000D03*
%TO.P,J5,4*%
%TO.N,Net-(J3-Pad34)*%
X105420000Y-64540000D03*
%TO.P,J5,3*%
%TO.N,Net-(J3-Pad33)*%
X107960000Y-64540000D03*
%TO.P,J5,2*%
%TO.N,Net-(J3-Pad32)*%
X110500000Y-64540000D03*
D11*
%TO.P,J5,1*%
%TO.N,Net-(J3-Pad31)*%
X113040000Y-64540000D03*
%TD*%
D14*
%TO.N,Net-(J3-Pad36)*%
X104702000Y-60178000D02*
X100340000Y-64540000D01*
X120244000Y-60178000D02*
X104702000Y-60178000D01*
%TO.N,Net-(J3-Pad34)*%
X120244000Y-62728000D02*
X116308000Y-62728000D01*
X116308000Y-62728000D02*
X115580000Y-62000000D01*
X107960000Y-62000000D02*
X105420000Y-64540000D01*
X115580000Y-62000000D02*
X107960000Y-62000000D01*
%TO.N,Net-(J3-Pad32)*%
X120244000Y-65278000D02*
X116318000Y-65278000D01*
X116318000Y-65278000D02*
X114310000Y-63270000D01*
X111770000Y-63270000D02*
X110500000Y-64540000D01*
X114310000Y-63270000D02*
X111770000Y-63270000D01*
%TO.N,Net-(J3-Pad30)*%
X114832000Y-67828000D02*
X113040000Y-69620000D01*
X120244000Y-67828000D02*
X114832000Y-67828000D01*
%TO.N,Net-(J3-Pad28)*%
X120244000Y-70368000D02*
X116102000Y-70368000D01*
X116102000Y-70368000D02*
X114945000Y-71525000D01*
X109865000Y-71525000D02*
X107960000Y-69620000D01*
X114945000Y-71525000D02*
X109865000Y-71525000D01*
%TO.N,Net-(J3-Pad26)*%
X106178000Y-72918000D02*
X102880000Y-69620000D01*
X120244000Y-72918000D02*
X106178000Y-72918000D01*
%TO.N,Net-(J3-Pad24)*%
X103648000Y-75468000D02*
X97800000Y-69620000D01*
X120244000Y-75468000D02*
X103648000Y-75468000D01*
%TO.N,Net-(J3-Pad22)*%
X101108000Y-78008000D02*
X92720000Y-69620000D01*
X120244000Y-78008000D02*
X101108000Y-78008000D01*
%TO.N,Net-(J3-Pad40)*%
X99070000Y-55650000D02*
X90180000Y-64540000D01*
X99070000Y-53745000D02*
X99070000Y-55650000D01*
X99705000Y-53110000D02*
X99070000Y-53745000D01*
X114310000Y-53110000D02*
X99705000Y-53110000D01*
X116288000Y-55088000D02*
X114310000Y-53110000D01*
X120744000Y-55088000D02*
X116288000Y-55088000D01*
%TO.N,Net-(J3-Pad38)*%
X102162000Y-57638000D02*
X95260000Y-64540000D01*
X120244000Y-57638000D02*
X102162000Y-57638000D01*
%TO.N,Net-(J3-Pad37)*%
X103432000Y-58908000D02*
X97800000Y-64540000D01*
X120244000Y-58908000D02*
X103432000Y-58908000D01*
%TO.N,Net-(J3-Pad35)*%
X102880000Y-64540000D02*
X106055000Y-61365000D01*
X120151000Y-61365000D02*
X120244000Y-61458000D01*
X106055000Y-61365000D02*
X120151000Y-61365000D01*
%TO.N,Net-(J3-Pad33)*%
X120244000Y-64008000D02*
X116318000Y-64008000D01*
X116318000Y-64008000D02*
X114945000Y-62635000D01*
X109865000Y-62635000D02*
X107960000Y-64540000D01*
X114945000Y-62635000D02*
X109865000Y-62635000D01*
%TO.N,Net-(J3-Pad31)*%
X115048000Y-66548000D02*
X113040000Y-64540000D01*
X120244000Y-66548000D02*
X115048000Y-66548000D01*
%TO.N,Net-(J3-Pad29)*%
X120244000Y-69098000D02*
X116102000Y-69098000D01*
X116102000Y-69098000D02*
X114310000Y-70890000D01*
X111770000Y-70890000D02*
X110500000Y-69620000D01*
X114310000Y-70890000D02*
X111770000Y-70890000D01*
%TO.N,Net-(J3-Pad27)*%
X120244000Y-71648000D02*
X116092000Y-71648000D01*
X116092000Y-71648000D02*
X115580000Y-72160000D01*
X107960000Y-72160000D02*
X105420000Y-69620000D01*
X115580000Y-72160000D02*
X107960000Y-72160000D01*
%TO.N,Net-(J3-Pad25)*%
X104918000Y-74198000D02*
X100340000Y-69620000D01*
X120244000Y-74198000D02*
X104918000Y-74198000D01*
%TO.N,Net-(J3-Pad23)*%
X102378000Y-76738000D02*
X95260000Y-69620000D01*
X120244000Y-76738000D02*
X102378000Y-76738000D01*
%TO.N,Net-(J3-Pad21)*%
X99070000Y-78510000D02*
X90180000Y-69620000D01*
X99070000Y-80415000D02*
X99070000Y-78510000D01*
X99705000Y-81050000D02*
X99070000Y-80415000D01*
X116707000Y-79288000D02*
X114945000Y-81050000D01*
X114945000Y-81050000D02*
X99705000Y-81050000D01*
X120744000Y-79288000D02*
X116707000Y-79288000D01*
%TO.N,Net-(J3-Pad39)*%
X100902000Y-56358000D02*
X92720000Y-64540000D01*
X120244000Y-56358000D02*
X100902000Y-56358000D01*
%TD*%
M02*
