%FSLAX45Y45*%
G04 Gerber Fmt 4.5, Leading zero omitted, Abs format (unit mm)*
G04 Created by KiCad (PCBNEW 5.1.10-88a1d61d58~88~ubuntu20.10.1) date 2021-05-13 20:15:12*
%MOMM*%
%LPD*%
G01*
G04 APERTURE LIST*
%TA.AperFunction,Profile*%
%ADD10C,0.100000*%
%TD*%
%ADD11C,0.200000*%
%ADD12C,0.300000*%
G04 APERTURE END LIST*
D10*
X8694400Y-8298800D02*
X11694400Y-8298800D01*
X8694400Y-5118800D02*
X8694400Y-8298800D01*
X11694400Y-5118800D02*
X8694400Y-5118800D01*
D11*
D12*
X8975828Y-8769514D02*
X8975828Y-8469514D01*
X9047257Y-8469514D01*
X9090114Y-8483800D01*
X9118686Y-8512372D01*
X9132971Y-8540943D01*
X9147257Y-8598086D01*
X9147257Y-8640943D01*
X9132971Y-8698086D01*
X9118686Y-8726657D01*
X9090114Y-8755229D01*
X9047257Y-8769514D01*
X8975828Y-8769514D01*
X9275828Y-8769514D02*
X9275828Y-8569514D01*
X9275828Y-8626657D02*
X9290114Y-8598086D01*
X9304400Y-8583800D01*
X9332971Y-8569514D01*
X9361543Y-8569514D01*
X9461543Y-8769514D02*
X9461543Y-8569514D01*
X9461543Y-8469514D02*
X9447257Y-8483800D01*
X9461543Y-8498086D01*
X9475828Y-8483800D01*
X9461543Y-8469514D01*
X9461543Y-8498086D01*
X9647257Y-8769514D02*
X9618686Y-8755229D01*
X9604400Y-8726657D01*
X9604400Y-8469514D01*
X9804400Y-8769514D02*
X9775828Y-8755229D01*
X9761543Y-8726657D01*
X9761543Y-8469514D01*
X10147257Y-8769514D02*
X10147257Y-8469514D01*
X10247257Y-8683800D01*
X10347257Y-8469514D01*
X10347257Y-8769514D01*
X10618686Y-8769514D02*
X10618686Y-8612372D01*
X10604400Y-8583800D01*
X10575828Y-8569514D01*
X10518686Y-8569514D01*
X10490114Y-8583800D01*
X10618686Y-8755229D02*
X10590114Y-8769514D01*
X10518686Y-8769514D01*
X10490114Y-8755229D01*
X10475828Y-8726657D01*
X10475828Y-8698086D01*
X10490114Y-8669514D01*
X10518686Y-8655229D01*
X10590114Y-8655229D01*
X10618686Y-8640943D01*
X10761543Y-8569514D02*
X10761543Y-8869514D01*
X10761543Y-8583800D02*
X10790114Y-8569514D01*
X10847257Y-8569514D01*
X10875828Y-8583800D01*
X10890114Y-8598086D01*
X10904400Y-8626657D01*
X10904400Y-8712372D01*
X10890114Y-8740943D01*
X10875828Y-8755229D01*
X10847257Y-8769514D01*
X10790114Y-8769514D01*
X10761543Y-8755229D01*
X11032971Y-8740943D02*
X11047257Y-8755229D01*
X11032971Y-8769514D01*
X11018686Y-8755229D01*
X11032971Y-8740943D01*
X11032971Y-8769514D01*
X11032971Y-8583800D02*
X11047257Y-8598086D01*
X11032971Y-8612372D01*
X11018686Y-8598086D01*
X11032971Y-8583800D01*
X11032971Y-8612372D01*
M02*
