G75*
%MOIN*%
%OFA0B0*%
%FSLAX24Y24*%
%IPPOS*%
%LPD*%
%AMOC8*
5,1,8,0,0,1.08239X$1,22.5*
%
%ADD10C,0.0040*%
%ADD11C,0.0100*%
%ADD12C,0.0060*%
%ADD13C,0.0000*%
D10*
X009647Y005065D02*
X009724Y005065D01*
X009877Y005065D02*
X010184Y005065D01*
X010184Y004989D02*
X010184Y005142D01*
X010184Y005295D02*
X009877Y005295D01*
X009877Y005526D01*
X009954Y005602D01*
X010184Y005602D01*
X010184Y005756D02*
X010184Y006063D01*
X010184Y005909D02*
X009724Y005909D01*
X009877Y005756D01*
X009877Y005065D02*
X009877Y004989D01*
X009801Y004835D02*
X009954Y004835D01*
X010031Y004758D01*
X010031Y004528D01*
X010184Y004528D02*
X009724Y004528D01*
X009724Y004758D01*
X009801Y004835D01*
X009724Y007028D02*
X009724Y007258D01*
X009801Y007335D01*
X009954Y007335D01*
X010031Y007258D01*
X010031Y007028D01*
X010184Y007028D02*
X009724Y007028D01*
X009877Y007489D02*
X009877Y007565D01*
X010184Y007565D01*
X010184Y007489D02*
X010184Y007642D01*
X010184Y007795D02*
X009877Y007795D01*
X009877Y008026D01*
X009954Y008102D01*
X010184Y008102D01*
X010184Y008256D02*
X010184Y008563D01*
X010184Y008716D02*
X010184Y009023D01*
X010184Y008870D02*
X009724Y008870D01*
X009877Y008716D01*
X009724Y008409D02*
X010184Y008409D01*
X009877Y008256D02*
X009724Y008409D01*
X009724Y007565D02*
X009647Y007565D01*
X010878Y009528D02*
X010724Y009682D01*
X010724Y009835D01*
X010878Y009989D01*
X011031Y009912D02*
X011031Y009605D01*
X011108Y009528D01*
X011261Y009528D01*
X011338Y009605D01*
X011492Y009605D02*
X011492Y009912D01*
X011568Y009989D01*
X011722Y009989D01*
X011799Y009912D01*
X011952Y009758D02*
X012259Y009758D01*
X012412Y009758D02*
X012643Y009758D01*
X012719Y009682D01*
X012719Y009605D01*
X012643Y009528D01*
X012412Y009528D01*
X012412Y009989D01*
X012643Y009989D01*
X012719Y009912D01*
X012719Y009835D01*
X012643Y009758D01*
X012873Y009912D02*
X013026Y009758D01*
X013026Y009528D01*
X013026Y009758D02*
X013180Y009912D01*
X013180Y009989D01*
X013333Y009758D02*
X013640Y009758D01*
X013794Y009835D02*
X013870Y009758D01*
X014024Y009758D01*
X014101Y009682D01*
X014101Y009605D01*
X014024Y009528D01*
X013870Y009528D01*
X013794Y009605D01*
X013794Y009835D02*
X013794Y009912D01*
X013870Y009989D01*
X014024Y009989D01*
X014101Y009912D01*
X014254Y009835D02*
X014407Y009989D01*
X014561Y009835D01*
X014561Y009528D01*
X014561Y009758D02*
X014254Y009758D01*
X014254Y009835D02*
X014254Y009528D01*
X014177Y010278D02*
X014024Y010278D01*
X013947Y010355D01*
X013947Y010662D01*
X014024Y010739D01*
X014177Y010739D01*
X014254Y010662D01*
X014407Y010508D02*
X014714Y010508D01*
X014868Y010585D02*
X015021Y010739D01*
X015021Y010278D01*
X014868Y010278D02*
X015175Y010278D01*
X015328Y010355D02*
X015405Y010278D01*
X015558Y010278D01*
X015635Y010355D01*
X015635Y010508D01*
X015558Y010585D01*
X015482Y010585D01*
X015328Y010508D01*
X015328Y010739D01*
X015635Y010739D01*
X015789Y010662D02*
X015865Y010739D01*
X016019Y010739D01*
X016096Y010662D01*
X015789Y010355D01*
X015865Y010278D01*
X016019Y010278D01*
X016096Y010355D01*
X016096Y010662D01*
X016249Y010662D02*
X016249Y010355D01*
X016556Y010662D01*
X016556Y010355D01*
X016479Y010278D01*
X016326Y010278D01*
X016249Y010355D01*
X016249Y010662D02*
X016326Y010739D01*
X016479Y010739D01*
X016556Y010662D01*
X016709Y010278D02*
X017016Y010739D01*
X017170Y010585D02*
X017323Y010739D01*
X017323Y010278D01*
X017170Y010278D02*
X017477Y010278D01*
X017630Y010355D02*
X017707Y010278D01*
X017860Y010278D01*
X017937Y010355D01*
X017937Y010432D01*
X017860Y010508D01*
X017630Y010508D01*
X017630Y010355D01*
X017630Y010508D02*
X017784Y010662D01*
X017937Y010739D01*
X018091Y010662D02*
X018167Y010739D01*
X018321Y010739D01*
X018398Y010662D01*
X018091Y010355D01*
X018167Y010278D01*
X018321Y010278D01*
X018398Y010355D01*
X018398Y010662D01*
X018551Y010662D02*
X018551Y010355D01*
X018858Y010662D01*
X018858Y010355D01*
X018781Y010278D01*
X018628Y010278D01*
X018551Y010355D01*
X018551Y010662D02*
X018628Y010739D01*
X018781Y010739D01*
X018858Y010662D01*
X019472Y010662D02*
X019472Y010585D01*
X019549Y010508D01*
X019702Y010508D01*
X019779Y010432D01*
X019779Y010355D01*
X019702Y010278D01*
X019549Y010278D01*
X019472Y010355D01*
X019472Y010662D02*
X019549Y010739D01*
X019702Y010739D01*
X019779Y010662D01*
X019932Y010739D02*
X019932Y010278D01*
X020239Y010278D01*
X020393Y010355D02*
X020469Y010278D01*
X020623Y010278D01*
X020700Y010355D01*
X020700Y010662D01*
X020623Y010739D01*
X020469Y010739D01*
X020393Y010662D01*
X020393Y010355D01*
X020162Y009989D02*
X020239Y009912D01*
X020239Y009835D01*
X020162Y009758D01*
X019932Y009758D01*
X019932Y009528D02*
X020162Y009528D01*
X020239Y009605D01*
X020239Y009682D01*
X020162Y009758D01*
X020162Y009989D02*
X019932Y009989D01*
X019932Y009528D01*
X020393Y009605D02*
X020469Y009682D01*
X020699Y009682D01*
X020699Y009758D02*
X020699Y009528D01*
X020469Y009528D01*
X020393Y009605D01*
X020469Y009835D02*
X020623Y009835D01*
X020699Y009758D01*
X020853Y009758D02*
X020930Y009835D01*
X021160Y009835D01*
X021160Y009989D02*
X021160Y009528D01*
X020930Y009528D01*
X020853Y009605D01*
X020853Y009758D01*
X021313Y009758D02*
X021390Y009835D01*
X021544Y009835D01*
X021620Y009758D01*
X021620Y009682D01*
X021313Y009682D01*
X021313Y009758D02*
X021313Y009605D01*
X021390Y009528D01*
X021544Y009528D01*
X021774Y009528D02*
X021774Y009835D01*
X021927Y009835D02*
X022004Y009835D01*
X021927Y009835D02*
X021774Y009682D01*
X021108Y009023D02*
X021184Y008946D01*
X021184Y008793D01*
X021108Y008716D01*
X020801Y009023D01*
X021108Y009023D01*
X020801Y009023D02*
X020724Y008946D01*
X020724Y008793D01*
X020801Y008716D01*
X021108Y008716D01*
X021184Y008563D02*
X021184Y008256D01*
X020877Y008563D01*
X020801Y008563D01*
X020724Y008486D01*
X020724Y008333D01*
X020801Y008256D01*
X020954Y008102D02*
X021184Y008102D01*
X020954Y008102D02*
X020877Y008026D01*
X020877Y007795D01*
X021184Y007795D01*
X021184Y007642D02*
X021184Y007489D01*
X021184Y007565D02*
X020877Y007565D01*
X020877Y007489D01*
X020724Y007565D02*
X020647Y007565D01*
X020801Y007335D02*
X020724Y007258D01*
X020724Y007028D01*
X021184Y007028D01*
X021031Y007028D02*
X021031Y007258D01*
X020954Y007335D01*
X020801Y007335D01*
X020801Y006523D02*
X020724Y006446D01*
X020724Y006293D01*
X020801Y006216D01*
X021108Y006216D01*
X020801Y006523D01*
X021108Y006523D01*
X021184Y006446D01*
X021184Y006293D01*
X021108Y006216D01*
X021184Y006063D02*
X021184Y005756D01*
X021184Y005909D02*
X020724Y005909D01*
X020877Y005756D01*
X020954Y005602D02*
X021184Y005602D01*
X020954Y005602D02*
X020877Y005526D01*
X020877Y005295D01*
X021184Y005295D01*
X021184Y005142D02*
X021184Y004989D01*
X021184Y005065D02*
X020877Y005065D01*
X020877Y004989D01*
X020724Y005065D02*
X020647Y005065D01*
X020801Y004835D02*
X020724Y004758D01*
X020724Y004528D01*
X021184Y004528D01*
X021031Y004528D02*
X021031Y004758D01*
X020954Y004835D01*
X020801Y004835D01*
X023474Y009028D02*
X023474Y009335D01*
X023474Y009182D02*
X023934Y009182D01*
X023858Y009489D02*
X023551Y009489D01*
X023474Y009565D01*
X023474Y009719D01*
X023551Y009795D01*
X023858Y009795D01*
X023934Y009719D01*
X023934Y009565D01*
X023858Y009489D01*
X023934Y009949D02*
X023474Y009949D01*
X023474Y010179D01*
X023551Y010256D01*
X023704Y010256D01*
X023781Y010179D01*
X023781Y009949D01*
X021160Y010739D02*
X020853Y010739D01*
X021006Y010739D02*
X021006Y010278D01*
X019318Y009605D02*
X019318Y009528D01*
X019242Y009528D01*
X019242Y009605D01*
X019318Y009605D01*
X019088Y009605D02*
X019011Y009528D01*
X018858Y009528D01*
X018781Y009605D01*
X018781Y009912D01*
X018858Y009989D01*
X019011Y009989D01*
X019088Y009912D01*
X018167Y009528D02*
X018014Y009528D01*
X018091Y009528D02*
X018091Y009835D01*
X018014Y009835D01*
X018091Y009989D02*
X018091Y010065D01*
X018091Y010355D02*
X018091Y010662D01*
X017784Y009835D02*
X017860Y009758D01*
X017860Y009528D01*
X017630Y009528D01*
X017553Y009605D01*
X017630Y009682D01*
X017860Y009682D01*
X017784Y009835D02*
X017630Y009835D01*
X017400Y009989D02*
X017093Y009682D01*
X017170Y009758D02*
X017400Y009528D01*
X017093Y009528D02*
X017093Y009989D01*
X016479Y009835D02*
X016479Y009682D01*
X016326Y009528D01*
X016172Y009605D02*
X016096Y009528D01*
X015942Y009528D01*
X015865Y009605D01*
X016172Y009912D01*
X016172Y009605D01*
X015865Y009605D02*
X015865Y009912D01*
X015942Y009989D01*
X016096Y009989D01*
X016172Y009912D01*
X016326Y009989D02*
X016479Y009835D01*
X015712Y009605D02*
X015712Y009528D01*
X015635Y009528D01*
X015635Y009605D01*
X015712Y009605D01*
X015482Y009605D02*
X015405Y009528D01*
X015252Y009528D01*
X015175Y009605D01*
X015328Y009758D02*
X015405Y009758D01*
X015482Y009682D01*
X015482Y009605D01*
X015405Y009758D02*
X015482Y009835D01*
X015482Y009912D01*
X015405Y009989D01*
X015252Y009989D01*
X015175Y009912D01*
X015789Y010355D02*
X015789Y010662D01*
X014254Y010355D02*
X014177Y010278D01*
X013794Y010508D02*
X013794Y010662D01*
X013717Y010739D01*
X013487Y010739D01*
X013487Y010278D01*
X013487Y010432D02*
X013717Y010432D01*
X013794Y010508D01*
X012873Y010508D02*
X012796Y010432D01*
X012566Y010432D01*
X012566Y010278D02*
X012566Y010739D01*
X012796Y010739D01*
X012873Y010662D01*
X012873Y010508D01*
X012412Y010508D02*
X012412Y010662D01*
X012336Y010739D01*
X012106Y010739D01*
X012106Y010278D01*
X012106Y010432D02*
X012336Y010432D01*
X012412Y010508D01*
X012259Y010432D02*
X012412Y010278D01*
X011952Y010278D02*
X011952Y010585D01*
X011799Y010739D01*
X011645Y010585D01*
X011645Y010278D01*
X011492Y010278D02*
X011492Y010739D01*
X011492Y010508D02*
X011185Y010508D01*
X011031Y010432D02*
X011031Y010355D01*
X010955Y010278D01*
X010801Y010278D01*
X010724Y010355D01*
X010801Y010508D02*
X010955Y010508D01*
X011031Y010432D01*
X011185Y010278D02*
X011185Y010739D01*
X011031Y010662D02*
X010955Y010739D01*
X010801Y010739D01*
X010724Y010662D01*
X010724Y010585D01*
X010801Y010508D01*
X011108Y009989D02*
X011031Y009912D01*
X011108Y009989D02*
X011261Y009989D01*
X011338Y009912D01*
X011492Y009605D02*
X011568Y009528D01*
X011722Y009528D01*
X011799Y009605D01*
X011952Y010508D02*
X011645Y010508D01*
X012873Y009989D02*
X012873Y009912D01*
X007434Y015278D02*
X006974Y015278D01*
X006974Y015508D01*
X007051Y015585D01*
X007127Y015585D01*
X007204Y015508D01*
X007204Y015278D01*
X007434Y015278D02*
X007434Y015508D01*
X007358Y015585D01*
X007281Y015585D01*
X007204Y015508D01*
X007051Y015739D02*
X006974Y015815D01*
X006974Y015969D01*
X007051Y016045D01*
X007358Y016045D01*
X007434Y015969D01*
X007434Y015815D01*
X007358Y015739D01*
X007051Y015739D01*
X006974Y016199D02*
X006974Y016506D01*
X006974Y016659D02*
X006974Y016966D01*
X006974Y016813D02*
X007434Y016813D01*
X007358Y017120D02*
X007051Y017120D01*
X006974Y017196D01*
X006974Y017350D01*
X007051Y017427D01*
X007358Y017427D01*
X007434Y017350D01*
X007434Y017196D01*
X007358Y017120D01*
X007434Y017580D02*
X006974Y017580D01*
X007127Y017734D01*
X006974Y017887D01*
X007434Y017887D01*
X007434Y016352D02*
X006974Y016352D01*
X009647Y017565D02*
X009724Y017565D01*
X009877Y017565D02*
X010184Y017565D01*
X010184Y017489D02*
X010184Y017642D01*
X010184Y017795D02*
X009877Y017795D01*
X009877Y018026D01*
X009954Y018102D01*
X010184Y018102D01*
X010108Y018256D02*
X010184Y018333D01*
X010184Y018486D01*
X010108Y018563D01*
X010031Y018563D01*
X009954Y018486D01*
X009877Y018563D01*
X009801Y018563D01*
X009724Y018486D01*
X009724Y018333D01*
X009801Y018256D01*
X009954Y018409D02*
X009954Y018486D01*
X009877Y018716D02*
X009724Y018870D01*
X010184Y018870D01*
X010184Y019023D02*
X010184Y018716D01*
X010184Y019528D02*
X009724Y019528D01*
X009724Y019758D01*
X009801Y019835D01*
X009954Y019835D01*
X010031Y019758D01*
X010031Y019528D01*
X010184Y019989D02*
X010184Y020142D01*
X010184Y020065D02*
X009877Y020065D01*
X009877Y019989D01*
X009724Y020065D02*
X009647Y020065D01*
X009877Y020295D02*
X009877Y020526D01*
X009954Y020602D01*
X010184Y020602D01*
X010184Y020756D02*
X009877Y021063D01*
X009801Y021063D01*
X009724Y020986D01*
X009724Y020833D01*
X009801Y020756D01*
X010184Y020756D02*
X010184Y021063D01*
X010184Y021216D02*
X010184Y021523D01*
X010184Y021370D02*
X009724Y021370D01*
X009877Y021216D01*
X009877Y020295D02*
X010184Y020295D01*
X009877Y017565D02*
X009877Y017489D01*
X009801Y017335D02*
X009954Y017335D01*
X010031Y017258D01*
X010031Y017028D01*
X010184Y017028D02*
X009724Y017028D01*
X009724Y017258D01*
X009801Y017335D01*
X020647Y017565D02*
X020724Y017565D01*
X020877Y017565D02*
X021184Y017565D01*
X021184Y017489D02*
X021184Y017642D01*
X021184Y017795D02*
X020877Y017795D01*
X020877Y018026D01*
X020954Y018102D01*
X021184Y018102D01*
X020954Y018256D02*
X020954Y018563D01*
X020801Y018716D02*
X020724Y018793D01*
X020724Y018946D01*
X020801Y019023D01*
X021108Y018716D01*
X021184Y018793D01*
X021184Y018946D01*
X021108Y019023D01*
X020801Y019023D01*
X020801Y018716D02*
X021108Y018716D01*
X021184Y018486D02*
X020724Y018486D01*
X020954Y018256D01*
X020877Y017565D02*
X020877Y017489D01*
X020801Y017335D02*
X020724Y017258D01*
X020724Y017028D01*
X021184Y017028D01*
X021031Y017028D02*
X021031Y017258D01*
X020954Y017335D01*
X020801Y017335D01*
X020724Y019528D02*
X020724Y019758D01*
X020801Y019835D01*
X020954Y019835D01*
X021031Y019758D01*
X021031Y019528D01*
X021184Y019528D02*
X020724Y019528D01*
X020877Y019989D02*
X020877Y020065D01*
X021184Y020065D01*
X021184Y019989D02*
X021184Y020142D01*
X021184Y020295D02*
X020877Y020295D01*
X020877Y020526D01*
X020954Y020602D01*
X021184Y020602D01*
X021108Y020756D02*
X021184Y020833D01*
X021184Y020986D01*
X021108Y021063D01*
X021031Y021063D01*
X020954Y020986D01*
X020954Y020909D01*
X020954Y020986D02*
X020877Y021063D01*
X020801Y021063D01*
X020724Y020986D01*
X020724Y020833D01*
X020801Y020756D01*
X020801Y021216D02*
X020724Y021293D01*
X020724Y021446D01*
X020801Y021523D01*
X021108Y021216D01*
X021184Y021293D01*
X021184Y021446D01*
X021108Y021523D01*
X020801Y021523D01*
X020801Y021216D02*
X021108Y021216D01*
X020724Y020065D02*
X020647Y020065D01*
D11*
X020254Y015010D02*
X021655Y015010D01*
X021655Y011506D01*
X020254Y011506D01*
X020204Y012364D02*
X021204Y012364D01*
X020704Y012902D01*
X020704Y013652D01*
X021204Y014114D01*
X021204Y012364D01*
X023204Y011508D02*
X023204Y007508D01*
X023704Y008008D01*
X023204Y007508D02*
X022704Y008008D01*
X011155Y011506D02*
X009254Y011506D01*
X009254Y015010D01*
X010655Y015010D01*
X011204Y014152D02*
X009704Y014152D01*
X010204Y013652D01*
X010204Y012864D01*
X009704Y012364D01*
X010704Y012364D01*
X009704Y012364D02*
X009704Y014114D01*
X007704Y015008D02*
X007704Y019008D01*
X008204Y018508D01*
X007704Y019008D02*
X007204Y018508D01*
D12*
X010454Y018508D02*
X010454Y018008D01*
X010704Y017758D01*
X011204Y017758D01*
X011454Y018008D01*
X011454Y018508D01*
X011204Y018758D01*
X010704Y018758D01*
X010454Y018508D01*
X011454Y018508D02*
X011704Y018758D01*
X012204Y018758D01*
X012454Y018508D01*
X012704Y018758D01*
X013204Y018758D01*
X013454Y018508D01*
X013704Y018758D01*
X014204Y018758D01*
X014454Y018508D01*
X014704Y018758D01*
X015204Y018758D01*
X015454Y018508D01*
X015704Y018758D01*
X016204Y018758D01*
X016454Y018508D01*
X016704Y018758D01*
X017204Y018758D01*
X017454Y018508D01*
X017704Y018758D01*
X018204Y018758D01*
X018454Y018508D01*
X018704Y018758D01*
X019204Y018758D01*
X019454Y018508D01*
X019704Y018758D01*
X020204Y018758D01*
X020454Y018508D01*
X020454Y018008D01*
X020204Y017758D01*
X019704Y017758D01*
X019454Y018008D01*
X019204Y017758D01*
X018704Y017758D01*
X018454Y018008D01*
X018454Y018508D01*
X018454Y018008D02*
X018204Y017758D01*
X017704Y017758D01*
X017454Y018008D01*
X017204Y017758D01*
X016704Y017758D01*
X016454Y018008D01*
X016204Y017758D01*
X015704Y017758D01*
X015454Y018008D01*
X015454Y018508D01*
X015454Y018008D02*
X015204Y017758D01*
X014704Y017758D01*
X014454Y018008D01*
X014204Y017758D01*
X013704Y017758D01*
X013454Y018008D01*
X013204Y017758D01*
X012704Y017758D01*
X012454Y018008D01*
X012454Y018508D01*
X012454Y018008D02*
X012204Y017758D01*
X011704Y017758D01*
X011454Y018008D01*
X013454Y018008D02*
X013454Y018508D01*
X014454Y018508D02*
X014454Y018008D01*
X016454Y018008D02*
X016454Y018508D01*
X017454Y018508D02*
X017454Y018008D01*
X019454Y018008D02*
X019454Y018508D01*
X019204Y020258D02*
X018704Y020258D01*
X018454Y020508D01*
X018454Y021008D01*
X018704Y021258D01*
X019204Y021258D01*
X019454Y021008D01*
X019704Y021258D01*
X020204Y021258D01*
X020454Y021008D01*
X020454Y020508D01*
X020204Y020258D01*
X019704Y020258D01*
X019454Y020508D01*
X019204Y020258D01*
X019454Y020508D02*
X019454Y021008D01*
X018454Y021008D02*
X018204Y021258D01*
X017704Y021258D01*
X017454Y021008D01*
X017204Y021258D01*
X016704Y021258D01*
X016454Y021008D01*
X016204Y021258D01*
X015704Y021258D01*
X015454Y021008D01*
X015454Y020508D01*
X015704Y020258D01*
X016204Y020258D01*
X016454Y020508D01*
X016454Y021008D01*
X016454Y020508D02*
X016704Y020258D01*
X017204Y020258D01*
X017454Y020508D01*
X017454Y021008D01*
X017454Y020508D02*
X017704Y020258D01*
X018204Y020258D01*
X018454Y020508D01*
X015454Y020508D02*
X015204Y020258D01*
X014704Y020258D01*
X014454Y020508D01*
X014204Y020258D01*
X013704Y020258D01*
X013454Y020508D01*
X013204Y020258D01*
X012704Y020258D01*
X012454Y020508D01*
X012454Y021008D01*
X012704Y021258D01*
X013204Y021258D01*
X013454Y021008D01*
X013704Y021258D01*
X014204Y021258D01*
X014454Y021008D01*
X014704Y021258D01*
X015204Y021258D01*
X015454Y021008D01*
X014454Y021008D02*
X014454Y020508D01*
X013454Y020508D02*
X013454Y021008D01*
X012454Y021008D02*
X012204Y021258D01*
X011704Y021258D01*
X011454Y021008D01*
X011204Y021258D01*
X010704Y021258D01*
X010454Y021008D01*
X010454Y020508D01*
X010704Y020258D01*
X011204Y020258D01*
X011454Y020508D01*
X011454Y021008D01*
X011454Y020508D02*
X011704Y020258D01*
X012204Y020258D01*
X012454Y020508D01*
X012204Y008758D02*
X011704Y008758D01*
X011454Y008508D01*
X011454Y008008D01*
X011704Y007758D01*
X012204Y007758D01*
X012454Y008008D01*
X012454Y008508D01*
X012204Y008758D01*
X012454Y008508D02*
X012704Y008758D01*
X013204Y008758D01*
X013454Y008508D01*
X013704Y008758D01*
X014204Y008758D01*
X014454Y008508D01*
X014704Y008758D01*
X015204Y008758D01*
X015454Y008508D01*
X015454Y008008D01*
X015204Y007758D01*
X014704Y007758D01*
X014454Y008008D01*
X014204Y007758D01*
X013704Y007758D01*
X013454Y008008D01*
X013204Y007758D01*
X012704Y007758D01*
X012454Y008008D01*
X011454Y008008D02*
X011204Y007758D01*
X010704Y007758D01*
X010454Y008008D01*
X010454Y008508D01*
X010704Y008758D01*
X011204Y008758D01*
X011454Y008508D01*
X013454Y008508D02*
X013454Y008008D01*
X014454Y008008D02*
X014454Y008508D01*
X015454Y008508D02*
X015704Y008758D01*
X016204Y008758D01*
X016454Y008508D01*
X016704Y008758D01*
X017204Y008758D01*
X017454Y008508D01*
X017704Y008758D01*
X018204Y008758D01*
X018454Y008508D01*
X018454Y008008D01*
X018204Y007758D01*
X017704Y007758D01*
X017454Y008008D01*
X017204Y007758D01*
X016704Y007758D01*
X016454Y008008D01*
X016204Y007758D01*
X015704Y007758D01*
X015454Y008008D01*
X016454Y008008D02*
X016454Y008508D01*
X017454Y008508D02*
X017454Y008008D01*
X018454Y008008D02*
X018704Y007758D01*
X019204Y007758D01*
X019454Y008008D01*
X019704Y007758D01*
X020204Y007758D01*
X020454Y008008D01*
X020454Y008508D01*
X020204Y008758D01*
X019704Y008758D01*
X019454Y008508D01*
X019454Y008008D01*
X019454Y008508D02*
X019204Y008758D01*
X018704Y008758D01*
X018454Y008508D01*
X018204Y006258D02*
X017704Y006258D01*
X017454Y006008D01*
X017454Y005508D01*
X017704Y005258D01*
X018204Y005258D01*
X018454Y005508D01*
X018454Y006008D01*
X018204Y006258D01*
X018454Y006008D02*
X018704Y006258D01*
X019204Y006258D01*
X019454Y006008D01*
X019704Y006258D01*
X020204Y006258D01*
X020454Y006008D01*
X020454Y005508D01*
X020204Y005258D01*
X019704Y005258D01*
X019454Y005508D01*
X019204Y005258D01*
X018704Y005258D01*
X018454Y005508D01*
X019454Y005508D02*
X019454Y006008D01*
X017454Y006008D02*
X017204Y006258D01*
X016704Y006258D01*
X016454Y006008D01*
X016454Y005508D01*
X016704Y005258D01*
X017204Y005258D01*
X017454Y005508D01*
X016454Y005508D02*
X016204Y005258D01*
X015704Y005258D01*
X015454Y005508D01*
X015204Y005258D01*
X014704Y005258D01*
X014454Y005508D01*
X014204Y005258D01*
X013704Y005258D01*
X013454Y005508D01*
X013204Y005258D01*
X012704Y005258D01*
X012454Y005508D01*
X012204Y005258D01*
X011704Y005258D01*
X011454Y005508D01*
X011204Y005258D01*
X010704Y005258D01*
X010454Y005508D01*
X010454Y006008D01*
X010704Y006258D01*
X011204Y006258D01*
X011454Y006008D01*
X011704Y006258D01*
X012204Y006258D01*
X012454Y006008D01*
X012454Y005508D01*
X012454Y006008D02*
X012704Y006258D01*
X013204Y006258D01*
X013454Y006008D01*
X013704Y006258D01*
X014204Y006258D01*
X014454Y006008D01*
X014704Y006258D01*
X015204Y006258D01*
X015454Y006008D01*
X015454Y005508D01*
X015454Y006008D02*
X015704Y006258D01*
X016204Y006258D01*
X016454Y006008D01*
X014454Y006008D02*
X014454Y005508D01*
X013454Y005508D02*
X013454Y006008D01*
X011454Y006008D02*
X011454Y005508D01*
D13*
X005612Y004990D02*
X005612Y021526D01*
X006557Y021526D02*
X006559Y021576D01*
X006565Y021626D01*
X006575Y021675D01*
X006589Y021723D01*
X006606Y021770D01*
X006627Y021815D01*
X006652Y021859D01*
X006680Y021900D01*
X006712Y021939D01*
X006746Y021976D01*
X006783Y022010D01*
X006823Y022040D01*
X006865Y022067D01*
X006909Y022091D01*
X006955Y022112D01*
X007002Y022128D01*
X007050Y022141D01*
X007100Y022150D01*
X007149Y022155D01*
X007200Y022156D01*
X007250Y022153D01*
X007299Y022146D01*
X007348Y022135D01*
X007396Y022120D01*
X007442Y022102D01*
X007487Y022080D01*
X007530Y022054D01*
X007571Y022025D01*
X007610Y021993D01*
X007646Y021958D01*
X007678Y021920D01*
X007708Y021880D01*
X007735Y021837D01*
X007758Y021793D01*
X007777Y021747D01*
X007793Y021699D01*
X007805Y021650D01*
X007813Y021601D01*
X007817Y021551D01*
X007817Y021501D01*
X007813Y021451D01*
X007805Y021402D01*
X007793Y021353D01*
X007777Y021305D01*
X007758Y021259D01*
X007735Y021215D01*
X007708Y021172D01*
X007678Y021132D01*
X007646Y021094D01*
X007610Y021059D01*
X007571Y021027D01*
X007530Y020998D01*
X007487Y020972D01*
X007442Y020950D01*
X007396Y020932D01*
X007348Y020917D01*
X007299Y020906D01*
X007250Y020899D01*
X007200Y020896D01*
X007149Y020897D01*
X007100Y020902D01*
X007050Y020911D01*
X007002Y020924D01*
X006955Y020940D01*
X006909Y020961D01*
X006865Y020985D01*
X006823Y021012D01*
X006783Y021042D01*
X006746Y021076D01*
X006712Y021113D01*
X006680Y021152D01*
X006652Y021193D01*
X006627Y021237D01*
X006606Y021282D01*
X006589Y021329D01*
X006575Y021377D01*
X006565Y021426D01*
X006559Y021476D01*
X006557Y021526D01*
X005612Y021526D02*
X005614Y021603D01*
X005620Y021680D01*
X005629Y021757D01*
X005642Y021833D01*
X005659Y021909D01*
X005680Y021983D01*
X005704Y022057D01*
X005732Y022129D01*
X005763Y022199D01*
X005798Y022268D01*
X005836Y022336D01*
X005877Y022401D01*
X005922Y022464D01*
X005970Y022525D01*
X006020Y022584D01*
X006073Y022640D01*
X006129Y022693D01*
X006188Y022743D01*
X006249Y022791D01*
X006312Y022836D01*
X006377Y022877D01*
X006445Y022915D01*
X006514Y022950D01*
X006584Y022981D01*
X006656Y023009D01*
X006730Y023033D01*
X006804Y023054D01*
X006880Y023071D01*
X006956Y023084D01*
X007033Y023093D01*
X007110Y023099D01*
X007187Y023101D01*
X023722Y023101D01*
X023092Y021526D02*
X023094Y021576D01*
X023100Y021626D01*
X023110Y021675D01*
X023124Y021723D01*
X023141Y021770D01*
X023162Y021815D01*
X023187Y021859D01*
X023215Y021900D01*
X023247Y021939D01*
X023281Y021976D01*
X023318Y022010D01*
X023358Y022040D01*
X023400Y022067D01*
X023444Y022091D01*
X023490Y022112D01*
X023537Y022128D01*
X023585Y022141D01*
X023635Y022150D01*
X023684Y022155D01*
X023735Y022156D01*
X023785Y022153D01*
X023834Y022146D01*
X023883Y022135D01*
X023931Y022120D01*
X023977Y022102D01*
X024022Y022080D01*
X024065Y022054D01*
X024106Y022025D01*
X024145Y021993D01*
X024181Y021958D01*
X024213Y021920D01*
X024243Y021880D01*
X024270Y021837D01*
X024293Y021793D01*
X024312Y021747D01*
X024328Y021699D01*
X024340Y021650D01*
X024348Y021601D01*
X024352Y021551D01*
X024352Y021501D01*
X024348Y021451D01*
X024340Y021402D01*
X024328Y021353D01*
X024312Y021305D01*
X024293Y021259D01*
X024270Y021215D01*
X024243Y021172D01*
X024213Y021132D01*
X024181Y021094D01*
X024145Y021059D01*
X024106Y021027D01*
X024065Y020998D01*
X024022Y020972D01*
X023977Y020950D01*
X023931Y020932D01*
X023883Y020917D01*
X023834Y020906D01*
X023785Y020899D01*
X023735Y020896D01*
X023684Y020897D01*
X023635Y020902D01*
X023585Y020911D01*
X023537Y020924D01*
X023490Y020940D01*
X023444Y020961D01*
X023400Y020985D01*
X023358Y021012D01*
X023318Y021042D01*
X023281Y021076D01*
X023247Y021113D01*
X023215Y021152D01*
X023187Y021193D01*
X023162Y021237D01*
X023141Y021282D01*
X023124Y021329D01*
X023110Y021377D01*
X023100Y021426D01*
X023094Y021476D01*
X023092Y021526D01*
X023722Y023101D02*
X023799Y023099D01*
X023876Y023093D01*
X023953Y023084D01*
X024029Y023071D01*
X024105Y023054D01*
X024179Y023033D01*
X024253Y023009D01*
X024325Y022981D01*
X024395Y022950D01*
X024464Y022915D01*
X024532Y022877D01*
X024597Y022836D01*
X024660Y022791D01*
X024721Y022743D01*
X024780Y022693D01*
X024836Y022640D01*
X024889Y022584D01*
X024939Y022525D01*
X024987Y022464D01*
X025032Y022401D01*
X025073Y022336D01*
X025111Y022268D01*
X025146Y022199D01*
X025177Y022129D01*
X025205Y022057D01*
X025229Y021983D01*
X025250Y021909D01*
X025267Y021833D01*
X025280Y021757D01*
X025289Y021680D01*
X025295Y021603D01*
X025297Y021526D01*
X025297Y004990D01*
X023092Y004990D02*
X023094Y005040D01*
X023100Y005090D01*
X023110Y005139D01*
X023124Y005187D01*
X023141Y005234D01*
X023162Y005279D01*
X023187Y005323D01*
X023215Y005364D01*
X023247Y005403D01*
X023281Y005440D01*
X023318Y005474D01*
X023358Y005504D01*
X023400Y005531D01*
X023444Y005555D01*
X023490Y005576D01*
X023537Y005592D01*
X023585Y005605D01*
X023635Y005614D01*
X023684Y005619D01*
X023735Y005620D01*
X023785Y005617D01*
X023834Y005610D01*
X023883Y005599D01*
X023931Y005584D01*
X023977Y005566D01*
X024022Y005544D01*
X024065Y005518D01*
X024106Y005489D01*
X024145Y005457D01*
X024181Y005422D01*
X024213Y005384D01*
X024243Y005344D01*
X024270Y005301D01*
X024293Y005257D01*
X024312Y005211D01*
X024328Y005163D01*
X024340Y005114D01*
X024348Y005065D01*
X024352Y005015D01*
X024352Y004965D01*
X024348Y004915D01*
X024340Y004866D01*
X024328Y004817D01*
X024312Y004769D01*
X024293Y004723D01*
X024270Y004679D01*
X024243Y004636D01*
X024213Y004596D01*
X024181Y004558D01*
X024145Y004523D01*
X024106Y004491D01*
X024065Y004462D01*
X024022Y004436D01*
X023977Y004414D01*
X023931Y004396D01*
X023883Y004381D01*
X023834Y004370D01*
X023785Y004363D01*
X023735Y004360D01*
X023684Y004361D01*
X023635Y004366D01*
X023585Y004375D01*
X023537Y004388D01*
X023490Y004404D01*
X023444Y004425D01*
X023400Y004449D01*
X023358Y004476D01*
X023318Y004506D01*
X023281Y004540D01*
X023247Y004577D01*
X023215Y004616D01*
X023187Y004657D01*
X023162Y004701D01*
X023141Y004746D01*
X023124Y004793D01*
X023110Y004841D01*
X023100Y004890D01*
X023094Y004940D01*
X023092Y004990D01*
X023722Y003415D02*
X023799Y003417D01*
X023876Y003423D01*
X023953Y003432D01*
X024029Y003445D01*
X024105Y003462D01*
X024179Y003483D01*
X024253Y003507D01*
X024325Y003535D01*
X024395Y003566D01*
X024464Y003601D01*
X024532Y003639D01*
X024597Y003680D01*
X024660Y003725D01*
X024721Y003773D01*
X024780Y003823D01*
X024836Y003876D01*
X024889Y003932D01*
X024939Y003991D01*
X024987Y004052D01*
X025032Y004115D01*
X025073Y004180D01*
X025111Y004248D01*
X025146Y004317D01*
X025177Y004387D01*
X025205Y004459D01*
X025229Y004533D01*
X025250Y004607D01*
X025267Y004683D01*
X025280Y004759D01*
X025289Y004836D01*
X025295Y004913D01*
X025297Y004990D01*
X023722Y003416D02*
X007187Y003416D01*
X006557Y004990D02*
X006559Y005040D01*
X006565Y005090D01*
X006575Y005139D01*
X006589Y005187D01*
X006606Y005234D01*
X006627Y005279D01*
X006652Y005323D01*
X006680Y005364D01*
X006712Y005403D01*
X006746Y005440D01*
X006783Y005474D01*
X006823Y005504D01*
X006865Y005531D01*
X006909Y005555D01*
X006955Y005576D01*
X007002Y005592D01*
X007050Y005605D01*
X007100Y005614D01*
X007149Y005619D01*
X007200Y005620D01*
X007250Y005617D01*
X007299Y005610D01*
X007348Y005599D01*
X007396Y005584D01*
X007442Y005566D01*
X007487Y005544D01*
X007530Y005518D01*
X007571Y005489D01*
X007610Y005457D01*
X007646Y005422D01*
X007678Y005384D01*
X007708Y005344D01*
X007735Y005301D01*
X007758Y005257D01*
X007777Y005211D01*
X007793Y005163D01*
X007805Y005114D01*
X007813Y005065D01*
X007817Y005015D01*
X007817Y004965D01*
X007813Y004915D01*
X007805Y004866D01*
X007793Y004817D01*
X007777Y004769D01*
X007758Y004723D01*
X007735Y004679D01*
X007708Y004636D01*
X007678Y004596D01*
X007646Y004558D01*
X007610Y004523D01*
X007571Y004491D01*
X007530Y004462D01*
X007487Y004436D01*
X007442Y004414D01*
X007396Y004396D01*
X007348Y004381D01*
X007299Y004370D01*
X007250Y004363D01*
X007200Y004360D01*
X007149Y004361D01*
X007100Y004366D01*
X007050Y004375D01*
X007002Y004388D01*
X006955Y004404D01*
X006909Y004425D01*
X006865Y004449D01*
X006823Y004476D01*
X006783Y004506D01*
X006746Y004540D01*
X006712Y004577D01*
X006680Y004616D01*
X006652Y004657D01*
X006627Y004701D01*
X006606Y004746D01*
X006589Y004793D01*
X006575Y004841D01*
X006565Y004890D01*
X006559Y004940D01*
X006557Y004990D01*
X005612Y004990D02*
X005614Y004913D01*
X005620Y004836D01*
X005629Y004759D01*
X005642Y004683D01*
X005659Y004607D01*
X005680Y004533D01*
X005704Y004459D01*
X005732Y004387D01*
X005763Y004317D01*
X005798Y004248D01*
X005836Y004180D01*
X005877Y004115D01*
X005922Y004052D01*
X005970Y003991D01*
X006020Y003932D01*
X006073Y003876D01*
X006129Y003823D01*
X006188Y003773D01*
X006249Y003725D01*
X006312Y003680D01*
X006377Y003639D01*
X006445Y003601D01*
X006514Y003566D01*
X006584Y003535D01*
X006656Y003507D01*
X006730Y003483D01*
X006804Y003462D01*
X006880Y003445D01*
X006956Y003432D01*
X007033Y003423D01*
X007110Y003417D01*
X007187Y003415D01*
M02*
