%
M48
M72
T01C0.0400
T02C0.1260
%
T01
X10954Y5758
X11954Y5758
X12954Y5758
X13954Y5758
X14954Y5758
X15954Y5758
X16954Y5758
X17954Y5758
X18954Y5758
X19954Y5758
X10954Y8258
X11954Y8258
X12954Y8258
X13954Y8258
X14954Y8258
X15954Y8258
X16954Y8258
X17954Y8258
X18954Y8258
X19954Y8258
X19954Y18258
X18954Y18258
X17954Y18258
X16954Y18258
X15954Y18258
X14954Y18258
X13954Y18258
X12954Y18258
X11954Y18258
X10954Y18258
X19954Y20758
X18954Y20758
X17954Y20758
X16954Y20758
X15954Y20758
X14954Y20758
X13954Y20758
X12954Y20758
X11954Y20758
X10954Y20758
X10704Y13758
X10704Y11758
X11204Y14758
X11204Y12758
X11704Y13758
X11704Y11758
X12204Y14758
X12204Y12758
X12704Y13758
X12704Y11758
X13204Y14758
X13204Y12758
X13704Y13758
X13704Y11758
X14204Y14758
X14204Y12758
X14704Y13758
X14704Y11758
X15204Y14758
X15204Y12758
X15704Y13758
X15704Y11758
X16204Y14758
X16204Y12758
X16704Y13758
X16704Y11758
X17204Y14758
X17204Y12758
X17704Y13758
X17704Y11758
X18204Y14758
X18204Y12758
X18704Y13758
X18704Y11758
X19204Y14758
X19204Y12758
X19704Y13758
X19704Y11758
X20204Y14758
X20204Y12758
T02
X7187Y4990
X23722Y4990
X23722Y21526
X7187Y21526
M30
